{"R_1": {"note_status": 0, "channel": 0, "note": 0, "velocity": 0, "time": 0, "type": "ResetMsg"}, "R_2": {"note_status": 0, "channel": 0, "note": 0, "velocity": 0, "time": 0, "type": "ResetMsg"}, "R_3": {"note_status": 0, "channel": 0, "note": 0, "velocity": 0, "time": 0, "type": "ResetMsg"}, "R_4": {"note_status": 0, "channel": 0, "note": 0, "velocity": 0, "time": 0, "type": "ResetMsg"}, "U_5": {"note_status": 0, "channel": 0, "note": 0, "velocity": 0, "time": 0, "type": "DummyType"}, "M_6": {"note_status": 1, "channel": 0, "note": 69, "velocity": 107, "time": 0, "type": "NormalMsg"}, "M_7": {"note_status": 1, "channel": 0, "note": 69, "velocity": 0, "time": 0, "type": "NormalMsg"}, "M_8": {"note_status": 1, "channel": 0, "note": 69, "velocity": 107, "time": 0, "type": "NormalMsg"}, "M_9": {"note_status": 1, "channel": 0, "note": 69, "velocity": 0, "time": 0, "type": "NormalMsg"}, "M_10": {"note_status": 1, "channel": 0, "note": 69, "velocity": 89, "time": 0, "type": "NormalMsg"}, "M_11": {"note_status": 1, "channel": 0, "note": 69, "velocity": 0, "time": 0, "type": "NormalMsg"}, "M_12": {"note_status": 1, "channel": 0, "note": 69, "velocity": 107, "time": 0, "type": "NormalMsg"}, "M_13": {"note_status": 1, "channel": 0, "note": 69, "velocity": 0, "time": 0, "type": "NormalMsg"}, "M_14": {"note_status": 1, "channel": 0, "note": 69, "velocity": 93, "time": 0, "type": "NormalMsg"}, "M_15": {"note_status": 1, "channel": 0, "note": 69, "velocity": 0, "time": 0, "type": "NormalMsg"}, "M_16": {"note_status": 1, "channel": 0, "note": 67, "velocity": 101, "time": 0, "type": "NormalMsg"}, "M_17": {"note_status": 1, "channel": 0, "note": 67, "velocity": 0, "time": 0, "type": "NormalMsg"}, "M_18": {"note_status": 1, "channel": 0, "note": 65, "velocity": 107, "time": 0, "type": "NormalMsg"}, "M_19": {"note_status": 1, "channel": 0, "note": 65, "velocity": 0, "time": 0, "type": "NormalMsg"}, "M_20": {"note_status": 1, "channel": 0, "note": 65, "velocity": 107, "time": 0, "type": "NormalMsg"}, "M_21": {"note_status": 1, "channel": 0, "note": 65, "velocity": 0, "time": 0, "type": "NormalMsg"}, "M_22": {"note_status": 1, "channel": 0, "note": 65, "velocity": 77, "time": 0, "type": "NormalMsg"}, "M_23": {"note_status": 1, "channel": 0, "note": 65, "velocity": 0, "time": 0, "type": "NormalMsg"}, "M_24": {"note_status": 1, "channel": 0, "note": 65, "velocity": 107, "time": 0, "type": "NormalMsg"}, "M_25": {"note_status": 1, "channel": 0, "note": 65, "velocity": 0, "time": 0, "type": "NormalMsg"}, "M_26": {"note_status": 1, "channel": 0, "note": 65, "velocity": 105, "time": 0, "type": "NormalMsg"}, "M_27": {"note_status": 1, "channel": 0, "note": 65, "velocity": 0, "time": 0, "type": "NormalMsg"}, "M_28": {"note_status": 1, "channel": 0, "note": 65, "velocity": 107, "time": 0, "type": "NormalMsg"}, "M_29": {"note_status": 1, "channel": 0, "note": 65, "velocity": 0, "time": 0, "type": "NormalMsg"}, "M_30": {"note_status": 1, "channel": 0, "note": 65, "velocity": 101, "time": 0, "type": "NormalMsg"}, "M_31": {"note_status": 1, "channel": 0, "note": 65, "velocity": 0, "time": 0, "type": "NormalMsg"}, "M_32": {"note_status": 1, "channel": 0, "note": 65, "velocity": 89, "time": 0, "type": "NormalMsg"}, "M_33": {"note_status": 1, "channel": 0, "note": 65, "velocity": 0, "time": 0, "type": "NormalMsg"}, "M_34": {"note_status": 1, "channel": 0, "note": 64, "velocity": 101, "time": 0, "type": "NormalMsg"}, "M_35": {"note_status": 1, "channel": 0, "note": 64, "velocity": 0, "time": 0, "type": "NormalMsg"}, "M_36": {"note_status": 1, "channel": 0, "note": 62, "velocity": 107, "time": 0, "type": "NormalMsg"}, "M_37": {"note_status": 1, "channel": 0, "note": 62, "velocity": 0, "time": 0, "type": "NormalMsg"}, "M_38": {"note_status": 1, "channel": 0, "note": 62, "velocity": 107, "time": 0, "type": "NormalMsg"}, "M_39": {"note_status": 1, "channel": 0, "note": 62, "velocity": 0, "time": 0, "type": "NormalMsg"}, "M_40": {"note_status": 1, "channel": 0, "note": 62, "velocity": 89, "time": 0, "type": "NormalMsg"}, "M_41": {"note_status": 1, "channel": 0, "note": 62, "velocity": 0, "time": 0, "type": "NormalMsg"}, "M_42": {"note_status": 1, "channel": 0, "note": 62, "velocity": 107, "time": 0, "type": "NormalMsg"}, "M_43": {"note_status": 1, "channel": 0, "note": 62, "velocity": 0, "time": 0, "type": "NormalMsg"}, "M_44": {"note_status": 1, "channel": 0, "note": 65, "velocity": 93, "time": 0, "type": "NormalMsg"}, "M_45": {"note_status": 1, "channel": 0, "note": 65, "velocity": 0, "time": 0, "type": "NormalMsg"}, "M_46": {"note_status": 1, "channel": 0, "note": 62, "velocity": 101, "time": 0, "type": "NormalMsg"}, "M_47": {"note_status": 1, "channel": 0, "note": 62, "velocity": 0, "time": 0, "type": "NormalMsg"}, "M_48": {"note_status": 1, "channel": 0, "note": 67, "velocity": 107, "time": 0, "type": "NormalMsg"}, "M_49": {"note_status": 1, "channel": 0, "note": 67, "velocity": 0, "time": 0, "type": "NormalMsg"}, "M_50": {"note_status": 1, "channel": 0, "note": 67, "velocity": 107, "time": 0, "type": "NormalMsg"}, "M_51": {"note_status": 1, "channel": 0, "note": 67, "velocity": 0, "time": 0, "type": "NormalMsg"}, "M_52": {"note_status": 1, "channel": 0, "note": 67, "velocity": 77, "time": 0, "type": "NormalMsg"}, "M_53": {"note_status": 1, "channel": 0, "note": 67, "velocity": 0, "time": 0, "type": "NormalMsg"}, "M_54": {"note_status": 1, "channel": 0, "note": 67, "velocity": 107, "time": 0, "type": "NormalMsg"}, "M_55": {"note_status": 1, "channel": 0, "note": 67, "velocity": 0, "time": 0, "type": "NormalMsg"}, "M_56": {"note_status": 1, "channel": 0, "note": 67, "velocity": 105, "time": 0, "type": "NormalMsg"}, "M_57": {"note_status": 1, "channel": 0, "note": 67, "velocity": 0, "time": 0, "type": "NormalMsg"}, "M_58": {"note_status": 1, "channel": 0, "note": 67, "velocity": 107, "time": 0, "type": "NormalMsg"}, "M_59": {"note_status": 1, "channel": 0, "note": 67, "velocity": 0, "time": 0, "type": "NormalMsg"}, "M_60": {"note_status": 1, "channel": 0, "note": 67, "velocity": 101, "time": 0, "type": "NormalMsg"}, "M_61": {"note_status": 1, "channel": 0, "note": 67, "velocity": 0, "time": 0, "type": "NormalMsg"}, "M_62": {"note_status": 1, "channel": 0, "note": 65, "velocity": 89, "time": 0, "type": "NormalMsg"}, "M_63": {"note_status": 1, "channel": 0, "note": 65, "velocity": 0, "time": 0, "type": "NormalMsg"}, "M_64": {"note_status": 1, "channel": 0, "note": 67, "velocity": 101, "time": 0, "type": "NormalMsg"}, "M_65": {"note_status": 1, "channel": 0, "note": 67, "velocity": 0, "time": 0, "type": "NormalMsg"}, "M_66": {"note_status": 1, "channel": 0, "note": 69, "velocity": 107, "time": 0, "type": "NormalMsg"}, "M_67": {"note_status": 1, "channel": 0, "note": 69, "velocity": 0, "time": 0, "type": "NormalMsg"}, "M_68": {"note_status": 1, "channel": 0, "note": 69, "velocity": 107, "time": 0, "type": "NormalMsg"}, "M_69": {"note_status": 1, "channel": 0, "note": 69, "velocity": 0, "time": 0, "type": "NormalMsg"}, "M_70": {"note_status": 1, "channel": 0, "note": 69, "velocity": 89, "time": 0, "type": "NormalMsg"}, "M_71": {"note_status": 1, "channel": 0, "note": 69, "velocity": 0, "time": 0, "type": "NormalMsg"}, "M_72": {"note_status": 1, "channel": 0, "note": 69, "velocity": 107, "time": 0, "type": "NormalMsg"}, "M_73": {"note_status": 1, "channel": 0, "note": 69, "velocity": 0, "time": 0, "type": "NormalMsg"}, "M_74": {"note_status": 1, "channel": 0, "note": 69, "velocity": 93, "time": 0, "type": "NormalMsg"}, "M_75": {"note_status": 1, "channel": 0, "note": 69, "velocity": 0, "time": 0, "type": "NormalMsg"}, "M_76": {"note_status": 1, "channel": 0, "note": 67, "velocity": 101, "time": 0, "type": "NormalMsg"}, "M_77": {"note_status": 1, "channel": 0, "note": 67, "velocity": 0, "time": 0, "type": "NormalMsg"}, "M_78": {"note_status": 1, "channel": 0, "note": 65, "velocity": 107, "time": 0, "type": "NormalMsg"}, "M_79": {"note_status": 1, "channel": 0, "note": 65, "velocity": 0, "time": 0, "type": "NormalMsg"}, "M_80": {"note_status": 1, "channel": 0, "note": 65, "velocity": 107, "time": 0, "type": "NormalMsg"}, "M_81": {"note_status": 1, "channel": 0, "note": 65, "velocity": 0, "time": 0, "type": "NormalMsg"}, "M_82": {"note_status": 1, "channel": 0, "note": 65, "velocity": 77, "time": 0, "type": "NormalMsg"}, "M_83": {"note_status": 1, "channel": 0, "note": 65, "velocity": 0, "time": 0, "type": "NormalMsg"}, "M_84": {"note_status": 1, "channel": 0, "note": 65, "velocity": 107, "time": 0, "type": "NormalMsg"}, "M_85": {"note_status": 1, "channel": 0, "note": 65, "velocity": 0, "time": 0, "type": "NormalMsg"}, "M_86": {"note_status": 1, "channel": 0, "note": 65, "velocity": 105, "time": 0, "type": "NormalMsg"}, "M_87": {"note_status": 1, "channel": 0, "note": 65, "velocity": 0, "time": 0, "type": "NormalMsg"}, "M_88": {"note_status": 1, "channel": 0, "note": 65, "velocity": 107, "time": 0, "type": "NormalMsg"}, "M_89": {"note_status": 1, "channel": 0, "note": 65, "velocity": 0, "time": 0, "type": "NormalMsg"}, "M_90": {"note_status": 1, "channel": 0, "note": 65, "velocity": 101, "time": 0, "type": "NormalMsg"}, "M_91": {"note_status": 1, "channel": 0, "note": 65, "velocity": 0, "time": 0, "type": "NormalMsg"}, "M_92": {"note_status": 1, "channel": 0, "note": 65, "velocity": 89, "time": 0, "type": "NormalMsg"}, "M_93": {"note_status": 1, "channel": 0, "note": 65, "velocity": 0, "time": 0, "type": "NormalMsg"}, "M_94": {"note_status": 1, "channel": 0, "note": 64, "velocity": 101, "time": 0, "type": "NormalMsg"}, "M_95": {"note_status": 1, "channel": 0, "note": 64, "velocity": 0, "time": 0, "type": "NormalMsg"}, "M_96": {"note_status": 1, "channel": 0, "note": 62, "velocity": 107, "time": 0, "type": "NormalMsg"}, "M_97": {"note_status": 1, "channel": 0, "note": 62, "velocity": 0, "time": 0, "type": "NormalMsg"}, "M_98": {"note_status": 1, "channel": 0, "note": 62, "velocity": 107, "time": 0, "type": "NormalMsg"}, "M_99": {"note_status": 1, "channel": 0, "note": 62, "velocity": 0, "time": 0, "type": "NormalMsg"}, "M_100": {"note_status": 1, "channel": 0, "note": 62, "velocity": 89, "time": 0, "type": "NormalMsg"}, "M_101": {"note_status": 1, "channel": 0, "note": 62, "velocity": 0, "time": 0, "type": "NormalMsg"}, "M_102": {"note_status": 1, "channel": 0, "note": 62, "velocity": 107, "time": 0, "type": "NormalMsg"}, "M_103": {"note_status": 1, "channel": 0, "note": 62, "velocity": 0, "time": 0, "type": "NormalMsg"}, "M_104": {"note_status": 1, "channel": 0, "note": 65, "velocity": 93, "time": 0, "type": "NormalMsg"}, "M_105": {"note_status": 1, "channel": 0, "note": 65, "velocity": 0, "time": 0, "type": "NormalMsg"}, "M_106": {"note_status": 1, "channel": 0, "note": 62, "velocity": 101, "time": 0, "type": "NormalMsg"}, "M_107": {"note_status": 1, "channel": 0, "note": 62, "velocity": 0, "time": 0, "type": "NormalMsg"}, "M_108": {"note_status": 1, "channel": 0, "note": 67, "velocity": 107, "time": 0, "type": "NormalMsg"}, "M_109": {"note_status": 1, "channel": 0, "note": 67, "velocity": 0, "time": 0, "type": "NormalMsg"}, "M_110": {"note_status": 1, "channel": 0, "note": 67, "velocity": 107, "time": 0, "type": "NormalMsg"}, "M_111": {"note_status": 1, "channel": 0, "note": 67, "velocity": 0, "time": 0, "type": "NormalMsg"}, "M_112": {"note_status": 1, "channel": 0, "note": 67, "velocity": 77, "time": 0, "type": "NormalMsg"}, "M_113": {"note_status": 1, "channel": 0, "note": 67, "velocity": 0, "time": 0, "type": "NormalMsg"}, "M_114": {"note_status": 1, "channel": 0, "note": 67, "velocity": 107, "time": 0, "type": "NormalMsg"}, "M_115": {"note_status": 1, "channel": 0, "note": 67, "velocity": 0, "time": 0, "type": "NormalMsg"}, "M_116": {"note_status": 1, "channel": 0, "note": 67, "velocity": 105, "time": 0, "type": "NormalMsg"}, "M_117": {"note_status": 1, "channel": 0, "note": 67, "velocity": 0, "time": 0, "type": "NormalMsg"}, "M_118": {"note_status": 1, "channel": 0, "note": 67, "velocity": 107, "time": 0, "type": "NormalMsg"}, "M_119": {"note_status": 1, "channel": 0, "note": 67, "velocity": 0, "time": 0, "type": "NormalMsg"}, "M_120": {"note_status": 1, "channel": 0, "note": 67, "velocity": 101, "time": 0, "type": "NormalMsg"}, "M_121": {"note_status": 1, "channel": 0, "note": 67, "velocity": 0, "time": 0, "type": "NormalMsg"}, "M_122": {"note_status": 1, "channel": 0, "note": 65, "velocity": 89, "time": 0, "type": "NormalMsg"}, "M_123": {"note_status": 1, "channel": 0, "note": 65, "velocity": 0, "time": 0, "type": "NormalMsg"}, "M_124": {"note_status": 1, "channel": 0, "note": 67, "velocity": 101, "time": 0, "type": "NormalMsg"}, "M_125": {"note_status": 1, "channel": 0, "note": 67, "velocity": 0, "time": 0, "type": "NormalMsg"}, "M_126": {"note_status": 1, "channel": 0, "note": 69, "velocity": 107, "time": 0, "type": "NormalMsg"}, "M_127": {"note_status": 1, "channel": 0, "note": 69, "velocity": 0, "time": 0, "type": "NormalMsg"}, "M_128": {"note_status": 1, "channel": 0, "note": 69, "velocity": 107, "time": 0, "type": "NormalMsg"}, "M_129": {"note_status": 1, "channel": 0, "note": 69, "velocity": 0, "time": 0, "type": "NormalMsg"}, "M_130": {"note_status": 1, "channel": 0, "note": 69, "velocity": 89, "time": 0, "type": "NormalMsg"}, "M_131": {"note_status": 1, "channel": 0, "note": 69, "velocity": 0, "time": 0, "type": "NormalMsg"}, "M_132": {"note_status": 1, "channel": 0, "note": 69, "velocity": 107, "time": 0, "type": "NormalMsg"}, "M_133": {"note_status": 1, "channel": 0, "note": 69, "velocity": 0, "time": 0, "type": "NormalMsg"}, "M_134": {"note_status": 1, "channel": 0, "note": 69, "velocity": 93, "time": 0, "type": "NormalMsg"}, "M_135": {"note_status": 1, "channel": 0, "note": 69, "velocity": 0, "time": 0, "type": "NormalMsg"}, "M_136": {"note_status": 1, "channel": 0, "note": 67, "velocity": 101, "time": 0, "type": "NormalMsg"}, "M_137": {"note_status": 1, "channel": 0, "note": 67, "velocity": 0, "time": 0, "type": "NormalMsg"}, "M_138": {"note_status": 1, "channel": 0, "note": 65, "velocity": 107, "time": 0, "type": "NormalMsg"}, "M_139": {"note_status": 1, "channel": 0, "note": 65, "velocity": 0, "time": 0, "type": "NormalMsg"}, "M_140": {"note_status": 1, "channel": 0, "note": 65, "velocity": 107, "time": 0, "type": "NormalMsg"}, "M_141": {"note_status": 1, "channel": 0, "note": 65, "velocity": 0, "time": 0, "type": "NormalMsg"}, "M_142": {"note_status": 1, "channel": 0, "note": 65, "velocity": 77, "time": 0, "type": "NormalMsg"}, "M_143": {"note_status": 1, "channel": 0, "note": 65, "velocity": 0, "time": 0, "type": "NormalMsg"}, "M_144": {"note_status": 1, "channel": 0, "note": 65, "velocity": 107, "time": 0, "type": "NormalMsg"}, "M_145": {"note_status": 1, "channel": 0, "note": 65, "velocity": 0, "time": 0, "type": "NormalMsg"}, "M_146": {"note_status": 1, "channel": 0, "note": 65, "velocity": 105, "time": 0, "type": "NormalMsg"}, "M_147": {"note_status": 1, "channel": 0, "note": 65, "velocity": 0, "time": 0, "type": "NormalMsg"}, "M_148": {"note_status": 1, "channel": 0, "note": 65, "velocity": 107, "time": 0, "type": "NormalMsg"}, "M_149": {"note_status": 1, "channel": 0, "note": 65, "velocity": 0, "time": 0, "type": "NormalMsg"}, "M_150": {"note_status": 1, "channel": 0, "note": 65, "velocity": 101, "time": 0, "type": "NormalMsg"}, "M_151": {"note_status": 1, "channel": 0, "note": 65, "velocity": 0, "time": 0, "type": "NormalMsg"}, "M_152": {"note_status": 1, "channel": 0, "note": 65, "velocity": 89, "time": 0, "type": "NormalMsg"}, "M_153": {"note_status": 1, "channel": 0, "note": 65, "velocity": 0, "time": 0, "type": "NormalMsg"}, "M_154": {"note_status": 1, "channel": 0, "note": 64, "velocity": 101, "time": 0, "type": "NormalMsg"}, "M_155": {"note_status": 1, "channel": 0, "note": 64, "velocity": 0, "time": 0, "type": "NormalMsg"}, "M_156": {"note_status": 1, "channel": 0, "note": 62, "velocity": 107, "time": 0, "type": "NormalMsg"}, "M_157": {"note_status": 1, "channel": 0, "note": 62, "velocity": 0, "time": 0, "type": "NormalMsg"}, "M_158": {"note_status": 1, "channel": 0, "note": 62, "velocity": 107, "time": 0, "type": "NormalMsg"}, "M_159": {"note_status": 1, "channel": 0, "note": 62, "velocity": 0, "time": 0, "type": "NormalMsg"}, "M_160": {"note_status": 1, "channel": 0, "note": 62, "velocity": 89, "time": 0, "type": "NormalMsg"}, "M_161": {"note_status": 1, "channel": 0, "note": 62, "velocity": 0, "time": 0, "type": "NormalMsg"}, "M_162": {"note_status": 1, "channel": 0, "note": 62, "velocity": 107, "time": 0, "type": "NormalMsg"}, "M_163": {"note_status": 1, "channel": 0, "note": 62, "velocity": 0, "time": 0, "type": "NormalMsg"}, "M_164": {"note_status": 1, "channel": 0, "note": 65, "velocity": 93, "time": 0, "type": "NormalMsg"}, "M_165": {"note_status": 1, "channel": 0, "note": 65, "velocity": 0, "time": 0, "type": "NormalMsg"}, "M_166": {"note_status": 1, "channel": 0, "note": 62, "velocity": 101, "time": 0, "type": "NormalMsg"}, "M_167": {"note_status": 1, "channel": 0, "note": 62, "velocity": 0, "time": 0, "type": "NormalMsg"}, "M_168": {"note_status": 1, "channel": 0, "note": 67, "velocity": 107, "time": 0, "type": "NormalMsg"}, "M_169": {"note_status": 1, "channel": 0, "note": 67, "velocity": 0, "time": 0, "type": "NormalMsg"}, "M_170": {"note_status": 1, "channel": 0, "note": 67, "velocity": 107, "time": 0, "type": "NormalMsg"}, "M_171": {"note_status": 1, "channel": 0, "note": 67, "velocity": 0, "time": 0, "type": "NormalMsg"}, "M_172": {"note_status": 1, "channel": 0, "note": 67, "velocity": 77, "time": 0, "type": "NormalMsg"}, "M_173": {"note_status": 1, "channel": 0, "note": 67, "velocity": 0, "time": 0, "type": "NormalMsg"}, "M_174": {"note_status": 1, "channel": 0, "note": 67, "velocity": 107, "time": 0, "type": "NormalMsg"}, "M_175": {"note_status": 1, "channel": 0, "note": 67, "velocity": 0, "time": 0, "type": "NormalMsg"}, "M_176": {"note_status": 1, "channel": 0, "note": 67, "velocity": 105, "time": 0, "type": "NormalMsg"}, "M_177": {"note_status": 1, "channel": 0, "note": 67, "velocity": 0, "time": 0, "type": "NormalMsg"}, "M_178": {"note_status": 1, "channel": 0, "note": 67, "velocity": 107, "time": 0, "type": "NormalMsg"}, "M_179": {"note_status": 1, "channel": 0, "note": 67, "velocity": 0, "time": 0, "type": "NormalMsg"}, "M_180": {"note_status": 1, "channel": 0, "note": 67, "velocity": 101, "time": 0, "type": "NormalMsg"}, "M_181": {"note_status": 1, "channel": 0, "note": 67, "velocity": 0, "time": 0, "type": "NormalMsg"}, "M_182": {"note_status": 1, "channel": 0, "note": 65, "velocity": 89, "time": 0, "type": "NormalMsg"}, "M_183": {"note_status": 1, "channel": 0, "note": 65, "velocity": 0, "time": 0, "type": "NormalMsg"}, "M_184": {"note_status": 1, "channel": 0, "note": 67, "velocity": 101, "time": 0, "type": "NormalMsg"}, "M_185": {"note_status": 1, "channel": 0, "note": 67, "velocity": 0, "time": 0, "type": "NormalMsg"}, "M_186": {"note_status": 1, "channel": 0, "note": 69, "velocity": 107, "time": 0, "type": "NormalMsg"}, "M_187": {"note_status": 1, "channel": 0, "note": 69, "velocity": 0, "time": 0, "type": "NormalMsg"}, "M_188": {"note_status": 1, "channel": 0, "note": 69, "velocity": 107, "time": 0, "type": "NormalMsg"}, "M_189": {"note_status": 1, "channel": 0, "note": 69, "velocity": 0, "time": 0, "type": "NormalMsg"}, "M_190": {"note_status": 1, "channel": 0, "note": 69, "velocity": 89, "time": 0, "type": "NormalMsg"}, "M_191": {"note_status": 1, "channel": 0, "note": 69, "velocity": 0, "time": 0, "type": "NormalMsg"}, "M_192": {"note_status": 1, "channel": 0, "note": 69, "velocity": 107, "time": 0, "type": "NormalMsg"}, "M_193": {"note_status": 1, "channel": 0, "note": 69, "velocity": 0, "time": 0, "type": "NormalMsg"}, "M_194": {"note_status": 1, "channel": 0, "note": 69, "velocity": 93, "time": 0, "type": "NormalMsg"}, "M_195": {"note_status": 1, "channel": 0, "note": 69, "velocity": 0, "time": 0, "type": "NormalMsg"}, "M_196": {"note_status": 1, "channel": 0, "note": 67, "velocity": 101, "time": 0, "type": "NormalMsg"}, "M_197": {"note_status": 1, "channel": 0, "note": 67, "velocity": 0, "time": 0, "type": "NormalMsg"}, "M_198": {"note_status": 1, "channel": 0, "note": 65, "velocity": 107, "time": 0, "type": "NormalMsg"}, "M_199": {"note_status": 1, "channel": 0, "note": 65, "velocity": 0, "time": 0, "type": "NormalMsg"}, "M_200": {"note_status": 1, "channel": 0, "note": 65, "velocity": 107, "time": 0, "type": "NormalMsg"}, "M_201": {"note_status": 1, "channel": 0, "note": 65, "velocity": 0, "time": 0, "type": "NormalMsg"}, "M_202": {"note_status": 1, "channel": 0, "note": 65, "velocity": 77, "time": 0, "type": "NormalMsg"}, "M_203": {"note_status": 1, "channel": 0, "note": 65, "velocity": 0, "time": 0, "type": "NormalMsg"}, "M_204": {"note_status": 1, "channel": 0, "note": 65, "velocity": 107, "time": 0, "type": "NormalMsg"}, "M_205": {"note_status": 1, "channel": 0, "note": 65, "velocity": 0, "time": 0, "type": "NormalMsg"}, "M_206": {"note_status": 1, "channel": 0, "note": 65, "velocity": 105, "time": 0, "type": "NormalMsg"}, "M_207": {"note_status": 1, "channel": 0, "note": 65, "velocity": 0, "time": 0, "type": "NormalMsg"}, "M_208": {"note_status": 1, "channel": 0, "note": 65, "velocity": 107, "time": 0, "type": "NormalMsg"}, "M_209": {"note_status": 1, "channel": 0, "note": 65, "velocity": 0, "time": 0, "type": "NormalMsg"}, "M_210": {"note_status": 1, "channel": 0, "note": 65, "velocity": 101, "time": 0, "type": "NormalMsg"}, "M_211": {"note_status": 1, "channel": 0, "note": 65, "velocity": 0, "time": 0, "type": "NormalMsg"}, "M_212": {"note_status": 1, "channel": 0, "note": 65, "velocity": 89, "time": 0, "type": "NormalMsg"}, "M_213": {"note_status": 1, "channel": 0, "note": 65, "velocity": 0, "time": 0, "type": "NormalMsg"}, "M_214": {"note_status": 1, "channel": 0, "note": 64, "velocity": 101, "time": 0, "type": "NormalMsg"}, "M_215": {"note_status": 1, "channel": 0, "note": 64, "velocity": 0, "time": 0, "type": "NormalMsg"}, "M_216": {"note_status": 1, "channel": 0, "note": 62, "velocity": 107, "time": 0, "type": "NormalMsg"}, "M_217": {"note_status": 1, "channel": 0, "note": 62, "velocity": 0, "time": 0, "type": "NormalMsg"}, "M_218": {"note_status": 1, "channel": 0, "note": 62, "velocity": 107, "time": 0, "type": "NormalMsg"}, "M_219": {"note_status": 1, "channel": 0, "note": 62, "velocity": 0, "time": 0, "type": "NormalMsg"}, "M_220": {"note_status": 1, "channel": 0, "note": 62, "velocity": 89, "time": 0, "type": "NormalMsg"}, "M_221": {"note_status": 1, "channel": 0, "note": 62, "velocity": 0, "time": 0, "type": "NormalMsg"}, "M_222": {"note_status": 1, "channel": 0, "note": 62, "velocity": 107, "time": 0, "type": "NormalMsg"}, "M_223": {"note_status": 1, "channel": 0, "note": 62, "velocity": 0, "time": 0, "type": "NormalMsg"}, "M_224": {"note_status": 1, "channel": 0, "note": 65, "velocity": 93, "time": 0, "type": "NormalMsg"}, "M_225": {"note_status": 1, "channel": 0, "note": 65, "velocity": 0, "time": 0, "type": "NormalMsg"}, "M_226": {"note_status": 1, "channel": 0, "note": 62, "velocity": 101, "time": 0, "type": "NormalMsg"}, "M_227": {"note_status": 1, "channel": 0, "note": 62, "velocity": 0, "time": 0, "type": "NormalMsg"}, "M_228": {"note_status": 1, "channel": 0, "note": 67, "velocity": 107, "time": 0, "type": "NormalMsg"}, "M_229": {"note_status": 1, "channel": 0, "note": 67, "velocity": 0, "time": 0, "type": "NormalMsg"}, "M_230": {"note_status": 1, "channel": 0, "note": 67, "velocity": 107, "time": 0, "type": "NormalMsg"}, "M_231": {"note_status": 1, "channel": 0, "note": 67, "velocity": 0, "time": 0, "type": "NormalMsg"}, "M_232": {"note_status": 1, "channel": 0, "note": 67, "velocity": 77, "time": 0, "type": "NormalMsg"}, "M_233": {"note_status": 1, "channel": 0, "note": 67, "velocity": 0, "time": 0, "type": "NormalMsg"}, "M_234": {"note_status": 1, "channel": 0, "note": 67, "velocity": 107, "time": 0, "type": "NormalMsg"}, "M_235": {"note_status": 1, "channel": 0, "note": 67, "velocity": 0, "time": 0, "type": "NormalMsg"}, "M_236": {"note_status": 1, "channel": 0, "note": 67, "velocity": 105, "time": 0, "type": "NormalMsg"}, "M_237": {"note_status": 1, "channel": 0, "note": 67, "velocity": 0, "time": 0, "type": "NormalMsg"}, "M_238": {"note_status": 1, "channel": 0, "note": 67, "velocity": 107, "time": 0, "type": "NormalMsg"}, "M_239": {"note_status": 1, "channel": 0, "note": 67, "velocity": 0, "time": 0, "type": "NormalMsg"}, "M_240": {"note_status": 1, "channel": 0, "note": 67, "velocity": 101, "time": 0, "type": "NormalMsg"}, "M_241": {"note_status": 1, "channel": 0, "note": 67, "velocity": 0, "time": 0, "type": "NormalMsg"}, "M_242": {"note_status": 1, "channel": 0, "note": 65, "velocity": 89, "time": 0, "type": "NormalMsg"}, "M_243": {"note_status": 1, "channel": 0, "note": 65, "velocity": 0, "time": 0, "type": "NormalMsg"}, "M_244": {"note_status": 1, "channel": 0, "note": 67, "velocity": 101, "time": 0, "type": "NormalMsg"}, "M_245": {"note_status": 1, "channel": 0, "note": 67, "velocity": 0, "time": 0, "type": "NormalMsg"}, "M_246": {"note_status": 1, "channel": 0, "note": 69, "velocity": 107, "time": 0, "type": "NormalMsg"}, "M_247": {"note_status": 1, "channel": 0, "note": 69, "velocity": 0, "time": 0, "type": "NormalMsg"}, "M_248": {"note_status": 1, "channel": 0, "note": 69, "velocity": 107, "time": 0, "type": "NormalMsg"}, "M_249": {"note_status": 1, "channel": 0, "note": 69, "velocity": 0, "time": 0, "type": "NormalMsg"}, "M_250": {"note_status": 1, "channel": 0, "note": 69, "velocity": 89, "time": 0, "type": "NormalMsg"}, "M_251": {"note_status": 1, "channel": 0, "note": 69, "velocity": 0, "time": 0, "type": "NormalMsg"}, "M_252": {"note_status": 1, "channel": 0, "note": 69, "velocity": 107, "time": 0, "type": "NormalMsg"}, "M_253": {"note_status": 1, "channel": 0, "note": 69, "velocity": 0, "time": 0, "type": "NormalMsg"}, "M_254": {"note_status": 1, "channel": 0, "note": 69, "velocity": 93, "time": 0, "type": "NormalMsg"}, "M_255": {"note_status": 1, "channel": 0, "note": 69, "velocity": 0, "time": 0, "type": "NormalMsg"}, "M_256": {"note_status": 1, "channel": 0, "note": 67, "velocity": 101, "time": 0, "type": "NormalMsg"}, "M_257": {"note_status": 1, "channel": 0, "note": 67, "velocity": 0, "time": 0, "type": "NormalMsg"}, "M_258": {"note_status": 1, "channel": 0, "note": 65, "velocity": 107, "time": 0, "type": "NormalMsg"}, "M_259": {"note_status": 1, "channel": 0, "note": 65, "velocity": 0, "time": 0, "type": "NormalMsg"}, "M_260": {"note_status": 1, "channel": 0, "note": 65, "velocity": 107, "time": 0, "type": "NormalMsg"}, "M_261": {"note_status": 1, "channel": 0, "note": 65, "velocity": 0, "time": 0, "type": "NormalMsg"}, "M_262": {"note_status": 1, "channel": 0, "note": 65, "velocity": 77, "time": 0, "type": "NormalMsg"}, "M_263": {"note_status": 1, "channel": 0, "note": 65, "velocity": 0, "time": 0, "type": "NormalMsg"}, "M_264": {"note_status": 1, "channel": 0, "note": 65, "velocity": 107, "time": 0, "type": "NormalMsg"}, "M_265": {"note_status": 1, "channel": 0, "note": 65, "velocity": 0, "time": 0, "type": "NormalMsg"}, "M_266": {"note_status": 1, "channel": 0, "note": 65, "velocity": 105, "time": 0, "type": "NormalMsg"}, "M_267": {"note_status": 1, "channel": 0, "note": 65, "velocity": 0, "time": 0, "type": "NormalMsg"}, "M_268": {"note_status": 1, "channel": 0, "note": 65, "velocity": 107, "time": 0, "type": "NormalMsg"}, "M_269": {"note_status": 1, "channel": 0, "note": 65, "velocity": 0, "time": 0, "type": "NormalMsg"}, "M_270": {"note_status": 1, "channel": 0, "note": 65, "velocity": 101, "time": 0, "type": "NormalMsg"}, "M_271": {"note_status": 1, "channel": 0, "note": 65, "velocity": 0, "time": 0, "type": "NormalMsg"}, "M_272": {"note_status": 1, "channel": 0, "note": 65, "velocity": 89, "time": 0, "type": "NormalMsg"}, "M_273": {"note_status": 1, "channel": 0, "note": 65, "velocity": 0, "time": 0, "type": "NormalMsg"}, "M_274": {"note_status": 1, "channel": 0, "note": 64, "velocity": 101, "time": 0, "type": "NormalMsg"}, "M_275": {"note_status": 1, "channel": 0, "note": 64, "velocity": 0, "time": 0, "type": "NormalMsg"}, "M_276": {"note_status": 1, "channel": 0, "note": 62, "velocity": 107, "time": 0, "type": "NormalMsg"}, "M_277": {"note_status": 1, "channel": 0, "note": 62, "velocity": 0, "time": 0, "type": "NormalMsg"}, "M_278": {"note_status": 1, "channel": 0, "note": 62, "velocity": 107, "time": 0, "type": "NormalMsg"}, "M_279": {"note_status": 1, "channel": 0, "note": 62, "velocity": 0, "time": 0, "type": "NormalMsg"}, "M_280": {"note_status": 1, "channel": 0, "note": 62, "velocity": 89, "time": 0, "type": "NormalMsg"}, "M_281": {"note_status": 1, "channel": 0, "note": 62, "velocity": 0, "time": 0, "type": "NormalMsg"}, "M_282": {"note_status": 1, "channel": 0, "note": 62, "velocity": 107, "time": 0, "type": "NormalMsg"}, "M_283": {"note_status": 1, "channel": 0, "note": 62, "velocity": 0, "time": 0, "type": "NormalMsg"}, "M_284": {"note_status": 1, "channel": 0, "note": 65, "velocity": 93, "time": 0, "type": "NormalMsg"}, "M_285": {"note_status": 1, "channel": 0, "note": 65, "velocity": 0, "time": 0, "type": "NormalMsg"}, "M_286": {"note_status": 1, "channel": 0, "note": 62, "velocity": 101, "time": 0, "type": "NormalMsg"}, "M_287": {"note_status": 1, "channel": 0, "note": 62, "velocity": 0, "time": 0, "type": "NormalMsg"}, "M_288": {"note_status": 1, "channel": 0, "note": 67, "velocity": 107, "time": 0, "type": "NormalMsg"}, "M_289": {"note_status": 1, "channel": 0, "note": 67, "velocity": 0, "time": 0, "type": "NormalMsg"}, "M_290": {"note_status": 1, "channel": 0, "note": 67, "velocity": 107, "time": 0, "type": "NormalMsg"}, "M_291": {"note_status": 1, "channel": 0, "note": 67, "velocity": 0, "time": 0, "type": "NormalMsg"}, "M_292": {"note_status": 1, "channel": 0, "note": 67, "velocity": 77, "time": 0, "type": "NormalMsg"}, "M_293": {"note_status": 1, "channel": 0, "note": 67, "velocity": 0, "time": 0, "type": "NormalMsg"}, "M_294": {"note_status": 1, "channel": 0, "note": 67, "velocity": 107, "time": 0, "type": "NormalMsg"}, "M_295": {"note_status": 1, "channel": 0, "note": 67, "velocity": 0, "time": 0, "type": "NormalMsg"}, "M_296": {"note_status": 1, "channel": 0, "note": 67, "velocity": 105, "time": 0, "type": "NormalMsg"}, "M_297": {"note_status": 1, "channel": 0, "note": 67, "velocity": 0, "time": 0, "type": "NormalMsg"}, "M_298": {"note_status": 1, "channel": 0, "note": 67, "velocity": 107, "time": 0, "type": "NormalMsg"}, "M_299": {"note_status": 1, "channel": 0, "note": 67, "velocity": 0, "time": 0, "type": "NormalMsg"}, "M_300": {"note_status": 1, "channel": 0, "note": 67, "velocity": 101, "time": 0, "type": "NormalMsg"}, "M_301": {"note_status": 1, "channel": 0, "note": 67, "velocity": 0, "time": 0, "type": "NormalMsg"}, "M_302": {"note_status": 1, "channel": 0, "note": 65, "velocity": 89, "time": 0, "type": "NormalMsg"}, "M_303": {"note_status": 1, "channel": 0, "note": 65, "velocity": 0, "time": 0, "type": "NormalMsg"}, "M_304": {"note_status": 1, "channel": 0, "note": 67, "velocity": 101, "time": 0, "type": "NormalMsg"}, "M_305": {"note_status": 1, "channel": 0, "note": 67, "velocity": 0, "time": 0, "type": "NormalMsg"}, "M_306": {"note_status": 1, "channel": 0, "note": 69, "velocity": 107, "time": 0, "type": "NormalMsg"}, "M_307": {"note_status": 1, "channel": 0, "note": 69, "velocity": 0, "time": 0, "type": "NormalMsg"}, "M_308": {"note_status": 1, "channel": 0, "note": 69, "velocity": 107, "time": 0, "type": "NormalMsg"}, "M_309": {"note_status": 1, "channel": 0, "note": 69, "velocity": 0, "time": 0, "type": "NormalMsg"}, "M_310": {"note_status": 1, "channel": 0, "note": 69, "velocity": 89, "time": 0, "type": "NormalMsg"}, "M_311": {"note_status": 1, "channel": 0, "note": 69, "velocity": 0, "time": 0, "type": "NormalMsg"}, "M_312": {"note_status": 1, "channel": 0, "note": 69, "velocity": 107, "time": 0, "type": "NormalMsg"}, "M_313": {"note_status": 1, "channel": 0, "note": 69, "velocity": 0, "time": 0, "type": "NormalMsg"}, "M_314": {"note_status": 1, "channel": 0, "note": 69, "velocity": 93, "time": 0, "type": "NormalMsg"}, "M_315": {"note_status": 1, "channel": 0, "note": 69, "velocity": 0, "time": 0, "type": "NormalMsg"}, "M_316": {"note_status": 1, "channel": 0, "note": 67, "velocity": 101, "time": 0, "type": "NormalMsg"}, "M_317": {"note_status": 1, "channel": 0, "note": 67, "velocity": 0, "time": 0, "type": "NormalMsg"}, "M_318": {"note_status": 1, "channel": 0, "note": 65, "velocity": 107, "time": 0, "type": "NormalMsg"}, "M_319": {"note_status": 1, "channel": 0, "note": 65, "velocity": 0, "time": 0, "type": "NormalMsg"}, "M_320": {"note_status": 1, "channel": 0, "note": 65, "velocity": 107, "time": 0, "type": "NormalMsg"}, "M_321": {"note_status": 1, "channel": 0, "note": 65, "velocity": 0, "time": 0, "type": "NormalMsg"}, "M_322": {"note_status": 1, "channel": 0, "note": 65, "velocity": 77, "time": 0, "type": "NormalMsg"}, "M_323": {"note_status": 1, "channel": 0, "note": 65, "velocity": 0, "time": 0, "type": "NormalMsg"}, "M_324": {"note_status": 1, "channel": 0, "note": 65, "velocity": 107, "time": 0, "type": "NormalMsg"}, "M_325": {"note_status": 1, "channel": 0, "note": 65, "velocity": 0, "time": 0, "type": "NormalMsg"}, "M_326": {"note_status": 1, "channel": 0, "note": 65, "velocity": 105, "time": 0, "type": "NormalMsg"}, "M_327": {"note_status": 1, "channel": 0, "note": 65, "velocity": 0, "time": 0, "type": "NormalMsg"}, "M_328": {"note_status": 1, "channel": 0, "note": 65, "velocity": 107, "time": 0, "type": "NormalMsg"}, "M_329": {"note_status": 1, "channel": 0, "note": 65, "velocity": 0, "time": 0, "type": "NormalMsg"}, "M_330": {"note_status": 1, "channel": 0, "note": 65, "velocity": 101, "time": 0, "type": "NormalMsg"}, "M_331": {"note_status": 1, "channel": 0, "note": 65, "velocity": 0, "time": 0, "type": "NormalMsg"}, "M_332": {"note_status": 1, "channel": 0, "note": 65, "velocity": 89, "time": 0, "type": "NormalMsg"}, "M_333": {"note_status": 1, "channel": 0, "note": 65, "velocity": 0, "time": 0, "type": "NormalMsg"}, "M_334": {"note_status": 1, "channel": 0, "note": 64, "velocity": 101, "time": 0, "type": "NormalMsg"}, "M_335": {"note_status": 1, "channel": 0, "note": 64, "velocity": 0, "time": 0, "type": "NormalMsg"}, "M_336": {"note_status": 1, "channel": 0, "note": 62, "velocity": 107, "time": 0, "type": "NormalMsg"}, "M_337": {"note_status": 1, "channel": 0, "note": 62, "velocity": 0, "time": 0, "type": "NormalMsg"}, "M_338": {"note_status": 1, "channel": 0, "note": 62, "velocity": 107, "time": 0, "type": "NormalMsg"}, "M_339": {"note_status": 1, "channel": 0, "note": 62, "velocity": 0, "time": 0, "type": "NormalMsg"}, "M_340": {"note_status": 1, "channel": 0, "note": 62, "velocity": 89, "time": 0, "type": "NormalMsg"}, "M_341": {"note_status": 1, "channel": 0, "note": 62, "velocity": 0, "time": 0, "type": "NormalMsg"}, "M_342": {"note_status": 1, "channel": 0, "note": 62, "velocity": 107, "time": 0, "type": "NormalMsg"}, "M_343": {"note_status": 1, "channel": 0, "note": 62, "velocity": 0, "time": 0, "type": "NormalMsg"}, "M_344": {"note_status": 1, "channel": 0, "note": 65, "velocity": 93, "time": 0, "type": "NormalMsg"}, "M_345": {"note_status": 1, "channel": 0, "note": 65, "velocity": 0, "time": 0, "type": "NormalMsg"}, "M_346": {"note_status": 1, "channel": 0, "note": 62, "velocity": 101, "time": 0, "type": "NormalMsg"}, "M_347": {"note_status": 1, "channel": 0, "note": 62, "velocity": 0, "time": 0, "type": "NormalMsg"}, "M_348": {"note_status": 1, "channel": 0, "note": 67, "velocity": 107, "time": 0, "type": "NormalMsg"}, "M_349": {"note_status": 1, "channel": 0, "note": 67, "velocity": 0, "time": 0, "type": "NormalMsg"}, "M_350": {"note_status": 1, "channel": 0, "note": 67, "velocity": 107, "time": 0, "type": "NormalMsg"}, "M_351": {"note_status": 1, "channel": 0, "note": 67, "velocity": 0, "time": 0, "type": "NormalMsg"}, "M_352": {"note_status": 1, "channel": 0, "note": 67, "velocity": 77, "time": 0, "type": "NormalMsg"}, "M_353": {"note_status": 1, "channel": 0, "note": 67, "velocity": 0, "time": 0, "type": "NormalMsg"}, "M_354": {"note_status": 1, "channel": 0, "note": 67, "velocity": 107, "time": 0, "type": "NormalMsg"}, "M_355": {"note_status": 1, "channel": 0, "note": 67, "velocity": 0, "time": 0, "type": "NormalMsg"}, "M_356": {"note_status": 1, "channel": 0, "note": 67, "velocity": 105, "time": 0, "type": "NormalMsg"}, "M_357": {"note_status": 1, "channel": 0, "note": 67, "velocity": 0, "time": 0, "type": "NormalMsg"}, "M_358": {"note_status": 1, "channel": 0, "note": 67, "velocity": 107, "time": 0, "type": "NormalMsg"}, "M_359": {"note_status": 1, "channel": 0, "note": 67, "velocity": 0, "time": 0, "type": "NormalMsg"}, "M_360": {"note_status": 1, "channel": 0, "note": 67, "velocity": 101, "time": 0, "type": "NormalMsg"}, "M_361": {"note_status": 1, "channel": 0, "note": 67, "velocity": 0, "time": 0, "type": "NormalMsg"}, "M_362": {"note_status": 1, "channel": 0, "note": 65, "velocity": 89, "time": 0, "type": "NormalMsg"}, "M_363": {"note_status": 1, "channel": 0, "note": 65, "velocity": 0, "time": 0, "type": "NormalMsg"}, "M_364": {"note_status": 1, "channel": 0, "note": 67, "velocity": 101, "time": 0, "type": "NormalMsg"}, "M_365": {"note_status": 1, "channel": 0, "note": 67, "velocity": 0, "time": 0, "type": "NormalMsg"}, "M_366": {"note_status": 1, "channel": 0, "note": 57, "velocity": 104, "time": 0, "type": "NormalMsg"}, "M_367": {"note_status": 1, "channel": 0, "note": 67, "velocity": 63, "time": 0, "type": "NormalMsg"}, "M_368": {"note_status": 1, "channel": 0, "note": 57, "velocity": 0, "time": 0, "type": "NormalMsg"}, "M_369": {"note_status": 1, "channel": 0, "note": 57, "velocity": 97, "time": 0, "type": "NormalMsg"}, "M_370": {"note_status": 1, "channel": 0, "note": 60, "velocity": 74, "time": 0, "type": "NormalMsg"}, "M_371": {"note_status": 1, "channel": 0, "note": 67, "velocity": 0, "time": 0, "type": "NormalMsg"}, "M_372": {"note_status": 1, "channel": 0, "note": 57, "velocity": 0, "time": 0, "type": "NormalMsg"}, "M_373": {"note_status": 1, "channel": 0, "note": 60, "velocity": 0, "time": 0, "type": "NormalMsg"}, "M_374": {"note_status": 1, "channel": 0, "note": 57, "velocity": 108, "time": 0, "type": "NormalMsg"}, "M_375": {"note_status": 1, "channel": 0, "note": 60, "velocity": 73, "time": 0, "type": "NormalMsg"}, "M_376": {"note_status": 1, "channel": 0, "note": 57, "velocity": 0, "time": 0, "type": "NormalMsg"}, "M_377": {"note_status": 1, "channel": 0, "note": 60, "velocity": 0, "time": 0, "type": "NormalMsg"}, "M_378": {"note_status": 1, "channel": 0, "note": 67, "velocity": 63, "time": 0, "type": "NormalMsg"}, "M_379": {"note_status": 1, "channel": 0, "note": 60, "velocity": 74, "time": 0, "type": "NormalMsg"}, "M_380": {"note_status": 1, "channel": 0, "note": 67, "velocity": 0, "time": 0, "type": "NormalMsg"}, "M_381": {"note_status": 1, "channel": 0, "note": 60, "velocity": 0, "time": 0, "type": "NormalMsg"}, "M_382": {"note_status": 1, "channel": 0, "note": 60, "velocity": 73, "time": 0, "type": "NormalMsg"}, "M_383": {"note_status": 1, "channel": 0, "note": 57, "velocity": 113, "time": 0, "type": "NormalMsg"}, "M_384": {"note_status": 1, "channel": 0, "note": 60, "velocity": 0, "time": 0, "type": "NormalMsg"}, "M_385": {"note_status": 1, "channel": 0, "note": 57, "velocity": 0, "time": 0, "type": "NormalMsg"}, "M_386": {"note_status": 1, "channel": 0, "note": 57, "velocity": 108, "time": 0, "type": "NormalMsg"}, "M_387": {"note_status": 1, "channel": 0, "note": 67, "velocity": 63, "time": 0, "type": "NormalMsg"}, "M_388": {"note_status": 1, "channel": 0, "note": 57, "velocity": 0, "time": 0, "type": "NormalMsg"}, "M_389": {"note_status": 1, "channel": 0, "note": 60, "velocity": 74, "time": 0, "type": "NormalMsg"}, "M_390": {"note_status": 1, "channel": 0, "note": 67, "velocity": 0, "time": 0, "type": "NormalMsg"}, "M_391": {"note_status": 1, "channel": 0, "note": 57, "velocity": 113, "time": 0, "type": "NormalMsg"}, "M_392": {"note_status": 1, "channel": 0, "note": 60, "velocity": 0, "time": 0, "type": "NormalMsg"}, "M_393": {"note_status": 1, "channel": 0, "note": 60, "velocity": 73, "time": 0, "type": "NormalMsg"}, "M_394": {"note_status": 1, "channel": 0, "note": 60, "velocity": 0, "time": 0, "type": "NormalMsg"}, "M_395": {"note_status": 1, "channel": 0, "note": 57, "velocity": 0, "time": 0, "type": "NormalMsg"}, "M_396": {"note_status": 1, "channel": 0, "note": 67, "velocity": 63, "time": 0, "type": "NormalMsg"}, "M_397": {"note_status": 1, "channel": 0, "note": 60, "velocity": 74, "time": 0, "type": "NormalMsg"}, "M_398": {"note_status": 1, "channel": 0, "note": 67, "velocity": 0, "time": 0, "type": "NormalMsg"}, "M_399": {"note_status": 1, "channel": 0, "note": 60, "velocity": 0, "time": 0, "type": "NormalMsg"}, "M_400": {"note_status": 1, "channel": 0, "note": 60, "velocity": 73, "time": 0, "type": "NormalMsg"}, "M_401": {"note_status": 1, "channel": 0, "note": 57, "velocity": 122, "time": 0, "type": "NormalMsg"}, "M_402": {"note_status": 1, "channel": 0, "note": 60, "velocity": 0, "time": 0, "type": "NormalMsg"}, "M_403": {"note_status": 1, "channel": 0, "note": 67, "velocity": 63, "time": 0, "type": "NormalMsg"}, "M_404": {"note_status": 1, "channel": 0, "note": 57, "velocity": 0, "time": 0, "type": "NormalMsg"}, "M_405": {"note_status": 1, "channel": 0, "note": 57, "velocity": 101, "time": 0, "type": "NormalMsg"}, "M_406": {"note_status": 1, "channel": 0, "note": 60, "velocity": 74, "time": 0, "type": "NormalMsg"}, "M_407": {"note_status": 1, "channel": 0, "note": 67, "velocity": 0, "time": 0, "type": "NormalMsg"}, "M_408": {"note_status": 1, "channel": 0, "note": 57, "velocity": 0, "time": 0, "type": "NormalMsg"}, "M_409": {"note_status": 1, "channel": 0, "note": 60, "velocity": 0, "time": 0, "type": "NormalMsg"}, "M_410": {"note_status": 1, "channel": 0, "note": 57, "velocity": 101, "time": 0, "type": "NormalMsg"}, "M_411": {"note_status": 1, "channel": 0, "note": 60, "velocity": 73, "time": 0, "type": "NormalMsg"}, "M_412": {"note_status": 1, "channel": 0, "note": 60, "velocity": 0, "time": 0, "type": "NormalMsg"}, "M_413": {"note_status": 1, "channel": 0, "note": 57, "velocity": 0, "time": 0, "type": "NormalMsg"}, "M_414": {"note_status": 1, "channel": 0, "note": 67, "velocity": 63, "time": 0, "type": "NormalMsg"}, "M_415": {"note_status": 1, "channel": 0, "note": 60, "velocity": 74, "time": 0, "type": "NormalMsg"}, "M_416": {"note_status": 1, "channel": 0, "note": 67, "velocity": 0, "time": 0, "type": "NormalMsg"}, "M_417": {"note_status": 1, "channel": 0, "note": 60, "velocity": 0, "time": 0, "type": "NormalMsg"}, "M_418": {"note_status": 1, "channel": 0, "note": 60, "velocity": 73, "time": 0, "type": "NormalMsg"}, "M_419": {"note_status": 1, "channel": 0, "note": 60, "velocity": 0, "time": 0, "type": "NormalMsg"}, "M_420": {"note_status": 1, "channel": 0, "note": 57, "velocity": 104, "time": 0, "type": "NormalMsg"}, "M_421": {"note_status": 1, "channel": 0, "note": 57, "velocity": 0, "time": 0, "type": "NormalMsg"}, "M_422": {"note_status": 1, "channel": 0, "note": 57, "velocity": 101, "time": 0, "type": "NormalMsg"}, "M_423": {"note_status": 1, "channel": 0, "note": 67, "velocity": 63, "time": 0, "type": "NormalMsg"}, "M_424": {"note_status": 1, "channel": 0, "note": 57, "velocity": 0, "time": 0, "type": "NormalMsg"}, "M_425": {"note_status": 1, "channel": 0, "note": 60, "velocity": 74, "time": 0, "type": "NormalMsg"}, "M_426": {"note_status": 1, "channel": 0, "note": 67, "velocity": 0, "time": 0, "type": "NormalMsg"}, "M_427": {"note_status": 1, "channel": 0, "note": 60, "velocity": 0, "time": 0, "type": "NormalMsg"}, "M_428": {"note_status": 1, "channel": 0, "note": 57, "velocity": 117, "time": 0, "type": "NormalMsg"}, "M_429": {"note_status": 1, "channel": 0, "note": 60, "velocity": 73, "time": 0, "type": "NormalMsg"}, "M_430": {"note_status": 1, "channel": 0, "note": 60, "velocity": 0, "time": 0, "type": "NormalMsg"}, "M_431": {"note_status": 1, "channel": 0, "note": 57, "velocity": 0, "time": 0, "type": "NormalMsg"}, "M_432": {"note_status": 1, "channel": 0, "note": 67, "velocity": 63, "time": 0, "type": "NormalMsg"}, "M_433": {"note_status": 1, "channel": 0, "note": 60, "velocity": 74, "time": 0, "type": "NormalMsg"}, "M_434": {"note_status": 1, "channel": 0, "note": 67, "velocity": 0, "time": 0, "type": "NormalMsg"}, "M_435": {"note_status": 1, "channel": 0, "note": 60, "velocity": 0, "time": 0, "type": "NormalMsg"}, "M_436": {"note_status": 1, "channel": 0, "note": 60, "velocity": 73, "time": 0, "type": "NormalMsg"}, "M_437": {"note_status": 1, "channel": 0, "note": 59, "velocity": 98, "time": 0, "type": "NormalMsg"}, "M_438": {"note_status": 1, "channel": 0, "note": 60, "velocity": 0, "time": 0, "type": "NormalMsg"}, "M_439": {"note_status": 1, "channel": 0, "note": 67, "velocity": 63, "time": 0, "type": "NormalMsg"}, "M_440": {"note_status": 1, "channel": 0, "note": 59, "velocity": 0, "time": 0, "type": "NormalMsg"}, "M_441": {"note_status": 1, "channel": 0, "note": 59, "velocity": 77, "time": 0, "type": "NormalMsg"}, "M_442": {"note_status": 1, "channel": 0, "note": 60, "velocity": 74, "time": 0, "type": "NormalMsg"}, "M_443": {"note_status": 1, "channel": 0, "note": 67, "velocity": 0, "time": 0, "type": "NormalMsg"}, "M_444": {"note_status": 1, "channel": 0, "note": 59, "velocity": 0, "time": 0, "type": "NormalMsg"}, "M_445": {"note_status": 1, "channel": 0, "note": 60, "velocity": 0, "time": 0, "type": "NormalMsg"}, "M_446": {"note_status": 1, "channel": 0, "note": 59, "velocity": 77, "time": 0, "type": "NormalMsg"}, "M_447": {"note_status": 1, "channel": 0, "note": 60, "velocity": 73, "time": 0, "type": "NormalMsg"}, "M_448": {"note_status": 1, "channel": 0, "note": 60, "velocity": 0, "time": 0, "type": "NormalMsg"}, "M_449": {"note_status": 1, "channel": 0, "note": 59, "velocity": 0, "time": 0, "type": "NormalMsg"}, "M_450": {"note_status": 1, "channel": 0, "note": 67, "velocity": 63, "time": 0, "type": "NormalMsg"}, "M_451": {"note_status": 1, "channel": 0, "note": 60, "velocity": 74, "time": 0, "type": "NormalMsg"}, "M_452": {"note_status": 1, "channel": 0, "note": 67, "velocity": 0, "time": 0, "type": "NormalMsg"}, "M_453": {"note_status": 1, "channel": 0, "note": 60, "velocity": 0, "time": 0, "type": "NormalMsg"}, "M_454": {"note_status": 1, "channel": 0, "note": 60, "velocity": 73, "time": 0, "type": "NormalMsg"}, "M_455": {"note_status": 1, "channel": 0, "note": 60, "velocity": 0, "time": 0, "type": "NormalMsg"}, "M_456": {"note_status": 1, "channel": 0, "note": 59, "velocity": 80, "time": 0, "type": "NormalMsg"}, "M_457": {"note_status": 1, "channel": 0, "note": 59, "velocity": 0, "time": 0, "type": "NormalMsg"}, "M_458": {"note_status": 1, "channel": 0, "note": 59, "velocity": 77, "time": 0, "type": "NormalMsg"}, "M_459": {"note_status": 1, "channel": 0, "note": 67, "velocity": 63, "time": 0, "type": "NormalMsg"}, "M_460": {"note_status": 1, "channel": 0, "note": 59, "velocity": 0, "time": 0, "type": "NormalMsg"}, "M_461": {"note_status": 1, "channel": 0, "note": 60, "velocity": 74, "time": 0, "type": "NormalMsg"}, "M_462": {"note_status": 1, "channel": 0, "note": 67, "velocity": 0, "time": 0, "type": "NormalMsg"}, "M_463": {"note_status": 1, "channel": 0, "note": 60, "velocity": 0, "time": 0, "type": "NormalMsg"}, "M_464": {"note_status": 1, "channel": 0, "note": 59, "velocity": 93, "time": 0, "type": "NormalMsg"}, "M_465": {"note_status": 1, "channel": 0, "note": 60, "velocity": 73, "time": 0, "type": "NormalMsg"}, "M_466": {"note_status": 1, "channel": 0, "note": 60, "velocity": 0, "time": 0, "type": "NormalMsg"}, "M_467": {"note_status": 1, "channel": 0, "note": 59, "velocity": 0, "time": 0, "type": "NormalMsg"}, "M_468": {"note_status": 1, "channel": 0, "note": 67, "velocity": 63, "time": 0, "type": "NormalMsg"}, "M_469": {"note_status": 1, "channel": 0, "note": 60, "velocity": 74, "time": 0, "type": "NormalMsg"}, "M_470": {"note_status": 1, "channel": 0, "note": 67, "velocity": 0, "time": 0, "type": "NormalMsg"}, "M_471": {"note_status": 1, "channel": 0, "note": 60, "velocity": 0, "time": 0, "type": "NormalMsg"}, "M_472": {"note_status": 1, "channel": 0, "note": 60, "velocity": 73, "time": 0, "type": "NormalMsg"}, "M_473": {"note_status": 1, "channel": 0, "note": 59, "velocity": 80, "time": 0, "type": "NormalMsg"}, "M_474": {"note_status": 1, "channel": 0, "note": 60, "velocity": 0, "time": 0, "type": "NormalMsg"}, "M_475": {"note_status": 1, "channel": 0, "note": 59, "velocity": 0, "time": 0, "type": "NormalMsg"}, "M_476": {"note_status": 1, "channel": 0, "note": 67, "velocity": 63, "time": 0, "type": "NormalMsg"}, "M_477": {"note_status": 1, "channel": 0, "note": 60, "velocity": 74, "time": 0, "type": "NormalMsg"}, "M_478": {"note_status": 1, "channel": 0, "note": 59, "velocity": 77, "time": 0, "type": "NormalMsg"}, "M_479": {"note_status": 1, "channel": 0, "note": 67, "velocity": 0, "time": 0, "type": "NormalMsg"}, "M_480": {"note_status": 1, "channel": 0, "note": 60, "velocity": 0, "time": 0, "type": "NormalMsg"}, "M_481": {"note_status": 1, "channel": 0, "note": 59, "velocity": 0, "time": 0, "type": "NormalMsg"}, "M_482": {"note_status": 1, "channel": 0, "note": 60, "velocity": 73, "time": 0, "type": "NormalMsg"}, "M_483": {"note_status": 1, "channel": 0, "note": 59, "velocity": 93, "time": 0, "type": "NormalMsg"}, "M_484": {"note_status": 1, "channel": 0, "note": 60, "velocity": 0, "time": 0, "type": "NormalMsg"}, "M_485": {"note_status": 1, "channel": 0, "note": 59, "velocity": 0, "time": 0, "type": "NormalMsg"}, "M_486": {"note_status": 1, "channel": 0, "note": 69, "velocity": 107, "time": 0, "type": "NormalMsg"}, "M_487": {"note_status": 1, "channel": 0, "note": 69, "velocity": 0, "time": 0, "type": "NormalMsg"}, "M_488": {"note_status": 1, "channel": 0, "note": 69, "velocity": 107, "time": 0, "type": "NormalMsg"}, "M_489": {"note_status": 1, "channel": 0, "note": 69, "velocity": 0, "time": 0, "type": "NormalMsg"}, "M_490": {"note_status": 1, "channel": 0, "note": 69, "velocity": 89, "time": 0, "type": "NormalMsg"}, "M_491": {"note_status": 1, "channel": 0, "note": 69, "velocity": 0, "time": 0, "type": "NormalMsg"}, "M_492": {"note_status": 1, "channel": 0, "note": 69, "velocity": 107, "time": 0, "type": "NormalMsg"}, "M_493": {"note_status": 1, "channel": 0, "note": 69, "velocity": 0, "time": 0, "type": "NormalMsg"}, "M_494": {"note_status": 1, "channel": 0, "note": 69, "velocity": 93, "time": 0, "type": "NormalMsg"}, "M_495": {"note_status": 1, "channel": 0, "note": 69, "velocity": 0, "time": 0, "type": "NormalMsg"}, "M_496": {"note_status": 1, "channel": 0, "note": 67, "velocity": 101, "time": 0, "type": "NormalMsg"}, "M_497": {"note_status": 1, "channel": 0, "note": 67, "velocity": 0, "time": 0, "type": "NormalMsg"}, "M_498": {"note_status": 1, "channel": 0, "note": 65, "velocity": 107, "time": 0, "type": "NormalMsg"}, "M_499": {"note_status": 1, "channel": 0, "note": 65, "velocity": 0, "time": 0, "type": "NormalMsg"}, "M_500": {"note_status": 1, "channel": 0, "note": 65, "velocity": 107, "time": 0, "type": "NormalMsg"}, "M_501": {"note_status": 1, "channel": 0, "note": 65, "velocity": 0, "time": 0, "type": "NormalMsg"}, "M_502": {"note_status": 1, "channel": 0, "note": 65, "velocity": 77, "time": 0, "type": "NormalMsg"}, "M_503": {"note_status": 1, "channel": 0, "note": 65, "velocity": 0, "time": 0, "type": "NormalMsg"}, "M_504": {"note_status": 1, "channel": 0, "note": 65, "velocity": 107, "time": 0, "type": "NormalMsg"}, "M_505": {"note_status": 1, "channel": 0, "note": 65, "velocity": 0, "time": 0, "type": "NormalMsg"}, "M_506": {"note_status": 1, "channel": 0, "note": 65, "velocity": 105, "time": 0, "type": "NormalMsg"}, "M_507": {"note_status": 1, "channel": 0, "note": 65, "velocity": 0, "time": 0, "type": "NormalMsg"}, "M_508": {"note_status": 1, "channel": 0, "note": 65, "velocity": 107, "time": 0, "type": "NormalMsg"}, "M_509": {"note_status": 1, "channel": 0, "note": 65, "velocity": 0, "time": 0, "type": "NormalMsg"}, "M_510": {"note_status": 1, "channel": 0, "note": 65, "velocity": 101, "time": 0, "type": "NormalMsg"}, "M_511": {"note_status": 1, "channel": 0, "note": 65, "velocity": 0, "time": 0, "type": "NormalMsg"}, "M_512": {"note_status": 1, "channel": 0, "note": 65, "velocity": 89, "time": 0, "type": "NormalMsg"}, "M_513": {"note_status": 1, "channel": 0, "note": 65, "velocity": 0, "time": 0, "type": "NormalMsg"}, "M_514": {"note_status": 1, "channel": 0, "note": 64, "velocity": 101, "time": 0, "type": "NormalMsg"}, "M_515": {"note_status": 1, "channel": 0, "note": 64, "velocity": 0, "time": 0, "type": "NormalMsg"}, "M_516": {"note_status": 1, "channel": 0, "note": 62, "velocity": 107, "time": 0, "type": "NormalMsg"}, "M_517": {"note_status": 1, "channel": 0, "note": 62, "velocity": 0, "time": 0, "type": "NormalMsg"}, "M_518": {"note_status": 1, "channel": 0, "note": 62, "velocity": 107, "time": 0, "type": "NormalMsg"}, "M_519": {"note_status": 1, "channel": 0, "note": 62, "velocity": 0, "time": 0, "type": "NormalMsg"}, "M_520": {"note_status": 1, "channel": 0, "note": 62, "velocity": 89, "time": 0, "type": "NormalMsg"}, "M_521": {"note_status": 1, "channel": 0, "note": 62, "velocity": 0, "time": 0, "type": "NormalMsg"}, "M_522": {"note_status": 1, "channel": 0, "note": 62, "velocity": 107, "time": 0, "type": "NormalMsg"}, "M_523": {"note_status": 1, "channel": 0, "note": 62, "velocity": 0, "time": 0, "type": "NormalMsg"}, "M_524": {"note_status": 1, "channel": 0, "note": 65, "velocity": 93, "time": 0, "type": "NormalMsg"}, "M_525": {"note_status": 1, "channel": 0, "note": 65, "velocity": 0, "time": 0, "type": "NormalMsg"}, "M_526": {"note_status": 1, "channel": 0, "note": 62, "velocity": 101, "time": 0, "type": "NormalMsg"}, "M_527": {"note_status": 1, "channel": 0, "note": 62, "velocity": 0, "time": 0, "type": "NormalMsg"}, "M_528": {"note_status": 1, "channel": 0, "note": 67, "velocity": 107, "time": 0, "type": "NormalMsg"}, "M_529": {"note_status": 1, "channel": 0, "note": 67, "velocity": 0, "time": 0, "type": "NormalMsg"}, "M_530": {"note_status": 1, "channel": 0, "note": 67, "velocity": 107, "time": 0, "type": "NormalMsg"}, "M_531": {"note_status": 1, "channel": 0, "note": 67, "velocity": 0, "time": 0, "type": "NormalMsg"}, "M_532": {"note_status": 1, "channel": 0, "note": 67, "velocity": 77, "time": 0, "type": "NormalMsg"}, "M_533": {"note_status": 1, "channel": 0, "note": 67, "velocity": 0, "time": 0, "type": "NormalMsg"}, "M_534": {"note_status": 1, "channel": 0, "note": 67, "velocity": 107, "time": 0, "type": "NormalMsg"}, "M_535": {"note_status": 1, "channel": 0, "note": 67, "velocity": 0, "time": 0, "type": "NormalMsg"}, "M_536": {"note_status": 1, "channel": 0, "note": 67, "velocity": 105, "time": 0, "type": "NormalMsg"}, "M_537": {"note_status": 1, "channel": 0, "note": 67, "velocity": 0, "time": 0, "type": "NormalMsg"}, "M_538": {"note_status": 1, "channel": 0, "note": 67, "velocity": 107, "time": 0, "type": "NormalMsg"}, "M_539": {"note_status": 1, "channel": 0, "note": 67, "velocity": 0, "time": 0, "type": "NormalMsg"}, "M_540": {"note_status": 1, "channel": 0, "note": 67, "velocity": 101, "time": 0, "type": "NormalMsg"}, "M_541": {"note_status": 1, "channel": 0, "note": 67, "velocity": 0, "time": 0, "type": "NormalMsg"}, "M_542": {"note_status": 1, "channel": 0, "note": 65, "velocity": 89, "time": 0, "type": "NormalMsg"}, "M_543": {"note_status": 1, "channel": 0, "note": 65, "velocity": 0, "time": 0, "type": "NormalMsg"}, "M_544": {"note_status": 1, "channel": 0, "note": 67, "velocity": 101, "time": 0, "type": "NormalMsg"}, "M_545": {"note_status": 1, "channel": 0, "note": 67, "velocity": 0, "time": 0, "type": "NormalMsg"}, "M_546": {"note_status": 1, "channel": 0, "note": 69, "velocity": 107, "time": 0, "type": "NormalMsg"}, "M_547": {"note_status": 1, "channel": 0, "note": 69, "velocity": 0, "time": 0, "type": "NormalMsg"}, "M_548": {"note_status": 1, "channel": 0, "note": 69, "velocity": 107, "time": 0, "type": "NormalMsg"}, "M_549": {"note_status": 1, "channel": 0, "note": 69, "velocity": 0, "time": 0, "type": "NormalMsg"}, "M_550": {"note_status": 1, "channel": 0, "note": 69, "velocity": 89, "time": 0, "type": "NormalMsg"}, "M_551": {"note_status": 1, "channel": 0, "note": 69, "velocity": 0, "time": 0, "type": "NormalMsg"}, "M_552": {"note_status": 1, "channel": 0, "note": 69, "velocity": 107, "time": 0, "type": "NormalMsg"}, "M_553": {"note_status": 1, "channel": 0, "note": 69, "velocity": 0, "time": 0, "type": "NormalMsg"}, "M_554": {"note_status": 1, "channel": 0, "note": 69, "velocity": 93, "time": 0, "type": "NormalMsg"}, "M_555": {"note_status": 1, "channel": 0, "note": 69, "velocity": 0, "time": 0, "type": "NormalMsg"}, "M_556": {"note_status": 1, "channel": 0, "note": 67, "velocity": 101, "time": 0, "type": "NormalMsg"}, "M_557": {"note_status": 1, "channel": 0, "note": 67, "velocity": 0, "time": 0, "type": "NormalMsg"}, "M_558": {"note_status": 1, "channel": 0, "note": 65, "velocity": 107, "time": 0, "type": "NormalMsg"}, "M_559": {"note_status": 1, "channel": 0, "note": 65, "velocity": 0, "time": 0, "type": "NormalMsg"}, "M_560": {"note_status": 1, "channel": 0, "note": 65, "velocity": 107, "time": 0, "type": "NormalMsg"}, "M_561": {"note_status": 1, "channel": 0, "note": 65, "velocity": 0, "time": 0, "type": "NormalMsg"}, "M_562": {"note_status": 1, "channel": 0, "note": 65, "velocity": 77, "time": 0, "type": "NormalMsg"}, "M_563": {"note_status": 1, "channel": 0, "note": 65, "velocity": 0, "time": 0, "type": "NormalMsg"}, "M_564": {"note_status": 1, "channel": 0, "note": 65, "velocity": 107, "time": 0, "type": "NormalMsg"}, "M_565": {"note_status": 1, "channel": 0, "note": 65, "velocity": 0, "time": 0, "type": "NormalMsg"}, "M_566": {"note_status": 1, "channel": 0, "note": 65, "velocity": 105, "time": 0, "type": "NormalMsg"}, "M_567": {"note_status": 1, "channel": 0, "note": 65, "velocity": 0, "time": 0, "type": "NormalMsg"}, "M_568": {"note_status": 1, "channel": 0, "note": 65, "velocity": 107, "time": 0, "type": "NormalMsg"}, "M_569": {"note_status": 1, "channel": 0, "note": 65, "velocity": 0, "time": 0, "type": "NormalMsg"}, "M_570": {"note_status": 1, "channel": 0, "note": 65, "velocity": 101, "time": 0, "type": "NormalMsg"}, "M_571": {"note_status": 1, "channel": 0, "note": 65, "velocity": 0, "time": 0, "type": "NormalMsg"}, "M_572": {"note_status": 1, "channel": 0, "note": 65, "velocity": 89, "time": 0, "type": "NormalMsg"}, "M_573": {"note_status": 1, "channel": 0, "note": 65, "velocity": 0, "time": 0, "type": "NormalMsg"}, "M_574": {"note_status": 1, "channel": 0, "note": 64, "velocity": 101, "time": 0, "type": "NormalMsg"}, "M_575": {"note_status": 1, "channel": 0, "note": 64, "velocity": 0, "time": 0, "type": "NormalMsg"}, "M_576": {"note_status": 1, "channel": 0, "note": 67, "velocity": 107, "time": 0, "type": "NormalMsg"}, "M_577": {"note_status": 1, "channel": 0, "note": 67, "velocity": 0, "time": 0, "type": "NormalMsg"}, "M_578": {"note_status": 1, "channel": 0, "note": 67, "velocity": 105, "time": 0, "type": "NormalMsg"}, "M_579": {"note_status": 1, "channel": 0, "note": 67, "velocity": 0, "time": 0, "type": "NormalMsg"}, "M_580": {"note_status": 1, "channel": 0, "note": 67, "velocity": 107, "time": 0, "type": "NormalMsg"}, "M_581": {"note_status": 1, "channel": 0, "note": 67, "velocity": 0, "time": 0, "type": "NormalMsg"}, "M_582": {"note_status": 1, "channel": 0, "note": 67, "velocity": 101, "time": 0, "type": "NormalMsg"}, "M_583": {"note_status": 1, "channel": 0, "note": 67, "velocity": 0, "time": 0, "type": "NormalMsg"}, "M_584": {"note_status": 1, "channel": 0, "note": 72, "velocity": 89, "time": 0, "type": "NormalMsg"}, "M_585": {"note_status": 1, "channel": 0, "note": 72, "velocity": 0, "time": 0, "type": "NormalMsg"}, "M_586": {"note_status": 1, "channel": 0, "note": 67, "velocity": 101, "time": 0, "type": "NormalMsg"}, "M_587": {"note_status": 1, "channel": 0, "note": 67, "velocity": 0, "time": 0, "type": "NormalMsg"}, "M_588": {"note_status": 1, "channel": 0, "note": 69, "velocity": 107, "time": 0, "type": "NormalMsg"}, "M_589": {"note_status": 1, "channel": 0, "note": 69, "velocity": 0, "time": 0, "type": "NormalMsg"}, "M_590": {"note_status": 1, "channel": 0, "note": 69, "velocity": 107, "time": 0, "type": "NormalMsg"}, "M_591": {"note_status": 1, "channel": 0, "note": 69, "velocity": 0, "time": 0, "type": "NormalMsg"}, "M_592": {"note_status": 1, "channel": 0, "note": 69, "velocity": 89, "time": 0, "type": "NormalMsg"}, "M_593": {"note_status": 1, "channel": 0, "note": 69, "velocity": 0, "time": 0, "type": "NormalMsg"}, "M_594": {"note_status": 1, "channel": 0, "note": 69, "velocity": 107, "time": 0, "type": "NormalMsg"}, "M_595": {"note_status": 1, "channel": 0, "note": 69, "velocity": 0, "time": 0, "type": "NormalMsg"}, "M_596": {"note_status": 1, "channel": 0, "note": 69, "velocity": 93, "time": 0, "type": "NormalMsg"}, "M_597": {"note_status": 1, "channel": 0, "note": 69, "velocity": 0, "time": 0, "type": "NormalMsg"}, "M_598": {"note_status": 1, "channel": 0, "note": 67, "velocity": 101, "time": 0, "type": "NormalMsg"}, "M_599": {"note_status": 1, "channel": 0, "note": 67, "velocity": 0, "time": 0, "type": "NormalMsg"}, "M_600": {"note_status": 1, "channel": 0, "note": 65, "velocity": 107, "time": 0, "type": "NormalMsg"}, "M_601": {"note_status": 1, "channel": 0, "note": 65, "velocity": 0, "time": 0, "type": "NormalMsg"}, "M_602": {"note_status": 1, "channel": 0, "note": 65, "velocity": 107, "time": 0, "type": "NormalMsg"}, "M_603": {"note_status": 1, "channel": 0, "note": 65, "velocity": 0, "time": 0, "type": "NormalMsg"}, "M_604": {"note_status": 1, "channel": 0, "note": 65, "velocity": 77, "time": 0, "type": "NormalMsg"}, "M_605": {"note_status": 1, "channel": 0, "note": 65, "velocity": 0, "time": 0, "type": "NormalMsg"}, "M_606": {"note_status": 1, "channel": 0, "note": 65, "velocity": 107, "time": 0, "type": "NormalMsg"}, "M_607": {"note_status": 1, "channel": 0, "note": 65, "velocity": 0, "time": 0, "type": "NormalMsg"}, "M_608": {"note_status": 1, "channel": 0, "note": 65, "velocity": 105, "time": 0, "type": "NormalMsg"}, "M_609": {"note_status": 1, "channel": 0, "note": 65, "velocity": 0, "time": 0, "type": "NormalMsg"}, "M_610": {"note_status": 1, "channel": 0, "note": 65, "velocity": 107, "time": 0, "type": "NormalMsg"}, "M_611": {"note_status": 1, "channel": 0, "note": 65, "velocity": 0, "time": 0, "type": "NormalMsg"}, "M_612": {"note_status": 1, "channel": 0, "note": 65, "velocity": 101, "time": 0, "type": "NormalMsg"}, "M_613": {"note_status": 1, "channel": 0, "note": 65, "velocity": 0, "time": 0, "type": "NormalMsg"}, "M_614": {"note_status": 1, "channel": 0, "note": 65, "velocity": 89, "time": 0, "type": "NormalMsg"}, "M_615": {"note_status": 1, "channel": 0, "note": 65, "velocity": 0, "time": 0, "type": "NormalMsg"}, "M_616": {"note_status": 1, "channel": 0, "note": 64, "velocity": 101, "time": 0, "type": "NormalMsg"}, "M_617": {"note_status": 1, "channel": 0, "note": 64, "velocity": 0, "time": 0, "type": "NormalMsg"}, "M_618": {"note_status": 1, "channel": 0, "note": 62, "velocity": 107, "time": 0, "type": "NormalMsg"}, "M_619": {"note_status": 1, "channel": 0, "note": 62, "velocity": 0, "time": 0, "type": "NormalMsg"}, "M_620": {"note_status": 1, "channel": 0, "note": 62, "velocity": 107, "time": 0, "type": "NormalMsg"}, "M_621": {"note_status": 1, "channel": 0, "note": 62, "velocity": 0, "time": 0, "type": "NormalMsg"}, "M_622": {"note_status": 1, "channel": 0, "note": 62, "velocity": 89, "time": 0, "type": "NormalMsg"}, "M_623": {"note_status": 1, "channel": 0, "note": 62, "velocity": 0, "time": 0, "type": "NormalMsg"}, "M_624": {"note_status": 1, "channel": 0, "note": 62, "velocity": 107, "time": 0, "type": "NormalMsg"}, "M_625": {"note_status": 1, "channel": 0, "note": 62, "velocity": 0, "time": 0, "type": "NormalMsg"}, "M_626": {"note_status": 1, "channel": 0, "note": 65, "velocity": 93, "time": 0, "type": "NormalMsg"}, "M_627": {"note_status": 1, "channel": 0, "note": 65, "velocity": 0, "time": 0, "type": "NormalMsg"}, "M_628": {"note_status": 1, "channel": 0, "note": 62, "velocity": 101, "time": 0, "type": "NormalMsg"}, "M_629": {"note_status": 1, "channel": 0, "note": 62, "velocity": 0, "time": 0, "type": "NormalMsg"}, "M_630": {"note_status": 1, "channel": 0, "note": 67, "velocity": 107, "time": 0, "type": "NormalMsg"}, "M_631": {"note_status": 1, "channel": 0, "note": 67, "velocity": 0, "time": 0, "type": "NormalMsg"}, "M_632": {"note_status": 1, "channel": 0, "note": 67, "velocity": 107, "time": 0, "type": "NormalMsg"}, "M_633": {"note_status": 1, "channel": 0, "note": 67, "velocity": 0, "time": 0, "type": "NormalMsg"}, "M_634": {"note_status": 1, "channel": 0, "note": 67, "velocity": 77, "time": 0, "type": "NormalMsg"}, "M_635": {"note_status": 1, "channel": 0, "note": 67, "velocity": 0, "time": 0, "type": "NormalMsg"}, "M_636": {"note_status": 1, "channel": 0, "note": 67, "velocity": 107, "time": 0, "type": "NormalMsg"}, "M_637": {"note_status": 1, "channel": 0, "note": 67, "velocity": 0, "time": 0, "type": "NormalMsg"}, "M_638": {"note_status": 1, "channel": 0, "note": 67, "velocity": 105, "time": 0, "type": "NormalMsg"}, "M_639": {"note_status": 1, "channel": 0, "note": 67, "velocity": 0, "time": 0, "type": "NormalMsg"}, "M_640": {"note_status": 1, "channel": 0, "note": 67, "velocity": 107, "time": 0, "type": "NormalMsg"}, "M_641": {"note_status": 1, "channel": 0, "note": 67, "velocity": 0, "time": 0, "type": "NormalMsg"}, "M_642": {"note_status": 1, "channel": 0, "note": 67, "velocity": 101, "time": 0, "type": "NormalMsg"}, "M_643": {"note_status": 1, "channel": 0, "note": 67, "velocity": 0, "time": 0, "type": "NormalMsg"}, "M_644": {"note_status": 1, "channel": 0, "note": 65, "velocity": 89, "time": 0, "type": "NormalMsg"}, "M_645": {"note_status": 1, "channel": 0, "note": 65, "velocity": 0, "time": 0, "type": "NormalMsg"}, "M_646": {"note_status": 1, "channel": 0, "note": 67, "velocity": 101, "time": 0, "type": "NormalMsg"}, "M_647": {"note_status": 1, "channel": 0, "note": 67, "velocity": 0, "time": 0, "type": "NormalMsg"}, "M_648": {"note_status": 1, "channel": 0, "note": 69, "velocity": 107, "time": 0, "type": "NormalMsg"}, "M_649": {"note_status": 1, "channel": 0, "note": 69, "velocity": 0, "time": 0, "type": "NormalMsg"}, "M_650": {"note_status": 1, "channel": 0, "note": 69, "velocity": 107, "time": 0, "type": "NormalMsg"}, "M_651": {"note_status": 1, "channel": 0, "note": 69, "velocity": 0, "time": 0, "type": "NormalMsg"}, "M_652": {"note_status": 1, "channel": 0, "note": 69, "velocity": 89, "time": 0, "type": "NormalMsg"}, "M_653": {"note_status": 1, "channel": 0, "note": 69, "velocity": 0, "time": 0, "type": "NormalMsg"}, "M_654": {"note_status": 1, "channel": 0, "note": 69, "velocity": 107, "time": 0, "type": "NormalMsg"}, "M_655": {"note_status": 1, "channel": 0, "note": 69, "velocity": 0, "time": 0, "type": "NormalMsg"}, "M_656": {"note_status": 1, "channel": 0, "note": 69, "velocity": 93, "time": 0, "type": "NormalMsg"}, "M_657": {"note_status": 1, "channel": 0, "note": 69, "velocity": 0, "time": 0, "type": "NormalMsg"}, "M_658": {"note_status": 1, "channel": 0, "note": 67, "velocity": 101, "time": 0, "type": "NormalMsg"}, "M_659": {"note_status": 1, "channel": 0, "note": 67, "velocity": 0, "time": 0, "type": "NormalMsg"}, "M_660": {"note_status": 1, "channel": 0, "note": 65, "velocity": 107, "time": 0, "type": "NormalMsg"}, "M_661": {"note_status": 1, "channel": 0, "note": 65, "velocity": 0, "time": 0, "type": "NormalMsg"}, "M_662": {"note_status": 1, "channel": 0, "note": 65, "velocity": 107, "time": 0, "type": "NormalMsg"}, "M_663": {"note_status": 1, "channel": 0, "note": 65, "velocity": 0, "time": 0, "type": "NormalMsg"}, "M_664": {"note_status": 1, "channel": 0, "note": 65, "velocity": 77, "time": 0, "type": "NormalMsg"}, "M_665": {"note_status": 1, "channel": 0, "note": 65, "velocity": 0, "time": 0, "type": "NormalMsg"}, "M_666": {"note_status": 1, "channel": 0, "note": 65, "velocity": 107, "time": 0, "type": "NormalMsg"}, "M_667": {"note_status": 1, "channel": 0, "note": 65, "velocity": 0, "time": 0, "type": "NormalMsg"}, "M_668": {"note_status": 1, "channel": 0, "note": 65, "velocity": 105, "time": 0, "type": "NormalMsg"}, "M_669": {"note_status": 1, "channel": 0, "note": 65, "velocity": 0, "time": 0, "type": "NormalMsg"}, "M_670": {"note_status": 1, "channel": 0, "note": 65, "velocity": 107, "time": 0, "type": "NormalMsg"}, "M_671": {"note_status": 1, "channel": 0, "note": 65, "velocity": 0, "time": 0, "type": "NormalMsg"}, "M_672": {"note_status": 1, "channel": 0, "note": 65, "velocity": 101, "time": 0, "type": "NormalMsg"}, "M_673": {"note_status": 1, "channel": 0, "note": 65, "velocity": 0, "time": 0, "type": "NormalMsg"}, "M_674": {"note_status": 1, "channel": 0, "note": 65, "velocity": 89, "time": 0, "type": "NormalMsg"}, "M_675": {"note_status": 1, "channel": 0, "note": 65, "velocity": 0, "time": 0, "type": "NormalMsg"}, "M_676": {"note_status": 1, "channel": 0, "note": 64, "velocity": 101, "time": 0, "type": "NormalMsg"}, "M_677": {"note_status": 1, "channel": 0, "note": 64, "velocity": 0, "time": 0, "type": "NormalMsg"}, "M_678": {"note_status": 1, "channel": 0, "note": 62, "velocity": 107, "time": 0, "type": "NormalMsg"}, "M_679": {"note_status": 1, "channel": 0, "note": 62, "velocity": 0, "time": 0, "type": "NormalMsg"}, "M_680": {"note_status": 1, "channel": 0, "note": 62, "velocity": 107, "time": 0, "type": "NormalMsg"}, "M_681": {"note_status": 1, "channel": 0, "note": 62, "velocity": 0, "time": 0, "type": "NormalMsg"}, "M_682": {"note_status": 1, "channel": 0, "note": 62, "velocity": 89, "time": 0, "type": "NormalMsg"}, "M_683": {"note_status": 1, "channel": 0, "note": 62, "velocity": 0, "time": 0, "type": "NormalMsg"}, "M_684": {"note_status": 1, "channel": 0, "note": 62, "velocity": 107, "time": 0, "type": "NormalMsg"}, "M_685": {"note_status": 1, "channel": 0, "note": 62, "velocity": 0, "time": 0, "type": "NormalMsg"}, "M_686": {"note_status": 1, "channel": 0, "note": 65, "velocity": 93, "time": 0, "type": "NormalMsg"}, "M_687": {"note_status": 1, "channel": 0, "note": 65, "velocity": 0, "time": 0, "type": "NormalMsg"}, "M_688": {"note_status": 1, "channel": 0, "note": 62, "velocity": 101, "time": 0, "type": "NormalMsg"}, "M_689": {"note_status": 1, "channel": 0, "note": 62, "velocity": 0, "time": 0, "type": "NormalMsg"}, "M_690": {"note_status": 1, "channel": 0, "note": 67, "velocity": 107, "time": 0, "type": "NormalMsg"}, "M_691": {"note_status": 1, "channel": 0, "note": 67, "velocity": 0, "time": 0, "type": "NormalMsg"}, "M_692": {"note_status": 1, "channel": 0, "note": 67, "velocity": 107, "time": 0, "type": "NormalMsg"}, "M_693": {"note_status": 1, "channel": 0, "note": 67, "velocity": 0, "time": 0, "type": "NormalMsg"}, "M_694": {"note_status": 1, "channel": 0, "note": 67, "velocity": 77, "time": 0, "type": "NormalMsg"}, "M_695": {"note_status": 1, "channel": 0, "note": 67, "velocity": 0, "time": 0, "type": "NormalMsg"}, "M_696": {"note_status": 1, "channel": 0, "note": 67, "velocity": 107, "time": 0, "type": "NormalMsg"}, "M_697": {"note_status": 1, "channel": 0, "note": 67, "velocity": 0, "time": 0, "type": "NormalMsg"}, "M_698": {"note_status": 1, "channel": 0, "note": 67, "velocity": 105, "time": 0, "type": "NormalMsg"}, "M_699": {"note_status": 1, "channel": 0, "note": 67, "velocity": 0, "time": 0, "type": "NormalMsg"}, "M_700": {"note_status": 1, "channel": 0, "note": 67, "velocity": 107, "time": 0, "type": "NormalMsg"}, "M_701": {"note_status": 1, "channel": 0, "note": 67, "velocity": 0, "time": 0, "type": "NormalMsg"}, "M_702": {"note_status": 1, "channel": 0, "note": 67, "velocity": 101, "time": 0, "type": "NormalMsg"}, "M_703": {"note_status": 1, "channel": 0, "note": 67, "velocity": 0, "time": 0, "type": "NormalMsg"}, "M_704": {"note_status": 1, "channel": 0, "note": 65, "velocity": 89, "time": 0, "type": "NormalMsg"}, "M_705": {"note_status": 1, "channel": 0, "note": 65, "velocity": 0, "time": 0, "type": "NormalMsg"}, "M_706": {"note_status": 1, "channel": 0, "note": 67, "velocity": 101, "time": 0, "type": "NormalMsg"}, "M_707": {"note_status": 1, "channel": 0, "note": 67, "velocity": 0, "time": 0, "type": "NormalMsg"}, "M_708": {"note_status": 1, "channel": 0, "note": 69, "velocity": 107, "time": 0, "type": "NormalMsg"}, "M_709": {"note_status": 1, "channel": 0, "note": 69, "velocity": 0, "time": 0, "type": "NormalMsg"}, "M_710": {"note_status": 1, "channel": 0, "note": 69, "velocity": 107, "time": 0, "type": "NormalMsg"}, "M_711": {"note_status": 1, "channel": 0, "note": 69, "velocity": 0, "time": 0, "type": "NormalMsg"}, "M_712": {"note_status": 1, "channel": 0, "note": 69, "velocity": 89, "time": 0, "type": "NormalMsg"}, "M_713": {"note_status": 1, "channel": 0, "note": 69, "velocity": 0, "time": 0, "type": "NormalMsg"}, "M_714": {"note_status": 1, "channel": 0, "note": 69, "velocity": 107, "time": 0, "type": "NormalMsg"}, "M_715": {"note_status": 1, "channel": 0, "note": 69, "velocity": 0, "time": 0, "type": "NormalMsg"}, "M_716": {"note_status": 1, "channel": 0, "note": 69, "velocity": 93, "time": 0, "type": "NormalMsg"}, "M_717": {"note_status": 1, "channel": 0, "note": 69, "velocity": 0, "time": 0, "type": "NormalMsg"}, "M_718": {"note_status": 1, "channel": 0, "note": 67, "velocity": 101, "time": 0, "type": "NormalMsg"}, "M_719": {"note_status": 1, "channel": 0, "note": 67, "velocity": 0, "time": 0, "type": "NormalMsg"}, "M_720": {"note_status": 1, "channel": 0, "note": 65, "velocity": 107, "time": 0, "type": "NormalMsg"}, "M_721": {"note_status": 1, "channel": 0, "note": 65, "velocity": 0, "time": 0, "type": "NormalMsg"}, "M_722": {"note_status": 1, "channel": 0, "note": 65, "velocity": 107, "time": 0, "type": "NormalMsg"}, "M_723": {"note_status": 1, "channel": 0, "note": 65, "velocity": 0, "time": 0, "type": "NormalMsg"}, "M_724": {"note_status": 1, "channel": 0, "note": 65, "velocity": 77, "time": 0, "type": "NormalMsg"}, "M_725": {"note_status": 1, "channel": 0, "note": 65, "velocity": 0, "time": 0, "type": "NormalMsg"}, "M_726": {"note_status": 1, "channel": 0, "note": 65, "velocity": 107, "time": 0, "type": "NormalMsg"}, "M_727": {"note_status": 1, "channel": 0, "note": 65, "velocity": 0, "time": 0, "type": "NormalMsg"}, "M_728": {"note_status": 1, "channel": 0, "note": 65, "velocity": 105, "time": 0, "type": "NormalMsg"}, "M_729": {"note_status": 1, "channel": 0, "note": 65, "velocity": 0, "time": 0, "type": "NormalMsg"}, "M_730": {"note_status": 1, "channel": 0, "note": 65, "velocity": 107, "time": 0, "type": "NormalMsg"}, "M_731": {"note_status": 1, "channel": 0, "note": 65, "velocity": 0, "time": 0, "type": "NormalMsg"}, "M_732": {"note_status": 1, "channel": 0, "note": 65, "velocity": 101, "time": 0, "type": "NormalMsg"}, "M_733": {"note_status": 1, "channel": 0, "note": 65, "velocity": 0, "time": 0, "type": "NormalMsg"}, "M_734": {"note_status": 1, "channel": 0, "note": 65, "velocity": 89, "time": 0, "type": "NormalMsg"}, "M_735": {"note_status": 1, "channel": 0, "note": 65, "velocity": 0, "time": 0, "type": "NormalMsg"}, "M_736": {"note_status": 1, "channel": 0, "note": 64, "velocity": 101, "time": 0, "type": "NormalMsg"}, "M_737": {"note_status": 1, "channel": 0, "note": 64, "velocity": 0, "time": 0, "type": "NormalMsg"}, "M_738": {"note_status": 1, "channel": 0, "note": 62, "velocity": 107, "time": 0, "type": "NormalMsg"}, "M_739": {"note_status": 1, "channel": 0, "note": 62, "velocity": 0, "time": 0, "type": "NormalMsg"}, "M_740": {"note_status": 1, "channel": 0, "note": 62, "velocity": 107, "time": 0, "type": "NormalMsg"}, "M_741": {"note_status": 1, "channel": 0, "note": 62, "velocity": 0, "time": 0, "type": "NormalMsg"}, "M_742": {"note_status": 1, "channel": 0, "note": 62, "velocity": 89, "time": 0, "type": "NormalMsg"}, "M_743": {"note_status": 1, "channel": 0, "note": 62, "velocity": 0, "time": 0, "type": "NormalMsg"}, "M_744": {"note_status": 1, "channel": 0, "note": 62, "velocity": 107, "time": 0, "type": "NormalMsg"}, "M_745": {"note_status": 1, "channel": 0, "note": 62, "velocity": 0, "time": 0, "type": "NormalMsg"}, "M_746": {"note_status": 1, "channel": 0, "note": 65, "velocity": 93, "time": 0, "type": "NormalMsg"}, "M_747": {"note_status": 1, "channel": 0, "note": 65, "velocity": 0, "time": 0, "type": "NormalMsg"}, "M_748": {"note_status": 1, "channel": 0, "note": 62, "velocity": 101, "time": 0, "type": "NormalMsg"}, "M_749": {"note_status": 1, "channel": 0, "note": 62, "velocity": 0, "time": 0, "type": "NormalMsg"}, "M_750": {"note_status": 1, "channel": 0, "note": 67, "velocity": 107, "time": 0, "type": "NormalMsg"}, "M_751": {"note_status": 1, "channel": 0, "note": 67, "velocity": 0, "time": 0, "type": "NormalMsg"}, "M_752": {"note_status": 1, "channel": 0, "note": 67, "velocity": 107, "time": 0, "type": "NormalMsg"}, "M_753": {"note_status": 1, "channel": 0, "note": 67, "velocity": 0, "time": 0, "type": "NormalMsg"}, "M_754": {"note_status": 1, "channel": 0, "note": 67, "velocity": 77, "time": 0, "type": "NormalMsg"}, "M_755": {"note_status": 1, "channel": 0, "note": 67, "velocity": 0, "time": 0, "type": "NormalMsg"}, "M_756": {"note_status": 1, "channel": 0, "note": 67, "velocity": 107, "time": 0, "type": "NormalMsg"}, "M_757": {"note_status": 1, "channel": 0, "note": 67, "velocity": 0, "time": 0, "type": "NormalMsg"}, "M_758": {"note_status": 1, "channel": 0, "note": 67, "velocity": 105, "time": 0, "type": "NormalMsg"}, "M_759": {"note_status": 1, "channel": 0, "note": 67, "velocity": 0, "time": 0, "type": "NormalMsg"}, "M_760": {"note_status": 1, "channel": 0, "note": 67, "velocity": 107, "time": 0, "type": "NormalMsg"}, "M_761": {"note_status": 1, "channel": 0, "note": 67, "velocity": 0, "time": 0, "type": "NormalMsg"}, "M_762": {"note_status": 1, "channel": 0, "note": 67, "velocity": 101, "time": 0, "type": "NormalMsg"}, "M_763": {"note_status": 1, "channel": 0, "note": 67, "velocity": 0, "time": 0, "type": "NormalMsg"}, "M_764": {"note_status": 1, "channel": 0, "note": 65, "velocity": 89, "time": 0, "type": "NormalMsg"}, "M_765": {"note_status": 1, "channel": 0, "note": 65, "velocity": 0, "time": 0, "type": "NormalMsg"}, "M_766": {"note_status": 1, "channel": 0, "note": 67, "velocity": 101, "time": 0, "type": "NormalMsg"}, "M_767": {"note_status": 1, "channel": 0, "note": 67, "velocity": 0, "time": 0, "type": "NormalMsg"}, "M_768": {"note_status": 1, "channel": 0, "note": 69, "velocity": 107, "time": 0, "type": "NormalMsg"}, "M_769": {"note_status": 1, "channel": 0, "note": 69, "velocity": 0, "time": 0, "type": "NormalMsg"}, "M_770": {"note_status": 1, "channel": 0, "note": 69, "velocity": 107, "time": 0, "type": "NormalMsg"}, "M_771": {"note_status": 1, "channel": 0, "note": 69, "velocity": 0, "time": 0, "type": "NormalMsg"}, "M_772": {"note_status": 1, "channel": 0, "note": 69, "velocity": 89, "time": 0, "type": "NormalMsg"}, "M_773": {"note_status": 1, "channel": 0, "note": 69, "velocity": 0, "time": 0, "type": "NormalMsg"}, "M_774": {"note_status": 1, "channel": 0, "note": 69, "velocity": 107, "time": 0, "type": "NormalMsg"}, "M_775": {"note_status": 1, "channel": 0, "note": 69, "velocity": 0, "time": 0, "type": "NormalMsg"}, "M_776": {"note_status": 1, "channel": 0, "note": 69, "velocity": 93, "time": 0, "type": "NormalMsg"}, "M_777": {"note_status": 1, "channel": 0, "note": 69, "velocity": 0, "time": 0, "type": "NormalMsg"}, "M_778": {"note_status": 1, "channel": 0, "note": 67, "velocity": 101, "time": 0, "type": "NormalMsg"}, "M_779": {"note_status": 1, "channel": 0, "note": 67, "velocity": 0, "time": 0, "type": "NormalMsg"}, "M_780": {"note_status": 1, "channel": 0, "note": 65, "velocity": 107, "time": 0, "type": "NormalMsg"}, "M_781": {"note_status": 1, "channel": 0, "note": 65, "velocity": 0, "time": 0, "type": "NormalMsg"}, "M_782": {"note_status": 1, "channel": 0, "note": 65, "velocity": 107, "time": 0, "type": "NormalMsg"}, "M_783": {"note_status": 1, "channel": 0, "note": 65, "velocity": 0, "time": 0, "type": "NormalMsg"}, "M_784": {"note_status": 1, "channel": 0, "note": 65, "velocity": 77, "time": 0, "type": "NormalMsg"}, "M_785": {"note_status": 1, "channel": 0, "note": 65, "velocity": 0, "time": 0, "type": "NormalMsg"}, "M_786": {"note_status": 1, "channel": 0, "note": 65, "velocity": 107, "time": 0, "type": "NormalMsg"}, "M_787": {"note_status": 1, "channel": 0, "note": 65, "velocity": 0, "time": 0, "type": "NormalMsg"}, "M_788": {"note_status": 1, "channel": 0, "note": 65, "velocity": 105, "time": 0, "type": "NormalMsg"}, "M_789": {"note_status": 1, "channel": 0, "note": 65, "velocity": 0, "time": 0, "type": "NormalMsg"}, "M_790": {"note_status": 1, "channel": 0, "note": 65, "velocity": 107, "time": 0, "type": "NormalMsg"}, "M_791": {"note_status": 1, "channel": 0, "note": 65, "velocity": 0, "time": 0, "type": "NormalMsg"}, "M_792": {"note_status": 1, "channel": 0, "note": 65, "velocity": 101, "time": 0, "type": "NormalMsg"}, "M_793": {"note_status": 1, "channel": 0, "note": 65, "velocity": 0, "time": 0, "type": "NormalMsg"}, "M_794": {"note_status": 1, "channel": 0, "note": 65, "velocity": 89, "time": 0, "type": "NormalMsg"}, "M_795": {"note_status": 1, "channel": 0, "note": 65, "velocity": 0, "time": 0, "type": "NormalMsg"}, "M_796": {"note_status": 1, "channel": 0, "note": 64, "velocity": 101, "time": 0, "type": "NormalMsg"}, "M_797": {"note_status": 1, "channel": 0, "note": 64, "velocity": 0, "time": 0, "type": "NormalMsg"}, "M_798": {"note_status": 1, "channel": 0, "note": 67, "velocity": 107, "time": 0, "type": "NormalMsg"}, "M_799": {"note_status": 1, "channel": 0, "note": 67, "velocity": 0, "time": 0, "type": "NormalMsg"}, "M_800": {"note_status": 1, "channel": 0, "note": 67, "velocity": 105, "time": 0, "type": "NormalMsg"}, "M_801": {"note_status": 1, "channel": 0, "note": 67, "velocity": 0, "time": 0, "type": "NormalMsg"}, "M_802": {"note_status": 1, "channel": 0, "note": 67, "velocity": 107, "time": 0, "type": "NormalMsg"}, "M_803": {"note_status": 1, "channel": 0, "note": 67, "velocity": 0, "time": 0, "type": "NormalMsg"}, "M_804": {"note_status": 1, "channel": 0, "note": 67, "velocity": 101, "time": 0, "type": "NormalMsg"}, "M_805": {"note_status": 1, "channel": 0, "note": 67, "velocity": 0, "time": 0, "type": "NormalMsg"}, "M_806": {"note_status": 1, "channel": 0, "note": 72, "velocity": 89, "time": 0, "type": "NormalMsg"}, "M_807": {"note_status": 1, "channel": 0, "note": 72, "velocity": 0, "time": 0, "type": "NormalMsg"}, "M_808": {"note_status": 1, "channel": 0, "note": 67, "velocity": 101, "time": 0, "type": "NormalMsg"}, "M_809": {"note_status": 1, "channel": 0, "note": 67, "velocity": 0, "time": 0, "type": "NormalMsg"}, "M_810": {"note_status": 1, "channel": 0, "note": 69, "velocity": 107, "time": 0, "type": "NormalMsg"}, "M_811": {"note_status": 1, "channel": 0, "note": 69, "velocity": 0, "time": 0, "type": "NormalMsg"}, "M_812": {"note_status": 1, "channel": 0, "note": 69, "velocity": 107, "time": 0, "type": "NormalMsg"}, "M_813": {"note_status": 1, "channel": 0, "note": 69, "velocity": 0, "time": 0, "type": "NormalMsg"}, "M_814": {"note_status": 1, "channel": 0, "note": 69, "velocity": 89, "time": 0, "type": "NormalMsg"}, "M_815": {"note_status": 1, "channel": 0, "note": 69, "velocity": 0, "time": 0, "type": "NormalMsg"}, "M_816": {"note_status": 1, "channel": 0, "note": 69, "velocity": 107, "time": 0, "type": "NormalMsg"}, "M_817": {"note_status": 1, "channel": 0, "note": 69, "velocity": 0, "time": 0, "type": "NormalMsg"}, "M_818": {"note_status": 1, "channel": 0, "note": 69, "velocity": 93, "time": 0, "type": "NormalMsg"}, "M_819": {"note_status": 1, "channel": 0, "note": 69, "velocity": 0, "time": 0, "type": "NormalMsg"}, "M_820": {"note_status": 1, "channel": 0, "note": 67, "velocity": 101, "time": 0, "type": "NormalMsg"}, "M_821": {"note_status": 1, "channel": 0, "note": 67, "velocity": 0, "time": 0, "type": "NormalMsg"}, "M_822": {"note_status": 1, "channel": 0, "note": 65, "velocity": 107, "time": 0, "type": "NormalMsg"}, "M_823": {"note_status": 1, "channel": 0, "note": 65, "velocity": 0, "time": 0, "type": "NormalMsg"}, "M_824": {"note_status": 1, "channel": 0, "note": 65, "velocity": 107, "time": 0, "type": "NormalMsg"}, "M_825": {"note_status": 1, "channel": 0, "note": 65, "velocity": 0, "time": 0, "type": "NormalMsg"}, "M_826": {"note_status": 1, "channel": 0, "note": 65, "velocity": 77, "time": 0, "type": "NormalMsg"}, "M_827": {"note_status": 1, "channel": 0, "note": 65, "velocity": 0, "time": 0, "type": "NormalMsg"}, "M_828": {"note_status": 1, "channel": 0, "note": 65, "velocity": 107, "time": 0, "type": "NormalMsg"}, "M_829": {"note_status": 1, "channel": 0, "note": 65, "velocity": 0, "time": 0, "type": "NormalMsg"}, "M_830": {"note_status": 1, "channel": 0, "note": 65, "velocity": 105, "time": 0, "type": "NormalMsg"}, "M_831": {"note_status": 1, "channel": 0, "note": 65, "velocity": 0, "time": 0, "type": "NormalMsg"}, "M_832": {"note_status": 1, "channel": 0, "note": 65, "velocity": 107, "time": 0, "type": "NormalMsg"}, "M_833": {"note_status": 1, "channel": 0, "note": 65, "velocity": 0, "time": 0, "type": "NormalMsg"}, "M_834": {"note_status": 1, "channel": 0, "note": 65, "velocity": 101, "time": 0, "type": "NormalMsg"}, "M_835": {"note_status": 1, "channel": 0, "note": 65, "velocity": 0, "time": 0, "type": "NormalMsg"}, "M_836": {"note_status": 1, "channel": 0, "note": 65, "velocity": 89, "time": 0, "type": "NormalMsg"}, "M_837": {"note_status": 1, "channel": 0, "note": 65, "velocity": 0, "time": 0, "type": "NormalMsg"}, "M_838": {"note_status": 1, "channel": 0, "note": 64, "velocity": 101, "time": 0, "type": "NormalMsg"}, "M_839": {"note_status": 1, "channel": 0, "note": 64, "velocity": 0, "time": 0, "type": "NormalMsg"}, "M_840": {"note_status": 1, "channel": 0, "note": 62, "velocity": 107, "time": 0, "type": "NormalMsg"}, "M_841": {"note_status": 1, "channel": 0, "note": 62, "velocity": 0, "time": 0, "type": "NormalMsg"}, "M_842": {"note_status": 1, "channel": 0, "note": 62, "velocity": 107, "time": 0, "type": "NormalMsg"}, "M_843": {"note_status": 1, "channel": 0, "note": 62, "velocity": 0, "time": 0, "type": "NormalMsg"}, "M_844": {"note_status": 1, "channel": 0, "note": 62, "velocity": 89, "time": 0, "type": "NormalMsg"}, "M_845": {"note_status": 1, "channel": 0, "note": 62, "velocity": 0, "time": 0, "type": "NormalMsg"}, "M_846": {"note_status": 1, "channel": 0, "note": 62, "velocity": 107, "time": 0, "type": "NormalMsg"}, "M_847": {"note_status": 1, "channel": 0, "note": 62, "velocity": 0, "time": 0, "type": "NormalMsg"}, "M_848": {"note_status": 1, "channel": 0, "note": 65, "velocity": 93, "time": 0, "type": "NormalMsg"}, "M_849": {"note_status": 1, "channel": 0, "note": 65, "velocity": 0, "time": 0, "type": "NormalMsg"}, "M_850": {"note_status": 1, "channel": 0, "note": 62, "velocity": 101, "time": 0, "type": "NormalMsg"}, "M_851": {"note_status": 1, "channel": 0, "note": 62, "velocity": 0, "time": 0, "type": "NormalMsg"}, "M_852": {"note_status": 1, "channel": 0, "note": 67, "velocity": 107, "time": 0, "type": "NormalMsg"}, "M_853": {"note_status": 1, "channel": 0, "note": 67, "velocity": 0, "time": 0, "type": "NormalMsg"}, "M_854": {"note_status": 1, "channel": 0, "note": 67, "velocity": 107, "time": 0, "type": "NormalMsg"}, "M_855": {"note_status": 1, "channel": 0, "note": 67, "velocity": 0, "time": 0, "type": "NormalMsg"}, "M_856": {"note_status": 1, "channel": 0, "note": 67, "velocity": 77, "time": 0, "type": "NormalMsg"}, "M_857": {"note_status": 1, "channel": 0, "note": 67, "velocity": 0, "time": 0, "type": "NormalMsg"}, "M_858": {"note_status": 1, "channel": 0, "note": 67, "velocity": 107, "time": 0, "type": "NormalMsg"}, "M_859": {"note_status": 1, "channel": 0, "note": 67, "velocity": 0, "time": 0, "type": "NormalMsg"}, "M_860": {"note_status": 1, "channel": 0, "note": 67, "velocity": 105, "time": 0, "type": "NormalMsg"}, "M_861": {"note_status": 1, "channel": 0, "note": 67, "velocity": 0, "time": 0, "type": "NormalMsg"}, "M_862": {"note_status": 1, "channel": 0, "note": 67, "velocity": 107, "time": 0, "type": "NormalMsg"}, "M_863": {"note_status": 1, "channel": 0, "note": 67, "velocity": 0, "time": 0, "type": "NormalMsg"}, "M_864": {"note_status": 1, "channel": 0, "note": 67, "velocity": 101, "time": 0, "type": "NormalMsg"}, "M_865": {"note_status": 1, "channel": 0, "note": 67, "velocity": 0, "time": 0, "type": "NormalMsg"}, "M_866": {"note_status": 1, "channel": 0, "note": 65, "velocity": 89, "time": 0, "type": "NormalMsg"}, "M_867": {"note_status": 1, "channel": 0, "note": 65, "velocity": 0, "time": 0, "type": "NormalMsg"}, "M_868": {"note_status": 1, "channel": 0, "note": 67, "velocity": 101, "time": 0, "type": "NormalMsg"}, "M_869": {"note_status": 1, "channel": 0, "note": 67, "velocity": 0, "time": 0, "type": "NormalMsg"}, "M_870": {"note_status": 1, "channel": 0, "note": 69, "velocity": 107, "time": 0, "type": "NormalMsg"}, "M_871": {"note_status": 1, "channel": 0, "note": 69, "velocity": 0, "time": 0, "type": "NormalMsg"}, "M_872": {"note_status": 1, "channel": 0, "note": 69, "velocity": 107, "time": 0, "type": "NormalMsg"}, "M_873": {"note_status": 1, "channel": 0, "note": 69, "velocity": 0, "time": 0, "type": "NormalMsg"}, "M_874": {"note_status": 1, "channel": 0, "note": 69, "velocity": 89, "time": 0, "type": "NormalMsg"}, "M_875": {"note_status": 1, "channel": 0, "note": 69, "velocity": 0, "time": 0, "type": "NormalMsg"}, "M_876": {"note_status": 1, "channel": 0, "note": 69, "velocity": 107, "time": 0, "type": "NormalMsg"}, "M_877": {"note_status": 1, "channel": 0, "note": 69, "velocity": 0, "time": 0, "type": "NormalMsg"}, "M_878": {"note_status": 1, "channel": 0, "note": 69, "velocity": 93, "time": 0, "type": "NormalMsg"}, "M_879": {"note_status": 1, "channel": 0, "note": 69, "velocity": 0, "time": 0, "type": "NormalMsg"}, "M_880": {"note_status": 1, "channel": 0, "note": 67, "velocity": 101, "time": 0, "type": "NormalMsg"}, "M_881": {"note_status": 1, "channel": 0, "note": 67, "velocity": 0, "time": 0, "type": "NormalMsg"}, "M_882": {"note_status": 1, "channel": 0, "note": 65, "velocity": 107, "time": 0, "type": "NormalMsg"}, "M_883": {"note_status": 1, "channel": 0, "note": 65, "velocity": 0, "time": 0, "type": "NormalMsg"}, "M_884": {"note_status": 1, "channel": 0, "note": 65, "velocity": 107, "time": 0, "type": "NormalMsg"}, "M_885": {"note_status": 1, "channel": 0, "note": 65, "velocity": 0, "time": 0, "type": "NormalMsg"}, "M_886": {"note_status": 1, "channel": 0, "note": 65, "velocity": 77, "time": 0, "type": "NormalMsg"}, "M_887": {"note_status": 1, "channel": 0, "note": 65, "velocity": 0, "time": 0, "type": "NormalMsg"}, "M_888": {"note_status": 1, "channel": 0, "note": 65, "velocity": 107, "time": 0, "type": "NormalMsg"}, "M_889": {"note_status": 1, "channel": 0, "note": 65, "velocity": 0, "time": 0, "type": "NormalMsg"}, "M_890": {"note_status": 1, "channel": 0, "note": 65, "velocity": 105, "time": 0, "type": "NormalMsg"}, "M_891": {"note_status": 1, "channel": 0, "note": 65, "velocity": 0, "time": 0, "type": "NormalMsg"}, "M_892": {"note_status": 1, "channel": 0, "note": 65, "velocity": 107, "time": 0, "type": "NormalMsg"}, "M_893": {"note_status": 1, "channel": 0, "note": 65, "velocity": 0, "time": 0, "type": "NormalMsg"}, "M_894": {"note_status": 1, "channel": 0, "note": 65, "velocity": 101, "time": 0, "type": "NormalMsg"}, "M_895": {"note_status": 1, "channel": 0, "note": 65, "velocity": 0, "time": 0, "type": "NormalMsg"}, "M_896": {"note_status": 1, "channel": 0, "note": 65, "velocity": 89, "time": 0, "type": "NormalMsg"}, "M_897": {"note_status": 1, "channel": 0, "note": 65, "velocity": 0, "time": 0, "type": "NormalMsg"}, "M_898": {"note_status": 1, "channel": 0, "note": 64, "velocity": 101, "time": 0, "type": "NormalMsg"}, "M_899": {"note_status": 1, "channel": 0, "note": 64, "velocity": 0, "time": 0, "type": "NormalMsg"}, "M_900": {"note_status": 1, "channel": 0, "note": 62, "velocity": 107, "time": 0, "type": "NormalMsg"}, "M_901": {"note_status": 1, "channel": 0, "note": 62, "velocity": 0, "time": 0, "type": "NormalMsg"}, "M_902": {"note_status": 1, "channel": 0, "note": 62, "velocity": 107, "time": 0, "type": "NormalMsg"}, "M_903": {"note_status": 1, "channel": 0, "note": 62, "velocity": 0, "time": 0, "type": "NormalMsg"}, "M_904": {"note_status": 1, "channel": 0, "note": 62, "velocity": 89, "time": 0, "type": "NormalMsg"}, "M_905": {"note_status": 1, "channel": 0, "note": 62, "velocity": 0, "time": 0, "type": "NormalMsg"}, "M_906": {"note_status": 1, "channel": 0, "note": 62, "velocity": 107, "time": 0, "type": "NormalMsg"}, "M_907": {"note_status": 1, "channel": 0, "note": 62, "velocity": 0, "time": 0, "type": "NormalMsg"}, "M_908": {"note_status": 1, "channel": 0, "note": 65, "velocity": 93, "time": 0, "type": "NormalMsg"}, "M_909": {"note_status": 1, "channel": 0, "note": 65, "velocity": 0, "time": 0, "type": "NormalMsg"}, "M_910": {"note_status": 1, "channel": 0, "note": 62, "velocity": 101, "time": 0, "type": "NormalMsg"}, "M_911": {"note_status": 1, "channel": 0, "note": 62, "velocity": 0, "time": 0, "type": "NormalMsg"}, "M_912": {"note_status": 1, "channel": 0, "note": 67, "velocity": 107, "time": 0, "type": "NormalMsg"}, "M_913": {"note_status": 1, "channel": 0, "note": 67, "velocity": 0, "time": 0, "type": "NormalMsg"}, "M_914": {"note_status": 1, "channel": 0, "note": 67, "velocity": 107, "time": 0, "type": "NormalMsg"}, "M_915": {"note_status": 1, "channel": 0, "note": 67, "velocity": 0, "time": 0, "type": "NormalMsg"}, "M_916": {"note_status": 1, "channel": 0, "note": 67, "velocity": 77, "time": 0, "type": "NormalMsg"}, "M_917": {"note_status": 1, "channel": 0, "note": 67, "velocity": 0, "time": 0, "type": "NormalMsg"}, "M_918": {"note_status": 1, "channel": 0, "note": 67, "velocity": 107, "time": 0, "type": "NormalMsg"}, "M_919": {"note_status": 1, "channel": 0, "note": 67, "velocity": 0, "time": 0, "type": "NormalMsg"}, "M_920": {"note_status": 1, "channel": 0, "note": 67, "velocity": 105, "time": 0, "type": "NormalMsg"}, "M_921": {"note_status": 1, "channel": 0, "note": 67, "velocity": 0, "time": 0, "type": "NormalMsg"}, "M_922": {"note_status": 1, "channel": 0, "note": 67, "velocity": 107, "time": 0, "type": "NormalMsg"}, "M_923": {"note_status": 1, "channel": 0, "note": 67, "velocity": 0, "time": 0, "type": "NormalMsg"}, "M_924": {"note_status": 1, "channel": 0, "note": 67, "velocity": 101, "time": 0, "type": "NormalMsg"}, "M_925": {"note_status": 1, "channel": 0, "note": 67, "velocity": 0, "time": 0, "type": "NormalMsg"}, "M_926": {"note_status": 1, "channel": 0, "note": 65, "velocity": 89, "time": 0, "type": "NormalMsg"}, "M_927": {"note_status": 1, "channel": 0, "note": 65, "velocity": 0, "time": 0, "type": "NormalMsg"}, "M_928": {"note_status": 1, "channel": 0, "note": 67, "velocity": 101, "time": 0, "type": "NormalMsg"}, "M_929": {"note_status": 1, "channel": 0, "note": 67, "velocity": 0, "time": 0, "type": "NormalMsg"}, "M_930": {"note_status": 1, "channel": 0, "note": 69, "velocity": 107, "time": 0, "type": "NormalMsg"}, "M_931": {"note_status": 1, "channel": 0, "note": 69, "velocity": 0, "time": 0, "type": "NormalMsg"}, "M_932": {"note_status": 1, "channel": 0, "note": 69, "velocity": 107, "time": 0, "type": "NormalMsg"}, "M_933": {"note_status": 1, "channel": 0, "note": 69, "velocity": 0, "time": 0, "type": "NormalMsg"}, "M_934": {"note_status": 1, "channel": 0, "note": 69, "velocity": 89, "time": 0, "type": "NormalMsg"}, "M_935": {"note_status": 1, "channel": 0, "note": 69, "velocity": 0, "time": 0, "type": "NormalMsg"}, "M_936": {"note_status": 1, "channel": 0, "note": 69, "velocity": 107, "time": 0, "type": "NormalMsg"}, "M_937": {"note_status": 1, "channel": 0, "note": 69, "velocity": 0, "time": 0, "type": "NormalMsg"}, "M_938": {"note_status": 1, "channel": 0, "note": 69, "velocity": 93, "time": 0, "type": "NormalMsg"}, "M_939": {"note_status": 1, "channel": 0, "note": 69, "velocity": 0, "time": 0, "type": "NormalMsg"}, "M_940": {"note_status": 1, "channel": 0, "note": 67, "velocity": 101, "time": 0, "type": "NormalMsg"}, "M_941": {"note_status": 1, "channel": 0, "note": 67, "velocity": 0, "time": 0, "type": "NormalMsg"}, "M_942": {"note_status": 1, "channel": 0, "note": 65, "velocity": 107, "time": 0, "type": "NormalMsg"}, "M_943": {"note_status": 1, "channel": 0, "note": 65, "velocity": 0, "time": 0, "type": "NormalMsg"}, "M_944": {"note_status": 1, "channel": 0, "note": 65, "velocity": 107, "time": 0, "type": "NormalMsg"}, "M_945": {"note_status": 1, "channel": 0, "note": 65, "velocity": 0, "time": 0, "type": "NormalMsg"}, "M_946": {"note_status": 1, "channel": 0, "note": 65, "velocity": 77, "time": 0, "type": "NormalMsg"}, "M_947": {"note_status": 1, "channel": 0, "note": 65, "velocity": 0, "time": 0, "type": "NormalMsg"}, "M_948": {"note_status": 1, "channel": 0, "note": 65, "velocity": 107, "time": 0, "type": "NormalMsg"}, "M_949": {"note_status": 1, "channel": 0, "note": 65, "velocity": 0, "time": 0, "type": "NormalMsg"}, "M_950": {"note_status": 1, "channel": 0, "note": 65, "velocity": 105, "time": 0, "type": "NormalMsg"}, "M_951": {"note_status": 1, "channel": 0, "note": 65, "velocity": 0, "time": 0, "type": "NormalMsg"}, "M_952": {"note_status": 1, "channel": 0, "note": 65, "velocity": 107, "time": 0, "type": "NormalMsg"}, "M_953": {"note_status": 1, "channel": 0, "note": 65, "velocity": 0, "time": 0, "type": "NormalMsg"}, "M_954": {"note_status": 1, "channel": 0, "note": 65, "velocity": 101, "time": 0, "type": "NormalMsg"}, "M_955": {"note_status": 1, "channel": 0, "note": 65, "velocity": 0, "time": 0, "type": "NormalMsg"}, "M_956": {"note_status": 1, "channel": 0, "note": 65, "velocity": 89, "time": 0, "type": "NormalMsg"}, "M_957": {"note_status": 1, "channel": 0, "note": 65, "velocity": 0, "time": 0, "type": "NormalMsg"}, "M_958": {"note_status": 1, "channel": 0, "note": 64, "velocity": 101, "time": 0, "type": "NormalMsg"}, "M_959": {"note_status": 1, "channel": 0, "note": 64, "velocity": 0, "time": 0, "type": "NormalMsg"}, "M_960": {"note_status": 1, "channel": 0, "note": 62, "velocity": 107, "time": 0, "type": "NormalMsg"}, "M_961": {"note_status": 1, "channel": 0, "note": 62, "velocity": 0, "time": 0, "type": "NormalMsg"}, "M_962": {"note_status": 1, "channel": 0, "note": 62, "velocity": 107, "time": 0, "type": "NormalMsg"}, "M_963": {"note_status": 1, "channel": 0, "note": 62, "velocity": 0, "time": 0, "type": "NormalMsg"}, "M_964": {"note_status": 1, "channel": 0, "note": 62, "velocity": 89, "time": 0, "type": "NormalMsg"}, "M_965": {"note_status": 1, "channel": 0, "note": 62, "velocity": 0, "time": 0, "type": "NormalMsg"}, "M_966": {"note_status": 1, "channel": 0, "note": 62, "velocity": 107, "time": 0, "type": "NormalMsg"}, "M_967": {"note_status": 1, "channel": 0, "note": 62, "velocity": 0, "time": 0, "type": "NormalMsg"}, "M_968": {"note_status": 1, "channel": 0, "note": 65, "velocity": 93, "time": 0, "type": "NormalMsg"}, "M_969": {"note_status": 1, "channel": 0, "note": 65, "velocity": 0, "time": 0, "type": "NormalMsg"}, "M_970": {"note_status": 1, "channel": 0, "note": 62, "velocity": 101, "time": 0, "type": "NormalMsg"}, "M_971": {"note_status": 1, "channel": 0, "note": 62, "velocity": 0, "time": 0, "type": "NormalMsg"}, "M_972": {"note_status": 1, "channel": 0, "note": 67, "velocity": 107, "time": 0, "type": "NormalMsg"}, "M_973": {"note_status": 1, "channel": 0, "note": 67, "velocity": 0, "time": 0, "type": "NormalMsg"}, "M_974": {"note_status": 1, "channel": 0, "note": 67, "velocity": 107, "time": 0, "type": "NormalMsg"}, "M_975": {"note_status": 1, "channel": 0, "note": 67, "velocity": 0, "time": 0, "type": "NormalMsg"}, "M_976": {"note_status": 1, "channel": 0, "note": 67, "velocity": 77, "time": 0, "type": "NormalMsg"}, "M_977": {"note_status": 1, "channel": 0, "note": 67, "velocity": 0, "time": 0, "type": "NormalMsg"}, "M_978": {"note_status": 1, "channel": 0, "note": 67, "velocity": 107, "time": 0, "type": "NormalMsg"}, "M_979": {"note_status": 1, "channel": 0, "note": 67, "velocity": 0, "time": 0, "type": "NormalMsg"}, "M_980": {"note_status": 1, "channel": 0, "note": 67, "velocity": 105, "time": 0, "type": "NormalMsg"}, "M_981": {"note_status": 1, "channel": 0, "note": 67, "velocity": 0, "time": 0, "type": "NormalMsg"}, "M_982": {"note_status": 1, "channel": 0, "note": 67, "velocity": 107, "time": 0, "type": "NormalMsg"}, "M_983": {"note_status": 1, "channel": 0, "note": 67, "velocity": 0, "time": 0, "type": "NormalMsg"}, "M_984": {"note_status": 1, "channel": 0, "note": 67, "velocity": 101, "time": 0, "type": "NormalMsg"}, "M_985": {"note_status": 1, "channel": 0, "note": 67, "velocity": 0, "time": 0, "type": "NormalMsg"}, "M_986": {"note_status": 1, "channel": 0, "note": 65, "velocity": 89, "time": 0, "type": "NormalMsg"}, "M_987": {"note_status": 1, "channel": 0, "note": 65, "velocity": 0, "time": 0, "type": "NormalMsg"}, "M_988": {"note_status": 1, "channel": 0, "note": 67, "velocity": 101, "time": 0, "type": "NormalMsg"}, "M_989": {"note_status": 1, "channel": 0, "note": 67, "velocity": 0, "time": 0, "type": "NormalMsg"}, "M_990": {"note_status": 1, "channel": 0, "note": 57, "velocity": 104, "time": 0, "type": "NormalMsg"}, "M_991": {"note_status": 1, "channel": 0, "note": 67, "velocity": 63, "time": 0, "type": "NormalMsg"}, "M_992": {"note_status": 1, "channel": 0, "note": 57, "velocity": 0, "time": 0, "type": "NormalMsg"}, "M_993": {"note_status": 1, "channel": 0, "note": 57, "velocity": 97, "time": 0, "type": "NormalMsg"}, "M_994": {"note_status": 1, "channel": 0, "note": 60, "velocity": 74, "time": 0, "type": "NormalMsg"}, "M_995": {"note_status": 1, "channel": 0, "note": 67, "velocity": 0, "time": 0, "type": "NormalMsg"}, "M_996": {"note_status": 1, "channel": 0, "note": 57, "velocity": 0, "time": 0, "type": "NormalMsg"}, "M_997": {"note_status": 1, "channel": 0, "note": 60, "velocity": 0, "time": 0, "type": "NormalMsg"}, "M_998": {"note_status": 1, "channel": 0, "note": 57, "velocity": 108, "time": 0, "type": "NormalMsg"}, "M_999": {"note_status": 1, "channel": 0, "note": 60, "velocity": 73, "time": 0, "type": "NormalMsg"}, "M_1000": {"note_status": 1, "channel": 0, "note": 57, "velocity": 0, "time": 0, "type": "NormalMsg"}, "M_1001": {"note_status": 1, "channel": 0, "note": 60, "velocity": 0, "time": 0, "type": "NormalMsg"}, "M_1002": {"note_status": 1, "channel": 0, "note": 67, "velocity": 63, "time": 0, "type": "NormalMsg"}, "M_1003": {"note_status": 1, "channel": 0, "note": 60, "velocity": 74, "time": 0, "type": "NormalMsg"}, "M_1004": {"note_status": 1, "channel": 0, "note": 67, "velocity": 0, "time": 0, "type": "NormalMsg"}, "M_1005": {"note_status": 1, "channel": 0, "note": 60, "velocity": 0, "time": 0, "type": "NormalMsg"}, "M_1006": {"note_status": 1, "channel": 0, "note": 60, "velocity": 73, "time": 0, "type": "NormalMsg"}, "M_1007": {"note_status": 1, "channel": 0, "note": 57, "velocity": 113, "time": 0, "type": "NormalMsg"}, "M_1008": {"note_status": 1, "channel": 0, "note": 60, "velocity": 0, "time": 0, "type": "NormalMsg"}, "M_1009": {"note_status": 1, "channel": 0, "note": 57, "velocity": 0, "time": 0, "type": "NormalMsg"}, "M_1010": {"note_status": 1, "channel": 0, "note": 57, "velocity": 108, "time": 0, "type": "NormalMsg"}, "M_1011": {"note_status": 1, "channel": 0, "note": 67, "velocity": 63, "time": 0, "type": "NormalMsg"}, "M_1012": {"note_status": 1, "channel": 0, "note": 57, "velocity": 0, "time": 0, "type": "NormalMsg"}, "M_1013": {"note_status": 1, "channel": 0, "note": 60, "velocity": 74, "time": 0, "type": "NormalMsg"}, "M_1014": {"note_status": 1, "channel": 0, "note": 67, "velocity": 0, "time": 0, "type": "NormalMsg"}, "M_1015": {"note_status": 1, "channel": 0, "note": 57, "velocity": 113, "time": 0, "type": "NormalMsg"}, "M_1016": {"note_status": 1, "channel": 0, "note": 60, "velocity": 0, "time": 0, "type": "NormalMsg"}, "M_1017": {"note_status": 1, "channel": 0, "note": 60, "velocity": 73, "time": 0, "type": "NormalMsg"}, "M_1018": {"note_status": 1, "channel": 0, "note": 60, "velocity": 0, "time": 0, "type": "NormalMsg"}, "M_1019": {"note_status": 1, "channel": 0, "note": 57, "velocity": 0, "time": 0, "type": "NormalMsg"}, "M_1020": {"note_status": 1, "channel": 0, "note": 67, "velocity": 63, "time": 0, "type": "NormalMsg"}, "M_1021": {"note_status": 1, "channel": 0, "note": 60, "velocity": 74, "time": 0, "type": "NormalMsg"}, "M_1022": {"note_status": 1, "channel": 0, "note": 67, "velocity": 0, "time": 0, "type": "NormalMsg"}, "M_1023": {"note_status": 1, "channel": 0, "note": 60, "velocity": 0, "time": 0, "type": "NormalMsg"}, "M_1024": {"note_status": 1, "channel": 0, "note": 60, "velocity": 73, "time": 0, "type": "NormalMsg"}, "M_1025": {"note_status": 1, "channel": 0, "note": 57, "velocity": 122, "time": 0, "type": "NormalMsg"}, "M_1026": {"note_status": 1, "channel": 0, "note": 60, "velocity": 0, "time": 0, "type": "NormalMsg"}, "M_1027": {"note_status": 1, "channel": 0, "note": 67, "velocity": 63, "time": 0, "type": "NormalMsg"}, "M_1028": {"note_status": 1, "channel": 0, "note": 57, "velocity": 0, "time": 0, "type": "NormalMsg"}, "M_1029": {"note_status": 1, "channel": 0, "note": 57, "velocity": 101, "time": 0, "type": "NormalMsg"}, "M_1030": {"note_status": 1, "channel": 0, "note": 60, "velocity": 74, "time": 0, "type": "NormalMsg"}, "M_1031": {"note_status": 1, "channel": 0, "note": 67, "velocity": 0, "time": 0, "type": "NormalMsg"}, "M_1032": {"note_status": 1, "channel": 0, "note": 57, "velocity": 0, "time": 0, "type": "NormalMsg"}, "M_1033": {"note_status": 1, "channel": 0, "note": 60, "velocity": 0, "time": 0, "type": "NormalMsg"}, "M_1034": {"note_status": 1, "channel": 0, "note": 57, "velocity": 101, "time": 0, "type": "NormalMsg"}, "M_1035": {"note_status": 1, "channel": 0, "note": 60, "velocity": 73, "time": 0, "type": "NormalMsg"}, "M_1036": {"note_status": 1, "channel": 0, "note": 57, "velocity": 0, "time": 0, "type": "NormalMsg"}, "M_1037": {"note_status": 1, "channel": 0, "note": 60, "velocity": 0, "time": 0, "type": "NormalMsg"}, "M_1038": {"note_status": 1, "channel": 0, "note": 67, "velocity": 63, "time": 0, "type": "NormalMsg"}, "M_1039": {"note_status": 1, "channel": 0, "note": 60, "velocity": 74, "time": 0, "type": "NormalMsg"}, "M_1040": {"note_status": 1, "channel": 0, "note": 67, "velocity": 0, "time": 0, "type": "NormalMsg"}, "M_1041": {"note_status": 1, "channel": 0, "note": 60, "velocity": 0, "time": 0, "type": "NormalMsg"}, "M_1042": {"note_status": 1, "channel": 0, "note": 60, "velocity": 73, "time": 0, "type": "NormalMsg"}, "M_1043": {"note_status": 1, "channel": 0, "note": 57, "velocity": 104, "time": 0, "type": "NormalMsg"}, "M_1044": {"note_status": 1, "channel": 0, "note": 60, "velocity": 0, "time": 0, "type": "NormalMsg"}, "M_1045": {"note_status": 1, "channel": 0, "note": 57, "velocity": 0, "time": 0, "type": "NormalMsg"}, "M_1046": {"note_status": 1, "channel": 0, "note": 57, "velocity": 101, "time": 0, "type": "NormalMsg"}, "M_1047": {"note_status": 1, "channel": 0, "note": 67, "velocity": 63, "time": 0, "type": "NormalMsg"}, "M_1048": {"note_status": 1, "channel": 0, "note": 57, "velocity": 0, "time": 0, "type": "NormalMsg"}, "M_1049": {"note_status": 1, "channel": 0, "note": 60, "velocity": 74, "time": 0, "type": "NormalMsg"}, "M_1050": {"note_status": 1, "channel": 0, "note": 67, "velocity": 0, "time": 0, "type": "NormalMsg"}, "M_1051": {"note_status": 1, "channel": 0, "note": 60, "velocity": 0, "time": 0, "type": "NormalMsg"}, "M_1052": {"note_status": 1, "channel": 0, "note": 57, "velocity": 117, "time": 0, "type": "NormalMsg"}, "M_1053": {"note_status": 1, "channel": 0, "note": 60, "velocity": 73, "time": 0, "type": "NormalMsg"}, "M_1054": {"note_status": 1, "channel": 0, "note": 60, "velocity": 0, "time": 0, "type": "NormalMsg"}, "M_1055": {"note_status": 1, "channel": 0, "note": 57, "velocity": 0, "time": 0, "type": "NormalMsg"}, "M_1056": {"note_status": 1, "channel": 0, "note": 67, "velocity": 63, "time": 0, "type": "NormalMsg"}, "M_1057": {"note_status": 1, "channel": 0, "note": 60, "velocity": 74, "time": 0, "type": "NormalMsg"}, "M_1058": {"note_status": 1, "channel": 0, "note": 67, "velocity": 0, "time": 0, "type": "NormalMsg"}, "M_1059": {"note_status": 1, "channel": 0, "note": 60, "velocity": 0, "time": 0, "type": "NormalMsg"}, "M_1060": {"note_status": 1, "channel": 0, "note": 60, "velocity": 73, "time": 0, "type": "NormalMsg"}, "M_1061": {"note_status": 1, "channel": 0, "note": 59, "velocity": 98, "time": 0, "type": "NormalMsg"}, "M_1062": {"note_status": 1, "channel": 0, "note": 60, "velocity": 0, "time": 0, "type": "NormalMsg"}, "M_1063": {"note_status": 1, "channel": 0, "note": 67, "velocity": 63, "time": 0, "type": "NormalMsg"}, "M_1064": {"note_status": 1, "channel": 0, "note": 59, "velocity": 0, "time": 0, "type": "NormalMsg"}, "M_1065": {"note_status": 1, "channel": 0, "note": 59, "velocity": 77, "time": 0, "type": "NormalMsg"}, "M_1066": {"note_status": 1, "channel": 0, "note": 60, "velocity": 74, "time": 0, "type": "NormalMsg"}, "M_1067": {"note_status": 1, "channel": 0, "note": 67, "velocity": 0, "time": 0, "type": "NormalMsg"}, "M_1068": {"note_status": 1, "channel": 0, "note": 59, "velocity": 0, "time": 0, "type": "NormalMsg"}, "M_1069": {"note_status": 1, "channel": 0, "note": 60, "velocity": 0, "time": 0, "type": "NormalMsg"}, "M_1070": {"note_status": 1, "channel": 0, "note": 59, "velocity": 77, "time": 0, "type": "NormalMsg"}, "M_1071": {"note_status": 1, "channel": 0, "note": 60, "velocity": 73, "time": 0, "type": "NormalMsg"}, "M_1072": {"note_status": 1, "channel": 0, "note": 59, "velocity": 0, "time": 0, "type": "NormalMsg"}, "M_1073": {"note_status": 1, "channel": 0, "note": 60, "velocity": 0, "time": 0, "type": "NormalMsg"}, "M_1074": {"note_status": 1, "channel": 0, "note": 67, "velocity": 63, "time": 0, "type": "NormalMsg"}, "M_1075": {"note_status": 1, "channel": 0, "note": 60, "velocity": 74, "time": 0, "type": "NormalMsg"}, "M_1076": {"note_status": 1, "channel": 0, "note": 67, "velocity": 0, "time": 0, "type": "NormalMsg"}, "M_1077": {"note_status": 1, "channel": 0, "note": 60, "velocity": 0, "time": 0, "type": "NormalMsg"}, "M_1078": {"note_status": 1, "channel": 0, "note": 60, "velocity": 73, "time": 0, "type": "NormalMsg"}, "M_1079": {"note_status": 1, "channel": 0, "note": 59, "velocity": 80, "time": 0, "type": "NormalMsg"}, "M_1080": {"note_status": 1, "channel": 0, "note": 60, "velocity": 0, "time": 0, "type": "NormalMsg"}, "M_1081": {"note_status": 1, "channel": 0, "note": 59, "velocity": 0, "time": 0, "type": "NormalMsg"}, "M_1082": {"note_status": 1, "channel": 0, "note": 59, "velocity": 77, "time": 0, "type": "NormalMsg"}, "M_1083": {"note_status": 1, "channel": 0, "note": 67, "velocity": 63, "time": 0, "type": "NormalMsg"}, "M_1084": {"note_status": 1, "channel": 0, "note": 59, "velocity": 0, "time": 0, "type": "NormalMsg"}, "M_1085": {"note_status": 1, "channel": 0, "note": 60, "velocity": 74, "time": 0, "type": "NormalMsg"}, "M_1086": {"note_status": 1, "channel": 0, "note": 67, "velocity": 0, "time": 0, "type": "NormalMsg"}, "M_1087": {"note_status": 1, "channel": 0, "note": 60, "velocity": 0, "time": 0, "type": "NormalMsg"}, "M_1088": {"note_status": 1, "channel": 0, "note": 59, "velocity": 93, "time": 0, "type": "NormalMsg"}, "M_1089": {"note_status": 1, "channel": 0, "note": 60, "velocity": 73, "time": 0, "type": "NormalMsg"}, "M_1090": {"note_status": 1, "channel": 0, "note": 60, "velocity": 0, "time": 0, "type": "NormalMsg"}, "M_1091": {"note_status": 1, "channel": 0, "note": 59, "velocity": 0, "time": 0, "type": "NormalMsg"}, "M_1092": {"note_status": 1, "channel": 0, "note": 67, "velocity": 63, "time": 0, "type": "NormalMsg"}, "M_1093": {"note_status": 1, "channel": 0, "note": 60, "velocity": 74, "time": 0, "type": "NormalMsg"}, "M_1094": {"note_status": 1, "channel": 0, "note": 67, "velocity": 0, "time": 0, "type": "NormalMsg"}, "M_1095": {"note_status": 1, "channel": 0, "note": 60, "velocity": 0, "time": 0, "type": "NormalMsg"}, "M_1096": {"note_status": 1, "channel": 0, "note": 60, "velocity": 73, "time": 0, "type": "NormalMsg"}, "M_1097": {"note_status": 1, "channel": 0, "note": 59, "velocity": 80, "time": 0, "type": "NormalMsg"}, "M_1098": {"note_status": 1, "channel": 0, "note": 60, "velocity": 0, "time": 0, "type": "NormalMsg"}, "M_1099": {"note_status": 1, "channel": 0, "note": 59, "velocity": 0, "time": 0, "type": "NormalMsg"}, "M_1100": {"note_status": 1, "channel": 0, "note": 67, "velocity": 63, "time": 0, "type": "NormalMsg"}, "M_1101": {"note_status": 1, "channel": 0, "note": 60, "velocity": 74, "time": 0, "type": "NormalMsg"}, "M_1102": {"note_status": 1, "channel": 0, "note": 59, "velocity": 77, "time": 0, "type": "NormalMsg"}, "M_1103": {"note_status": 1, "channel": 0, "note": 67, "velocity": 0, "time": 0, "type": "NormalMsg"}, "M_1104": {"note_status": 1, "channel": 0, "note": 60, "velocity": 0, "time": 0, "type": "NormalMsg"}, "M_1105": {"note_status": 1, "channel": 0, "note": 59, "velocity": 0, "time": 0, "type": "NormalMsg"}, "M_1106": {"note_status": 1, "channel": 0, "note": 60, "velocity": 73, "time": 0, "type": "NormalMsg"}, "M_1107": {"note_status": 1, "channel": 0, "note": 59, "velocity": 93, "time": 0, "type": "NormalMsg"}, "M_1108": {"note_status": 1, "channel": 0, "note": 60, "velocity": 0, "time": 0, "type": "NormalMsg"}, "M_1109": {"note_status": 1, "channel": 0, "note": 59, "velocity": 0, "time": 0, "type": "NormalMsg"}, "M_1110": {"note_status": 1, "channel": 0, "note": 69, "velocity": 107, "time": 0, "type": "NormalMsg"}, "M_1111": {"note_status": 1, "channel": 0, "note": 69, "velocity": 0, "time": 0, "type": "NormalMsg"}, "M_1112": {"note_status": 1, "channel": 0, "note": 69, "velocity": 107, "time": 0, "type": "NormalMsg"}, "M_1113": {"note_status": 1, "channel": 0, "note": 69, "velocity": 0, "time": 0, "type": "NormalMsg"}, "M_1114": {"note_status": 1, "channel": 0, "note": 69, "velocity": 89, "time": 0, "type": "NormalMsg"}, "M_1115": {"note_status": 1, "channel": 0, "note": 69, "velocity": 0, "time": 0, "type": "NormalMsg"}, "M_1116": {"note_status": 1, "channel": 0, "note": 69, "velocity": 107, "time": 0, "type": "NormalMsg"}, "M_1117": {"note_status": 1, "channel": 0, "note": 69, "velocity": 0, "time": 0, "type": "NormalMsg"}, "M_1118": {"note_status": 1, "channel": 0, "note": 69, "velocity": 93, "time": 0, "type": "NormalMsg"}, "M_1119": {"note_status": 1, "channel": 0, "note": 69, "velocity": 0, "time": 0, "type": "NormalMsg"}, "M_1120": {"note_status": 1, "channel": 0, "note": 67, "velocity": 101, "time": 0, "type": "NormalMsg"}, "M_1121": {"note_status": 1, "channel": 0, "note": 67, "velocity": 0, "time": 0, "type": "NormalMsg"}, "M_1122": {"note_status": 1, "channel": 0, "note": 65, "velocity": 107, "time": 0, "type": "NormalMsg"}, "M_1123": {"note_status": 1, "channel": 0, "note": 65, "velocity": 0, "time": 0, "type": "NormalMsg"}, "M_1124": {"note_status": 1, "channel": 0, "note": 65, "velocity": 107, "time": 0, "type": "NormalMsg"}, "M_1125": {"note_status": 1, "channel": 0, "note": 65, "velocity": 0, "time": 0, "type": "NormalMsg"}, "M_1126": {"note_status": 1, "channel": 0, "note": 65, "velocity": 77, "time": 0, "type": "NormalMsg"}, "M_1127": {"note_status": 1, "channel": 0, "note": 65, "velocity": 0, "time": 0, "type": "NormalMsg"}, "M_1128": {"note_status": 1, "channel": 0, "note": 65, "velocity": 107, "time": 0, "type": "NormalMsg"}, "M_1129": {"note_status": 1, "channel": 0, "note": 65, "velocity": 0, "time": 0, "type": "NormalMsg"}, "M_1130": {"note_status": 1, "channel": 0, "note": 65, "velocity": 105, "time": 0, "type": "NormalMsg"}, "M_1131": {"note_status": 1, "channel": 0, "note": 65, "velocity": 0, "time": 0, "type": "NormalMsg"}, "M_1132": {"note_status": 1, "channel": 0, "note": 65, "velocity": 107, "time": 0, "type": "NormalMsg"}, "M_1133": {"note_status": 1, "channel": 0, "note": 65, "velocity": 0, "time": 0, "type": "NormalMsg"}, "M_1134": {"note_status": 1, "channel": 0, "note": 65, "velocity": 101, "time": 0, "type": "NormalMsg"}, "M_1135": {"note_status": 1, "channel": 0, "note": 65, "velocity": 0, "time": 0, "type": "NormalMsg"}, "M_1136": {"note_status": 1, "channel": 0, "note": 65, "velocity": 89, "time": 0, "type": "NormalMsg"}, "M_1137": {"note_status": 1, "channel": 0, "note": 65, "velocity": 0, "time": 0, "type": "NormalMsg"}, "M_1138": {"note_status": 1, "channel": 0, "note": 64, "velocity": 101, "time": 0, "type": "NormalMsg"}, "M_1139": {"note_status": 1, "channel": 0, "note": 64, "velocity": 0, "time": 0, "type": "NormalMsg"}, "M_1140": {"note_status": 1, "channel": 0, "note": 62, "velocity": 107, "time": 0, "type": "NormalMsg"}, "M_1141": {"note_status": 1, "channel": 0, "note": 62, "velocity": 0, "time": 0, "type": "NormalMsg"}, "M_1142": {"note_status": 1, "channel": 0, "note": 62, "velocity": 107, "time": 0, "type": "NormalMsg"}, "M_1143": {"note_status": 1, "channel": 0, "note": 62, "velocity": 0, "time": 0, "type": "NormalMsg"}, "M_1144": {"note_status": 1, "channel": 0, "note": 62, "velocity": 89, "time": 0, "type": "NormalMsg"}, "M_1145": {"note_status": 1, "channel": 0, "note": 62, "velocity": 0, "time": 0, "type": "NormalMsg"}, "M_1146": {"note_status": 1, "channel": 0, "note": 62, "velocity": 107, "time": 0, "type": "NormalMsg"}, "M_1147": {"note_status": 1, "channel": 0, "note": 62, "velocity": 0, "time": 0, "type": "NormalMsg"}, "M_1148": {"note_status": 1, "channel": 0, "note": 65, "velocity": 93, "time": 0, "type": "NormalMsg"}, "M_1149": {"note_status": 1, "channel": 0, "note": 65, "velocity": 0, "time": 0, "type": "NormalMsg"}, "M_1150": {"note_status": 1, "channel": 0, "note": 62, "velocity": 101, "time": 0, "type": "NormalMsg"}, "M_1151": {"note_status": 1, "channel": 0, "note": 62, "velocity": 0, "time": 0, "type": "NormalMsg"}, "M_1152": {"note_status": 1, "channel": 0, "note": 67, "velocity": 107, "time": 0, "type": "NormalMsg"}, "M_1153": {"note_status": 1, "channel": 0, "note": 67, "velocity": 0, "time": 0, "type": "NormalMsg"}, "M_1154": {"note_status": 1, "channel": 0, "note": 67, "velocity": 107, "time": 0, "type": "NormalMsg"}, "M_1155": {"note_status": 1, "channel": 0, "note": 67, "velocity": 0, "time": 0, "type": "NormalMsg"}, "M_1156": {"note_status": 1, "channel": 0, "note": 67, "velocity": 77, "time": 0, "type": "NormalMsg"}, "M_1157": {"note_status": 1, "channel": 0, "note": 67, "velocity": 0, "time": 0, "type": "NormalMsg"}, "M_1158": {"note_status": 1, "channel": 0, "note": 67, "velocity": 107, "time": 0, "type": "NormalMsg"}, "M_1159": {"note_status": 1, "channel": 0, "note": 67, "velocity": 0, "time": 0, "type": "NormalMsg"}, "M_1160": {"note_status": 1, "channel": 0, "note": 67, "velocity": 105, "time": 0, "type": "NormalMsg"}, "M_1161": {"note_status": 1, "channel": 0, "note": 67, "velocity": 0, "time": 0, "type": "NormalMsg"}, "M_1162": {"note_status": 1, "channel": 0, "note": 67, "velocity": 107, "time": 0, "type": "NormalMsg"}, "M_1163": {"note_status": 1, "channel": 0, "note": 67, "velocity": 0, "time": 0, "type": "NormalMsg"}, "M_1164": {"note_status": 1, "channel": 0, "note": 67, "velocity": 101, "time": 0, "type": "NormalMsg"}, "M_1165": {"note_status": 1, "channel": 0, "note": 67, "velocity": 0, "time": 0, "type": "NormalMsg"}, "M_1166": {"note_status": 1, "channel": 0, "note": 65, "velocity": 89, "time": 0, "type": "NormalMsg"}, "M_1167": {"note_status": 1, "channel": 0, "note": 65, "velocity": 0, "time": 0, "type": "NormalMsg"}, "M_1168": {"note_status": 1, "channel": 0, "note": 67, "velocity": 101, "time": 0, "type": "NormalMsg"}, "M_1169": {"note_status": 1, "channel": 0, "note": 67, "velocity": 0, "time": 0, "type": "NormalMsg"}, "M_1170": {"note_status": 1, "channel": 0, "note": 69, "velocity": 107, "time": 0, "type": "NormalMsg"}, "M_1171": {"note_status": 1, "channel": 0, "note": 69, "velocity": 0, "time": 0, "type": "NormalMsg"}, "M_1172": {"note_status": 1, "channel": 0, "note": 69, "velocity": 107, "time": 0, "type": "NormalMsg"}, "M_1173": {"note_status": 1, "channel": 0, "note": 69, "velocity": 0, "time": 0, "type": "NormalMsg"}, "M_1174": {"note_status": 1, "channel": 0, "note": 69, "velocity": 89, "time": 0, "type": "NormalMsg"}, "M_1175": {"note_status": 1, "channel": 0, "note": 69, "velocity": 0, "time": 0, "type": "NormalMsg"}, "M_1176": {"note_status": 1, "channel": 0, "note": 69, "velocity": 107, "time": 0, "type": "NormalMsg"}, "M_1177": {"note_status": 1, "channel": 0, "note": 69, "velocity": 0, "time": 0, "type": "NormalMsg"}, "M_1178": {"note_status": 1, "channel": 0, "note": 69, "velocity": 93, "time": 0, "type": "NormalMsg"}, "M_1179": {"note_status": 1, "channel": 0, "note": 69, "velocity": 0, "time": 0, "type": "NormalMsg"}, "M_1180": {"note_status": 1, "channel": 0, "note": 67, "velocity": 101, "time": 0, "type": "NormalMsg"}, "M_1181": {"note_status": 1, "channel": 0, "note": 67, "velocity": 0, "time": 0, "type": "NormalMsg"}, "M_1182": {"note_status": 1, "channel": 0, "note": 65, "velocity": 107, "time": 0, "type": "NormalMsg"}, "M_1183": {"note_status": 1, "channel": 0, "note": 65, "velocity": 0, "time": 0, "type": "NormalMsg"}, "M_1184": {"note_status": 1, "channel": 0, "note": 65, "velocity": 107, "time": 0, "type": "NormalMsg"}, "M_1185": {"note_status": 1, "channel": 0, "note": 65, "velocity": 0, "time": 0, "type": "NormalMsg"}, "M_1186": {"note_status": 1, "channel": 0, "note": 65, "velocity": 77, "time": 0, "type": "NormalMsg"}, "M_1187": {"note_status": 1, "channel": 0, "note": 65, "velocity": 0, "time": 0, "type": "NormalMsg"}, "M_1188": {"note_status": 1, "channel": 0, "note": 65, "velocity": 107, "time": 0, "type": "NormalMsg"}, "M_1189": {"note_status": 1, "channel": 0, "note": 65, "velocity": 0, "time": 0, "type": "NormalMsg"}, "M_1190": {"note_status": 1, "channel": 0, "note": 65, "velocity": 105, "time": 0, "type": "NormalMsg"}, "M_1191": {"note_status": 1, "channel": 0, "note": 65, "velocity": 0, "time": 0, "type": "NormalMsg"}, "M_1192": {"note_status": 1, "channel": 0, "note": 65, "velocity": 107, "time": 0, "type": "NormalMsg"}, "M_1193": {"note_status": 1, "channel": 0, "note": 65, "velocity": 0, "time": 0, "type": "NormalMsg"}, "M_1194": {"note_status": 1, "channel": 0, "note": 65, "velocity": 101, "time": 0, "type": "NormalMsg"}, "M_1195": {"note_status": 1, "channel": 0, "note": 65, "velocity": 0, "time": 0, "type": "NormalMsg"}, "M_1196": {"note_status": 1, "channel": 0, "note": 65, "velocity": 89, "time": 0, "type": "NormalMsg"}, "M_1197": {"note_status": 1, "channel": 0, "note": 65, "velocity": 0, "time": 0, "type": "NormalMsg"}, "M_1198": {"note_status": 1, "channel": 0, "note": 64, "velocity": 101, "time": 0, "type": "NormalMsg"}, "M_1199": {"note_status": 1, "channel": 0, "note": 64, "velocity": 0, "time": 0, "type": "NormalMsg"}, "M_1200": {"note_status": 1, "channel": 0, "note": 67, "velocity": 107, "time": 0, "type": "NormalMsg"}, "M_1201": {"note_status": 1, "channel": 0, "note": 67, "velocity": 0, "time": 0, "type": "NormalMsg"}, "M_1202": {"note_status": 1, "channel": 0, "note": 67, "velocity": 105, "time": 0, "type": "NormalMsg"}, "M_1203": {"note_status": 1, "channel": 0, "note": 67, "velocity": 0, "time": 0, "type": "NormalMsg"}, "M_1204": {"note_status": 1, "channel": 0, "note": 67, "velocity": 107, "time": 0, "type": "NormalMsg"}, "M_1205": {"note_status": 1, "channel": 0, "note": 67, "velocity": 0, "time": 0, "type": "NormalMsg"}, "M_1206": {"note_status": 1, "channel": 0, "note": 67, "velocity": 101, "time": 0, "type": "NormalMsg"}, "M_1207": {"note_status": 1, "channel": 0, "note": 67, "velocity": 0, "time": 0, "type": "NormalMsg"}, "M_1208": {"note_status": 1, "channel": 0, "note": 72, "velocity": 89, "time": 0, "type": "NormalMsg"}, "M_1209": {"note_status": 1, "channel": 0, "note": 72, "velocity": 0, "time": 0, "type": "NormalMsg"}, "M_1210": {"note_status": 1, "channel": 0, "note": 67, "velocity": 101, "time": 0, "type": "NormalMsg"}, "M_1211": {"note_status": 1, "channel": 0, "note": 67, "velocity": 0, "time": 0, "type": "NormalMsg"}, "M_1212": {"note_status": 1, "channel": 0, "note": 69, "velocity": 107, "time": 0, "type": "NormalMsg"}, "M_1213": {"note_status": 1, "channel": 0, "note": 69, "velocity": 0, "time": 0, "type": "NormalMsg"}, "M_1214": {"note_status": 1, "channel": 0, "note": 69, "velocity": 107, "time": 0, "type": "NormalMsg"}, "M_1215": {"note_status": 1, "channel": 0, "note": 69, "velocity": 0, "time": 0, "type": "NormalMsg"}, "M_1216": {"note_status": 1, "channel": 0, "note": 69, "velocity": 89, "time": 0, "type": "NormalMsg"}, "M_1217": {"note_status": 1, "channel": 0, "note": 69, "velocity": 0, "time": 0, "type": "NormalMsg"}, "M_1218": {"note_status": 1, "channel": 0, "note": 69, "velocity": 107, "time": 0, "type": "NormalMsg"}, "M_1219": {"note_status": 1, "channel": 0, "note": 69, "velocity": 0, "time": 0, "type": "NormalMsg"}, "M_1220": {"note_status": 1, "channel": 0, "note": 69, "velocity": 93, "time": 0, "type": "NormalMsg"}, "M_1221": {"note_status": 1, "channel": 0, "note": 69, "velocity": 0, "time": 0, "type": "NormalMsg"}, "M_1222": {"note_status": 1, "channel": 0, "note": 67, "velocity": 101, "time": 0, "type": "NormalMsg"}, "M_1223": {"note_status": 1, "channel": 0, "note": 67, "velocity": 0, "time": 0, "type": "NormalMsg"}, "M_1224": {"note_status": 1, "channel": 0, "note": 65, "velocity": 107, "time": 0, "type": "NormalMsg"}, "M_1225": {"note_status": 1, "channel": 0, "note": 65, "velocity": 0, "time": 0, "type": "NormalMsg"}, "M_1226": {"note_status": 1, "channel": 0, "note": 65, "velocity": 107, "time": 0, "type": "NormalMsg"}, "M_1227": {"note_status": 1, "channel": 0, "note": 65, "velocity": 0, "time": 0, "type": "NormalMsg"}, "M_1228": {"note_status": 1, "channel": 0, "note": 65, "velocity": 77, "time": 0, "type": "NormalMsg"}, "M_1229": {"note_status": 1, "channel": 0, "note": 65, "velocity": 0, "time": 0, "type": "NormalMsg"}, "M_1230": {"note_status": 1, "channel": 0, "note": 65, "velocity": 107, "time": 0, "type": "NormalMsg"}, "M_1231": {"note_status": 1, "channel": 0, "note": 65, "velocity": 0, "time": 0, "type": "NormalMsg"}, "M_1232": {"note_status": 1, "channel": 0, "note": 65, "velocity": 105, "time": 0, "type": "NormalMsg"}, "M_1233": {"note_status": 1, "channel": 0, "note": 65, "velocity": 0, "time": 0, "type": "NormalMsg"}, "M_1234": {"note_status": 1, "channel": 0, "note": 65, "velocity": 107, "time": 0, "type": "NormalMsg"}, "M_1235": {"note_status": 1, "channel": 0, "note": 65, "velocity": 0, "time": 0, "type": "NormalMsg"}, "M_1236": {"note_status": 1, "channel": 0, "note": 65, "velocity": 101, "time": 0, "type": "NormalMsg"}, "M_1237": {"note_status": 1, "channel": 0, "note": 65, "velocity": 0, "time": 0, "type": "NormalMsg"}, "M_1238": {"note_status": 1, "channel": 0, "note": 65, "velocity": 89, "time": 0, "type": "NormalMsg"}, "M_1239": {"note_status": 1, "channel": 0, "note": 65, "velocity": 0, "time": 0, "type": "NormalMsg"}, "M_1240": {"note_status": 1, "channel": 0, "note": 64, "velocity": 101, "time": 0, "type": "NormalMsg"}, "M_1241": {"note_status": 1, "channel": 0, "note": 64, "velocity": 0, "time": 0, "type": "NormalMsg"}, "M_1242": {"note_status": 1, "channel": 0, "note": 62, "velocity": 107, "time": 0, "type": "NormalMsg"}, "M_1243": {"note_status": 1, "channel": 0, "note": 62, "velocity": 0, "time": 0, "type": "NormalMsg"}, "M_1244": {"note_status": 1, "channel": 0, "note": 62, "velocity": 107, "time": 0, "type": "NormalMsg"}, "M_1245": {"note_status": 1, "channel": 0, "note": 62, "velocity": 0, "time": 0, "type": "NormalMsg"}, "M_1246": {"note_status": 1, "channel": 0, "note": 62, "velocity": 89, "time": 0, "type": "NormalMsg"}, "M_1247": {"note_status": 1, "channel": 0, "note": 62, "velocity": 0, "time": 0, "type": "NormalMsg"}, "M_1248": {"note_status": 1, "channel": 0, "note": 62, "velocity": 107, "time": 0, "type": "NormalMsg"}, "M_1249": {"note_status": 1, "channel": 0, "note": 62, "velocity": 0, "time": 0, "type": "NormalMsg"}, "M_1250": {"note_status": 1, "channel": 0, "note": 65, "velocity": 93, "time": 0, "type": "NormalMsg"}, "M_1251": {"note_status": 1, "channel": 0, "note": 65, "velocity": 0, "time": 0, "type": "NormalMsg"}, "M_1252": {"note_status": 1, "channel": 0, "note": 62, "velocity": 101, "time": 0, "type": "NormalMsg"}, "M_1253": {"note_status": 1, "channel": 0, "note": 62, "velocity": 0, "time": 0, "type": "NormalMsg"}, "M_1254": {"note_status": 1, "channel": 0, "note": 67, "velocity": 107, "time": 0, "type": "NormalMsg"}, "M_1255": {"note_status": 1, "channel": 0, "note": 67, "velocity": 0, "time": 0, "type": "NormalMsg"}, "M_1256": {"note_status": 1, "channel": 0, "note": 67, "velocity": 107, "time": 0, "type": "NormalMsg"}, "M_1257": {"note_status": 1, "channel": 0, "note": 67, "velocity": 0, "time": 0, "type": "NormalMsg"}, "M_1258": {"note_status": 1, "channel": 0, "note": 67, "velocity": 77, "time": 0, "type": "NormalMsg"}, "M_1259": {"note_status": 1, "channel": 0, "note": 67, "velocity": 0, "time": 0, "type": "NormalMsg"}, "M_1260": {"note_status": 1, "channel": 0, "note": 67, "velocity": 107, "time": 0, "type": "NormalMsg"}, "M_1261": {"note_status": 1, "channel": 0, "note": 67, "velocity": 0, "time": 0, "type": "NormalMsg"}, "M_1262": {"note_status": 1, "channel": 0, "note": 67, "velocity": 105, "time": 0, "type": "NormalMsg"}, "M_1263": {"note_status": 1, "channel": 0, "note": 67, "velocity": 0, "time": 0, "type": "NormalMsg"}, "M_1264": {"note_status": 1, "channel": 0, "note": 67, "velocity": 107, "time": 0, "type": "NormalMsg"}, "M_1265": {"note_status": 1, "channel": 0, "note": 67, "velocity": 0, "time": 0, "type": "NormalMsg"}, "M_1266": {"note_status": 1, "channel": 0, "note": 67, "velocity": 101, "time": 0, "type": "NormalMsg"}, "M_1267": {"note_status": 1, "channel": 0, "note": 67, "velocity": 0, "time": 0, "type": "NormalMsg"}, "M_1268": {"note_status": 1, "channel": 0, "note": 65, "velocity": 89, "time": 0, "type": "NormalMsg"}, "M_1269": {"note_status": 1, "channel": 0, "note": 65, "velocity": 0, "time": 0, "type": "NormalMsg"}, "M_1270": {"note_status": 1, "channel": 0, "note": 67, "velocity": 101, "time": 0, "type": "NormalMsg"}, "M_1271": {"note_status": 1, "channel": 0, "note": 67, "velocity": 0, "time": 0, "type": "NormalMsg"}, "M_1272": {"note_status": 1, "channel": 0, "note": 69, "velocity": 107, "time": 0, "type": "NormalMsg"}, "M_1273": {"note_status": 1, "channel": 0, "note": 69, "velocity": 0, "time": 0, "type": "NormalMsg"}, "M_1274": {"note_status": 1, "channel": 0, "note": 69, "velocity": 107, "time": 0, "type": "NormalMsg"}, "M_1275": {"note_status": 1, "channel": 0, "note": 69, "velocity": 0, "time": 0, "type": "NormalMsg"}, "M_1276": {"note_status": 1, "channel": 0, "note": 69, "velocity": 89, "time": 0, "type": "NormalMsg"}, "M_1277": {"note_status": 1, "channel": 0, "note": 69, "velocity": 0, "time": 0, "type": "NormalMsg"}, "M_1278": {"note_status": 1, "channel": 0, "note": 69, "velocity": 107, "time": 0, "type": "NormalMsg"}, "M_1279": {"note_status": 1, "channel": 0, "note": 69, "velocity": 0, "time": 0, "type": "NormalMsg"}, "M_1280": {"note_status": 1, "channel": 0, "note": 69, "velocity": 93, "time": 0, "type": "NormalMsg"}, "M_1281": {"note_status": 1, "channel": 0, "note": 69, "velocity": 0, "time": 0, "type": "NormalMsg"}, "M_1282": {"note_status": 1, "channel": 0, "note": 67, "velocity": 101, "time": 0, "type": "NormalMsg"}, "M_1283": {"note_status": 1, "channel": 0, "note": 67, "velocity": 0, "time": 0, "type": "NormalMsg"}, "M_1284": {"note_status": 1, "channel": 0, "note": 65, "velocity": 107, "time": 0, "type": "NormalMsg"}, "M_1285": {"note_status": 1, "channel": 0, "note": 65, "velocity": 0, "time": 0, "type": "NormalMsg"}, "M_1286": {"note_status": 1, "channel": 0, "note": 65, "velocity": 107, "time": 0, "type": "NormalMsg"}, "M_1287": {"note_status": 1, "channel": 0, "note": 65, "velocity": 0, "time": 0, "type": "NormalMsg"}, "M_1288": {"note_status": 1, "channel": 0, "note": 65, "velocity": 77, "time": 0, "type": "NormalMsg"}, "M_1289": {"note_status": 1, "channel": 0, "note": 65, "velocity": 0, "time": 0, "type": "NormalMsg"}, "M_1290": {"note_status": 1, "channel": 0, "note": 65, "velocity": 107, "time": 0, "type": "NormalMsg"}, "M_1291": {"note_status": 1, "channel": 0, "note": 65, "velocity": 0, "time": 0, "type": "NormalMsg"}, "M_1292": {"note_status": 1, "channel": 0, "note": 65, "velocity": 105, "time": 0, "type": "NormalMsg"}, "M_1293": {"note_status": 1, "channel": 0, "note": 65, "velocity": 0, "time": 0, "type": "NormalMsg"}, "M_1294": {"note_status": 1, "channel": 0, "note": 65, "velocity": 107, "time": 0, "type": "NormalMsg"}, "M_1295": {"note_status": 1, "channel": 0, "note": 65, "velocity": 0, "time": 0, "type": "NormalMsg"}, "M_1296": {"note_status": 1, "channel": 0, "note": 65, "velocity": 101, "time": 0, "type": "NormalMsg"}, "M_1297": {"note_status": 1, "channel": 0, "note": 65, "velocity": 0, "time": 0, "type": "NormalMsg"}, "M_1298": {"note_status": 1, "channel": 0, "note": 65, "velocity": 89, "time": 0, "type": "NormalMsg"}, "M_1299": {"note_status": 1, "channel": 0, "note": 65, "velocity": 0, "time": 0, "type": "NormalMsg"}, "M_1300": {"note_status": 1, "channel": 0, "note": 64, "velocity": 101, "time": 0, "type": "NormalMsg"}, "M_1301": {"note_status": 1, "channel": 0, "note": 64, "velocity": 0, "time": 0, "type": "NormalMsg"}, "M_1302": {"note_status": 1, "channel": 0, "note": 62, "velocity": 107, "time": 0, "type": "NormalMsg"}, "M_1303": {"note_status": 1, "channel": 0, "note": 62, "velocity": 0, "time": 0, "type": "NormalMsg"}, "M_1304": {"note_status": 1, "channel": 0, "note": 62, "velocity": 107, "time": 0, "type": "NormalMsg"}, "M_1305": {"note_status": 1, "channel": 0, "note": 62, "velocity": 0, "time": 0, "type": "NormalMsg"}, "M_1306": {"note_status": 1, "channel": 0, "note": 62, "velocity": 89, "time": 0, "type": "NormalMsg"}, "M_1307": {"note_status": 1, "channel": 0, "note": 62, "velocity": 0, "time": 0, "type": "NormalMsg"}, "M_1308": {"note_status": 1, "channel": 0, "note": 62, "velocity": 107, "time": 0, "type": "NormalMsg"}, "M_1309": {"note_status": 1, "channel": 0, "note": 62, "velocity": 0, "time": 0, "type": "NormalMsg"}, "M_1310": {"note_status": 1, "channel": 0, "note": 65, "velocity": 93, "time": 0, "type": "NormalMsg"}, "M_1311": {"note_status": 1, "channel": 0, "note": 65, "velocity": 0, "time": 0, "type": "NormalMsg"}, "M_1312": {"note_status": 1, "channel": 0, "note": 62, "velocity": 101, "time": 0, "type": "NormalMsg"}, "M_1313": {"note_status": 1, "channel": 0, "note": 62, "velocity": 0, "time": 0, "type": "NormalMsg"}, "M_1314": {"note_status": 1, "channel": 0, "note": 67, "velocity": 107, "time": 0, "type": "NormalMsg"}, "M_1315": {"note_status": 1, "channel": 0, "note": 67, "velocity": 0, "time": 0, "type": "NormalMsg"}, "M_1316": {"note_status": 1, "channel": 0, "note": 67, "velocity": 107, "time": 0, "type": "NormalMsg"}, "M_1317": {"note_status": 1, "channel": 0, "note": 67, "velocity": 0, "time": 0, "type": "NormalMsg"}, "M_1318": {"note_status": 1, "channel": 0, "note": 67, "velocity": 77, "time": 0, "type": "NormalMsg"}, "M_1319": {"note_status": 1, "channel": 0, "note": 67, "velocity": 0, "time": 0, "type": "NormalMsg"}, "M_1320": {"note_status": 1, "channel": 0, "note": 67, "velocity": 107, "time": 0, "type": "NormalMsg"}, "M_1321": {"note_status": 1, "channel": 0, "note": 67, "velocity": 0, "time": 0, "type": "NormalMsg"}, "M_1322": {"note_status": 1, "channel": 0, "note": 67, "velocity": 105, "time": 0, "type": "NormalMsg"}, "M_1323": {"note_status": 1, "channel": 0, "note": 67, "velocity": 0, "time": 0, "type": "NormalMsg"}, "M_1324": {"note_status": 1, "channel": 0, "note": 67, "velocity": 107, "time": 0, "type": "NormalMsg"}, "M_1325": {"note_status": 1, "channel": 0, "note": 67, "velocity": 0, "time": 0, "type": "NormalMsg"}, "M_1326": {"note_status": 1, "channel": 0, "note": 67, "velocity": 101, "time": 0, "type": "NormalMsg"}, "M_1327": {"note_status": 1, "channel": 0, "note": 67, "velocity": 0, "time": 0, "type": "NormalMsg"}, "M_1328": {"note_status": 1, "channel": 0, "note": 65, "velocity": 89, "time": 0, "type": "NormalMsg"}, "M_1329": {"note_status": 1, "channel": 0, "note": 65, "velocity": 0, "time": 0, "type": "NormalMsg"}, "M_1330": {"note_status": 1, "channel": 0, "note": 67, "velocity": 101, "time": 0, "type": "NormalMsg"}, "M_1331": {"note_status": 1, "channel": 0, "note": 67, "velocity": 0, "time": 0, "type": "NormalMsg"}, "M_1332": {"note_status": 1, "channel": 0, "note": 69, "velocity": 107, "time": 0, "type": "NormalMsg"}, "M_1333": {"note_status": 1, "channel": 0, "note": 69, "velocity": 0, "time": 0, "type": "NormalMsg"}, "M_1334": {"note_status": 1, "channel": 0, "note": 69, "velocity": 107, "time": 0, "type": "NormalMsg"}, "M_1335": {"note_status": 1, "channel": 0, "note": 69, "velocity": 0, "time": 0, "type": "NormalMsg"}, "M_1336": {"note_status": 1, "channel": 0, "note": 69, "velocity": 89, "time": 0, "type": "NormalMsg"}, "M_1337": {"note_status": 1, "channel": 0, "note": 69, "velocity": 0, "time": 0, "type": "NormalMsg"}, "M_1338": {"note_status": 1, "channel": 0, "note": 69, "velocity": 107, "time": 0, "type": "NormalMsg"}, "M_1339": {"note_status": 1, "channel": 0, "note": 69, "velocity": 0, "time": 0, "type": "NormalMsg"}, "M_1340": {"note_status": 1, "channel": 0, "note": 69, "velocity": 93, "time": 0, "type": "NormalMsg"}, "M_1341": {"note_status": 1, "channel": 0, "note": 69, "velocity": 0, "time": 0, "type": "NormalMsg"}, "M_1342": {"note_status": 1, "channel": 0, "note": 67, "velocity": 101, "time": 0, "type": "NormalMsg"}, "M_1343": {"note_status": 1, "channel": 0, "note": 67, "velocity": 0, "time": 0, "type": "NormalMsg"}, "M_1344": {"note_status": 1, "channel": 0, "note": 65, "velocity": 107, "time": 0, "type": "NormalMsg"}, "M_1345": {"note_status": 1, "channel": 0, "note": 65, "velocity": 0, "time": 0, "type": "NormalMsg"}, "M_1346": {"note_status": 1, "channel": 0, "note": 65, "velocity": 107, "time": 0, "type": "NormalMsg"}, "M_1347": {"note_status": 1, "channel": 0, "note": 65, "velocity": 0, "time": 0, "type": "NormalMsg"}, "M_1348": {"note_status": 1, "channel": 0, "note": 65, "velocity": 77, "time": 0, "type": "NormalMsg"}, "M_1349": {"note_status": 1, "channel": 0, "note": 65, "velocity": 0, "time": 0, "type": "NormalMsg"}, "M_1350": {"note_status": 1, "channel": 0, "note": 65, "velocity": 107, "time": 0, "type": "NormalMsg"}, "M_1351": {"note_status": 1, "channel": 0, "note": 65, "velocity": 0, "time": 0, "type": "NormalMsg"}, "M_1352": {"note_status": 1, "channel": 0, "note": 65, "velocity": 105, "time": 0, "type": "NormalMsg"}, "M_1353": {"note_status": 1, "channel": 0, "note": 65, "velocity": 0, "time": 0, "type": "NormalMsg"}, "M_1354": {"note_status": 1, "channel": 0, "note": 65, "velocity": 107, "time": 0, "type": "NormalMsg"}, "M_1355": {"note_status": 1, "channel": 0, "note": 65, "velocity": 0, "time": 0, "type": "NormalMsg"}, "M_1356": {"note_status": 1, "channel": 0, "note": 65, "velocity": 101, "time": 0, "type": "NormalMsg"}, "M_1357": {"note_status": 1, "channel": 0, "note": 65, "velocity": 0, "time": 0, "type": "NormalMsg"}, "M_1358": {"note_status": 1, "channel": 0, "note": 65, "velocity": 89, "time": 0, "type": "NormalMsg"}, "M_1359": {"note_status": 1, "channel": 0, "note": 65, "velocity": 0, "time": 0, "type": "NormalMsg"}, "M_1360": {"note_status": 1, "channel": 0, "note": 64, "velocity": 101, "time": 0, "type": "NormalMsg"}, "M_1361": {"note_status": 1, "channel": 0, "note": 64, "velocity": 0, "time": 0, "type": "NormalMsg"}, "M_1362": {"note_status": 1, "channel": 0, "note": 62, "velocity": 107, "time": 0, "type": "NormalMsg"}, "M_1363": {"note_status": 1, "channel": 0, "note": 62, "velocity": 0, "time": 0, "type": "NormalMsg"}, "M_1364": {"note_status": 1, "channel": 0, "note": 62, "velocity": 107, "time": 0, "type": "NormalMsg"}, "M_1365": {"note_status": 1, "channel": 0, "note": 62, "velocity": 0, "time": 0, "type": "NormalMsg"}, "M_1366": {"note_status": 1, "channel": 0, "note": 62, "velocity": 89, "time": 0, "type": "NormalMsg"}, "M_1367": {"note_status": 1, "channel": 0, "note": 62, "velocity": 0, "time": 0, "type": "NormalMsg"}, "M_1368": {"note_status": 1, "channel": 0, "note": 62, "velocity": 107, "time": 0, "type": "NormalMsg"}, "M_1369": {"note_status": 1, "channel": 0, "note": 62, "velocity": 0, "time": 0, "type": "NormalMsg"}, "M_1370": {"note_status": 1, "channel": 0, "note": 65, "velocity": 93, "time": 0, "type": "NormalMsg"}, "M_1371": {"note_status": 1, "channel": 0, "note": 65, "velocity": 0, "time": 0, "type": "NormalMsg"}, "M_1372": {"note_status": 1, "channel": 0, "note": 62, "velocity": 101, "time": 0, "type": "NormalMsg"}, "M_1373": {"note_status": 1, "channel": 0, "note": 62, "velocity": 0, "time": 0, "type": "NormalMsg"}, "M_1374": {"note_status": 1, "channel": 0, "note": 67, "velocity": 107, "time": 0, "type": "NormalMsg"}, "M_1375": {"note_status": 1, "channel": 0, "note": 67, "velocity": 0, "time": 0, "type": "NormalMsg"}, "M_1376": {"note_status": 1, "channel": 0, "note": 67, "velocity": 107, "time": 0, "type": "NormalMsg"}, "M_1377": {"note_status": 1, "channel": 0, "note": 67, "velocity": 0, "time": 0, "type": "NormalMsg"}, "M_1378": {"note_status": 1, "channel": 0, "note": 67, "velocity": 77, "time": 0, "type": "NormalMsg"}, "M_1379": {"note_status": 1, "channel": 0, "note": 67, "velocity": 0, "time": 0, "type": "NormalMsg"}, "M_1380": {"note_status": 1, "channel": 0, "note": 67, "velocity": 107, "time": 0, "type": "NormalMsg"}, "M_1381": {"note_status": 1, "channel": 0, "note": 67, "velocity": 0, "time": 0, "type": "NormalMsg"}, "M_1382": {"note_status": 1, "channel": 0, "note": 67, "velocity": 105, "time": 0, "type": "NormalMsg"}, "M_1383": {"note_status": 1, "channel": 0, "note": 67, "velocity": 0, "time": 0, "type": "NormalMsg"}, "M_1384": {"note_status": 1, "channel": 0, "note": 67, "velocity": 107, "time": 0, "type": "NormalMsg"}, "M_1385": {"note_status": 1, "channel": 0, "note": 67, "velocity": 0, "time": 0, "type": "NormalMsg"}, "M_1386": {"note_status": 1, "channel": 0, "note": 67, "velocity": 101, "time": 0, "type": "NormalMsg"}, "M_1387": {"note_status": 1, "channel": 0, "note": 67, "velocity": 0, "time": 0, "type": "NormalMsg"}, "M_1388": {"note_status": 1, "channel": 0, "note": 65, "velocity": 89, "time": 0, "type": "NormalMsg"}, "M_1389": {"note_status": 1, "channel": 0, "note": 65, "velocity": 0, "time": 0, "type": "NormalMsg"}, "M_1390": {"note_status": 1, "channel": 0, "note": 67, "velocity": 101, "time": 0, "type": "NormalMsg"}, "M_1391": {"note_status": 1, "channel": 0, "note": 67, "velocity": 0, "time": 0, "type": "NormalMsg"}, "M_1392": {"note_status": 1, "channel": 0, "note": 69, "velocity": 107, "time": 0, "type": "NormalMsg"}, "M_1393": {"note_status": 1, "channel": 0, "note": 69, "velocity": 0, "time": 0, "type": "NormalMsg"}, "M_1394": {"note_status": 1, "channel": 0, "note": 69, "velocity": 107, "time": 0, "type": "NormalMsg"}, "M_1395": {"note_status": 1, "channel": 0, "note": 69, "velocity": 0, "time": 0, "type": "NormalMsg"}, "M_1396": {"note_status": 1, "channel": 0, "note": 69, "velocity": 89, "time": 0, "type": "NormalMsg"}, "M_1397": {"note_status": 1, "channel": 0, "note": 69, "velocity": 0, "time": 0, "type": "NormalMsg"}, "M_1398": {"note_status": 1, "channel": 0, "note": 69, "velocity": 107, "time": 0, "type": "NormalMsg"}, "M_1399": {"note_status": 1, "channel": 0, "note": 69, "velocity": 0, "time": 0, "type": "NormalMsg"}, "M_1400": {"note_status": 1, "channel": 0, "note": 69, "velocity": 93, "time": 0, "type": "NormalMsg"}, "M_1401": {"note_status": 1, "channel": 0, "note": 69, "velocity": 0, "time": 0, "type": "NormalMsg"}, "M_1402": {"note_status": 1, "channel": 0, "note": 67, "velocity": 101, "time": 0, "type": "NormalMsg"}, "M_1403": {"note_status": 1, "channel": 0, "note": 67, "velocity": 0, "time": 0, "type": "NormalMsg"}, "M_1404": {"note_status": 1, "channel": 0, "note": 65, "velocity": 107, "time": 0, "type": "NormalMsg"}, "M_1405": {"note_status": 1, "channel": 0, "note": 65, "velocity": 0, "time": 0, "type": "NormalMsg"}, "M_1406": {"note_status": 1, "channel": 0, "note": 65, "velocity": 107, "time": 0, "type": "NormalMsg"}, "M_1407": {"note_status": 1, "channel": 0, "note": 65, "velocity": 0, "time": 0, "type": "NormalMsg"}, "M_1408": {"note_status": 1, "channel": 0, "note": 65, "velocity": 77, "time": 0, "type": "NormalMsg"}, "M_1409": {"note_status": 1, "channel": 0, "note": 65, "velocity": 0, "time": 0, "type": "NormalMsg"}, "M_1410": {"note_status": 1, "channel": 0, "note": 65, "velocity": 107, "time": 0, "type": "NormalMsg"}, "M_1411": {"note_status": 1, "channel": 0, "note": 65, "velocity": 0, "time": 0, "type": "NormalMsg"}, "M_1412": {"note_status": 1, "channel": 0, "note": 65, "velocity": 105, "time": 0, "type": "NormalMsg"}, "M_1413": {"note_status": 1, "channel": 0, "note": 65, "velocity": 0, "time": 0, "type": "NormalMsg"}, "M_1414": {"note_status": 1, "channel": 0, "note": 65, "velocity": 107, "time": 0, "type": "NormalMsg"}, "M_1415": {"note_status": 1, "channel": 0, "note": 65, "velocity": 0, "time": 0, "type": "NormalMsg"}, "M_1416": {"note_status": 1, "channel": 0, "note": 65, "velocity": 101, "time": 0, "type": "NormalMsg"}, "M_1417": {"note_status": 1, "channel": 0, "note": 65, "velocity": 0, "time": 0, "type": "NormalMsg"}, "M_1418": {"note_status": 1, "channel": 0, "note": 65, "velocity": 89, "time": 0, "type": "NormalMsg"}, "M_1419": {"note_status": 1, "channel": 0, "note": 65, "velocity": 0, "time": 0, "type": "NormalMsg"}, "M_1420": {"note_status": 1, "channel": 0, "note": 64, "velocity": 101, "time": 0, "type": "NormalMsg"}, "M_1421": {"note_status": 1, "channel": 0, "note": 64, "velocity": 0, "time": 0, "type": "NormalMsg"}, "M_1422": {"note_status": 1, "channel": 0, "note": 62, "velocity": 107, "time": 0, "type": "NormalMsg"}, "M_1423": {"note_status": 1, "channel": 0, "note": 62, "velocity": 0, "time": 0, "type": "NormalMsg"}, "M_1424": {"note_status": 1, "channel": 0, "note": 62, "velocity": 107, "time": 0, "type": "NormalMsg"}, "M_1425": {"note_status": 1, "channel": 0, "note": 62, "velocity": 0, "time": 0, "type": "NormalMsg"}, "M_1426": {"note_status": 1, "channel": 0, "note": 62, "velocity": 89, "time": 0, "type": "NormalMsg"}, "M_1427": {"note_status": 1, "channel": 0, "note": 62, "velocity": 0, "time": 0, "type": "NormalMsg"}, "M_1428": {"note_status": 1, "channel": 0, "note": 62, "velocity": 107, "time": 0, "type": "NormalMsg"}, "M_1429": {"note_status": 1, "channel": 0, "note": 62, "velocity": 0, "time": 0, "type": "NormalMsg"}, "M_1430": {"note_status": 1, "channel": 0, "note": 65, "velocity": 93, "time": 0, "type": "NormalMsg"}, "M_1431": {"note_status": 1, "channel": 0, "note": 65, "velocity": 0, "time": 0, "type": "NormalMsg"}, "M_1432": {"note_status": 1, "channel": 0, "note": 62, "velocity": 101, "time": 0, "type": "NormalMsg"}, "M_1433": {"note_status": 1, "channel": 0, "note": 62, "velocity": 0, "time": 0, "type": "NormalMsg"}, "M_1434": {"note_status": 1, "channel": 0, "note": 67, "velocity": 107, "time": 0, "type": "NormalMsg"}, "M_1435": {"note_status": 1, "channel": 0, "note": 67, "velocity": 0, "time": 0, "type": "NormalMsg"}, "M_1436": {"note_status": 1, "channel": 0, "note": 67, "velocity": 107, "time": 0, "type": "NormalMsg"}, "M_1437": {"note_status": 1, "channel": 0, "note": 67, "velocity": 0, "time": 0, "type": "NormalMsg"}, "M_1438": {"note_status": 1, "channel": 0, "note": 67, "velocity": 77, "time": 0, "type": "NormalMsg"}, "M_1439": {"note_status": 1, "channel": 0, "note": 67, "velocity": 0, "time": 0, "type": "NormalMsg"}, "M_1440": {"note_status": 1, "channel": 0, "note": 67, "velocity": 107, "time": 0, "type": "NormalMsg"}, "M_1441": {"note_status": 1, "channel": 0, "note": 67, "velocity": 0, "time": 0, "type": "NormalMsg"}, "M_1442": {"note_status": 1, "channel": 0, "note": 67, "velocity": 105, "time": 0, "type": "NormalMsg"}, "M_1443": {"note_status": 1, "channel": 0, "note": 67, "velocity": 0, "time": 0, "type": "NormalMsg"}, "M_1444": {"note_status": 1, "channel": 0, "note": 67, "velocity": 107, "time": 0, "type": "NormalMsg"}, "M_1445": {"note_status": 1, "channel": 0, "note": 67, "velocity": 0, "time": 0, "type": "NormalMsg"}, "M_1446": {"note_status": 1, "channel": 0, "note": 67, "velocity": 101, "time": 0, "type": "NormalMsg"}, "M_1447": {"note_status": 1, "channel": 0, "note": 67, "velocity": 0, "time": 0, "type": "NormalMsg"}, "M_1448": {"note_status": 1, "channel": 0, "note": 65, "velocity": 89, "time": 0, "type": "NormalMsg"}, "M_1449": {"note_status": 1, "channel": 0, "note": 65, "velocity": 0, "time": 0, "type": "NormalMsg"}, "M_1450": {"note_status": 1, "channel": 0, "note": 67, "velocity": 101, "time": 0, "type": "NormalMsg"}, "M_1451": {"note_status": 1, "channel": 0, "note": 67, "velocity": 0, "time": 0, "type": "NormalMsg"}, "M_1452": {"note_status": 1, "channel": 0, "note": 57, "velocity": 104, "time": 0, "type": "NormalMsg"}, "M_1453": {"note_status": 1, "channel": 0, "note": 67, "velocity": 63, "time": 0, "type": "NormalMsg"}, "M_1454": {"note_status": 1, "channel": 0, "note": 57, "velocity": 0, "time": 0, "type": "NormalMsg"}, "M_1455": {"note_status": 1, "channel": 0, "note": 57, "velocity": 97, "time": 0, "type": "NormalMsg"}, "M_1456": {"note_status": 1, "channel": 0, "note": 60, "velocity": 74, "time": 0, "type": "NormalMsg"}, "M_1457": {"note_status": 1, "channel": 0, "note": 67, "velocity": 0, "time": 0, "type": "NormalMsg"}, "M_1458": {"note_status": 1, "channel": 0, "note": 57, "velocity": 0, "time": 0, "type": "NormalMsg"}, "M_1459": {"note_status": 1, "channel": 0, "note": 60, "velocity": 0, "time": 0, "type": "NormalMsg"}, "M_1460": {"note_status": 1, "channel": 0, "note": 57, "velocity": 108, "time": 0, "type": "NormalMsg"}, "M_1461": {"note_status": 1, "channel": 0, "note": 60, "velocity": 73, "time": 0, "type": "NormalMsg"}, "M_1462": {"note_status": 1, "channel": 0, "note": 57, "velocity": 0, "time": 0, "type": "NormalMsg"}, "M_1463": {"note_status": 1, "channel": 0, "note": 60, "velocity": 0, "time": 0, "type": "NormalMsg"}, "M_1464": {"note_status": 1, "channel": 0, "note": 67, "velocity": 63, "time": 0, "type": "NormalMsg"}, "M_1465": {"note_status": 1, "channel": 0, "note": 60, "velocity": 74, "time": 0, "type": "NormalMsg"}, "M_1466": {"note_status": 1, "channel": 0, "note": 67, "velocity": 0, "time": 0, "type": "NormalMsg"}, "M_1467": {"note_status": 1, "channel": 0, "note": 60, "velocity": 0, "time": 0, "type": "NormalMsg"}, "M_1468": {"note_status": 1, "channel": 0, "note": 60, "velocity": 73, "time": 0, "type": "NormalMsg"}, "M_1469": {"note_status": 1, "channel": 0, "note": 57, "velocity": 113, "time": 0, "type": "NormalMsg"}, "M_1470": {"note_status": 1, "channel": 0, "note": 60, "velocity": 0, "time": 0, "type": "NormalMsg"}, "M_1471": {"note_status": 1, "channel": 0, "note": 57, "velocity": 0, "time": 0, "type": "NormalMsg"}, "M_1472": {"note_status": 1, "channel": 0, "note": 57, "velocity": 108, "time": 0, "type": "NormalMsg"}, "M_1473": {"note_status": 1, "channel": 0, "note": 67, "velocity": 63, "time": 0, "type": "NormalMsg"}, "M_1474": {"note_status": 1, "channel": 0, "note": 57, "velocity": 0, "time": 0, "type": "NormalMsg"}, "M_1475": {"note_status": 1, "channel": 0, "note": 60, "velocity": 74, "time": 0, "type": "NormalMsg"}, "M_1476": {"note_status": 1, "channel": 0, "note": 67, "velocity": 0, "time": 0, "type": "NormalMsg"}, "M_1477": {"note_status": 1, "channel": 0, "note": 57, "velocity": 113, "time": 0, "type": "NormalMsg"}, "M_1478": {"note_status": 1, "channel": 0, "note": 60, "velocity": 0, "time": 0, "type": "NormalMsg"}, "M_1479": {"note_status": 1, "channel": 0, "note": 60, "velocity": 73, "time": 0, "type": "NormalMsg"}, "M_1480": {"note_status": 1, "channel": 0, "note": 60, "velocity": 0, "time": 0, "type": "NormalMsg"}, "M_1481": {"note_status": 1, "channel": 0, "note": 57, "velocity": 0, "time": 0, "type": "NormalMsg"}, "M_1482": {"note_status": 1, "channel": 0, "note": 67, "velocity": 63, "time": 0, "type": "NormalMsg"}, "M_1483": {"note_status": 1, "channel": 0, "note": 60, "velocity": 74, "time": 0, "type": "NormalMsg"}, "M_1484": {"note_status": 1, "channel": 0, "note": 67, "velocity": 0, "time": 0, "type": "NormalMsg"}, "M_1485": {"note_status": 1, "channel": 0, "note": 60, "velocity": 0, "time": 0, "type": "NormalMsg"}, "M_1486": {"note_status": 1, "channel": 0, "note": 60, "velocity": 73, "time": 0, "type": "NormalMsg"}, "M_1487": {"note_status": 1, "channel": 0, "note": 57, "velocity": 122, "time": 0, "type": "NormalMsg"}, "M_1488": {"note_status": 1, "channel": 0, "note": 60, "velocity": 0, "time": 0, "type": "NormalMsg"}, "M_1489": {"note_status": 1, "channel": 0, "note": 67, "velocity": 63, "time": 0, "type": "NormalMsg"}, "M_1490": {"note_status": 1, "channel": 0, "note": 57, "velocity": 0, "time": 0, "type": "NormalMsg"}, "M_1491": {"note_status": 1, "channel": 0, "note": 57, "velocity": 101, "time": 0, "type": "NormalMsg"}, "M_1492": {"note_status": 1, "channel": 0, "note": 60, "velocity": 74, "time": 0, "type": "NormalMsg"}, "M_1493": {"note_status": 1, "channel": 0, "note": 67, "velocity": 0, "time": 0, "type": "NormalMsg"}, "M_1494": {"note_status": 1, "channel": 0, "note": 57, "velocity": 0, "time": 0, "type": "NormalMsg"}, "M_1495": {"note_status": 1, "channel": 0, "note": 60, "velocity": 0, "time": 0, "type": "NormalMsg"}, "M_1496": {"note_status": 1, "channel": 0, "note": 57, "velocity": 101, "time": 0, "type": "NormalMsg"}, "M_1497": {"note_status": 1, "channel": 0, "note": 60, "velocity": 73, "time": 0, "type": "NormalMsg"}, "M_1498": {"note_status": 1, "channel": 0, "note": 57, "velocity": 0, "time": 0, "type": "NormalMsg"}, "M_1499": {"note_status": 1, "channel": 0, "note": 60, "velocity": 0, "time": 0, "type": "NormalMsg"}, "M_1500": {"note_status": 1, "channel": 0, "note": 67, "velocity": 63, "time": 0, "type": "NormalMsg"}, "M_1501": {"note_status": 1, "channel": 0, "note": 60, "velocity": 74, "time": 0, "type": "NormalMsg"}, "M_1502": {"note_status": 1, "channel": 0, "note": 67, "velocity": 0, "time": 0, "type": "NormalMsg"}, "M_1503": {"note_status": 1, "channel": 0, "note": 60, "velocity": 0, "time": 0, "type": "NormalMsg"}, "M_1504": {"note_status": 1, "channel": 0, "note": 60, "velocity": 73, "time": 0, "type": "NormalMsg"}, "M_1505": {"note_status": 1, "channel": 0, "note": 57, "velocity": 104, "time": 0, "type": "NormalMsg"}, "M_1506": {"note_status": 1, "channel": 0, "note": 60, "velocity": 0, "time": 0, "type": "NormalMsg"}, "M_1507": {"note_status": 1, "channel": 0, "note": 57, "velocity": 0, "time": 0, "type": "NormalMsg"}, "M_1508": {"note_status": 1, "channel": 0, "note": 57, "velocity": 101, "time": 0, "type": "NormalMsg"}, "M_1509": {"note_status": 1, "channel": 0, "note": 67, "velocity": 63, "time": 0, "type": "NormalMsg"}, "M_1510": {"note_status": 1, "channel": 0, "note": 57, "velocity": 0, "time": 0, "type": "NormalMsg"}, "M_1511": {"note_status": 1, "channel": 0, "note": 60, "velocity": 74, "time": 0, "type": "NormalMsg"}, "M_1512": {"note_status": 1, "channel": 0, "note": 67, "velocity": 0, "time": 0, "type": "NormalMsg"}, "M_1513": {"note_status": 1, "channel": 0, "note": 60, "velocity": 0, "time": 0, "type": "NormalMsg"}, "M_1514": {"note_status": 1, "channel": 0, "note": 57, "velocity": 117, "time": 0, "type": "NormalMsg"}, "M_1515": {"note_status": 1, "channel": 0, "note": 60, "velocity": 73, "time": 0, "type": "NormalMsg"}, "M_1516": {"note_status": 1, "channel": 0, "note": 60, "velocity": 0, "time": 0, "type": "NormalMsg"}, "M_1517": {"note_status": 1, "channel": 0, "note": 57, "velocity": 0, "time": 0, "type": "NormalMsg"}, "M_1518": {"note_status": 1, "channel": 0, "note": 67, "velocity": 63, "time": 0, "type": "NormalMsg"}, "M_1519": {"note_status": 1, "channel": 0, "note": 60, "velocity": 74, "time": 0, "type": "NormalMsg"}, "M_1520": {"note_status": 1, "channel": 0, "note": 67, "velocity": 0, "time": 0, "type": "NormalMsg"}, "M_1521": {"note_status": 1, "channel": 0, "note": 60, "velocity": 0, "time": 0, "type": "NormalMsg"}, "M_1522": {"note_status": 1, "channel": 0, "note": 60, "velocity": 73, "time": 0, "type": "NormalMsg"}, "M_1523": {"note_status": 1, "channel": 0, "note": 59, "velocity": 98, "time": 0, "type": "NormalMsg"}, "M_1524": {"note_status": 1, "channel": 0, "note": 60, "velocity": 0, "time": 0, "type": "NormalMsg"}, "M_1525": {"note_status": 1, "channel": 0, "note": 67, "velocity": 63, "time": 0, "type": "NormalMsg"}, "M_1526": {"note_status": 1, "channel": 0, "note": 59, "velocity": 0, "time": 0, "type": "NormalMsg"}, "M_1527": {"note_status": 1, "channel": 0, "note": 59, "velocity": 77, "time": 0, "type": "NormalMsg"}, "M_1528": {"note_status": 1, "channel": 0, "note": 60, "velocity": 74, "time": 0, "type": "NormalMsg"}, "M_1529": {"note_status": 1, "channel": 0, "note": 67, "velocity": 0, "time": 0, "type": "NormalMsg"}, "M_1530": {"note_status": 1, "channel": 0, "note": 59, "velocity": 0, "time": 0, "type": "NormalMsg"}, "M_1531": {"note_status": 1, "channel": 0, "note": 60, "velocity": 0, "time": 0, "type": "NormalMsg"}, "M_1532": {"note_status": 1, "channel": 0, "note": 59, "velocity": 77, "time": 0, "type": "NormalMsg"}, "M_1533": {"note_status": 1, "channel": 0, "note": 60, "velocity": 73, "time": 0, "type": "NormalMsg"}, "M_1534": {"note_status": 1, "channel": 0, "note": 59, "velocity": 0, "time": 0, "type": "NormalMsg"}, "M_1535": {"note_status": 1, "channel": 0, "note": 60, "velocity": 0, "time": 0, "type": "NormalMsg"}, "M_1536": {"note_status": 1, "channel": 0, "note": 67, "velocity": 63, "time": 0, "type": "NormalMsg"}, "M_1537": {"note_status": 1, "channel": 0, "note": 60, "velocity": 74, "time": 0, "type": "NormalMsg"}, "M_1538": {"note_status": 1, "channel": 0, "note": 67, "velocity": 0, "time": 0, "type": "NormalMsg"}, "M_1539": {"note_status": 1, "channel": 0, "note": 60, "velocity": 0, "time": 0, "type": "NormalMsg"}, "M_1540": {"note_status": 1, "channel": 0, "note": 60, "velocity": 73, "time": 0, "type": "NormalMsg"}, "M_1541": {"note_status": 1, "channel": 0, "note": 59, "velocity": 80, "time": 0, "type": "NormalMsg"}, "M_1542": {"note_status": 1, "channel": 0, "note": 60, "velocity": 0, "time": 0, "type": "NormalMsg"}, "M_1543": {"note_status": 1, "channel": 0, "note": 59, "velocity": 0, "time": 0, "type": "NormalMsg"}, "M_1544": {"note_status": 1, "channel": 0, "note": 59, "velocity": 77, "time": 0, "type": "NormalMsg"}, "M_1545": {"note_status": 1, "channel": 0, "note": 67, "velocity": 63, "time": 0, "type": "NormalMsg"}, "M_1546": {"note_status": 1, "channel": 0, "note": 59, "velocity": 0, "time": 0, "type": "NormalMsg"}, "M_1547": {"note_status": 1, "channel": 0, "note": 60, "velocity": 74, "time": 0, "type": "NormalMsg"}, "M_1548": {"note_status": 1, "channel": 0, "note": 67, "velocity": 0, "time": 0, "type": "NormalMsg"}, "M_1549": {"note_status": 1, "channel": 0, "note": 60, "velocity": 0, "time": 0, "type": "NormalMsg"}, "M_1550": {"note_status": 1, "channel": 0, "note": 59, "velocity": 93, "time": 0, "type": "NormalMsg"}, "M_1551": {"note_status": 1, "channel": 0, "note": 60, "velocity": 73, "time": 0, "type": "NormalMsg"}, "M_1552": {"note_status": 1, "channel": 0, "note": 60, "velocity": 0, "time": 0, "type": "NormalMsg"}, "M_1553": {"note_status": 1, "channel": 0, "note": 59, "velocity": 0, "time": 0, "type": "NormalMsg"}, "M_1554": {"note_status": 1, "channel": 0, "note": 67, "velocity": 63, "time": 0, "type": "NormalMsg"}, "M_1555": {"note_status": 1, "channel": 0, "note": 60, "velocity": 74, "time": 0, "type": "NormalMsg"}, "M_1556": {"note_status": 1, "channel": 0, "note": 67, "velocity": 0, "time": 0, "type": "NormalMsg"}, "M_1557": {"note_status": 1, "channel": 0, "note": 60, "velocity": 0, "time": 0, "type": "NormalMsg"}, "M_1558": {"note_status": 1, "channel": 0, "note": 60, "velocity": 73, "time": 0, "type": "NormalMsg"}, "M_1559": {"note_status": 1, "channel": 0, "note": 59, "velocity": 80, "time": 0, "type": "NormalMsg"}, "M_1560": {"note_status": 1, "channel": 0, "note": 60, "velocity": 0, "time": 0, "type": "NormalMsg"}, "M_1561": {"note_status": 1, "channel": 0, "note": 59, "velocity": 0, "time": 0, "type": "NormalMsg"}, "M_1562": {"note_status": 1, "channel": 0, "note": 67, "velocity": 63, "time": 0, "type": "NormalMsg"}, "M_1563": {"note_status": 1, "channel": 0, "note": 60, "velocity": 74, "time": 0, "type": "NormalMsg"}, "M_1564": {"note_status": 1, "channel": 0, "note": 59, "velocity": 77, "time": 0, "type": "NormalMsg"}, "M_1565": {"note_status": 1, "channel": 0, "note": 67, "velocity": 0, "time": 0, "type": "NormalMsg"}, "M_1566": {"note_status": 1, "channel": 0, "note": 60, "velocity": 0, "time": 0, "type": "NormalMsg"}, "M_1567": {"note_status": 1, "channel": 0, "note": 59, "velocity": 0, "time": 0, "type": "NormalMsg"}, "M_1568": {"note_status": 1, "channel": 0, "note": 60, "velocity": 73, "time": 0, "type": "NormalMsg"}, "M_1569": {"note_status": 1, "channel": 0, "note": 59, "velocity": 93, "time": 0, "type": "NormalMsg"}, "M_1570": {"note_status": 1, "channel": 0, "note": 60, "velocity": 0, "time": 0, "type": "NormalMsg"}, "M_1571": {"note_status": 1, "channel": 0, "note": 59, "velocity": 0, "time": 0, "type": "NormalMsg"}, "M_1572": {"note_status": 1, "channel": 0, "note": 69, "velocity": 107, "time": 0, "type": "NormalMsg"}, "M_1573": {"note_status": 1, "channel": 0, "note": 69, "velocity": 0, "time": 0, "type": "NormalMsg"}, "M_1574": {"note_status": 1, "channel": 0, "note": 69, "velocity": 107, "time": 0, "type": "NormalMsg"}, "M_1575": {"note_status": 1, "channel": 0, "note": 69, "velocity": 0, "time": 0, "type": "NormalMsg"}, "M_1576": {"note_status": 1, "channel": 0, "note": 69, "velocity": 89, "time": 0, "type": "NormalMsg"}, "M_1577": {"note_status": 1, "channel": 0, "note": 69, "velocity": 0, "time": 0, "type": "NormalMsg"}, "M_1578": {"note_status": 1, "channel": 0, "note": 69, "velocity": 107, "time": 0, "type": "NormalMsg"}, "M_1579": {"note_status": 1, "channel": 0, "note": 69, "velocity": 0, "time": 0, "type": "NormalMsg"}, "M_1580": {"note_status": 1, "channel": 0, "note": 69, "velocity": 93, "time": 0, "type": "NormalMsg"}, "M_1581": {"note_status": 1, "channel": 0, "note": 69, "velocity": 0, "time": 0, "type": "NormalMsg"}, "M_1582": {"note_status": 1, "channel": 0, "note": 67, "velocity": 101, "time": 0, "type": "NormalMsg"}, "M_1583": {"note_status": 1, "channel": 0, "note": 67, "velocity": 0, "time": 0, "type": "NormalMsg"}, "M_1584": {"note_status": 1, "channel": 0, "note": 65, "velocity": 107, "time": 0, "type": "NormalMsg"}, "M_1585": {"note_status": 1, "channel": 0, "note": 65, "velocity": 0, "time": 0, "type": "NormalMsg"}, "M_1586": {"note_status": 1, "channel": 0, "note": 65, "velocity": 107, "time": 0, "type": "NormalMsg"}, "M_1587": {"note_status": 1, "channel": 0, "note": 65, "velocity": 0, "time": 0, "type": "NormalMsg"}, "M_1588": {"note_status": 1, "channel": 0, "note": 65, "velocity": 77, "time": 0, "type": "NormalMsg"}, "M_1589": {"note_status": 1, "channel": 0, "note": 65, "velocity": 0, "time": 0, "type": "NormalMsg"}, "M_1590": {"note_status": 1, "channel": 0, "note": 65, "velocity": 107, "time": 0, "type": "NormalMsg"}, "M_1591": {"note_status": 1, "channel": 0, "note": 65, "velocity": 0, "time": 0, "type": "NormalMsg"}, "M_1592": {"note_status": 1, "channel": 0, "note": 65, "velocity": 105, "time": 0, "type": "NormalMsg"}, "M_1593": {"note_status": 1, "channel": 0, "note": 65, "velocity": 0, "time": 0, "type": "NormalMsg"}, "M_1594": {"note_status": 1, "channel": 0, "note": 65, "velocity": 107, "time": 0, "type": "NormalMsg"}, "M_1595": {"note_status": 1, "channel": 0, "note": 65, "velocity": 0, "time": 0, "type": "NormalMsg"}, "M_1596": {"note_status": 1, "channel": 0, "note": 65, "velocity": 101, "time": 0, "type": "NormalMsg"}, "M_1597": {"note_status": 1, "channel": 0, "note": 65, "velocity": 0, "time": 0, "type": "NormalMsg"}, "M_1598": {"note_status": 1, "channel": 0, "note": 65, "velocity": 89, "time": 0, "type": "NormalMsg"}, "M_1599": {"note_status": 1, "channel": 0, "note": 65, "velocity": 0, "time": 0, "type": "NormalMsg"}, "M_1600": {"note_status": 1, "channel": 0, "note": 64, "velocity": 101, "time": 0, "type": "NormalMsg"}, "M_1601": {"note_status": 1, "channel": 0, "note": 64, "velocity": 0, "time": 0, "type": "NormalMsg"}, "M_1602": {"note_status": 1, "channel": 0, "note": 62, "velocity": 107, "time": 0, "type": "NormalMsg"}, "M_1603": {"note_status": 1, "channel": 0, "note": 62, "velocity": 0, "time": 0, "type": "NormalMsg"}, "M_1604": {"note_status": 1, "channel": 0, "note": 62, "velocity": 107, "time": 0, "type": "NormalMsg"}, "M_1605": {"note_status": 1, "channel": 0, "note": 62, "velocity": 0, "time": 0, "type": "NormalMsg"}, "M_1606": {"note_status": 1, "channel": 0, "note": 62, "velocity": 89, "time": 0, "type": "NormalMsg"}, "M_1607": {"note_status": 1, "channel": 0, "note": 62, "velocity": 0, "time": 0, "type": "NormalMsg"}, "M_1608": {"note_status": 1, "channel": 0, "note": 62, "velocity": 107, "time": 0, "type": "NormalMsg"}, "M_1609": {"note_status": 1, "channel": 0, "note": 62, "velocity": 0, "time": 0, "type": "NormalMsg"}, "M_1610": {"note_status": 1, "channel": 0, "note": 65, "velocity": 93, "time": 0, "type": "NormalMsg"}, "M_1611": {"note_status": 1, "channel": 0, "note": 65, "velocity": 0, "time": 0, "type": "NormalMsg"}, "M_1612": {"note_status": 1, "channel": 0, "note": 62, "velocity": 101, "time": 0, "type": "NormalMsg"}, "M_1613": {"note_status": 1, "channel": 0, "note": 62, "velocity": 0, "time": 0, "type": "NormalMsg"}, "M_1614": {"note_status": 1, "channel": 0, "note": 67, "velocity": 107, "time": 0, "type": "NormalMsg"}, "M_1615": {"note_status": 1, "channel": 0, "note": 67, "velocity": 0, "time": 0, "type": "NormalMsg"}, "M_1616": {"note_status": 1, "channel": 0, "note": 67, "velocity": 107, "time": 0, "type": "NormalMsg"}, "M_1617": {"note_status": 1, "channel": 0, "note": 67, "velocity": 0, "time": 0, "type": "NormalMsg"}, "M_1618": {"note_status": 1, "channel": 0, "note": 67, "velocity": 77, "time": 0, "type": "NormalMsg"}, "M_1619": {"note_status": 1, "channel": 0, "note": 67, "velocity": 0, "time": 0, "type": "NormalMsg"}, "M_1620": {"note_status": 1, "channel": 0, "note": 67, "velocity": 107, "time": 0, "type": "NormalMsg"}, "M_1621": {"note_status": 1, "channel": 0, "note": 67, "velocity": 0, "time": 0, "type": "NormalMsg"}, "M_1622": {"note_status": 1, "channel": 0, "note": 67, "velocity": 105, "time": 0, "type": "NormalMsg"}, "M_1623": {"note_status": 1, "channel": 0, "note": 67, "velocity": 0, "time": 0, "type": "NormalMsg"}, "M_1624": {"note_status": 1, "channel": 0, "note": 67, "velocity": 107, "time": 0, "type": "NormalMsg"}, "M_1625": {"note_status": 1, "channel": 0, "note": 67, "velocity": 0, "time": 0, "type": "NormalMsg"}, "M_1626": {"note_status": 1, "channel": 0, "note": 67, "velocity": 101, "time": 0, "type": "NormalMsg"}, "M_1627": {"note_status": 1, "channel": 0, "note": 67, "velocity": 0, "time": 0, "type": "NormalMsg"}, "M_1628": {"note_status": 1, "channel": 0, "note": 65, "velocity": 89, "time": 0, "type": "NormalMsg"}, "M_1629": {"note_status": 1, "channel": 0, "note": 65, "velocity": 0, "time": 0, "type": "NormalMsg"}, "M_1630": {"note_status": 1, "channel": 0, "note": 67, "velocity": 101, "time": 0, "type": "NormalMsg"}, "M_1631": {"note_status": 1, "channel": 0, "note": 67, "velocity": 0, "time": 0, "type": "NormalMsg"}, "M_1632": {"note_status": 1, "channel": 0, "note": 69, "velocity": 107, "time": 0, "type": "NormalMsg"}, "M_1633": {"note_status": 1, "channel": 0, "note": 69, "velocity": 0, "time": 0, "type": "NormalMsg"}, "M_1634": {"note_status": 1, "channel": 0, "note": 69, "velocity": 107, "time": 0, "type": "NormalMsg"}, "M_1635": {"note_status": 1, "channel": 0, "note": 69, "velocity": 0, "time": 0, "type": "NormalMsg"}, "M_1636": {"note_status": 1, "channel": 0, "note": 69, "velocity": 89, "time": 0, "type": "NormalMsg"}, "M_1637": {"note_status": 1, "channel": 0, "note": 69, "velocity": 0, "time": 0, "type": "NormalMsg"}, "M_1638": {"note_status": 1, "channel": 0, "note": 69, "velocity": 107, "time": 0, "type": "NormalMsg"}, "M_1639": {"note_status": 1, "channel": 0, "note": 69, "velocity": 0, "time": 0, "type": "NormalMsg"}, "M_1640": {"note_status": 1, "channel": 0, "note": 69, "velocity": 93, "time": 0, "type": "NormalMsg"}, "M_1641": {"note_status": 1, "channel": 0, "note": 69, "velocity": 0, "time": 0, "type": "NormalMsg"}, "M_1642": {"note_status": 1, "channel": 0, "note": 67, "velocity": 101, "time": 0, "type": "NormalMsg"}, "M_1643": {"note_status": 1, "channel": 0, "note": 67, "velocity": 0, "time": 0, "type": "NormalMsg"}, "M_1644": {"note_status": 1, "channel": 0, "note": 65, "velocity": 107, "time": 0, "type": "NormalMsg"}, "M_1645": {"note_status": 1, "channel": 0, "note": 65, "velocity": 0, "time": 0, "type": "NormalMsg"}, "M_1646": {"note_status": 1, "channel": 0, "note": 65, "velocity": 107, "time": 0, "type": "NormalMsg"}, "M_1647": {"note_status": 1, "channel": 0, "note": 65, "velocity": 0, "time": 0, "type": "NormalMsg"}, "M_1648": {"note_status": 1, "channel": 0, "note": 65, "velocity": 77, "time": 0, "type": "NormalMsg"}, "M_1649": {"note_status": 1, "channel": 0, "note": 65, "velocity": 0, "time": 0, "type": "NormalMsg"}, "M_1650": {"note_status": 1, "channel": 0, "note": 65, "velocity": 107, "time": 0, "type": "NormalMsg"}, "M_1651": {"note_status": 1, "channel": 0, "note": 65, "velocity": 0, "time": 0, "type": "NormalMsg"}, "M_1652": {"note_status": 1, "channel": 0, "note": 65, "velocity": 105, "time": 0, "type": "NormalMsg"}, "M_1653": {"note_status": 1, "channel": 0, "note": 65, "velocity": 0, "time": 0, "type": "NormalMsg"}, "M_1654": {"note_status": 1, "channel": 0, "note": 65, "velocity": 107, "time": 0, "type": "NormalMsg"}, "M_1655": {"note_status": 1, "channel": 0, "note": 65, "velocity": 0, "time": 0, "type": "NormalMsg"}, "M_1656": {"note_status": 1, "channel": 0, "note": 65, "velocity": 101, "time": 0, "type": "NormalMsg"}, "M_1657": {"note_status": 1, "channel": 0, "note": 65, "velocity": 0, "time": 0, "type": "NormalMsg"}, "M_1658": {"note_status": 1, "channel": 0, "note": 65, "velocity": 89, "time": 0, "type": "NormalMsg"}, "M_1659": {"note_status": 1, "channel": 0, "note": 65, "velocity": 0, "time": 0, "type": "NormalMsg"}, "M_1660": {"note_status": 1, "channel": 0, "note": 64, "velocity": 101, "time": 0, "type": "NormalMsg"}, "M_1661": {"note_status": 1, "channel": 0, "note": 64, "velocity": 0, "time": 0, "type": "NormalMsg"}, "M_1662": {"note_status": 1, "channel": 0, "note": 67, "velocity": 107, "time": 0, "type": "NormalMsg"}, "M_1663": {"note_status": 1, "channel": 0, "note": 67, "velocity": 0, "time": 0, "type": "NormalMsg"}, "M_1664": {"note_status": 1, "channel": 0, "note": 67, "velocity": 105, "time": 0, "type": "NormalMsg"}, "M_1665": {"note_status": 1, "channel": 0, "note": 67, "velocity": 0, "time": 0, "type": "NormalMsg"}, "M_1666": {"note_status": 1, "channel": 0, "note": 67, "velocity": 107, "time": 0, "type": "NormalMsg"}, "M_1667": {"note_status": 1, "channel": 0, "note": 67, "velocity": 0, "time": 0, "type": "NormalMsg"}, "M_1668": {"note_status": 1, "channel": 0, "note": 67, "velocity": 101, "time": 0, "type": "NormalMsg"}, "M_1669": {"note_status": 1, "channel": 0, "note": 67, "velocity": 0, "time": 0, "type": "NormalMsg"}, "M_1670": {"note_status": 1, "channel": 0, "note": 72, "velocity": 89, "time": 0, "type": "NormalMsg"}, "M_1671": {"note_status": 1, "channel": 0, "note": 72, "velocity": 0, "time": 0, "type": "NormalMsg"}, "M_1672": {"note_status": 1, "channel": 0, "note": 67, "velocity": 101, "time": 0, "type": "NormalMsg"}, "M_1673": {"note_status": 1, "channel": 0, "note": 67, "velocity": 0, "time": 0, "type": "NormalMsg"}, "M_1674": {"note_status": 1, "channel": 0, "note": 69, "velocity": 107, "time": 0, "type": "NormalMsg"}, "M_1675": {"note_status": 1, "channel": 0, "note": 69, "velocity": 0, "time": 0, "type": "NormalMsg"}, "M_1676": {"note_status": 1, "channel": 0, "note": 69, "velocity": 107, "time": 0, "type": "NormalMsg"}, "M_1677": {"note_status": 1, "channel": 0, "note": 69, "velocity": 0, "time": 0, "type": "NormalMsg"}, "M_1678": {"note_status": 1, "channel": 0, "note": 69, "velocity": 89, "time": 0, "type": "NormalMsg"}, "M_1679": {"note_status": 1, "channel": 0, "note": 69, "velocity": 0, "time": 0, "type": "NormalMsg"}, "M_1680": {"note_status": 1, "channel": 0, "note": 69, "velocity": 107, "time": 0, "type": "NormalMsg"}, "M_1681": {"note_status": 1, "channel": 0, "note": 69, "velocity": 0, "time": 0, "type": "NormalMsg"}, "M_1682": {"note_status": 1, "channel": 0, "note": 69, "velocity": 93, "time": 0, "type": "NormalMsg"}, "M_1683": {"note_status": 1, "channel": 0, "note": 69, "velocity": 0, "time": 0, "type": "NormalMsg"}, "M_1684": {"note_status": 1, "channel": 0, "note": 67, "velocity": 101, "time": 0, "type": "NormalMsg"}, "M_1685": {"note_status": 1, "channel": 0, "note": 67, "velocity": 0, "time": 0, "type": "NormalMsg"}, "M_1686": {"note_status": 1, "channel": 0, "note": 65, "velocity": 107, "time": 0, "type": "NormalMsg"}, "M_1687": {"note_status": 1, "channel": 0, "note": 65, "velocity": 0, "time": 0, "type": "NormalMsg"}, "M_1688": {"note_status": 1, "channel": 0, "note": 65, "velocity": 107, "time": 0, "type": "NormalMsg"}, "M_1689": {"note_status": 1, "channel": 0, "note": 65, "velocity": 0, "time": 0, "type": "NormalMsg"}, "M_1690": {"note_status": 1, "channel": 0, "note": 65, "velocity": 77, "time": 0, "type": "NormalMsg"}, "M_1691": {"note_status": 1, "channel": 0, "note": 65, "velocity": 0, "time": 0, "type": "NormalMsg"}, "M_1692": {"note_status": 1, "channel": 0, "note": 65, "velocity": 107, "time": 0, "type": "NormalMsg"}, "M_1693": {"note_status": 1, "channel": 0, "note": 65, "velocity": 0, "time": 0, "type": "NormalMsg"}, "M_1694": {"note_status": 1, "channel": 0, "note": 65, "velocity": 105, "time": 0, "type": "NormalMsg"}, "M_1695": {"note_status": 1, "channel": 0, "note": 65, "velocity": 0, "time": 0, "type": "NormalMsg"}, "M_1696": {"note_status": 1, "channel": 0, "note": 65, "velocity": 107, "time": 0, "type": "NormalMsg"}, "M_1697": {"note_status": 1, "channel": 0, "note": 65, "velocity": 0, "time": 0, "type": "NormalMsg"}, "M_1698": {"note_status": 1, "channel": 0, "note": 65, "velocity": 101, "time": 0, "type": "NormalMsg"}, "M_1699": {"note_status": 1, "channel": 0, "note": 65, "velocity": 0, "time": 0, "type": "NormalMsg"}, "M_1700": {"note_status": 1, "channel": 0, "note": 65, "velocity": 89, "time": 0, "type": "NormalMsg"}, "M_1701": {"note_status": 1, "channel": 0, "note": 65, "velocity": 0, "time": 0, "type": "NormalMsg"}, "M_1702": {"note_status": 1, "channel": 0, "note": 64, "velocity": 101, "time": 0, "type": "NormalMsg"}, "M_1703": {"note_status": 1, "channel": 0, "note": 64, "velocity": 0, "time": 0, "type": "NormalMsg"}, "M_1704": {"note_status": 1, "channel": 0, "note": 62, "velocity": 107, "time": 0, "type": "NormalMsg"}, "M_1705": {"note_status": 1, "channel": 0, "note": 62, "velocity": 0, "time": 0, "type": "NormalMsg"}, "M_1706": {"note_status": 1, "channel": 0, "note": 62, "velocity": 107, "time": 0, "type": "NormalMsg"}, "M_1707": {"note_status": 1, "channel": 0, "note": 62, "velocity": 0, "time": 0, "type": "NormalMsg"}, "M_1708": {"note_status": 1, "channel": 0, "note": 62, "velocity": 89, "time": 0, "type": "NormalMsg"}, "M_1709": {"note_status": 1, "channel": 0, "note": 62, "velocity": 0, "time": 0, "type": "NormalMsg"}, "M_1710": {"note_status": 1, "channel": 0, "note": 62, "velocity": 107, "time": 0, "type": "NormalMsg"}, "M_1711": {"note_status": 1, "channel": 0, "note": 62, "velocity": 0, "time": 0, "type": "NormalMsg"}, "M_1712": {"note_status": 1, "channel": 0, "note": 65, "velocity": 93, "time": 0, "type": "NormalMsg"}, "M_1713": {"note_status": 1, "channel": 0, "note": 65, "velocity": 0, "time": 0, "type": "NormalMsg"}, "M_1714": {"note_status": 1, "channel": 0, "note": 62, "velocity": 101, "time": 0, "type": "NormalMsg"}, "M_1715": {"note_status": 1, "channel": 0, "note": 62, "velocity": 0, "time": 0, "type": "NormalMsg"}, "M_1716": {"note_status": 1, "channel": 0, "note": 67, "velocity": 107, "time": 0, "type": "NormalMsg"}, "M_1717": {"note_status": 1, "channel": 0, "note": 67, "velocity": 0, "time": 0, "type": "NormalMsg"}, "M_1718": {"note_status": 1, "channel": 0, "note": 67, "velocity": 107, "time": 0, "type": "NormalMsg"}, "M_1719": {"note_status": 1, "channel": 0, "note": 67, "velocity": 0, "time": 0, "type": "NormalMsg"}, "M_1720": {"note_status": 1, "channel": 0, "note": 67, "velocity": 77, "time": 0, "type": "NormalMsg"}, "M_1721": {"note_status": 1, "channel": 0, "note": 67, "velocity": 0, "time": 0, "type": "NormalMsg"}, "M_1722": {"note_status": 1, "channel": 0, "note": 67, "velocity": 107, "time": 0, "type": "NormalMsg"}, "M_1723": {"note_status": 1, "channel": 0, "note": 67, "velocity": 0, "time": 0, "type": "NormalMsg"}, "M_1724": {"note_status": 1, "channel": 0, "note": 67, "velocity": 105, "time": 0, "type": "NormalMsg"}, "M_1725": {"note_status": 1, "channel": 0, "note": 67, "velocity": 0, "time": 0, "type": "NormalMsg"}, "M_1726": {"note_status": 1, "channel": 0, "note": 67, "velocity": 107, "time": 0, "type": "NormalMsg"}, "M_1727": {"note_status": 1, "channel": 0, "note": 67, "velocity": 0, "time": 0, "type": "NormalMsg"}, "M_1728": {"note_status": 1, "channel": 0, "note": 67, "velocity": 101, "time": 0, "type": "NormalMsg"}, "M_1729": {"note_status": 1, "channel": 0, "note": 67, "velocity": 0, "time": 0, "type": "NormalMsg"}, "M_1730": {"note_status": 1, "channel": 0, "note": 65, "velocity": 89, "time": 0, "type": "NormalMsg"}, "M_1731": {"note_status": 1, "channel": 0, "note": 65, "velocity": 0, "time": 0, "type": "NormalMsg"}, "M_1732": {"note_status": 1, "channel": 0, "note": 67, "velocity": 101, "time": 0, "type": "NormalMsg"}, "M_1733": {"note_status": 1, "channel": 0, "note": 67, "velocity": 0, "time": 0, "type": "NormalMsg"}, "M_1734": {"note_status": 1, "channel": 0, "note": 69, "velocity": 107, "time": 0, "type": "NormalMsg"}, "M_1735": {"note_status": 1, "channel": 0, "note": 69, "velocity": 0, "time": 0, "type": "NormalMsg"}, "M_1736": {"note_status": 1, "channel": 0, "note": 69, "velocity": 107, "time": 0, "type": "NormalMsg"}, "M_1737": {"note_status": 1, "channel": 0, "note": 69, "velocity": 0, "time": 0, "type": "NormalMsg"}, "M_1738": {"note_status": 1, "channel": 0, "note": 69, "velocity": 89, "time": 0, "type": "NormalMsg"}, "M_1739": {"note_status": 1, "channel": 0, "note": 69, "velocity": 0, "time": 0, "type": "NormalMsg"}, "M_1740": {"note_status": 1, "channel": 0, "note": 69, "velocity": 107, "time": 0, "type": "NormalMsg"}, "M_1741": {"note_status": 1, "channel": 0, "note": 69, "velocity": 0, "time": 0, "type": "NormalMsg"}, "M_1742": {"note_status": 1, "channel": 0, "note": 69, "velocity": 93, "time": 0, "type": "NormalMsg"}, "M_1743": {"note_status": 1, "channel": 0, "note": 69, "velocity": 0, "time": 0, "type": "NormalMsg"}, "M_1744": {"note_status": 1, "channel": 0, "note": 67, "velocity": 101, "time": 0, "type": "NormalMsg"}, "M_1745": {"note_status": 1, "channel": 0, "note": 67, "velocity": 0, "time": 0, "type": "NormalMsg"}, "M_1746": {"note_status": 1, "channel": 0, "note": 65, "velocity": 107, "time": 0, "type": "NormalMsg"}, "M_1747": {"note_status": 1, "channel": 0, "note": 65, "velocity": 0, "time": 0, "type": "NormalMsg"}, "M_1748": {"note_status": 1, "channel": 0, "note": 65, "velocity": 107, "time": 0, "type": "NormalMsg"}, "M_1749": {"note_status": 1, "channel": 0, "note": 65, "velocity": 0, "time": 0, "type": "NormalMsg"}, "M_1750": {"note_status": 1, "channel": 0, "note": 65, "velocity": 77, "time": 0, "type": "NormalMsg"}, "M_1751": {"note_status": 1, "channel": 0, "note": 65, "velocity": 0, "time": 0, "type": "NormalMsg"}, "M_1752": {"note_status": 1, "channel": 0, "note": 65, "velocity": 107, "time": 0, "type": "NormalMsg"}, "M_1753": {"note_status": 1, "channel": 0, "note": 65, "velocity": 0, "time": 0, "type": "NormalMsg"}, "M_1754": {"note_status": 1, "channel": 0, "note": 65, "velocity": 105, "time": 0, "type": "NormalMsg"}, "M_1755": {"note_status": 1, "channel": 0, "note": 65, "velocity": 0, "time": 0, "type": "NormalMsg"}, "M_1756": {"note_status": 1, "channel": 0, "note": 65, "velocity": 107, "time": 0, "type": "NormalMsg"}, "M_1757": {"note_status": 1, "channel": 0, "note": 65, "velocity": 0, "time": 0, "type": "NormalMsg"}, "M_1758": {"note_status": 1, "channel": 0, "note": 65, "velocity": 101, "time": 0, "type": "NormalMsg"}, "M_1759": {"note_status": 1, "channel": 0, "note": 65, "velocity": 0, "time": 0, "type": "NormalMsg"}, "M_1760": {"note_status": 1, "channel": 0, "note": 65, "velocity": 89, "time": 0, "type": "NormalMsg"}, "M_1761": {"note_status": 1, "channel": 0, "note": 65, "velocity": 0, "time": 0, "type": "NormalMsg"}, "M_1762": {"note_status": 1, "channel": 0, "note": 64, "velocity": 101, "time": 0, "type": "NormalMsg"}, "M_1763": {"note_status": 1, "channel": 0, "note": 64, "velocity": 0, "time": 0, "type": "NormalMsg"}, "M_1764": {"note_status": 1, "channel": 0, "note": 62, "velocity": 107, "time": 0, "type": "NormalMsg"}, "M_1765": {"note_status": 1, "channel": 0, "note": 62, "velocity": 0, "time": 0, "type": "NormalMsg"}, "M_1766": {"note_status": 1, "channel": 0, "note": 62, "velocity": 107, "time": 0, "type": "NormalMsg"}, "M_1767": {"note_status": 1, "channel": 0, "note": 62, "velocity": 0, "time": 0, "type": "NormalMsg"}, "M_1768": {"note_status": 1, "channel": 0, "note": 62, "velocity": 89, "time": 0, "type": "NormalMsg"}, "M_1769": {"note_status": 1, "channel": 0, "note": 62, "velocity": 0, "time": 0, "type": "NormalMsg"}, "M_1770": {"note_status": 1, "channel": 0, "note": 62, "velocity": 107, "time": 0, "type": "NormalMsg"}, "M_1771": {"note_status": 1, "channel": 0, "note": 62, "velocity": 0, "time": 0, "type": "NormalMsg"}, "M_1772": {"note_status": 1, "channel": 0, "note": 65, "velocity": 93, "time": 0, "type": "NormalMsg"}, "M_1773": {"note_status": 1, "channel": 0, "note": 65, "velocity": 0, "time": 0, "type": "NormalMsg"}, "M_1774": {"note_status": 1, "channel": 0, "note": 62, "velocity": 101, "time": 0, "type": "NormalMsg"}, "M_1775": {"note_status": 1, "channel": 0, "note": 62, "velocity": 0, "time": 0, "type": "NormalMsg"}, "M_1776": {"note_status": 1, "channel": 0, "note": 67, "velocity": 107, "time": 0, "type": "NormalMsg"}, "M_1777": {"note_status": 1, "channel": 0, "note": 67, "velocity": 0, "time": 0, "type": "NormalMsg"}, "M_1778": {"note_status": 1, "channel": 0, "note": 67, "velocity": 107, "time": 0, "type": "NormalMsg"}, "M_1779": {"note_status": 1, "channel": 0, "note": 67, "velocity": 0, "time": 0, "type": "NormalMsg"}, "M_1780": {"note_status": 1, "channel": 0, "note": 67, "velocity": 77, "time": 0, "type": "NormalMsg"}, "M_1781": {"note_status": 1, "channel": 0, "note": 67, "velocity": 0, "time": 0, "type": "NormalMsg"}, "M_1782": {"note_status": 1, "channel": 0, "note": 67, "velocity": 107, "time": 0, "type": "NormalMsg"}, "M_1783": {"note_status": 1, "channel": 0, "note": 67, "velocity": 0, "time": 0, "type": "NormalMsg"}, "M_1784": {"note_status": 1, "channel": 0, "note": 67, "velocity": 105, "time": 0, "type": "NormalMsg"}, "M_1785": {"note_status": 1, "channel": 0, "note": 67, "velocity": 0, "time": 0, "type": "NormalMsg"}, "M_1786": {"note_status": 1, "channel": 0, "note": 67, "velocity": 107, "time": 0, "type": "NormalMsg"}, "M_1787": {"note_status": 1, "channel": 0, "note": 67, "velocity": 0, "time": 0, "type": "NormalMsg"}, "M_1788": {"note_status": 1, "channel": 0, "note": 67, "velocity": 101, "time": 0, "type": "NormalMsg"}, "M_1789": {"note_status": 1, "channel": 0, "note": 67, "velocity": 0, "time": 0, "type": "NormalMsg"}, "M_1790": {"note_status": 1, "channel": 0, "note": 65, "velocity": 89, "time": 0, "type": "NormalMsg"}, "M_1791": {"note_status": 1, "channel": 0, "note": 65, "velocity": 0, "time": 0, "type": "NormalMsg"}, "M_1792": {"note_status": 1, "channel": 0, "note": 67, "velocity": 101, "time": 0, "type": "NormalMsg"}, "M_1793": {"note_status": 1, "channel": 0, "note": 67, "velocity": 0, "time": 0, "type": "NormalMsg"}, "M_1794": {"note_status": 1, "channel": 0, "note": 69, "velocity": 107, "time": 0, "type": "NormalMsg"}, "M_1795": {"note_status": 1, "channel": 0, "note": 69, "velocity": 0, "time": 0, "type": "NormalMsg"}, "M_1796": {"note_status": 1, "channel": 0, "note": 69, "velocity": 107, "time": 0, "type": "NormalMsg"}, "M_1797": {"note_status": 1, "channel": 0, "note": 69, "velocity": 0, "time": 0, "type": "NormalMsg"}, "M_1798": {"note_status": 1, "channel": 0, "note": 69, "velocity": 89, "time": 0, "type": "NormalMsg"}, "M_1799": {"note_status": 1, "channel": 0, "note": 69, "velocity": 0, "time": 0, "type": "NormalMsg"}, "M_1800": {"note_status": 1, "channel": 0, "note": 69, "velocity": 107, "time": 0, "type": "NormalMsg"}, "M_1801": {"note_status": 1, "channel": 0, "note": 69, "velocity": 0, "time": 0, "type": "NormalMsg"}, "M_1802": {"note_status": 1, "channel": 0, "note": 69, "velocity": 93, "time": 0, "type": "NormalMsg"}, "M_1803": {"note_status": 1, "channel": 0, "note": 69, "velocity": 0, "time": 0, "type": "NormalMsg"}, "M_1804": {"note_status": 1, "channel": 0, "note": 67, "velocity": 101, "time": 0, "type": "NormalMsg"}, "M_1805": {"note_status": 1, "channel": 0, "note": 67, "velocity": 0, "time": 0, "type": "NormalMsg"}, "M_1806": {"note_status": 1, "channel": 0, "note": 65, "velocity": 107, "time": 0, "type": "NormalMsg"}, "M_1807": {"note_status": 1, "channel": 0, "note": 65, "velocity": 0, "time": 0, "type": "NormalMsg"}, "M_1808": {"note_status": 1, "channel": 0, "note": 65, "velocity": 107, "time": 0, "type": "NormalMsg"}, "M_1809": {"note_status": 1, "channel": 0, "note": 65, "velocity": 0, "time": 0, "type": "NormalMsg"}, "M_1810": {"note_status": 1, "channel": 0, "note": 65, "velocity": 77, "time": 0, "type": "NormalMsg"}, "M_1811": {"note_status": 1, "channel": 0, "note": 65, "velocity": 0, "time": 0, "type": "NormalMsg"}, "M_1812": {"note_status": 1, "channel": 0, "note": 65, "velocity": 107, "time": 0, "type": "NormalMsg"}, "M_1813": {"note_status": 1, "channel": 0, "note": 65, "velocity": 0, "time": 0, "type": "NormalMsg"}, "M_1814": {"note_status": 1, "channel": 0, "note": 65, "velocity": 105, "time": 0, "type": "NormalMsg"}, "M_1815": {"note_status": 1, "channel": 0, "note": 65, "velocity": 0, "time": 0, "type": "NormalMsg"}, "M_1816": {"note_status": 1, "channel": 0, "note": 65, "velocity": 107, "time": 0, "type": "NormalMsg"}, "M_1817": {"note_status": 1, "channel": 0, "note": 65, "velocity": 0, "time": 0, "type": "NormalMsg"}, "M_1818": {"note_status": 1, "channel": 0, "note": 65, "velocity": 101, "time": 0, "type": "NormalMsg"}, "M_1819": {"note_status": 1, "channel": 0, "note": 65, "velocity": 0, "time": 0, "type": "NormalMsg"}, "M_1820": {"note_status": 1, "channel": 0, "note": 65, "velocity": 89, "time": 0, "type": "NormalMsg"}, "M_1821": {"note_status": 1, "channel": 0, "note": 65, "velocity": 0, "time": 0, "type": "NormalMsg"}, "M_1822": {"note_status": 1, "channel": 0, "note": 64, "velocity": 101, "time": 0, "type": "NormalMsg"}, "M_1823": {"note_status": 1, "channel": 0, "note": 64, "velocity": 0, "time": 0, "type": "NormalMsg"}, "M_1824": {"note_status": 1, "channel": 0, "note": 62, "velocity": 107, "time": 0, "type": "NormalMsg"}, "M_1825": {"note_status": 1, "channel": 0, "note": 62, "velocity": 0, "time": 0, "type": "NormalMsg"}, "M_1826": {"note_status": 1, "channel": 0, "note": 62, "velocity": 107, "time": 0, "type": "NormalMsg"}, "M_1827": {"note_status": 1, "channel": 0, "note": 62, "velocity": 0, "time": 0, "type": "NormalMsg"}, "M_1828": {"note_status": 1, "channel": 0, "note": 62, "velocity": 89, "time": 0, "type": "NormalMsg"}, "M_1829": {"note_status": 1, "channel": 0, "note": 62, "velocity": 0, "time": 0, "type": "NormalMsg"}, "M_1830": {"note_status": 1, "channel": 0, "note": 62, "velocity": 107, "time": 0, "type": "NormalMsg"}, "M_1831": {"note_status": 1, "channel": 0, "note": 62, "velocity": 0, "time": 0, "type": "NormalMsg"}, "M_1832": {"note_status": 1, "channel": 0, "note": 65, "velocity": 93, "time": 0, "type": "NormalMsg"}, "M_1833": {"note_status": 1, "channel": 0, "note": 65, "velocity": 0, "time": 0, "type": "NormalMsg"}, "M_1834": {"note_status": 1, "channel": 0, "note": 62, "velocity": 101, "time": 0, "type": "NormalMsg"}, "M_1835": {"note_status": 1, "channel": 0, "note": 62, "velocity": 0, "time": 0, "type": "NormalMsg"}, "M_1836": {"note_status": 1, "channel": 0, "note": 67, "velocity": 107, "time": 0, "type": "NormalMsg"}, "M_1837": {"note_status": 1, "channel": 0, "note": 67, "velocity": 0, "time": 0, "type": "NormalMsg"}, "M_1838": {"note_status": 1, "channel": 0, "note": 67, "velocity": 107, "time": 0, "type": "NormalMsg"}, "M_1839": {"note_status": 1, "channel": 0, "note": 67, "velocity": 0, "time": 0, "type": "NormalMsg"}, "M_1840": {"note_status": 1, "channel": 0, "note": 67, "velocity": 77, "time": 0, "type": "NormalMsg"}, "M_1841": {"note_status": 1, "channel": 0, "note": 67, "velocity": 0, "time": 0, "type": "NormalMsg"}, "M_1842": {"note_status": 1, "channel": 0, "note": 67, "velocity": 107, "time": 0, "type": "NormalMsg"}, "M_1843": {"note_status": 1, "channel": 0, "note": 67, "velocity": 0, "time": 0, "type": "NormalMsg"}, "M_1844": {"note_status": 1, "channel": 0, "note": 67, "velocity": 105, "time": 0, "type": "NormalMsg"}, "M_1845": {"note_status": 1, "channel": 0, "note": 67, "velocity": 0, "time": 0, "type": "NormalMsg"}, "M_1846": {"note_status": 1, "channel": 0, "note": 67, "velocity": 107, "time": 0, "type": "NormalMsg"}, "M_1847": {"note_status": 1, "channel": 0, "note": 67, "velocity": 0, "time": 0, "type": "NormalMsg"}, "M_1848": {"note_status": 1, "channel": 0, "note": 67, "velocity": 101, "time": 0, "type": "NormalMsg"}, "M_1849": {"note_status": 1, "channel": 0, "note": 67, "velocity": 0, "time": 0, "type": "NormalMsg"}, "M_1850": {"note_status": 1, "channel": 0, "note": 65, "velocity": 89, "time": 0, "type": "NormalMsg"}, "M_1851": {"note_status": 1, "channel": 0, "note": 65, "velocity": 0, "time": 0, "type": "NormalMsg"}, "M_1852": {"note_status": 1, "channel": 0, "note": 67, "velocity": 101, "time": 0, "type": "NormalMsg"}, "M_1853": {"note_status": 1, "channel": 0, "note": 67, "velocity": 0, "time": 0, "type": "NormalMsg"}, "M_1854": {"note_status": 1, "channel": 0, "note": 69, "velocity": 107, "time": 0, "type": "NormalMsg"}, "M_1855": {"note_status": 1, "channel": 0, "note": 69, "velocity": 0, "time": 0, "type": "NormalMsg"}, "M_1856": {"note_status": 1, "channel": 0, "note": 69, "velocity": 107, "time": 0, "type": "NormalMsg"}, "M_1857": {"note_status": 1, "channel": 0, "note": 69, "velocity": 0, "time": 0, "type": "NormalMsg"}, "M_1858": {"note_status": 1, "channel": 0, "note": 69, "velocity": 89, "time": 0, "type": "NormalMsg"}, "M_1859": {"note_status": 1, "channel": 0, "note": 69, "velocity": 0, "time": 0, "type": "NormalMsg"}, "M_1860": {"note_status": 1, "channel": 0, "note": 69, "velocity": 107, "time": 0, "type": "NormalMsg"}, "M_1861": {"note_status": 1, "channel": 0, "note": 69, "velocity": 0, "time": 0, "type": "NormalMsg"}, "M_1862": {"note_status": 1, "channel": 0, "note": 69, "velocity": 93, "time": 0, "type": "NormalMsg"}, "M_1863": {"note_status": 1, "channel": 0, "note": 69, "velocity": 0, "time": 0, "type": "NormalMsg"}, "M_1864": {"note_status": 1, "channel": 0, "note": 67, "velocity": 101, "time": 0, "type": "NormalMsg"}, "M_1865": {"note_status": 1, "channel": 0, "note": 67, "velocity": 0, "time": 0, "type": "NormalMsg"}, "M_1866": {"note_status": 1, "channel": 0, "note": 65, "velocity": 107, "time": 0, "type": "NormalMsg"}, "M_1867": {"note_status": 1, "channel": 0, "note": 65, "velocity": 0, "time": 0, "type": "NormalMsg"}, "M_1868": {"note_status": 1, "channel": 0, "note": 65, "velocity": 107, "time": 0, "type": "NormalMsg"}, "M_1869": {"note_status": 1, "channel": 0, "note": 65, "velocity": 0, "time": 0, "type": "NormalMsg"}, "M_1870": {"note_status": 1, "channel": 0, "note": 65, "velocity": 77, "time": 0, "type": "NormalMsg"}, "M_1871": {"note_status": 1, "channel": 0, "note": 65, "velocity": 0, "time": 0, "type": "NormalMsg"}, "M_1872": {"note_status": 1, "channel": 0, "note": 65, "velocity": 107, "time": 0, "type": "NormalMsg"}, "M_1873": {"note_status": 1, "channel": 0, "note": 65, "velocity": 0, "time": 0, "type": "NormalMsg"}, "M_1874": {"note_status": 1, "channel": 0, "note": 65, "velocity": 105, "time": 0, "type": "NormalMsg"}, "M_1875": {"note_status": 1, "channel": 0, "note": 65, "velocity": 0, "time": 0, "type": "NormalMsg"}, "M_1876": {"note_status": 1, "channel": 0, "note": 65, "velocity": 107, "time": 0, "type": "NormalMsg"}, "M_1877": {"note_status": 1, "channel": 0, "note": 65, "velocity": 0, "time": 0, "type": "NormalMsg"}, "M_1878": {"note_status": 1, "channel": 0, "note": 65, "velocity": 101, "time": 0, "type": "NormalMsg"}, "M_1879": {"note_status": 1, "channel": 0, "note": 65, "velocity": 0, "time": 0, "type": "NormalMsg"}, "M_1880": {"note_status": 1, "channel": 0, "note": 65, "velocity": 89, "time": 0, "type": "NormalMsg"}, "M_1881": {"note_status": 1, "channel": 0, "note": 65, "velocity": 0, "time": 0, "type": "NormalMsg"}, "M_1882": {"note_status": 1, "channel": 0, "note": 64, "velocity": 101, "time": 0, "type": "NormalMsg"}, "M_1883": {"note_status": 1, "channel": 0, "note": 64, "velocity": 0, "time": 0, "type": "NormalMsg"}, "M_1884": {"note_status": 1, "channel": 0, "note": 62, "velocity": 107, "time": 0, "type": "NormalMsg"}, "M_1885": {"note_status": 1, "channel": 0, "note": 62, "velocity": 0, "time": 0, "type": "NormalMsg"}, "M_1886": {"note_status": 1, "channel": 0, "note": 62, "velocity": 107, "time": 0, "type": "NormalMsg"}, "M_1887": {"note_status": 1, "channel": 0, "note": 62, "velocity": 0, "time": 0, "type": "NormalMsg"}, "M_1888": {"note_status": 1, "channel": 0, "note": 62, "velocity": 89, "time": 0, "type": "NormalMsg"}, "M_1889": {"note_status": 1, "channel": 0, "note": 62, "velocity": 0, "time": 0, "type": "NormalMsg"}, "M_1890": {"note_status": 1, "channel": 0, "note": 62, "velocity": 107, "time": 0, "type": "NormalMsg"}, "M_1891": {"note_status": 1, "channel": 0, "note": 62, "velocity": 0, "time": 0, "type": "NormalMsg"}, "M_1892": {"note_status": 1, "channel": 0, "note": 65, "velocity": 93, "time": 0, "type": "NormalMsg"}, "M_1893": {"note_status": 1, "channel": 0, "note": 65, "velocity": 0, "time": 0, "type": "NormalMsg"}, "M_1894": {"note_status": 1, "channel": 0, "note": 62, "velocity": 101, "time": 0, "type": "NormalMsg"}, "M_1895": {"note_status": 1, "channel": 0, "note": 62, "velocity": 0, "time": 0, "type": "NormalMsg"}, "M_1896": {"note_status": 1, "channel": 0, "note": 67, "velocity": 107, "time": 0, "type": "NormalMsg"}, "M_1897": {"note_status": 1, "channel": 0, "note": 67, "velocity": 0, "time": 0, "type": "NormalMsg"}, "M_1898": {"note_status": 1, "channel": 0, "note": 67, "velocity": 107, "time": 0, "type": "NormalMsg"}, "M_1899": {"note_status": 1, "channel": 0, "note": 67, "velocity": 0, "time": 0, "type": "NormalMsg"}, "M_1900": {"note_status": 1, "channel": 0, "note": 67, "velocity": 77, "time": 0, "type": "NormalMsg"}, "M_1901": {"note_status": 1, "channel": 0, "note": 67, "velocity": 0, "time": 0, "type": "NormalMsg"}, "M_1902": {"note_status": 1, "channel": 0, "note": 67, "velocity": 107, "time": 0, "type": "NormalMsg"}, "M_1903": {"note_status": 1, "channel": 0, "note": 67, "velocity": 0, "time": 0, "type": "NormalMsg"}, "M_1904": {"note_status": 1, "channel": 0, "note": 67, "velocity": 105, "time": 0, "type": "NormalMsg"}, "M_1905": {"note_status": 1, "channel": 0, "note": 67, "velocity": 0, "time": 0, "type": "NormalMsg"}, "M_1906": {"note_status": 1, "channel": 0, "note": 67, "velocity": 107, "time": 0, "type": "NormalMsg"}, "M_1907": {"note_status": 1, "channel": 0, "note": 67, "velocity": 0, "time": 0, "type": "NormalMsg"}, "M_1908": {"note_status": 1, "channel": 0, "note": 67, "velocity": 101, "time": 0, "type": "NormalMsg"}, "M_1909": {"note_status": 1, "channel": 0, "note": 67, "velocity": 0, "time": 0, "type": "NormalMsg"}, "M_1910": {"note_status": 1, "channel": 0, "note": 65, "velocity": 89, "time": 0, "type": "NormalMsg"}, "M_1911": {"note_status": 1, "channel": 0, "note": 65, "velocity": 0, "time": 0, "type": "NormalMsg"}, "M_1912": {"note_status": 1, "channel": 0, "note": 67, "velocity": 101, "time": 0, "type": "NormalMsg"}, "M_1913": {"note_status": 1, "channel": 0, "note": 67, "velocity": 0, "time": 0, "type": "NormalMsg"}, "M_1914": {"note_status": 1, "channel": 0, "note": 69, "velocity": 107, "time": 0, "type": "NormalMsg"}, "M_1915": {"note_status": 1, "channel": 0, "note": 69, "velocity": 0, "time": 0, "type": "NormalMsg"}, "M_1916": {"note_status": 1, "channel": 0, "note": 69, "velocity": 107, "time": 0, "type": "NormalMsg"}, "M_1917": {"note_status": 1, "channel": 0, "note": 69, "velocity": 0, "time": 0, "type": "NormalMsg"}, "M_1918": {"note_status": 1, "channel": 0, "note": 69, "velocity": 89, "time": 0, "type": "NormalMsg"}, "M_1919": {"note_status": 1, "channel": 0, "note": 69, "velocity": 0, "time": 0, "type": "NormalMsg"}, "M_1920": {"note_status": 1, "channel": 0, "note": 69, "velocity": 107, "time": 0, "type": "NormalMsg"}, "M_1921": {"note_status": 1, "channel": 0, "note": 69, "velocity": 0, "time": 0, "type": "NormalMsg"}, "M_1922": {"note_status": 1, "channel": 0, "note": 69, "velocity": 93, "time": 0, "type": "NormalMsg"}, "M_1923": {"note_status": 1, "channel": 0, "note": 69, "velocity": 0, "time": 0, "type": "NormalMsg"}, "M_1924": {"note_status": 1, "channel": 0, "note": 67, "velocity": 101, "time": 0, "type": "NormalMsg"}, "M_1925": {"note_status": 1, "channel": 0, "note": 67, "velocity": 0, "time": 0, "type": "NormalMsg"}, "M_1926": {"note_status": 1, "channel": 0, "note": 65, "velocity": 107, "time": 0, "type": "NormalMsg"}, "M_1927": {"note_status": 1, "channel": 0, "note": 65, "velocity": 0, "time": 0, "type": "NormalMsg"}, "M_1928": {"note_status": 1, "channel": 0, "note": 65, "velocity": 107, "time": 0, "type": "NormalMsg"}, "M_1929": {"note_status": 1, "channel": 0, "note": 65, "velocity": 0, "time": 0, "type": "NormalMsg"}, "M_1930": {"note_status": 1, "channel": 0, "note": 65, "velocity": 77, "time": 0, "type": "NormalMsg"}, "M_1931": {"note_status": 1, "channel": 0, "note": 65, "velocity": 0, "time": 0, "type": "NormalMsg"}, "M_1932": {"note_status": 1, "channel": 0, "note": 65, "velocity": 107, "time": 0, "type": "NormalMsg"}, "M_1933": {"note_status": 1, "channel": 0, "note": 65, "velocity": 0, "time": 0, "type": "NormalMsg"}, "M_1934": {"note_status": 1, "channel": 0, "note": 65, "velocity": 105, "time": 0, "type": "NormalMsg"}, "M_1935": {"note_status": 1, "channel": 0, "note": 65, "velocity": 0, "time": 0, "type": "NormalMsg"}, "M_1936": {"note_status": 1, "channel": 0, "note": 65, "velocity": 107, "time": 0, "type": "NormalMsg"}, "M_1937": {"note_status": 1, "channel": 0, "note": 65, "velocity": 0, "time": 0, "type": "NormalMsg"}, "M_1938": {"note_status": 1, "channel": 0, "note": 65, "velocity": 101, "time": 0, "type": "NormalMsg"}, "M_1939": {"note_status": 1, "channel": 0, "note": 65, "velocity": 0, "time": 0, "type": "NormalMsg"}, "M_1940": {"note_status": 1, "channel": 0, "note": 65, "velocity": 89, "time": 0, "type": "NormalMsg"}, "M_1941": {"note_status": 1, "channel": 0, "note": 65, "velocity": 0, "time": 0, "type": "NormalMsg"}, "M_1942": {"note_status": 1, "channel": 0, "note": 64, "velocity": 101, "time": 0, "type": "NormalMsg"}, "M_1943": {"note_status": 1, "channel": 0, "note": 64, "velocity": 0, "time": 0, "type": "NormalMsg"}, "M_1944": {"note_status": 1, "channel": 0, "note": 62, "velocity": 107, "time": 0, "type": "NormalMsg"}, "M_1945": {"note_status": 1, "channel": 0, "note": 62, "velocity": 0, "time": 0, "type": "NormalMsg"}, "M_1946": {"note_status": 1, "channel": 0, "note": 62, "velocity": 107, "time": 0, "type": "NormalMsg"}, "M_1947": {"note_status": 1, "channel": 0, "note": 62, "velocity": 0, "time": 0, "type": "NormalMsg"}, "M_1948": {"note_status": 1, "channel": 0, "note": 62, "velocity": 89, "time": 0, "type": "NormalMsg"}, "M_1949": {"note_status": 1, "channel": 0, "note": 62, "velocity": 0, "time": 0, "type": "NormalMsg"}, "M_1950": {"note_status": 1, "channel": 0, "note": 62, "velocity": 107, "time": 0, "type": "NormalMsg"}, "M_1951": {"note_status": 1, "channel": 0, "note": 62, "velocity": 0, "time": 0, "type": "NormalMsg"}, "M_1952": {"note_status": 1, "channel": 0, "note": 65, "velocity": 93, "time": 0, "type": "NormalMsg"}, "M_1953": {"note_status": 1, "channel": 0, "note": 65, "velocity": 0, "time": 0, "type": "NormalMsg"}, "M_1954": {"note_status": 1, "channel": 0, "note": 62, "velocity": 101, "time": 0, "type": "NormalMsg"}, "M_1955": {"note_status": 1, "channel": 0, "note": 62, "velocity": 0, "time": 0, "type": "NormalMsg"}, "M_1956": {"note_status": 1, "channel": 0, "note": 67, "velocity": 107, "time": 0, "type": "NormalMsg"}, "M_1957": {"note_status": 1, "channel": 0, "note": 67, "velocity": 0, "time": 0, "type": "NormalMsg"}, "M_1958": {"note_status": 1, "channel": 0, "note": 67, "velocity": 107, "time": 0, "type": "NormalMsg"}, "M_1959": {"note_status": 1, "channel": 0, "note": 67, "velocity": 0, "time": 0, "type": "NormalMsg"}, "M_1960": {"note_status": 1, "channel": 0, "note": 67, "velocity": 77, "time": 0, "type": "NormalMsg"}, "M_1961": {"note_status": 1, "channel": 0, "note": 67, "velocity": 0, "time": 0, "type": "NormalMsg"}, "M_1962": {"note_status": 1, "channel": 0, "note": 67, "velocity": 107, "time": 0, "type": "NormalMsg"}, "M_1963": {"note_status": 1, "channel": 0, "note": 67, "velocity": 0, "time": 0, "type": "NormalMsg"}, "M_1964": {"note_status": 1, "channel": 0, "note": 67, "velocity": 105, "time": 0, "type": "NormalMsg"}, "M_1965": {"note_status": 1, "channel": 0, "note": 67, "velocity": 0, "time": 0, "type": "NormalMsg"}, "M_1966": {"note_status": 1, "channel": 0, "note": 67, "velocity": 107, "time": 0, "type": "NormalMsg"}, "M_1967": {"note_status": 1, "channel": 0, "note": 67, "velocity": 0, "time": 0, "type": "NormalMsg"}, "M_1968": {"note_status": 1, "channel": 0, "note": 67, "velocity": 101, "time": 0, "type": "NormalMsg"}, "M_1969": {"note_status": 1, "channel": 0, "note": 67, "velocity": 0, "time": 0, "type": "NormalMsg"}, "M_1970": {"note_status": 1, "channel": 0, "note": 65, "velocity": 89, "time": 0, "type": "NormalMsg"}, "M_1971": {"note_status": 1, "channel": 0, "note": 65, "velocity": 0, "time": 0, "type": "NormalMsg"}, "M_1972": {"note_status": 1, "channel": 0, "note": 67, "velocity": 101, "time": 0, "type": "NormalMsg"}, "M_1973": {"note_status": 1, "channel": 0, "note": 67, "velocity": 0, "time": 0, "type": "NormalMsg"}, "R_1974": {"note_status": 0, "channel": 0, "note": 0, "velocity": 0, "time": 0, "type": "ResetMsg"}, "R_1975": {"note_status": 0, "channel": 0, "note": 0, "velocity": 0, "time": 0, "type": "ResetMsg"}, "U_1976": {"note_status": 0, "channel": 0, "note": 0, "velocity": 0, "time": 0, "type": "DummyType"}, "M_1977": {"note_status": 1, "channel": 1, "note": 57, "velocity": 107, "time": 0, "type": "NormalMsg"}, "M_1978": {"note_status": 1, "channel": 1, "note": 57, "velocity": 0, "time": 0, "type": "NormalMsg"}, "M_1979": {"note_status": 1, "channel": 1, "note": 57, "velocity": 107, "time": 0, "type": "NormalMsg"}, "M_1980": {"note_status": 1, "channel": 1, "note": 57, "velocity": 0, "time": 0, "type": "NormalMsg"}, "M_1981": {"note_status": 1, "channel": 1, "note": 57, "velocity": 97, "time": 0, "type": "NormalMsg"}, "M_1982": {"note_status": 1, "channel": 1, "note": 57, "velocity": 0, "time": 0, "type": "NormalMsg"}, "M_1983": {"note_status": 1, "channel": 1, "note": 57, "velocity": 107, "time": 0, "type": "NormalMsg"}, "M_1984": {"note_status": 1, "channel": 1, "note": 57, "velocity": 0, "time": 0, "type": "NormalMsg"}, "M_1985": {"note_status": 1, "channel": 1, "note": 57, "velocity": 101, "time": 0, "type": "NormalMsg"}, "M_1986": {"note_status": 1, "channel": 1, "note": 57, "velocity": 0, "time": 0, "type": "NormalMsg"}, "M_1987": {"note_status": 1, "channel": 1, "note": 55, "velocity": 107, "time": 0, "type": "NormalMsg"}, "M_1988": {"note_status": 1, "channel": 1, "note": 55, "velocity": 0, "time": 0, "type": "NormalMsg"}, "M_1989": {"note_status": 1, "channel": 1, "note": 53, "velocity": 107, "time": 0, "type": "NormalMsg"}, "M_1990": {"note_status": 1, "channel": 1, "note": 53, "velocity": 0, "time": 0, "type": "NormalMsg"}, "M_1991": {"note_status": 1, "channel": 1, "note": 53, "velocity": 107, "time": 0, "type": "NormalMsg"}, "M_1992": {"note_status": 1, "channel": 1, "note": 53, "velocity": 0, "time": 0, "type": "NormalMsg"}, "M_1993": {"note_status": 1, "channel": 1, "note": 53, "velocity": 85, "time": 0, "type": "NormalMsg"}, "M_1994": {"note_status": 1, "channel": 1, "note": 53, "velocity": 0, "time": 0, "type": "NormalMsg"}, "M_1995": {"note_status": 1, "channel": 1, "note": 53, "velocity": 107, "time": 0, "type": "NormalMsg"}, "M_1996": {"note_status": 1, "channel": 1, "note": 53, "velocity": 0, "time": 0, "type": "NormalMsg"}, "M_1997": {"note_status": 1, "channel": 1, "note": 53, "velocity": 107, "time": 0, "type": "NormalMsg"}, "M_1998": {"note_status": 1, "channel": 1, "note": 53, "velocity": 0, "time": 0, "type": "NormalMsg"}, "M_1999": {"note_status": 1, "channel": 1, "note": 53, "velocity": 107, "time": 0, "type": "NormalMsg"}, "M_2000": {"note_status": 1, "channel": 1, "note": 53, "velocity": 0, "time": 0, "type": "NormalMsg"}, "M_2001": {"note_status": 1, "channel": 1, "note": 53, "velocity": 107, "time": 0, "type": "NormalMsg"}, "M_2002": {"note_status": 1, "channel": 1, "note": 53, "velocity": 0, "time": 0, "type": "NormalMsg"}, "M_2003": {"note_status": 1, "channel": 1, "note": 53, "velocity": 97, "time": 0, "type": "NormalMsg"}, "M_2004": {"note_status": 1, "channel": 1, "note": 53, "velocity": 0, "time": 0, "type": "NormalMsg"}, "M_2005": {"note_status": 1, "channel": 1, "note": 52, "velocity": 107, "time": 0, "type": "NormalMsg"}, "M_2006": {"note_status": 1, "channel": 1, "note": 52, "velocity": 0, "time": 0, "type": "NormalMsg"}, "M_2007": {"note_status": 1, "channel": 1, "note": 50, "velocity": 107, "time": 0, "type": "NormalMsg"}, "M_2008": {"note_status": 1, "channel": 1, "note": 50, "velocity": 0, "time": 0, "type": "NormalMsg"}, "M_2009": {"note_status": 1, "channel": 1, "note": 50, "velocity": 107, "time": 0, "type": "NormalMsg"}, "M_2010": {"note_status": 1, "channel": 1, "note": 50, "velocity": 0, "time": 0, "type": "NormalMsg"}, "M_2011": {"note_status": 1, "channel": 1, "note": 50, "velocity": 97, "time": 0, "type": "NormalMsg"}, "M_2012": {"note_status": 1, "channel": 1, "note": 50, "velocity": 0, "time": 0, "type": "NormalMsg"}, "M_2013": {"note_status": 1, "channel": 1, "note": 50, "velocity": 107, "time": 0, "type": "NormalMsg"}, "M_2014": {"note_status": 1, "channel": 1, "note": 50, "velocity": 0, "time": 0, "type": "NormalMsg"}, "M_2015": {"note_status": 1, "channel": 1, "note": 53, "velocity": 101, "time": 0, "type": "NormalMsg"}, "M_2016": {"note_status": 1, "channel": 1, "note": 53, "velocity": 0, "time": 0, "type": "NormalMsg"}, "M_2017": {"note_status": 1, "channel": 1, "note": 50, "velocity": 107, "time": 0, "type": "NormalMsg"}, "M_2018": {"note_status": 1, "channel": 1, "note": 50, "velocity": 0, "time": 0, "type": "NormalMsg"}, "M_2019": {"note_status": 1, "channel": 1, "note": 55, "velocity": 107, "time": 0, "type": "NormalMsg"}, "M_2020": {"note_status": 1, "channel": 1, "note": 55, "velocity": 0, "time": 0, "type": "NormalMsg"}, "M_2021": {"note_status": 1, "channel": 1, "note": 55, "velocity": 107, "time": 0, "type": "NormalMsg"}, "M_2022": {"note_status": 1, "channel": 1, "note": 55, "velocity": 0, "time": 0, "type": "NormalMsg"}, "M_2023": {"note_status": 1, "channel": 1, "note": 55, "velocity": 85, "time": 0, "type": "NormalMsg"}, "M_2024": {"note_status": 1, "channel": 1, "note": 55, "velocity": 0, "time": 0, "type": "NormalMsg"}, "M_2025": {"note_status": 1, "channel": 1, "note": 55, "velocity": 107, "time": 0, "type": "NormalMsg"}, "M_2026": {"note_status": 1, "channel": 1, "note": 55, "velocity": 0, "time": 0, "type": "NormalMsg"}, "M_2027": {"note_status": 1, "channel": 1, "note": 55, "velocity": 107, "time": 0, "type": "NormalMsg"}, "M_2028": {"note_status": 1, "channel": 1, "note": 55, "velocity": 0, "time": 0, "type": "NormalMsg"}, "M_2029": {"note_status": 1, "channel": 1, "note": 55, "velocity": 107, "time": 0, "type": "NormalMsg"}, "M_2030": {"note_status": 1, "channel": 1, "note": 55, "velocity": 0, "time": 0, "type": "NormalMsg"}, "M_2031": {"note_status": 1, "channel": 1, "note": 55, "velocity": 107, "time": 0, "type": "NormalMsg"}, "M_2032": {"note_status": 1, "channel": 1, "note": 55, "velocity": 0, "time": 0, "type": "NormalMsg"}, "M_2033": {"note_status": 1, "channel": 1, "note": 53, "velocity": 97, "time": 0, "type": "NormalMsg"}, "M_2034": {"note_status": 1, "channel": 1, "note": 53, "velocity": 0, "time": 0, "type": "NormalMsg"}, "M_2035": {"note_status": 1, "channel": 1, "note": 55, "velocity": 107, "time": 0, "type": "NormalMsg"}, "M_2036": {"note_status": 1, "channel": 1, "note": 55, "velocity": 0, "time": 0, "type": "NormalMsg"}, "M_2037": {"note_status": 1, "channel": 1, "note": 57, "velocity": 107, "time": 0, "type": "NormalMsg"}, "M_2038": {"note_status": 1, "channel": 1, "note": 57, "velocity": 0, "time": 0, "type": "NormalMsg"}, "M_2039": {"note_status": 1, "channel": 1, "note": 57, "velocity": 107, "time": 0, "type": "NormalMsg"}, "M_2040": {"note_status": 1, "channel": 1, "note": 57, "velocity": 0, "time": 0, "type": "NormalMsg"}, "M_2041": {"note_status": 1, "channel": 1, "note": 57, "velocity": 97, "time": 0, "type": "NormalMsg"}, "M_2042": {"note_status": 1, "channel": 1, "note": 57, "velocity": 0, "time": 0, "type": "NormalMsg"}, "M_2043": {"note_status": 1, "channel": 1, "note": 57, "velocity": 107, "time": 0, "type": "NormalMsg"}, "M_2044": {"note_status": 1, "channel": 1, "note": 57, "velocity": 0, "time": 0, "type": "NormalMsg"}, "M_2045": {"note_status": 1, "channel": 1, "note": 57, "velocity": 101, "time": 0, "type": "NormalMsg"}, "M_2046": {"note_status": 1, "channel": 1, "note": 57, "velocity": 0, "time": 0, "type": "NormalMsg"}, "M_2047": {"note_status": 1, "channel": 1, "note": 55, "velocity": 107, "time": 0, "type": "NormalMsg"}, "M_2048": {"note_status": 1, "channel": 1, "note": 55, "velocity": 0, "time": 0, "type": "NormalMsg"}, "M_2049": {"note_status": 1, "channel": 1, "note": 53, "velocity": 107, "time": 0, "type": "NormalMsg"}, "M_2050": {"note_status": 1, "channel": 1, "note": 53, "velocity": 0, "time": 0, "type": "NormalMsg"}, "M_2051": {"note_status": 1, "channel": 1, "note": 53, "velocity": 107, "time": 0, "type": "NormalMsg"}, "M_2052": {"note_status": 1, "channel": 1, "note": 53, "velocity": 0, "time": 0, "type": "NormalMsg"}, "M_2053": {"note_status": 1, "channel": 1, "note": 53, "velocity": 85, "time": 0, "type": "NormalMsg"}, "M_2054": {"note_status": 1, "channel": 1, "note": 53, "velocity": 0, "time": 0, "type": "NormalMsg"}, "M_2055": {"note_status": 1, "channel": 1, "note": 53, "velocity": 107, "time": 0, "type": "NormalMsg"}, "M_2056": {"note_status": 1, "channel": 1, "note": 53, "velocity": 0, "time": 0, "type": "NormalMsg"}, "M_2057": {"note_status": 1, "channel": 1, "note": 53, "velocity": 107, "time": 0, "type": "NormalMsg"}, "M_2058": {"note_status": 1, "channel": 1, "note": 53, "velocity": 0, "time": 0, "type": "NormalMsg"}, "M_2059": {"note_status": 1, "channel": 1, "note": 53, "velocity": 107, "time": 0, "type": "NormalMsg"}, "M_2060": {"note_status": 1, "channel": 1, "note": 53, "velocity": 0, "time": 0, "type": "NormalMsg"}, "M_2061": {"note_status": 1, "channel": 1, "note": 53, "velocity": 107, "time": 0, "type": "NormalMsg"}, "M_2062": {"note_status": 1, "channel": 1, "note": 53, "velocity": 0, "time": 0, "type": "NormalMsg"}, "M_2063": {"note_status": 1, "channel": 1, "note": 53, "velocity": 97, "time": 0, "type": "NormalMsg"}, "M_2064": {"note_status": 1, "channel": 1, "note": 53, "velocity": 0, "time": 0, "type": "NormalMsg"}, "M_2065": {"note_status": 1, "channel": 1, "note": 52, "velocity": 107, "time": 0, "type": "NormalMsg"}, "M_2066": {"note_status": 1, "channel": 1, "note": 52, "velocity": 0, "time": 0, "type": "NormalMsg"}, "M_2067": {"note_status": 1, "channel": 1, "note": 50, "velocity": 107, "time": 0, "type": "NormalMsg"}, "M_2068": {"note_status": 1, "channel": 1, "note": 50, "velocity": 0, "time": 0, "type": "NormalMsg"}, "M_2069": {"note_status": 1, "channel": 1, "note": 50, "velocity": 107, "time": 0, "type": "NormalMsg"}, "M_2070": {"note_status": 1, "channel": 1, "note": 50, "velocity": 0, "time": 0, "type": "NormalMsg"}, "M_2071": {"note_status": 1, "channel": 1, "note": 50, "velocity": 97, "time": 0, "type": "NormalMsg"}, "M_2072": {"note_status": 1, "channel": 1, "note": 50, "velocity": 0, "time": 0, "type": "NormalMsg"}, "M_2073": {"note_status": 1, "channel": 1, "note": 50, "velocity": 107, "time": 0, "type": "NormalMsg"}, "M_2074": {"note_status": 1, "channel": 1, "note": 50, "velocity": 0, "time": 0, "type": "NormalMsg"}, "M_2075": {"note_status": 1, "channel": 1, "note": 53, "velocity": 101, "time": 0, "type": "NormalMsg"}, "M_2076": {"note_status": 1, "channel": 1, "note": 53, "velocity": 0, "time": 0, "type": "NormalMsg"}, "M_2077": {"note_status": 1, "channel": 1, "note": 50, "velocity": 107, "time": 0, "type": "NormalMsg"}, "M_2078": {"note_status": 1, "channel": 1, "note": 50, "velocity": 0, "time": 0, "type": "NormalMsg"}, "M_2079": {"note_status": 1, "channel": 1, "note": 55, "velocity": 107, "time": 0, "type": "NormalMsg"}, "M_2080": {"note_status": 1, "channel": 1, "note": 55, "velocity": 0, "time": 0, "type": "NormalMsg"}, "M_2081": {"note_status": 1, "channel": 1, "note": 55, "velocity": 107, "time": 0, "type": "NormalMsg"}, "M_2082": {"note_status": 1, "channel": 1, "note": 55, "velocity": 0, "time": 0, "type": "NormalMsg"}, "M_2083": {"note_status": 1, "channel": 1, "note": 55, "velocity": 85, "time": 0, "type": "NormalMsg"}, "M_2084": {"note_status": 1, "channel": 1, "note": 55, "velocity": 0, "time": 0, "type": "NormalMsg"}, "M_2085": {"note_status": 1, "channel": 1, "note": 55, "velocity": 107, "time": 0, "type": "NormalMsg"}, "M_2086": {"note_status": 1, "channel": 1, "note": 55, "velocity": 0, "time": 0, "type": "NormalMsg"}, "M_2087": {"note_status": 1, "channel": 1, "note": 55, "velocity": 107, "time": 0, "type": "NormalMsg"}, "M_2088": {"note_status": 1, "channel": 1, "note": 55, "velocity": 0, "time": 0, "type": "NormalMsg"}, "M_2089": {"note_status": 1, "channel": 1, "note": 55, "velocity": 107, "time": 0, "type": "NormalMsg"}, "M_2090": {"note_status": 1, "channel": 1, "note": 55, "velocity": 0, "time": 0, "type": "NormalMsg"}, "M_2091": {"note_status": 1, "channel": 1, "note": 55, "velocity": 107, "time": 0, "type": "NormalMsg"}, "M_2092": {"note_status": 1, "channel": 1, "note": 55, "velocity": 0, "time": 0, "type": "NormalMsg"}, "M_2093": {"note_status": 1, "channel": 1, "note": 53, "velocity": 97, "time": 0, "type": "NormalMsg"}, "M_2094": {"note_status": 1, "channel": 1, "note": 53, "velocity": 0, "time": 0, "type": "NormalMsg"}, "M_2095": {"note_status": 1, "channel": 1, "note": 55, "velocity": 107, "time": 0, "type": "NormalMsg"}, "M_2096": {"note_status": 1, "channel": 1, "note": 55, "velocity": 0, "time": 0, "type": "NormalMsg"}, "M_2097": {"note_status": 1, "channel": 1, "note": 57, "velocity": 107, "time": 0, "type": "NormalMsg"}, "M_2098": {"note_status": 1, "channel": 1, "note": 57, "velocity": 0, "time": 0, "type": "NormalMsg"}, "M_2099": {"note_status": 1, "channel": 1, "note": 57, "velocity": 107, "time": 0, "type": "NormalMsg"}, "M_2100": {"note_status": 1, "channel": 1, "note": 57, "velocity": 0, "time": 0, "type": "NormalMsg"}, "M_2101": {"note_status": 1, "channel": 1, "note": 57, "velocity": 97, "time": 0, "type": "NormalMsg"}, "M_2102": {"note_status": 1, "channel": 1, "note": 57, "velocity": 0, "time": 0, "type": "NormalMsg"}, "M_2103": {"note_status": 1, "channel": 1, "note": 57, "velocity": 107, "time": 0, "type": "NormalMsg"}, "M_2104": {"note_status": 1, "channel": 1, "note": 57, "velocity": 0, "time": 0, "type": "NormalMsg"}, "M_2105": {"note_status": 1, "channel": 1, "note": 57, "velocity": 101, "time": 0, "type": "NormalMsg"}, "M_2106": {"note_status": 1, "channel": 1, "note": 57, "velocity": 0, "time": 0, "type": "NormalMsg"}, "M_2107": {"note_status": 1, "channel": 1, "note": 55, "velocity": 107, "time": 0, "type": "NormalMsg"}, "M_2108": {"note_status": 1, "channel": 1, "note": 55, "velocity": 0, "time": 0, "type": "NormalMsg"}, "M_2109": {"note_status": 1, "channel": 1, "note": 53, "velocity": 107, "time": 0, "type": "NormalMsg"}, "M_2110": {"note_status": 1, "channel": 1, "note": 53, "velocity": 0, "time": 0, "type": "NormalMsg"}, "M_2111": {"note_status": 1, "channel": 1, "note": 53, "velocity": 107, "time": 0, "type": "NormalMsg"}, "M_2112": {"note_status": 1, "channel": 1, "note": 53, "velocity": 0, "time": 0, "type": "NormalMsg"}, "M_2113": {"note_status": 1, "channel": 1, "note": 53, "velocity": 85, "time": 0, "type": "NormalMsg"}, "M_2114": {"note_status": 1, "channel": 1, "note": 53, "velocity": 0, "time": 0, "type": "NormalMsg"}, "M_2115": {"note_status": 1, "channel": 1, "note": 53, "velocity": 107, "time": 0, "type": "NormalMsg"}, "M_2116": {"note_status": 1, "channel": 1, "note": 53, "velocity": 0, "time": 0, "type": "NormalMsg"}, "M_2117": {"note_status": 1, "channel": 1, "note": 53, "velocity": 107, "time": 0, "type": "NormalMsg"}, "M_2118": {"note_status": 1, "channel": 1, "note": 53, "velocity": 0, "time": 0, "type": "NormalMsg"}, "M_2119": {"note_status": 1, "channel": 1, "note": 53, "velocity": 107, "time": 0, "type": "NormalMsg"}, "M_2120": {"note_status": 1, "channel": 1, "note": 53, "velocity": 0, "time": 0, "type": "NormalMsg"}, "M_2121": {"note_status": 1, "channel": 1, "note": 53, "velocity": 107, "time": 0, "type": "NormalMsg"}, "M_2122": {"note_status": 1, "channel": 1, "note": 53, "velocity": 0, "time": 0, "type": "NormalMsg"}, "M_2123": {"note_status": 1, "channel": 1, "note": 53, "velocity": 97, "time": 0, "type": "NormalMsg"}, "M_2124": {"note_status": 1, "channel": 1, "note": 53, "velocity": 0, "time": 0, "type": "NormalMsg"}, "M_2125": {"note_status": 1, "channel": 1, "note": 52, "velocity": 107, "time": 0, "type": "NormalMsg"}, "M_2126": {"note_status": 1, "channel": 1, "note": 52, "velocity": 0, "time": 0, "type": "NormalMsg"}, "M_2127": {"note_status": 1, "channel": 1, "note": 50, "velocity": 107, "time": 0, "type": "NormalMsg"}, "M_2128": {"note_status": 1, "channel": 1, "note": 50, "velocity": 0, "time": 0, "type": "NormalMsg"}, "M_2129": {"note_status": 1, "channel": 1, "note": 50, "velocity": 107, "time": 0, "type": "NormalMsg"}, "M_2130": {"note_status": 1, "channel": 1, "note": 50, "velocity": 0, "time": 0, "type": "NormalMsg"}, "M_2131": {"note_status": 1, "channel": 1, "note": 50, "velocity": 97, "time": 0, "type": "NormalMsg"}, "M_2132": {"note_status": 1, "channel": 1, "note": 50, "velocity": 0, "time": 0, "type": "NormalMsg"}, "M_2133": {"note_status": 1, "channel": 1, "note": 50, "velocity": 107, "time": 0, "type": "NormalMsg"}, "M_2134": {"note_status": 1, "channel": 1, "note": 50, "velocity": 0, "time": 0, "type": "NormalMsg"}, "M_2135": {"note_status": 1, "channel": 1, "note": 53, "velocity": 101, "time": 0, "type": "NormalMsg"}, "M_2136": {"note_status": 1, "channel": 1, "note": 53, "velocity": 0, "time": 0, "type": "NormalMsg"}, "M_2137": {"note_status": 1, "channel": 1, "note": 50, "velocity": 107, "time": 0, "type": "NormalMsg"}, "M_2138": {"note_status": 1, "channel": 1, "note": 50, "velocity": 0, "time": 0, "type": "NormalMsg"}, "M_2139": {"note_status": 1, "channel": 1, "note": 55, "velocity": 107, "time": 0, "type": "NormalMsg"}, "M_2140": {"note_status": 1, "channel": 1, "note": 55, "velocity": 0, "time": 0, "type": "NormalMsg"}, "M_2141": {"note_status": 1, "channel": 1, "note": 55, "velocity": 107, "time": 0, "type": "NormalMsg"}, "M_2142": {"note_status": 1, "channel": 1, "note": 55, "velocity": 0, "time": 0, "type": "NormalMsg"}, "M_2143": {"note_status": 1, "channel": 1, "note": 55, "velocity": 85, "time": 0, "type": "NormalMsg"}, "M_2144": {"note_status": 1, "channel": 1, "note": 55, "velocity": 0, "time": 0, "type": "NormalMsg"}, "M_2145": {"note_status": 1, "channel": 1, "note": 55, "velocity": 107, "time": 0, "type": "NormalMsg"}, "M_2146": {"note_status": 1, "channel": 1, "note": 55, "velocity": 0, "time": 0, "type": "NormalMsg"}, "M_2147": {"note_status": 1, "channel": 1, "note": 55, "velocity": 107, "time": 0, "type": "NormalMsg"}, "M_2148": {"note_status": 1, "channel": 1, "note": 55, "velocity": 0, "time": 0, "type": "NormalMsg"}, "M_2149": {"note_status": 1, "channel": 1, "note": 55, "velocity": 107, "time": 0, "type": "NormalMsg"}, "M_2150": {"note_status": 1, "channel": 1, "note": 55, "velocity": 0, "time": 0, "type": "NormalMsg"}, "M_2151": {"note_status": 1, "channel": 1, "note": 55, "velocity": 107, "time": 0, "type": "NormalMsg"}, "M_2152": {"note_status": 1, "channel": 1, "note": 55, "velocity": 0, "time": 0, "type": "NormalMsg"}, "M_2153": {"note_status": 1, "channel": 1, "note": 53, "velocity": 97, "time": 0, "type": "NormalMsg"}, "M_2154": {"note_status": 1, "channel": 1, "note": 53, "velocity": 0, "time": 0, "type": "NormalMsg"}, "M_2155": {"note_status": 1, "channel": 1, "note": 55, "velocity": 107, "time": 0, "type": "NormalMsg"}, "M_2156": {"note_status": 1, "channel": 1, "note": 55, "velocity": 0, "time": 0, "type": "NormalMsg"}, "M_2157": {"note_status": 1, "channel": 1, "note": 57, "velocity": 107, "time": 0, "type": "NormalMsg"}, "M_2158": {"note_status": 1, "channel": 1, "note": 57, "velocity": 0, "time": 0, "type": "NormalMsg"}, "M_2159": {"note_status": 1, "channel": 1, "note": 57, "velocity": 107, "time": 0, "type": "NormalMsg"}, "M_2160": {"note_status": 1, "channel": 1, "note": 57, "velocity": 0, "time": 0, "type": "NormalMsg"}, "M_2161": {"note_status": 1, "channel": 1, "note": 57, "velocity": 97, "time": 0, "type": "NormalMsg"}, "M_2162": {"note_status": 1, "channel": 1, "note": 57, "velocity": 0, "time": 0, "type": "NormalMsg"}, "M_2163": {"note_status": 1, "channel": 1, "note": 57, "velocity": 107, "time": 0, "type": "NormalMsg"}, "M_2164": {"note_status": 1, "channel": 1, "note": 57, "velocity": 0, "time": 0, "type": "NormalMsg"}, "M_2165": {"note_status": 1, "channel": 1, "note": 57, "velocity": 101, "time": 0, "type": "NormalMsg"}, "M_2166": {"note_status": 1, "channel": 1, "note": 57, "velocity": 0, "time": 0, "type": "NormalMsg"}, "M_2167": {"note_status": 1, "channel": 1, "note": 55, "velocity": 107, "time": 0, "type": "NormalMsg"}, "M_2168": {"note_status": 1, "channel": 1, "note": 55, "velocity": 0, "time": 0, "type": "NormalMsg"}, "M_2169": {"note_status": 1, "channel": 1, "note": 53, "velocity": 107, "time": 0, "type": "NormalMsg"}, "M_2170": {"note_status": 1, "channel": 1, "note": 53, "velocity": 0, "time": 0, "type": "NormalMsg"}, "M_2171": {"note_status": 1, "channel": 1, "note": 53, "velocity": 107, "time": 0, "type": "NormalMsg"}, "M_2172": {"note_status": 1, "channel": 1, "note": 53, "velocity": 0, "time": 0, "type": "NormalMsg"}, "M_2173": {"note_status": 1, "channel": 1, "note": 53, "velocity": 85, "time": 0, "type": "NormalMsg"}, "M_2174": {"note_status": 1, "channel": 1, "note": 53, "velocity": 0, "time": 0, "type": "NormalMsg"}, "M_2175": {"note_status": 1, "channel": 1, "note": 53, "velocity": 107, "time": 0, "type": "NormalMsg"}, "M_2176": {"note_status": 1, "channel": 1, "note": 53, "velocity": 0, "time": 0, "type": "NormalMsg"}, "M_2177": {"note_status": 1, "channel": 1, "note": 53, "velocity": 107, "time": 0, "type": "NormalMsg"}, "M_2178": {"note_status": 1, "channel": 1, "note": 53, "velocity": 0, "time": 0, "type": "NormalMsg"}, "M_2179": {"note_status": 1, "channel": 1, "note": 53, "velocity": 107, "time": 0, "type": "NormalMsg"}, "M_2180": {"note_status": 1, "channel": 1, "note": 53, "velocity": 0, "time": 0, "type": "NormalMsg"}, "M_2181": {"note_status": 1, "channel": 1, "note": 53, "velocity": 107, "time": 0, "type": "NormalMsg"}, "M_2182": {"note_status": 1, "channel": 1, "note": 53, "velocity": 0, "time": 0, "type": "NormalMsg"}, "M_2183": {"note_status": 1, "channel": 1, "note": 53, "velocity": 97, "time": 0, "type": "NormalMsg"}, "M_2184": {"note_status": 1, "channel": 1, "note": 53, "velocity": 0, "time": 0, "type": "NormalMsg"}, "M_2185": {"note_status": 1, "channel": 1, "note": 52, "velocity": 107, "time": 0, "type": "NormalMsg"}, "M_2186": {"note_status": 1, "channel": 1, "note": 52, "velocity": 0, "time": 0, "type": "NormalMsg"}, "M_2187": {"note_status": 1, "channel": 1, "note": 50, "velocity": 107, "time": 0, "type": "NormalMsg"}, "M_2188": {"note_status": 1, "channel": 1, "note": 50, "velocity": 0, "time": 0, "type": "NormalMsg"}, "M_2189": {"note_status": 1, "channel": 1, "note": 50, "velocity": 107, "time": 0, "type": "NormalMsg"}, "M_2190": {"note_status": 1, "channel": 1, "note": 50, "velocity": 0, "time": 0, "type": "NormalMsg"}, "M_2191": {"note_status": 1, "channel": 1, "note": 50, "velocity": 97, "time": 0, "type": "NormalMsg"}, "M_2192": {"note_status": 1, "channel": 1, "note": 50, "velocity": 0, "time": 0, "type": "NormalMsg"}, "M_2193": {"note_status": 1, "channel": 1, "note": 50, "velocity": 107, "time": 0, "type": "NormalMsg"}, "M_2194": {"note_status": 1, "channel": 1, "note": 50, "velocity": 0, "time": 0, "type": "NormalMsg"}, "M_2195": {"note_status": 1, "channel": 1, "note": 53, "velocity": 101, "time": 0, "type": "NormalMsg"}, "M_2196": {"note_status": 1, "channel": 1, "note": 53, "velocity": 0, "time": 0, "type": "NormalMsg"}, "M_2197": {"note_status": 1, "channel": 1, "note": 50, "velocity": 107, "time": 0, "type": "NormalMsg"}, "M_2198": {"note_status": 1, "channel": 1, "note": 50, "velocity": 0, "time": 0, "type": "NormalMsg"}, "M_2199": {"note_status": 1, "channel": 1, "note": 55, "velocity": 107, "time": 0, "type": "NormalMsg"}, "M_2200": {"note_status": 1, "channel": 1, "note": 55, "velocity": 0, "time": 0, "type": "NormalMsg"}, "M_2201": {"note_status": 1, "channel": 1, "note": 55, "velocity": 107, "time": 0, "type": "NormalMsg"}, "M_2202": {"note_status": 1, "channel": 1, "note": 55, "velocity": 0, "time": 0, "type": "NormalMsg"}, "M_2203": {"note_status": 1, "channel": 1, "note": 55, "velocity": 85, "time": 0, "type": "NormalMsg"}, "M_2204": {"note_status": 1, "channel": 1, "note": 55, "velocity": 0, "time": 0, "type": "NormalMsg"}, "M_2205": {"note_status": 1, "channel": 1, "note": 55, "velocity": 107, "time": 0, "type": "NormalMsg"}, "M_2206": {"note_status": 1, "channel": 1, "note": 55, "velocity": 0, "time": 0, "type": "NormalMsg"}, "M_2207": {"note_status": 1, "channel": 1, "note": 55, "velocity": 107, "time": 0, "type": "NormalMsg"}, "M_2208": {"note_status": 1, "channel": 1, "note": 55, "velocity": 0, "time": 0, "type": "NormalMsg"}, "M_2209": {"note_status": 1, "channel": 1, "note": 55, "velocity": 107, "time": 0, "type": "NormalMsg"}, "M_2210": {"note_status": 1, "channel": 1, "note": 55, "velocity": 0, "time": 0, "type": "NormalMsg"}, "M_2211": {"note_status": 1, "channel": 1, "note": 55, "velocity": 107, "time": 0, "type": "NormalMsg"}, "M_2212": {"note_status": 1, "channel": 1, "note": 55, "velocity": 0, "time": 0, "type": "NormalMsg"}, "M_2213": {"note_status": 1, "channel": 1, "note": 53, "velocity": 97, "time": 0, "type": "NormalMsg"}, "M_2214": {"note_status": 1, "channel": 1, "note": 53, "velocity": 0, "time": 0, "type": "NormalMsg"}, "M_2215": {"note_status": 1, "channel": 1, "note": 55, "velocity": 107, "time": 0, "type": "NormalMsg"}, "M_2216": {"note_status": 1, "channel": 1, "note": 55, "velocity": 0, "time": 0, "type": "NormalMsg"}, "M_2217": {"note_status": 1, "channel": 1, "note": 57, "velocity": 107, "time": 0, "type": "NormalMsg"}, "M_2218": {"note_status": 1, "channel": 1, "note": 57, "velocity": 0, "time": 0, "type": "NormalMsg"}, "M_2219": {"note_status": 1, "channel": 1, "note": 57, "velocity": 107, "time": 0, "type": "NormalMsg"}, "M_2220": {"note_status": 1, "channel": 1, "note": 57, "velocity": 0, "time": 0, "type": "NormalMsg"}, "M_2221": {"note_status": 1, "channel": 1, "note": 57, "velocity": 97, "time": 0, "type": "NormalMsg"}, "M_2222": {"note_status": 1, "channel": 1, "note": 57, "velocity": 0, "time": 0, "type": "NormalMsg"}, "M_2223": {"note_status": 1, "channel": 1, "note": 57, "velocity": 107, "time": 0, "type": "NormalMsg"}, "M_2224": {"note_status": 1, "channel": 1, "note": 57, "velocity": 0, "time": 0, "type": "NormalMsg"}, "M_2225": {"note_status": 1, "channel": 1, "note": 57, "velocity": 101, "time": 0, "type": "NormalMsg"}, "M_2226": {"note_status": 1, "channel": 1, "note": 57, "velocity": 0, "time": 0, "type": "NormalMsg"}, "M_2227": {"note_status": 1, "channel": 1, "note": 55, "velocity": 107, "time": 0, "type": "NormalMsg"}, "M_2228": {"note_status": 1, "channel": 1, "note": 55, "velocity": 0, "time": 0, "type": "NormalMsg"}, "M_2229": {"note_status": 1, "channel": 1, "note": 53, "velocity": 107, "time": 0, "type": "NormalMsg"}, "M_2230": {"note_status": 1, "channel": 1, "note": 53, "velocity": 0, "time": 0, "type": "NormalMsg"}, "M_2231": {"note_status": 1, "channel": 1, "note": 53, "velocity": 107, "time": 0, "type": "NormalMsg"}, "M_2232": {"note_status": 1, "channel": 1, "note": 53, "velocity": 0, "time": 0, "type": "NormalMsg"}, "M_2233": {"note_status": 1, "channel": 1, "note": 53, "velocity": 85, "time": 0, "type": "NormalMsg"}, "M_2234": {"note_status": 1, "channel": 1, "note": 53, "velocity": 0, "time": 0, "type": "NormalMsg"}, "M_2235": {"note_status": 1, "channel": 1, "note": 53, "velocity": 107, "time": 0, "type": "NormalMsg"}, "M_2236": {"note_status": 1, "channel": 1, "note": 53, "velocity": 0, "time": 0, "type": "NormalMsg"}, "M_2237": {"note_status": 1, "channel": 1, "note": 53, "velocity": 107, "time": 0, "type": "NormalMsg"}, "M_2238": {"note_status": 1, "channel": 1, "note": 53, "velocity": 0, "time": 0, "type": "NormalMsg"}, "M_2239": {"note_status": 1, "channel": 1, "note": 53, "velocity": 107, "time": 0, "type": "NormalMsg"}, "M_2240": {"note_status": 1, "channel": 1, "note": 53, "velocity": 0, "time": 0, "type": "NormalMsg"}, "M_2241": {"note_status": 1, "channel": 1, "note": 53, "velocity": 107, "time": 0, "type": "NormalMsg"}, "M_2242": {"note_status": 1, "channel": 1, "note": 53, "velocity": 0, "time": 0, "type": "NormalMsg"}, "M_2243": {"note_status": 1, "channel": 1, "note": 53, "velocity": 97, "time": 0, "type": "NormalMsg"}, "M_2244": {"note_status": 1, "channel": 1, "note": 53, "velocity": 0, "time": 0, "type": "NormalMsg"}, "M_2245": {"note_status": 1, "channel": 1, "note": 52, "velocity": 107, "time": 0, "type": "NormalMsg"}, "M_2246": {"note_status": 1, "channel": 1, "note": 52, "velocity": 0, "time": 0, "type": "NormalMsg"}, "M_2247": {"note_status": 1, "channel": 1, "note": 50, "velocity": 107, "time": 0, "type": "NormalMsg"}, "M_2248": {"note_status": 1, "channel": 1, "note": 50, "velocity": 0, "time": 0, "type": "NormalMsg"}, "M_2249": {"note_status": 1, "channel": 1, "note": 50, "velocity": 107, "time": 0, "type": "NormalMsg"}, "M_2250": {"note_status": 1, "channel": 1, "note": 50, "velocity": 0, "time": 0, "type": "NormalMsg"}, "M_2251": {"note_status": 1, "channel": 1, "note": 50, "velocity": 97, "time": 0, "type": "NormalMsg"}, "M_2252": {"note_status": 1, "channel": 1, "note": 50, "velocity": 0, "time": 0, "type": "NormalMsg"}, "M_2253": {"note_status": 1, "channel": 1, "note": 50, "velocity": 107, "time": 0, "type": "NormalMsg"}, "M_2254": {"note_status": 1, "channel": 1, "note": 50, "velocity": 0, "time": 0, "type": "NormalMsg"}, "M_2255": {"note_status": 1, "channel": 1, "note": 53, "velocity": 101, "time": 0, "type": "NormalMsg"}, "M_2256": {"note_status": 1, "channel": 1, "note": 53, "velocity": 0, "time": 0, "type": "NormalMsg"}, "M_2257": {"note_status": 1, "channel": 1, "note": 50, "velocity": 107, "time": 0, "type": "NormalMsg"}, "M_2258": {"note_status": 1, "channel": 1, "note": 50, "velocity": 0, "time": 0, "type": "NormalMsg"}, "M_2259": {"note_status": 1, "channel": 1, "note": 55, "velocity": 107, "time": 0, "type": "NormalMsg"}, "M_2260": {"note_status": 1, "channel": 1, "note": 55, "velocity": 0, "time": 0, "type": "NormalMsg"}, "M_2261": {"note_status": 1, "channel": 1, "note": 55, "velocity": 107, "time": 0, "type": "NormalMsg"}, "M_2262": {"note_status": 1, "channel": 1, "note": 55, "velocity": 0, "time": 0, "type": "NormalMsg"}, "M_2263": {"note_status": 1, "channel": 1, "note": 55, "velocity": 85, "time": 0, "type": "NormalMsg"}, "M_2264": {"note_status": 1, "channel": 1, "note": 55, "velocity": 0, "time": 0, "type": "NormalMsg"}, "M_2265": {"note_status": 1, "channel": 1, "note": 55, "velocity": 107, "time": 0, "type": "NormalMsg"}, "M_2266": {"note_status": 1, "channel": 1, "note": 55, "velocity": 0, "time": 0, "type": "NormalMsg"}, "M_2267": {"note_status": 1, "channel": 1, "note": 55, "velocity": 107, "time": 0, "type": "NormalMsg"}, "M_2268": {"note_status": 1, "channel": 1, "note": 55, "velocity": 0, "time": 0, "type": "NormalMsg"}, "M_2269": {"note_status": 1, "channel": 1, "note": 55, "velocity": 107, "time": 0, "type": "NormalMsg"}, "M_2270": {"note_status": 1, "channel": 1, "note": 55, "velocity": 0, "time": 0, "type": "NormalMsg"}, "M_2271": {"note_status": 1, "channel": 1, "note": 55, "velocity": 107, "time": 0, "type": "NormalMsg"}, "M_2272": {"note_status": 1, "channel": 1, "note": 55, "velocity": 0, "time": 0, "type": "NormalMsg"}, "M_2273": {"note_status": 1, "channel": 1, "note": 53, "velocity": 97, "time": 0, "type": "NormalMsg"}, "M_2274": {"note_status": 1, "channel": 1, "note": 53, "velocity": 0, "time": 0, "type": "NormalMsg"}, "M_2275": {"note_status": 1, "channel": 1, "note": 55, "velocity": 107, "time": 0, "type": "NormalMsg"}, "M_2276": {"note_status": 1, "channel": 1, "note": 55, "velocity": 0, "time": 0, "type": "NormalMsg"}, "M_2277": {"note_status": 1, "channel": 1, "note": 57, "velocity": 107, "time": 0, "type": "NormalMsg"}, "M_2278": {"note_status": 1, "channel": 1, "note": 57, "velocity": 0, "time": 0, "type": "NormalMsg"}, "M_2279": {"note_status": 1, "channel": 1, "note": 57, "velocity": 107, "time": 0, "type": "NormalMsg"}, "M_2280": {"note_status": 1, "channel": 1, "note": 57, "velocity": 0, "time": 0, "type": "NormalMsg"}, "M_2281": {"note_status": 1, "channel": 1, "note": 57, "velocity": 97, "time": 0, "type": "NormalMsg"}, "M_2282": {"note_status": 1, "channel": 1, "note": 57, "velocity": 0, "time": 0, "type": "NormalMsg"}, "M_2283": {"note_status": 1, "channel": 1, "note": 57, "velocity": 107, "time": 0, "type": "NormalMsg"}, "M_2284": {"note_status": 1, "channel": 1, "note": 57, "velocity": 0, "time": 0, "type": "NormalMsg"}, "M_2285": {"note_status": 1, "channel": 1, "note": 57, "velocity": 101, "time": 0, "type": "NormalMsg"}, "M_2286": {"note_status": 1, "channel": 1, "note": 57, "velocity": 0, "time": 0, "type": "NormalMsg"}, "M_2287": {"note_status": 1, "channel": 1, "note": 55, "velocity": 107, "time": 0, "type": "NormalMsg"}, "M_2288": {"note_status": 1, "channel": 1, "note": 55, "velocity": 0, "time": 0, "type": "NormalMsg"}, "M_2289": {"note_status": 1, "channel": 1, "note": 53, "velocity": 107, "time": 0, "type": "NormalMsg"}, "M_2290": {"note_status": 1, "channel": 1, "note": 53, "velocity": 0, "time": 0, "type": "NormalMsg"}, "M_2291": {"note_status": 1, "channel": 1, "note": 53, "velocity": 107, "time": 0, "type": "NormalMsg"}, "M_2292": {"note_status": 1, "channel": 1, "note": 53, "velocity": 0, "time": 0, "type": "NormalMsg"}, "M_2293": {"note_status": 1, "channel": 1, "note": 53, "velocity": 85, "time": 0, "type": "NormalMsg"}, "M_2294": {"note_status": 1, "channel": 1, "note": 53, "velocity": 0, "time": 0, "type": "NormalMsg"}, "M_2295": {"note_status": 1, "channel": 1, "note": 53, "velocity": 107, "time": 0, "type": "NormalMsg"}, "M_2296": {"note_status": 1, "channel": 1, "note": 53, "velocity": 0, "time": 0, "type": "NormalMsg"}, "M_2297": {"note_status": 1, "channel": 1, "note": 53, "velocity": 107, "time": 0, "type": "NormalMsg"}, "M_2298": {"note_status": 1, "channel": 1, "note": 53, "velocity": 0, "time": 0, "type": "NormalMsg"}, "M_2299": {"note_status": 1, "channel": 1, "note": 53, "velocity": 107, "time": 0, "type": "NormalMsg"}, "M_2300": {"note_status": 1, "channel": 1, "note": 53, "velocity": 0, "time": 0, "type": "NormalMsg"}, "M_2301": {"note_status": 1, "channel": 1, "note": 53, "velocity": 107, "time": 0, "type": "NormalMsg"}, "M_2302": {"note_status": 1, "channel": 1, "note": 53, "velocity": 0, "time": 0, "type": "NormalMsg"}, "M_2303": {"note_status": 1, "channel": 1, "note": 53, "velocity": 97, "time": 0, "type": "NormalMsg"}, "M_2304": {"note_status": 1, "channel": 1, "note": 53, "velocity": 0, "time": 0, "type": "NormalMsg"}, "M_2305": {"note_status": 1, "channel": 1, "note": 52, "velocity": 107, "time": 0, "type": "NormalMsg"}, "M_2306": {"note_status": 1, "channel": 1, "note": 52, "velocity": 0, "time": 0, "type": "NormalMsg"}, "M_2307": {"note_status": 1, "channel": 1, "note": 50, "velocity": 107, "time": 0, "type": "NormalMsg"}, "M_2308": {"note_status": 1, "channel": 1, "note": 50, "velocity": 0, "time": 0, "type": "NormalMsg"}, "M_2309": {"note_status": 1, "channel": 1, "note": 50, "velocity": 107, "time": 0, "type": "NormalMsg"}, "M_2310": {"note_status": 1, "channel": 1, "note": 50, "velocity": 0, "time": 0, "type": "NormalMsg"}, "M_2311": {"note_status": 1, "channel": 1, "note": 50, "velocity": 97, "time": 0, "type": "NormalMsg"}, "M_2312": {"note_status": 1, "channel": 1, "note": 50, "velocity": 0, "time": 0, "type": "NormalMsg"}, "M_2313": {"note_status": 1, "channel": 1, "note": 50, "velocity": 107, "time": 0, "type": "NormalMsg"}, "M_2314": {"note_status": 1, "channel": 1, "note": 50, "velocity": 0, "time": 0, "type": "NormalMsg"}, "M_2315": {"note_status": 1, "channel": 1, "note": 53, "velocity": 101, "time": 0, "type": "NormalMsg"}, "M_2316": {"note_status": 1, "channel": 1, "note": 53, "velocity": 0, "time": 0, "type": "NormalMsg"}, "M_2317": {"note_status": 1, "channel": 1, "note": 50, "velocity": 107, "time": 0, "type": "NormalMsg"}, "M_2318": {"note_status": 1, "channel": 1, "note": 50, "velocity": 0, "time": 0, "type": "NormalMsg"}, "M_2319": {"note_status": 1, "channel": 1, "note": 55, "velocity": 107, "time": 0, "type": "NormalMsg"}, "M_2320": {"note_status": 1, "channel": 1, "note": 55, "velocity": 0, "time": 0, "type": "NormalMsg"}, "M_2321": {"note_status": 1, "channel": 1, "note": 55, "velocity": 107, "time": 0, "type": "NormalMsg"}, "M_2322": {"note_status": 1, "channel": 1, "note": 55, "velocity": 0, "time": 0, "type": "NormalMsg"}, "M_2323": {"note_status": 1, "channel": 1, "note": 55, "velocity": 85, "time": 0, "type": "NormalMsg"}, "M_2324": {"note_status": 1, "channel": 1, "note": 55, "velocity": 0, "time": 0, "type": "NormalMsg"}, "M_2325": {"note_status": 1, "channel": 1, "note": 55, "velocity": 107, "time": 0, "type": "NormalMsg"}, "M_2326": {"note_status": 1, "channel": 1, "note": 55, "velocity": 0, "time": 0, "type": "NormalMsg"}, "M_2327": {"note_status": 1, "channel": 1, "note": 55, "velocity": 107, "time": 0, "type": "NormalMsg"}, "M_2328": {"note_status": 1, "channel": 1, "note": 55, "velocity": 0, "time": 0, "type": "NormalMsg"}, "M_2329": {"note_status": 1, "channel": 1, "note": 55, "velocity": 107, "time": 0, "type": "NormalMsg"}, "M_2330": {"note_status": 1, "channel": 1, "note": 55, "velocity": 0, "time": 0, "type": "NormalMsg"}, "M_2331": {"note_status": 1, "channel": 1, "note": 55, "velocity": 107, "time": 0, "type": "NormalMsg"}, "M_2332": {"note_status": 1, "channel": 1, "note": 55, "velocity": 0, "time": 0, "type": "NormalMsg"}, "M_2333": {"note_status": 1, "channel": 1, "note": 53, "velocity": 97, "time": 0, "type": "NormalMsg"}, "M_2334": {"note_status": 1, "channel": 1, "note": 53, "velocity": 0, "time": 0, "type": "NormalMsg"}, "M_2335": {"note_status": 1, "channel": 1, "note": 55, "velocity": 107, "time": 0, "type": "NormalMsg"}, "M_2336": {"note_status": 1, "channel": 1, "note": 55, "velocity": 0, "time": 0, "type": "NormalMsg"}, "M_2337": {"note_status": 1, "channel": 1, "note": 79, "velocity": 78, "time": 0, "type": "NormalMsg"}, "M_2338": {"note_status": 1, "channel": 1, "note": 79, "velocity": 0, "time": 0, "type": "NormalMsg"}, "M_2339": {"note_status": 1, "channel": 1, "note": 79, "velocity": 76, "time": 0, "type": "NormalMsg"}, "M_2340": {"note_status": 1, "channel": 1, "note": 79, "velocity": 0, "time": 0, "type": "NormalMsg"}, "M_2341": {"note_status": 1, "channel": 1, "note": 72, "velocity": 77, "time": 0, "type": "NormalMsg"}, "M_2342": {"note_status": 1, "channel": 1, "note": 72, "velocity": 0, "time": 0, "type": "NormalMsg"}, "M_2343": {"note_status": 1, "channel": 1, "note": 67, "velocity": 74, "time": 0, "type": "NormalMsg"}, "M_2344": {"note_status": 1, "channel": 1, "note": 67, "velocity": 0, "time": 0, "type": "NormalMsg"}, "M_2345": {"note_status": 1, "channel": 1, "note": 79, "velocity": 74, "time": 0, "type": "NormalMsg"}, "M_2346": {"note_status": 1, "channel": 1, "note": 79, "velocity": 0, "time": 0, "type": "NormalMsg"}, "M_2347": {"note_status": 1, "channel": 1, "note": 79, "velocity": 74, "time": 0, "type": "NormalMsg"}, "M_2348": {"note_status": 1, "channel": 1, "note": 72, "velocity": 74, "time": 0, "type": "NormalMsg"}, "M_2349": {"note_status": 1, "channel": 1, "note": 79, "velocity": 0, "time": 0, "type": "NormalMsg"}, "M_2350": {"note_status": 1, "channel": 1, "note": 72, "velocity": 0, "time": 0, "type": "NormalMsg"}, "M_2351": {"note_status": 1, "channel": 1, "note": 67, "velocity": 75, "time": 0, "type": "NormalMsg"}, "M_2352": {"note_status": 1, "channel": 1, "note": 67, "velocity": 0, "time": 0, "type": "NormalMsg"}, "M_2353": {"note_status": 1, "channel": 1, "note": 79, "velocity": 78, "time": 0, "type": "NormalMsg"}, "M_2354": {"note_status": 1, "channel": 1, "note": 79, "velocity": 0, "time": 0, "type": "NormalMsg"}, "M_2355": {"note_status": 1, "channel": 1, "note": 79, "velocity": 76, "time": 0, "type": "NormalMsg"}, "M_2356": {"note_status": 1, "channel": 1, "note": 72, "velocity": 77, "time": 0, "type": "NormalMsg"}, "M_2357": {"note_status": 1, "channel": 1, "note": 79, "velocity": 0, "time": 0, "type": "NormalMsg"}, "M_2358": {"note_status": 1, "channel": 1, "note": 72, "velocity": 0, "time": 0, "type": "NormalMsg"}, "M_2359": {"note_status": 1, "channel": 1, "note": 67, "velocity": 74, "time": 0, "type": "NormalMsg"}, "M_2360": {"note_status": 1, "channel": 1, "note": 67, "velocity": 0, "time": 0, "type": "NormalMsg"}, "M_2361": {"note_status": 1, "channel": 1, "note": 79, "velocity": 74, "time": 0, "type": "NormalMsg"}, "M_2362": {"note_status": 1, "channel": 1, "note": 79, "velocity": 0, "time": 0, "type": "NormalMsg"}, "M_2363": {"note_status": 1, "channel": 1, "note": 79, "velocity": 74, "time": 0, "type": "NormalMsg"}, "M_2364": {"note_status": 1, "channel": 1, "note": 72, "velocity": 74, "time": 0, "type": "NormalMsg"}, "M_2365": {"note_status": 1, "channel": 1, "note": 79, "velocity": 0, "time": 0, "type": "NormalMsg"}, "M_2366": {"note_status": 1, "channel": 1, "note": 72, "velocity": 0, "time": 0, "type": "NormalMsg"}, "M_2367": {"note_status": 1, "channel": 1, "note": 67, "velocity": 75, "time": 0, "type": "NormalMsg"}, "M_2368": {"note_status": 1, "channel": 1, "note": 67, "velocity": 0, "time": 0, "type": "NormalMsg"}, "M_2369": {"note_status": 1, "channel": 1, "note": 79, "velocity": 78, "time": 0, "type": "NormalMsg"}, "M_2370": {"note_status": 1, "channel": 1, "note": 79, "velocity": 0, "time": 0, "type": "NormalMsg"}, "M_2371": {"note_status": 1, "channel": 1, "note": 79, "velocity": 76, "time": 0, "type": "NormalMsg"}, "M_2372": {"note_status": 1, "channel": 1, "note": 79, "velocity": 0, "time": 0, "type": "NormalMsg"}, "M_2373": {"note_status": 1, "channel": 1, "note": 72, "velocity": 77, "time": 0, "type": "NormalMsg"}, "M_2374": {"note_status": 1, "channel": 1, "note": 72, "velocity": 0, "time": 0, "type": "NormalMsg"}, "M_2375": {"note_status": 1, "channel": 1, "note": 67, "velocity": 74, "time": 0, "type": "NormalMsg"}, "M_2376": {"note_status": 1, "channel": 1, "note": 67, "velocity": 0, "time": 0, "type": "NormalMsg"}, "M_2377": {"note_status": 1, "channel": 1, "note": 79, "velocity": 74, "time": 0, "type": "NormalMsg"}, "M_2378": {"note_status": 1, "channel": 1, "note": 79, "velocity": 0, "time": 0, "type": "NormalMsg"}, "M_2379": {"note_status": 1, "channel": 1, "note": 79, "velocity": 74, "time": 0, "type": "NormalMsg"}, "M_2380": {"note_status": 1, "channel": 1, "note": 72, "velocity": 74, "time": 0, "type": "NormalMsg"}, "M_2381": {"note_status": 1, "channel": 1, "note": 79, "velocity": 0, "time": 0, "type": "NormalMsg"}, "M_2382": {"note_status": 1, "channel": 1, "note": 72, "velocity": 0, "time": 0, "type": "NormalMsg"}, "M_2383": {"note_status": 1, "channel": 1, "note": 67, "velocity": 75, "time": 0, "type": "NormalMsg"}, "M_2384": {"note_status": 1, "channel": 1, "note": 67, "velocity": 0, "time": 0, "type": "NormalMsg"}, "M_2385": {"note_status": 1, "channel": 1, "note": 79, "velocity": 78, "time": 0, "type": "NormalMsg"}, "M_2386": {"note_status": 1, "channel": 1, "note": 79, "velocity": 0, "time": 0, "type": "NormalMsg"}, "M_2387": {"note_status": 1, "channel": 1, "note": 79, "velocity": 76, "time": 0, "type": "NormalMsg"}, "M_2388": {"note_status": 1, "channel": 1, "note": 72, "velocity": 77, "time": 0, "type": "NormalMsg"}, "M_2389": {"note_status": 1, "channel": 1, "note": 79, "velocity": 0, "time": 0, "type": "NormalMsg"}, "M_2390": {"note_status": 1, "channel": 1, "note": 72, "velocity": 0, "time": 0, "type": "NormalMsg"}, "M_2391": {"note_status": 1, "channel": 1, "note": 67, "velocity": 74, "time": 0, "type": "NormalMsg"}, "M_2392": {"note_status": 1, "channel": 1, "note": 67, "velocity": 0, "time": 0, "type": "NormalMsg"}, "M_2393": {"note_status": 1, "channel": 1, "note": 79, "velocity": 74, "time": 0, "type": "NormalMsg"}, "M_2394": {"note_status": 1, "channel": 1, "note": 79, "velocity": 0, "time": 0, "type": "NormalMsg"}, "M_2395": {"note_status": 1, "channel": 1, "note": 79, "velocity": 74, "time": 0, "type": "NormalMsg"}, "M_2396": {"note_status": 1, "channel": 1, "note": 72, "velocity": 74, "time": 0, "type": "NormalMsg"}, "M_2397": {"note_status": 1, "channel": 1, "note": 79, "velocity": 0, "time": 0, "type": "NormalMsg"}, "M_2398": {"note_status": 1, "channel": 1, "note": 72, "velocity": 0, "time": 0, "type": "NormalMsg"}, "M_2399": {"note_status": 1, "channel": 1, "note": 67, "velocity": 75, "time": 0, "type": "NormalMsg"}, "M_2400": {"note_status": 1, "channel": 1, "note": 67, "velocity": 0, "time": 0, "type": "NormalMsg"}, "M_2401": {"note_status": 1, "channel": 1, "note": 79, "velocity": 78, "time": 0, "type": "NormalMsg"}, "M_2402": {"note_status": 1, "channel": 1, "note": 79, "velocity": 0, "time": 0, "type": "NormalMsg"}, "M_2403": {"note_status": 1, "channel": 1, "note": 79, "velocity": 76, "time": 0, "type": "NormalMsg"}, "M_2404": {"note_status": 1, "channel": 1, "note": 79, "velocity": 0, "time": 0, "type": "NormalMsg"}, "M_2405": {"note_status": 1, "channel": 1, "note": 72, "velocity": 77, "time": 0, "type": "NormalMsg"}, "M_2406": {"note_status": 1, "channel": 1, "note": 72, "velocity": 0, "time": 0, "type": "NormalMsg"}, "M_2407": {"note_status": 1, "channel": 1, "note": 67, "velocity": 74, "time": 0, "type": "NormalMsg"}, "M_2408": {"note_status": 1, "channel": 1, "note": 67, "velocity": 0, "time": 0, "type": "NormalMsg"}, "M_2409": {"note_status": 1, "channel": 1, "note": 79, "velocity": 74, "time": 0, "type": "NormalMsg"}, "M_2410": {"note_status": 1, "channel": 1, "note": 79, "velocity": 0, "time": 0, "type": "NormalMsg"}, "M_2411": {"note_status": 1, "channel": 1, "note": 79, "velocity": 74, "time": 0, "type": "NormalMsg"}, "M_2412": {"note_status": 1, "channel": 1, "note": 72, "velocity": 74, "time": 0, "type": "NormalMsg"}, "M_2413": {"note_status": 1, "channel": 1, "note": 79, "velocity": 0, "time": 0, "type": "NormalMsg"}, "M_2414": {"note_status": 1, "channel": 1, "note": 72, "velocity": 0, "time": 0, "type": "NormalMsg"}, "M_2415": {"note_status": 1, "channel": 1, "note": 67, "velocity": 75, "time": 0, "type": "NormalMsg"}, "M_2416": {"note_status": 1, "channel": 1, "note": 67, "velocity": 0, "time": 0, "type": "NormalMsg"}, "M_2417": {"note_status": 1, "channel": 1, "note": 79, "velocity": 78, "time": 0, "type": "NormalMsg"}, "M_2418": {"note_status": 1, "channel": 1, "note": 79, "velocity": 0, "time": 0, "type": "NormalMsg"}, "M_2419": {"note_status": 1, "channel": 1, "note": 79, "velocity": 76, "time": 0, "type": "NormalMsg"}, "M_2420": {"note_status": 1, "channel": 1, "note": 72, "velocity": 77, "time": 0, "type": "NormalMsg"}, "M_2421": {"note_status": 1, "channel": 1, "note": 79, "velocity": 0, "time": 0, "type": "NormalMsg"}, "M_2422": {"note_status": 1, "channel": 1, "note": 72, "velocity": 0, "time": 0, "type": "NormalMsg"}, "M_2423": {"note_status": 1, "channel": 1, "note": 67, "velocity": 74, "time": 0, "type": "NormalMsg"}, "M_2424": {"note_status": 1, "channel": 1, "note": 67, "velocity": 0, "time": 0, "type": "NormalMsg"}, "M_2425": {"note_status": 1, "channel": 1, "note": 79, "velocity": 74, "time": 0, "type": "NormalMsg"}, "M_2426": {"note_status": 1, "channel": 1, "note": 79, "velocity": 0, "time": 0, "type": "NormalMsg"}, "M_2427": {"note_status": 1, "channel": 1, "note": 79, "velocity": 74, "time": 0, "type": "NormalMsg"}, "M_2428": {"note_status": 1, "channel": 1, "note": 72, "velocity": 74, "time": 0, "type": "NormalMsg"}, "M_2429": {"note_status": 1, "channel": 1, "note": 79, "velocity": 0, "time": 0, "type": "NormalMsg"}, "M_2430": {"note_status": 1, "channel": 1, "note": 72, "velocity": 0, "time": 0, "type": "NormalMsg"}, "M_2431": {"note_status": 1, "channel": 1, "note": 67, "velocity": 75, "time": 0, "type": "NormalMsg"}, "M_2432": {"note_status": 1, "channel": 1, "note": 67, "velocity": 0, "time": 0, "type": "NormalMsg"}, "M_2433": {"note_status": 1, "channel": 1, "note": 79, "velocity": 78, "time": 0, "type": "NormalMsg"}, "M_2434": {"note_status": 1, "channel": 1, "note": 79, "velocity": 0, "time": 0, "type": "NormalMsg"}, "M_2435": {"note_status": 1, "channel": 1, "note": 79, "velocity": 76, "time": 0, "type": "NormalMsg"}, "M_2436": {"note_status": 1, "channel": 1, "note": 79, "velocity": 0, "time": 0, "type": "NormalMsg"}, "M_2437": {"note_status": 1, "channel": 1, "note": 72, "velocity": 77, "time": 0, "type": "NormalMsg"}, "M_2438": {"note_status": 1, "channel": 1, "note": 72, "velocity": 0, "time": 0, "type": "NormalMsg"}, "M_2439": {"note_status": 1, "channel": 1, "note": 67, "velocity": 74, "time": 0, "type": "NormalMsg"}, "M_2440": {"note_status": 1, "channel": 1, "note": 67, "velocity": 0, "time": 0, "type": "NormalMsg"}, "M_2441": {"note_status": 1, "channel": 1, "note": 79, "velocity": 74, "time": 0, "type": "NormalMsg"}, "M_2442": {"note_status": 1, "channel": 1, "note": 79, "velocity": 0, "time": 0, "type": "NormalMsg"}, "M_2443": {"note_status": 1, "channel": 1, "note": 57, "velocity": 107, "time": 0, "type": "NormalMsg"}, "M_2444": {"note_status": 1, "channel": 1, "note": 57, "velocity": 0, "time": 0, "type": "NormalMsg"}, "M_2445": {"note_status": 1, "channel": 1, "note": 57, "velocity": 107, "time": 0, "type": "NormalMsg"}, "M_2446": {"note_status": 1, "channel": 1, "note": 57, "velocity": 0, "time": 0, "type": "NormalMsg"}, "M_2447": {"note_status": 1, "channel": 1, "note": 57, "velocity": 97, "time": 0, "type": "NormalMsg"}, "M_2448": {"note_status": 1, "channel": 1, "note": 57, "velocity": 0, "time": 0, "type": "NormalMsg"}, "M_2449": {"note_status": 1, "channel": 1, "note": 57, "velocity": 107, "time": 0, "type": "NormalMsg"}, "M_2450": {"note_status": 1, "channel": 1, "note": 57, "velocity": 0, "time": 0, "type": "NormalMsg"}, "M_2451": {"note_status": 1, "channel": 1, "note": 57, "velocity": 101, "time": 0, "type": "NormalMsg"}, "M_2452": {"note_status": 1, "channel": 1, "note": 57, "velocity": 0, "time": 0, "type": "NormalMsg"}, "M_2453": {"note_status": 1, "channel": 1, "note": 55, "velocity": 107, "time": 0, "type": "NormalMsg"}, "M_2454": {"note_status": 1, "channel": 1, "note": 55, "velocity": 0, "time": 0, "type": "NormalMsg"}, "M_2455": {"note_status": 1, "channel": 1, "note": 53, "velocity": 107, "time": 0, "type": "NormalMsg"}, "M_2456": {"note_status": 1, "channel": 1, "note": 53, "velocity": 0, "time": 0, "type": "NormalMsg"}, "M_2457": {"note_status": 1, "channel": 1, "note": 53, "velocity": 107, "time": 0, "type": "NormalMsg"}, "M_2458": {"note_status": 1, "channel": 1, "note": 53, "velocity": 0, "time": 0, "type": "NormalMsg"}, "M_2459": {"note_status": 1, "channel": 1, "note": 53, "velocity": 85, "time": 0, "type": "NormalMsg"}, "M_2460": {"note_status": 1, "channel": 1, "note": 53, "velocity": 0, "time": 0, "type": "NormalMsg"}, "M_2461": {"note_status": 1, "channel": 1, "note": 53, "velocity": 107, "time": 0, "type": "NormalMsg"}, "M_2462": {"note_status": 1, "channel": 1, "note": 53, "velocity": 0, "time": 0, "type": "NormalMsg"}, "M_2463": {"note_status": 1, "channel": 1, "note": 53, "velocity": 107, "time": 0, "type": "NormalMsg"}, "M_2464": {"note_status": 1, "channel": 1, "note": 53, "velocity": 0, "time": 0, "type": "NormalMsg"}, "M_2465": {"note_status": 1, "channel": 1, "note": 53, "velocity": 107, "time": 0, "type": "NormalMsg"}, "M_2466": {"note_status": 1, "channel": 1, "note": 53, "velocity": 0, "time": 0, "type": "NormalMsg"}, "M_2467": {"note_status": 1, "channel": 1, "note": 53, "velocity": 107, "time": 0, "type": "NormalMsg"}, "M_2468": {"note_status": 1, "channel": 1, "note": 53, "velocity": 0, "time": 0, "type": "NormalMsg"}, "M_2469": {"note_status": 1, "channel": 1, "note": 53, "velocity": 97, "time": 0, "type": "NormalMsg"}, "M_2470": {"note_status": 1, "channel": 1, "note": 53, "velocity": 0, "time": 0, "type": "NormalMsg"}, "M_2471": {"note_status": 1, "channel": 1, "note": 52, "velocity": 107, "time": 0, "type": "NormalMsg"}, "M_2472": {"note_status": 1, "channel": 1, "note": 52, "velocity": 0, "time": 0, "type": "NormalMsg"}, "M_2473": {"note_status": 1, "channel": 1, "note": 50, "velocity": 107, "time": 0, "type": "NormalMsg"}, "M_2474": {"note_status": 1, "channel": 1, "note": 50, "velocity": 0, "time": 0, "type": "NormalMsg"}, "M_2475": {"note_status": 1, "channel": 1, "note": 50, "velocity": 107, "time": 0, "type": "NormalMsg"}, "M_2476": {"note_status": 1, "channel": 1, "note": 50, "velocity": 0, "time": 0, "type": "NormalMsg"}, "M_2477": {"note_status": 1, "channel": 1, "note": 50, "velocity": 97, "time": 0, "type": "NormalMsg"}, "M_2478": {"note_status": 1, "channel": 1, "note": 50, "velocity": 0, "time": 0, "type": "NormalMsg"}, "M_2479": {"note_status": 1, "channel": 1, "note": 50, "velocity": 107, "time": 0, "type": "NormalMsg"}, "M_2480": {"note_status": 1, "channel": 1, "note": 50, "velocity": 0, "time": 0, "type": "NormalMsg"}, "M_2481": {"note_status": 1, "channel": 1, "note": 53, "velocity": 101, "time": 0, "type": "NormalMsg"}, "M_2482": {"note_status": 1, "channel": 1, "note": 53, "velocity": 0, "time": 0, "type": "NormalMsg"}, "M_2483": {"note_status": 1, "channel": 1, "note": 50, "velocity": 107, "time": 0, "type": "NormalMsg"}, "M_2484": {"note_status": 1, "channel": 1, "note": 50, "velocity": 0, "time": 0, "type": "NormalMsg"}, "M_2485": {"note_status": 1, "channel": 1, "note": 55, "velocity": 107, "time": 0, "type": "NormalMsg"}, "M_2486": {"note_status": 1, "channel": 1, "note": 55, "velocity": 0, "time": 0, "type": "NormalMsg"}, "M_2487": {"note_status": 1, "channel": 1, "note": 55, "velocity": 107, "time": 0, "type": "NormalMsg"}, "M_2488": {"note_status": 1, "channel": 1, "note": 55, "velocity": 0, "time": 0, "type": "NormalMsg"}, "M_2489": {"note_status": 1, "channel": 1, "note": 55, "velocity": 85, "time": 0, "type": "NormalMsg"}, "M_2490": {"note_status": 1, "channel": 1, "note": 55, "velocity": 0, "time": 0, "type": "NormalMsg"}, "M_2491": {"note_status": 1, "channel": 1, "note": 55, "velocity": 107, "time": 0, "type": "NormalMsg"}, "M_2492": {"note_status": 1, "channel": 1, "note": 55, "velocity": 0, "time": 0, "type": "NormalMsg"}, "M_2493": {"note_status": 1, "channel": 1, "note": 55, "velocity": 107, "time": 0, "type": "NormalMsg"}, "M_2494": {"note_status": 1, "channel": 1, "note": 55, "velocity": 0, "time": 0, "type": "NormalMsg"}, "M_2495": {"note_status": 1, "channel": 1, "note": 55, "velocity": 107, "time": 0, "type": "NormalMsg"}, "M_2496": {"note_status": 1, "channel": 1, "note": 55, "velocity": 0, "time": 0, "type": "NormalMsg"}, "M_2497": {"note_status": 1, "channel": 1, "note": 55, "velocity": 107, "time": 0, "type": "NormalMsg"}, "M_2498": {"note_status": 1, "channel": 1, "note": 55, "velocity": 0, "time": 0, "type": "NormalMsg"}, "M_2499": {"note_status": 1, "channel": 1, "note": 53, "velocity": 97, "time": 0, "type": "NormalMsg"}, "M_2500": {"note_status": 1, "channel": 1, "note": 53, "velocity": 0, "time": 0, "type": "NormalMsg"}, "M_2501": {"note_status": 1, "channel": 1, "note": 55, "velocity": 107, "time": 0, "type": "NormalMsg"}, "M_2502": {"note_status": 1, "channel": 1, "note": 55, "velocity": 0, "time": 0, "type": "NormalMsg"}, "M_2503": {"note_status": 1, "channel": 1, "note": 57, "velocity": 107, "time": 0, "type": "NormalMsg"}, "M_2504": {"note_status": 1, "channel": 1, "note": 57, "velocity": 0, "time": 0, "type": "NormalMsg"}, "M_2505": {"note_status": 1, "channel": 1, "note": 57, "velocity": 107, "time": 0, "type": "NormalMsg"}, "M_2506": {"note_status": 1, "channel": 1, "note": 57, "velocity": 0, "time": 0, "type": "NormalMsg"}, "M_2507": {"note_status": 1, "channel": 1, "note": 57, "velocity": 97, "time": 0, "type": "NormalMsg"}, "M_2508": {"note_status": 1, "channel": 1, "note": 57, "velocity": 0, "time": 0, "type": "NormalMsg"}, "M_2509": {"note_status": 1, "channel": 1, "note": 57, "velocity": 107, "time": 0, "type": "NormalMsg"}, "M_2510": {"note_status": 1, "channel": 1, "note": 57, "velocity": 0, "time": 0, "type": "NormalMsg"}, "M_2511": {"note_status": 1, "channel": 1, "note": 57, "velocity": 101, "time": 0, "type": "NormalMsg"}, "M_2512": {"note_status": 1, "channel": 1, "note": 57, "velocity": 0, "time": 0, "type": "NormalMsg"}, "M_2513": {"note_status": 1, "channel": 1, "note": 55, "velocity": 107, "time": 0, "type": "NormalMsg"}, "M_2514": {"note_status": 1, "channel": 1, "note": 55, "velocity": 0, "time": 0, "type": "NormalMsg"}, "M_2515": {"note_status": 1, "channel": 1, "note": 53, "velocity": 107, "time": 0, "type": "NormalMsg"}, "M_2516": {"note_status": 1, "channel": 1, "note": 53, "velocity": 0, "time": 0, "type": "NormalMsg"}, "M_2517": {"note_status": 1, "channel": 1, "note": 53, "velocity": 107, "time": 0, "type": "NormalMsg"}, "M_2518": {"note_status": 1, "channel": 1, "note": 53, "velocity": 0, "time": 0, "type": "NormalMsg"}, "M_2519": {"note_status": 1, "channel": 1, "note": 53, "velocity": 85, "time": 0, "type": "NormalMsg"}, "M_2520": {"note_status": 1, "channel": 1, "note": 53, "velocity": 0, "time": 0, "type": "NormalMsg"}, "M_2521": {"note_status": 1, "channel": 1, "note": 53, "velocity": 107, "time": 0, "type": "NormalMsg"}, "M_2522": {"note_status": 1, "channel": 1, "note": 53, "velocity": 0, "time": 0, "type": "NormalMsg"}, "M_2523": {"note_status": 1, "channel": 1, "note": 53, "velocity": 107, "time": 0, "type": "NormalMsg"}, "M_2524": {"note_status": 1, "channel": 1, "note": 53, "velocity": 0, "time": 0, "type": "NormalMsg"}, "M_2525": {"note_status": 1, "channel": 1, "note": 53, "velocity": 107, "time": 0, "type": "NormalMsg"}, "M_2526": {"note_status": 1, "channel": 1, "note": 53, "velocity": 0, "time": 0, "type": "NormalMsg"}, "M_2527": {"note_status": 1, "channel": 1, "note": 53, "velocity": 107, "time": 0, "type": "NormalMsg"}, "M_2528": {"note_status": 1, "channel": 1, "note": 53, "velocity": 0, "time": 0, "type": "NormalMsg"}, "M_2529": {"note_status": 1, "channel": 1, "note": 53, "velocity": 97, "time": 0, "type": "NormalMsg"}, "M_2530": {"note_status": 1, "channel": 1, "note": 53, "velocity": 0, "time": 0, "type": "NormalMsg"}, "M_2531": {"note_status": 1, "channel": 1, "note": 52, "velocity": 107, "time": 0, "type": "NormalMsg"}, "M_2532": {"note_status": 1, "channel": 1, "note": 52, "velocity": 0, "time": 0, "type": "NormalMsg"}, "M_2533": {"note_status": 1, "channel": 1, "note": 55, "velocity": 107, "time": 0, "type": "NormalMsg"}, "M_2534": {"note_status": 1, "channel": 1, "note": 55, "velocity": 0, "time": 0, "type": "NormalMsg"}, "M_2535": {"note_status": 1, "channel": 1, "note": 55, "velocity": 107, "time": 0, "type": "NormalMsg"}, "M_2536": {"note_status": 1, "channel": 1, "note": 55, "velocity": 0, "time": 0, "type": "NormalMsg"}, "M_2537": {"note_status": 1, "channel": 1, "note": 55, "velocity": 107, "time": 0, "type": "NormalMsg"}, "M_2538": {"note_status": 1, "channel": 1, "note": 55, "velocity": 0, "time": 0, "type": "NormalMsg"}, "M_2539": {"note_status": 1, "channel": 1, "note": 55, "velocity": 107, "time": 0, "type": "NormalMsg"}, "M_2540": {"note_status": 1, "channel": 1, "note": 55, "velocity": 0, "time": 0, "type": "NormalMsg"}, "M_2541": {"note_status": 1, "channel": 1, "note": 60, "velocity": 97, "time": 0, "type": "NormalMsg"}, "M_2542": {"note_status": 1, "channel": 1, "note": 60, "velocity": 0, "time": 0, "type": "NormalMsg"}, "M_2543": {"note_status": 1, "channel": 1, "note": 55, "velocity": 107, "time": 0, "type": "NormalMsg"}, "M_2544": {"note_status": 1, "channel": 1, "note": 55, "velocity": 0, "time": 0, "type": "NormalMsg"}, "M_2545": {"note_status": 1, "channel": 1, "note": 57, "velocity": 107, "time": 0, "type": "NormalMsg"}, "M_2546": {"note_status": 1, "channel": 1, "note": 57, "velocity": 0, "time": 0, "type": "NormalMsg"}, "M_2547": {"note_status": 1, "channel": 1, "note": 57, "velocity": 107, "time": 0, "type": "NormalMsg"}, "M_2548": {"note_status": 1, "channel": 1, "note": 57, "velocity": 0, "time": 0, "type": "NormalMsg"}, "M_2549": {"note_status": 1, "channel": 1, "note": 57, "velocity": 97, "time": 0, "type": "NormalMsg"}, "M_2550": {"note_status": 1, "channel": 1, "note": 57, "velocity": 0, "time": 0, "type": "NormalMsg"}, "M_2551": {"note_status": 1, "channel": 1, "note": 57, "velocity": 107, "time": 0, "type": "NormalMsg"}, "M_2552": {"note_status": 1, "channel": 1, "note": 57, "velocity": 0, "time": 0, "type": "NormalMsg"}, "M_2553": {"note_status": 1, "channel": 1, "note": 57, "velocity": 101, "time": 0, "type": "NormalMsg"}, "M_2554": {"note_status": 1, "channel": 1, "note": 57, "velocity": 0, "time": 0, "type": "NormalMsg"}, "M_2555": {"note_status": 1, "channel": 1, "note": 55, "velocity": 107, "time": 0, "type": "NormalMsg"}, "M_2556": {"note_status": 1, "channel": 1, "note": 55, "velocity": 0, "time": 0, "type": "NormalMsg"}, "M_2557": {"note_status": 1, "channel": 1, "note": 53, "velocity": 107, "time": 0, "type": "NormalMsg"}, "M_2558": {"note_status": 1, "channel": 1, "note": 53, "velocity": 0, "time": 0, "type": "NormalMsg"}, "M_2559": {"note_status": 1, "channel": 1, "note": 53, "velocity": 107, "time": 0, "type": "NormalMsg"}, "M_2560": {"note_status": 1, "channel": 1, "note": 53, "velocity": 0, "time": 0, "type": "NormalMsg"}, "M_2561": {"note_status": 1, "channel": 1, "note": 53, "velocity": 85, "time": 0, "type": "NormalMsg"}, "M_2562": {"note_status": 1, "channel": 1, "note": 53, "velocity": 0, "time": 0, "type": "NormalMsg"}, "M_2563": {"note_status": 1, "channel": 1, "note": 53, "velocity": 107, "time": 0, "type": "NormalMsg"}, "M_2564": {"note_status": 1, "channel": 1, "note": 53, "velocity": 0, "time": 0, "type": "NormalMsg"}, "M_2565": {"note_status": 1, "channel": 1, "note": 53, "velocity": 107, "time": 0, "type": "NormalMsg"}, "M_2566": {"note_status": 1, "channel": 1, "note": 53, "velocity": 0, "time": 0, "type": "NormalMsg"}, "M_2567": {"note_status": 1, "channel": 1, "note": 53, "velocity": 107, "time": 0, "type": "NormalMsg"}, "M_2568": {"note_status": 1, "channel": 1, "note": 53, "velocity": 0, "time": 0, "type": "NormalMsg"}, "M_2569": {"note_status": 1, "channel": 1, "note": 53, "velocity": 107, "time": 0, "type": "NormalMsg"}, "M_2570": {"note_status": 1, "channel": 1, "note": 53, "velocity": 0, "time": 0, "type": "NormalMsg"}, "M_2571": {"note_status": 1, "channel": 1, "note": 53, "velocity": 97, "time": 0, "type": "NormalMsg"}, "M_2572": {"note_status": 1, "channel": 1, "note": 53, "velocity": 0, "time": 0, "type": "NormalMsg"}, "M_2573": {"note_status": 1, "channel": 1, "note": 52, "velocity": 107, "time": 0, "type": "NormalMsg"}, "M_2574": {"note_status": 1, "channel": 1, "note": 52, "velocity": 0, "time": 0, "type": "NormalMsg"}, "M_2575": {"note_status": 1, "channel": 1, "note": 50, "velocity": 107, "time": 0, "type": "NormalMsg"}, "M_2576": {"note_status": 1, "channel": 1, "note": 50, "velocity": 0, "time": 0, "type": "NormalMsg"}, "M_2577": {"note_status": 1, "channel": 1, "note": 50, "velocity": 107, "time": 0, "type": "NormalMsg"}, "M_2578": {"note_status": 1, "channel": 1, "note": 50, "velocity": 0, "time": 0, "type": "NormalMsg"}, "M_2579": {"note_status": 1, "channel": 1, "note": 50, "velocity": 97, "time": 0, "type": "NormalMsg"}, "M_2580": {"note_status": 1, "channel": 1, "note": 50, "velocity": 0, "time": 0, "type": "NormalMsg"}, "M_2581": {"note_status": 1, "channel": 1, "note": 50, "velocity": 107, "time": 0, "type": "NormalMsg"}, "M_2582": {"note_status": 1, "channel": 1, "note": 50, "velocity": 0, "time": 0, "type": "NormalMsg"}, "M_2583": {"note_status": 1, "channel": 1, "note": 53, "velocity": 101, "time": 0, "type": "NormalMsg"}, "M_2584": {"note_status": 1, "channel": 1, "note": 53, "velocity": 0, "time": 0, "type": "NormalMsg"}, "M_2585": {"note_status": 1, "channel": 1, "note": 50, "velocity": 107, "time": 0, "type": "NormalMsg"}, "M_2586": {"note_status": 1, "channel": 1, "note": 50, "velocity": 0, "time": 0, "type": "NormalMsg"}, "M_2587": {"note_status": 1, "channel": 1, "note": 55, "velocity": 107, "time": 0, "type": "NormalMsg"}, "M_2588": {"note_status": 1, "channel": 1, "note": 55, "velocity": 0, "time": 0, "type": "NormalMsg"}, "M_2589": {"note_status": 1, "channel": 1, "note": 55, "velocity": 107, "time": 0, "type": "NormalMsg"}, "M_2590": {"note_status": 1, "channel": 1, "note": 55, "velocity": 0, "time": 0, "type": "NormalMsg"}, "M_2591": {"note_status": 1, "channel": 1, "note": 55, "velocity": 85, "time": 0, "type": "NormalMsg"}, "M_2592": {"note_status": 1, "channel": 1, "note": 55, "velocity": 0, "time": 0, "type": "NormalMsg"}, "M_2593": {"note_status": 1, "channel": 1, "note": 55, "velocity": 107, "time": 0, "type": "NormalMsg"}, "M_2594": {"note_status": 1, "channel": 1, "note": 55, "velocity": 0, "time": 0, "type": "NormalMsg"}, "M_2595": {"note_status": 1, "channel": 1, "note": 55, "velocity": 107, "time": 0, "type": "NormalMsg"}, "M_2596": {"note_status": 1, "channel": 1, "note": 55, "velocity": 0, "time": 0, "type": "NormalMsg"}, "M_2597": {"note_status": 1, "channel": 1, "note": 55, "velocity": 107, "time": 0, "type": "NormalMsg"}, "M_2598": {"note_status": 1, "channel": 1, "note": 55, "velocity": 0, "time": 0, "type": "NormalMsg"}, "M_2599": {"note_status": 1, "channel": 1, "note": 55, "velocity": 107, "time": 0, "type": "NormalMsg"}, "M_2600": {"note_status": 1, "channel": 1, "note": 55, "velocity": 0, "time": 0, "type": "NormalMsg"}, "M_2601": {"note_status": 1, "channel": 1, "note": 53, "velocity": 97, "time": 0, "type": "NormalMsg"}, "M_2602": {"note_status": 1, "channel": 1, "note": 53, "velocity": 0, "time": 0, "type": "NormalMsg"}, "M_2603": {"note_status": 1, "channel": 1, "note": 55, "velocity": 107, "time": 0, "type": "NormalMsg"}, "M_2604": {"note_status": 1, "channel": 1, "note": 55, "velocity": 0, "time": 0, "type": "NormalMsg"}, "M_2605": {"note_status": 1, "channel": 1, "note": 57, "velocity": 107, "time": 0, "type": "NormalMsg"}, "M_2606": {"note_status": 1, "channel": 1, "note": 57, "velocity": 0, "time": 0, "type": "NormalMsg"}, "M_2607": {"note_status": 1, "channel": 1, "note": 57, "velocity": 107, "time": 0, "type": "NormalMsg"}, "M_2608": {"note_status": 1, "channel": 1, "note": 57, "velocity": 0, "time": 0, "type": "NormalMsg"}, "M_2609": {"note_status": 1, "channel": 1, "note": 57, "velocity": 97, "time": 0, "type": "NormalMsg"}, "M_2610": {"note_status": 1, "channel": 1, "note": 57, "velocity": 0, "time": 0, "type": "NormalMsg"}, "M_2611": {"note_status": 1, "channel": 1, "note": 57, "velocity": 107, "time": 0, "type": "NormalMsg"}, "M_2612": {"note_status": 1, "channel": 1, "note": 57, "velocity": 0, "time": 0, "type": "NormalMsg"}, "M_2613": {"note_status": 1, "channel": 1, "note": 57, "velocity": 101, "time": 0, "type": "NormalMsg"}, "M_2614": {"note_status": 1, "channel": 1, "note": 57, "velocity": 0, "time": 0, "type": "NormalMsg"}, "M_2615": {"note_status": 1, "channel": 1, "note": 55, "velocity": 107, "time": 0, "type": "NormalMsg"}, "M_2616": {"note_status": 1, "channel": 1, "note": 55, "velocity": 0, "time": 0, "type": "NormalMsg"}, "M_2617": {"note_status": 1, "channel": 1, "note": 53, "velocity": 107, "time": 0, "type": "NormalMsg"}, "M_2618": {"note_status": 1, "channel": 1, "note": 53, "velocity": 0, "time": 0, "type": "NormalMsg"}, "M_2619": {"note_status": 1, "channel": 1, "note": 53, "velocity": 107, "time": 0, "type": "NormalMsg"}, "M_2620": {"note_status": 1, "channel": 1, "note": 53, "velocity": 0, "time": 0, "type": "NormalMsg"}, "M_2621": {"note_status": 1, "channel": 1, "note": 53, "velocity": 85, "time": 0, "type": "NormalMsg"}, "M_2622": {"note_status": 1, "channel": 1, "note": 53, "velocity": 0, "time": 0, "type": "NormalMsg"}, "M_2623": {"note_status": 1, "channel": 1, "note": 53, "velocity": 107, "time": 0, "type": "NormalMsg"}, "M_2624": {"note_status": 1, "channel": 1, "note": 53, "velocity": 0, "time": 0, "type": "NormalMsg"}, "M_2625": {"note_status": 1, "channel": 1, "note": 53, "velocity": 107, "time": 0, "type": "NormalMsg"}, "M_2626": {"note_status": 1, "channel": 1, "note": 53, "velocity": 0, "time": 0, "type": "NormalMsg"}, "M_2627": {"note_status": 1, "channel": 1, "note": 53, "velocity": 107, "time": 0, "type": "NormalMsg"}, "M_2628": {"note_status": 1, "channel": 1, "note": 53, "velocity": 0, "time": 0, "type": "NormalMsg"}, "M_2629": {"note_status": 1, "channel": 1, "note": 53, "velocity": 107, "time": 0, "type": "NormalMsg"}, "M_2630": {"note_status": 1, "channel": 1, "note": 53, "velocity": 0, "time": 0, "type": "NormalMsg"}, "M_2631": {"note_status": 1, "channel": 1, "note": 53, "velocity": 97, "time": 0, "type": "NormalMsg"}, "M_2632": {"note_status": 1, "channel": 1, "note": 53, "velocity": 0, "time": 0, "type": "NormalMsg"}, "M_2633": {"note_status": 1, "channel": 1, "note": 52, "velocity": 107, "time": 0, "type": "NormalMsg"}, "M_2634": {"note_status": 1, "channel": 1, "note": 52, "velocity": 0, "time": 0, "type": "NormalMsg"}, "M_2635": {"note_status": 1, "channel": 1, "note": 50, "velocity": 107, "time": 0, "type": "NormalMsg"}, "M_2636": {"note_status": 1, "channel": 1, "note": 50, "velocity": 0, "time": 0, "type": "NormalMsg"}, "M_2637": {"note_status": 1, "channel": 1, "note": 50, "velocity": 107, "time": 0, "type": "NormalMsg"}, "M_2638": {"note_status": 1, "channel": 1, "note": 50, "velocity": 0, "time": 0, "type": "NormalMsg"}, "M_2639": {"note_status": 1, "channel": 1, "note": 50, "velocity": 97, "time": 0, "type": "NormalMsg"}, "M_2640": {"note_status": 1, "channel": 1, "note": 50, "velocity": 0, "time": 0, "type": "NormalMsg"}, "M_2641": {"note_status": 1, "channel": 1, "note": 50, "velocity": 107, "time": 0, "type": "NormalMsg"}, "M_2642": {"note_status": 1, "channel": 1, "note": 50, "velocity": 0, "time": 0, "type": "NormalMsg"}, "M_2643": {"note_status": 1, "channel": 1, "note": 53, "velocity": 101, "time": 0, "type": "NormalMsg"}, "M_2644": {"note_status": 1, "channel": 1, "note": 53, "velocity": 0, "time": 0, "type": "NormalMsg"}, "M_2645": {"note_status": 1, "channel": 1, "note": 50, "velocity": 107, "time": 0, "type": "NormalMsg"}, "M_2646": {"note_status": 1, "channel": 1, "note": 50, "velocity": 0, "time": 0, "type": "NormalMsg"}, "M_2647": {"note_status": 1, "channel": 1, "note": 55, "velocity": 107, "time": 0, "type": "NormalMsg"}, "M_2648": {"note_status": 1, "channel": 1, "note": 55, "velocity": 0, "time": 0, "type": "NormalMsg"}, "M_2649": {"note_status": 1, "channel": 1, "note": 55, "velocity": 107, "time": 0, "type": "NormalMsg"}, "M_2650": {"note_status": 1, "channel": 1, "note": 55, "velocity": 0, "time": 0, "type": "NormalMsg"}, "M_2651": {"note_status": 1, "channel": 1, "note": 55, "velocity": 85, "time": 0, "type": "NormalMsg"}, "M_2652": {"note_status": 1, "channel": 1, "note": 55, "velocity": 0, "time": 0, "type": "NormalMsg"}, "M_2653": {"note_status": 1, "channel": 1, "note": 55, "velocity": 107, "time": 0, "type": "NormalMsg"}, "M_2654": {"note_status": 1, "channel": 1, "note": 55, "velocity": 0, "time": 0, "type": "NormalMsg"}, "M_2655": {"note_status": 1, "channel": 1, "note": 55, "velocity": 107, "time": 0, "type": "NormalMsg"}, "M_2656": {"note_status": 1, "channel": 1, "note": 55, "velocity": 0, "time": 0, "type": "NormalMsg"}, "M_2657": {"note_status": 1, "channel": 1, "note": 55, "velocity": 107, "time": 0, "type": "NormalMsg"}, "M_2658": {"note_status": 1, "channel": 1, "note": 55, "velocity": 0, "time": 0, "type": "NormalMsg"}, "M_2659": {"note_status": 1, "channel": 1, "note": 55, "velocity": 107, "time": 0, "type": "NormalMsg"}, "M_2660": {"note_status": 1, "channel": 1, "note": 55, "velocity": 0, "time": 0, "type": "NormalMsg"}, "M_2661": {"note_status": 1, "channel": 1, "note": 53, "velocity": 97, "time": 0, "type": "NormalMsg"}, "M_2662": {"note_status": 1, "channel": 1, "note": 53, "velocity": 0, "time": 0, "type": "NormalMsg"}, "M_2663": {"note_status": 1, "channel": 1, "note": 55, "velocity": 107, "time": 0, "type": "NormalMsg"}, "M_2664": {"note_status": 1, "channel": 1, "note": 55, "velocity": 0, "time": 0, "type": "NormalMsg"}, "M_2665": {"note_status": 1, "channel": 1, "note": 57, "velocity": 107, "time": 0, "type": "NormalMsg"}, "M_2666": {"note_status": 1, "channel": 1, "note": 57, "velocity": 0, "time": 0, "type": "NormalMsg"}, "M_2667": {"note_status": 1, "channel": 1, "note": 57, "velocity": 107, "time": 0, "type": "NormalMsg"}, "M_2668": {"note_status": 1, "channel": 1, "note": 57, "velocity": 0, "time": 0, "type": "NormalMsg"}, "M_2669": {"note_status": 1, "channel": 1, "note": 57, "velocity": 97, "time": 0, "type": "NormalMsg"}, "M_2670": {"note_status": 1, "channel": 1, "note": 57, "velocity": 0, "time": 0, "type": "NormalMsg"}, "M_2671": {"note_status": 1, "channel": 1, "note": 57, "velocity": 107, "time": 0, "type": "NormalMsg"}, "M_2672": {"note_status": 1, "channel": 1, "note": 57, "velocity": 0, "time": 0, "type": "NormalMsg"}, "M_2673": {"note_status": 1, "channel": 1, "note": 57, "velocity": 101, "time": 0, "type": "NormalMsg"}, "M_2674": {"note_status": 1, "channel": 1, "note": 57, "velocity": 0, "time": 0, "type": "NormalMsg"}, "M_2675": {"note_status": 1, "channel": 1, "note": 55, "velocity": 107, "time": 0, "type": "NormalMsg"}, "M_2676": {"note_status": 1, "channel": 1, "note": 55, "velocity": 0, "time": 0, "type": "NormalMsg"}, "M_2677": {"note_status": 1, "channel": 1, "note": 53, "velocity": 107, "time": 0, "type": "NormalMsg"}, "M_2678": {"note_status": 1, "channel": 1, "note": 53, "velocity": 0, "time": 0, "type": "NormalMsg"}, "M_2679": {"note_status": 1, "channel": 1, "note": 53, "velocity": 107, "time": 0, "type": "NormalMsg"}, "M_2680": {"note_status": 1, "channel": 1, "note": 53, "velocity": 0, "time": 0, "type": "NormalMsg"}, "M_2681": {"note_status": 1, "channel": 1, "note": 53, "velocity": 85, "time": 0, "type": "NormalMsg"}, "M_2682": {"note_status": 1, "channel": 1, "note": 53, "velocity": 0, "time": 0, "type": "NormalMsg"}, "M_2683": {"note_status": 1, "channel": 1, "note": 53, "velocity": 107, "time": 0, "type": "NormalMsg"}, "M_2684": {"note_status": 1, "channel": 1, "note": 53, "velocity": 0, "time": 0, "type": "NormalMsg"}, "M_2685": {"note_status": 1, "channel": 1, "note": 53, "velocity": 107, "time": 0, "type": "NormalMsg"}, "M_2686": {"note_status": 1, "channel": 1, "note": 53, "velocity": 0, "time": 0, "type": "NormalMsg"}, "M_2687": {"note_status": 1, "channel": 1, "note": 53, "velocity": 107, "time": 0, "type": "NormalMsg"}, "M_2688": {"note_status": 1, "channel": 1, "note": 53, "velocity": 0, "time": 0, "type": "NormalMsg"}, "M_2689": {"note_status": 1, "channel": 1, "note": 53, "velocity": 107, "time": 0, "type": "NormalMsg"}, "M_2690": {"note_status": 1, "channel": 1, "note": 53, "velocity": 0, "time": 0, "type": "NormalMsg"}, "M_2691": {"note_status": 1, "channel": 1, "note": 53, "velocity": 97, "time": 0, "type": "NormalMsg"}, "M_2692": {"note_status": 1, "channel": 1, "note": 53, "velocity": 0, "time": 0, "type": "NormalMsg"}, "M_2693": {"note_status": 1, "channel": 1, "note": 52, "velocity": 107, "time": 0, "type": "NormalMsg"}, "M_2694": {"note_status": 1, "channel": 1, "note": 52, "velocity": 0, "time": 0, "type": "NormalMsg"}, "M_2695": {"note_status": 1, "channel": 1, "note": 50, "velocity": 107, "time": 0, "type": "NormalMsg"}, "M_2696": {"note_status": 1, "channel": 1, "note": 50, "velocity": 0, "time": 0, "type": "NormalMsg"}, "M_2697": {"note_status": 1, "channel": 1, "note": 50, "velocity": 107, "time": 0, "type": "NormalMsg"}, "M_2698": {"note_status": 1, "channel": 1, "note": 50, "velocity": 0, "time": 0, "type": "NormalMsg"}, "M_2699": {"note_status": 1, "channel": 1, "note": 50, "velocity": 97, "time": 0, "type": "NormalMsg"}, "M_2700": {"note_status": 1, "channel": 1, "note": 50, "velocity": 0, "time": 0, "type": "NormalMsg"}, "M_2701": {"note_status": 1, "channel": 1, "note": 50, "velocity": 107, "time": 0, "type": "NormalMsg"}, "M_2702": {"note_status": 1, "channel": 1, "note": 50, "velocity": 0, "time": 0, "type": "NormalMsg"}, "M_2703": {"note_status": 1, "channel": 1, "note": 53, "velocity": 101, "time": 0, "type": "NormalMsg"}, "M_2704": {"note_status": 1, "channel": 1, "note": 53, "velocity": 0, "time": 0, "type": "NormalMsg"}, "M_2705": {"note_status": 1, "channel": 1, "note": 50, "velocity": 107, "time": 0, "type": "NormalMsg"}, "M_2706": {"note_status": 1, "channel": 1, "note": 50, "velocity": 0, "time": 0, "type": "NormalMsg"}, "M_2707": {"note_status": 1, "channel": 1, "note": 55, "velocity": 107, "time": 0, "type": "NormalMsg"}, "M_2708": {"note_status": 1, "channel": 1, "note": 55, "velocity": 0, "time": 0, "type": "NormalMsg"}, "M_2709": {"note_status": 1, "channel": 1, "note": 55, "velocity": 107, "time": 0, "type": "NormalMsg"}, "M_2710": {"note_status": 1, "channel": 1, "note": 55, "velocity": 0, "time": 0, "type": "NormalMsg"}, "M_2711": {"note_status": 1, "channel": 1, "note": 55, "velocity": 85, "time": 0, "type": "NormalMsg"}, "M_2712": {"note_status": 1, "channel": 1, "note": 55, "velocity": 0, "time": 0, "type": "NormalMsg"}, "M_2713": {"note_status": 1, "channel": 1, "note": 55, "velocity": 107, "time": 0, "type": "NormalMsg"}, "M_2714": {"note_status": 1, "channel": 1, "note": 55, "velocity": 0, "time": 0, "type": "NormalMsg"}, "M_2715": {"note_status": 1, "channel": 1, "note": 55, "velocity": 107, "time": 0, "type": "NormalMsg"}, "M_2716": {"note_status": 1, "channel": 1, "note": 55, "velocity": 0, "time": 0, "type": "NormalMsg"}, "M_2717": {"note_status": 1, "channel": 1, "note": 55, "velocity": 107, "time": 0, "type": "NormalMsg"}, "M_2718": {"note_status": 1, "channel": 1, "note": 55, "velocity": 0, "time": 0, "type": "NormalMsg"}, "M_2719": {"note_status": 1, "channel": 1, "note": 55, "velocity": 107, "time": 0, "type": "NormalMsg"}, "M_2720": {"note_status": 1, "channel": 1, "note": 55, "velocity": 0, "time": 0, "type": "NormalMsg"}, "M_2721": {"note_status": 1, "channel": 1, "note": 53, "velocity": 97, "time": 0, "type": "NormalMsg"}, "M_2722": {"note_status": 1, "channel": 1, "note": 53, "velocity": 0, "time": 0, "type": "NormalMsg"}, "M_2723": {"note_status": 1, "channel": 1, "note": 55, "velocity": 107, "time": 0, "type": "NormalMsg"}, "M_2724": {"note_status": 1, "channel": 1, "note": 55, "velocity": 0, "time": 0, "type": "NormalMsg"}, "M_2725": {"note_status": 1, "channel": 1, "note": 57, "velocity": 107, "time": 0, "type": "NormalMsg"}, "M_2726": {"note_status": 1, "channel": 1, "note": 57, "velocity": 0, "time": 0, "type": "NormalMsg"}, "M_2727": {"note_status": 1, "channel": 1, "note": 57, "velocity": 107, "time": 0, "type": "NormalMsg"}, "M_2728": {"note_status": 1, "channel": 1, "note": 57, "velocity": 0, "time": 0, "type": "NormalMsg"}, "M_2729": {"note_status": 1, "channel": 1, "note": 57, "velocity": 97, "time": 0, "type": "NormalMsg"}, "M_2730": {"note_status": 1, "channel": 1, "note": 57, "velocity": 0, "time": 0, "type": "NormalMsg"}, "M_2731": {"note_status": 1, "channel": 1, "note": 57, "velocity": 107, "time": 0, "type": "NormalMsg"}, "M_2732": {"note_status": 1, "channel": 1, "note": 57, "velocity": 0, "time": 0, "type": "NormalMsg"}, "M_2733": {"note_status": 1, "channel": 1, "note": 57, "velocity": 101, "time": 0, "type": "NormalMsg"}, "M_2734": {"note_status": 1, "channel": 1, "note": 57, "velocity": 0, "time": 0, "type": "NormalMsg"}, "M_2735": {"note_status": 1, "channel": 1, "note": 55, "velocity": 107, "time": 0, "type": "NormalMsg"}, "M_2736": {"note_status": 1, "channel": 1, "note": 55, "velocity": 0, "time": 0, "type": "NormalMsg"}, "M_2737": {"note_status": 1, "channel": 1, "note": 53, "velocity": 107, "time": 0, "type": "NormalMsg"}, "M_2738": {"note_status": 1, "channel": 1, "note": 53, "velocity": 0, "time": 0, "type": "NormalMsg"}, "M_2739": {"note_status": 1, "channel": 1, "note": 53, "velocity": 107, "time": 0, "type": "NormalMsg"}, "M_2740": {"note_status": 1, "channel": 1, "note": 53, "velocity": 0, "time": 0, "type": "NormalMsg"}, "M_2741": {"note_status": 1, "channel": 1, "note": 53, "velocity": 85, "time": 0, "type": "NormalMsg"}, "M_2742": {"note_status": 1, "channel": 1, "note": 53, "velocity": 0, "time": 0, "type": "NormalMsg"}, "M_2743": {"note_status": 1, "channel": 1, "note": 53, "velocity": 107, "time": 0, "type": "NormalMsg"}, "M_2744": {"note_status": 1, "channel": 1, "note": 53, "velocity": 0, "time": 0, "type": "NormalMsg"}, "M_2745": {"note_status": 1, "channel": 1, "note": 53, "velocity": 107, "time": 0, "type": "NormalMsg"}, "M_2746": {"note_status": 1, "channel": 1, "note": 53, "velocity": 0, "time": 0, "type": "NormalMsg"}, "M_2747": {"note_status": 1, "channel": 1, "note": 53, "velocity": 107, "time": 0, "type": "NormalMsg"}, "M_2748": {"note_status": 1, "channel": 1, "note": 53, "velocity": 0, "time": 0, "type": "NormalMsg"}, "M_2749": {"note_status": 1, "channel": 1, "note": 53, "velocity": 107, "time": 0, "type": "NormalMsg"}, "M_2750": {"note_status": 1, "channel": 1, "note": 53, "velocity": 0, "time": 0, "type": "NormalMsg"}, "M_2751": {"note_status": 1, "channel": 1, "note": 53, "velocity": 97, "time": 0, "type": "NormalMsg"}, "M_2752": {"note_status": 1, "channel": 1, "note": 53, "velocity": 0, "time": 0, "type": "NormalMsg"}, "M_2753": {"note_status": 1, "channel": 1, "note": 52, "velocity": 107, "time": 0, "type": "NormalMsg"}, "M_2754": {"note_status": 1, "channel": 1, "note": 52, "velocity": 0, "time": 0, "type": "NormalMsg"}, "M_2755": {"note_status": 1, "channel": 1, "note": 55, "velocity": 107, "time": 0, "type": "NormalMsg"}, "M_2756": {"note_status": 1, "channel": 1, "note": 55, "velocity": 0, "time": 0, "type": "NormalMsg"}, "M_2757": {"note_status": 1, "channel": 1, "note": 55, "velocity": 107, "time": 0, "type": "NormalMsg"}, "M_2758": {"note_status": 1, "channel": 1, "note": 55, "velocity": 0, "time": 0, "type": "NormalMsg"}, "M_2759": {"note_status": 1, "channel": 1, "note": 55, "velocity": 107, "time": 0, "type": "NormalMsg"}, "M_2760": {"note_status": 1, "channel": 1, "note": 55, "velocity": 0, "time": 0, "type": "NormalMsg"}, "M_2761": {"note_status": 1, "channel": 1, "note": 55, "velocity": 107, "time": 0, "type": "NormalMsg"}, "M_2762": {"note_status": 1, "channel": 1, "note": 55, "velocity": 0, "time": 0, "type": "NormalMsg"}, "M_2763": {"note_status": 1, "channel": 1, "note": 60, "velocity": 97, "time": 0, "type": "NormalMsg"}, "M_2764": {"note_status": 1, "channel": 1, "note": 60, "velocity": 0, "time": 0, "type": "NormalMsg"}, "M_2765": {"note_status": 1, "channel": 1, "note": 55, "velocity": 107, "time": 0, "type": "NormalMsg"}, "M_2766": {"note_status": 1, "channel": 1, "note": 55, "velocity": 0, "time": 0, "type": "NormalMsg"}, "M_2767": {"note_status": 1, "channel": 1, "note": 57, "velocity": 107, "time": 0, "type": "NormalMsg"}, "M_2768": {"note_status": 1, "channel": 1, "note": 57, "velocity": 0, "time": 0, "type": "NormalMsg"}, "M_2769": {"note_status": 1, "channel": 1, "note": 57, "velocity": 107, "time": 0, "type": "NormalMsg"}, "M_2770": {"note_status": 1, "channel": 1, "note": 57, "velocity": 0, "time": 0, "type": "NormalMsg"}, "M_2771": {"note_status": 1, "channel": 1, "note": 57, "velocity": 97, "time": 0, "type": "NormalMsg"}, "M_2772": {"note_status": 1, "channel": 1, "note": 57, "velocity": 0, "time": 0, "type": "NormalMsg"}, "M_2773": {"note_status": 1, "channel": 1, "note": 57, "velocity": 107, "time": 0, "type": "NormalMsg"}, "M_2774": {"note_status": 1, "channel": 1, "note": 57, "velocity": 0, "time": 0, "type": "NormalMsg"}, "M_2775": {"note_status": 1, "channel": 1, "note": 57, "velocity": 101, "time": 0, "type": "NormalMsg"}, "M_2776": {"note_status": 1, "channel": 1, "note": 57, "velocity": 0, "time": 0, "type": "NormalMsg"}, "M_2777": {"note_status": 1, "channel": 1, "note": 55, "velocity": 107, "time": 0, "type": "NormalMsg"}, "M_2778": {"note_status": 1, "channel": 1, "note": 55, "velocity": 0, "time": 0, "type": "NormalMsg"}, "M_2779": {"note_status": 1, "channel": 1, "note": 53, "velocity": 107, "time": 0, "type": "NormalMsg"}, "M_2780": {"note_status": 1, "channel": 1, "note": 53, "velocity": 0, "time": 0, "type": "NormalMsg"}, "M_2781": {"note_status": 1, "channel": 1, "note": 53, "velocity": 107, "time": 0, "type": "NormalMsg"}, "M_2782": {"note_status": 1, "channel": 1, "note": 53, "velocity": 0, "time": 0, "type": "NormalMsg"}, "M_2783": {"note_status": 1, "channel": 1, "note": 53, "velocity": 85, "time": 0, "type": "NormalMsg"}, "M_2784": {"note_status": 1, "channel": 1, "note": 53, "velocity": 0, "time": 0, "type": "NormalMsg"}, "M_2785": {"note_status": 1, "channel": 1, "note": 53, "velocity": 107, "time": 0, "type": "NormalMsg"}, "M_2786": {"note_status": 1, "channel": 1, "note": 53, "velocity": 0, "time": 0, "type": "NormalMsg"}, "M_2787": {"note_status": 1, "channel": 1, "note": 53, "velocity": 107, "time": 0, "type": "NormalMsg"}, "M_2788": {"note_status": 1, "channel": 1, "note": 53, "velocity": 0, "time": 0, "type": "NormalMsg"}, "M_2789": {"note_status": 1, "channel": 1, "note": 53, "velocity": 107, "time": 0, "type": "NormalMsg"}, "M_2790": {"note_status": 1, "channel": 1, "note": 53, "velocity": 0, "time": 0, "type": "NormalMsg"}, "M_2791": {"note_status": 1, "channel": 1, "note": 53, "velocity": 107, "time": 0, "type": "NormalMsg"}, "M_2792": {"note_status": 1, "channel": 1, "note": 53, "velocity": 0, "time": 0, "type": "NormalMsg"}, "M_2793": {"note_status": 1, "channel": 1, "note": 53, "velocity": 97, "time": 0, "type": "NormalMsg"}, "M_2794": {"note_status": 1, "channel": 1, "note": 53, "velocity": 0, "time": 0, "type": "NormalMsg"}, "M_2795": {"note_status": 1, "channel": 1, "note": 52, "velocity": 107, "time": 0, "type": "NormalMsg"}, "M_2796": {"note_status": 1, "channel": 1, "note": 52, "velocity": 0, "time": 0, "type": "NormalMsg"}, "M_2797": {"note_status": 1, "channel": 1, "note": 50, "velocity": 107, "time": 0, "type": "NormalMsg"}, "M_2798": {"note_status": 1, "channel": 1, "note": 50, "velocity": 0, "time": 0, "type": "NormalMsg"}, "M_2799": {"note_status": 1, "channel": 1, "note": 50, "velocity": 107, "time": 0, "type": "NormalMsg"}, "M_2800": {"note_status": 1, "channel": 1, "note": 50, "velocity": 0, "time": 0, "type": "NormalMsg"}, "M_2801": {"note_status": 1, "channel": 1, "note": 50, "velocity": 97, "time": 0, "type": "NormalMsg"}, "M_2802": {"note_status": 1, "channel": 1, "note": 50, "velocity": 0, "time": 0, "type": "NormalMsg"}, "M_2803": {"note_status": 1, "channel": 1, "note": 50, "velocity": 107, "time": 0, "type": "NormalMsg"}, "M_2804": {"note_status": 1, "channel": 1, "note": 50, "velocity": 0, "time": 0, "type": "NormalMsg"}, "M_2805": {"note_status": 1, "channel": 1, "note": 53, "velocity": 101, "time": 0, "type": "NormalMsg"}, "M_2806": {"note_status": 1, "channel": 1, "note": 53, "velocity": 0, "time": 0, "type": "NormalMsg"}, "M_2807": {"note_status": 1, "channel": 1, "note": 50, "velocity": 107, "time": 0, "type": "NormalMsg"}, "M_2808": {"note_status": 1, "channel": 1, "note": 50, "velocity": 0, "time": 0, "type": "NormalMsg"}, "M_2809": {"note_status": 1, "channel": 1, "note": 55, "velocity": 107, "time": 0, "type": "NormalMsg"}, "M_2810": {"note_status": 1, "channel": 1, "note": 55, "velocity": 0, "time": 0, "type": "NormalMsg"}, "M_2811": {"note_status": 1, "channel": 1, "note": 55, "velocity": 107, "time": 0, "type": "NormalMsg"}, "M_2812": {"note_status": 1, "channel": 1, "note": 55, "velocity": 0, "time": 0, "type": "NormalMsg"}, "M_2813": {"note_status": 1, "channel": 1, "note": 55, "velocity": 85, "time": 0, "type": "NormalMsg"}, "M_2814": {"note_status": 1, "channel": 1, "note": 55, "velocity": 0, "time": 0, "type": "NormalMsg"}, "M_2815": {"note_status": 1, "channel": 1, "note": 55, "velocity": 107, "time": 0, "type": "NormalMsg"}, "M_2816": {"note_status": 1, "channel": 1, "note": 55, "velocity": 0, "time": 0, "type": "NormalMsg"}, "M_2817": {"note_status": 1, "channel": 1, "note": 55, "velocity": 107, "time": 0, "type": "NormalMsg"}, "M_2818": {"note_status": 1, "channel": 1, "note": 55, "velocity": 0, "time": 0, "type": "NormalMsg"}, "M_2819": {"note_status": 1, "channel": 1, "note": 55, "velocity": 107, "time": 0, "type": "NormalMsg"}, "M_2820": {"note_status": 1, "channel": 1, "note": 55, "velocity": 0, "time": 0, "type": "NormalMsg"}, "M_2821": {"note_status": 1, "channel": 1, "note": 55, "velocity": 107, "time": 0, "type": "NormalMsg"}, "M_2822": {"note_status": 1, "channel": 1, "note": 55, "velocity": 0, "time": 0, "type": "NormalMsg"}, "M_2823": {"note_status": 1, "channel": 1, "note": 53, "velocity": 97, "time": 0, "type": "NormalMsg"}, "M_2824": {"note_status": 1, "channel": 1, "note": 53, "velocity": 0, "time": 0, "type": "NormalMsg"}, "M_2825": {"note_status": 1, "channel": 1, "note": 55, "velocity": 107, "time": 0, "type": "NormalMsg"}, "M_2826": {"note_status": 1, "channel": 1, "note": 55, "velocity": 0, "time": 0, "type": "NormalMsg"}, "M_2827": {"note_status": 1, "channel": 1, "note": 57, "velocity": 107, "time": 0, "type": "NormalMsg"}, "M_2828": {"note_status": 1, "channel": 1, "note": 57, "velocity": 0, "time": 0, "type": "NormalMsg"}, "M_2829": {"note_status": 1, "channel": 1, "note": 57, "velocity": 107, "time": 0, "type": "NormalMsg"}, "M_2830": {"note_status": 1, "channel": 1, "note": 57, "velocity": 0, "time": 0, "type": "NormalMsg"}, "M_2831": {"note_status": 1, "channel": 1, "note": 57, "velocity": 97, "time": 0, "type": "NormalMsg"}, "M_2832": {"note_status": 1, "channel": 1, "note": 57, "velocity": 0, "time": 0, "type": "NormalMsg"}, "M_2833": {"note_status": 1, "channel": 1, "note": 57, "velocity": 107, "time": 0, "type": "NormalMsg"}, "M_2834": {"note_status": 1, "channel": 1, "note": 57, "velocity": 0, "time": 0, "type": "NormalMsg"}, "M_2835": {"note_status": 1, "channel": 1, "note": 57, "velocity": 101, "time": 0, "type": "NormalMsg"}, "M_2836": {"note_status": 1, "channel": 1, "note": 57, "velocity": 0, "time": 0, "type": "NormalMsg"}, "M_2837": {"note_status": 1, "channel": 1, "note": 55, "velocity": 107, "time": 0, "type": "NormalMsg"}, "M_2838": {"note_status": 1, "channel": 1, "note": 55, "velocity": 0, "time": 0, "type": "NormalMsg"}, "M_2839": {"note_status": 1, "channel": 1, "note": 53, "velocity": 107, "time": 0, "type": "NormalMsg"}, "M_2840": {"note_status": 1, "channel": 1, "note": 53, "velocity": 0, "time": 0, "type": "NormalMsg"}, "M_2841": {"note_status": 1, "channel": 1, "note": 53, "velocity": 107, "time": 0, "type": "NormalMsg"}, "M_2842": {"note_status": 1, "channel": 1, "note": 53, "velocity": 0, "time": 0, "type": "NormalMsg"}, "M_2843": {"note_status": 1, "channel": 1, "note": 53, "velocity": 85, "time": 0, "type": "NormalMsg"}, "M_2844": {"note_status": 1, "channel": 1, "note": 53, "velocity": 0, "time": 0, "type": "NormalMsg"}, "M_2845": {"note_status": 1, "channel": 1, "note": 53, "velocity": 107, "time": 0, "type": "NormalMsg"}, "M_2846": {"note_status": 1, "channel": 1, "note": 53, "velocity": 0, "time": 0, "type": "NormalMsg"}, "M_2847": {"note_status": 1, "channel": 1, "note": 53, "velocity": 107, "time": 0, "type": "NormalMsg"}, "M_2848": {"note_status": 1, "channel": 1, "note": 53, "velocity": 0, "time": 0, "type": "NormalMsg"}, "M_2849": {"note_status": 1, "channel": 1, "note": 53, "velocity": 107, "time": 0, "type": "NormalMsg"}, "M_2850": {"note_status": 1, "channel": 1, "note": 53, "velocity": 0, "time": 0, "type": "NormalMsg"}, "M_2851": {"note_status": 1, "channel": 1, "note": 53, "velocity": 107, "time": 0, "type": "NormalMsg"}, "M_2852": {"note_status": 1, "channel": 1, "note": 53, "velocity": 0, "time": 0, "type": "NormalMsg"}, "M_2853": {"note_status": 1, "channel": 1, "note": 53, "velocity": 97, "time": 0, "type": "NormalMsg"}, "M_2854": {"note_status": 1, "channel": 1, "note": 53, "velocity": 0, "time": 0, "type": "NormalMsg"}, "M_2855": {"note_status": 1, "channel": 1, "note": 52, "velocity": 107, "time": 0, "type": "NormalMsg"}, "M_2856": {"note_status": 1, "channel": 1, "note": 52, "velocity": 0, "time": 0, "type": "NormalMsg"}, "M_2857": {"note_status": 1, "channel": 1, "note": 50, "velocity": 107, "time": 0, "type": "NormalMsg"}, "M_2858": {"note_status": 1, "channel": 1, "note": 50, "velocity": 0, "time": 0, "type": "NormalMsg"}, "M_2859": {"note_status": 1, "channel": 1, "note": 50, "velocity": 107, "time": 0, "type": "NormalMsg"}, "M_2860": {"note_status": 1, "channel": 1, "note": 50, "velocity": 0, "time": 0, "type": "NormalMsg"}, "M_2861": {"note_status": 1, "channel": 1, "note": 50, "velocity": 97, "time": 0, "type": "NormalMsg"}, "M_2862": {"note_status": 1, "channel": 1, "note": 50, "velocity": 0, "time": 0, "type": "NormalMsg"}, "M_2863": {"note_status": 1, "channel": 1, "note": 50, "velocity": 107, "time": 0, "type": "NormalMsg"}, "M_2864": {"note_status": 1, "channel": 1, "note": 50, "velocity": 0, "time": 0, "type": "NormalMsg"}, "M_2865": {"note_status": 1, "channel": 1, "note": 53, "velocity": 101, "time": 0, "type": "NormalMsg"}, "M_2866": {"note_status": 1, "channel": 1, "note": 53, "velocity": 0, "time": 0, "type": "NormalMsg"}, "M_2867": {"note_status": 1, "channel": 1, "note": 50, "velocity": 107, "time": 0, "type": "NormalMsg"}, "M_2868": {"note_status": 1, "channel": 1, "note": 50, "velocity": 0, "time": 0, "type": "NormalMsg"}, "M_2869": {"note_status": 1, "channel": 1, "note": 55, "velocity": 107, "time": 0, "type": "NormalMsg"}, "M_2870": {"note_status": 1, "channel": 1, "note": 55, "velocity": 0, "time": 0, "type": "NormalMsg"}, "M_2871": {"note_status": 1, "channel": 1, "note": 55, "velocity": 107, "time": 0, "type": "NormalMsg"}, "M_2872": {"note_status": 1, "channel": 1, "note": 55, "velocity": 0, "time": 0, "type": "NormalMsg"}, "M_2873": {"note_status": 1, "channel": 1, "note": 55, "velocity": 85, "time": 0, "type": "NormalMsg"}, "M_2874": {"note_status": 1, "channel": 1, "note": 55, "velocity": 0, "time": 0, "type": "NormalMsg"}, "M_2875": {"note_status": 1, "channel": 1, "note": 55, "velocity": 107, "time": 0, "type": "NormalMsg"}, "M_2876": {"note_status": 1, "channel": 1, "note": 55, "velocity": 0, "time": 0, "type": "NormalMsg"}, "M_2877": {"note_status": 1, "channel": 1, "note": 55, "velocity": 107, "time": 0, "type": "NormalMsg"}, "M_2878": {"note_status": 1, "channel": 1, "note": 55, "velocity": 0, "time": 0, "type": "NormalMsg"}, "M_2879": {"note_status": 1, "channel": 1, "note": 55, "velocity": 107, "time": 0, "type": "NormalMsg"}, "M_2880": {"note_status": 1, "channel": 1, "note": 55, "velocity": 0, "time": 0, "type": "NormalMsg"}, "M_2881": {"note_status": 1, "channel": 1, "note": 55, "velocity": 107, "time": 0, "type": "NormalMsg"}, "M_2882": {"note_status": 1, "channel": 1, "note": 55, "velocity": 0, "time": 0, "type": "NormalMsg"}, "M_2883": {"note_status": 1, "channel": 1, "note": 53, "velocity": 97, "time": 0, "type": "NormalMsg"}, "M_2884": {"note_status": 1, "channel": 1, "note": 53, "velocity": 0, "time": 0, "type": "NormalMsg"}, "M_2885": {"note_status": 1, "channel": 1, "note": 55, "velocity": 107, "time": 0, "type": "NormalMsg"}, "M_2886": {"note_status": 1, "channel": 1, "note": 55, "velocity": 0, "time": 0, "type": "NormalMsg"}, "M_2887": {"note_status": 1, "channel": 1, "note": 57, "velocity": 107, "time": 0, "type": "NormalMsg"}, "M_2888": {"note_status": 1, "channel": 1, "note": 57, "velocity": 0, "time": 0, "type": "NormalMsg"}, "M_2889": {"note_status": 1, "channel": 1, "note": 57, "velocity": 107, "time": 0, "type": "NormalMsg"}, "M_2890": {"note_status": 1, "channel": 1, "note": 57, "velocity": 0, "time": 0, "type": "NormalMsg"}, "M_2891": {"note_status": 1, "channel": 1, "note": 57, "velocity": 97, "time": 0, "type": "NormalMsg"}, "M_2892": {"note_status": 1, "channel": 1, "note": 57, "velocity": 0, "time": 0, "type": "NormalMsg"}, "M_2893": {"note_status": 1, "channel": 1, "note": 57, "velocity": 107, "time": 0, "type": "NormalMsg"}, "M_2894": {"note_status": 1, "channel": 1, "note": 57, "velocity": 0, "time": 0, "type": "NormalMsg"}, "M_2895": {"note_status": 1, "channel": 1, "note": 57, "velocity": 101, "time": 0, "type": "NormalMsg"}, "M_2896": {"note_status": 1, "channel": 1, "note": 57, "velocity": 0, "time": 0, "type": "NormalMsg"}, "M_2897": {"note_status": 1, "channel": 1, "note": 55, "velocity": 107, "time": 0, "type": "NormalMsg"}, "M_2898": {"note_status": 1, "channel": 1, "note": 55, "velocity": 0, "time": 0, "type": "NormalMsg"}, "M_2899": {"note_status": 1, "channel": 1, "note": 53, "velocity": 107, "time": 0, "type": "NormalMsg"}, "M_2900": {"note_status": 1, "channel": 1, "note": 53, "velocity": 0, "time": 0, "type": "NormalMsg"}, "M_2901": {"note_status": 1, "channel": 1, "note": 53, "velocity": 107, "time": 0, "type": "NormalMsg"}, "M_2902": {"note_status": 1, "channel": 1, "note": 53, "velocity": 0, "time": 0, "type": "NormalMsg"}, "M_2903": {"note_status": 1, "channel": 1, "note": 53, "velocity": 85, "time": 0, "type": "NormalMsg"}, "M_2904": {"note_status": 1, "channel": 1, "note": 53, "velocity": 0, "time": 0, "type": "NormalMsg"}, "M_2905": {"note_status": 1, "channel": 1, "note": 53, "velocity": 107, "time": 0, "type": "NormalMsg"}, "M_2906": {"note_status": 1, "channel": 1, "note": 53, "velocity": 0, "time": 0, "type": "NormalMsg"}, "M_2907": {"note_status": 1, "channel": 1, "note": 53, "velocity": 107, "time": 0, "type": "NormalMsg"}, "M_2908": {"note_status": 1, "channel": 1, "note": 53, "velocity": 0, "time": 0, "type": "NormalMsg"}, "M_2909": {"note_status": 1, "channel": 1, "note": 53, "velocity": 107, "time": 0, "type": "NormalMsg"}, "M_2910": {"note_status": 1, "channel": 1, "note": 53, "velocity": 0, "time": 0, "type": "NormalMsg"}, "M_2911": {"note_status": 1, "channel": 1, "note": 53, "velocity": 107, "time": 0, "type": "NormalMsg"}, "M_2912": {"note_status": 1, "channel": 1, "note": 53, "velocity": 0, "time": 0, "type": "NormalMsg"}, "M_2913": {"note_status": 1, "channel": 1, "note": 53, "velocity": 97, "time": 0, "type": "NormalMsg"}, "M_2914": {"note_status": 1, "channel": 1, "note": 53, "velocity": 0, "time": 0, "type": "NormalMsg"}, "M_2915": {"note_status": 1, "channel": 1, "note": 52, "velocity": 107, "time": 0, "type": "NormalMsg"}, "M_2916": {"note_status": 1, "channel": 1, "note": 52, "velocity": 0, "time": 0, "type": "NormalMsg"}, "M_2917": {"note_status": 1, "channel": 1, "note": 50, "velocity": 107, "time": 0, "type": "NormalMsg"}, "M_2918": {"note_status": 1, "channel": 1, "note": 50, "velocity": 0, "time": 0, "type": "NormalMsg"}, "M_2919": {"note_status": 1, "channel": 1, "note": 50, "velocity": 107, "time": 0, "type": "NormalMsg"}, "M_2920": {"note_status": 1, "channel": 1, "note": 50, "velocity": 0, "time": 0, "type": "NormalMsg"}, "M_2921": {"note_status": 1, "channel": 1, "note": 50, "velocity": 97, "time": 0, "type": "NormalMsg"}, "M_2922": {"note_status": 1, "channel": 1, "note": 50, "velocity": 0, "time": 0, "type": "NormalMsg"}, "M_2923": {"note_status": 1, "channel": 1, "note": 50, "velocity": 107, "time": 0, "type": "NormalMsg"}, "M_2924": {"note_status": 1, "channel": 1, "note": 50, "velocity": 0, "time": 0, "type": "NormalMsg"}, "M_2925": {"note_status": 1, "channel": 1, "note": 53, "velocity": 101, "time": 0, "type": "NormalMsg"}, "M_2926": {"note_status": 1, "channel": 1, "note": 53, "velocity": 0, "time": 0, "type": "NormalMsg"}, "M_2927": {"note_status": 1, "channel": 1, "note": 50, "velocity": 107, "time": 0, "type": "NormalMsg"}, "M_2928": {"note_status": 1, "channel": 1, "note": 50, "velocity": 0, "time": 0, "type": "NormalMsg"}, "M_2929": {"note_status": 1, "channel": 1, "note": 55, "velocity": 107, "time": 0, "type": "NormalMsg"}, "M_2930": {"note_status": 1, "channel": 1, "note": 55, "velocity": 0, "time": 0, "type": "NormalMsg"}, "M_2931": {"note_status": 1, "channel": 1, "note": 55, "velocity": 107, "time": 0, "type": "NormalMsg"}, "M_2932": {"note_status": 1, "channel": 1, "note": 55, "velocity": 0, "time": 0, "type": "NormalMsg"}, "M_2933": {"note_status": 1, "channel": 1, "note": 55, "velocity": 85, "time": 0, "type": "NormalMsg"}, "M_2934": {"note_status": 1, "channel": 1, "note": 55, "velocity": 0, "time": 0, "type": "NormalMsg"}, "M_2935": {"note_status": 1, "channel": 1, "note": 55, "velocity": 107, "time": 0, "type": "NormalMsg"}, "M_2936": {"note_status": 1, "channel": 1, "note": 55, "velocity": 0, "time": 0, "type": "NormalMsg"}, "M_2937": {"note_status": 1, "channel": 1, "note": 55, "velocity": 107, "time": 0, "type": "NormalMsg"}, "M_2938": {"note_status": 1, "channel": 1, "note": 55, "velocity": 0, "time": 0, "type": "NormalMsg"}, "M_2939": {"note_status": 1, "channel": 1, "note": 55, "velocity": 107, "time": 0, "type": "NormalMsg"}, "M_2940": {"note_status": 1, "channel": 1, "note": 55, "velocity": 0, "time": 0, "type": "NormalMsg"}, "M_2941": {"note_status": 1, "channel": 1, "note": 55, "velocity": 107, "time": 0, "type": "NormalMsg"}, "M_2942": {"note_status": 1, "channel": 1, "note": 55, "velocity": 0, "time": 0, "type": "NormalMsg"}, "M_2943": {"note_status": 1, "channel": 1, "note": 53, "velocity": 97, "time": 0, "type": "NormalMsg"}, "M_2944": {"note_status": 1, "channel": 1, "note": 53, "velocity": 0, "time": 0, "type": "NormalMsg"}, "M_2945": {"note_status": 1, "channel": 1, "note": 55, "velocity": 107, "time": 0, "type": "NormalMsg"}, "M_2946": {"note_status": 1, "channel": 1, "note": 55, "velocity": 0, "time": 0, "type": "NormalMsg"}, "M_2947": {"note_status": 1, "channel": 1, "note": 79, "velocity": 78, "time": 0, "type": "NormalMsg"}, "M_2948": {"note_status": 1, "channel": 1, "note": 79, "velocity": 0, "time": 0, "type": "NormalMsg"}, "M_2949": {"note_status": 1, "channel": 1, "note": 79, "velocity": 76, "time": 0, "type": "NormalMsg"}, "M_2950": {"note_status": 1, "channel": 1, "note": 79, "velocity": 0, "time": 0, "type": "NormalMsg"}, "M_2951": {"note_status": 1, "channel": 1, "note": 72, "velocity": 77, "time": 0, "type": "NormalMsg"}, "M_2952": {"note_status": 1, "channel": 1, "note": 72, "velocity": 0, "time": 0, "type": "NormalMsg"}, "M_2953": {"note_status": 1, "channel": 1, "note": 67, "velocity": 74, "time": 0, "type": "NormalMsg"}, "M_2954": {"note_status": 1, "channel": 1, "note": 67, "velocity": 0, "time": 0, "type": "NormalMsg"}, "M_2955": {"note_status": 1, "channel": 1, "note": 79, "velocity": 74, "time": 0, "type": "NormalMsg"}, "M_2956": {"note_status": 1, "channel": 1, "note": 79, "velocity": 0, "time": 0, "type": "NormalMsg"}, "M_2957": {"note_status": 1, "channel": 1, "note": 79, "velocity": 74, "time": 0, "type": "NormalMsg"}, "M_2958": {"note_status": 1, "channel": 1, "note": 72, "velocity": 74, "time": 0, "type": "NormalMsg"}, "M_2959": {"note_status": 1, "channel": 1, "note": 79, "velocity": 0, "time": 0, "type": "NormalMsg"}, "M_2960": {"note_status": 1, "channel": 1, "note": 72, "velocity": 0, "time": 0, "type": "NormalMsg"}, "M_2961": {"note_status": 1, "channel": 1, "note": 67, "velocity": 75, "time": 0, "type": "NormalMsg"}, "M_2962": {"note_status": 1, "channel": 1, "note": 67, "velocity": 0, "time": 0, "type": "NormalMsg"}, "M_2963": {"note_status": 1, "channel": 1, "note": 79, "velocity": 78, "time": 0, "type": "NormalMsg"}, "M_2964": {"note_status": 1, "channel": 1, "note": 79, "velocity": 0, "time": 0, "type": "NormalMsg"}, "M_2965": {"note_status": 1, "channel": 1, "note": 79, "velocity": 76, "time": 0, "type": "NormalMsg"}, "M_2966": {"note_status": 1, "channel": 1, "note": 79, "velocity": 0, "time": 0, "type": "NormalMsg"}, "M_2967": {"note_status": 1, "channel": 1, "note": 72, "velocity": 77, "time": 0, "type": "NormalMsg"}, "M_2968": {"note_status": 1, "channel": 1, "note": 72, "velocity": 0, "time": 0, "type": "NormalMsg"}, "M_2969": {"note_status": 1, "channel": 1, "note": 67, "velocity": 74, "time": 0, "type": "NormalMsg"}, "M_2970": {"note_status": 1, "channel": 1, "note": 67, "velocity": 0, "time": 0, "type": "NormalMsg"}, "M_2971": {"note_status": 1, "channel": 1, "note": 79, "velocity": 74, "time": 0, "type": "NormalMsg"}, "M_2972": {"note_status": 1, "channel": 1, "note": 79, "velocity": 0, "time": 0, "type": "NormalMsg"}, "M_2973": {"note_status": 1, "channel": 1, "note": 79, "velocity": 74, "time": 0, "type": "NormalMsg"}, "M_2974": {"note_status": 1, "channel": 1, "note": 72, "velocity": 74, "time": 0, "type": "NormalMsg"}, "M_2975": {"note_status": 1, "channel": 1, "note": 79, "velocity": 0, "time": 0, "type": "NormalMsg"}, "M_2976": {"note_status": 1, "channel": 1, "note": 72, "velocity": 0, "time": 0, "type": "NormalMsg"}, "M_2977": {"note_status": 1, "channel": 1, "note": 67, "velocity": 75, "time": 0, "type": "NormalMsg"}, "M_2978": {"note_status": 1, "channel": 1, "note": 67, "velocity": 0, "time": 0, "type": "NormalMsg"}, "M_2979": {"note_status": 1, "channel": 1, "note": 79, "velocity": 78, "time": 0, "type": "NormalMsg"}, "M_2980": {"note_status": 1, "channel": 1, "note": 79, "velocity": 0, "time": 0, "type": "NormalMsg"}, "M_2981": {"note_status": 1, "channel": 1, "note": 79, "velocity": 76, "time": 0, "type": "NormalMsg"}, "M_2982": {"note_status": 1, "channel": 1, "note": 79, "velocity": 0, "time": 0, "type": "NormalMsg"}, "M_2983": {"note_status": 1, "channel": 1, "note": 72, "velocity": 77, "time": 0, "type": "NormalMsg"}, "M_2984": {"note_status": 1, "channel": 1, "note": 72, "velocity": 0, "time": 0, "type": "NormalMsg"}, "M_2985": {"note_status": 1, "channel": 1, "note": 67, "velocity": 74, "time": 0, "type": "NormalMsg"}, "M_2986": {"note_status": 1, "channel": 1, "note": 67, "velocity": 0, "time": 0, "type": "NormalMsg"}, "M_2987": {"note_status": 1, "channel": 1, "note": 79, "velocity": 74, "time": 0, "type": "NormalMsg"}, "M_2988": {"note_status": 1, "channel": 1, "note": 79, "velocity": 0, "time": 0, "type": "NormalMsg"}, "M_2989": {"note_status": 1, "channel": 1, "note": 79, "velocity": 74, "time": 0, "type": "NormalMsg"}, "M_2990": {"note_status": 1, "channel": 1, "note": 72, "velocity": 74, "time": 0, "type": "NormalMsg"}, "M_2991": {"note_status": 1, "channel": 1, "note": 79, "velocity": 0, "time": 0, "type": "NormalMsg"}, "M_2992": {"note_status": 1, "channel": 1, "note": 72, "velocity": 0, "time": 0, "type": "NormalMsg"}, "M_2993": {"note_status": 1, "channel": 1, "note": 67, "velocity": 75, "time": 0, "type": "NormalMsg"}, "M_2994": {"note_status": 1, "channel": 1, "note": 67, "velocity": 0, "time": 0, "type": "NormalMsg"}, "M_2995": {"note_status": 1, "channel": 1, "note": 79, "velocity": 78, "time": 0, "type": "NormalMsg"}, "M_2996": {"note_status": 1, "channel": 1, "note": 79, "velocity": 0, "time": 0, "type": "NormalMsg"}, "M_2997": {"note_status": 1, "channel": 1, "note": 79, "velocity": 76, "time": 0, "type": "NormalMsg"}, "M_2998": {"note_status": 1, "channel": 1, "note": 79, "velocity": 0, "time": 0, "type": "NormalMsg"}, "M_2999": {"note_status": 1, "channel": 1, "note": 72, "velocity": 77, "time": 0, "type": "NormalMsg"}, "M_3000": {"note_status": 1, "channel": 1, "note": 72, "velocity": 0, "time": 0, "type": "NormalMsg"}, "M_3001": {"note_status": 1, "channel": 1, "note": 67, "velocity": 74, "time": 0, "type": "NormalMsg"}, "M_3002": {"note_status": 1, "channel": 1, "note": 67, "velocity": 0, "time": 0, "type": "NormalMsg"}, "M_3003": {"note_status": 1, "channel": 1, "note": 79, "velocity": 74, "time": 0, "type": "NormalMsg"}, "M_3004": {"note_status": 1, "channel": 1, "note": 79, "velocity": 0, "time": 0, "type": "NormalMsg"}, "M_3005": {"note_status": 1, "channel": 1, "note": 79, "velocity": 74, "time": 0, "type": "NormalMsg"}, "M_3006": {"note_status": 1, "channel": 1, "note": 72, "velocity": 74, "time": 0, "type": "NormalMsg"}, "M_3007": {"note_status": 1, "channel": 1, "note": 79, "velocity": 0, "time": 0, "type": "NormalMsg"}, "M_3008": {"note_status": 1, "channel": 1, "note": 72, "velocity": 0, "time": 0, "type": "NormalMsg"}, "M_3009": {"note_status": 1, "channel": 1, "note": 67, "velocity": 75, "time": 0, "type": "NormalMsg"}, "M_3010": {"note_status": 1, "channel": 1, "note": 67, "velocity": 0, "time": 0, "type": "NormalMsg"}, "M_3011": {"note_status": 1, "channel": 1, "note": 79, "velocity": 78, "time": 0, "type": "NormalMsg"}, "M_3012": {"note_status": 1, "channel": 1, "note": 79, "velocity": 0, "time": 0, "type": "NormalMsg"}, "M_3013": {"note_status": 1, "channel": 1, "note": 79, "velocity": 76, "time": 0, "type": "NormalMsg"}, "M_3014": {"note_status": 1, "channel": 1, "note": 79, "velocity": 0, "time": 0, "type": "NormalMsg"}, "M_3015": {"note_status": 1, "channel": 1, "note": 72, "velocity": 77, "time": 0, "type": "NormalMsg"}, "M_3016": {"note_status": 1, "channel": 1, "note": 72, "velocity": 0, "time": 0, "type": "NormalMsg"}, "M_3017": {"note_status": 1, "channel": 1, "note": 67, "velocity": 74, "time": 0, "type": "NormalMsg"}, "M_3018": {"note_status": 1, "channel": 1, "note": 67, "velocity": 0, "time": 0, "type": "NormalMsg"}, "M_3019": {"note_status": 1, "channel": 1, "note": 79, "velocity": 74, "time": 0, "type": "NormalMsg"}, "M_3020": {"note_status": 1, "channel": 1, "note": 79, "velocity": 0, "time": 0, "type": "NormalMsg"}, "M_3021": {"note_status": 1, "channel": 1, "note": 79, "velocity": 74, "time": 0, "type": "NormalMsg"}, "M_3022": {"note_status": 1, "channel": 1, "note": 72, "velocity": 74, "time": 0, "type": "NormalMsg"}, "M_3023": {"note_status": 1, "channel": 1, "note": 79, "velocity": 0, "time": 0, "type": "NormalMsg"}, "M_3024": {"note_status": 1, "channel": 1, "note": 72, "velocity": 0, "time": 0, "type": "NormalMsg"}, "M_3025": {"note_status": 1, "channel": 1, "note": 67, "velocity": 75, "time": 0, "type": "NormalMsg"}, "M_3026": {"note_status": 1, "channel": 1, "note": 67, "velocity": 0, "time": 0, "type": "NormalMsg"}, "M_3027": {"note_status": 1, "channel": 1, "note": 79, "velocity": 78, "time": 0, "type": "NormalMsg"}, "M_3028": {"note_status": 1, "channel": 1, "note": 79, "velocity": 0, "time": 0, "type": "NormalMsg"}, "M_3029": {"note_status": 1, "channel": 1, "note": 79, "velocity": 76, "time": 0, "type": "NormalMsg"}, "M_3030": {"note_status": 1, "channel": 1, "note": 79, "velocity": 0, "time": 0, "type": "NormalMsg"}, "M_3031": {"note_status": 1, "channel": 1, "note": 72, "velocity": 77, "time": 0, "type": "NormalMsg"}, "M_3032": {"note_status": 1, "channel": 1, "note": 72, "velocity": 0, "time": 0, "type": "NormalMsg"}, "M_3033": {"note_status": 1, "channel": 1, "note": 67, "velocity": 74, "time": 0, "type": "NormalMsg"}, "M_3034": {"note_status": 1, "channel": 1, "note": 67, "velocity": 0, "time": 0, "type": "NormalMsg"}, "M_3035": {"note_status": 1, "channel": 1, "note": 79, "velocity": 74, "time": 0, "type": "NormalMsg"}, "M_3036": {"note_status": 1, "channel": 1, "note": 79, "velocity": 0, "time": 0, "type": "NormalMsg"}, "M_3037": {"note_status": 1, "channel": 1, "note": 79, "velocity": 74, "time": 0, "type": "NormalMsg"}, "M_3038": {"note_status": 1, "channel": 1, "note": 72, "velocity": 74, "time": 0, "type": "NormalMsg"}, "M_3039": {"note_status": 1, "channel": 1, "note": 79, "velocity": 0, "time": 0, "type": "NormalMsg"}, "M_3040": {"note_status": 1, "channel": 1, "note": 72, "velocity": 0, "time": 0, "type": "NormalMsg"}, "M_3041": {"note_status": 1, "channel": 1, "note": 67, "velocity": 75, "time": 0, "type": "NormalMsg"}, "M_3042": {"note_status": 1, "channel": 1, "note": 67, "velocity": 0, "time": 0, "type": "NormalMsg"}, "M_3043": {"note_status": 1, "channel": 1, "note": 79, "velocity": 78, "time": 0, "type": "NormalMsg"}, "M_3044": {"note_status": 1, "channel": 1, "note": 79, "velocity": 0, "time": 0, "type": "NormalMsg"}, "M_3045": {"note_status": 1, "channel": 1, "note": 79, "velocity": 76, "time": 0, "type": "NormalMsg"}, "M_3046": {"note_status": 1, "channel": 1, "note": 79, "velocity": 0, "time": 0, "type": "NormalMsg"}, "M_3047": {"note_status": 1, "channel": 1, "note": 72, "velocity": 77, "time": 0, "type": "NormalMsg"}, "M_3048": {"note_status": 1, "channel": 1, "note": 72, "velocity": 0, "time": 0, "type": "NormalMsg"}, "M_3049": {"note_status": 1, "channel": 1, "note": 67, "velocity": 74, "time": 0, "type": "NormalMsg"}, "M_3050": {"note_status": 1, "channel": 1, "note": 67, "velocity": 0, "time": 0, "type": "NormalMsg"}, "M_3051": {"note_status": 1, "channel": 1, "note": 79, "velocity": 74, "time": 0, "type": "NormalMsg"}, "M_3052": {"note_status": 1, "channel": 1, "note": 79, "velocity": 0, "time": 0, "type": "NormalMsg"}, "M_3053": {"note_status": 1, "channel": 1, "note": 57, "velocity": 107, "time": 0, "type": "NormalMsg"}, "M_3054": {"note_status": 1, "channel": 1, "note": 57, "velocity": 0, "time": 0, "type": "NormalMsg"}, "M_3055": {"note_status": 1, "channel": 1, "note": 57, "velocity": 107, "time": 0, "type": "NormalMsg"}, "M_3056": {"note_status": 1, "channel": 1, "note": 57, "velocity": 0, "time": 0, "type": "NormalMsg"}, "M_3057": {"note_status": 1, "channel": 1, "note": 57, "velocity": 97, "time": 0, "type": "NormalMsg"}, "M_3058": {"note_status": 1, "channel": 1, "note": 57, "velocity": 0, "time": 0, "type": "NormalMsg"}, "M_3059": {"note_status": 1, "channel": 1, "note": 57, "velocity": 107, "time": 0, "type": "NormalMsg"}, "M_3060": {"note_status": 1, "channel": 1, "note": 57, "velocity": 0, "time": 0, "type": "NormalMsg"}, "M_3061": {"note_status": 1, "channel": 1, "note": 57, "velocity": 101, "time": 0, "type": "NormalMsg"}, "M_3062": {"note_status": 1, "channel": 1, "note": 57, "velocity": 0, "time": 0, "type": "NormalMsg"}, "M_3063": {"note_status": 1, "channel": 1, "note": 55, "velocity": 107, "time": 0, "type": "NormalMsg"}, "M_3064": {"note_status": 1, "channel": 1, "note": 55, "velocity": 0, "time": 0, "type": "NormalMsg"}, "M_3065": {"note_status": 1, "channel": 1, "note": 53, "velocity": 107, "time": 0, "type": "NormalMsg"}, "M_3066": {"note_status": 1, "channel": 1, "note": 53, "velocity": 0, "time": 0, "type": "NormalMsg"}, "M_3067": {"note_status": 1, "channel": 1, "note": 53, "velocity": 107, "time": 0, "type": "NormalMsg"}, "M_3068": {"note_status": 1, "channel": 1, "note": 53, "velocity": 0, "time": 0, "type": "NormalMsg"}, "M_3069": {"note_status": 1, "channel": 1, "note": 53, "velocity": 85, "time": 0, "type": "NormalMsg"}, "M_3070": {"note_status": 1, "channel": 1, "note": 53, "velocity": 0, "time": 0, "type": "NormalMsg"}, "M_3071": {"note_status": 1, "channel": 1, "note": 53, "velocity": 107, "time": 0, "type": "NormalMsg"}, "M_3072": {"note_status": 1, "channel": 1, "note": 53, "velocity": 0, "time": 0, "type": "NormalMsg"}, "M_3073": {"note_status": 1, "channel": 1, "note": 53, "velocity": 107, "time": 0, "type": "NormalMsg"}, "M_3074": {"note_status": 1, "channel": 1, "note": 53, "velocity": 0, "time": 0, "type": "NormalMsg"}, "M_3075": {"note_status": 1, "channel": 1, "note": 53, "velocity": 107, "time": 0, "type": "NormalMsg"}, "M_3076": {"note_status": 1, "channel": 1, "note": 53, "velocity": 0, "time": 0, "type": "NormalMsg"}, "M_3077": {"note_status": 1, "channel": 1, "note": 53, "velocity": 107, "time": 0, "type": "NormalMsg"}, "M_3078": {"note_status": 1, "channel": 1, "note": 53, "velocity": 0, "time": 0, "type": "NormalMsg"}, "M_3079": {"note_status": 1, "channel": 1, "note": 53, "velocity": 97, "time": 0, "type": "NormalMsg"}, "M_3080": {"note_status": 1, "channel": 1, "note": 53, "velocity": 0, "time": 0, "type": "NormalMsg"}, "M_3081": {"note_status": 1, "channel": 1, "note": 52, "velocity": 107, "time": 0, "type": "NormalMsg"}, "M_3082": {"note_status": 1, "channel": 1, "note": 52, "velocity": 0, "time": 0, "type": "NormalMsg"}, "M_3083": {"note_status": 1, "channel": 1, "note": 50, "velocity": 107, "time": 0, "type": "NormalMsg"}, "M_3084": {"note_status": 1, "channel": 1, "note": 50, "velocity": 0, "time": 0, "type": "NormalMsg"}, "M_3085": {"note_status": 1, "channel": 1, "note": 50, "velocity": 107, "time": 0, "type": "NormalMsg"}, "M_3086": {"note_status": 1, "channel": 1, "note": 50, "velocity": 0, "time": 0, "type": "NormalMsg"}, "M_3087": {"note_status": 1, "channel": 1, "note": 50, "velocity": 97, "time": 0, "type": "NormalMsg"}, "M_3088": {"note_status": 1, "channel": 1, "note": 50, "velocity": 0, "time": 0, "type": "NormalMsg"}, "M_3089": {"note_status": 1, "channel": 1, "note": 50, "velocity": 107, "time": 0, "type": "NormalMsg"}, "M_3090": {"note_status": 1, "channel": 1, "note": 50, "velocity": 0, "time": 0, "type": "NormalMsg"}, "M_3091": {"note_status": 1, "channel": 1, "note": 53, "velocity": 101, "time": 0, "type": "NormalMsg"}, "M_3092": {"note_status": 1, "channel": 1, "note": 53, "velocity": 0, "time": 0, "type": "NormalMsg"}, "M_3093": {"note_status": 1, "channel": 1, "note": 50, "velocity": 107, "time": 0, "type": "NormalMsg"}, "M_3094": {"note_status": 1, "channel": 1, "note": 50, "velocity": 0, "time": 0, "type": "NormalMsg"}, "M_3095": {"note_status": 1, "channel": 1, "note": 55, "velocity": 107, "time": 0, "type": "NormalMsg"}, "M_3096": {"note_status": 1, "channel": 1, "note": 55, "velocity": 0, "time": 0, "type": "NormalMsg"}, "M_3097": {"note_status": 1, "channel": 1, "note": 55, "velocity": 107, "time": 0, "type": "NormalMsg"}, "M_3098": {"note_status": 1, "channel": 1, "note": 55, "velocity": 0, "time": 0, "type": "NormalMsg"}, "M_3099": {"note_status": 1, "channel": 1, "note": 55, "velocity": 85, "time": 0, "type": "NormalMsg"}, "M_3100": {"note_status": 1, "channel": 1, "note": 55, "velocity": 0, "time": 0, "type": "NormalMsg"}, "M_3101": {"note_status": 1, "channel": 1, "note": 55, "velocity": 107, "time": 0, "type": "NormalMsg"}, "M_3102": {"note_status": 1, "channel": 1, "note": 55, "velocity": 0, "time": 0, "type": "NormalMsg"}, "M_3103": {"note_status": 1, "channel": 1, "note": 55, "velocity": 107, "time": 0, "type": "NormalMsg"}, "M_3104": {"note_status": 1, "channel": 1, "note": 55, "velocity": 0, "time": 0, "type": "NormalMsg"}, "M_3105": {"note_status": 1, "channel": 1, "note": 55, "velocity": 107, "time": 0, "type": "NormalMsg"}, "M_3106": {"note_status": 1, "channel": 1, "note": 55, "velocity": 0, "time": 0, "type": "NormalMsg"}, "M_3107": {"note_status": 1, "channel": 1, "note": 55, "velocity": 107, "time": 0, "type": "NormalMsg"}, "M_3108": {"note_status": 1, "channel": 1, "note": 55, "velocity": 0, "time": 0, "type": "NormalMsg"}, "M_3109": {"note_status": 1, "channel": 1, "note": 53, "velocity": 97, "time": 0, "type": "NormalMsg"}, "M_3110": {"note_status": 1, "channel": 1, "note": 53, "velocity": 0, "time": 0, "type": "NormalMsg"}, "M_3111": {"note_status": 1, "channel": 1, "note": 55, "velocity": 107, "time": 0, "type": "NormalMsg"}, "M_3112": {"note_status": 1, "channel": 1, "note": 55, "velocity": 0, "time": 0, "type": "NormalMsg"}, "M_3113": {"note_status": 1, "channel": 1, "note": 57, "velocity": 107, "time": 0, "type": "NormalMsg"}, "M_3114": {"note_status": 1, "channel": 1, "note": 57, "velocity": 0, "time": 0, "type": "NormalMsg"}, "M_3115": {"note_status": 1, "channel": 1, "note": 57, "velocity": 107, "time": 0, "type": "NormalMsg"}, "M_3116": {"note_status": 1, "channel": 1, "note": 57, "velocity": 0, "time": 0, "type": "NormalMsg"}, "M_3117": {"note_status": 1, "channel": 1, "note": 57, "velocity": 97, "time": 0, "type": "NormalMsg"}, "M_3118": {"note_status": 1, "channel": 1, "note": 57, "velocity": 0, "time": 0, "type": "NormalMsg"}, "M_3119": {"note_status": 1, "channel": 1, "note": 57, "velocity": 107, "time": 0, "type": "NormalMsg"}, "M_3120": {"note_status": 1, "channel": 1, "note": 57, "velocity": 0, "time": 0, "type": "NormalMsg"}, "M_3121": {"note_status": 1, "channel": 1, "note": 57, "velocity": 101, "time": 0, "type": "NormalMsg"}, "M_3122": {"note_status": 1, "channel": 1, "note": 57, "velocity": 0, "time": 0, "type": "NormalMsg"}, "M_3123": {"note_status": 1, "channel": 1, "note": 55, "velocity": 107, "time": 0, "type": "NormalMsg"}, "M_3124": {"note_status": 1, "channel": 1, "note": 55, "velocity": 0, "time": 0, "type": "NormalMsg"}, "M_3125": {"note_status": 1, "channel": 1, "note": 53, "velocity": 107, "time": 0, "type": "NormalMsg"}, "M_3126": {"note_status": 1, "channel": 1, "note": 53, "velocity": 0, "time": 0, "type": "NormalMsg"}, "M_3127": {"note_status": 1, "channel": 1, "note": 53, "velocity": 107, "time": 0, "type": "NormalMsg"}, "M_3128": {"note_status": 1, "channel": 1, "note": 53, "velocity": 0, "time": 0, "type": "NormalMsg"}, "M_3129": {"note_status": 1, "channel": 1, "note": 53, "velocity": 85, "time": 0, "type": "NormalMsg"}, "M_3130": {"note_status": 1, "channel": 1, "note": 53, "velocity": 0, "time": 0, "type": "NormalMsg"}, "M_3131": {"note_status": 1, "channel": 1, "note": 53, "velocity": 107, "time": 0, "type": "NormalMsg"}, "M_3132": {"note_status": 1, "channel": 1, "note": 53, "velocity": 0, "time": 0, "type": "NormalMsg"}, "M_3133": {"note_status": 1, "channel": 1, "note": 53, "velocity": 107, "time": 0, "type": "NormalMsg"}, "M_3134": {"note_status": 1, "channel": 1, "note": 53, "velocity": 0, "time": 0, "type": "NormalMsg"}, "M_3135": {"note_status": 1, "channel": 1, "note": 53, "velocity": 107, "time": 0, "type": "NormalMsg"}, "M_3136": {"note_status": 1, "channel": 1, "note": 53, "velocity": 0, "time": 0, "type": "NormalMsg"}, "M_3137": {"note_status": 1, "channel": 1, "note": 53, "velocity": 107, "time": 0, "type": "NormalMsg"}, "M_3138": {"note_status": 1, "channel": 1, "note": 53, "velocity": 0, "time": 0, "type": "NormalMsg"}, "M_3139": {"note_status": 1, "channel": 1, "note": 53, "velocity": 97, "time": 0, "type": "NormalMsg"}, "M_3140": {"note_status": 1, "channel": 1, "note": 53, "velocity": 0, "time": 0, "type": "NormalMsg"}, "M_3141": {"note_status": 1, "channel": 1, "note": 52, "velocity": 107, "time": 0, "type": "NormalMsg"}, "M_3142": {"note_status": 1, "channel": 1, "note": 52, "velocity": 0, "time": 0, "type": "NormalMsg"}, "M_3143": {"note_status": 1, "channel": 1, "note": 55, "velocity": 107, "time": 0, "type": "NormalMsg"}, "M_3144": {"note_status": 1, "channel": 1, "note": 55, "velocity": 0, "time": 0, "type": "NormalMsg"}, "M_3145": {"note_status": 1, "channel": 1, "note": 55, "velocity": 107, "time": 0, "type": "NormalMsg"}, "M_3146": {"note_status": 1, "channel": 1, "note": 55, "velocity": 0, "time": 0, "type": "NormalMsg"}, "M_3147": {"note_status": 1, "channel": 1, "note": 55, "velocity": 107, "time": 0, "type": "NormalMsg"}, "M_3148": {"note_status": 1, "channel": 1, "note": 55, "velocity": 0, "time": 0, "type": "NormalMsg"}, "M_3149": {"note_status": 1, "channel": 1, "note": 55, "velocity": 107, "time": 0, "type": "NormalMsg"}, "M_3150": {"note_status": 1, "channel": 1, "note": 55, "velocity": 0, "time": 0, "type": "NormalMsg"}, "M_3151": {"note_status": 1, "channel": 1, "note": 60, "velocity": 97, "time": 0, "type": "NormalMsg"}, "M_3152": {"note_status": 1, "channel": 1, "note": 60, "velocity": 0, "time": 0, "type": "NormalMsg"}, "M_3153": {"note_status": 1, "channel": 1, "note": 55, "velocity": 107, "time": 0, "type": "NormalMsg"}, "M_3154": {"note_status": 1, "channel": 1, "note": 55, "velocity": 0, "time": 0, "type": "NormalMsg"}, "M_3155": {"note_status": 1, "channel": 1, "note": 57, "velocity": 107, "time": 0, "type": "NormalMsg"}, "M_3156": {"note_status": 1, "channel": 1, "note": 57, "velocity": 0, "time": 0, "type": "NormalMsg"}, "M_3157": {"note_status": 1, "channel": 1, "note": 57, "velocity": 107, "time": 0, "type": "NormalMsg"}, "M_3158": {"note_status": 1, "channel": 1, "note": 57, "velocity": 0, "time": 0, "type": "NormalMsg"}, "M_3159": {"note_status": 1, "channel": 1, "note": 57, "velocity": 97, "time": 0, "type": "NormalMsg"}, "M_3160": {"note_status": 1, "channel": 1, "note": 57, "velocity": 0, "time": 0, "type": "NormalMsg"}, "M_3161": {"note_status": 1, "channel": 1, "note": 57, "velocity": 107, "time": 0, "type": "NormalMsg"}, "M_3162": {"note_status": 1, "channel": 1, "note": 57, "velocity": 0, "time": 0, "type": "NormalMsg"}, "M_3163": {"note_status": 1, "channel": 1, "note": 57, "velocity": 101, "time": 0, "type": "NormalMsg"}, "M_3164": {"note_status": 1, "channel": 1, "note": 57, "velocity": 0, "time": 0, "type": "NormalMsg"}, "M_3165": {"note_status": 1, "channel": 1, "note": 55, "velocity": 107, "time": 0, "type": "NormalMsg"}, "M_3166": {"note_status": 1, "channel": 1, "note": 55, "velocity": 0, "time": 0, "type": "NormalMsg"}, "M_3167": {"note_status": 1, "channel": 1, "note": 53, "velocity": 107, "time": 0, "type": "NormalMsg"}, "M_3168": {"note_status": 1, "channel": 1, "note": 53, "velocity": 0, "time": 0, "type": "NormalMsg"}, "M_3169": {"note_status": 1, "channel": 1, "note": 53, "velocity": 107, "time": 0, "type": "NormalMsg"}, "M_3170": {"note_status": 1, "channel": 1, "note": 53, "velocity": 0, "time": 0, "type": "NormalMsg"}, "M_3171": {"note_status": 1, "channel": 1, "note": 53, "velocity": 85, "time": 0, "type": "NormalMsg"}, "M_3172": {"note_status": 1, "channel": 1, "note": 53, "velocity": 0, "time": 0, "type": "NormalMsg"}, "M_3173": {"note_status": 1, "channel": 1, "note": 53, "velocity": 107, "time": 0, "type": "NormalMsg"}, "M_3174": {"note_status": 1, "channel": 1, "note": 53, "velocity": 0, "time": 0, "type": "NormalMsg"}, "M_3175": {"note_status": 1, "channel": 1, "note": 53, "velocity": 107, "time": 0, "type": "NormalMsg"}, "M_3176": {"note_status": 1, "channel": 1, "note": 53, "velocity": 0, "time": 0, "type": "NormalMsg"}, "M_3177": {"note_status": 1, "channel": 1, "note": 53, "velocity": 107, "time": 0, "type": "NormalMsg"}, "M_3178": {"note_status": 1, "channel": 1, "note": 53, "velocity": 0, "time": 0, "type": "NormalMsg"}, "M_3179": {"note_status": 1, "channel": 1, "note": 53, "velocity": 107, "time": 0, "type": "NormalMsg"}, "M_3180": {"note_status": 1, "channel": 1, "note": 53, "velocity": 0, "time": 0, "type": "NormalMsg"}, "M_3181": {"note_status": 1, "channel": 1, "note": 53, "velocity": 97, "time": 0, "type": "NormalMsg"}, "M_3182": {"note_status": 1, "channel": 1, "note": 53, "velocity": 0, "time": 0, "type": "NormalMsg"}, "M_3183": {"note_status": 1, "channel": 1, "note": 52, "velocity": 107, "time": 0, "type": "NormalMsg"}, "M_3184": {"note_status": 1, "channel": 1, "note": 52, "velocity": 0, "time": 0, "type": "NormalMsg"}, "M_3185": {"note_status": 1, "channel": 1, "note": 50, "velocity": 107, "time": 0, "type": "NormalMsg"}, "M_3186": {"note_status": 1, "channel": 1, "note": 50, "velocity": 0, "time": 0, "type": "NormalMsg"}, "M_3187": {"note_status": 1, "channel": 1, "note": 50, "velocity": 107, "time": 0, "type": "NormalMsg"}, "M_3188": {"note_status": 1, "channel": 1, "note": 50, "velocity": 0, "time": 0, "type": "NormalMsg"}, "M_3189": {"note_status": 1, "channel": 1, "note": 50, "velocity": 97, "time": 0, "type": "NormalMsg"}, "M_3190": {"note_status": 1, "channel": 1, "note": 50, "velocity": 0, "time": 0, "type": "NormalMsg"}, "M_3191": {"note_status": 1, "channel": 1, "note": 50, "velocity": 107, "time": 0, "type": "NormalMsg"}, "M_3192": {"note_status": 1, "channel": 1, "note": 50, "velocity": 0, "time": 0, "type": "NormalMsg"}, "M_3193": {"note_status": 1, "channel": 1, "note": 53, "velocity": 101, "time": 0, "type": "NormalMsg"}, "M_3194": {"note_status": 1, "channel": 1, "note": 53, "velocity": 0, "time": 0, "type": "NormalMsg"}, "M_3195": {"note_status": 1, "channel": 1, "note": 50, "velocity": 107, "time": 0, "type": "NormalMsg"}, "M_3196": {"note_status": 1, "channel": 1, "note": 50, "velocity": 0, "time": 0, "type": "NormalMsg"}, "M_3197": {"note_status": 1, "channel": 1, "note": 55, "velocity": 107, "time": 0, "type": "NormalMsg"}, "M_3198": {"note_status": 1, "channel": 1, "note": 55, "velocity": 0, "time": 0, "type": "NormalMsg"}, "M_3199": {"note_status": 1, "channel": 1, "note": 55, "velocity": 107, "time": 0, "type": "NormalMsg"}, "M_3200": {"note_status": 1, "channel": 1, "note": 55, "velocity": 0, "time": 0, "type": "NormalMsg"}, "M_3201": {"note_status": 1, "channel": 1, "note": 55, "velocity": 85, "time": 0, "type": "NormalMsg"}, "M_3202": {"note_status": 1, "channel": 1, "note": 55, "velocity": 0, "time": 0, "type": "NormalMsg"}, "M_3203": {"note_status": 1, "channel": 1, "note": 55, "velocity": 107, "time": 0, "type": "NormalMsg"}, "M_3204": {"note_status": 1, "channel": 1, "note": 55, "velocity": 0, "time": 0, "type": "NormalMsg"}, "M_3205": {"note_status": 1, "channel": 1, "note": 55, "velocity": 107, "time": 0, "type": "NormalMsg"}, "M_3206": {"note_status": 1, "channel": 1, "note": 55, "velocity": 0, "time": 0, "type": "NormalMsg"}, "M_3207": {"note_status": 1, "channel": 1, "note": 55, "velocity": 107, "time": 0, "type": "NormalMsg"}, "M_3208": {"note_status": 1, "channel": 1, "note": 55, "velocity": 0, "time": 0, "type": "NormalMsg"}, "M_3209": {"note_status": 1, "channel": 1, "note": 55, "velocity": 107, "time": 0, "type": "NormalMsg"}, "M_3210": {"note_status": 1, "channel": 1, "note": 55, "velocity": 0, "time": 0, "type": "NormalMsg"}, "M_3211": {"note_status": 1, "channel": 1, "note": 53, "velocity": 97, "time": 0, "type": "NormalMsg"}, "M_3212": {"note_status": 1, "channel": 1, "note": 53, "velocity": 0, "time": 0, "type": "NormalMsg"}, "M_3213": {"note_status": 1, "channel": 1, "note": 55, "velocity": 107, "time": 0, "type": "NormalMsg"}, "M_3214": {"note_status": 1, "channel": 1, "note": 55, "velocity": 0, "time": 0, "type": "NormalMsg"}, "M_3215": {"note_status": 1, "channel": 1, "note": 57, "velocity": 107, "time": 0, "type": "NormalMsg"}, "M_3216": {"note_status": 1, "channel": 1, "note": 57, "velocity": 0, "time": 0, "type": "NormalMsg"}, "M_3217": {"note_status": 1, "channel": 1, "note": 57, "velocity": 107, "time": 0, "type": "NormalMsg"}, "M_3218": {"note_status": 1, "channel": 1, "note": 57, "velocity": 0, "time": 0, "type": "NormalMsg"}, "M_3219": {"note_status": 1, "channel": 1, "note": 57, "velocity": 97, "time": 0, "type": "NormalMsg"}, "M_3220": {"note_status": 1, "channel": 1, "note": 57, "velocity": 0, "time": 0, "type": "NormalMsg"}, "M_3221": {"note_status": 1, "channel": 1, "note": 57, "velocity": 107, "time": 0, "type": "NormalMsg"}, "M_3222": {"note_status": 1, "channel": 1, "note": 57, "velocity": 0, "time": 0, "type": "NormalMsg"}, "M_3223": {"note_status": 1, "channel": 1, "note": 57, "velocity": 101, "time": 0, "type": "NormalMsg"}, "M_3224": {"note_status": 1, "channel": 1, "note": 57, "velocity": 0, "time": 0, "type": "NormalMsg"}, "M_3225": {"note_status": 1, "channel": 1, "note": 55, "velocity": 107, "time": 0, "type": "NormalMsg"}, "M_3226": {"note_status": 1, "channel": 1, "note": 55, "velocity": 0, "time": 0, "type": "NormalMsg"}, "M_3227": {"note_status": 1, "channel": 1, "note": 53, "velocity": 107, "time": 0, "type": "NormalMsg"}, "M_3228": {"note_status": 1, "channel": 1, "note": 53, "velocity": 0, "time": 0, "type": "NormalMsg"}, "M_3229": {"note_status": 1, "channel": 1, "note": 53, "velocity": 107, "time": 0, "type": "NormalMsg"}, "M_3230": {"note_status": 1, "channel": 1, "note": 53, "velocity": 0, "time": 0, "type": "NormalMsg"}, "M_3231": {"note_status": 1, "channel": 1, "note": 53, "velocity": 85, "time": 0, "type": "NormalMsg"}, "M_3232": {"note_status": 1, "channel": 1, "note": 53, "velocity": 0, "time": 0, "type": "NormalMsg"}, "M_3233": {"note_status": 1, "channel": 1, "note": 53, "velocity": 107, "time": 0, "type": "NormalMsg"}, "M_3234": {"note_status": 1, "channel": 1, "note": 53, "velocity": 0, "time": 0, "type": "NormalMsg"}, "M_3235": {"note_status": 1, "channel": 1, "note": 53, "velocity": 107, "time": 0, "type": "NormalMsg"}, "M_3236": {"note_status": 1, "channel": 1, "note": 53, "velocity": 0, "time": 0, "type": "NormalMsg"}, "M_3237": {"note_status": 1, "channel": 1, "note": 53, "velocity": 107, "time": 0, "type": "NormalMsg"}, "M_3238": {"note_status": 1, "channel": 1, "note": 53, "velocity": 0, "time": 0, "type": "NormalMsg"}, "M_3239": {"note_status": 1, "channel": 1, "note": 53, "velocity": 107, "time": 0, "type": "NormalMsg"}, "M_3240": {"note_status": 1, "channel": 1, "note": 53, "velocity": 0, "time": 0, "type": "NormalMsg"}, "M_3241": {"note_status": 1, "channel": 1, "note": 53, "velocity": 97, "time": 0, "type": "NormalMsg"}, "M_3242": {"note_status": 1, "channel": 1, "note": 53, "velocity": 0, "time": 0, "type": "NormalMsg"}, "M_3243": {"note_status": 1, "channel": 1, "note": 52, "velocity": 107, "time": 0, "type": "NormalMsg"}, "M_3244": {"note_status": 1, "channel": 1, "note": 52, "velocity": 0, "time": 0, "type": "NormalMsg"}, "M_3245": {"note_status": 1, "channel": 1, "note": 50, "velocity": 107, "time": 0, "type": "NormalMsg"}, "M_3246": {"note_status": 1, "channel": 1, "note": 50, "velocity": 0, "time": 0, "type": "NormalMsg"}, "M_3247": {"note_status": 1, "channel": 1, "note": 50, "velocity": 107, "time": 0, "type": "NormalMsg"}, "M_3248": {"note_status": 1, "channel": 1, "note": 50, "velocity": 0, "time": 0, "type": "NormalMsg"}, "M_3249": {"note_status": 1, "channel": 1, "note": 50, "velocity": 97, "time": 0, "type": "NormalMsg"}, "M_3250": {"note_status": 1, "channel": 1, "note": 50, "velocity": 0, "time": 0, "type": "NormalMsg"}, "M_3251": {"note_status": 1, "channel": 1, "note": 50, "velocity": 107, "time": 0, "type": "NormalMsg"}, "M_3252": {"note_status": 1, "channel": 1, "note": 50, "velocity": 0, "time": 0, "type": "NormalMsg"}, "M_3253": {"note_status": 1, "channel": 1, "note": 53, "velocity": 101, "time": 0, "type": "NormalMsg"}, "M_3254": {"note_status": 1, "channel": 1, "note": 53, "velocity": 0, "time": 0, "type": "NormalMsg"}, "M_3255": {"note_status": 1, "channel": 1, "note": 50, "velocity": 107, "time": 0, "type": "NormalMsg"}, "M_3256": {"note_status": 1, "channel": 1, "note": 50, "velocity": 0, "time": 0, "type": "NormalMsg"}, "M_3257": {"note_status": 1, "channel": 1, "note": 55, "velocity": 107, "time": 0, "type": "NormalMsg"}, "M_3258": {"note_status": 1, "channel": 1, "note": 55, "velocity": 0, "time": 0, "type": "NormalMsg"}, "M_3259": {"note_status": 1, "channel": 1, "note": 55, "velocity": 107, "time": 0, "type": "NormalMsg"}, "M_3260": {"note_status": 1, "channel": 1, "note": 55, "velocity": 0, "time": 0, "type": "NormalMsg"}, "M_3261": {"note_status": 1, "channel": 1, "note": 55, "velocity": 85, "time": 0, "type": "NormalMsg"}, "M_3262": {"note_status": 1, "channel": 1, "note": 55, "velocity": 0, "time": 0, "type": "NormalMsg"}, "M_3263": {"note_status": 1, "channel": 1, "note": 55, "velocity": 107, "time": 0, "type": "NormalMsg"}, "M_3264": {"note_status": 1, "channel": 1, "note": 55, "velocity": 0, "time": 0, "type": "NormalMsg"}, "M_3265": {"note_status": 1, "channel": 1, "note": 55, "velocity": 107, "time": 0, "type": "NormalMsg"}, "M_3266": {"note_status": 1, "channel": 1, "note": 55, "velocity": 0, "time": 0, "type": "NormalMsg"}, "M_3267": {"note_status": 1, "channel": 1, "note": 55, "velocity": 107, "time": 0, "type": "NormalMsg"}, "M_3268": {"note_status": 1, "channel": 1, "note": 55, "velocity": 0, "time": 0, "type": "NormalMsg"}, "M_3269": {"note_status": 1, "channel": 1, "note": 55, "velocity": 107, "time": 0, "type": "NormalMsg"}, "M_3270": {"note_status": 1, "channel": 1, "note": 55, "velocity": 0, "time": 0, "type": "NormalMsg"}, "M_3271": {"note_status": 1, "channel": 1, "note": 53, "velocity": 97, "time": 0, "type": "NormalMsg"}, "M_3272": {"note_status": 1, "channel": 1, "note": 53, "velocity": 0, "time": 0, "type": "NormalMsg"}, "M_3273": {"note_status": 1, "channel": 1, "note": 55, "velocity": 107, "time": 0, "type": "NormalMsg"}, "M_3274": {"note_status": 1, "channel": 1, "note": 55, "velocity": 0, "time": 0, "type": "NormalMsg"}, "M_3275": {"note_status": 1, "channel": 1, "note": 57, "velocity": 107, "time": 0, "type": "NormalMsg"}, "M_3276": {"note_status": 1, "channel": 1, "note": 57, "velocity": 0, "time": 0, "type": "NormalMsg"}, "M_3277": {"note_status": 1, "channel": 1, "note": 57, "velocity": 107, "time": 0, "type": "NormalMsg"}, "M_3278": {"note_status": 1, "channel": 1, "note": 57, "velocity": 0, "time": 0, "type": "NormalMsg"}, "M_3279": {"note_status": 1, "channel": 1, "note": 57, "velocity": 97, "time": 0, "type": "NormalMsg"}, "M_3280": {"note_status": 1, "channel": 1, "note": 57, "velocity": 0, "time": 0, "type": "NormalMsg"}, "M_3281": {"note_status": 1, "channel": 1, "note": 57, "velocity": 107, "time": 0, "type": "NormalMsg"}, "M_3282": {"note_status": 1, "channel": 1, "note": 57, "velocity": 0, "time": 0, "type": "NormalMsg"}, "M_3283": {"note_status": 1, "channel": 1, "note": 57, "velocity": 101, "time": 0, "type": "NormalMsg"}, "M_3284": {"note_status": 1, "channel": 1, "note": 57, "velocity": 0, "time": 0, "type": "NormalMsg"}, "M_3285": {"note_status": 1, "channel": 1, "note": 55, "velocity": 107, "time": 0, "type": "NormalMsg"}, "M_3286": {"note_status": 1, "channel": 1, "note": 55, "velocity": 0, "time": 0, "type": "NormalMsg"}, "M_3287": {"note_status": 1, "channel": 1, "note": 53, "velocity": 107, "time": 0, "type": "NormalMsg"}, "M_3288": {"note_status": 1, "channel": 1, "note": 53, "velocity": 0, "time": 0, "type": "NormalMsg"}, "M_3289": {"note_status": 1, "channel": 1, "note": 53, "velocity": 107, "time": 0, "type": "NormalMsg"}, "M_3290": {"note_status": 1, "channel": 1, "note": 53, "velocity": 0, "time": 0, "type": "NormalMsg"}, "M_3291": {"note_status": 1, "channel": 1, "note": 53, "velocity": 85, "time": 0, "type": "NormalMsg"}, "M_3292": {"note_status": 1, "channel": 1, "note": 53, "velocity": 0, "time": 0, "type": "NormalMsg"}, "M_3293": {"note_status": 1, "channel": 1, "note": 53, "velocity": 107, "time": 0, "type": "NormalMsg"}, "M_3294": {"note_status": 1, "channel": 1, "note": 53, "velocity": 0, "time": 0, "type": "NormalMsg"}, "M_3295": {"note_status": 1, "channel": 1, "note": 53, "velocity": 107, "time": 0, "type": "NormalMsg"}, "M_3296": {"note_status": 1, "channel": 1, "note": 53, "velocity": 0, "time": 0, "type": "NormalMsg"}, "M_3297": {"note_status": 1, "channel": 1, "note": 53, "velocity": 107, "time": 0, "type": "NormalMsg"}, "M_3298": {"note_status": 1, "channel": 1, "note": 53, "velocity": 0, "time": 0, "type": "NormalMsg"}, "M_3299": {"note_status": 1, "channel": 1, "note": 53, "velocity": 107, "time": 0, "type": "NormalMsg"}, "M_3300": {"note_status": 1, "channel": 1, "note": 53, "velocity": 0, "time": 0, "type": "NormalMsg"}, "M_3301": {"note_status": 1, "channel": 1, "note": 53, "velocity": 97, "time": 0, "type": "NormalMsg"}, "M_3302": {"note_status": 1, "channel": 1, "note": 53, "velocity": 0, "time": 0, "type": "NormalMsg"}, "M_3303": {"note_status": 1, "channel": 1, "note": 52, "velocity": 107, "time": 0, "type": "NormalMsg"}, "M_3304": {"note_status": 1, "channel": 1, "note": 52, "velocity": 0, "time": 0, "type": "NormalMsg"}, "M_3305": {"note_status": 1, "channel": 1, "note": 50, "velocity": 107, "time": 0, "type": "NormalMsg"}, "M_3306": {"note_status": 1, "channel": 1, "note": 50, "velocity": 0, "time": 0, "type": "NormalMsg"}, "M_3307": {"note_status": 1, "channel": 1, "note": 50, "velocity": 107, "time": 0, "type": "NormalMsg"}, "M_3308": {"note_status": 1, "channel": 1, "note": 50, "velocity": 0, "time": 0, "type": "NormalMsg"}, "M_3309": {"note_status": 1, "channel": 1, "note": 50, "velocity": 97, "time": 0, "type": "NormalMsg"}, "M_3310": {"note_status": 1, "channel": 1, "note": 50, "velocity": 0, "time": 0, "type": "NormalMsg"}, "M_3311": {"note_status": 1, "channel": 1, "note": 50, "velocity": 107, "time": 0, "type": "NormalMsg"}, "M_3312": {"note_status": 1, "channel": 1, "note": 50, "velocity": 0, "time": 0, "type": "NormalMsg"}, "M_3313": {"note_status": 1, "channel": 1, "note": 53, "velocity": 101, "time": 0, "type": "NormalMsg"}, "M_3314": {"note_status": 1, "channel": 1, "note": 53, "velocity": 0, "time": 0, "type": "NormalMsg"}, "M_3315": {"note_status": 1, "channel": 1, "note": 50, "velocity": 107, "time": 0, "type": "NormalMsg"}, "M_3316": {"note_status": 1, "channel": 1, "note": 50, "velocity": 0, "time": 0, "type": "NormalMsg"}, "M_3317": {"note_status": 1, "channel": 1, "note": 55, "velocity": 107, "time": 0, "type": "NormalMsg"}, "M_3318": {"note_status": 1, "channel": 1, "note": 55, "velocity": 0, "time": 0, "type": "NormalMsg"}, "M_3319": {"note_status": 1, "channel": 1, "note": 55, "velocity": 107, "time": 0, "type": "NormalMsg"}, "M_3320": {"note_status": 1, "channel": 1, "note": 55, "velocity": 0, "time": 0, "type": "NormalMsg"}, "M_3321": {"note_status": 1, "channel": 1, "note": 55, "velocity": 85, "time": 0, "type": "NormalMsg"}, "M_3322": {"note_status": 1, "channel": 1, "note": 55, "velocity": 0, "time": 0, "type": "NormalMsg"}, "M_3323": {"note_status": 1, "channel": 1, "note": 55, "velocity": 107, "time": 0, "type": "NormalMsg"}, "M_3324": {"note_status": 1, "channel": 1, "note": 55, "velocity": 0, "time": 0, "type": "NormalMsg"}, "M_3325": {"note_status": 1, "channel": 1, "note": 55, "velocity": 107, "time": 0, "type": "NormalMsg"}, "M_3326": {"note_status": 1, "channel": 1, "note": 55, "velocity": 0, "time": 0, "type": "NormalMsg"}, "M_3327": {"note_status": 1, "channel": 1, "note": 55, "velocity": 107, "time": 0, "type": "NormalMsg"}, "M_3328": {"note_status": 1, "channel": 1, "note": 55, "velocity": 0, "time": 0, "type": "NormalMsg"}, "M_3329": {"note_status": 1, "channel": 1, "note": 55, "velocity": 107, "time": 0, "type": "NormalMsg"}, "M_3330": {"note_status": 1, "channel": 1, "note": 55, "velocity": 0, "time": 0, "type": "NormalMsg"}, "M_3331": {"note_status": 1, "channel": 1, "note": 53, "velocity": 97, "time": 0, "type": "NormalMsg"}, "M_3332": {"note_status": 1, "channel": 1, "note": 53, "velocity": 0, "time": 0, "type": "NormalMsg"}, "M_3333": {"note_status": 1, "channel": 1, "note": 55, "velocity": 107, "time": 0, "type": "NormalMsg"}, "M_3334": {"note_status": 1, "channel": 1, "note": 55, "velocity": 0, "time": 0, "type": "NormalMsg"}, "M_3335": {"note_status": 1, "channel": 1, "note": 57, "velocity": 107, "time": 0, "type": "NormalMsg"}, "M_3336": {"note_status": 1, "channel": 1, "note": 57, "velocity": 0, "time": 0, "type": "NormalMsg"}, "M_3337": {"note_status": 1, "channel": 1, "note": 57, "velocity": 107, "time": 0, "type": "NormalMsg"}, "M_3338": {"note_status": 1, "channel": 1, "note": 57, "velocity": 0, "time": 0, "type": "NormalMsg"}, "M_3339": {"note_status": 1, "channel": 1, "note": 57, "velocity": 97, "time": 0, "type": "NormalMsg"}, "M_3340": {"note_status": 1, "channel": 1, "note": 57, "velocity": 0, "time": 0, "type": "NormalMsg"}, "M_3341": {"note_status": 1, "channel": 1, "note": 57, "velocity": 107, "time": 0, "type": "NormalMsg"}, "M_3342": {"note_status": 1, "channel": 1, "note": 57, "velocity": 0, "time": 0, "type": "NormalMsg"}, "M_3343": {"note_status": 1, "channel": 1, "note": 57, "velocity": 101, "time": 0, "type": "NormalMsg"}, "M_3344": {"note_status": 1, "channel": 1, "note": 57, "velocity": 0, "time": 0, "type": "NormalMsg"}, "M_3345": {"note_status": 1, "channel": 1, "note": 55, "velocity": 107, "time": 0, "type": "NormalMsg"}, "M_3346": {"note_status": 1, "channel": 1, "note": 55, "velocity": 0, "time": 0, "type": "NormalMsg"}, "M_3347": {"note_status": 1, "channel": 1, "note": 53, "velocity": 107, "time": 0, "type": "NormalMsg"}, "M_3348": {"note_status": 1, "channel": 1, "note": 53, "velocity": 0, "time": 0, "type": "NormalMsg"}, "M_3349": {"note_status": 1, "channel": 1, "note": 53, "velocity": 107, "time": 0, "type": "NormalMsg"}, "M_3350": {"note_status": 1, "channel": 1, "note": 53, "velocity": 0, "time": 0, "type": "NormalMsg"}, "M_3351": {"note_status": 1, "channel": 1, "note": 53, "velocity": 85, "time": 0, "type": "NormalMsg"}, "M_3352": {"note_status": 1, "channel": 1, "note": 53, "velocity": 0, "time": 0, "type": "NormalMsg"}, "M_3353": {"note_status": 1, "channel": 1, "note": 53, "velocity": 107, "time": 0, "type": "NormalMsg"}, "M_3354": {"note_status": 1, "channel": 1, "note": 53, "velocity": 0, "time": 0, "type": "NormalMsg"}, "M_3355": {"note_status": 1, "channel": 1, "note": 53, "velocity": 107, "time": 0, "type": "NormalMsg"}, "M_3356": {"note_status": 1, "channel": 1, "note": 53, "velocity": 0, "time": 0, "type": "NormalMsg"}, "M_3357": {"note_status": 1, "channel": 1, "note": 53, "velocity": 107, "time": 0, "type": "NormalMsg"}, "M_3358": {"note_status": 1, "channel": 1, "note": 53, "velocity": 0, "time": 0, "type": "NormalMsg"}, "M_3359": {"note_status": 1, "channel": 1, "note": 53, "velocity": 107, "time": 0, "type": "NormalMsg"}, "M_3360": {"note_status": 1, "channel": 1, "note": 53, "velocity": 0, "time": 0, "type": "NormalMsg"}, "M_3361": {"note_status": 1, "channel": 1, "note": 53, "velocity": 97, "time": 0, "type": "NormalMsg"}, "M_3362": {"note_status": 1, "channel": 1, "note": 53, "velocity": 0, "time": 0, "type": "NormalMsg"}, "M_3363": {"note_status": 1, "channel": 1, "note": 52, "velocity": 107, "time": 0, "type": "NormalMsg"}, "M_3364": {"note_status": 1, "channel": 1, "note": 52, "velocity": 0, "time": 0, "type": "NormalMsg"}, "M_3365": {"note_status": 1, "channel": 1, "note": 50, "velocity": 107, "time": 0, "type": "NormalMsg"}, "M_3366": {"note_status": 1, "channel": 1, "note": 50, "velocity": 0, "time": 0, "type": "NormalMsg"}, "M_3367": {"note_status": 1, "channel": 1, "note": 50, "velocity": 107, "time": 0, "type": "NormalMsg"}, "M_3368": {"note_status": 1, "channel": 1, "note": 50, "velocity": 0, "time": 0, "type": "NormalMsg"}, "M_3369": {"note_status": 1, "channel": 1, "note": 50, "velocity": 97, "time": 0, "type": "NormalMsg"}, "M_3370": {"note_status": 1, "channel": 1, "note": 50, "velocity": 0, "time": 0, "type": "NormalMsg"}, "M_3371": {"note_status": 1, "channel": 1, "note": 50, "velocity": 107, "time": 0, "type": "NormalMsg"}, "M_3372": {"note_status": 1, "channel": 1, "note": 50, "velocity": 0, "time": 0, "type": "NormalMsg"}, "M_3373": {"note_status": 1, "channel": 1, "note": 53, "velocity": 101, "time": 0, "type": "NormalMsg"}, "M_3374": {"note_status": 1, "channel": 1, "note": 53, "velocity": 0, "time": 0, "type": "NormalMsg"}, "M_3375": {"note_status": 1, "channel": 1, "note": 50, "velocity": 107, "time": 0, "type": "NormalMsg"}, "M_3376": {"note_status": 1, "channel": 1, "note": 50, "velocity": 0, "time": 0, "type": "NormalMsg"}, "M_3377": {"note_status": 1, "channel": 1, "note": 55, "velocity": 107, "time": 0, "type": "NormalMsg"}, "M_3378": {"note_status": 1, "channel": 1, "note": 55, "velocity": 0, "time": 0, "type": "NormalMsg"}, "M_3379": {"note_status": 1, "channel": 1, "note": 55, "velocity": 107, "time": 0, "type": "NormalMsg"}, "M_3380": {"note_status": 1, "channel": 1, "note": 55, "velocity": 0, "time": 0, "type": "NormalMsg"}, "M_3381": {"note_status": 1, "channel": 1, "note": 55, "velocity": 85, "time": 0, "type": "NormalMsg"}, "M_3382": {"note_status": 1, "channel": 1, "note": 55, "velocity": 0, "time": 0, "type": "NormalMsg"}, "M_3383": {"note_status": 1, "channel": 1, "note": 55, "velocity": 107, "time": 0, "type": "NormalMsg"}, "M_3384": {"note_status": 1, "channel": 1, "note": 55, "velocity": 0, "time": 0, "type": "NormalMsg"}, "M_3385": {"note_status": 1, "channel": 1, "note": 55, "velocity": 107, "time": 0, "type": "NormalMsg"}, "M_3386": {"note_status": 1, "channel": 1, "note": 55, "velocity": 0, "time": 0, "type": "NormalMsg"}, "M_3387": {"note_status": 1, "channel": 1, "note": 55, "velocity": 107, "time": 0, "type": "NormalMsg"}, "M_3388": {"note_status": 1, "channel": 1, "note": 55, "velocity": 0, "time": 0, "type": "NormalMsg"}, "M_3389": {"note_status": 1, "channel": 1, "note": 55, "velocity": 107, "time": 0, "type": "NormalMsg"}, "M_3390": {"note_status": 1, "channel": 1, "note": 55, "velocity": 0, "time": 0, "type": "NormalMsg"}, "M_3391": {"note_status": 1, "channel": 1, "note": 53, "velocity": 97, "time": 0, "type": "NormalMsg"}, "M_3392": {"note_status": 1, "channel": 1, "note": 53, "velocity": 0, "time": 0, "type": "NormalMsg"}, "M_3393": {"note_status": 1, "channel": 1, "note": 55, "velocity": 107, "time": 0, "type": "NormalMsg"}, "M_3394": {"note_status": 1, "channel": 1, "note": 55, "velocity": 0, "time": 0, "type": "NormalMsg"}, "M_3395": {"note_status": 1, "channel": 1, "note": 79, "velocity": 78, "time": 0, "type": "NormalMsg"}, "M_3396": {"note_status": 1, "channel": 1, "note": 79, "velocity": 0, "time": 0, "type": "NormalMsg"}, "M_3397": {"note_status": 1, "channel": 1, "note": 79, "velocity": 76, "time": 0, "type": "NormalMsg"}, "M_3398": {"note_status": 1, "channel": 1, "note": 79, "velocity": 0, "time": 0, "type": "NormalMsg"}, "M_3399": {"note_status": 1, "channel": 1, "note": 72, "velocity": 77, "time": 0, "type": "NormalMsg"}, "M_3400": {"note_status": 1, "channel": 1, "note": 72, "velocity": 0, "time": 0, "type": "NormalMsg"}, "M_3401": {"note_status": 1, "channel": 1, "note": 67, "velocity": 74, "time": 0, "type": "NormalMsg"}, "M_3402": {"note_status": 1, "channel": 1, "note": 67, "velocity": 0, "time": 0, "type": "NormalMsg"}, "M_3403": {"note_status": 1, "channel": 1, "note": 79, "velocity": 74, "time": 0, "type": "NormalMsg"}, "M_3404": {"note_status": 1, "channel": 1, "note": 79, "velocity": 0, "time": 0, "type": "NormalMsg"}, "M_3405": {"note_status": 1, "channel": 1, "note": 79, "velocity": 74, "time": 0, "type": "NormalMsg"}, "M_3406": {"note_status": 1, "channel": 1, "note": 72, "velocity": 74, "time": 0, "type": "NormalMsg"}, "M_3407": {"note_status": 1, "channel": 1, "note": 79, "velocity": 0, "time": 0, "type": "NormalMsg"}, "M_3408": {"note_status": 1, "channel": 1, "note": 72, "velocity": 0, "time": 0, "type": "NormalMsg"}, "M_3409": {"note_status": 1, "channel": 1, "note": 67, "velocity": 75, "time": 0, "type": "NormalMsg"}, "M_3410": {"note_status": 1, "channel": 1, "note": 67, "velocity": 0, "time": 0, "type": "NormalMsg"}, "M_3411": {"note_status": 1, "channel": 1, "note": 79, "velocity": 78, "time": 0, "type": "NormalMsg"}, "M_3412": {"note_status": 1, "channel": 1, "note": 79, "velocity": 0, "time": 0, "type": "NormalMsg"}, "M_3413": {"note_status": 1, "channel": 1, "note": 79, "velocity": 76, "time": 0, "type": "NormalMsg"}, "M_3414": {"note_status": 1, "channel": 1, "note": 79, "velocity": 0, "time": 0, "type": "NormalMsg"}, "M_3415": {"note_status": 1, "channel": 1, "note": 72, "velocity": 77, "time": 0, "type": "NormalMsg"}, "M_3416": {"note_status": 1, "channel": 1, "note": 72, "velocity": 0, "time": 0, "type": "NormalMsg"}, "M_3417": {"note_status": 1, "channel": 1, "note": 67, "velocity": 74, "time": 0, "type": "NormalMsg"}, "M_3418": {"note_status": 1, "channel": 1, "note": 67, "velocity": 0, "time": 0, "type": "NormalMsg"}, "M_3419": {"note_status": 1, "channel": 1, "note": 79, "velocity": 74, "time": 0, "type": "NormalMsg"}, "M_3420": {"note_status": 1, "channel": 1, "note": 79, "velocity": 0, "time": 0, "type": "NormalMsg"}, "M_3421": {"note_status": 1, "channel": 1, "note": 79, "velocity": 74, "time": 0, "type": "NormalMsg"}, "M_3422": {"note_status": 1, "channel": 1, "note": 72, "velocity": 74, "time": 0, "type": "NormalMsg"}, "M_3423": {"note_status": 1, "channel": 1, "note": 79, "velocity": 0, "time": 0, "type": "NormalMsg"}, "M_3424": {"note_status": 1, "channel": 1, "note": 72, "velocity": 0, "time": 0, "type": "NormalMsg"}, "M_3425": {"note_status": 1, "channel": 1, "note": 67, "velocity": 75, "time": 0, "type": "NormalMsg"}, "M_3426": {"note_status": 1, "channel": 1, "note": 67, "velocity": 0, "time": 0, "type": "NormalMsg"}, "M_3427": {"note_status": 1, "channel": 1, "note": 79, "velocity": 78, "time": 0, "type": "NormalMsg"}, "M_3428": {"note_status": 1, "channel": 1, "note": 79, "velocity": 0, "time": 0, "type": "NormalMsg"}, "M_3429": {"note_status": 1, "channel": 1, "note": 79, "velocity": 76, "time": 0, "type": "NormalMsg"}, "M_3430": {"note_status": 1, "channel": 1, "note": 79, "velocity": 0, "time": 0, "type": "NormalMsg"}, "M_3431": {"note_status": 1, "channel": 1, "note": 72, "velocity": 77, "time": 0, "type": "NormalMsg"}, "M_3432": {"note_status": 1, "channel": 1, "note": 72, "velocity": 0, "time": 0, "type": "NormalMsg"}, "M_3433": {"note_status": 1, "channel": 1, "note": 67, "velocity": 74, "time": 0, "type": "NormalMsg"}, "M_3434": {"note_status": 1, "channel": 1, "note": 67, "velocity": 0, "time": 0, "type": "NormalMsg"}, "M_3435": {"note_status": 1, "channel": 1, "note": 79, "velocity": 74, "time": 0, "type": "NormalMsg"}, "M_3436": {"note_status": 1, "channel": 1, "note": 79, "velocity": 0, "time": 0, "type": "NormalMsg"}, "M_3437": {"note_status": 1, "channel": 1, "note": 79, "velocity": 74, "time": 0, "type": "NormalMsg"}, "M_3438": {"note_status": 1, "channel": 1, "note": 72, "velocity": 74, "time": 0, "type": "NormalMsg"}, "M_3439": {"note_status": 1, "channel": 1, "note": 79, "velocity": 0, "time": 0, "type": "NormalMsg"}, "M_3440": {"note_status": 1, "channel": 1, "note": 72, "velocity": 0, "time": 0, "type": "NormalMsg"}, "M_3441": {"note_status": 1, "channel": 1, "note": 67, "velocity": 75, "time": 0, "type": "NormalMsg"}, "M_3442": {"note_status": 1, "channel": 1, "note": 67, "velocity": 0, "time": 0, "type": "NormalMsg"}, "M_3443": {"note_status": 1, "channel": 1, "note": 79, "velocity": 78, "time": 0, "type": "NormalMsg"}, "M_3444": {"note_status": 1, "channel": 1, "note": 79, "velocity": 0, "time": 0, "type": "NormalMsg"}, "M_3445": {"note_status": 1, "channel": 1, "note": 79, "velocity": 76, "time": 0, "type": "NormalMsg"}, "M_3446": {"note_status": 1, "channel": 1, "note": 79, "velocity": 0, "time": 0, "type": "NormalMsg"}, "M_3447": {"note_status": 1, "channel": 1, "note": 72, "velocity": 77, "time": 0, "type": "NormalMsg"}, "M_3448": {"note_status": 1, "channel": 1, "note": 72, "velocity": 0, "time": 0, "type": "NormalMsg"}, "M_3449": {"note_status": 1, "channel": 1, "note": 67, "velocity": 74, "time": 0, "type": "NormalMsg"}, "M_3450": {"note_status": 1, "channel": 1, "note": 67, "velocity": 0, "time": 0, "type": "NormalMsg"}, "M_3451": {"note_status": 1, "channel": 1, "note": 79, "velocity": 74, "time": 0, "type": "NormalMsg"}, "M_3452": {"note_status": 1, "channel": 1, "note": 79, "velocity": 0, "time": 0, "type": "NormalMsg"}, "M_3453": {"note_status": 1, "channel": 1, "note": 79, "velocity": 74, "time": 0, "type": "NormalMsg"}, "M_3454": {"note_status": 1, "channel": 1, "note": 72, "velocity": 74, "time": 0, "type": "NormalMsg"}, "M_3455": {"note_status": 1, "channel": 1, "note": 79, "velocity": 0, "time": 0, "type": "NormalMsg"}, "M_3456": {"note_status": 1, "channel": 1, "note": 72, "velocity": 0, "time": 0, "type": "NormalMsg"}, "M_3457": {"note_status": 1, "channel": 1, "note": 67, "velocity": 75, "time": 0, "type": "NormalMsg"}, "M_3458": {"note_status": 1, "channel": 1, "note": 67, "velocity": 0, "time": 0, "type": "NormalMsg"}, "M_3459": {"note_status": 1, "channel": 1, "note": 79, "velocity": 78, "time": 0, "type": "NormalMsg"}, "M_3460": {"note_status": 1, "channel": 1, "note": 79, "velocity": 0, "time": 0, "type": "NormalMsg"}, "M_3461": {"note_status": 1, "channel": 1, "note": 79, "velocity": 76, "time": 0, "type": "NormalMsg"}, "M_3462": {"note_status": 1, "channel": 1, "note": 79, "velocity": 0, "time": 0, "type": "NormalMsg"}, "M_3463": {"note_status": 1, "channel": 1, "note": 72, "velocity": 77, "time": 0, "type": "NormalMsg"}, "M_3464": {"note_status": 1, "channel": 1, "note": 72, "velocity": 0, "time": 0, "type": "NormalMsg"}, "M_3465": {"note_status": 1, "channel": 1, "note": 67, "velocity": 74, "time": 0, "type": "NormalMsg"}, "M_3466": {"note_status": 1, "channel": 1, "note": 67, "velocity": 0, "time": 0, "type": "NormalMsg"}, "M_3467": {"note_status": 1, "channel": 1, "note": 79, "velocity": 74, "time": 0, "type": "NormalMsg"}, "M_3468": {"note_status": 1, "channel": 1, "note": 79, "velocity": 0, "time": 0, "type": "NormalMsg"}, "M_3469": {"note_status": 1, "channel": 1, "note": 79, "velocity": 74, "time": 0, "type": "NormalMsg"}, "M_3470": {"note_status": 1, "channel": 1, "note": 72, "velocity": 74, "time": 0, "type": "NormalMsg"}, "M_3471": {"note_status": 1, "channel": 1, "note": 79, "velocity": 0, "time": 0, "type": "NormalMsg"}, "M_3472": {"note_status": 1, "channel": 1, "note": 72, "velocity": 0, "time": 0, "type": "NormalMsg"}, "M_3473": {"note_status": 1, "channel": 1, "note": 67, "velocity": 75, "time": 0, "type": "NormalMsg"}, "M_3474": {"note_status": 1, "channel": 1, "note": 67, "velocity": 0, "time": 0, "type": "NormalMsg"}, "M_3475": {"note_status": 1, "channel": 1, "note": 79, "velocity": 78, "time": 0, "type": "NormalMsg"}, "M_3476": {"note_status": 1, "channel": 1, "note": 79, "velocity": 0, "time": 0, "type": "NormalMsg"}, "M_3477": {"note_status": 1, "channel": 1, "note": 79, "velocity": 76, "time": 0, "type": "NormalMsg"}, "M_3478": {"note_status": 1, "channel": 1, "note": 79, "velocity": 0, "time": 0, "type": "NormalMsg"}, "M_3479": {"note_status": 1, "channel": 1, "note": 72, "velocity": 77, "time": 0, "type": "NormalMsg"}, "M_3480": {"note_status": 1, "channel": 1, "note": 72, "velocity": 0, "time": 0, "type": "NormalMsg"}, "M_3481": {"note_status": 1, "channel": 1, "note": 67, "velocity": 74, "time": 0, "type": "NormalMsg"}, "M_3482": {"note_status": 1, "channel": 1, "note": 67, "velocity": 0, "time": 0, "type": "NormalMsg"}, "M_3483": {"note_status": 1, "channel": 1, "note": 79, "velocity": 74, "time": 0, "type": "NormalMsg"}, "M_3484": {"note_status": 1, "channel": 1, "note": 79, "velocity": 0, "time": 0, "type": "NormalMsg"}, "M_3485": {"note_status": 1, "channel": 1, "note": 79, "velocity": 74, "time": 0, "type": "NormalMsg"}, "M_3486": {"note_status": 1, "channel": 1, "note": 72, "velocity": 74, "time": 0, "type": "NormalMsg"}, "M_3487": {"note_status": 1, "channel": 1, "note": 79, "velocity": 0, "time": 0, "type": "NormalMsg"}, "M_3488": {"note_status": 1, "channel": 1, "note": 72, "velocity": 0, "time": 0, "type": "NormalMsg"}, "M_3489": {"note_status": 1, "channel": 1, "note": 67, "velocity": 75, "time": 0, "type": "NormalMsg"}, "M_3490": {"note_status": 1, "channel": 1, "note": 67, "velocity": 0, "time": 0, "type": "NormalMsg"}, "M_3491": {"note_status": 1, "channel": 1, "note": 79, "velocity": 78, "time": 0, "type": "NormalMsg"}, "M_3492": {"note_status": 1, "channel": 1, "note": 79, "velocity": 0, "time": 0, "type": "NormalMsg"}, "M_3493": {"note_status": 1, "channel": 1, "note": 79, "velocity": 76, "time": 0, "type": "NormalMsg"}, "M_3494": {"note_status": 1, "channel": 1, "note": 79, "velocity": 0, "time": 0, "type": "NormalMsg"}, "M_3495": {"note_status": 1, "channel": 1, "note": 72, "velocity": 77, "time": 0, "type": "NormalMsg"}, "M_3496": {"note_status": 1, "channel": 1, "note": 72, "velocity": 0, "time": 0, "type": "NormalMsg"}, "M_3497": {"note_status": 1, "channel": 1, "note": 67, "velocity": 74, "time": 0, "type": "NormalMsg"}, "M_3498": {"note_status": 1, "channel": 1, "note": 67, "velocity": 0, "time": 0, "type": "NormalMsg"}, "M_3499": {"note_status": 1, "channel": 1, "note": 79, "velocity": 74, "time": 0, "type": "NormalMsg"}, "M_3500": {"note_status": 1, "channel": 1, "note": 79, "velocity": 0, "time": 0, "type": "NormalMsg"}, "M_3501": {"note_status": 1, "channel": 1, "note": 79, "velocity": 74, "time": 0, "type": "NormalMsg"}, "M_3502": {"note_status": 1, "channel": 1, "note": 72, "velocity": 74, "time": 0, "type": "NormalMsg"}, "M_3503": {"note_status": 1, "channel": 1, "note": 79, "velocity": 0, "time": 0, "type": "NormalMsg"}, "M_3504": {"note_status": 1, "channel": 1, "note": 72, "velocity": 0, "time": 0, "type": "NormalMsg"}, "M_3505": {"note_status": 1, "channel": 1, "note": 67, "velocity": 75, "time": 0, "type": "NormalMsg"}, "M_3506": {"note_status": 1, "channel": 1, "note": 67, "velocity": 0, "time": 0, "type": "NormalMsg"}, "M_3507": {"note_status": 1, "channel": 1, "note": 79, "velocity": 78, "time": 0, "type": "NormalMsg"}, "M_3508": {"note_status": 1, "channel": 1, "note": 79, "velocity": 0, "time": 0, "type": "NormalMsg"}, "M_3509": {"note_status": 1, "channel": 1, "note": 79, "velocity": 76, "time": 0, "type": "NormalMsg"}, "M_3510": {"note_status": 1, "channel": 1, "note": 79, "velocity": 0, "time": 0, "type": "NormalMsg"}, "M_3511": {"note_status": 1, "channel": 1, "note": 72, "velocity": 77, "time": 0, "type": "NormalMsg"}, "M_3512": {"note_status": 1, "channel": 1, "note": 72, "velocity": 0, "time": 0, "type": "NormalMsg"}, "M_3513": {"note_status": 1, "channel": 1, "note": 67, "velocity": 74, "time": 0, "type": "NormalMsg"}, "M_3514": {"note_status": 1, "channel": 1, "note": 67, "velocity": 0, "time": 0, "type": "NormalMsg"}, "M_3515": {"note_status": 1, "channel": 1, "note": 79, "velocity": 74, "time": 0, "type": "NormalMsg"}, "M_3516": {"note_status": 1, "channel": 1, "note": 79, "velocity": 0, "time": 0, "type": "NormalMsg"}, "M_3517": {"note_status": 1, "channel": 1, "note": 79, "velocity": 74, "time": 0, "type": "NormalMsg"}, "M_3518": {"note_status": 1, "channel": 1, "note": 72, "velocity": 74, "time": 0, "type": "NormalMsg"}, "M_3519": {"note_status": 1, "channel": 1, "note": 79, "velocity": 0, "time": 0, "type": "NormalMsg"}, "M_3520": {"note_status": 1, "channel": 1, "note": 72, "velocity": 0, "time": 0, "type": "NormalMsg"}, "M_3521": {"note_status": 1, "channel": 1, "note": 67, "velocity": 75, "time": 0, "type": "NormalMsg"}, "M_3522": {"note_status": 1, "channel": 1, "note": 67, "velocity": 0, "time": 0, "type": "NormalMsg"}, "M_3523": {"note_status": 1, "channel": 1, "note": 57, "velocity": 107, "time": 0, "type": "NormalMsg"}, "M_3524": {"note_status": 1, "channel": 1, "note": 57, "velocity": 0, "time": 0, "type": "NormalMsg"}, "M_3525": {"note_status": 1, "channel": 1, "note": 57, "velocity": 107, "time": 0, "type": "NormalMsg"}, "M_3526": {"note_status": 1, "channel": 1, "note": 57, "velocity": 0, "time": 0, "type": "NormalMsg"}, "M_3527": {"note_status": 1, "channel": 1, "note": 57, "velocity": 97, "time": 0, "type": "NormalMsg"}, "M_3528": {"note_status": 1, "channel": 1, "note": 57, "velocity": 0, "time": 0, "type": "NormalMsg"}, "M_3529": {"note_status": 1, "channel": 1, "note": 57, "velocity": 107, "time": 0, "type": "NormalMsg"}, "M_3530": {"note_status": 1, "channel": 1, "note": 57, "velocity": 0, "time": 0, "type": "NormalMsg"}, "M_3531": {"note_status": 1, "channel": 1, "note": 57, "velocity": 101, "time": 0, "type": "NormalMsg"}, "M_3532": {"note_status": 1, "channel": 1, "note": 57, "velocity": 0, "time": 0, "type": "NormalMsg"}, "M_3533": {"note_status": 1, "channel": 1, "note": 55, "velocity": 107, "time": 0, "type": "NormalMsg"}, "M_3534": {"note_status": 1, "channel": 1, "note": 55, "velocity": 0, "time": 0, "type": "NormalMsg"}, "M_3535": {"note_status": 1, "channel": 1, "note": 53, "velocity": 107, "time": 0, "type": "NormalMsg"}, "M_3536": {"note_status": 1, "channel": 1, "note": 53, "velocity": 0, "time": 0, "type": "NormalMsg"}, "M_3537": {"note_status": 1, "channel": 1, "note": 53, "velocity": 107, "time": 0, "type": "NormalMsg"}, "M_3538": {"note_status": 1, "channel": 1, "note": 53, "velocity": 0, "time": 0, "type": "NormalMsg"}, "M_3539": {"note_status": 1, "channel": 1, "note": 53, "velocity": 85, "time": 0, "type": "NormalMsg"}, "M_3540": {"note_status": 1, "channel": 1, "note": 53, "velocity": 0, "time": 0, "type": "NormalMsg"}, "M_3541": {"note_status": 1, "channel": 1, "note": 53, "velocity": 107, "time": 0, "type": "NormalMsg"}, "M_3542": {"note_status": 1, "channel": 1, "note": 53, "velocity": 0, "time": 0, "type": "NormalMsg"}, "M_3543": {"note_status": 1, "channel": 1, "note": 53, "velocity": 107, "time": 0, "type": "NormalMsg"}, "M_3544": {"note_status": 1, "channel": 1, "note": 53, "velocity": 0, "time": 0, "type": "NormalMsg"}, "M_3545": {"note_status": 1, "channel": 1, "note": 53, "velocity": 107, "time": 0, "type": "NormalMsg"}, "M_3546": {"note_status": 1, "channel": 1, "note": 53, "velocity": 0, "time": 0, "type": "NormalMsg"}, "M_3547": {"note_status": 1, "channel": 1, "note": 53, "velocity": 107, "time": 0, "type": "NormalMsg"}, "M_3548": {"note_status": 1, "channel": 1, "note": 53, "velocity": 0, "time": 0, "type": "NormalMsg"}, "M_3549": {"note_status": 1, "channel": 1, "note": 53, "velocity": 97, "time": 0, "type": "NormalMsg"}, "M_3550": {"note_status": 1, "channel": 1, "note": 53, "velocity": 0, "time": 0, "type": "NormalMsg"}, "M_3551": {"note_status": 1, "channel": 1, "note": 52, "velocity": 107, "time": 0, "type": "NormalMsg"}, "M_3552": {"note_status": 1, "channel": 1, "note": 52, "velocity": 0, "time": 0, "type": "NormalMsg"}, "M_3553": {"note_status": 1, "channel": 1, "note": 50, "velocity": 107, "time": 0, "type": "NormalMsg"}, "M_3554": {"note_status": 1, "channel": 1, "note": 50, "velocity": 0, "time": 0, "type": "NormalMsg"}, "M_3555": {"note_status": 1, "channel": 1, "note": 50, "velocity": 107, "time": 0, "type": "NormalMsg"}, "M_3556": {"note_status": 1, "channel": 1, "note": 50, "velocity": 0, "time": 0, "type": "NormalMsg"}, "M_3557": {"note_status": 1, "channel": 1, "note": 50, "velocity": 97, "time": 0, "type": "NormalMsg"}, "M_3558": {"note_status": 1, "channel": 1, "note": 50, "velocity": 0, "time": 0, "type": "NormalMsg"}, "M_3559": {"note_status": 1, "channel": 1, "note": 50, "velocity": 107, "time": 0, "type": "NormalMsg"}, "M_3560": {"note_status": 1, "channel": 1, "note": 50, "velocity": 0, "time": 0, "type": "NormalMsg"}, "M_3561": {"note_status": 1, "channel": 1, "note": 53, "velocity": 101, "time": 0, "type": "NormalMsg"}, "M_3562": {"note_status": 1, "channel": 1, "note": 53, "velocity": 0, "time": 0, "type": "NormalMsg"}, "M_3563": {"note_status": 1, "channel": 1, "note": 50, "velocity": 107, "time": 0, "type": "NormalMsg"}, "M_3564": {"note_status": 1, "channel": 1, "note": 50, "velocity": 0, "time": 0, "type": "NormalMsg"}, "M_3565": {"note_status": 1, "channel": 1, "note": 55, "velocity": 107, "time": 0, "type": "NormalMsg"}, "M_3566": {"note_status": 1, "channel": 1, "note": 55, "velocity": 0, "time": 0, "type": "NormalMsg"}, "M_3567": {"note_status": 1, "channel": 1, "note": 55, "velocity": 107, "time": 0, "type": "NormalMsg"}, "M_3568": {"note_status": 1, "channel": 1, "note": 55, "velocity": 0, "time": 0, "type": "NormalMsg"}, "M_3569": {"note_status": 1, "channel": 1, "note": 55, "velocity": 85, "time": 0, "type": "NormalMsg"}, "M_3570": {"note_status": 1, "channel": 1, "note": 55, "velocity": 0, "time": 0, "type": "NormalMsg"}, "M_3571": {"note_status": 1, "channel": 1, "note": 55, "velocity": 107, "time": 0, "type": "NormalMsg"}, "M_3572": {"note_status": 1, "channel": 1, "note": 55, "velocity": 0, "time": 0, "type": "NormalMsg"}, "M_3573": {"note_status": 1, "channel": 1, "note": 55, "velocity": 107, "time": 0, "type": "NormalMsg"}, "M_3574": {"note_status": 1, "channel": 1, "note": 55, "velocity": 0, "time": 0, "type": "NormalMsg"}, "M_3575": {"note_status": 1, "channel": 1, "note": 55, "velocity": 107, "time": 0, "type": "NormalMsg"}, "M_3576": {"note_status": 1, "channel": 1, "note": 55, "velocity": 0, "time": 0, "type": "NormalMsg"}, "M_3577": {"note_status": 1, "channel": 1, "note": 55, "velocity": 107, "time": 0, "type": "NormalMsg"}, "M_3578": {"note_status": 1, "channel": 1, "note": 55, "velocity": 0, "time": 0, "type": "NormalMsg"}, "M_3579": {"note_status": 1, "channel": 1, "note": 53, "velocity": 97, "time": 0, "type": "NormalMsg"}, "M_3580": {"note_status": 1, "channel": 1, "note": 53, "velocity": 0, "time": 0, "type": "NormalMsg"}, "M_3581": {"note_status": 1, "channel": 1, "note": 55, "velocity": 107, "time": 0, "type": "NormalMsg"}, "M_3582": {"note_status": 1, "channel": 1, "note": 55, "velocity": 0, "time": 0, "type": "NormalMsg"}, "M_3583": {"note_status": 1, "channel": 1, "note": 57, "velocity": 107, "time": 0, "type": "NormalMsg"}, "M_3584": {"note_status": 1, "channel": 1, "note": 57, "velocity": 0, "time": 0, "type": "NormalMsg"}, "M_3585": {"note_status": 1, "channel": 1, "note": 57, "velocity": 107, "time": 0, "type": "NormalMsg"}, "M_3586": {"note_status": 1, "channel": 1, "note": 57, "velocity": 0, "time": 0, "type": "NormalMsg"}, "M_3587": {"note_status": 1, "channel": 1, "note": 57, "velocity": 97, "time": 0, "type": "NormalMsg"}, "M_3588": {"note_status": 1, "channel": 1, "note": 57, "velocity": 0, "time": 0, "type": "NormalMsg"}, "M_3589": {"note_status": 1, "channel": 1, "note": 57, "velocity": 107, "time": 0, "type": "NormalMsg"}, "M_3590": {"note_status": 1, "channel": 1, "note": 57, "velocity": 0, "time": 0, "type": "NormalMsg"}, "M_3591": {"note_status": 1, "channel": 1, "note": 57, "velocity": 101, "time": 0, "type": "NormalMsg"}, "M_3592": {"note_status": 1, "channel": 1, "note": 57, "velocity": 0, "time": 0, "type": "NormalMsg"}, "M_3593": {"note_status": 1, "channel": 1, "note": 55, "velocity": 107, "time": 0, "type": "NormalMsg"}, "M_3594": {"note_status": 1, "channel": 1, "note": 55, "velocity": 0, "time": 0, "type": "NormalMsg"}, "M_3595": {"note_status": 1, "channel": 1, "note": 53, "velocity": 107, "time": 0, "type": "NormalMsg"}, "M_3596": {"note_status": 1, "channel": 1, "note": 53, "velocity": 0, "time": 0, "type": "NormalMsg"}, "M_3597": {"note_status": 1, "channel": 1, "note": 53, "velocity": 107, "time": 0, "type": "NormalMsg"}, "M_3598": {"note_status": 1, "channel": 1, "note": 53, "velocity": 0, "time": 0, "type": "NormalMsg"}, "M_3599": {"note_status": 1, "channel": 1, "note": 53, "velocity": 85, "time": 0, "type": "NormalMsg"}, "M_3600": {"note_status": 1, "channel": 1, "note": 53, "velocity": 0, "time": 0, "type": "NormalMsg"}, "M_3601": {"note_status": 1, "channel": 1, "note": 53, "velocity": 107, "time": 0, "type": "NormalMsg"}, "M_3602": {"note_status": 1, "channel": 1, "note": 53, "velocity": 0, "time": 0, "type": "NormalMsg"}, "M_3603": {"note_status": 1, "channel": 1, "note": 53, "velocity": 107, "time": 0, "type": "NormalMsg"}, "M_3604": {"note_status": 1, "channel": 1, "note": 53, "velocity": 0, "time": 0, "type": "NormalMsg"}, "M_3605": {"note_status": 1, "channel": 1, "note": 53, "velocity": 107, "time": 0, "type": "NormalMsg"}, "M_3606": {"note_status": 1, "channel": 1, "note": 53, "velocity": 0, "time": 0, "type": "NormalMsg"}, "M_3607": {"note_status": 1, "channel": 1, "note": 53, "velocity": 107, "time": 0, "type": "NormalMsg"}, "M_3608": {"note_status": 1, "channel": 1, "note": 53, "velocity": 0, "time": 0, "type": "NormalMsg"}, "M_3609": {"note_status": 1, "channel": 1, "note": 53, "velocity": 97, "time": 0, "type": "NormalMsg"}, "M_3610": {"note_status": 1, "channel": 1, "note": 53, "velocity": 0, "time": 0, "type": "NormalMsg"}, "M_3611": {"note_status": 1, "channel": 1, "note": 52, "velocity": 107, "time": 0, "type": "NormalMsg"}, "M_3612": {"note_status": 1, "channel": 1, "note": 52, "velocity": 0, "time": 0, "type": "NormalMsg"}, "M_3613": {"note_status": 1, "channel": 1, "note": 55, "velocity": 107, "time": 0, "type": "NormalMsg"}, "M_3614": {"note_status": 1, "channel": 1, "note": 55, "velocity": 0, "time": 0, "type": "NormalMsg"}, "M_3615": {"note_status": 1, "channel": 1, "note": 55, "velocity": 107, "time": 0, "type": "NormalMsg"}, "M_3616": {"note_status": 1, "channel": 1, "note": 55, "velocity": 0, "time": 0, "type": "NormalMsg"}, "M_3617": {"note_status": 1, "channel": 1, "note": 55, "velocity": 107, "time": 0, "type": "NormalMsg"}, "M_3618": {"note_status": 1, "channel": 1, "note": 55, "velocity": 0, "time": 0, "type": "NormalMsg"}, "M_3619": {"note_status": 1, "channel": 1, "note": 55, "velocity": 107, "time": 0, "type": "NormalMsg"}, "M_3620": {"note_status": 1, "channel": 1, "note": 55, "velocity": 0, "time": 0, "type": "NormalMsg"}, "M_3621": {"note_status": 1, "channel": 1, "note": 60, "velocity": 97, "time": 0, "type": "NormalMsg"}, "M_3622": {"note_status": 1, "channel": 1, "note": 60, "velocity": 0, "time": 0, "type": "NormalMsg"}, "M_3623": {"note_status": 1, "channel": 1, "note": 55, "velocity": 107, "time": 0, "type": "NormalMsg"}, "M_3624": {"note_status": 1, "channel": 1, "note": 55, "velocity": 0, "time": 0, "type": "NormalMsg"}, "M_3625": {"note_status": 1, "channel": 1, "note": 57, "velocity": 107, "time": 0, "type": "NormalMsg"}, "M_3626": {"note_status": 1, "channel": 1, "note": 57, "velocity": 0, "time": 0, "type": "NormalMsg"}, "M_3627": {"note_status": 1, "channel": 1, "note": 57, "velocity": 107, "time": 0, "type": "NormalMsg"}, "M_3628": {"note_status": 1, "channel": 1, "note": 57, "velocity": 0, "time": 0, "type": "NormalMsg"}, "M_3629": {"note_status": 1, "channel": 1, "note": 57, "velocity": 97, "time": 0, "type": "NormalMsg"}, "M_3630": {"note_status": 1, "channel": 1, "note": 57, "velocity": 0, "time": 0, "type": "NormalMsg"}, "M_3631": {"note_status": 1, "channel": 1, "note": 57, "velocity": 107, "time": 0, "type": "NormalMsg"}, "M_3632": {"note_status": 1, "channel": 1, "note": 57, "velocity": 0, "time": 0, "type": "NormalMsg"}, "M_3633": {"note_status": 1, "channel": 1, "note": 57, "velocity": 101, "time": 0, "type": "NormalMsg"}, "M_3634": {"note_status": 1, "channel": 1, "note": 57, "velocity": 0, "time": 0, "type": "NormalMsg"}, "M_3635": {"note_status": 1, "channel": 1, "note": 55, "velocity": 107, "time": 0, "type": "NormalMsg"}, "M_3636": {"note_status": 1, "channel": 1, "note": 55, "velocity": 0, "time": 0, "type": "NormalMsg"}, "M_3637": {"note_status": 1, "channel": 1, "note": 53, "velocity": 107, "time": 0, "type": "NormalMsg"}, "M_3638": {"note_status": 1, "channel": 1, "note": 53, "velocity": 0, "time": 0, "type": "NormalMsg"}, "M_3639": {"note_status": 1, "channel": 1, "note": 53, "velocity": 107, "time": 0, "type": "NormalMsg"}, "M_3640": {"note_status": 1, "channel": 1, "note": 53, "velocity": 0, "time": 0, "type": "NormalMsg"}, "M_3641": {"note_status": 1, "channel": 1, "note": 53, "velocity": 85, "time": 0, "type": "NormalMsg"}, "M_3642": {"note_status": 1, "channel": 1, "note": 53, "velocity": 0, "time": 0, "type": "NormalMsg"}, "M_3643": {"note_status": 1, "channel": 1, "note": 53, "velocity": 107, "time": 0, "type": "NormalMsg"}, "M_3644": {"note_status": 1, "channel": 1, "note": 53, "velocity": 0, "time": 0, "type": "NormalMsg"}, "M_3645": {"note_status": 1, "channel": 1, "note": 53, "velocity": 107, "time": 0, "type": "NormalMsg"}, "M_3646": {"note_status": 1, "channel": 1, "note": 53, "velocity": 0, "time": 0, "type": "NormalMsg"}, "M_3647": {"note_status": 1, "channel": 1, "note": 53, "velocity": 107, "time": 0, "type": "NormalMsg"}, "M_3648": {"note_status": 1, "channel": 1, "note": 53, "velocity": 0, "time": 0, "type": "NormalMsg"}, "M_3649": {"note_status": 1, "channel": 1, "note": 53, "velocity": 107, "time": 0, "type": "NormalMsg"}, "M_3650": {"note_status": 1, "channel": 1, "note": 53, "velocity": 0, "time": 0, "type": "NormalMsg"}, "M_3651": {"note_status": 1, "channel": 1, "note": 53, "velocity": 97, "time": 0, "type": "NormalMsg"}, "M_3652": {"note_status": 1, "channel": 1, "note": 53, "velocity": 0, "time": 0, "type": "NormalMsg"}, "M_3653": {"note_status": 1, "channel": 1, "note": 52, "velocity": 107, "time": 0, "type": "NormalMsg"}, "M_3654": {"note_status": 1, "channel": 1, "note": 52, "velocity": 0, "time": 0, "type": "NormalMsg"}, "M_3655": {"note_status": 1, "channel": 1, "note": 50, "velocity": 107, "time": 0, "type": "NormalMsg"}, "M_3656": {"note_status": 1, "channel": 1, "note": 50, "velocity": 0, "time": 0, "type": "NormalMsg"}, "M_3657": {"note_status": 1, "channel": 1, "note": 50, "velocity": 107, "time": 0, "type": "NormalMsg"}, "M_3658": {"note_status": 1, "channel": 1, "note": 50, "velocity": 0, "time": 0, "type": "NormalMsg"}, "M_3659": {"note_status": 1, "channel": 1, "note": 50, "velocity": 97, "time": 0, "type": "NormalMsg"}, "M_3660": {"note_status": 1, "channel": 1, "note": 50, "velocity": 0, "time": 0, "type": "NormalMsg"}, "M_3661": {"note_status": 1, "channel": 1, "note": 50, "velocity": 107, "time": 0, "type": "NormalMsg"}, "M_3662": {"note_status": 1, "channel": 1, "note": 50, "velocity": 0, "time": 0, "type": "NormalMsg"}, "M_3663": {"note_status": 1, "channel": 1, "note": 53, "velocity": 101, "time": 0, "type": "NormalMsg"}, "M_3664": {"note_status": 1, "channel": 1, "note": 53, "velocity": 0, "time": 0, "type": "NormalMsg"}, "M_3665": {"note_status": 1, "channel": 1, "note": 50, "velocity": 107, "time": 0, "type": "NormalMsg"}, "M_3666": {"note_status": 1, "channel": 1, "note": 50, "velocity": 0, "time": 0, "type": "NormalMsg"}, "M_3667": {"note_status": 1, "channel": 1, "note": 55, "velocity": 107, "time": 0, "type": "NormalMsg"}, "M_3668": {"note_status": 1, "channel": 1, "note": 55, "velocity": 0, "time": 0, "type": "NormalMsg"}, "M_3669": {"note_status": 1, "channel": 1, "note": 55, "velocity": 107, "time": 0, "type": "NormalMsg"}, "M_3670": {"note_status": 1, "channel": 1, "note": 55, "velocity": 0, "time": 0, "type": "NormalMsg"}, "M_3671": {"note_status": 1, "channel": 1, "note": 55, "velocity": 85, "time": 0, "type": "NormalMsg"}, "M_3672": {"note_status": 1, "channel": 1, "note": 55, "velocity": 0, "time": 0, "type": "NormalMsg"}, "M_3673": {"note_status": 1, "channel": 1, "note": 55, "velocity": 107, "time": 0, "type": "NormalMsg"}, "M_3674": {"note_status": 1, "channel": 1, "note": 55, "velocity": 0, "time": 0, "type": "NormalMsg"}, "M_3675": {"note_status": 1, "channel": 1, "note": 55, "velocity": 107, "time": 0, "type": "NormalMsg"}, "M_3676": {"note_status": 1, "channel": 1, "note": 55, "velocity": 0, "time": 0, "type": "NormalMsg"}, "M_3677": {"note_status": 1, "channel": 1, "note": 55, "velocity": 107, "time": 0, "type": "NormalMsg"}, "M_3678": {"note_status": 1, "channel": 1, "note": 55, "velocity": 0, "time": 0, "type": "NormalMsg"}, "M_3679": {"note_status": 1, "channel": 1, "note": 55, "velocity": 107, "time": 0, "type": "NormalMsg"}, "M_3680": {"note_status": 1, "channel": 1, "note": 55, "velocity": 0, "time": 0, "type": "NormalMsg"}, "M_3681": {"note_status": 1, "channel": 1, "note": 53, "velocity": 97, "time": 0, "type": "NormalMsg"}, "M_3682": {"note_status": 1, "channel": 1, "note": 53, "velocity": 0, "time": 0, "type": "NormalMsg"}, "M_3683": {"note_status": 1, "channel": 1, "note": 55, "velocity": 107, "time": 0, "type": "NormalMsg"}, "M_3684": {"note_status": 1, "channel": 1, "note": 55, "velocity": 0, "time": 0, "type": "NormalMsg"}, "M_3685": {"note_status": 1, "channel": 1, "note": 57, "velocity": 107, "time": 0, "type": "NormalMsg"}, "M_3686": {"note_status": 1, "channel": 1, "note": 57, "velocity": 0, "time": 0, "type": "NormalMsg"}, "M_3687": {"note_status": 1, "channel": 1, "note": 57, "velocity": 107, "time": 0, "type": "NormalMsg"}, "M_3688": {"note_status": 1, "channel": 1, "note": 57, "velocity": 0, "time": 0, "type": "NormalMsg"}, "M_3689": {"note_status": 1, "channel": 1, "note": 57, "velocity": 97, "time": 0, "type": "NormalMsg"}, "M_3690": {"note_status": 1, "channel": 1, "note": 57, "velocity": 0, "time": 0, "type": "NormalMsg"}, "M_3691": {"note_status": 1, "channel": 1, "note": 57, "velocity": 107, "time": 0, "type": "NormalMsg"}, "M_3692": {"note_status": 1, "channel": 1, "note": 57, "velocity": 0, "time": 0, "type": "NormalMsg"}, "M_3693": {"note_status": 1, "channel": 1, "note": 57, "velocity": 101, "time": 0, "type": "NormalMsg"}, "M_3694": {"note_status": 1, "channel": 1, "note": 57, "velocity": 0, "time": 0, "type": "NormalMsg"}, "M_3695": {"note_status": 1, "channel": 1, "note": 55, "velocity": 107, "time": 0, "type": "NormalMsg"}, "M_3696": {"note_status": 1, "channel": 1, "note": 55, "velocity": 0, "time": 0, "type": "NormalMsg"}, "M_3697": {"note_status": 1, "channel": 1, "note": 53, "velocity": 107, "time": 0, "type": "NormalMsg"}, "M_3698": {"note_status": 1, "channel": 1, "note": 53, "velocity": 0, "time": 0, "type": "NormalMsg"}, "M_3699": {"note_status": 1, "channel": 1, "note": 53, "velocity": 107, "time": 0, "type": "NormalMsg"}, "M_3700": {"note_status": 1, "channel": 1, "note": 53, "velocity": 0, "time": 0, "type": "NormalMsg"}, "M_3701": {"note_status": 1, "channel": 1, "note": 53, "velocity": 85, "time": 0, "type": "NormalMsg"}, "M_3702": {"note_status": 1, "channel": 1, "note": 53, "velocity": 0, "time": 0, "type": "NormalMsg"}, "M_3703": {"note_status": 1, "channel": 1, "note": 53, "velocity": 107, "time": 0, "type": "NormalMsg"}, "M_3704": {"note_status": 1, "channel": 1, "note": 53, "velocity": 0, "time": 0, "type": "NormalMsg"}, "M_3705": {"note_status": 1, "channel": 1, "note": 53, "velocity": 107, "time": 0, "type": "NormalMsg"}, "M_3706": {"note_status": 1, "channel": 1, "note": 53, "velocity": 0, "time": 0, "type": "NormalMsg"}, "M_3707": {"note_status": 1, "channel": 1, "note": 53, "velocity": 107, "time": 0, "type": "NormalMsg"}, "M_3708": {"note_status": 1, "channel": 1, "note": 53, "velocity": 0, "time": 0, "type": "NormalMsg"}, "M_3709": {"note_status": 1, "channel": 1, "note": 53, "velocity": 107, "time": 0, "type": "NormalMsg"}, "M_3710": {"note_status": 1, "channel": 1, "note": 53, "velocity": 0, "time": 0, "type": "NormalMsg"}, "M_3711": {"note_status": 1, "channel": 1, "note": 53, "velocity": 97, "time": 0, "type": "NormalMsg"}, "M_3712": {"note_status": 1, "channel": 1, "note": 53, "velocity": 0, "time": 0, "type": "NormalMsg"}, "M_3713": {"note_status": 1, "channel": 1, "note": 52, "velocity": 107, "time": 0, "type": "NormalMsg"}, "M_3714": {"note_status": 1, "channel": 1, "note": 52, "velocity": 0, "time": 0, "type": "NormalMsg"}, "M_3715": {"note_status": 1, "channel": 1, "note": 50, "velocity": 107, "time": 0, "type": "NormalMsg"}, "M_3716": {"note_status": 1, "channel": 1, "note": 50, "velocity": 0, "time": 0, "type": "NormalMsg"}, "M_3717": {"note_status": 1, "channel": 1, "note": 50, "velocity": 107, "time": 0, "type": "NormalMsg"}, "M_3718": {"note_status": 1, "channel": 1, "note": 50, "velocity": 0, "time": 0, "type": "NormalMsg"}, "M_3719": {"note_status": 1, "channel": 1, "note": 50, "velocity": 97, "time": 0, "type": "NormalMsg"}, "M_3720": {"note_status": 1, "channel": 1, "note": 50, "velocity": 0, "time": 0, "type": "NormalMsg"}, "M_3721": {"note_status": 1, "channel": 1, "note": 50, "velocity": 107, "time": 0, "type": "NormalMsg"}, "M_3722": {"note_status": 1, "channel": 1, "note": 50, "velocity": 0, "time": 0, "type": "NormalMsg"}, "M_3723": {"note_status": 1, "channel": 1, "note": 53, "velocity": 101, "time": 0, "type": "NormalMsg"}, "M_3724": {"note_status": 1, "channel": 1, "note": 53, "velocity": 0, "time": 0, "type": "NormalMsg"}, "M_3725": {"note_status": 1, "channel": 1, "note": 50, "velocity": 107, "time": 0, "type": "NormalMsg"}, "M_3726": {"note_status": 1, "channel": 1, "note": 50, "velocity": 0, "time": 0, "type": "NormalMsg"}, "M_3727": {"note_status": 1, "channel": 1, "note": 55, "velocity": 107, "time": 0, "type": "NormalMsg"}, "M_3728": {"note_status": 1, "channel": 1, "note": 55, "velocity": 0, "time": 0, "type": "NormalMsg"}, "M_3729": {"note_status": 1, "channel": 1, "note": 55, "velocity": 107, "time": 0, "type": "NormalMsg"}, "M_3730": {"note_status": 1, "channel": 1, "note": 55, "velocity": 0, "time": 0, "type": "NormalMsg"}, "M_3731": {"note_status": 1, "channel": 1, "note": 55, "velocity": 85, "time": 0, "type": "NormalMsg"}, "M_3732": {"note_status": 1, "channel": 1, "note": 55, "velocity": 0, "time": 0, "type": "NormalMsg"}, "M_3733": {"note_status": 1, "channel": 1, "note": 55, "velocity": 107, "time": 0, "type": "NormalMsg"}, "M_3734": {"note_status": 1, "channel": 1, "note": 55, "velocity": 0, "time": 0, "type": "NormalMsg"}, "M_3735": {"note_status": 1, "channel": 1, "note": 55, "velocity": 107, "time": 0, "type": "NormalMsg"}, "M_3736": {"note_status": 1, "channel": 1, "note": 55, "velocity": 0, "time": 0, "type": "NormalMsg"}, "M_3737": {"note_status": 1, "channel": 1, "note": 55, "velocity": 107, "time": 0, "type": "NormalMsg"}, "M_3738": {"note_status": 1, "channel": 1, "note": 55, "velocity": 0, "time": 0, "type": "NormalMsg"}, "M_3739": {"note_status": 1, "channel": 1, "note": 55, "velocity": 107, "time": 0, "type": "NormalMsg"}, "M_3740": {"note_status": 1, "channel": 1, "note": 55, "velocity": 0, "time": 0, "type": "NormalMsg"}, "M_3741": {"note_status": 1, "channel": 1, "note": 53, "velocity": 97, "time": 0, "type": "NormalMsg"}, "M_3742": {"note_status": 1, "channel": 1, "note": 53, "velocity": 0, "time": 0, "type": "NormalMsg"}, "M_3743": {"note_status": 1, "channel": 1, "note": 55, "velocity": 107, "time": 0, "type": "NormalMsg"}, "M_3744": {"note_status": 1, "channel": 1, "note": 55, "velocity": 0, "time": 0, "type": "NormalMsg"}, "M_3745": {"note_status": 1, "channel": 1, "note": 57, "velocity": 107, "time": 0, "type": "NormalMsg"}, "M_3746": {"note_status": 1, "channel": 1, "note": 57, "velocity": 0, "time": 0, "type": "NormalMsg"}, "M_3747": {"note_status": 1, "channel": 1, "note": 57, "velocity": 107, "time": 0, "type": "NormalMsg"}, "M_3748": {"note_status": 1, "channel": 1, "note": 57, "velocity": 0, "time": 0, "type": "NormalMsg"}, "M_3749": {"note_status": 1, "channel": 1, "note": 57, "velocity": 97, "time": 0, "type": "NormalMsg"}, "M_3750": {"note_status": 1, "channel": 1, "note": 57, "velocity": 0, "time": 0, "type": "NormalMsg"}, "M_3751": {"note_status": 1, "channel": 1, "note": 57, "velocity": 107, "time": 0, "type": "NormalMsg"}, "M_3752": {"note_status": 1, "channel": 1, "note": 57, "velocity": 0, "time": 0, "type": "NormalMsg"}, "M_3753": {"note_status": 1, "channel": 1, "note": 57, "velocity": 101, "time": 0, "type": "NormalMsg"}, "M_3754": {"note_status": 1, "channel": 1, "note": 57, "velocity": 0, "time": 0, "type": "NormalMsg"}, "M_3755": {"note_status": 1, "channel": 1, "note": 55, "velocity": 107, "time": 0, "type": "NormalMsg"}, "M_3756": {"note_status": 1, "channel": 1, "note": 55, "velocity": 0, "time": 0, "type": "NormalMsg"}, "M_3757": {"note_status": 1, "channel": 1, "note": 53, "velocity": 107, "time": 0, "type": "NormalMsg"}, "M_3758": {"note_status": 1, "channel": 1, "note": 53, "velocity": 0, "time": 0, "type": "NormalMsg"}, "M_3759": {"note_status": 1, "channel": 1, "note": 53, "velocity": 107, "time": 0, "type": "NormalMsg"}, "M_3760": {"note_status": 1, "channel": 1, "note": 53, "velocity": 0, "time": 0, "type": "NormalMsg"}, "M_3761": {"note_status": 1, "channel": 1, "note": 53, "velocity": 85, "time": 0, "type": "NormalMsg"}, "M_3762": {"note_status": 1, "channel": 1, "note": 53, "velocity": 0, "time": 0, "type": "NormalMsg"}, "M_3763": {"note_status": 1, "channel": 1, "note": 53, "velocity": 107, "time": 0, "type": "NormalMsg"}, "M_3764": {"note_status": 1, "channel": 1, "note": 53, "velocity": 0, "time": 0, "type": "NormalMsg"}, "M_3765": {"note_status": 1, "channel": 1, "note": 53, "velocity": 107, "time": 0, "type": "NormalMsg"}, "M_3766": {"note_status": 1, "channel": 1, "note": 53, "velocity": 0, "time": 0, "type": "NormalMsg"}, "M_3767": {"note_status": 1, "channel": 1, "note": 53, "velocity": 107, "time": 0, "type": "NormalMsg"}, "M_3768": {"note_status": 1, "channel": 1, "note": 53, "velocity": 0, "time": 0, "type": "NormalMsg"}, "M_3769": {"note_status": 1, "channel": 1, "note": 53, "velocity": 107, "time": 0, "type": "NormalMsg"}, "M_3770": {"note_status": 1, "channel": 1, "note": 53, "velocity": 0, "time": 0, "type": "NormalMsg"}, "M_3771": {"note_status": 1, "channel": 1, "note": 53, "velocity": 97, "time": 0, "type": "NormalMsg"}, "M_3772": {"note_status": 1, "channel": 1, "note": 53, "velocity": 0, "time": 0, "type": "NormalMsg"}, "M_3773": {"note_status": 1, "channel": 1, "note": 52, "velocity": 107, "time": 0, "type": "NormalMsg"}, "M_3774": {"note_status": 1, "channel": 1, "note": 52, "velocity": 0, "time": 0, "type": "NormalMsg"}, "M_3775": {"note_status": 1, "channel": 1, "note": 50, "velocity": 107, "time": 0, "type": "NormalMsg"}, "M_3776": {"note_status": 1, "channel": 1, "note": 50, "velocity": 0, "time": 0, "type": "NormalMsg"}, "M_3777": {"note_status": 1, "channel": 1, "note": 50, "velocity": 107, "time": 0, "type": "NormalMsg"}, "M_3778": {"note_status": 1, "channel": 1, "note": 50, "velocity": 0, "time": 0, "type": "NormalMsg"}, "M_3779": {"note_status": 1, "channel": 1, "note": 50, "velocity": 97, "time": 0, "type": "NormalMsg"}, "M_3780": {"note_status": 1, "channel": 1, "note": 50, "velocity": 0, "time": 0, "type": "NormalMsg"}, "M_3781": {"note_status": 1, "channel": 1, "note": 50, "velocity": 107, "time": 0, "type": "NormalMsg"}, "M_3782": {"note_status": 1, "channel": 1, "note": 50, "velocity": 0, "time": 0, "type": "NormalMsg"}, "M_3783": {"note_status": 1, "channel": 1, "note": 53, "velocity": 101, "time": 0, "type": "NormalMsg"}, "M_3784": {"note_status": 1, "channel": 1, "note": 53, "velocity": 0, "time": 0, "type": "NormalMsg"}, "M_3785": {"note_status": 1, "channel": 1, "note": 50, "velocity": 107, "time": 0, "type": "NormalMsg"}, "M_3786": {"note_status": 1, "channel": 1, "note": 50, "velocity": 0, "time": 0, "type": "NormalMsg"}, "M_3787": {"note_status": 1, "channel": 1, "note": 55, "velocity": 107, "time": 0, "type": "NormalMsg"}, "M_3788": {"note_status": 1, "channel": 1, "note": 55, "velocity": 0, "time": 0, "type": "NormalMsg"}, "M_3789": {"note_status": 1, "channel": 1, "note": 55, "velocity": 107, "time": 0, "type": "NormalMsg"}, "M_3790": {"note_status": 1, "channel": 1, "note": 55, "velocity": 0, "time": 0, "type": "NormalMsg"}, "M_3791": {"note_status": 1, "channel": 1, "note": 55, "velocity": 85, "time": 0, "type": "NormalMsg"}, "M_3792": {"note_status": 1, "channel": 1, "note": 55, "velocity": 0, "time": 0, "type": "NormalMsg"}, "M_3793": {"note_status": 1, "channel": 1, "note": 55, "velocity": 107, "time": 0, "type": "NormalMsg"}, "M_3794": {"note_status": 1, "channel": 1, "note": 55, "velocity": 0, "time": 0, "type": "NormalMsg"}, "M_3795": {"note_status": 1, "channel": 1, "note": 55, "velocity": 107, "time": 0, "type": "NormalMsg"}, "M_3796": {"note_status": 1, "channel": 1, "note": 55, "velocity": 0, "time": 0, "type": "NormalMsg"}, "M_3797": {"note_status": 1, "channel": 1, "note": 55, "velocity": 107, "time": 0, "type": "NormalMsg"}, "M_3798": {"note_status": 1, "channel": 1, "note": 55, "velocity": 0, "time": 0, "type": "NormalMsg"}, "M_3799": {"note_status": 1, "channel": 1, "note": 55, "velocity": 107, "time": 0, "type": "NormalMsg"}, "M_3800": {"note_status": 1, "channel": 1, "note": 55, "velocity": 0, "time": 0, "type": "NormalMsg"}, "M_3801": {"note_status": 1, "channel": 1, "note": 53, "velocity": 97, "time": 0, "type": "NormalMsg"}, "M_3802": {"note_status": 1, "channel": 1, "note": 53, "velocity": 0, "time": 0, "type": "NormalMsg"}, "M_3803": {"note_status": 1, "channel": 1, "note": 55, "velocity": 107, "time": 0, "type": "NormalMsg"}, "M_3804": {"note_status": 1, "channel": 1, "note": 55, "velocity": 0, "time": 0, "type": "NormalMsg"}, "M_3805": {"note_status": 1, "channel": 1, "note": 57, "velocity": 107, "time": 0, "type": "NormalMsg"}, "M_3806": {"note_status": 1, "channel": 1, "note": 57, "velocity": 0, "time": 0, "type": "NormalMsg"}, "M_3807": {"note_status": 1, "channel": 1, "note": 57, "velocity": 107, "time": 0, "type": "NormalMsg"}, "M_3808": {"note_status": 1, "channel": 1, "note": 57, "velocity": 0, "time": 0, "type": "NormalMsg"}, "M_3809": {"note_status": 1, "channel": 1, "note": 57, "velocity": 97, "time": 0, "type": "NormalMsg"}, "M_3810": {"note_status": 1, "channel": 1, "note": 57, "velocity": 0, "time": 0, "type": "NormalMsg"}, "M_3811": {"note_status": 1, "channel": 1, "note": 57, "velocity": 107, "time": 0, "type": "NormalMsg"}, "M_3812": {"note_status": 1, "channel": 1, "note": 57, "velocity": 0, "time": 0, "type": "NormalMsg"}, "M_3813": {"note_status": 1, "channel": 1, "note": 57, "velocity": 101, "time": 0, "type": "NormalMsg"}, "M_3814": {"note_status": 1, "channel": 1, "note": 57, "velocity": 0, "time": 0, "type": "NormalMsg"}, "M_3815": {"note_status": 1, "channel": 1, "note": 55, "velocity": 107, "time": 0, "type": "NormalMsg"}, "M_3816": {"note_status": 1, "channel": 1, "note": 55, "velocity": 0, "time": 0, "type": "NormalMsg"}, "M_3817": {"note_status": 1, "channel": 1, "note": 53, "velocity": 107, "time": 0, "type": "NormalMsg"}, "M_3818": {"note_status": 1, "channel": 1, "note": 53, "velocity": 0, "time": 0, "type": "NormalMsg"}, "M_3819": {"note_status": 1, "channel": 1, "note": 53, "velocity": 107, "time": 0, "type": "NormalMsg"}, "M_3820": {"note_status": 1, "channel": 1, "note": 53, "velocity": 0, "time": 0, "type": "NormalMsg"}, "M_3821": {"note_status": 1, "channel": 1, "note": 53, "velocity": 85, "time": 0, "type": "NormalMsg"}, "M_3822": {"note_status": 1, "channel": 1, "note": 53, "velocity": 0, "time": 0, "type": "NormalMsg"}, "M_3823": {"note_status": 1, "channel": 1, "note": 53, "velocity": 107, "time": 0, "type": "NormalMsg"}, "M_3824": {"note_status": 1, "channel": 1, "note": 53, "velocity": 0, "time": 0, "type": "NormalMsg"}, "M_3825": {"note_status": 1, "channel": 1, "note": 53, "velocity": 107, "time": 0, "type": "NormalMsg"}, "M_3826": {"note_status": 1, "channel": 1, "note": 53, "velocity": 0, "time": 0, "type": "NormalMsg"}, "M_3827": {"note_status": 1, "channel": 1, "note": 53, "velocity": 107, "time": 0, "type": "NormalMsg"}, "M_3828": {"note_status": 1, "channel": 1, "note": 53, "velocity": 0, "time": 0, "type": "NormalMsg"}, "M_3829": {"note_status": 1, "channel": 1, "note": 53, "velocity": 107, "time": 0, "type": "NormalMsg"}, "M_3830": {"note_status": 1, "channel": 1, "note": 53, "velocity": 0, "time": 0, "type": "NormalMsg"}, "M_3831": {"note_status": 1, "channel": 1, "note": 53, "velocity": 97, "time": 0, "type": "NormalMsg"}, "M_3832": {"note_status": 1, "channel": 1, "note": 53, "velocity": 0, "time": 0, "type": "NormalMsg"}, "M_3833": {"note_status": 1, "channel": 1, "note": 52, "velocity": 107, "time": 0, "type": "NormalMsg"}, "M_3834": {"note_status": 1, "channel": 1, "note": 52, "velocity": 0, "time": 0, "type": "NormalMsg"}, "M_3835": {"note_status": 1, "channel": 1, "note": 50, "velocity": 107, "time": 0, "type": "NormalMsg"}, "M_3836": {"note_status": 1, "channel": 1, "note": 50, "velocity": 0, "time": 0, "type": "NormalMsg"}, "M_3837": {"note_status": 1, "channel": 1, "note": 50, "velocity": 107, "time": 0, "type": "NormalMsg"}, "M_3838": {"note_status": 1, "channel": 1, "note": 50, "velocity": 0, "time": 0, "type": "NormalMsg"}, "M_3839": {"note_status": 1, "channel": 1, "note": 50, "velocity": 97, "time": 0, "type": "NormalMsg"}, "M_3840": {"note_status": 1, "channel": 1, "note": 50, "velocity": 0, "time": 0, "type": "NormalMsg"}, "M_3841": {"note_status": 1, "channel": 1, "note": 50, "velocity": 107, "time": 0, "type": "NormalMsg"}, "M_3842": {"note_status": 1, "channel": 1, "note": 50, "velocity": 0, "time": 0, "type": "NormalMsg"}, "M_3843": {"note_status": 1, "channel": 1, "note": 53, "velocity": 101, "time": 0, "type": "NormalMsg"}, "M_3844": {"note_status": 1, "channel": 1, "note": 53, "velocity": 0, "time": 0, "type": "NormalMsg"}, "M_3845": {"note_status": 1, "channel": 1, "note": 50, "velocity": 107, "time": 0, "type": "NormalMsg"}, "M_3846": {"note_status": 1, "channel": 1, "note": 50, "velocity": 0, "time": 0, "type": "NormalMsg"}, "M_3847": {"note_status": 1, "channel": 1, "note": 55, "velocity": 107, "time": 0, "type": "NormalMsg"}, "M_3848": {"note_status": 1, "channel": 1, "note": 55, "velocity": 0, "time": 0, "type": "NormalMsg"}, "M_3849": {"note_status": 1, "channel": 1, "note": 55, "velocity": 107, "time": 0, "type": "NormalMsg"}, "M_3850": {"note_status": 1, "channel": 1, "note": 55, "velocity": 0, "time": 0, "type": "NormalMsg"}, "M_3851": {"note_status": 1, "channel": 1, "note": 55, "velocity": 85, "time": 0, "type": "NormalMsg"}, "M_3852": {"note_status": 1, "channel": 1, "note": 55, "velocity": 0, "time": 0, "type": "NormalMsg"}, "M_3853": {"note_status": 1, "channel": 1, "note": 55, "velocity": 107, "time": 0, "type": "NormalMsg"}, "M_3854": {"note_status": 1, "channel": 1, "note": 55, "velocity": 0, "time": 0, "type": "NormalMsg"}, "M_3855": {"note_status": 1, "channel": 1, "note": 55, "velocity": 107, "time": 0, "type": "NormalMsg"}, "M_3856": {"note_status": 1, "channel": 1, "note": 55, "velocity": 0, "time": 0, "type": "NormalMsg"}, "M_3857": {"note_status": 1, "channel": 1, "note": 55, "velocity": 107, "time": 0, "type": "NormalMsg"}, "M_3858": {"note_status": 1, "channel": 1, "note": 55, "velocity": 0, "time": 0, "type": "NormalMsg"}, "M_3859": {"note_status": 1, "channel": 1, "note": 55, "velocity": 107, "time": 0, "type": "NormalMsg"}, "M_3860": {"note_status": 1, "channel": 1, "note": 55, "velocity": 0, "time": 0, "type": "NormalMsg"}, "M_3861": {"note_status": 1, "channel": 1, "note": 53, "velocity": 97, "time": 0, "type": "NormalMsg"}, "M_3862": {"note_status": 1, "channel": 1, "note": 53, "velocity": 0, "time": 0, "type": "NormalMsg"}, "M_3863": {"note_status": 1, "channel": 1, "note": 55, "velocity": 107, "time": 0, "type": "NormalMsg"}, "M_3864": {"note_status": 1, "channel": 1, "note": 55, "velocity": 0, "time": 0, "type": "NormalMsg"}, "M_3865": {"note_status": 1, "channel": 1, "note": 57, "velocity": 107, "time": 0, "type": "NormalMsg"}, "M_3866": {"note_status": 1, "channel": 1, "note": 57, "velocity": 0, "time": 0, "type": "NormalMsg"}, "M_3867": {"note_status": 1, "channel": 1, "note": 57, "velocity": 107, "time": 0, "type": "NormalMsg"}, "M_3868": {"note_status": 1, "channel": 1, "note": 57, "velocity": 0, "time": 0, "type": "NormalMsg"}, "M_3869": {"note_status": 1, "channel": 1, "note": 57, "velocity": 97, "time": 0, "type": "NormalMsg"}, "M_3870": {"note_status": 1, "channel": 1, "note": 57, "velocity": 0, "time": 0, "type": "NormalMsg"}, "M_3871": {"note_status": 1, "channel": 1, "note": 57, "velocity": 107, "time": 0, "type": "NormalMsg"}, "M_3872": {"note_status": 1, "channel": 1, "note": 57, "velocity": 0, "time": 0, "type": "NormalMsg"}, "M_3873": {"note_status": 1, "channel": 1, "note": 57, "velocity": 101, "time": 0, "type": "NormalMsg"}, "M_3874": {"note_status": 1, "channel": 1, "note": 57, "velocity": 0, "time": 0, "type": "NormalMsg"}, "M_3875": {"note_status": 1, "channel": 1, "note": 55, "velocity": 107, "time": 0, "type": "NormalMsg"}, "M_3876": {"note_status": 1, "channel": 1, "note": 55, "velocity": 0, "time": 0, "type": "NormalMsg"}, "M_3877": {"note_status": 1, "channel": 1, "note": 53, "velocity": 107, "time": 0, "type": "NormalMsg"}, "M_3878": {"note_status": 1, "channel": 1, "note": 53, "velocity": 0, "time": 0, "type": "NormalMsg"}, "M_3879": {"note_status": 1, "channel": 1, "note": 53, "velocity": 107, "time": 0, "type": "NormalMsg"}, "M_3880": {"note_status": 1, "channel": 1, "note": 53, "velocity": 0, "time": 0, "type": "NormalMsg"}, "M_3881": {"note_status": 1, "channel": 1, "note": 53, "velocity": 85, "time": 0, "type": "NormalMsg"}, "M_3882": {"note_status": 1, "channel": 1, "note": 53, "velocity": 0, "time": 0, "type": "NormalMsg"}, "M_3883": {"note_status": 1, "channel": 1, "note": 53, "velocity": 107, "time": 0, "type": "NormalMsg"}, "M_3884": {"note_status": 1, "channel": 1, "note": 53, "velocity": 0, "time": 0, "type": "NormalMsg"}, "M_3885": {"note_status": 1, "channel": 1, "note": 53, "velocity": 107, "time": 0, "type": "NormalMsg"}, "M_3886": {"note_status": 1, "channel": 1, "note": 53, "velocity": 0, "time": 0, "type": "NormalMsg"}, "M_3887": {"note_status": 1, "channel": 1, "note": 53, "velocity": 107, "time": 0, "type": "NormalMsg"}, "M_3888": {"note_status": 1, "channel": 1, "note": 53, "velocity": 0, "time": 0, "type": "NormalMsg"}, "M_3889": {"note_status": 1, "channel": 1, "note": 53, "velocity": 107, "time": 0, "type": "NormalMsg"}, "M_3890": {"note_status": 1, "channel": 1, "note": 53, "velocity": 0, "time": 0, "type": "NormalMsg"}, "M_3891": {"note_status": 1, "channel": 1, "note": 53, "velocity": 97, "time": 0, "type": "NormalMsg"}, "M_3892": {"note_status": 1, "channel": 1, "note": 53, "velocity": 0, "time": 0, "type": "NormalMsg"}, "M_3893": {"note_status": 1, "channel": 1, "note": 52, "velocity": 107, "time": 0, "type": "NormalMsg"}, "M_3894": {"note_status": 1, "channel": 1, "note": 52, "velocity": 0, "time": 0, "type": "NormalMsg"}, "M_3895": {"note_status": 1, "channel": 1, "note": 50, "velocity": 107, "time": 0, "type": "NormalMsg"}, "M_3896": {"note_status": 1, "channel": 1, "note": 50, "velocity": 0, "time": 0, "type": "NormalMsg"}, "M_3897": {"note_status": 1, "channel": 1, "note": 50, "velocity": 107, "time": 0, "type": "NormalMsg"}, "M_3898": {"note_status": 1, "channel": 1, "note": 50, "velocity": 0, "time": 0, "type": "NormalMsg"}, "M_3899": {"note_status": 1, "channel": 1, "note": 50, "velocity": 97, "time": 0, "type": "NormalMsg"}, "M_3900": {"note_status": 1, "channel": 1, "note": 50, "velocity": 0, "time": 0, "type": "NormalMsg"}, "M_3901": {"note_status": 1, "channel": 1, "note": 50, "velocity": 107, "time": 0, "type": "NormalMsg"}, "M_3902": {"note_status": 1, "channel": 1, "note": 50, "velocity": 0, "time": 0, "type": "NormalMsg"}, "M_3903": {"note_status": 1, "channel": 1, "note": 53, "velocity": 101, "time": 0, "type": "NormalMsg"}, "M_3904": {"note_status": 1, "channel": 1, "note": 53, "velocity": 0, "time": 0, "type": "NormalMsg"}, "M_3905": {"note_status": 1, "channel": 1, "note": 50, "velocity": 107, "time": 0, "type": "NormalMsg"}, "M_3906": {"note_status": 1, "channel": 1, "note": 50, "velocity": 0, "time": 0, "type": "NormalMsg"}, "M_3907": {"note_status": 1, "channel": 1, "note": 55, "velocity": 107, "time": 0, "type": "NormalMsg"}, "M_3908": {"note_status": 1, "channel": 1, "note": 55, "velocity": 0, "time": 0, "type": "NormalMsg"}, "M_3909": {"note_status": 1, "channel": 1, "note": 55, "velocity": 107, "time": 0, "type": "NormalMsg"}, "M_3910": {"note_status": 1, "channel": 1, "note": 55, "velocity": 0, "time": 0, "type": "NormalMsg"}, "M_3911": {"note_status": 1, "channel": 1, "note": 55, "velocity": 85, "time": 0, "type": "NormalMsg"}, "M_3912": {"note_status": 1, "channel": 1, "note": 55, "velocity": 0, "time": 0, "type": "NormalMsg"}, "M_3913": {"note_status": 1, "channel": 1, "note": 55, "velocity": 107, "time": 0, "type": "NormalMsg"}, "M_3914": {"note_status": 1, "channel": 1, "note": 55, "velocity": 0, "time": 0, "type": "NormalMsg"}, "M_3915": {"note_status": 1, "channel": 1, "note": 55, "velocity": 107, "time": 0, "type": "NormalMsg"}, "M_3916": {"note_status": 1, "channel": 1, "note": 55, "velocity": 0, "time": 0, "type": "NormalMsg"}, "M_3917": {"note_status": 1, "channel": 1, "note": 55, "velocity": 107, "time": 0, "type": "NormalMsg"}, "M_3918": {"note_status": 1, "channel": 1, "note": 55, "velocity": 0, "time": 0, "type": "NormalMsg"}, "M_3919": {"note_status": 1, "channel": 1, "note": 55, "velocity": 107, "time": 0, "type": "NormalMsg"}, "M_3920": {"note_status": 1, "channel": 1, "note": 55, "velocity": 0, "time": 0, "type": "NormalMsg"}, "M_3921": {"note_status": 1, "channel": 1, "note": 53, "velocity": 97, "time": 0, "type": "NormalMsg"}, "M_3922": {"note_status": 1, "channel": 1, "note": 53, "velocity": 0, "time": 0, "type": "NormalMsg"}, "M_3923": {"note_status": 1, "channel": 1, "note": 55, "velocity": 107, "time": 0, "type": "NormalMsg"}, "M_3924": {"note_status": 1, "channel": 1, "note": 55, "velocity": 0, "time": 0, "type": "NormalMsg"}, "R_3925": {"note_status": 0, "channel": 0, "note": 0, "velocity": 0, "time": 0, "type": "ResetMsg"}, "R_3926": {"note_status": 0, "channel": 0, "note": 0, "velocity": 0, "time": 0, "type": "ResetMsg"}, "U_3927": {"note_status": 0, "channel": 0, "note": 0, "velocity": 0, "time": 0, "type": "DummyType"}, "M_3928": {"note_status": 1, "channel": 9, "note": 28, "velocity": 120, "time": 0, "type": "NormalMsg"}, "M_3929": {"note_status": 1, "channel": 9, "note": 41, "velocity": 90, "time": 0, "type": "NormalMsg"}, "M_3930": {"note_status": 1, "channel": 9, "note": 28, "velocity": 0, "time": 0, "type": "NormalMsg"}, "M_3931": {"note_status": 1, "channel": 9, "note": 41, "velocity": 0, "time": 0, "type": "NormalMsg"}, "M_3932": {"note_status": 1, "channel": 9, "note": 35, "velocity": 112, "time": 0, "type": "NormalMsg"}, "M_3933": {"note_status": 1, "channel": 9, "note": 42, "velocity": 58, "time": 0, "type": "NormalMsg"}, "M_3934": {"note_status": 1, "channel": 9, "note": 35, "velocity": 0, "time": 0, "type": "NormalMsg"}, "M_3935": {"note_status": 1, "channel": 9, "note": 42, "velocity": 0, "time": 0, "type": "NormalMsg"}, "M_3936": {"note_status": 1, "channel": 9, "note": 42, "velocity": 45, "time": 0, "type": "NormalMsg"}, "M_3937": {"note_status": 1, "channel": 9, "note": 42, "velocity": 0, "time": 0, "type": "NormalMsg"}, "M_3938": {"note_status": 1, "channel": 9, "note": 42, "velocity": 45, "time": 0, "type": "NormalMsg"}, "M_3939": {"note_status": 1, "channel": 9, "note": 42, "velocity": 0, "time": 0, "type": "NormalMsg"}, "M_3940": {"note_status": 1, "channel": 9, "note": 35, "velocity": 112, "time": 0, "type": "NormalMsg"}, "M_3941": {"note_status": 1, "channel": 9, "note": 38, "velocity": 90, "time": 0, "type": "NormalMsg"}, "M_3942": {"note_status": 1, "channel": 9, "note": 42, "velocity": 58, "time": 0, "type": "NormalMsg"}, "M_3943": {"note_status": 1, "channel": 9, "note": 35, "velocity": 0, "time": 0, "type": "NormalMsg"}, "M_3944": {"note_status": 1, "channel": 9, "note": 38, "velocity": 0, "time": 0, "type": "NormalMsg"}, "M_3945": {"note_status": 1, "channel": 9, "note": 42, "velocity": 0, "time": 0, "type": "NormalMsg"}, "M_3946": {"note_status": 1, "channel": 9, "note": 42, "velocity": 45, "time": 0, "type": "NormalMsg"}, "M_3947": {"note_status": 1, "channel": 9, "note": 42, "velocity": 0, "time": 0, "type": "NormalMsg"}, "M_3948": {"note_status": 1, "channel": 9, "note": 42, "velocity": 45, "time": 0, "type": "NormalMsg"}, "M_3949": {"note_status": 1, "channel": 9, "note": 42, "velocity": 0, "time": 0, "type": "NormalMsg"}, "M_3950": {"note_status": 1, "channel": 9, "note": 35, "velocity": 112, "time": 0, "type": "NormalMsg"}, "M_3951": {"note_status": 1, "channel": 9, "note": 42, "velocity": 58, "time": 0, "type": "NormalMsg"}, "M_3952": {"note_status": 1, "channel": 9, "note": 35, "velocity": 0, "time": 0, "type": "NormalMsg"}, "M_3953": {"note_status": 1, "channel": 9, "note": 42, "velocity": 0, "time": 0, "type": "NormalMsg"}, "M_3954": {"note_status": 1, "channel": 9, "note": 42, "velocity": 52, "time": 0, "type": "NormalMsg"}, "M_3955": {"note_status": 1, "channel": 9, "note": 42, "velocity": 0, "time": 0, "type": "NormalMsg"}, "M_3956": {"note_status": 1, "channel": 9, "note": 42, "velocity": 58, "time": 0, "type": "NormalMsg"}, "M_3957": {"note_status": 1, "channel": 9, "note": 42, "velocity": 0, "time": 0, "type": "NormalMsg"}, "M_3958": {"note_status": 1, "channel": 9, "note": 42, "velocity": 58, "time": 0, "type": "NormalMsg"}, "M_3959": {"note_status": 1, "channel": 9, "note": 42, "velocity": 0, "time": 0, "type": "NormalMsg"}, "M_3960": {"note_status": 1, "channel": 9, "note": 35, "velocity": 112, "time": 0, "type": "NormalMsg"}, "M_3961": {"note_status": 1, "channel": 9, "note": 38, "velocity": 90, "time": 0, "type": "NormalMsg"}, "M_3962": {"note_status": 1, "channel": 9, "note": 42, "velocity": 58, "time": 0, "type": "NormalMsg"}, "M_3963": {"note_status": 1, "channel": 9, "note": 35, "velocity": 0, "time": 0, "type": "NormalMsg"}, "M_3964": {"note_status": 1, "channel": 9, "note": 38, "velocity": 0, "time": 0, "type": "NormalMsg"}, "M_3965": {"note_status": 1, "channel": 9, "note": 42, "velocity": 0, "time": 0, "type": "NormalMsg"}, "M_3966": {"note_status": 1, "channel": 9, "note": 42, "velocity": 45, "time": 0, "type": "NormalMsg"}, "M_3967": {"note_status": 1, "channel": 9, "note": 42, "velocity": 0, "time": 0, "type": "NormalMsg"}, "M_3968": {"note_status": 1, "channel": 9, "note": 42, "velocity": 45, "time": 0, "type": "NormalMsg"}, "M_3969": {"note_status": 1, "channel": 9, "note": 42, "velocity": 0, "time": 0, "type": "NormalMsg"}, "M_3970": {"note_status": 1, "channel": 9, "note": 35, "velocity": 112, "time": 0, "type": "NormalMsg"}, "M_3971": {"note_status": 1, "channel": 9, "note": 42, "velocity": 58, "time": 0, "type": "NormalMsg"}, "M_3972": {"note_status": 1, "channel": 9, "note": 35, "velocity": 0, "time": 0, "type": "NormalMsg"}, "M_3973": {"note_status": 1, "channel": 9, "note": 42, "velocity": 0, "time": 0, "type": "NormalMsg"}, "M_3974": {"note_status": 1, "channel": 9, "note": 42, "velocity": 45, "time": 0, "type": "NormalMsg"}, "M_3975": {"note_status": 1, "channel": 9, "note": 42, "velocity": 0, "time": 0, "type": "NormalMsg"}, "M_3976": {"note_status": 1, "channel": 9, "note": 42, "velocity": 45, "time": 0, "type": "NormalMsg"}, "M_3977": {"note_status": 1, "channel": 9, "note": 42, "velocity": 0, "time": 0, "type": "NormalMsg"}, "M_3978": {"note_status": 1, "channel": 9, "note": 35, "velocity": 112, "time": 0, "type": "NormalMsg"}, "M_3979": {"note_status": 1, "channel": 9, "note": 38, "velocity": 90, "time": 0, "type": "NormalMsg"}, "M_3980": {"note_status": 1, "channel": 9, "note": 42, "velocity": 58, "time": 0, "type": "NormalMsg"}, "M_3981": {"note_status": 1, "channel": 9, "note": 35, "velocity": 0, "time": 0, "type": "NormalMsg"}, "M_3982": {"note_status": 1, "channel": 9, "note": 38, "velocity": 0, "time": 0, "type": "NormalMsg"}, "M_3983": {"note_status": 1, "channel": 9, "note": 42, "velocity": 0, "time": 0, "type": "NormalMsg"}, "M_3984": {"note_status": 1, "channel": 9, "note": 42, "velocity": 45, "time": 0, "type": "NormalMsg"}, "M_3985": {"note_status": 1, "channel": 9, "note": 42, "velocity": 0, "time": 0, "type": "NormalMsg"}, "M_3986": {"note_status": 1, "channel": 9, "note": 42, "velocity": 45, "time": 0, "type": "NormalMsg"}, "M_3987": {"note_status": 1, "channel": 9, "note": 42, "velocity": 0, "time": 0, "type": "NormalMsg"}, "M_3988": {"note_status": 1, "channel": 9, "note": 35, "velocity": 112, "time": 0, "type": "NormalMsg"}, "M_3989": {"note_status": 1, "channel": 9, "note": 42, "velocity": 58, "time": 0, "type": "NormalMsg"}, "M_3990": {"note_status": 1, "channel": 9, "note": 35, "velocity": 0, "time": 0, "type": "NormalMsg"}, "M_3991": {"note_status": 1, "channel": 9, "note": 42, "velocity": 0, "time": 0, "type": "NormalMsg"}, "M_3992": {"note_status": 1, "channel": 9, "note": 42, "velocity": 33, "time": 0, "type": "NormalMsg"}, "M_3993": {"note_status": 1, "channel": 9, "note": 42, "velocity": 0, "time": 0, "type": "NormalMsg"}, "M_3994": {"note_status": 1, "channel": 9, "note": 42, "velocity": 58, "time": 0, "type": "NormalMsg"}, "M_3995": {"note_status": 1, "channel": 9, "note": 42, "velocity": 0, "time": 0, "type": "NormalMsg"}, "M_3996": {"note_status": 1, "channel": 9, "note": 42, "velocity": 58, "time": 0, "type": "NormalMsg"}, "M_3997": {"note_status": 1, "channel": 9, "note": 42, "velocity": 0, "time": 0, "type": "NormalMsg"}, "M_3998": {"note_status": 1, "channel": 9, "note": 35, "velocity": 112, "time": 0, "type": "NormalMsg"}, "M_3999": {"note_status": 1, "channel": 9, "note": 38, "velocity": 90, "time": 0, "type": "NormalMsg"}, "M_4000": {"note_status": 1, "channel": 9, "note": 42, "velocity": 58, "time": 0, "type": "NormalMsg"}, "M_4001": {"note_status": 1, "channel": 9, "note": 35, "velocity": 0, "time": 0, "type": "NormalMsg"}, "M_4002": {"note_status": 1, "channel": 9, "note": 38, "velocity": 0, "time": 0, "type": "NormalMsg"}, "M_4003": {"note_status": 1, "channel": 9, "note": 42, "velocity": 0, "time": 0, "type": "NormalMsg"}, "M_4004": {"note_status": 1, "channel": 9, "note": 42, "velocity": 45, "time": 0, "type": "NormalMsg"}, "M_4005": {"note_status": 1, "channel": 9, "note": 42, "velocity": 0, "time": 0, "type": "NormalMsg"}, "M_4006": {"note_status": 1, "channel": 9, "note": 42, "velocity": 45, "time": 0, "type": "NormalMsg"}, "M_4007": {"note_status": 1, "channel": 9, "note": 42, "velocity": 0, "time": 0, "type": "NormalMsg"}, "M_4008": {"note_status": 1, "channel": 9, "note": 35, "velocity": 112, "time": 0, "type": "NormalMsg"}, "M_4009": {"note_status": 1, "channel": 9, "note": 42, "velocity": 58, "time": 0, "type": "NormalMsg"}, "M_4010": {"note_status": 1, "channel": 9, "note": 35, "velocity": 0, "time": 0, "type": "NormalMsg"}, "M_4011": {"note_status": 1, "channel": 9, "note": 42, "velocity": 0, "time": 0, "type": "NormalMsg"}, "M_4012": {"note_status": 1, "channel": 9, "note": 42, "velocity": 45, "time": 0, "type": "NormalMsg"}, "M_4013": {"note_status": 1, "channel": 9, "note": 42, "velocity": 0, "time": 0, "type": "NormalMsg"}, "M_4014": {"note_status": 1, "channel": 9, "note": 42, "velocity": 45, "time": 0, "type": "NormalMsg"}, "M_4015": {"note_status": 1, "channel": 9, "note": 42, "velocity": 0, "time": 0, "type": "NormalMsg"}, "M_4016": {"note_status": 1, "channel": 9, "note": 35, "velocity": 112, "time": 0, "type": "NormalMsg"}, "M_4017": {"note_status": 1, "channel": 9, "note": 38, "velocity": 90, "time": 0, "type": "NormalMsg"}, "M_4018": {"note_status": 1, "channel": 9, "note": 42, "velocity": 58, "time": 0, "type": "NormalMsg"}, "M_4019": {"note_status": 1, "channel": 9, "note": 35, "velocity": 0, "time": 0, "type": "NormalMsg"}, "M_4020": {"note_status": 1, "channel": 9, "note": 38, "velocity": 0, "time": 0, "type": "NormalMsg"}, "M_4021": {"note_status": 1, "channel": 9, "note": 42, "velocity": 0, "time": 0, "type": "NormalMsg"}, "M_4022": {"note_status": 1, "channel": 9, "note": 42, "velocity": 45, "time": 0, "type": "NormalMsg"}, "M_4023": {"note_status": 1, "channel": 9, "note": 42, "velocity": 0, "time": 0, "type": "NormalMsg"}, "M_4024": {"note_status": 1, "channel": 9, "note": 42, "velocity": 45, "time": 0, "type": "NormalMsg"}, "M_4025": {"note_status": 1, "channel": 9, "note": 42, "velocity": 0, "time": 0, "type": "NormalMsg"}, "M_4026": {"note_status": 1, "channel": 9, "note": 35, "velocity": 112, "time": 0, "type": "NormalMsg"}, "M_4027": {"note_status": 1, "channel": 9, "note": 42, "velocity": 58, "time": 0, "type": "NormalMsg"}, "M_4028": {"note_status": 1, "channel": 9, "note": 35, "velocity": 0, "time": 0, "type": "NormalMsg"}, "M_4029": {"note_status": 1, "channel": 9, "note": 42, "velocity": 0, "time": 0, "type": "NormalMsg"}, "M_4030": {"note_status": 1, "channel": 9, "note": 42, "velocity": 52, "time": 0, "type": "NormalMsg"}, "M_4031": {"note_status": 1, "channel": 9, "note": 42, "velocity": 0, "time": 0, "type": "NormalMsg"}, "M_4032": {"note_status": 1, "channel": 9, "note": 42, "velocity": 58, "time": 0, "type": "NormalMsg"}, "M_4033": {"note_status": 1, "channel": 9, "note": 42, "velocity": 0, "time": 0, "type": "NormalMsg"}, "M_4034": {"note_status": 1, "channel": 9, "note": 42, "velocity": 58, "time": 0, "type": "NormalMsg"}, "M_4035": {"note_status": 1, "channel": 9, "note": 42, "velocity": 0, "time": 0, "type": "NormalMsg"}, "M_4036": {"note_status": 1, "channel": 9, "note": 35, "velocity": 112, "time": 0, "type": "NormalMsg"}, "M_4037": {"note_status": 1, "channel": 9, "note": 38, "velocity": 90, "time": 0, "type": "NormalMsg"}, "M_4038": {"note_status": 1, "channel": 9, "note": 42, "velocity": 58, "time": 0, "type": "NormalMsg"}, "M_4039": {"note_status": 1, "channel": 9, "note": 35, "velocity": 0, "time": 0, "type": "NormalMsg"}, "M_4040": {"note_status": 1, "channel": 9, "note": 38, "velocity": 0, "time": 0, "type": "NormalMsg"}, "M_4041": {"note_status": 1, "channel": 9, "note": 42, "velocity": 0, "time": 0, "type": "NormalMsg"}, "M_4042": {"note_status": 1, "channel": 9, "note": 42, "velocity": 45, "time": 0, "type": "NormalMsg"}, "M_4043": {"note_status": 1, "channel": 9, "note": 42, "velocity": 0, "time": 0, "type": "NormalMsg"}, "M_4044": {"note_status": 1, "channel": 9, "note": 42, "velocity": 45, "time": 0, "type": "NormalMsg"}, "M_4045": {"note_status": 1, "channel": 9, "note": 42, "velocity": 0, "time": 0, "type": "NormalMsg"}, "M_4046": {"note_status": 1, "channel": 9, "note": 35, "velocity": 112, "time": 0, "type": "NormalMsg"}, "M_4047": {"note_status": 1, "channel": 9, "note": 42, "velocity": 58, "time": 0, "type": "NormalMsg"}, "M_4048": {"note_status": 1, "channel": 9, "note": 35, "velocity": 0, "time": 0, "type": "NormalMsg"}, "M_4049": {"note_status": 1, "channel": 9, "note": 42, "velocity": 0, "time": 0, "type": "NormalMsg"}, "M_4050": {"note_status": 1, "channel": 9, "note": 42, "velocity": 45, "time": 0, "type": "NormalMsg"}, "M_4051": {"note_status": 1, "channel": 9, "note": 42, "velocity": 0, "time": 0, "type": "NormalMsg"}, "M_4052": {"note_status": 1, "channel": 9, "note": 42, "velocity": 45, "time": 0, "type": "NormalMsg"}, "M_4053": {"note_status": 1, "channel": 9, "note": 42, "velocity": 0, "time": 0, "type": "NormalMsg"}, "M_4054": {"note_status": 1, "channel": 9, "note": 35, "velocity": 112, "time": 0, "type": "NormalMsg"}, "M_4055": {"note_status": 1, "channel": 9, "note": 38, "velocity": 90, "time": 0, "type": "NormalMsg"}, "M_4056": {"note_status": 1, "channel": 9, "note": 42, "velocity": 58, "time": 0, "type": "NormalMsg"}, "M_4057": {"note_status": 1, "channel": 9, "note": 35, "velocity": 0, "time": 0, "type": "NormalMsg"}, "M_4058": {"note_status": 1, "channel": 9, "note": 38, "velocity": 0, "time": 0, "type": "NormalMsg"}, "M_4059": {"note_status": 1, "channel": 9, "note": 42, "velocity": 0, "time": 0, "type": "NormalMsg"}, "M_4060": {"note_status": 1, "channel": 9, "note": 42, "velocity": 45, "time": 0, "type": "NormalMsg"}, "M_4061": {"note_status": 1, "channel": 9, "note": 42, "velocity": 0, "time": 0, "type": "NormalMsg"}, "M_4062": {"note_status": 1, "channel": 9, "note": 42, "velocity": 45, "time": 0, "type": "NormalMsg"}, "M_4063": {"note_status": 1, "channel": 9, "note": 42, "velocity": 0, "time": 0, "type": "NormalMsg"}, "M_4064": {"note_status": 1, "channel": 9, "note": 35, "velocity": 112, "time": 0, "type": "NormalMsg"}, "M_4065": {"note_status": 1, "channel": 9, "note": 42, "velocity": 58, "time": 0, "type": "NormalMsg"}, "M_4066": {"note_status": 1, "channel": 9, "note": 35, "velocity": 0, "time": 0, "type": "NormalMsg"}, "M_4067": {"note_status": 1, "channel": 9, "note": 42, "velocity": 0, "time": 0, "type": "NormalMsg"}, "M_4068": {"note_status": 1, "channel": 9, "note": 42, "velocity": 58, "time": 0, "type": "NormalMsg"}, "M_4069": {"note_status": 1, "channel": 9, "note": 42, "velocity": 0, "time": 0, "type": "NormalMsg"}, "M_4070": {"note_status": 1, "channel": 9, "note": 42, "velocity": 58, "time": 0, "type": "NormalMsg"}, "M_4071": {"note_status": 1, "channel": 9, "note": 42, "velocity": 0, "time": 0, "type": "NormalMsg"}, "M_4072": {"note_status": 1, "channel": 9, "note": 35, "velocity": 112, "time": 0, "type": "NormalMsg"}, "M_4073": {"note_status": 1, "channel": 9, "note": 38, "velocity": 90, "time": 0, "type": "NormalMsg"}, "M_4074": {"note_status": 1, "channel": 9, "note": 42, "velocity": 58, "time": 0, "type": "NormalMsg"}, "M_4075": {"note_status": 1, "channel": 9, "note": 35, "velocity": 0, "time": 0, "type": "NormalMsg"}, "M_4076": {"note_status": 1, "channel": 9, "note": 38, "velocity": 0, "time": 0, "type": "NormalMsg"}, "M_4077": {"note_status": 1, "channel": 9, "note": 42, "velocity": 0, "time": 0, "type": "NormalMsg"}, "M_4078": {"note_status": 1, "channel": 9, "note": 42, "velocity": 45, "time": 0, "type": "NormalMsg"}, "M_4079": {"note_status": 1, "channel": 9, "note": 42, "velocity": 0, "time": 0, "type": "NormalMsg"}, "M_4080": {"note_status": 1, "channel": 9, "note": 42, "velocity": 45, "time": 0, "type": "NormalMsg"}, "M_4081": {"note_status": 1, "channel": 9, "note": 42, "velocity": 0, "time": 0, "type": "NormalMsg"}, "M_4082": {"note_status": 1, "channel": 9, "note": 35, "velocity": 112, "time": 0, "type": "NormalMsg"}, "M_4083": {"note_status": 1, "channel": 9, "note": 42, "velocity": 58, "time": 0, "type": "NormalMsg"}, "M_4084": {"note_status": 1, "channel": 9, "note": 35, "velocity": 0, "time": 0, "type": "NormalMsg"}, "M_4085": {"note_status": 1, "channel": 9, "note": 42, "velocity": 0, "time": 0, "type": "NormalMsg"}, "M_4086": {"note_status": 1, "channel": 9, "note": 42, "velocity": 45, "time": 0, "type": "NormalMsg"}, "M_4087": {"note_status": 1, "channel": 9, "note": 42, "velocity": 0, "time": 0, "type": "NormalMsg"}, "M_4088": {"note_status": 1, "channel": 9, "note": 42, "velocity": 45, "time": 0, "type": "NormalMsg"}, "M_4089": {"note_status": 1, "channel": 9, "note": 42, "velocity": 0, "time": 0, "type": "NormalMsg"}, "M_4090": {"note_status": 1, "channel": 9, "note": 35, "velocity": 112, "time": 0, "type": "NormalMsg"}, "M_4091": {"note_status": 1, "channel": 9, "note": 38, "velocity": 90, "time": 0, "type": "NormalMsg"}, "M_4092": {"note_status": 1, "channel": 9, "note": 42, "velocity": 58, "time": 0, "type": "NormalMsg"}, "M_4093": {"note_status": 1, "channel": 9, "note": 35, "velocity": 0, "time": 0, "type": "NormalMsg"}, "M_4094": {"note_status": 1, "channel": 9, "note": 38, "velocity": 0, "time": 0, "type": "NormalMsg"}, "M_4095": {"note_status": 1, "channel": 9, "note": 42, "velocity": 0, "time": 0, "type": "NormalMsg"}, "M_4096": {"note_status": 1, "channel": 9, "note": 42, "velocity": 45, "time": 0, "type": "NormalMsg"}, "M_4097": {"note_status": 1, "channel": 9, "note": 42, "velocity": 0, "time": 0, "type": "NormalMsg"}, "M_4098": {"note_status": 1, "channel": 9, "note": 42, "velocity": 45, "time": 0, "type": "NormalMsg"}, "M_4099": {"note_status": 1, "channel": 9, "note": 42, "velocity": 0, "time": 0, "type": "NormalMsg"}, "M_4100": {"note_status": 1, "channel": 9, "note": 35, "velocity": 112, "time": 0, "type": "NormalMsg"}, "M_4101": {"note_status": 1, "channel": 9, "note": 42, "velocity": 58, "time": 0, "type": "NormalMsg"}, "M_4102": {"note_status": 1, "channel": 9, "note": 35, "velocity": 0, "time": 0, "type": "NormalMsg"}, "M_4103": {"note_status": 1, "channel": 9, "note": 42, "velocity": 0, "time": 0, "type": "NormalMsg"}, "M_4104": {"note_status": 1, "channel": 9, "note": 42, "velocity": 52, "time": 0, "type": "NormalMsg"}, "M_4105": {"note_status": 1, "channel": 9, "note": 42, "velocity": 0, "time": 0, "type": "NormalMsg"}, "M_4106": {"note_status": 1, "channel": 9, "note": 42, "velocity": 58, "time": 0, "type": "NormalMsg"}, "M_4107": {"note_status": 1, "channel": 9, "note": 42, "velocity": 0, "time": 0, "type": "NormalMsg"}, "M_4108": {"note_status": 1, "channel": 9, "note": 42, "velocity": 58, "time": 0, "type": "NormalMsg"}, "M_4109": {"note_status": 1, "channel": 9, "note": 42, "velocity": 0, "time": 0, "type": "NormalMsg"}, "M_4110": {"note_status": 1, "channel": 9, "note": 35, "velocity": 112, "time": 0, "type": "NormalMsg"}, "M_4111": {"note_status": 1, "channel": 9, "note": 38, "velocity": 90, "time": 0, "type": "NormalMsg"}, "M_4112": {"note_status": 1, "channel": 9, "note": 42, "velocity": 58, "time": 0, "type": "NormalMsg"}, "M_4113": {"note_status": 1, "channel": 9, "note": 35, "velocity": 0, "time": 0, "type": "NormalMsg"}, "M_4114": {"note_status": 1, "channel": 9, "note": 38, "velocity": 0, "time": 0, "type": "NormalMsg"}, "M_4115": {"note_status": 1, "channel": 9, "note": 42, "velocity": 0, "time": 0, "type": "NormalMsg"}, "M_4116": {"note_status": 1, "channel": 9, "note": 42, "velocity": 45, "time": 0, "type": "NormalMsg"}, "M_4117": {"note_status": 1, "channel": 9, "note": 42, "velocity": 0, "time": 0, "type": "NormalMsg"}, "M_4118": {"note_status": 1, "channel": 9, "note": 42, "velocity": 45, "time": 0, "type": "NormalMsg"}, "M_4119": {"note_status": 1, "channel": 9, "note": 42, "velocity": 0, "time": 0, "type": "NormalMsg"}, "M_4120": {"note_status": 1, "channel": 9, "note": 35, "velocity": 112, "time": 0, "type": "NormalMsg"}, "M_4121": {"note_status": 1, "channel": 9, "note": 42, "velocity": 58, "time": 0, "type": "NormalMsg"}, "M_4122": {"note_status": 1, "channel": 9, "note": 35, "velocity": 0, "time": 0, "type": "NormalMsg"}, "M_4123": {"note_status": 1, "channel": 9, "note": 42, "velocity": 0, "time": 0, "type": "NormalMsg"}, "M_4124": {"note_status": 1, "channel": 9, "note": 42, "velocity": 45, "time": 0, "type": "NormalMsg"}, "M_4125": {"note_status": 1, "channel": 9, "note": 42, "velocity": 0, "time": 0, "type": "NormalMsg"}, "M_4126": {"note_status": 1, "channel": 9, "note": 42, "velocity": 45, "time": 0, "type": "NormalMsg"}, "M_4127": {"note_status": 1, "channel": 9, "note": 42, "velocity": 0, "time": 0, "type": "NormalMsg"}, "M_4128": {"note_status": 1, "channel": 9, "note": 35, "velocity": 112, "time": 0, "type": "NormalMsg"}, "M_4129": {"note_status": 1, "channel": 9, "note": 38, "velocity": 90, "time": 0, "type": "NormalMsg"}, "M_4130": {"note_status": 1, "channel": 9, "note": 42, "velocity": 58, "time": 0, "type": "NormalMsg"}, "M_4131": {"note_status": 1, "channel": 9, "note": 35, "velocity": 0, "time": 0, "type": "NormalMsg"}, "M_4132": {"note_status": 1, "channel": 9, "note": 38, "velocity": 0, "time": 0, "type": "NormalMsg"}, "M_4133": {"note_status": 1, "channel": 9, "note": 42, "velocity": 0, "time": 0, "type": "NormalMsg"}, "M_4134": {"note_status": 1, "channel": 9, "note": 42, "velocity": 45, "time": 0, "type": "NormalMsg"}, "M_4135": {"note_status": 1, "channel": 9, "note": 42, "velocity": 0, "time": 0, "type": "NormalMsg"}, "M_4136": {"note_status": 1, "channel": 9, "note": 42, "velocity": 45, "time": 0, "type": "NormalMsg"}, "M_4137": {"note_status": 1, "channel": 9, "note": 42, "velocity": 0, "time": 0, "type": "NormalMsg"}, "M_4138": {"note_status": 1, "channel": 9, "note": 35, "velocity": 112, "time": 0, "type": "NormalMsg"}, "M_4139": {"note_status": 1, "channel": 9, "note": 42, "velocity": 58, "time": 0, "type": "NormalMsg"}, "M_4140": {"note_status": 1, "channel": 9, "note": 35, "velocity": 0, "time": 0, "type": "NormalMsg"}, "M_4141": {"note_status": 1, "channel": 9, "note": 42, "velocity": 0, "time": 0, "type": "NormalMsg"}, "M_4142": {"note_status": 1, "channel": 9, "note": 42, "velocity": 58, "time": 0, "type": "NormalMsg"}, "M_4143": {"note_status": 1, "channel": 9, "note": 42, "velocity": 0, "time": 0, "type": "NormalMsg"}, "M_4144": {"note_status": 1, "channel": 9, "note": 42, "velocity": 58, "time": 0, "type": "NormalMsg"}, "M_4145": {"note_status": 1, "channel": 9, "note": 42, "velocity": 0, "time": 0, "type": "NormalMsg"}, "M_4146": {"note_status": 1, "channel": 9, "note": 35, "velocity": 112, "time": 0, "type": "NormalMsg"}, "M_4147": {"note_status": 1, "channel": 9, "note": 38, "velocity": 90, "time": 0, "type": "NormalMsg"}, "M_4148": {"note_status": 1, "channel": 9, "note": 42, "velocity": 58, "time": 0, "type": "NormalMsg"}, "M_4149": {"note_status": 1, "channel": 9, "note": 35, "velocity": 0, "time": 0, "type": "NormalMsg"}, "M_4150": {"note_status": 1, "channel": 9, "note": 38, "velocity": 0, "time": 0, "type": "NormalMsg"}, "M_4151": {"note_status": 1, "channel": 9, "note": 42, "velocity": 0, "time": 0, "type": "NormalMsg"}, "M_4152": {"note_status": 1, "channel": 9, "note": 42, "velocity": 45, "time": 0, "type": "NormalMsg"}, "M_4153": {"note_status": 1, "channel": 9, "note": 42, "velocity": 0, "time": 0, "type": "NormalMsg"}, "M_4154": {"note_status": 1, "channel": 9, "note": 42, "velocity": 45, "time": 0, "type": "NormalMsg"}, "M_4155": {"note_status": 1, "channel": 9, "note": 42, "velocity": 0, "time": 0, "type": "NormalMsg"}, "M_4156": {"note_status": 1, "channel": 9, "note": 35, "velocity": 112, "time": 0, "type": "NormalMsg"}, "M_4157": {"note_status": 1, "channel": 9, "note": 42, "velocity": 58, "time": 0, "type": "NormalMsg"}, "M_4158": {"note_status": 1, "channel": 9, "note": 35, "velocity": 0, "time": 0, "type": "NormalMsg"}, "M_4159": {"note_status": 1, "channel": 9, "note": 42, "velocity": 0, "time": 0, "type": "NormalMsg"}, "M_4160": {"note_status": 1, "channel": 9, "note": 42, "velocity": 45, "time": 0, "type": "NormalMsg"}, "M_4161": {"note_status": 1, "channel": 9, "note": 42, "velocity": 0, "time": 0, "type": "NormalMsg"}, "M_4162": {"note_status": 1, "channel": 9, "note": 42, "velocity": 45, "time": 0, "type": "NormalMsg"}, "M_4163": {"note_status": 1, "channel": 9, "note": 42, "velocity": 0, "time": 0, "type": "NormalMsg"}, "M_4164": {"note_status": 1, "channel": 9, "note": 35, "velocity": 112, "time": 0, "type": "NormalMsg"}, "M_4165": {"note_status": 1, "channel": 9, "note": 38, "velocity": 90, "time": 0, "type": "NormalMsg"}, "M_4166": {"note_status": 1, "channel": 9, "note": 42, "velocity": 58, "time": 0, "type": "NormalMsg"}, "M_4167": {"note_status": 1, "channel": 9, "note": 35, "velocity": 0, "time": 0, "type": "NormalMsg"}, "M_4168": {"note_status": 1, "channel": 9, "note": 38, "velocity": 0, "time": 0, "type": "NormalMsg"}, "M_4169": {"note_status": 1, "channel": 9, "note": 42, "velocity": 0, "time": 0, "type": "NormalMsg"}, "M_4170": {"note_status": 1, "channel": 9, "note": 42, "velocity": 45, "time": 0, "type": "NormalMsg"}, "M_4171": {"note_status": 1, "channel": 9, "note": 42, "velocity": 0, "time": 0, "type": "NormalMsg"}, "M_4172": {"note_status": 1, "channel": 9, "note": 42, "velocity": 45, "time": 0, "type": "NormalMsg"}, "M_4173": {"note_status": 1, "channel": 9, "note": 42, "velocity": 0, "time": 0, "type": "NormalMsg"}, "M_4174": {"note_status": 1, "channel": 9, "note": 35, "velocity": 112, "time": 0, "type": "NormalMsg"}, "M_4175": {"note_status": 1, "channel": 9, "note": 42, "velocity": 58, "time": 0, "type": "NormalMsg"}, "M_4176": {"note_status": 1, "channel": 9, "note": 35, "velocity": 0, "time": 0, "type": "NormalMsg"}, "M_4177": {"note_status": 1, "channel": 9, "note": 42, "velocity": 0, "time": 0, "type": "NormalMsg"}, "M_4178": {"note_status": 1, "channel": 9, "note": 42, "velocity": 52, "time": 0, "type": "NormalMsg"}, "M_4179": {"note_status": 1, "channel": 9, "note": 42, "velocity": 0, "time": 0, "type": "NormalMsg"}, "M_4180": {"note_status": 1, "channel": 9, "note": 42, "velocity": 58, "time": 0, "type": "NormalMsg"}, "M_4181": {"note_status": 1, "channel": 9, "note": 42, "velocity": 0, "time": 0, "type": "NormalMsg"}, "M_4182": {"note_status": 1, "channel": 9, "note": 42, "velocity": 58, "time": 0, "type": "NormalMsg"}, "M_4183": {"note_status": 1, "channel": 9, "note": 42, "velocity": 0, "time": 0, "type": "NormalMsg"}, "M_4184": {"note_status": 1, "channel": 9, "note": 35, "velocity": 112, "time": 0, "type": "NormalMsg"}, "M_4185": {"note_status": 1, "channel": 9, "note": 38, "velocity": 90, "time": 0, "type": "NormalMsg"}, "M_4186": {"note_status": 1, "channel": 9, "note": 42, "velocity": 58, "time": 0, "type": "NormalMsg"}, "M_4187": {"note_status": 1, "channel": 9, "note": 35, "velocity": 0, "time": 0, "type": "NormalMsg"}, "M_4188": {"note_status": 1, "channel": 9, "note": 38, "velocity": 0, "time": 0, "type": "NormalMsg"}, "M_4189": {"note_status": 1, "channel": 9, "note": 42, "velocity": 0, "time": 0, "type": "NormalMsg"}, "M_4190": {"note_status": 1, "channel": 9, "note": 42, "velocity": 45, "time": 0, "type": "NormalMsg"}, "M_4191": {"note_status": 1, "channel": 9, "note": 42, "velocity": 0, "time": 0, "type": "NormalMsg"}, "M_4192": {"note_status": 1, "channel": 9, "note": 42, "velocity": 45, "time": 0, "type": "NormalMsg"}, "M_4193": {"note_status": 1, "channel": 9, "note": 42, "velocity": 0, "time": 0, "type": "NormalMsg"}, "M_4194": {"note_status": 1, "channel": 9, "note": 35, "velocity": 112, "time": 0, "type": "NormalMsg"}, "M_4195": {"note_status": 1, "channel": 9, "note": 42, "velocity": 58, "time": 0, "type": "NormalMsg"}, "M_4196": {"note_status": 1, "channel": 9, "note": 35, "velocity": 0, "time": 0, "type": "NormalMsg"}, "M_4197": {"note_status": 1, "channel": 9, "note": 42, "velocity": 0, "time": 0, "type": "NormalMsg"}, "M_4198": {"note_status": 1, "channel": 9, "note": 42, "velocity": 45, "time": 0, "type": "NormalMsg"}, "M_4199": {"note_status": 1, "channel": 9, "note": 42, "velocity": 0, "time": 0, "type": "NormalMsg"}, "M_4200": {"note_status": 1, "channel": 9, "note": 42, "velocity": 45, "time": 0, "type": "NormalMsg"}, "M_4201": {"note_status": 1, "channel": 9, "note": 42, "velocity": 0, "time": 0, "type": "NormalMsg"}, "M_4202": {"note_status": 1, "channel": 9, "note": 35, "velocity": 112, "time": 0, "type": "NormalMsg"}, "M_4203": {"note_status": 1, "channel": 9, "note": 38, "velocity": 90, "time": 0, "type": "NormalMsg"}, "M_4204": {"note_status": 1, "channel": 9, "note": 42, "velocity": 58, "time": 0, "type": "NormalMsg"}, "M_4205": {"note_status": 1, "channel": 9, "note": 35, "velocity": 0, "time": 0, "type": "NormalMsg"}, "M_4206": {"note_status": 1, "channel": 9, "note": 38, "velocity": 0, "time": 0, "type": "NormalMsg"}, "M_4207": {"note_status": 1, "channel": 9, "note": 42, "velocity": 0, "time": 0, "type": "NormalMsg"}, "M_4208": {"note_status": 1, "channel": 9, "note": 52, "velocity": 97, "time": 0, "type": "NormalMsg"}, "M_4209": {"note_status": 1, "channel": 9, "note": 52, "velocity": 0, "time": 0, "type": "NormalMsg"}, "M_4210": {"note_status": 1, "channel": 9, "note": 42, "velocity": 45, "time": 0, "type": "NormalMsg"}, "M_4211": {"note_status": 1, "channel": 9, "note": 42, "velocity": 0, "time": 0, "type": "NormalMsg"}, "M_4212": {"note_status": 1, "channel": 9, "note": 42, "velocity": 45, "time": 0, "type": "NormalMsg"}, "M_4213": {"note_status": 1, "channel": 9, "note": 42, "velocity": 0, "time": 0, "type": "NormalMsg"}, "M_4214": {"note_status": 1, "channel": 9, "note": 35, "velocity": 112, "time": 0, "type": "NormalMsg"}, "M_4215": {"note_status": 1, "channel": 9, "note": 42, "velocity": 58, "time": 0, "type": "NormalMsg"}, "M_4216": {"note_status": 1, "channel": 9, "note": 35, "velocity": 0, "time": 0, "type": "NormalMsg"}, "M_4217": {"note_status": 1, "channel": 9, "note": 42, "velocity": 0, "time": 0, "type": "NormalMsg"}, "M_4218": {"note_status": 1, "channel": 9, "note": 42, "velocity": 58, "time": 0, "type": "NormalMsg"}, "M_4219": {"note_status": 1, "channel": 9, "note": 42, "velocity": 0, "time": 0, "type": "NormalMsg"}, "M_4220": {"note_status": 1, "channel": 9, "note": 42, "velocity": 58, "time": 0, "type": "NormalMsg"}, "M_4221": {"note_status": 1, "channel": 9, "note": 42, "velocity": 0, "time": 0, "type": "NormalMsg"}, "M_4222": {"note_status": 1, "channel": 9, "note": 35, "velocity": 112, "time": 0, "type": "NormalMsg"}, "M_4223": {"note_status": 1, "channel": 9, "note": 38, "velocity": 90, "time": 0, "type": "NormalMsg"}, "M_4224": {"note_status": 1, "channel": 9, "note": 40, "velocity": 78, "time": 0, "type": "NormalMsg"}, "M_4225": {"note_status": 1, "channel": 9, "note": 42, "velocity": 58, "time": 0, "type": "NormalMsg"}, "M_4226": {"note_status": 1, "channel": 9, "note": 35, "velocity": 0, "time": 0, "type": "NormalMsg"}, "M_4227": {"note_status": 1, "channel": 9, "note": 38, "velocity": 0, "time": 0, "type": "NormalMsg"}, "M_4228": {"note_status": 1, "channel": 9, "note": 40, "velocity": 0, "time": 0, "type": "NormalMsg"}, "M_4229": {"note_status": 1, "channel": 9, "note": 42, "velocity": 0, "time": 0, "type": "NormalMsg"}, "M_4230": {"note_status": 1, "channel": 9, "note": 42, "velocity": 45, "time": 0, "type": "NormalMsg"}, "M_4231": {"note_status": 1, "channel": 9, "note": 42, "velocity": 0, "time": 0, "type": "NormalMsg"}, "M_4232": {"note_status": 1, "channel": 9, "note": 42, "velocity": 45, "time": 0, "type": "NormalMsg"}, "M_4233": {"note_status": 1, "channel": 9, "note": 42, "velocity": 0, "time": 0, "type": "NormalMsg"}, "M_4234": {"note_status": 1, "channel": 9, "note": 35, "velocity": 112, "time": 0, "type": "NormalMsg"}, "M_4235": {"note_status": 1, "channel": 9, "note": 42, "velocity": 34, "time": 0, "type": "NormalMsg"}, "M_4236": {"note_status": 1, "channel": 9, "note": 35, "velocity": 0, "time": 0, "type": "NormalMsg"}, "M_4237": {"note_status": 1, "channel": 9, "note": 42, "velocity": 0, "time": 0, "type": "NormalMsg"}, "M_4238": {"note_status": 1, "channel": 9, "note": 42, "velocity": 58, "time": 0, "type": "NormalMsg"}, "M_4239": {"note_status": 1, "channel": 9, "note": 42, "velocity": 0, "time": 0, "type": "NormalMsg"}, "M_4240": {"note_status": 1, "channel": 9, "note": 35, "velocity": 112, "time": 0, "type": "NormalMsg"}, "M_4241": {"note_status": 1, "channel": 9, "note": 38, "velocity": 90, "time": 0, "type": "NormalMsg"}, "M_4242": {"note_status": 1, "channel": 9, "note": 42, "velocity": 34, "time": 0, "type": "NormalMsg"}, "M_4243": {"note_status": 1, "channel": 9, "note": 35, "velocity": 0, "time": 0, "type": "NormalMsg"}, "M_4244": {"note_status": 1, "channel": 9, "note": 38, "velocity": 0, "time": 0, "type": "NormalMsg"}, "M_4245": {"note_status": 1, "channel": 9, "note": 42, "velocity": 0, "time": 0, "type": "NormalMsg"}, "M_4246": {"note_status": 1, "channel": 9, "note": 42, "velocity": 58, "time": 0, "type": "NormalMsg"}, "M_4247": {"note_status": 1, "channel": 9, "note": 42, "velocity": 0, "time": 0, "type": "NormalMsg"}, "M_4248": {"note_status": 1, "channel": 9, "note": 35, "velocity": 112, "time": 0, "type": "NormalMsg"}, "M_4249": {"note_status": 1, "channel": 9, "note": 42, "velocity": 34, "time": 0, "type": "NormalMsg"}, "M_4250": {"note_status": 1, "channel": 9, "note": 35, "velocity": 0, "time": 0, "type": "NormalMsg"}, "M_4251": {"note_status": 1, "channel": 9, "note": 42, "velocity": 0, "time": 0, "type": "NormalMsg"}, "M_4252": {"note_status": 1, "channel": 9, "note": 42, "velocity": 58, "time": 0, "type": "NormalMsg"}, "M_4253": {"note_status": 1, "channel": 9, "note": 42, "velocity": 0, "time": 0, "type": "NormalMsg"}, "M_4254": {"note_status": 1, "channel": 9, "note": 35, "velocity": 112, "time": 0, "type": "NormalMsg"}, "M_4255": {"note_status": 1, "channel": 9, "note": 38, "velocity": 90, "time": 0, "type": "NormalMsg"}, "M_4256": {"note_status": 1, "channel": 9, "note": 42, "velocity": 34, "time": 0, "type": "NormalMsg"}, "M_4257": {"note_status": 1, "channel": 9, "note": 35, "velocity": 0, "time": 0, "type": "NormalMsg"}, "M_4258": {"note_status": 1, "channel": 9, "note": 38, "velocity": 0, "time": 0, "type": "NormalMsg"}, "M_4259": {"note_status": 1, "channel": 9, "note": 42, "velocity": 0, "time": 0, "type": "NormalMsg"}, "M_4260": {"note_status": 1, "channel": 9, "note": 42, "velocity": 58, "time": 0, "type": "NormalMsg"}, "M_4261": {"note_status": 1, "channel": 9, "note": 42, "velocity": 0, "time": 0, "type": "NormalMsg"}, "M_4262": {"note_status": 1, "channel": 9, "note": 42, "velocity": 58, "time": 0, "type": "NormalMsg"}, "M_4263": {"note_status": 1, "channel": 9, "note": 42, "velocity": 0, "time": 0, "type": "NormalMsg"}, "M_4264": {"note_status": 1, "channel": 9, "note": 35, "velocity": 112, "time": 0, "type": "NormalMsg"}, "M_4265": {"note_status": 1, "channel": 9, "note": 42, "velocity": 34, "time": 0, "type": "NormalMsg"}, "M_4266": {"note_status": 1, "channel": 9, "note": 35, "velocity": 0, "time": 0, "type": "NormalMsg"}, "M_4267": {"note_status": 1, "channel": 9, "note": 42, "velocity": 0, "time": 0, "type": "NormalMsg"}, "M_4268": {"note_status": 1, "channel": 9, "note": 42, "velocity": 58, "time": 0, "type": "NormalMsg"}, "M_4269": {"note_status": 1, "channel": 9, "note": 42, "velocity": 0, "time": 0, "type": "NormalMsg"}, "M_4270": {"note_status": 1, "channel": 9, "note": 35, "velocity": 112, "time": 0, "type": "NormalMsg"}, "M_4271": {"note_status": 1, "channel": 9, "note": 38, "velocity": 90, "time": 0, "type": "NormalMsg"}, "M_4272": {"note_status": 1, "channel": 9, "note": 42, "velocity": 34, "time": 0, "type": "NormalMsg"}, "M_4273": {"note_status": 1, "channel": 9, "note": 35, "velocity": 0, "time": 0, "type": "NormalMsg"}, "M_4274": {"note_status": 1, "channel": 9, "note": 38, "velocity": 0, "time": 0, "type": "NormalMsg"}, "M_4275": {"note_status": 1, "channel": 9, "note": 42, "velocity": 0, "time": 0, "type": "NormalMsg"}, "M_4276": {"note_status": 1, "channel": 9, "note": 42, "velocity": 58, "time": 0, "type": "NormalMsg"}, "M_4277": {"note_status": 1, "channel": 9, "note": 42, "velocity": 0, "time": 0, "type": "NormalMsg"}, "M_4278": {"note_status": 1, "channel": 9, "note": 35, "velocity": 112, "time": 0, "type": "NormalMsg"}, "M_4279": {"note_status": 1, "channel": 9, "note": 42, "velocity": 34, "time": 0, "type": "NormalMsg"}, "M_4280": {"note_status": 1, "channel": 9, "note": 35, "velocity": 0, "time": 0, "type": "NormalMsg"}, "M_4281": {"note_status": 1, "channel": 9, "note": 42, "velocity": 0, "time": 0, "type": "NormalMsg"}, "M_4282": {"note_status": 1, "channel": 9, "note": 42, "velocity": 58, "time": 0, "type": "NormalMsg"}, "M_4283": {"note_status": 1, "channel": 9, "note": 42, "velocity": 0, "time": 0, "type": "NormalMsg"}, "M_4284": {"note_status": 1, "channel": 9, "note": 35, "velocity": 112, "time": 0, "type": "NormalMsg"}, "M_4285": {"note_status": 1, "channel": 9, "note": 38, "velocity": 90, "time": 0, "type": "NormalMsg"}, "M_4286": {"note_status": 1, "channel": 9, "note": 42, "velocity": 34, "time": 0, "type": "NormalMsg"}, "M_4287": {"note_status": 1, "channel": 9, "note": 35, "velocity": 0, "time": 0, "type": "NormalMsg"}, "M_4288": {"note_status": 1, "channel": 9, "note": 38, "velocity": 0, "time": 0, "type": "NormalMsg"}, "M_4289": {"note_status": 1, "channel": 9, "note": 42, "velocity": 0, "time": 0, "type": "NormalMsg"}, "M_4290": {"note_status": 1, "channel": 9, "note": 42, "velocity": 52, "time": 0, "type": "NormalMsg"}, "M_4291": {"note_status": 1, "channel": 9, "note": 42, "velocity": 0, "time": 0, "type": "NormalMsg"}, "M_4292": {"note_status": 1, "channel": 9, "note": 42, "velocity": 58, "time": 0, "type": "NormalMsg"}, "M_4293": {"note_status": 1, "channel": 9, "note": 42, "velocity": 0, "time": 0, "type": "NormalMsg"}, "M_4294": {"note_status": 1, "channel": 9, "note": 42, "velocity": 58, "time": 0, "type": "NormalMsg"}, "M_4295": {"note_status": 1, "channel": 9, "note": 42, "velocity": 0, "time": 0, "type": "NormalMsg"}, "M_4296": {"note_status": 1, "channel": 9, "note": 35, "velocity": 112, "time": 0, "type": "NormalMsg"}, "M_4297": {"note_status": 1, "channel": 9, "note": 42, "velocity": 34, "time": 0, "type": "NormalMsg"}, "M_4298": {"note_status": 1, "channel": 9, "note": 35, "velocity": 0, "time": 0, "type": "NormalMsg"}, "M_4299": {"note_status": 1, "channel": 9, "note": 42, "velocity": 0, "time": 0, "type": "NormalMsg"}, "M_4300": {"note_status": 1, "channel": 9, "note": 42, "velocity": 58, "time": 0, "type": "NormalMsg"}, "M_4301": {"note_status": 1, "channel": 9, "note": 42, "velocity": 0, "time": 0, "type": "NormalMsg"}, "M_4302": {"note_status": 1, "channel": 9, "note": 35, "velocity": 112, "time": 0, "type": "NormalMsg"}, "M_4303": {"note_status": 1, "channel": 9, "note": 38, "velocity": 90, "time": 0, "type": "NormalMsg"}, "M_4304": {"note_status": 1, "channel": 9, "note": 42, "velocity": 34, "time": 0, "type": "NormalMsg"}, "M_4305": {"note_status": 1, "channel": 9, "note": 35, "velocity": 0, "time": 0, "type": "NormalMsg"}, "M_4306": {"note_status": 1, "channel": 9, "note": 38, "velocity": 0, "time": 0, "type": "NormalMsg"}, "M_4307": {"note_status": 1, "channel": 9, "note": 42, "velocity": 0, "time": 0, "type": "NormalMsg"}, "M_4308": {"note_status": 1, "channel": 9, "note": 42, "velocity": 58, "time": 0, "type": "NormalMsg"}, "M_4309": {"note_status": 1, "channel": 9, "note": 42, "velocity": 0, "time": 0, "type": "NormalMsg"}, "M_4310": {"note_status": 1, "channel": 9, "note": 35, "velocity": 112, "time": 0, "type": "NormalMsg"}, "M_4311": {"note_status": 1, "channel": 9, "note": 42, "velocity": 34, "time": 0, "type": "NormalMsg"}, "M_4312": {"note_status": 1, "channel": 9, "note": 35, "velocity": 0, "time": 0, "type": "NormalMsg"}, "M_4313": {"note_status": 1, "channel": 9, "note": 42, "velocity": 0, "time": 0, "type": "NormalMsg"}, "M_4314": {"note_status": 1, "channel": 9, "note": 42, "velocity": 58, "time": 0, "type": "NormalMsg"}, "M_4315": {"note_status": 1, "channel": 9, "note": 42, "velocity": 0, "time": 0, "type": "NormalMsg"}, "M_4316": {"note_status": 1, "channel": 9, "note": 35, "velocity": 112, "time": 0, "type": "NormalMsg"}, "M_4317": {"note_status": 1, "channel": 9, "note": 38, "velocity": 90, "time": 0, "type": "NormalMsg"}, "M_4318": {"note_status": 1, "channel": 9, "note": 42, "velocity": 34, "time": 0, "type": "NormalMsg"}, "M_4319": {"note_status": 1, "channel": 9, "note": 35, "velocity": 0, "time": 0, "type": "NormalMsg"}, "M_4320": {"note_status": 1, "channel": 9, "note": 38, "velocity": 0, "time": 0, "type": "NormalMsg"}, "M_4321": {"note_status": 1, "channel": 9, "note": 42, "velocity": 0, "time": 0, "type": "NormalMsg"}, "M_4322": {"note_status": 1, "channel": 9, "note": 42, "velocity": 58, "time": 0, "type": "NormalMsg"}, "M_4323": {"note_status": 1, "channel": 9, "note": 42, "velocity": 0, "time": 0, "type": "NormalMsg"}, "M_4324": {"note_status": 1, "channel": 9, "note": 42, "velocity": 58, "time": 0, "type": "NormalMsg"}, "M_4325": {"note_status": 1, "channel": 9, "note": 42, "velocity": 0, "time": 0, "type": "NormalMsg"}, "M_4326": {"note_status": 1, "channel": 9, "note": 35, "velocity": 112, "time": 0, "type": "NormalMsg"}, "M_4327": {"note_status": 1, "channel": 9, "note": 42, "velocity": 34, "time": 0, "type": "NormalMsg"}, "M_4328": {"note_status": 1, "channel": 9, "note": 35, "velocity": 0, "time": 0, "type": "NormalMsg"}, "M_4329": {"note_status": 1, "channel": 9, "note": 42, "velocity": 0, "time": 0, "type": "NormalMsg"}, "M_4330": {"note_status": 1, "channel": 9, "note": 42, "velocity": 58, "time": 0, "type": "NormalMsg"}, "M_4331": {"note_status": 1, "channel": 9, "note": 42, "velocity": 0, "time": 0, "type": "NormalMsg"}, "M_4332": {"note_status": 1, "channel": 9, "note": 35, "velocity": 112, "time": 0, "type": "NormalMsg"}, "M_4333": {"note_status": 1, "channel": 9, "note": 38, "velocity": 90, "time": 0, "type": "NormalMsg"}, "M_4334": {"note_status": 1, "channel": 9, "note": 42, "velocity": 34, "time": 0, "type": "NormalMsg"}, "M_4335": {"note_status": 1, "channel": 9, "note": 35, "velocity": 0, "time": 0, "type": "NormalMsg"}, "M_4336": {"note_status": 1, "channel": 9, "note": 38, "velocity": 0, "time": 0, "type": "NormalMsg"}, "M_4337": {"note_status": 1, "channel": 9, "note": 42, "velocity": 0, "time": 0, "type": "NormalMsg"}, "M_4338": {"note_status": 1, "channel": 9, "note": 42, "velocity": 58, "time": 0, "type": "NormalMsg"}, "M_4339": {"note_status": 1, "channel": 9, "note": 42, "velocity": 0, "time": 0, "type": "NormalMsg"}, "M_4340": {"note_status": 1, "channel": 9, "note": 35, "velocity": 112, "time": 0, "type": "NormalMsg"}, "M_4341": {"note_status": 1, "channel": 9, "note": 42, "velocity": 34, "time": 0, "type": "NormalMsg"}, "M_4342": {"note_status": 1, "channel": 9, "note": 35, "velocity": 0, "time": 0, "type": "NormalMsg"}, "M_4343": {"note_status": 1, "channel": 9, "note": 42, "velocity": 0, "time": 0, "type": "NormalMsg"}, "M_4344": {"note_status": 1, "channel": 9, "note": 42, "velocity": 58, "time": 0, "type": "NormalMsg"}, "M_4345": {"note_status": 1, "channel": 9, "note": 42, "velocity": 0, "time": 0, "type": "NormalMsg"}, "M_4346": {"note_status": 1, "channel": 9, "note": 35, "velocity": 112, "time": 0, "type": "NormalMsg"}, "M_4347": {"note_status": 1, "channel": 9, "note": 38, "velocity": 90, "time": 0, "type": "NormalMsg"}, "M_4348": {"note_status": 1, "channel": 9, "note": 42, "velocity": 34, "time": 0, "type": "NormalMsg"}, "M_4349": {"note_status": 1, "channel": 9, "note": 35, "velocity": 0, "time": 0, "type": "NormalMsg"}, "M_4350": {"note_status": 1, "channel": 9, "note": 38, "velocity": 0, "time": 0, "type": "NormalMsg"}, "M_4351": {"note_status": 1, "channel": 9, "note": 42, "velocity": 0, "time": 0, "type": "NormalMsg"}, "M_4352": {"note_status": 1, "channel": 9, "note": 42, "velocity": 52, "time": 0, "type": "NormalMsg"}, "M_4353": {"note_status": 1, "channel": 9, "note": 42, "velocity": 0, "time": 0, "type": "NormalMsg"}, "M_4354": {"note_status": 1, "channel": 9, "note": 42, "velocity": 58, "time": 0, "type": "NormalMsg"}, "M_4355": {"note_status": 1, "channel": 9, "note": 42, "velocity": 0, "time": 0, "type": "NormalMsg"}, "M_4356": {"note_status": 1, "channel": 9, "note": 42, "velocity": 58, "time": 0, "type": "NormalMsg"}, "M_4357": {"note_status": 1, "channel": 9, "note": 42, "velocity": 0, "time": 0, "type": "NormalMsg"}, "M_4358": {"note_status": 1, "channel": 9, "note": 35, "velocity": 112, "time": 0, "type": "NormalMsg"}, "M_4359": {"note_status": 1, "channel": 9, "note": 42, "velocity": 34, "time": 0, "type": "NormalMsg"}, "M_4360": {"note_status": 1, "channel": 9, "note": 35, "velocity": 0, "time": 0, "type": "NormalMsg"}, "M_4361": {"note_status": 1, "channel": 9, "note": 42, "velocity": 0, "time": 0, "type": "NormalMsg"}, "M_4362": {"note_status": 1, "channel": 9, "note": 42, "velocity": 58, "time": 0, "type": "NormalMsg"}, "M_4363": {"note_status": 1, "channel": 9, "note": 42, "velocity": 0, "time": 0, "type": "NormalMsg"}, "M_4364": {"note_status": 1, "channel": 9, "note": 35, "velocity": 112, "time": 0, "type": "NormalMsg"}, "M_4365": {"note_status": 1, "channel": 9, "note": 38, "velocity": 90, "time": 0, "type": "NormalMsg"}, "M_4366": {"note_status": 1, "channel": 9, "note": 42, "velocity": 34, "time": 0, "type": "NormalMsg"}, "M_4367": {"note_status": 1, "channel": 9, "note": 35, "velocity": 0, "time": 0, "type": "NormalMsg"}, "M_4368": {"note_status": 1, "channel": 9, "note": 38, "velocity": 0, "time": 0, "type": "NormalMsg"}, "M_4369": {"note_status": 1, "channel": 9, "note": 42, "velocity": 0, "time": 0, "type": "NormalMsg"}, "M_4370": {"note_status": 1, "channel": 9, "note": 42, "velocity": 58, "time": 0, "type": "NormalMsg"}, "M_4371": {"note_status": 1, "channel": 9, "note": 42, "velocity": 0, "time": 0, "type": "NormalMsg"}, "M_4372": {"note_status": 1, "channel": 9, "note": 35, "velocity": 112, "time": 0, "type": "NormalMsg"}, "M_4373": {"note_status": 1, "channel": 9, "note": 42, "velocity": 34, "time": 0, "type": "NormalMsg"}, "M_4374": {"note_status": 1, "channel": 9, "note": 35, "velocity": 0, "time": 0, "type": "NormalMsg"}, "M_4375": {"note_status": 1, "channel": 9, "note": 42, "velocity": 0, "time": 0, "type": "NormalMsg"}, "M_4376": {"note_status": 1, "channel": 9, "note": 42, "velocity": 58, "time": 0, "type": "NormalMsg"}, "M_4377": {"note_status": 1, "channel": 9, "note": 42, "velocity": 0, "time": 0, "type": "NormalMsg"}, "M_4378": {"note_status": 1, "channel": 9, "note": 35, "velocity": 112, "time": 0, "type": "NormalMsg"}, "M_4379": {"note_status": 1, "channel": 9, "note": 38, "velocity": 90, "time": 0, "type": "NormalMsg"}, "M_4380": {"note_status": 1, "channel": 9, "note": 42, "velocity": 34, "time": 0, "type": "NormalMsg"}, "M_4381": {"note_status": 1, "channel": 9, "note": 35, "velocity": 0, "time": 0, "type": "NormalMsg"}, "M_4382": {"note_status": 1, "channel": 9, "note": 38, "velocity": 0, "time": 0, "type": "NormalMsg"}, "M_4383": {"note_status": 1, "channel": 9, "note": 42, "velocity": 0, "time": 0, "type": "NormalMsg"}, "M_4384": {"note_status": 1, "channel": 9, "note": 42, "velocity": 58, "time": 0, "type": "NormalMsg"}, "M_4385": {"note_status": 1, "channel": 9, "note": 42, "velocity": 0, "time": 0, "type": "NormalMsg"}, "M_4386": {"note_status": 1, "channel": 9, "note": 42, "velocity": 58, "time": 0, "type": "NormalMsg"}, "M_4387": {"note_status": 1, "channel": 9, "note": 42, "velocity": 0, "time": 0, "type": "NormalMsg"}, "M_4388": {"note_status": 1, "channel": 9, "note": 35, "velocity": 112, "time": 0, "type": "NormalMsg"}, "M_4389": {"note_status": 1, "channel": 9, "note": 42, "velocity": 34, "time": 0, "type": "NormalMsg"}, "M_4390": {"note_status": 1, "channel": 9, "note": 35, "velocity": 0, "time": 0, "type": "NormalMsg"}, "M_4391": {"note_status": 1, "channel": 9, "note": 42, "velocity": 0, "time": 0, "type": "NormalMsg"}, "M_4392": {"note_status": 1, "channel": 9, "note": 42, "velocity": 58, "time": 0, "type": "NormalMsg"}, "M_4393": {"note_status": 1, "channel": 9, "note": 42, "velocity": 0, "time": 0, "type": "NormalMsg"}, "M_4394": {"note_status": 1, "channel": 9, "note": 35, "velocity": 112, "time": 0, "type": "NormalMsg"}, "M_4395": {"note_status": 1, "channel": 9, "note": 38, "velocity": 90, "time": 0, "type": "NormalMsg"}, "M_4396": {"note_status": 1, "channel": 9, "note": 42, "velocity": 34, "time": 0, "type": "NormalMsg"}, "M_4397": {"note_status": 1, "channel": 9, "note": 35, "velocity": 0, "time": 0, "type": "NormalMsg"}, "M_4398": {"note_status": 1, "channel": 9, "note": 38, "velocity": 0, "time": 0, "type": "NormalMsg"}, "M_4399": {"note_status": 1, "channel": 9, "note": 42, "velocity": 0, "time": 0, "type": "NormalMsg"}, "M_4400": {"note_status": 1, "channel": 9, "note": 42, "velocity": 58, "time": 0, "type": "NormalMsg"}, "M_4401": {"note_status": 1, "channel": 9, "note": 42, "velocity": 0, "time": 0, "type": "NormalMsg"}, "M_4402": {"note_status": 1, "channel": 9, "note": 35, "velocity": 112, "time": 0, "type": "NormalMsg"}, "M_4403": {"note_status": 1, "channel": 9, "note": 42, "velocity": 34, "time": 0, "type": "NormalMsg"}, "M_4404": {"note_status": 1, "channel": 9, "note": 35, "velocity": 0, "time": 0, "type": "NormalMsg"}, "M_4405": {"note_status": 1, "channel": 9, "note": 42, "velocity": 0, "time": 0, "type": "NormalMsg"}, "M_4406": {"note_status": 1, "channel": 9, "note": 42, "velocity": 58, "time": 0, "type": "NormalMsg"}, "M_4407": {"note_status": 1, "channel": 9, "note": 42, "velocity": 0, "time": 0, "type": "NormalMsg"}, "M_4408": {"note_status": 1, "channel": 9, "note": 35, "velocity": 112, "time": 0, "type": "NormalMsg"}, "M_4409": {"note_status": 1, "channel": 9, "note": 38, "velocity": 90, "time": 0, "type": "NormalMsg"}, "M_4410": {"note_status": 1, "channel": 9, "note": 42, "velocity": 34, "time": 0, "type": "NormalMsg"}, "M_4411": {"note_status": 1, "channel": 9, "note": 35, "velocity": 0, "time": 0, "type": "NormalMsg"}, "M_4412": {"note_status": 1, "channel": 9, "note": 38, "velocity": 0, "time": 0, "type": "NormalMsg"}, "M_4413": {"note_status": 1, "channel": 9, "note": 42, "velocity": 0, "time": 0, "type": "NormalMsg"}, "M_4414": {"note_status": 1, "channel": 9, "note": 42, "velocity": 52, "time": 0, "type": "NormalMsg"}, "M_4415": {"note_status": 1, "channel": 9, "note": 42, "velocity": 0, "time": 0, "type": "NormalMsg"}, "M_4416": {"note_status": 1, "channel": 9, "note": 42, "velocity": 58, "time": 0, "type": "NormalMsg"}, "M_4417": {"note_status": 1, "channel": 9, "note": 42, "velocity": 0, "time": 0, "type": "NormalMsg"}, "M_4418": {"note_status": 1, "channel": 9, "note": 42, "velocity": 58, "time": 0, "type": "NormalMsg"}, "M_4419": {"note_status": 1, "channel": 9, "note": 42, "velocity": 0, "time": 0, "type": "NormalMsg"}, "M_4420": {"note_status": 1, "channel": 9, "note": 35, "velocity": 112, "time": 0, "type": "NormalMsg"}, "M_4421": {"note_status": 1, "channel": 9, "note": 42, "velocity": 34, "time": 0, "type": "NormalMsg"}, "M_4422": {"note_status": 1, "channel": 9, "note": 35, "velocity": 0, "time": 0, "type": "NormalMsg"}, "M_4423": {"note_status": 1, "channel": 9, "note": 42, "velocity": 0, "time": 0, "type": "NormalMsg"}, "M_4424": {"note_status": 1, "channel": 9, "note": 42, "velocity": 58, "time": 0, "type": "NormalMsg"}, "M_4425": {"note_status": 1, "channel": 9, "note": 42, "velocity": 0, "time": 0, "type": "NormalMsg"}, "M_4426": {"note_status": 1, "channel": 9, "note": 35, "velocity": 112, "time": 0, "type": "NormalMsg"}, "M_4427": {"note_status": 1, "channel": 9, "note": 38, "velocity": 90, "time": 0, "type": "NormalMsg"}, "M_4428": {"note_status": 1, "channel": 9, "note": 42, "velocity": 34, "time": 0, "type": "NormalMsg"}, "M_4429": {"note_status": 1, "channel": 9, "note": 35, "velocity": 0, "time": 0, "type": "NormalMsg"}, "M_4430": {"note_status": 1, "channel": 9, "note": 38, "velocity": 0, "time": 0, "type": "NormalMsg"}, "M_4431": {"note_status": 1, "channel": 9, "note": 42, "velocity": 0, "time": 0, "type": "NormalMsg"}, "M_4432": {"note_status": 1, "channel": 9, "note": 42, "velocity": 58, "time": 0, "type": "NormalMsg"}, "M_4433": {"note_status": 1, "channel": 9, "note": 42, "velocity": 0, "time": 0, "type": "NormalMsg"}, "M_4434": {"note_status": 1, "channel": 9, "note": 35, "velocity": 112, "time": 0, "type": "NormalMsg"}, "M_4435": {"note_status": 1, "channel": 9, "note": 42, "velocity": 34, "time": 0, "type": "NormalMsg"}, "M_4436": {"note_status": 1, "channel": 9, "note": 35, "velocity": 0, "time": 0, "type": "NormalMsg"}, "M_4437": {"note_status": 1, "channel": 9, "note": 42, "velocity": 0, "time": 0, "type": "NormalMsg"}, "M_4438": {"note_status": 1, "channel": 9, "note": 42, "velocity": 58, "time": 0, "type": "NormalMsg"}, "M_4439": {"note_status": 1, "channel": 9, "note": 42, "velocity": 0, "time": 0, "type": "NormalMsg"}, "M_4440": {"note_status": 1, "channel": 9, "note": 35, "velocity": 112, "time": 0, "type": "NormalMsg"}, "M_4441": {"note_status": 1, "channel": 9, "note": 38, "velocity": 90, "time": 0, "type": "NormalMsg"}, "M_4442": {"note_status": 1, "channel": 9, "note": 42, "velocity": 34, "time": 0, "type": "NormalMsg"}, "M_4443": {"note_status": 1, "channel": 9, "note": 35, "velocity": 0, "time": 0, "type": "NormalMsg"}, "M_4444": {"note_status": 1, "channel": 9, "note": 38, "velocity": 0, "time": 0, "type": "NormalMsg"}, "M_4445": {"note_status": 1, "channel": 9, "note": 42, "velocity": 0, "time": 0, "type": "NormalMsg"}, "M_4446": {"note_status": 1, "channel": 9, "note": 42, "velocity": 58, "time": 0, "type": "NormalMsg"}, "M_4447": {"note_status": 1, "channel": 9, "note": 42, "velocity": 0, "time": 0, "type": "NormalMsg"}, "M_4448": {"note_status": 1, "channel": 9, "note": 42, "velocity": 58, "time": 0, "type": "NormalMsg"}, "M_4449": {"note_status": 1, "channel": 9, "note": 42, "velocity": 0, "time": 0, "type": "NormalMsg"}, "M_4450": {"note_status": 1, "channel": 9, "note": 35, "velocity": 112, "time": 0, "type": "NormalMsg"}, "M_4451": {"note_status": 1, "channel": 9, "note": 42, "velocity": 34, "time": 0, "type": "NormalMsg"}, "M_4452": {"note_status": 1, "channel": 9, "note": 35, "velocity": 0, "time": 0, "type": "NormalMsg"}, "M_4453": {"note_status": 1, "channel": 9, "note": 42, "velocity": 0, "time": 0, "type": "NormalMsg"}, "M_4454": {"note_status": 1, "channel": 9, "note": 42, "velocity": 58, "time": 0, "type": "NormalMsg"}, "M_4455": {"note_status": 1, "channel": 9, "note": 42, "velocity": 0, "time": 0, "type": "NormalMsg"}, "M_4456": {"note_status": 1, "channel": 9, "note": 35, "velocity": 112, "time": 0, "type": "NormalMsg"}, "M_4457": {"note_status": 1, "channel": 9, "note": 38, "velocity": 90, "time": 0, "type": "NormalMsg"}, "M_4458": {"note_status": 1, "channel": 9, "note": 42, "velocity": 34, "time": 0, "type": "NormalMsg"}, "M_4459": {"note_status": 1, "channel": 9, "note": 35, "velocity": 0, "time": 0, "type": "NormalMsg"}, "M_4460": {"note_status": 1, "channel": 9, "note": 38, "velocity": 0, "time": 0, "type": "NormalMsg"}, "M_4461": {"note_status": 1, "channel": 9, "note": 42, "velocity": 0, "time": 0, "type": "NormalMsg"}, "M_4462": {"note_status": 1, "channel": 9, "note": 42, "velocity": 58, "time": 0, "type": "NormalMsg"}, "M_4463": {"note_status": 1, "channel": 9, "note": 42, "velocity": 0, "time": 0, "type": "NormalMsg"}, "M_4464": {"note_status": 1, "channel": 9, "note": 35, "velocity": 112, "time": 0, "type": "NormalMsg"}, "M_4465": {"note_status": 1, "channel": 9, "note": 42, "velocity": 34, "time": 0, "type": "NormalMsg"}, "M_4466": {"note_status": 1, "channel": 9, "note": 35, "velocity": 0, "time": 0, "type": "NormalMsg"}, "M_4467": {"note_status": 1, "channel": 9, "note": 42, "velocity": 0, "time": 0, "type": "NormalMsg"}, "M_4468": {"note_status": 1, "channel": 9, "note": 42, "velocity": 58, "time": 0, "type": "NormalMsg"}, "M_4469": {"note_status": 1, "channel": 9, "note": 42, "velocity": 0, "time": 0, "type": "NormalMsg"}, "M_4470": {"note_status": 1, "channel": 9, "note": 35, "velocity": 112, "time": 0, "type": "NormalMsg"}, "M_4471": {"note_status": 1, "channel": 9, "note": 38, "velocity": 90, "time": 0, "type": "NormalMsg"}, "M_4472": {"note_status": 1, "channel": 9, "note": 42, "velocity": 34, "time": 0, "type": "NormalMsg"}, "M_4473": {"note_status": 1, "channel": 9, "note": 35, "velocity": 0, "time": 0, "type": "NormalMsg"}, "M_4474": {"note_status": 1, "channel": 9, "note": 38, "velocity": 0, "time": 0, "type": "NormalMsg"}, "M_4475": {"note_status": 1, "channel": 9, "note": 42, "velocity": 0, "time": 0, "type": "NormalMsg"}, "M_4476": {"note_status": 1, "channel": 9, "note": 42, "velocity": 52, "time": 0, "type": "NormalMsg"}, "M_4477": {"note_status": 1, "channel": 9, "note": 42, "velocity": 0, "time": 0, "type": "NormalMsg"}, "M_4478": {"note_status": 1, "channel": 9, "note": 42, "velocity": 58, "time": 0, "type": "NormalMsg"}, "M_4479": {"note_status": 1, "channel": 9, "note": 42, "velocity": 0, "time": 0, "type": "NormalMsg"}, "M_4480": {"note_status": 1, "channel": 9, "note": 42, "velocity": 58, "time": 0, "type": "NormalMsg"}, "M_4481": {"note_status": 1, "channel": 9, "note": 42, "velocity": 0, "time": 0, "type": "NormalMsg"}, "M_4482": {"note_status": 1, "channel": 9, "note": 35, "velocity": 112, "time": 0, "type": "NormalMsg"}, "M_4483": {"note_status": 1, "channel": 9, "note": 42, "velocity": 34, "time": 0, "type": "NormalMsg"}, "M_4484": {"note_status": 1, "channel": 9, "note": 35, "velocity": 0, "time": 0, "type": "NormalMsg"}, "M_4485": {"note_status": 1, "channel": 9, "note": 42, "velocity": 0, "time": 0, "type": "NormalMsg"}, "M_4486": {"note_status": 1, "channel": 9, "note": 42, "velocity": 58, "time": 0, "type": "NormalMsg"}, "M_4487": {"note_status": 1, "channel": 9, "note": 42, "velocity": 0, "time": 0, "type": "NormalMsg"}, "M_4488": {"note_status": 1, "channel": 9, "note": 35, "velocity": 112, "time": 0, "type": "NormalMsg"}, "M_4489": {"note_status": 1, "channel": 9, "note": 38, "velocity": 90, "time": 0, "type": "NormalMsg"}, "M_4490": {"note_status": 1, "channel": 9, "note": 42, "velocity": 34, "time": 0, "type": "NormalMsg"}, "M_4491": {"note_status": 1, "channel": 9, "note": 35, "velocity": 0, "time": 0, "type": "NormalMsg"}, "M_4492": {"note_status": 1, "channel": 9, "note": 38, "velocity": 0, "time": 0, "type": "NormalMsg"}, "M_4493": {"note_status": 1, "channel": 9, "note": 42, "velocity": 0, "time": 0, "type": "NormalMsg"}, "M_4494": {"note_status": 1, "channel": 9, "note": 42, "velocity": 58, "time": 0, "type": "NormalMsg"}, "M_4495": {"note_status": 1, "channel": 9, "note": 42, "velocity": 0, "time": 0, "type": "NormalMsg"}, "M_4496": {"note_status": 1, "channel": 9, "note": 35, "velocity": 112, "time": 0, "type": "NormalMsg"}, "M_4497": {"note_status": 1, "channel": 9, "note": 42, "velocity": 34, "time": 0, "type": "NormalMsg"}, "M_4498": {"note_status": 1, "channel": 9, "note": 35, "velocity": 0, "time": 0, "type": "NormalMsg"}, "M_4499": {"note_status": 1, "channel": 9, "note": 42, "velocity": 0, "time": 0, "type": "NormalMsg"}, "M_4500": {"note_status": 1, "channel": 9, "note": 42, "velocity": 58, "time": 0, "type": "NormalMsg"}, "M_4501": {"note_status": 1, "channel": 9, "note": 42, "velocity": 0, "time": 0, "type": "NormalMsg"}, "M_4502": {"note_status": 1, "channel": 9, "note": 35, "velocity": 112, "time": 0, "type": "NormalMsg"}, "M_4503": {"note_status": 1, "channel": 9, "note": 38, "velocity": 90, "time": 0, "type": "NormalMsg"}, "M_4504": {"note_status": 1, "channel": 9, "note": 42, "velocity": 34, "time": 0, "type": "NormalMsg"}, "M_4505": {"note_status": 1, "channel": 9, "note": 35, "velocity": 0, "time": 0, "type": "NormalMsg"}, "M_4506": {"note_status": 1, "channel": 9, "note": 38, "velocity": 0, "time": 0, "type": "NormalMsg"}, "M_4507": {"note_status": 1, "channel": 9, "note": 42, "velocity": 0, "time": 0, "type": "NormalMsg"}, "M_4508": {"note_status": 1, "channel": 9, "note": 42, "velocity": 58, "time": 0, "type": "NormalMsg"}, "M_4509": {"note_status": 1, "channel": 9, "note": 42, "velocity": 0, "time": 0, "type": "NormalMsg"}, "M_4510": {"note_status": 1, "channel": 9, "note": 42, "velocity": 58, "time": 0, "type": "NormalMsg"}, "M_4511": {"note_status": 1, "channel": 9, "note": 42, "velocity": 0, "time": 0, "type": "NormalMsg"}, "M_4512": {"note_status": 1, "channel": 9, "note": 35, "velocity": 112, "time": 0, "type": "NormalMsg"}, "M_4513": {"note_status": 1, "channel": 9, "note": 42, "velocity": 34, "time": 0, "type": "NormalMsg"}, "M_4514": {"note_status": 1, "channel": 9, "note": 35, "velocity": 0, "time": 0, "type": "NormalMsg"}, "M_4515": {"note_status": 1, "channel": 9, "note": 42, "velocity": 0, "time": 0, "type": "NormalMsg"}, "M_4516": {"note_status": 1, "channel": 9, "note": 42, "velocity": 58, "time": 0, "type": "NormalMsg"}, "M_4517": {"note_status": 1, "channel": 9, "note": 42, "velocity": 0, "time": 0, "type": "NormalMsg"}, "M_4518": {"note_status": 1, "channel": 9, "note": 35, "velocity": 112, "time": 0, "type": "NormalMsg"}, "M_4519": {"note_status": 1, "channel": 9, "note": 38, "velocity": 90, "time": 0, "type": "NormalMsg"}, "M_4520": {"note_status": 1, "channel": 9, "note": 42, "velocity": 34, "time": 0, "type": "NormalMsg"}, "M_4521": {"note_status": 1, "channel": 9, "note": 35, "velocity": 0, "time": 0, "type": "NormalMsg"}, "M_4522": {"note_status": 1, "channel": 9, "note": 38, "velocity": 0, "time": 0, "type": "NormalMsg"}, "M_4523": {"note_status": 1, "channel": 9, "note": 42, "velocity": 0, "time": 0, "type": "NormalMsg"}, "M_4524": {"note_status": 1, "channel": 9, "note": 42, "velocity": 58, "time": 0, "type": "NormalMsg"}, "M_4525": {"note_status": 1, "channel": 9, "note": 42, "velocity": 0, "time": 0, "type": "NormalMsg"}, "M_4526": {"note_status": 1, "channel": 9, "note": 35, "velocity": 112, "time": 0, "type": "NormalMsg"}, "M_4527": {"note_status": 1, "channel": 9, "note": 42, "velocity": 34, "time": 0, "type": "NormalMsg"}, "M_4528": {"note_status": 1, "channel": 9, "note": 35, "velocity": 0, "time": 0, "type": "NormalMsg"}, "M_4529": {"note_status": 1, "channel": 9, "note": 42, "velocity": 0, "time": 0, "type": "NormalMsg"}, "M_4530": {"note_status": 1, "channel": 9, "note": 42, "velocity": 58, "time": 0, "type": "NormalMsg"}, "M_4531": {"note_status": 1, "channel": 9, "note": 42, "velocity": 0, "time": 0, "type": "NormalMsg"}, "M_4532": {"note_status": 1, "channel": 9, "note": 35, "velocity": 112, "time": 0, "type": "NormalMsg"}, "M_4533": {"note_status": 1, "channel": 9, "note": 38, "velocity": 90, "time": 0, "type": "NormalMsg"}, "M_4534": {"note_status": 1, "channel": 9, "note": 42, "velocity": 34, "time": 0, "type": "NormalMsg"}, "M_4535": {"note_status": 1, "channel": 9, "note": 35, "velocity": 0, "time": 0, "type": "NormalMsg"}, "M_4536": {"note_status": 1, "channel": 9, "note": 38, "velocity": 0, "time": 0, "type": "NormalMsg"}, "M_4537": {"note_status": 1, "channel": 9, "note": 42, "velocity": 0, "time": 0, "type": "NormalMsg"}, "M_4538": {"note_status": 1, "channel": 9, "note": 42, "velocity": 52, "time": 0, "type": "NormalMsg"}, "M_4539": {"note_status": 1, "channel": 9, "note": 42, "velocity": 0, "time": 0, "type": "NormalMsg"}, "M_4540": {"note_status": 1, "channel": 9, "note": 42, "velocity": 58, "time": 0, "type": "NormalMsg"}, "M_4541": {"note_status": 1, "channel": 9, "note": 42, "velocity": 0, "time": 0, "type": "NormalMsg"}, "M_4542": {"note_status": 1, "channel": 9, "note": 42, "velocity": 58, "time": 0, "type": "NormalMsg"}, "M_4543": {"note_status": 1, "channel": 9, "note": 42, "velocity": 0, "time": 0, "type": "NormalMsg"}, "M_4544": {"note_status": 1, "channel": 9, "note": 35, "velocity": 112, "time": 0, "type": "NormalMsg"}, "M_4545": {"note_status": 1, "channel": 9, "note": 42, "velocity": 34, "time": 0, "type": "NormalMsg"}, "M_4546": {"note_status": 1, "channel": 9, "note": 35, "velocity": 0, "time": 0, "type": "NormalMsg"}, "M_4547": {"note_status": 1, "channel": 9, "note": 42, "velocity": 0, "time": 0, "type": "NormalMsg"}, "M_4548": {"note_status": 1, "channel": 9, "note": 42, "velocity": 58, "time": 0, "type": "NormalMsg"}, "M_4549": {"note_status": 1, "channel": 9, "note": 42, "velocity": 0, "time": 0, "type": "NormalMsg"}, "M_4550": {"note_status": 1, "channel": 9, "note": 35, "velocity": 112, "time": 0, "type": "NormalMsg"}, "M_4551": {"note_status": 1, "channel": 9, "note": 38, "velocity": 90, "time": 0, "type": "NormalMsg"}, "M_4552": {"note_status": 1, "channel": 9, "note": 42, "velocity": 34, "time": 0, "type": "NormalMsg"}, "M_4553": {"note_status": 1, "channel": 9, "note": 35, "velocity": 0, "time": 0, "type": "NormalMsg"}, "M_4554": {"note_status": 1, "channel": 9, "note": 38, "velocity": 0, "time": 0, "type": "NormalMsg"}, "M_4555": {"note_status": 1, "channel": 9, "note": 42, "velocity": 0, "time": 0, "type": "NormalMsg"}, "M_4556": {"note_status": 1, "channel": 9, "note": 42, "velocity": 58, "time": 0, "type": "NormalMsg"}, "M_4557": {"note_status": 1, "channel": 9, "note": 42, "velocity": 0, "time": 0, "type": "NormalMsg"}, "M_4558": {"note_status": 1, "channel": 9, "note": 35, "velocity": 112, "time": 0, "type": "NormalMsg"}, "M_4559": {"note_status": 1, "channel": 9, "note": 42, "velocity": 34, "time": 0, "type": "NormalMsg"}, "M_4560": {"note_status": 1, "channel": 9, "note": 35, "velocity": 0, "time": 0, "type": "NormalMsg"}, "M_4561": {"note_status": 1, "channel": 9, "note": 42, "velocity": 0, "time": 0, "type": "NormalMsg"}, "M_4562": {"note_status": 1, "channel": 9, "note": 42, "velocity": 58, "time": 0, "type": "NormalMsg"}, "M_4563": {"note_status": 1, "channel": 9, "note": 42, "velocity": 0, "time": 0, "type": "NormalMsg"}, "M_4564": {"note_status": 1, "channel": 9, "note": 35, "velocity": 112, "time": 0, "type": "NormalMsg"}, "M_4565": {"note_status": 1, "channel": 9, "note": 38, "velocity": 90, "time": 0, "type": "NormalMsg"}, "M_4566": {"note_status": 1, "channel": 9, "note": 42, "velocity": 34, "time": 0, "type": "NormalMsg"}, "M_4567": {"note_status": 1, "channel": 9, "note": 35, "velocity": 0, "time": 0, "type": "NormalMsg"}, "M_4568": {"note_status": 1, "channel": 9, "note": 38, "velocity": 0, "time": 0, "type": "NormalMsg"}, "M_4569": {"note_status": 1, "channel": 9, "note": 42, "velocity": 0, "time": 0, "type": "NormalMsg"}, "M_4570": {"note_status": 1, "channel": 9, "note": 42, "velocity": 58, "time": 0, "type": "NormalMsg"}, "M_4571": {"note_status": 1, "channel": 9, "note": 42, "velocity": 0, "time": 0, "type": "NormalMsg"}, "M_4572": {"note_status": 1, "channel": 9, "note": 42, "velocity": 58, "time": 0, "type": "NormalMsg"}, "M_4573": {"note_status": 1, "channel": 9, "note": 42, "velocity": 0, "time": 0, "type": "NormalMsg"}, "M_4574": {"note_status": 1, "channel": 9, "note": 35, "velocity": 112, "time": 0, "type": "NormalMsg"}, "M_4575": {"note_status": 1, "channel": 9, "note": 42, "velocity": 34, "time": 0, "type": "NormalMsg"}, "M_4576": {"note_status": 1, "channel": 9, "note": 35, "velocity": 0, "time": 0, "type": "NormalMsg"}, "M_4577": {"note_status": 1, "channel": 9, "note": 42, "velocity": 0, "time": 0, "type": "NormalMsg"}, "M_4578": {"note_status": 1, "channel": 9, "note": 42, "velocity": 58, "time": 0, "type": "NormalMsg"}, "M_4579": {"note_status": 1, "channel": 9, "note": 42, "velocity": 0, "time": 0, "type": "NormalMsg"}, "M_4580": {"note_status": 1, "channel": 9, "note": 35, "velocity": 112, "time": 0, "type": "NormalMsg"}, "M_4581": {"note_status": 1, "channel": 9, "note": 38, "velocity": 90, "time": 0, "type": "NormalMsg"}, "M_4582": {"note_status": 1, "channel": 9, "note": 42, "velocity": 34, "time": 0, "type": "NormalMsg"}, "M_4583": {"note_status": 1, "channel": 9, "note": 35, "velocity": 0, "time": 0, "type": "NormalMsg"}, "M_4584": {"note_status": 1, "channel": 9, "note": 38, "velocity": 0, "time": 0, "type": "NormalMsg"}, "M_4585": {"note_status": 1, "channel": 9, "note": 42, "velocity": 0, "time": 0, "type": "NormalMsg"}, "M_4586": {"note_status": 1, "channel": 9, "note": 42, "velocity": 58, "time": 0, "type": "NormalMsg"}, "M_4587": {"note_status": 1, "channel": 9, "note": 42, "velocity": 0, "time": 0, "type": "NormalMsg"}, "M_4588": {"note_status": 1, "channel": 9, "note": 35, "velocity": 112, "time": 0, "type": "NormalMsg"}, "M_4589": {"note_status": 1, "channel": 9, "note": 42, "velocity": 34, "time": 0, "type": "NormalMsg"}, "M_4590": {"note_status": 1, "channel": 9, "note": 35, "velocity": 0, "time": 0, "type": "NormalMsg"}, "M_4591": {"note_status": 1, "channel": 9, "note": 42, "velocity": 0, "time": 0, "type": "NormalMsg"}, "M_4592": {"note_status": 1, "channel": 9, "note": 42, "velocity": 58, "time": 0, "type": "NormalMsg"}, "M_4593": {"note_status": 1, "channel": 9, "note": 42, "velocity": 0, "time": 0, "type": "NormalMsg"}, "M_4594": {"note_status": 1, "channel": 9, "note": 35, "velocity": 112, "time": 0, "type": "NormalMsg"}, "M_4595": {"note_status": 1, "channel": 9, "note": 38, "velocity": 90, "time": 0, "type": "NormalMsg"}, "M_4596": {"note_status": 1, "channel": 9, "note": 42, "velocity": 34, "time": 0, "type": "NormalMsg"}, "M_4597": {"note_status": 1, "channel": 9, "note": 35, "velocity": 0, "time": 0, "type": "NormalMsg"}, "M_4598": {"note_status": 1, "channel": 9, "note": 38, "velocity": 0, "time": 0, "type": "NormalMsg"}, "M_4599": {"note_status": 1, "channel": 9, "note": 42, "velocity": 0, "time": 0, "type": "NormalMsg"}, "M_4600": {"note_status": 1, "channel": 9, "note": 42, "velocity": 52, "time": 0, "type": "NormalMsg"}, "M_4601": {"note_status": 1, "channel": 9, "note": 42, "velocity": 0, "time": 0, "type": "NormalMsg"}, "M_4602": {"note_status": 1, "channel": 9, "note": 38, "velocity": 98, "time": 0, "type": "NormalMsg"}, "M_4603": {"note_status": 1, "channel": 9, "note": 42, "velocity": 58, "time": 0, "type": "NormalMsg"}, "M_4604": {"note_status": 1, "channel": 9, "note": 38, "velocity": 0, "time": 0, "type": "NormalMsg"}, "M_4605": {"note_status": 1, "channel": 9, "note": 42, "velocity": 0, "time": 0, "type": "NormalMsg"}, "M_4606": {"note_status": 1, "channel": 9, "note": 38, "velocity": 90, "time": 0, "type": "NormalMsg"}, "M_4607": {"note_status": 1, "channel": 9, "note": 42, "velocity": 58, "time": 0, "type": "NormalMsg"}, "M_4608": {"note_status": 1, "channel": 9, "note": 38, "velocity": 0, "time": 0, "type": "NormalMsg"}, "M_4609": {"note_status": 1, "channel": 9, "note": 42, "velocity": 0, "time": 0, "type": "NormalMsg"}, "M_4610": {"note_status": 1, "channel": 9, "note": 35, "velocity": 112, "time": 0, "type": "NormalMsg"}, "M_4611": {"note_status": 1, "channel": 9, "note": 42, "velocity": 34, "time": 0, "type": "NormalMsg"}, "M_4612": {"note_status": 1, "channel": 9, "note": 35, "velocity": 0, "time": 0, "type": "NormalMsg"}, "M_4613": {"note_status": 1, "channel": 9, "note": 42, "velocity": 0, "time": 0, "type": "NormalMsg"}, "M_4614": {"note_status": 1, "channel": 9, "note": 42, "velocity": 58, "time": 0, "type": "NormalMsg"}, "M_4615": {"note_status": 1, "channel": 9, "note": 42, "velocity": 0, "time": 0, "type": "NormalMsg"}, "M_4616": {"note_status": 1, "channel": 9, "note": 35, "velocity": 112, "time": 0, "type": "NormalMsg"}, "M_4617": {"note_status": 1, "channel": 9, "note": 38, "velocity": 90, "time": 0, "type": "NormalMsg"}, "M_4618": {"note_status": 1, "channel": 9, "note": 42, "velocity": 34, "time": 0, "type": "NormalMsg"}, "M_4619": {"note_status": 1, "channel": 9, "note": 35, "velocity": 0, "time": 0, "type": "NormalMsg"}, "M_4620": {"note_status": 1, "channel": 9, "note": 38, "velocity": 0, "time": 0, "type": "NormalMsg"}, "M_4621": {"note_status": 1, "channel": 9, "note": 42, "velocity": 0, "time": 0, "type": "NormalMsg"}, "M_4622": {"note_status": 1, "channel": 9, "note": 42, "velocity": 58, "time": 0, "type": "NormalMsg"}, "M_4623": {"note_status": 1, "channel": 9, "note": 42, "velocity": 0, "time": 0, "type": "NormalMsg"}, "M_4624": {"note_status": 1, "channel": 9, "note": 35, "velocity": 112, "time": 0, "type": "NormalMsg"}, "M_4625": {"note_status": 1, "channel": 9, "note": 42, "velocity": 34, "time": 0, "type": "NormalMsg"}, "M_4626": {"note_status": 1, "channel": 9, "note": 35, "velocity": 0, "time": 0, "type": "NormalMsg"}, "M_4627": {"note_status": 1, "channel": 9, "note": 42, "velocity": 0, "time": 0, "type": "NormalMsg"}, "M_4628": {"note_status": 1, "channel": 9, "note": 42, "velocity": 58, "time": 0, "type": "NormalMsg"}, "M_4629": {"note_status": 1, "channel": 9, "note": 42, "velocity": 0, "time": 0, "type": "NormalMsg"}, "M_4630": {"note_status": 1, "channel": 9, "note": 35, "velocity": 112, "time": 0, "type": "NormalMsg"}, "M_4631": {"note_status": 1, "channel": 9, "note": 38, "velocity": 90, "time": 0, "type": "NormalMsg"}, "M_4632": {"note_status": 1, "channel": 9, "note": 42, "velocity": 34, "time": 0, "type": "NormalMsg"}, "M_4633": {"note_status": 1, "channel": 9, "note": 35, "velocity": 0, "time": 0, "type": "NormalMsg"}, "M_4634": {"note_status": 1, "channel": 9, "note": 38, "velocity": 0, "time": 0, "type": "NormalMsg"}, "M_4635": {"note_status": 1, "channel": 9, "note": 42, "velocity": 0, "time": 0, "type": "NormalMsg"}, "M_4636": {"note_status": 1, "channel": 9, "note": 42, "velocity": 58, "time": 0, "type": "NormalMsg"}, "M_4637": {"note_status": 1, "channel": 9, "note": 42, "velocity": 0, "time": 0, "type": "NormalMsg"}, "M_4638": {"note_status": 1, "channel": 9, "note": 42, "velocity": 58, "time": 0, "type": "NormalMsg"}, "M_4639": {"note_status": 1, "channel": 9, "note": 42, "velocity": 0, "time": 0, "type": "NormalMsg"}, "M_4640": {"note_status": 1, "channel": 9, "note": 35, "velocity": 112, "time": 0, "type": "NormalMsg"}, "M_4641": {"note_status": 1, "channel": 9, "note": 42, "velocity": 34, "time": 0, "type": "NormalMsg"}, "M_4642": {"note_status": 1, "channel": 9, "note": 35, "velocity": 0, "time": 0, "type": "NormalMsg"}, "M_4643": {"note_status": 1, "channel": 9, "note": 42, "velocity": 0, "time": 0, "type": "NormalMsg"}, "M_4644": {"note_status": 1, "channel": 9, "note": 42, "velocity": 58, "time": 0, "type": "NormalMsg"}, "M_4645": {"note_status": 1, "channel": 9, "note": 42, "velocity": 0, "time": 0, "type": "NormalMsg"}, "M_4646": {"note_status": 1, "channel": 9, "note": 35, "velocity": 112, "time": 0, "type": "NormalMsg"}, "M_4647": {"note_status": 1, "channel": 9, "note": 38, "velocity": 90, "time": 0, "type": "NormalMsg"}, "M_4648": {"note_status": 1, "channel": 9, "note": 42, "velocity": 34, "time": 0, "type": "NormalMsg"}, "M_4649": {"note_status": 1, "channel": 9, "note": 35, "velocity": 0, "time": 0, "type": "NormalMsg"}, "M_4650": {"note_status": 1, "channel": 9, "note": 38, "velocity": 0, "time": 0, "type": "NormalMsg"}, "M_4651": {"note_status": 1, "channel": 9, "note": 42, "velocity": 0, "time": 0, "type": "NormalMsg"}, "M_4652": {"note_status": 1, "channel": 9, "note": 42, "velocity": 58, "time": 0, "type": "NormalMsg"}, "M_4653": {"note_status": 1, "channel": 9, "note": 42, "velocity": 0, "time": 0, "type": "NormalMsg"}, "M_4654": {"note_status": 1, "channel": 9, "note": 35, "velocity": 112, "time": 0, "type": "NormalMsg"}, "M_4655": {"note_status": 1, "channel": 9, "note": 42, "velocity": 34, "time": 0, "type": "NormalMsg"}, "M_4656": {"note_status": 1, "channel": 9, "note": 35, "velocity": 0, "time": 0, "type": "NormalMsg"}, "M_4657": {"note_status": 1, "channel": 9, "note": 42, "velocity": 0, "time": 0, "type": "NormalMsg"}, "M_4658": {"note_status": 1, "channel": 9, "note": 42, "velocity": 58, "time": 0, "type": "NormalMsg"}, "M_4659": {"note_status": 1, "channel": 9, "note": 42, "velocity": 0, "time": 0, "type": "NormalMsg"}, "M_4660": {"note_status": 1, "channel": 9, "note": 35, "velocity": 112, "time": 0, "type": "NormalMsg"}, "M_4661": {"note_status": 1, "channel": 9, "note": 38, "velocity": 90, "time": 0, "type": "NormalMsg"}, "M_4662": {"note_status": 1, "channel": 9, "note": 42, "velocity": 34, "time": 0, "type": "NormalMsg"}, "M_4663": {"note_status": 1, "channel": 9, "note": 35, "velocity": 0, "time": 0, "type": "NormalMsg"}, "M_4664": {"note_status": 1, "channel": 9, "note": 38, "velocity": 0, "time": 0, "type": "NormalMsg"}, "M_4665": {"note_status": 1, "channel": 9, "note": 42, "velocity": 0, "time": 0, "type": "NormalMsg"}, "M_4666": {"note_status": 1, "channel": 9, "note": 42, "velocity": 52, "time": 0, "type": "NormalMsg"}, "M_4667": {"note_status": 1, "channel": 9, "note": 42, "velocity": 0, "time": 0, "type": "NormalMsg"}, "M_4668": {"note_status": 1, "channel": 9, "note": 42, "velocity": 58, "time": 0, "type": "NormalMsg"}, "M_4669": {"note_status": 1, "channel": 9, "note": 42, "velocity": 0, "time": 0, "type": "NormalMsg"}, "M_4670": {"note_status": 1, "channel": 9, "note": 42, "velocity": 58, "time": 0, "type": "NormalMsg"}, "M_4671": {"note_status": 1, "channel": 9, "note": 42, "velocity": 0, "time": 0, "type": "NormalMsg"}, "M_4672": {"note_status": 1, "channel": 9, "note": 35, "velocity": 112, "time": 0, "type": "NormalMsg"}, "M_4673": {"note_status": 1, "channel": 9, "note": 42, "velocity": 34, "time": 0, "type": "NormalMsg"}, "M_4674": {"note_status": 1, "channel": 9, "note": 35, "velocity": 0, "time": 0, "type": "NormalMsg"}, "M_4675": {"note_status": 1, "channel": 9, "note": 42, "velocity": 0, "time": 0, "type": "NormalMsg"}, "M_4676": {"note_status": 1, "channel": 9, "note": 42, "velocity": 58, "time": 0, "type": "NormalMsg"}, "M_4677": {"note_status": 1, "channel": 9, "note": 42, "velocity": 0, "time": 0, "type": "NormalMsg"}, "M_4678": {"note_status": 1, "channel": 9, "note": 35, "velocity": 112, "time": 0, "type": "NormalMsg"}, "M_4679": {"note_status": 1, "channel": 9, "note": 38, "velocity": 90, "time": 0, "type": "NormalMsg"}, "M_4680": {"note_status": 1, "channel": 9, "note": 42, "velocity": 34, "time": 0, "type": "NormalMsg"}, "M_4681": {"note_status": 1, "channel": 9, "note": 35, "velocity": 0, "time": 0, "type": "NormalMsg"}, "M_4682": {"note_status": 1, "channel": 9, "note": 38, "velocity": 0, "time": 0, "type": "NormalMsg"}, "M_4683": {"note_status": 1, "channel": 9, "note": 42, "velocity": 0, "time": 0, "type": "NormalMsg"}, "M_4684": {"note_status": 1, "channel": 9, "note": 42, "velocity": 58, "time": 0, "type": "NormalMsg"}, "M_4685": {"note_status": 1, "channel": 9, "note": 42, "velocity": 0, "time": 0, "type": "NormalMsg"}, "M_4686": {"note_status": 1, "channel": 9, "note": 35, "velocity": 112, "time": 0, "type": "NormalMsg"}, "M_4687": {"note_status": 1, "channel": 9, "note": 42, "velocity": 34, "time": 0, "type": "NormalMsg"}, "M_4688": {"note_status": 1, "channel": 9, "note": 35, "velocity": 0, "time": 0, "type": "NormalMsg"}, "M_4689": {"note_status": 1, "channel": 9, "note": 42, "velocity": 0, "time": 0, "type": "NormalMsg"}, "M_4690": {"note_status": 1, "channel": 9, "note": 42, "velocity": 58, "time": 0, "type": "NormalMsg"}, "M_4691": {"note_status": 1, "channel": 9, "note": 42, "velocity": 0, "time": 0, "type": "NormalMsg"}, "M_4692": {"note_status": 1, "channel": 9, "note": 35, "velocity": 112, "time": 0, "type": "NormalMsg"}, "M_4693": {"note_status": 1, "channel": 9, "note": 38, "velocity": 90, "time": 0, "type": "NormalMsg"}, "M_4694": {"note_status": 1, "channel": 9, "note": 42, "velocity": 34, "time": 0, "type": "NormalMsg"}, "M_4695": {"note_status": 1, "channel": 9, "note": 35, "velocity": 0, "time": 0, "type": "NormalMsg"}, "M_4696": {"note_status": 1, "channel": 9, "note": 38, "velocity": 0, "time": 0, "type": "NormalMsg"}, "M_4697": {"note_status": 1, "channel": 9, "note": 42, "velocity": 0, "time": 0, "type": "NormalMsg"}, "M_4698": {"note_status": 1, "channel": 9, "note": 42, "velocity": 58, "time": 0, "type": "NormalMsg"}, "M_4699": {"note_status": 1, "channel": 9, "note": 42, "velocity": 0, "time": 0, "type": "NormalMsg"}, "M_4700": {"note_status": 1, "channel": 9, "note": 42, "velocity": 58, "time": 0, "type": "NormalMsg"}, "M_4701": {"note_status": 1, "channel": 9, "note": 42, "velocity": 0, "time": 0, "type": "NormalMsg"}, "M_4702": {"note_status": 1, "channel": 9, "note": 35, "velocity": 112, "time": 0, "type": "NormalMsg"}, "M_4703": {"note_status": 1, "channel": 9, "note": 42, "velocity": 34, "time": 0, "type": "NormalMsg"}, "M_4704": {"note_status": 1, "channel": 9, "note": 35, "velocity": 0, "time": 0, "type": "NormalMsg"}, "M_4705": {"note_status": 1, "channel": 9, "note": 42, "velocity": 0, "time": 0, "type": "NormalMsg"}, "M_4706": {"note_status": 1, "channel": 9, "note": 42, "velocity": 58, "time": 0, "type": "NormalMsg"}, "M_4707": {"note_status": 1, "channel": 9, "note": 42, "velocity": 0, "time": 0, "type": "NormalMsg"}, "M_4708": {"note_status": 1, "channel": 9, "note": 35, "velocity": 112, "time": 0, "type": "NormalMsg"}, "M_4709": {"note_status": 1, "channel": 9, "note": 38, "velocity": 90, "time": 0, "type": "NormalMsg"}, "M_4710": {"note_status": 1, "channel": 9, "note": 42, "velocity": 34, "time": 0, "type": "NormalMsg"}, "M_4711": {"note_status": 1, "channel": 9, "note": 35, "velocity": 0, "time": 0, "type": "NormalMsg"}, "M_4712": {"note_status": 1, "channel": 9, "note": 38, "velocity": 0, "time": 0, "type": "NormalMsg"}, "M_4713": {"note_status": 1, "channel": 9, "note": 42, "velocity": 0, "time": 0, "type": "NormalMsg"}, "M_4714": {"note_status": 1, "channel": 9, "note": 42, "velocity": 58, "time": 0, "type": "NormalMsg"}, "M_4715": {"note_status": 1, "channel": 9, "note": 42, "velocity": 0, "time": 0, "type": "NormalMsg"}, "M_4716": {"note_status": 1, "channel": 9, "note": 35, "velocity": 112, "time": 0, "type": "NormalMsg"}, "M_4717": {"note_status": 1, "channel": 9, "note": 42, "velocity": 34, "time": 0, "type": "NormalMsg"}, "M_4718": {"note_status": 1, "channel": 9, "note": 35, "velocity": 0, "time": 0, "type": "NormalMsg"}, "M_4719": {"note_status": 1, "channel": 9, "note": 42, "velocity": 0, "time": 0, "type": "NormalMsg"}, "M_4720": {"note_status": 1, "channel": 9, "note": 42, "velocity": 58, "time": 0, "type": "NormalMsg"}, "M_4721": {"note_status": 1, "channel": 9, "note": 42, "velocity": 0, "time": 0, "type": "NormalMsg"}, "M_4722": {"note_status": 1, "channel": 9, "note": 35, "velocity": 112, "time": 0, "type": "NormalMsg"}, "M_4723": {"note_status": 1, "channel": 9, "note": 38, "velocity": 90, "time": 0, "type": "NormalMsg"}, "M_4724": {"note_status": 1, "channel": 9, "note": 42, "velocity": 34, "time": 0, "type": "NormalMsg"}, "M_4725": {"note_status": 1, "channel": 9, "note": 35, "velocity": 0, "time": 0, "type": "NormalMsg"}, "M_4726": {"note_status": 1, "channel": 9, "note": 38, "velocity": 0, "time": 0, "type": "NormalMsg"}, "M_4727": {"note_status": 1, "channel": 9, "note": 42, "velocity": 0, "time": 0, "type": "NormalMsg"}, "M_4728": {"note_status": 1, "channel": 9, "note": 42, "velocity": 52, "time": 0, "type": "NormalMsg"}, "M_4729": {"note_status": 1, "channel": 9, "note": 43, "velocity": 82, "time": 0, "type": "NormalMsg"}, "M_4730": {"note_status": 1, "channel": 9, "note": 42, "velocity": 0, "time": 0, "type": "NormalMsg"}, "M_4731": {"note_status": 1, "channel": 9, "note": 43, "velocity": 0, "time": 0, "type": "NormalMsg"}, "M_4732": {"note_status": 1, "channel": 9, "note": 41, "velocity": 90, "time": 0, "type": "NormalMsg"}, "M_4733": {"note_status": 1, "channel": 9, "note": 42, "velocity": 58, "time": 0, "type": "NormalMsg"}, "M_4734": {"note_status": 1, "channel": 9, "note": 41, "velocity": 0, "time": 0, "type": "NormalMsg"}, "M_4735": {"note_status": 1, "channel": 9, "note": 42, "velocity": 0, "time": 0, "type": "NormalMsg"}, "M_4736": {"note_status": 1, "channel": 9, "note": 41, "velocity": 90, "time": 0, "type": "NormalMsg"}, "M_4737": {"note_status": 1, "channel": 9, "note": 42, "velocity": 58, "time": 0, "type": "NormalMsg"}, "M_4738": {"note_status": 1, "channel": 9, "note": 41, "velocity": 0, "time": 0, "type": "NormalMsg"}, "M_4739": {"note_status": 1, "channel": 9, "note": 42, "velocity": 0, "time": 0, "type": "NormalMsg"}, "M_4740": {"note_status": 1, "channel": 9, "note": 35, "velocity": 112, "time": 0, "type": "NormalMsg"}, "M_4741": {"note_status": 1, "channel": 9, "note": 42, "velocity": 58, "time": 0, "type": "NormalMsg"}, "M_4742": {"note_status": 1, "channel": 9, "note": 35, "velocity": 0, "time": 0, "type": "NormalMsg"}, "M_4743": {"note_status": 1, "channel": 9, "note": 42, "velocity": 0, "time": 0, "type": "NormalMsg"}, "M_4744": {"note_status": 1, "channel": 9, "note": 42, "velocity": 52, "time": 0, "type": "NormalMsg"}, "M_4745": {"note_status": 1, "channel": 9, "note": 42, "velocity": 0, "time": 0, "type": "NormalMsg"}, "M_4746": {"note_status": 1, "channel": 9, "note": 42, "velocity": 45, "time": 0, "type": "NormalMsg"}, "M_4747": {"note_status": 1, "channel": 9, "note": 42, "velocity": 0, "time": 0, "type": "NormalMsg"}, "M_4748": {"note_status": 1, "channel": 9, "note": 42, "velocity": 45, "time": 0, "type": "NormalMsg"}, "M_4749": {"note_status": 1, "channel": 9, "note": 42, "velocity": 0, "time": 0, "type": "NormalMsg"}, "M_4750": {"note_status": 1, "channel": 9, "note": 35, "velocity": 112, "time": 0, "type": "NormalMsg"}, "M_4751": {"note_status": 1, "channel": 9, "note": 38, "velocity": 90, "time": 0, "type": "NormalMsg"}, "M_4752": {"note_status": 1, "channel": 9, "note": 42, "velocity": 58, "time": 0, "type": "NormalMsg"}, "M_4753": {"note_status": 1, "channel": 9, "note": 35, "velocity": 0, "time": 0, "type": "NormalMsg"}, "M_4754": {"note_status": 1, "channel": 9, "note": 38, "velocity": 0, "time": 0, "type": "NormalMsg"}, "M_4755": {"note_status": 1, "channel": 9, "note": 42, "velocity": 0, "time": 0, "type": "NormalMsg"}, "M_4756": {"note_status": 1, "channel": 9, "note": 42, "velocity": 52, "time": 0, "type": "NormalMsg"}, "M_4757": {"note_status": 1, "channel": 9, "note": 42, "velocity": 0, "time": 0, "type": "NormalMsg"}, "M_4758": {"note_status": 1, "channel": 9, "note": 42, "velocity": 45, "time": 0, "type": "NormalMsg"}, "M_4759": {"note_status": 1, "channel": 9, "note": 42, "velocity": 0, "time": 0, "type": "NormalMsg"}, "M_4760": {"note_status": 1, "channel": 9, "note": 42, "velocity": 45, "time": 0, "type": "NormalMsg"}, "M_4761": {"note_status": 1, "channel": 9, "note": 42, "velocity": 0, "time": 0, "type": "NormalMsg"}, "M_4762": {"note_status": 1, "channel": 9, "note": 35, "velocity": 112, "time": 0, "type": "NormalMsg"}, "M_4763": {"note_status": 1, "channel": 9, "note": 42, "velocity": 58, "time": 0, "type": "NormalMsg"}, "M_4764": {"note_status": 1, "channel": 9, "note": 35, "velocity": 0, "time": 0, "type": "NormalMsg"}, "M_4765": {"note_status": 1, "channel": 9, "note": 42, "velocity": 0, "time": 0, "type": "NormalMsg"}, "M_4766": {"note_status": 1, "channel": 9, "note": 42, "velocity": 52, "time": 0, "type": "NormalMsg"}, "M_4767": {"note_status": 1, "channel": 9, "note": 42, "velocity": 0, "time": 0, "type": "NormalMsg"}, "M_4768": {"note_status": 1, "channel": 9, "note": 42, "velocity": 58, "time": 0, "type": "NormalMsg"}, "M_4769": {"note_status": 1, "channel": 9, "note": 42, "velocity": 0, "time": 0, "type": "NormalMsg"}, "M_4770": {"note_status": 1, "channel": 9, "note": 42, "velocity": 58, "time": 0, "type": "NormalMsg"}, "M_4771": {"note_status": 1, "channel": 9, "note": 42, "velocity": 0, "time": 0, "type": "NormalMsg"}, "M_4772": {"note_status": 1, "channel": 9, "note": 35, "velocity": 112, "time": 0, "type": "NormalMsg"}, "M_4773": {"note_status": 1, "channel": 9, "note": 38, "velocity": 90, "time": 0, "type": "NormalMsg"}, "M_4774": {"note_status": 1, "channel": 9, "note": 42, "velocity": 58, "time": 0, "type": "NormalMsg"}, "M_4775": {"note_status": 1, "channel": 9, "note": 35, "velocity": 0, "time": 0, "type": "NormalMsg"}, "M_4776": {"note_status": 1, "channel": 9, "note": 38, "velocity": 0, "time": 0, "type": "NormalMsg"}, "M_4777": {"note_status": 1, "channel": 9, "note": 42, "velocity": 0, "time": 0, "type": "NormalMsg"}, "M_4778": {"note_status": 1, "channel": 9, "note": 42, "velocity": 52, "time": 0, "type": "NormalMsg"}, "M_4779": {"note_status": 1, "channel": 9, "note": 42, "velocity": 0, "time": 0, "type": "NormalMsg"}, "M_4780": {"note_status": 1, "channel": 9, "note": 42, "velocity": 45, "time": 0, "type": "NormalMsg"}, "M_4781": {"note_status": 1, "channel": 9, "note": 42, "velocity": 0, "time": 0, "type": "NormalMsg"}, "M_4782": {"note_status": 1, "channel": 9, "note": 42, "velocity": 45, "time": 0, "type": "NormalMsg"}, "M_4783": {"note_status": 1, "channel": 9, "note": 42, "velocity": 0, "time": 0, "type": "NormalMsg"}, "M_4784": {"note_status": 1, "channel": 9, "note": 35, "velocity": 112, "time": 0, "type": "NormalMsg"}, "M_4785": {"note_status": 1, "channel": 9, "note": 42, "velocity": 58, "time": 0, "type": "NormalMsg"}, "M_4786": {"note_status": 1, "channel": 9, "note": 35, "velocity": 0, "time": 0, "type": "NormalMsg"}, "M_4787": {"note_status": 1, "channel": 9, "note": 42, "velocity": 0, "time": 0, "type": "NormalMsg"}, "M_4788": {"note_status": 1, "channel": 9, "note": 42, "velocity": 52, "time": 0, "type": "NormalMsg"}, "M_4789": {"note_status": 1, "channel": 9, "note": 42, "velocity": 0, "time": 0, "type": "NormalMsg"}, "M_4790": {"note_status": 1, "channel": 9, "note": 42, "velocity": 45, "time": 0, "type": "NormalMsg"}, "M_4791": {"note_status": 1, "channel": 9, "note": 42, "velocity": 0, "time": 0, "type": "NormalMsg"}, "M_4792": {"note_status": 1, "channel": 9, "note": 42, "velocity": 45, "time": 0, "type": "NormalMsg"}, "M_4793": {"note_status": 1, "channel": 9, "note": 42, "velocity": 0, "time": 0, "type": "NormalMsg"}, "M_4794": {"note_status": 1, "channel": 9, "note": 35, "velocity": 112, "time": 0, "type": "NormalMsg"}, "M_4795": {"note_status": 1, "channel": 9, "note": 38, "velocity": 90, "time": 0, "type": "NormalMsg"}, "M_4796": {"note_status": 1, "channel": 9, "note": 42, "velocity": 58, "time": 0, "type": "NormalMsg"}, "M_4797": {"note_status": 1, "channel": 9, "note": 35, "velocity": 0, "time": 0, "type": "NormalMsg"}, "M_4798": {"note_status": 1, "channel": 9, "note": 38, "velocity": 0, "time": 0, "type": "NormalMsg"}, "M_4799": {"note_status": 1, "channel": 9, "note": 42, "velocity": 0, "time": 0, "type": "NormalMsg"}, "M_4800": {"note_status": 1, "channel": 9, "note": 42, "velocity": 52, "time": 0, "type": "NormalMsg"}, "M_4801": {"note_status": 1, "channel": 9, "note": 42, "velocity": 0, "time": 0, "type": "NormalMsg"}, "M_4802": {"note_status": 1, "channel": 9, "note": 42, "velocity": 45, "time": 0, "type": "NormalMsg"}, "M_4803": {"note_status": 1, "channel": 9, "note": 42, "velocity": 0, "time": 0, "type": "NormalMsg"}, "M_4804": {"note_status": 1, "channel": 9, "note": 42, "velocity": 45, "time": 0, "type": "NormalMsg"}, "M_4805": {"note_status": 1, "channel": 9, "note": 42, "velocity": 0, "time": 0, "type": "NormalMsg"}, "M_4806": {"note_status": 1, "channel": 9, "note": 35, "velocity": 112, "time": 0, "type": "NormalMsg"}, "M_4807": {"note_status": 1, "channel": 9, "note": 42, "velocity": 58, "time": 0, "type": "NormalMsg"}, "M_4808": {"note_status": 1, "channel": 9, "note": 35, "velocity": 0, "time": 0, "type": "NormalMsg"}, "M_4809": {"note_status": 1, "channel": 9, "note": 42, "velocity": 0, "time": 0, "type": "NormalMsg"}, "M_4810": {"note_status": 1, "channel": 9, "note": 42, "velocity": 52, "time": 0, "type": "NormalMsg"}, "M_4811": {"note_status": 1, "channel": 9, "note": 42, "velocity": 0, "time": 0, "type": "NormalMsg"}, "M_4812": {"note_status": 1, "channel": 9, "note": 42, "velocity": 58, "time": 0, "type": "NormalMsg"}, "M_4813": {"note_status": 1, "channel": 9, "note": 42, "velocity": 0, "time": 0, "type": "NormalMsg"}, "M_4814": {"note_status": 1, "channel": 9, "note": 42, "velocity": 58, "time": 0, "type": "NormalMsg"}, "M_4815": {"note_status": 1, "channel": 9, "note": 42, "velocity": 0, "time": 0, "type": "NormalMsg"}, "M_4816": {"note_status": 1, "channel": 9, "note": 35, "velocity": 112, "time": 0, "type": "NormalMsg"}, "M_4817": {"note_status": 1, "channel": 9, "note": 38, "velocity": 90, "time": 0, "type": "NormalMsg"}, "M_4818": {"note_status": 1, "channel": 9, "note": 42, "velocity": 58, "time": 0, "type": "NormalMsg"}, "M_4819": {"note_status": 1, "channel": 9, "note": 35, "velocity": 0, "time": 0, "type": "NormalMsg"}, "M_4820": {"note_status": 1, "channel": 9, "note": 38, "velocity": 0, "time": 0, "type": "NormalMsg"}, "M_4821": {"note_status": 1, "channel": 9, "note": 42, "velocity": 0, "time": 0, "type": "NormalMsg"}, "M_4822": {"note_status": 1, "channel": 9, "note": 42, "velocity": 52, "time": 0, "type": "NormalMsg"}, "M_4823": {"note_status": 1, "channel": 9, "note": 42, "velocity": 0, "time": 0, "type": "NormalMsg"}, "M_4824": {"note_status": 1, "channel": 9, "note": 42, "velocity": 45, "time": 0, "type": "NormalMsg"}, "M_4825": {"note_status": 1, "channel": 9, "note": 42, "velocity": 0, "time": 0, "type": "NormalMsg"}, "M_4826": {"note_status": 1, "channel": 9, "note": 42, "velocity": 45, "time": 0, "type": "NormalMsg"}, "M_4827": {"note_status": 1, "channel": 9, "note": 42, "velocity": 0, "time": 0, "type": "NormalMsg"}, "M_4828": {"note_status": 1, "channel": 9, "note": 35, "velocity": 112, "time": 0, "type": "NormalMsg"}, "M_4829": {"note_status": 1, "channel": 9, "note": 42, "velocity": 58, "time": 0, "type": "NormalMsg"}, "M_4830": {"note_status": 1, "channel": 9, "note": 35, "velocity": 0, "time": 0, "type": "NormalMsg"}, "M_4831": {"note_status": 1, "channel": 9, "note": 42, "velocity": 0, "time": 0, "type": "NormalMsg"}, "M_4832": {"note_status": 1, "channel": 9, "note": 42, "velocity": 52, "time": 0, "type": "NormalMsg"}, "M_4833": {"note_status": 1, "channel": 9, "note": 42, "velocity": 0, "time": 0, "type": "NormalMsg"}, "M_4834": {"note_status": 1, "channel": 9, "note": 42, "velocity": 45, "time": 0, "type": "NormalMsg"}, "M_4835": {"note_status": 1, "channel": 9, "note": 42, "velocity": 0, "time": 0, "type": "NormalMsg"}, "M_4836": {"note_status": 1, "channel": 9, "note": 42, "velocity": 45, "time": 0, "type": "NormalMsg"}, "M_4837": {"note_status": 1, "channel": 9, "note": 42, "velocity": 0, "time": 0, "type": "NormalMsg"}, "M_4838": {"note_status": 1, "channel": 9, "note": 35, "velocity": 112, "time": 0, "type": "NormalMsg"}, "M_4839": {"note_status": 1, "channel": 9, "note": 38, "velocity": 90, "time": 0, "type": "NormalMsg"}, "M_4840": {"note_status": 1, "channel": 9, "note": 42, "velocity": 58, "time": 0, "type": "NormalMsg"}, "M_4841": {"note_status": 1, "channel": 9, "note": 35, "velocity": 0, "time": 0, "type": "NormalMsg"}, "M_4842": {"note_status": 1, "channel": 9, "note": 38, "velocity": 0, "time": 0, "type": "NormalMsg"}, "M_4843": {"note_status": 1, "channel": 9, "note": 42, "velocity": 0, "time": 0, "type": "NormalMsg"}, "M_4844": {"note_status": 1, "channel": 9, "note": 42, "velocity": 52, "time": 0, "type": "NormalMsg"}, "M_4845": {"note_status": 1, "channel": 9, "note": 42, "velocity": 0, "time": 0, "type": "NormalMsg"}, "M_4846": {"note_status": 1, "channel": 9, "note": 42, "velocity": 45, "time": 0, "type": "NormalMsg"}, "M_4847": {"note_status": 1, "channel": 9, "note": 42, "velocity": 0, "time": 0, "type": "NormalMsg"}, "M_4848": {"note_status": 1, "channel": 9, "note": 42, "velocity": 45, "time": 0, "type": "NormalMsg"}, "M_4849": {"note_status": 1, "channel": 9, "note": 42, "velocity": 0, "time": 0, "type": "NormalMsg"}, "M_4850": {"note_status": 1, "channel": 9, "note": 35, "velocity": 112, "time": 0, "type": "NormalMsg"}, "M_4851": {"note_status": 1, "channel": 9, "note": 42, "velocity": 58, "time": 0, "type": "NormalMsg"}, "M_4852": {"note_status": 1, "channel": 9, "note": 35, "velocity": 0, "time": 0, "type": "NormalMsg"}, "M_4853": {"note_status": 1, "channel": 9, "note": 42, "velocity": 0, "time": 0, "type": "NormalMsg"}, "M_4854": {"note_status": 1, "channel": 9, "note": 42, "velocity": 52, "time": 0, "type": "NormalMsg"}, "M_4855": {"note_status": 1, "channel": 9, "note": 42, "velocity": 0, "time": 0, "type": "NormalMsg"}, "M_4856": {"note_status": 1, "channel": 9, "note": 42, "velocity": 58, "time": 0, "type": "NormalMsg"}, "M_4857": {"note_status": 1, "channel": 9, "note": 42, "velocity": 0, "time": 0, "type": "NormalMsg"}, "M_4858": {"note_status": 1, "channel": 9, "note": 42, "velocity": 58, "time": 0, "type": "NormalMsg"}, "M_4859": {"note_status": 1, "channel": 9, "note": 42, "velocity": 0, "time": 0, "type": "NormalMsg"}, "M_4860": {"note_status": 1, "channel": 9, "note": 35, "velocity": 112, "time": 0, "type": "NormalMsg"}, "M_4861": {"note_status": 1, "channel": 9, "note": 38, "velocity": 90, "time": 0, "type": "NormalMsg"}, "M_4862": {"note_status": 1, "channel": 9, "note": 42, "velocity": 58, "time": 0, "type": "NormalMsg"}, "M_4863": {"note_status": 1, "channel": 9, "note": 35, "velocity": 0, "time": 0, "type": "NormalMsg"}, "M_4864": {"note_status": 1, "channel": 9, "note": 38, "velocity": 0, "time": 0, "type": "NormalMsg"}, "M_4865": {"note_status": 1, "channel": 9, "note": 42, "velocity": 0, "time": 0, "type": "NormalMsg"}, "M_4866": {"note_status": 1, "channel": 9, "note": 42, "velocity": 52, "time": 0, "type": "NormalMsg"}, "M_4867": {"note_status": 1, "channel": 9, "note": 52, "velocity": 70, "time": 0, "type": "NormalMsg"}, "M_4868": {"note_status": 1, "channel": 9, "note": 42, "velocity": 0, "time": 0, "type": "NormalMsg"}, "M_4869": {"note_status": 1, "channel": 9, "note": 52, "velocity": 0, "time": 0, "type": "NormalMsg"}, "M_4870": {"note_status": 1, "channel": 9, "note": 42, "velocity": 45, "time": 0, "type": "NormalMsg"}, "M_4871": {"note_status": 1, "channel": 9, "note": 42, "velocity": 0, "time": 0, "type": "NormalMsg"}, "M_4872": {"note_status": 1, "channel": 9, "note": 42, "velocity": 45, "time": 0, "type": "NormalMsg"}, "M_4873": {"note_status": 1, "channel": 9, "note": 42, "velocity": 0, "time": 0, "type": "NormalMsg"}, "M_4874": {"note_status": 1, "channel": 9, "note": 35, "velocity": 112, "time": 0, "type": "NormalMsg"}, "M_4875": {"note_status": 1, "channel": 9, "note": 42, "velocity": 58, "time": 0, "type": "NormalMsg"}, "M_4876": {"note_status": 1, "channel": 9, "note": 35, "velocity": 0, "time": 0, "type": "NormalMsg"}, "M_4877": {"note_status": 1, "channel": 9, "note": 42, "velocity": 0, "time": 0, "type": "NormalMsg"}, "M_4878": {"note_status": 1, "channel": 9, "note": 42, "velocity": 58, "time": 0, "type": "NormalMsg"}, "M_4879": {"note_status": 1, "channel": 9, "note": 42, "velocity": 0, "time": 0, "type": "NormalMsg"}, "M_4880": {"note_status": 1, "channel": 9, "note": 42, "velocity": 45, "time": 0, "type": "NormalMsg"}, "M_4881": {"note_status": 1, "channel": 9, "note": 42, "velocity": 0, "time": 0, "type": "NormalMsg"}, "M_4882": {"note_status": 1, "channel": 9, "note": 42, "velocity": 45, "time": 0, "type": "NormalMsg"}, "M_4883": {"note_status": 1, "channel": 9, "note": 42, "velocity": 0, "time": 0, "type": "NormalMsg"}, "M_4884": {"note_status": 1, "channel": 9, "note": 28, "velocity": 90, "time": 0, "type": "NormalMsg"}, "M_4885": {"note_status": 1, "channel": 9, "note": 35, "velocity": 112, "time": 0, "type": "NormalMsg"}, "M_4886": {"note_status": 1, "channel": 9, "note": 38, "velocity": 90, "time": 0, "type": "NormalMsg"}, "M_4887": {"note_status": 1, "channel": 9, "note": 40, "velocity": 78, "time": 0, "type": "NormalMsg"}, "M_4888": {"note_status": 1, "channel": 9, "note": 42, "velocity": 58, "time": 0, "type": "NormalMsg"}, "M_4889": {"note_status": 1, "channel": 9, "note": 28, "velocity": 0, "time": 0, "type": "NormalMsg"}, "M_4890": {"note_status": 1, "channel": 9, "note": 35, "velocity": 0, "time": 0, "type": "NormalMsg"}, "M_4891": {"note_status": 1, "channel": 9, "note": 38, "velocity": 0, "time": 0, "type": "NormalMsg"}, "M_4892": {"note_status": 1, "channel": 9, "note": 40, "velocity": 0, "time": 0, "type": "NormalMsg"}, "M_4893": {"note_status": 1, "channel": 9, "note": 42, "velocity": 0, "time": 0, "type": "NormalMsg"}, "M_4894": {"note_status": 1, "channel": 9, "note": 35, "velocity": 112, "time": 0, "type": "NormalMsg"}, "M_4895": {"note_status": 1, "channel": 9, "note": 38, "velocity": 90, "time": 0, "type": "NormalMsg"}, "M_4896": {"note_status": 1, "channel": 9, "note": 35, "velocity": 0, "time": 0, "type": "NormalMsg"}, "M_4897": {"note_status": 1, "channel": 9, "note": 38, "velocity": 0, "time": 0, "type": "NormalMsg"}, "M_4898": {"note_status": 1, "channel": 9, "note": 35, "velocity": 112, "time": 0, "type": "NormalMsg"}, "M_4899": {"note_status": 1, "channel": 9, "note": 38, "velocity": 90, "time": 0, "type": "NormalMsg"}, "M_4900": {"note_status": 1, "channel": 9, "note": 35, "velocity": 0, "time": 0, "type": "NormalMsg"}, "M_4901": {"note_status": 1, "channel": 9, "note": 38, "velocity": 0, "time": 0, "type": "NormalMsg"}, "M_4902": {"note_status": 1, "channel": 9, "note": 35, "velocity": 112, "time": 0, "type": "NormalMsg"}, "M_4903": {"note_status": 1, "channel": 9, "note": 38, "velocity": 90, "time": 0, "type": "NormalMsg"}, "M_4904": {"note_status": 1, "channel": 9, "note": 35, "velocity": 0, "time": 0, "type": "NormalMsg"}, "M_4905": {"note_status": 1, "channel": 9, "note": 38, "velocity": 0, "time": 0, "type": "NormalMsg"}, "M_4906": {"note_status": 1, "channel": 9, "note": 35, "velocity": 112, "time": 0, "type": "NormalMsg"}, "M_4907": {"note_status": 1, "channel": 9, "note": 38, "velocity": 90, "time": 0, "type": "NormalMsg"}, "M_4908": {"note_status": 1, "channel": 9, "note": 35, "velocity": 0, "time": 0, "type": "NormalMsg"}, "M_4909": {"note_status": 1, "channel": 9, "note": 38, "velocity": 0, "time": 0, "type": "NormalMsg"}, "M_4910": {"note_status": 1, "channel": 9, "note": 35, "velocity": 112, "time": 0, "type": "NormalMsg"}, "M_4911": {"note_status": 1, "channel": 9, "note": 42, "velocity": 58, "time": 0, "type": "NormalMsg"}, "M_4912": {"note_status": 1, "channel": 9, "note": 35, "velocity": 0, "time": 0, "type": "NormalMsg"}, "M_4913": {"note_status": 1, "channel": 9, "note": 42, "velocity": 0, "time": 0, "type": "NormalMsg"}, "M_4914": {"note_status": 1, "channel": 9, "note": 42, "velocity": 45, "time": 0, "type": "NormalMsg"}, "M_4915": {"note_status": 1, "channel": 9, "note": 42, "velocity": 0, "time": 0, "type": "NormalMsg"}, "M_4916": {"note_status": 1, "channel": 9, "note": 42, "velocity": 45, "time": 0, "type": "NormalMsg"}, "M_4917": {"note_status": 1, "channel": 9, "note": 42, "velocity": 0, "time": 0, "type": "NormalMsg"}, "M_4918": {"note_status": 1, "channel": 9, "note": 28, "velocity": 127, "time": 0, "type": "NormalMsg"}, "M_4919": {"note_status": 1, "channel": 9, "note": 35, "velocity": 112, "time": 0, "type": "NormalMsg"}, "M_4920": {"note_status": 1, "channel": 9, "note": 38, "velocity": 90, "time": 0, "type": "NormalMsg"}, "M_4921": {"note_status": 1, "channel": 9, "note": 42, "velocity": 58, "time": 0, "type": "NormalMsg"}, "M_4922": {"note_status": 1, "channel": 9, "note": 49, "velocity": 103, "time": 0, "type": "NormalMsg"}, "M_4923": {"note_status": 1, "channel": 9, "note": 28, "velocity": 0, "time": 0, "type": "NormalMsg"}, "M_4924": {"note_status": 1, "channel": 9, "note": 35, "velocity": 0, "time": 0, "type": "NormalMsg"}, "M_4925": {"note_status": 1, "channel": 9, "note": 38, "velocity": 0, "time": 0, "type": "NormalMsg"}, "M_4926": {"note_status": 1, "channel": 9, "note": 42, "velocity": 0, "time": 0, "type": "NormalMsg"}, "M_4927": {"note_status": 1, "channel": 9, "note": 49, "velocity": 0, "time": 0, "type": "NormalMsg"}, "M_4928": {"note_status": 1, "channel": 9, "note": 42, "velocity": 45, "time": 0, "type": "NormalMsg"}, "M_4929": {"note_status": 1, "channel": 9, "note": 42, "velocity": 0, "time": 0, "type": "NormalMsg"}, "M_4930": {"note_status": 1, "channel": 9, "note": 42, "velocity": 45, "time": 0, "type": "NormalMsg"}, "M_4931": {"note_status": 1, "channel": 9, "note": 42, "velocity": 0, "time": 0, "type": "NormalMsg"}, "M_4932": {"note_status": 1, "channel": 9, "note": 35, "velocity": 112, "time": 0, "type": "NormalMsg"}, "M_4933": {"note_status": 1, "channel": 9, "note": 42, "velocity": 58, "time": 0, "type": "NormalMsg"}, "M_4934": {"note_status": 1, "channel": 9, "note": 35, "velocity": 0, "time": 0, "type": "NormalMsg"}, "M_4935": {"note_status": 1, "channel": 9, "note": 42, "velocity": 0, "time": 0, "type": "NormalMsg"}, "M_4936": {"note_status": 1, "channel": 9, "note": 42, "velocity": 52, "time": 0, "type": "NormalMsg"}, "M_4937": {"note_status": 1, "channel": 9, "note": 42, "velocity": 0, "time": 0, "type": "NormalMsg"}, "M_4938": {"note_status": 1, "channel": 9, "note": 42, "velocity": 58, "time": 0, "type": "NormalMsg"}, "M_4939": {"note_status": 1, "channel": 9, "note": 42, "velocity": 0, "time": 0, "type": "NormalMsg"}, "M_4940": {"note_status": 1, "channel": 9, "note": 42, "velocity": 58, "time": 0, "type": "NormalMsg"}, "M_4941": {"note_status": 1, "channel": 9, "note": 42, "velocity": 0, "time": 0, "type": "NormalMsg"}, "M_4942": {"note_status": 1, "channel": 9, "note": 35, "velocity": 112, "time": 0, "type": "NormalMsg"}, "M_4943": {"note_status": 1, "channel": 9, "note": 38, "velocity": 90, "time": 0, "type": "NormalMsg"}, "M_4944": {"note_status": 1, "channel": 9, "note": 42, "velocity": 58, "time": 0, "type": "NormalMsg"}, "M_4945": {"note_status": 1, "channel": 9, "note": 35, "velocity": 0, "time": 0, "type": "NormalMsg"}, "M_4946": {"note_status": 1, "channel": 9, "note": 38, "velocity": 0, "time": 0, "type": "NormalMsg"}, "M_4947": {"note_status": 1, "channel": 9, "note": 42, "velocity": 0, "time": 0, "type": "NormalMsg"}, "M_4948": {"note_status": 1, "channel": 9, "note": 42, "velocity": 45, "time": 0, "type": "NormalMsg"}, "M_4949": {"note_status": 1, "channel": 9, "note": 42, "velocity": 0, "time": 0, "type": "NormalMsg"}, "M_4950": {"note_status": 1, "channel": 9, "note": 42, "velocity": 45, "time": 0, "type": "NormalMsg"}, "M_4951": {"note_status": 1, "channel": 9, "note": 42, "velocity": 0, "time": 0, "type": "NormalMsg"}, "M_4952": {"note_status": 1, "channel": 9, "note": 35, "velocity": 112, "time": 0, "type": "NormalMsg"}, "M_4953": {"note_status": 1, "channel": 9, "note": 42, "velocity": 58, "time": 0, "type": "NormalMsg"}, "M_4954": {"note_status": 1, "channel": 9, "note": 35, "velocity": 0, "time": 0, "type": "NormalMsg"}, "M_4955": {"note_status": 1, "channel": 9, "note": 42, "velocity": 0, "time": 0, "type": "NormalMsg"}, "M_4956": {"note_status": 1, "channel": 9, "note": 42, "velocity": 45, "time": 0, "type": "NormalMsg"}, "M_4957": {"note_status": 1, "channel": 9, "note": 42, "velocity": 0, "time": 0, "type": "NormalMsg"}, "M_4958": {"note_status": 1, "channel": 9, "note": 42, "velocity": 45, "time": 0, "type": "NormalMsg"}, "M_4959": {"note_status": 1, "channel": 9, "note": 42, "velocity": 0, "time": 0, "type": "NormalMsg"}, "M_4960": {"note_status": 1, "channel": 9, "note": 35, "velocity": 112, "time": 0, "type": "NormalMsg"}, "M_4961": {"note_status": 1, "channel": 9, "note": 38, "velocity": 90, "time": 0, "type": "NormalMsg"}, "M_4962": {"note_status": 1, "channel": 9, "note": 42, "velocity": 58, "time": 0, "type": "NormalMsg"}, "M_4963": {"note_status": 1, "channel": 9, "note": 35, "velocity": 0, "time": 0, "type": "NormalMsg"}, "M_4964": {"note_status": 1, "channel": 9, "note": 38, "velocity": 0, "time": 0, "type": "NormalMsg"}, "M_4965": {"note_status": 1, "channel": 9, "note": 42, "velocity": 0, "time": 0, "type": "NormalMsg"}, "M_4966": {"note_status": 1, "channel": 9, "note": 42, "velocity": 45, "time": 0, "type": "NormalMsg"}, "M_4967": {"note_status": 1, "channel": 9, "note": 42, "velocity": 0, "time": 0, "type": "NormalMsg"}, "M_4968": {"note_status": 1, "channel": 9, "note": 42, "velocity": 45, "time": 0, "type": "NormalMsg"}, "M_4969": {"note_status": 1, "channel": 9, "note": 42, "velocity": 0, "time": 0, "type": "NormalMsg"}, "M_4970": {"note_status": 1, "channel": 9, "note": 35, "velocity": 112, "time": 0, "type": "NormalMsg"}, "M_4971": {"note_status": 1, "channel": 9, "note": 42, "velocity": 58, "time": 0, "type": "NormalMsg"}, "M_4972": {"note_status": 1, "channel": 9, "note": 35, "velocity": 0, "time": 0, "type": "NormalMsg"}, "M_4973": {"note_status": 1, "channel": 9, "note": 42, "velocity": 0, "time": 0, "type": "NormalMsg"}, "M_4974": {"note_status": 1, "channel": 9, "note": 42, "velocity": 33, "time": 0, "type": "NormalMsg"}, "M_4975": {"note_status": 1, "channel": 9, "note": 42, "velocity": 0, "time": 0, "type": "NormalMsg"}, "M_4976": {"note_status": 1, "channel": 9, "note": 42, "velocity": 58, "time": 0, "type": "NormalMsg"}, "M_4977": {"note_status": 1, "channel": 9, "note": 42, "velocity": 0, "time": 0, "type": "NormalMsg"}, "M_4978": {"note_status": 1, "channel": 9, "note": 42, "velocity": 58, "time": 0, "type": "NormalMsg"}, "M_4979": {"note_status": 1, "channel": 9, "note": 42, "velocity": 0, "time": 0, "type": "NormalMsg"}, "M_4980": {"note_status": 1, "channel": 9, "note": 35, "velocity": 112, "time": 0, "type": "NormalMsg"}, "M_4981": {"note_status": 1, "channel": 9, "note": 38, "velocity": 90, "time": 0, "type": "NormalMsg"}, "M_4982": {"note_status": 1, "channel": 9, "note": 42, "velocity": 58, "time": 0, "type": "NormalMsg"}, "M_4983": {"note_status": 1, "channel": 9, "note": 35, "velocity": 0, "time": 0, "type": "NormalMsg"}, "M_4984": {"note_status": 1, "channel": 9, "note": 38, "velocity": 0, "time": 0, "type": "NormalMsg"}, "M_4985": {"note_status": 1, "channel": 9, "note": 42, "velocity": 0, "time": 0, "type": "NormalMsg"}, "M_4986": {"note_status": 1, "channel": 9, "note": 42, "velocity": 45, "time": 0, "type": "NormalMsg"}, "M_4987": {"note_status": 1, "channel": 9, "note": 42, "velocity": 0, "time": 0, "type": "NormalMsg"}, "M_4988": {"note_status": 1, "channel": 9, "note": 42, "velocity": 45, "time": 0, "type": "NormalMsg"}, "M_4989": {"note_status": 1, "channel": 9, "note": 42, "velocity": 0, "time": 0, "type": "NormalMsg"}, "M_4990": {"note_status": 1, "channel": 9, "note": 35, "velocity": 112, "time": 0, "type": "NormalMsg"}, "M_4991": {"note_status": 1, "channel": 9, "note": 42, "velocity": 58, "time": 0, "type": "NormalMsg"}, "M_4992": {"note_status": 1, "channel": 9, "note": 35, "velocity": 0, "time": 0, "type": "NormalMsg"}, "M_4993": {"note_status": 1, "channel": 9, "note": 42, "velocity": 0, "time": 0, "type": "NormalMsg"}, "M_4994": {"note_status": 1, "channel": 9, "note": 42, "velocity": 45, "time": 0, "type": "NormalMsg"}, "M_4995": {"note_status": 1, "channel": 9, "note": 42, "velocity": 0, "time": 0, "type": "NormalMsg"}, "M_4996": {"note_status": 1, "channel": 9, "note": 42, "velocity": 45, "time": 0, "type": "NormalMsg"}, "M_4997": {"note_status": 1, "channel": 9, "note": 42, "velocity": 0, "time": 0, "type": "NormalMsg"}, "M_4998": {"note_status": 1, "channel": 9, "note": 35, "velocity": 112, "time": 0, "type": "NormalMsg"}, "M_4999": {"note_status": 1, "channel": 9, "note": 38, "velocity": 90, "time": 0, "type": "NormalMsg"}, "M_5000": {"note_status": 1, "channel": 9, "note": 42, "velocity": 58, "time": 0, "type": "NormalMsg"}, "M_5001": {"note_status": 1, "channel": 9, "note": 35, "velocity": 0, "time": 0, "type": "NormalMsg"}, "M_5002": {"note_status": 1, "channel": 9, "note": 38, "velocity": 0, "time": 0, "type": "NormalMsg"}, "M_5003": {"note_status": 1, "channel": 9, "note": 42, "velocity": 0, "time": 0, "type": "NormalMsg"}, "M_5004": {"note_status": 1, "channel": 9, "note": 42, "velocity": 45, "time": 0, "type": "NormalMsg"}, "M_5005": {"note_status": 1, "channel": 9, "note": 42, "velocity": 0, "time": 0, "type": "NormalMsg"}, "M_5006": {"note_status": 1, "channel": 9, "note": 42, "velocity": 45, "time": 0, "type": "NormalMsg"}, "M_5007": {"note_status": 1, "channel": 9, "note": 42, "velocity": 0, "time": 0, "type": "NormalMsg"}, "M_5008": {"note_status": 1, "channel": 9, "note": 35, "velocity": 112, "time": 0, "type": "NormalMsg"}, "M_5009": {"note_status": 1, "channel": 9, "note": 42, "velocity": 58, "time": 0, "type": "NormalMsg"}, "M_5010": {"note_status": 1, "channel": 9, "note": 35, "velocity": 0, "time": 0, "type": "NormalMsg"}, "M_5011": {"note_status": 1, "channel": 9, "note": 42, "velocity": 0, "time": 0, "type": "NormalMsg"}, "M_5012": {"note_status": 1, "channel": 9, "note": 42, "velocity": 52, "time": 0, "type": "NormalMsg"}, "M_5013": {"note_status": 1, "channel": 9, "note": 42, "velocity": 0, "time": 0, "type": "NormalMsg"}, "M_5014": {"note_status": 1, "channel": 9, "note": 42, "velocity": 58, "time": 0, "type": "NormalMsg"}, "M_5015": {"note_status": 1, "channel": 9, "note": 42, "velocity": 0, "time": 0, "type": "NormalMsg"}, "M_5016": {"note_status": 1, "channel": 9, "note": 42, "velocity": 58, "time": 0, "type": "NormalMsg"}, "M_5017": {"note_status": 1, "channel": 9, "note": 42, "velocity": 0, "time": 0, "type": "NormalMsg"}, "M_5018": {"note_status": 1, "channel": 9, "note": 35, "velocity": 112, "time": 0, "type": "NormalMsg"}, "M_5019": {"note_status": 1, "channel": 9, "note": 38, "velocity": 90, "time": 0, "type": "NormalMsg"}, "M_5020": {"note_status": 1, "channel": 9, "note": 42, "velocity": 58, "time": 0, "type": "NormalMsg"}, "M_5021": {"note_status": 1, "channel": 9, "note": 35, "velocity": 0, "time": 0, "type": "NormalMsg"}, "M_5022": {"note_status": 1, "channel": 9, "note": 38, "velocity": 0, "time": 0, "type": "NormalMsg"}, "M_5023": {"note_status": 1, "channel": 9, "note": 42, "velocity": 0, "time": 0, "type": "NormalMsg"}, "M_5024": {"note_status": 1, "channel": 9, "note": 42, "velocity": 45, "time": 0, "type": "NormalMsg"}, "M_5025": {"note_status": 1, "channel": 9, "note": 42, "velocity": 0, "time": 0, "type": "NormalMsg"}, "M_5026": {"note_status": 1, "channel": 9, "note": 42, "velocity": 45, "time": 0, "type": "NormalMsg"}, "M_5027": {"note_status": 1, "channel": 9, "note": 42, "velocity": 0, "time": 0, "type": "NormalMsg"}, "M_5028": {"note_status": 1, "channel": 9, "note": 35, "velocity": 112, "time": 0, "type": "NormalMsg"}, "M_5029": {"note_status": 1, "channel": 9, "note": 42, "velocity": 58, "time": 0, "type": "NormalMsg"}, "M_5030": {"note_status": 1, "channel": 9, "note": 35, "velocity": 0, "time": 0, "type": "NormalMsg"}, "M_5031": {"note_status": 1, "channel": 9, "note": 42, "velocity": 0, "time": 0, "type": "NormalMsg"}, "M_5032": {"note_status": 1, "channel": 9, "note": 42, "velocity": 45, "time": 0, "type": "NormalMsg"}, "M_5033": {"note_status": 1, "channel": 9, "note": 42, "velocity": 0, "time": 0, "type": "NormalMsg"}, "M_5034": {"note_status": 1, "channel": 9, "note": 42, "velocity": 45, "time": 0, "type": "NormalMsg"}, "M_5035": {"note_status": 1, "channel": 9, "note": 42, "velocity": 0, "time": 0, "type": "NormalMsg"}, "M_5036": {"note_status": 1, "channel": 9, "note": 35, "velocity": 112, "time": 0, "type": "NormalMsg"}, "M_5037": {"note_status": 1, "channel": 9, "note": 38, "velocity": 90, "time": 0, "type": "NormalMsg"}, "M_5038": {"note_status": 1, "channel": 9, "note": 42, "velocity": 58, "time": 0, "type": "NormalMsg"}, "M_5039": {"note_status": 1, "channel": 9, "note": 35, "velocity": 0, "time": 0, "type": "NormalMsg"}, "M_5040": {"note_status": 1, "channel": 9, "note": 38, "velocity": 0, "time": 0, "type": "NormalMsg"}, "M_5041": {"note_status": 1, "channel": 9, "note": 42, "velocity": 0, "time": 0, "type": "NormalMsg"}, "M_5042": {"note_status": 1, "channel": 9, "note": 42, "velocity": 45, "time": 0, "type": "NormalMsg"}, "M_5043": {"note_status": 1, "channel": 9, "note": 42, "velocity": 0, "time": 0, "type": "NormalMsg"}, "M_5044": {"note_status": 1, "channel": 9, "note": 42, "velocity": 45, "time": 0, "type": "NormalMsg"}, "M_5045": {"note_status": 1, "channel": 9, "note": 42, "velocity": 0, "time": 0, "type": "NormalMsg"}, "M_5046": {"note_status": 1, "channel": 9, "note": 35, "velocity": 112, "time": 0, "type": "NormalMsg"}, "M_5047": {"note_status": 1, "channel": 9, "note": 42, "velocity": 58, "time": 0, "type": "NormalMsg"}, "M_5048": {"note_status": 1, "channel": 9, "note": 35, "velocity": 0, "time": 0, "type": "NormalMsg"}, "M_5049": {"note_status": 1, "channel": 9, "note": 42, "velocity": 0, "time": 0, "type": "NormalMsg"}, "M_5050": {"note_status": 1, "channel": 9, "note": 42, "velocity": 45, "time": 0, "type": "NormalMsg"}, "M_5051": {"note_status": 1, "channel": 9, "note": 42, "velocity": 0, "time": 0, "type": "NormalMsg"}, "M_5052": {"note_status": 1, "channel": 9, "note": 42, "velocity": 45, "time": 0, "type": "NormalMsg"}, "M_5053": {"note_status": 1, "channel": 9, "note": 42, "velocity": 0, "time": 0, "type": "NormalMsg"}, "M_5054": {"note_status": 1, "channel": 9, "note": 28, "velocity": 127, "time": 0, "type": "NormalMsg"}, "M_5055": {"note_status": 1, "channel": 9, "note": 35, "velocity": 112, "time": 0, "type": "NormalMsg"}, "M_5056": {"note_status": 1, "channel": 9, "note": 38, "velocity": 90, "time": 0, "type": "NormalMsg"}, "M_5057": {"note_status": 1, "channel": 9, "note": 42, "velocity": 58, "time": 0, "type": "NormalMsg"}, "M_5058": {"note_status": 1, "channel": 9, "note": 49, "velocity": 103, "time": 0, "type": "NormalMsg"}, "M_5059": {"note_status": 1, "channel": 9, "note": 28, "velocity": 0, "time": 0, "type": "NormalMsg"}, "M_5060": {"note_status": 1, "channel": 9, "note": 35, "velocity": 0, "time": 0, "type": "NormalMsg"}, "M_5061": {"note_status": 1, "channel": 9, "note": 38, "velocity": 0, "time": 0, "type": "NormalMsg"}, "M_5062": {"note_status": 1, "channel": 9, "note": 42, "velocity": 0, "time": 0, "type": "NormalMsg"}, "M_5063": {"note_status": 1, "channel": 9, "note": 49, "velocity": 0, "time": 0, "type": "NormalMsg"}, "M_5064": {"note_status": 1, "channel": 9, "note": 42, "velocity": 45, "time": 0, "type": "NormalMsg"}, "M_5065": {"note_status": 1, "channel": 9, "note": 42, "velocity": 0, "time": 0, "type": "NormalMsg"}, "M_5066": {"note_status": 1, "channel": 9, "note": 42, "velocity": 45, "time": 0, "type": "NormalMsg"}, "M_5067": {"note_status": 1, "channel": 9, "note": 42, "velocity": 0, "time": 0, "type": "NormalMsg"}, "M_5068": {"note_status": 1, "channel": 9, "note": 35, "velocity": 112, "time": 0, "type": "NormalMsg"}, "M_5069": {"note_status": 1, "channel": 9, "note": 42, "velocity": 58, "time": 0, "type": "NormalMsg"}, "M_5070": {"note_status": 1, "channel": 9, "note": 35, "velocity": 0, "time": 0, "type": "NormalMsg"}, "M_5071": {"note_status": 1, "channel": 9, "note": 42, "velocity": 0, "time": 0, "type": "NormalMsg"}, "M_5072": {"note_status": 1, "channel": 9, "note": 42, "velocity": 52, "time": 0, "type": "NormalMsg"}, "M_5073": {"note_status": 1, "channel": 9, "note": 42, "velocity": 0, "time": 0, "type": "NormalMsg"}, "M_5074": {"note_status": 1, "channel": 9, "note": 42, "velocity": 58, "time": 0, "type": "NormalMsg"}, "M_5075": {"note_status": 1, "channel": 9, "note": 42, "velocity": 0, "time": 0, "type": "NormalMsg"}, "M_5076": {"note_status": 1, "channel": 9, "note": 42, "velocity": 58, "time": 0, "type": "NormalMsg"}, "M_5077": {"note_status": 1, "channel": 9, "note": 42, "velocity": 0, "time": 0, "type": "NormalMsg"}, "M_5078": {"note_status": 1, "channel": 9, "note": 35, "velocity": 112, "time": 0, "type": "NormalMsg"}, "M_5079": {"note_status": 1, "channel": 9, "note": 38, "velocity": 90, "time": 0, "type": "NormalMsg"}, "M_5080": {"note_status": 1, "channel": 9, "note": 42, "velocity": 58, "time": 0, "type": "NormalMsg"}, "M_5081": {"note_status": 1, "channel": 9, "note": 35, "velocity": 0, "time": 0, "type": "NormalMsg"}, "M_5082": {"note_status": 1, "channel": 9, "note": 38, "velocity": 0, "time": 0, "type": "NormalMsg"}, "M_5083": {"note_status": 1, "channel": 9, "note": 42, "velocity": 0, "time": 0, "type": "NormalMsg"}, "M_5084": {"note_status": 1, "channel": 9, "note": 42, "velocity": 45, "time": 0, "type": "NormalMsg"}, "M_5085": {"note_status": 1, "channel": 9, "note": 42, "velocity": 0, "time": 0, "type": "NormalMsg"}, "M_5086": {"note_status": 1, "channel": 9, "note": 42, "velocity": 45, "time": 0, "type": "NormalMsg"}, "M_5087": {"note_status": 1, "channel": 9, "note": 42, "velocity": 0, "time": 0, "type": "NormalMsg"}, "M_5088": {"note_status": 1, "channel": 9, "note": 35, "velocity": 112, "time": 0, "type": "NormalMsg"}, "M_5089": {"note_status": 1, "channel": 9, "note": 42, "velocity": 58, "time": 0, "type": "NormalMsg"}, "M_5090": {"note_status": 1, "channel": 9, "note": 35, "velocity": 0, "time": 0, "type": "NormalMsg"}, "M_5091": {"note_status": 1, "channel": 9, "note": 42, "velocity": 0, "time": 0, "type": "NormalMsg"}, "M_5092": {"note_status": 1, "channel": 9, "note": 42, "velocity": 45, "time": 0, "type": "NormalMsg"}, "M_5093": {"note_status": 1, "channel": 9, "note": 42, "velocity": 0, "time": 0, "type": "NormalMsg"}, "M_5094": {"note_status": 1, "channel": 9, "note": 42, "velocity": 45, "time": 0, "type": "NormalMsg"}, "M_5095": {"note_status": 1, "channel": 9, "note": 42, "velocity": 0, "time": 0, "type": "NormalMsg"}, "M_5096": {"note_status": 1, "channel": 9, "note": 35, "velocity": 112, "time": 0, "type": "NormalMsg"}, "M_5097": {"note_status": 1, "channel": 9, "note": 38, "velocity": 90, "time": 0, "type": "NormalMsg"}, "M_5098": {"note_status": 1, "channel": 9, "note": 42, "velocity": 58, "time": 0, "type": "NormalMsg"}, "M_5099": {"note_status": 1, "channel": 9, "note": 35, "velocity": 0, "time": 0, "type": "NormalMsg"}, "M_5100": {"note_status": 1, "channel": 9, "note": 38, "velocity": 0, "time": 0, "type": "NormalMsg"}, "M_5101": {"note_status": 1, "channel": 9, "note": 42, "velocity": 0, "time": 0, "type": "NormalMsg"}, "M_5102": {"note_status": 1, "channel": 9, "note": 42, "velocity": 45, "time": 0, "type": "NormalMsg"}, "M_5103": {"note_status": 1, "channel": 9, "note": 42, "velocity": 0, "time": 0, "type": "NormalMsg"}, "M_5104": {"note_status": 1, "channel": 9, "note": 42, "velocity": 45, "time": 0, "type": "NormalMsg"}, "M_5105": {"note_status": 1, "channel": 9, "note": 42, "velocity": 0, "time": 0, "type": "NormalMsg"}, "M_5106": {"note_status": 1, "channel": 9, "note": 35, "velocity": 112, "time": 0, "type": "NormalMsg"}, "M_5107": {"note_status": 1, "channel": 9, "note": 42, "velocity": 58, "time": 0, "type": "NormalMsg"}, "M_5108": {"note_status": 1, "channel": 9, "note": 35, "velocity": 0, "time": 0, "type": "NormalMsg"}, "M_5109": {"note_status": 1, "channel": 9, "note": 42, "velocity": 0, "time": 0, "type": "NormalMsg"}, "M_5110": {"note_status": 1, "channel": 9, "note": 42, "velocity": 58, "time": 0, "type": "NormalMsg"}, "M_5111": {"note_status": 1, "channel": 9, "note": 42, "velocity": 0, "time": 0, "type": "NormalMsg"}, "M_5112": {"note_status": 1, "channel": 9, "note": 42, "velocity": 58, "time": 0, "type": "NormalMsg"}, "M_5113": {"note_status": 1, "channel": 9, "note": 42, "velocity": 0, "time": 0, "type": "NormalMsg"}, "M_5114": {"note_status": 1, "channel": 9, "note": 35, "velocity": 112, "time": 0, "type": "NormalMsg"}, "M_5115": {"note_status": 1, "channel": 9, "note": 38, "velocity": 90, "time": 0, "type": "NormalMsg"}, "M_5116": {"note_status": 1, "channel": 9, "note": 42, "velocity": 58, "time": 0, "type": "NormalMsg"}, "M_5117": {"note_status": 1, "channel": 9, "note": 35, "velocity": 0, "time": 0, "type": "NormalMsg"}, "M_5118": {"note_status": 1, "channel": 9, "note": 38, "velocity": 0, "time": 0, "type": "NormalMsg"}, "M_5119": {"note_status": 1, "channel": 9, "note": 42, "velocity": 0, "time": 0, "type": "NormalMsg"}, "M_5120": {"note_status": 1, "channel": 9, "note": 42, "velocity": 45, "time": 0, "type": "NormalMsg"}, "M_5121": {"note_status": 1, "channel": 9, "note": 42, "velocity": 0, "time": 0, "type": "NormalMsg"}, "M_5122": {"note_status": 1, "channel": 9, "note": 42, "velocity": 45, "time": 0, "type": "NormalMsg"}, "M_5123": {"note_status": 1, "channel": 9, "note": 42, "velocity": 0, "time": 0, "type": "NormalMsg"}, "M_5124": {"note_status": 1, "channel": 9, "note": 35, "velocity": 112, "time": 0, "type": "NormalMsg"}, "M_5125": {"note_status": 1, "channel": 9, "note": 42, "velocity": 58, "time": 0, "type": "NormalMsg"}, "M_5126": {"note_status": 1, "channel": 9, "note": 35, "velocity": 0, "time": 0, "type": "NormalMsg"}, "M_5127": {"note_status": 1, "channel": 9, "note": 42, "velocity": 0, "time": 0, "type": "NormalMsg"}, "M_5128": {"note_status": 1, "channel": 9, "note": 42, "velocity": 45, "time": 0, "type": "NormalMsg"}, "M_5129": {"note_status": 1, "channel": 9, "note": 42, "velocity": 0, "time": 0, "type": "NormalMsg"}, "M_5130": {"note_status": 1, "channel": 9, "note": 42, "velocity": 45, "time": 0, "type": "NormalMsg"}, "M_5131": {"note_status": 1, "channel": 9, "note": 42, "velocity": 0, "time": 0, "type": "NormalMsg"}, "M_5132": {"note_status": 1, "channel": 9, "note": 35, "velocity": 112, "time": 0, "type": "NormalMsg"}, "M_5133": {"note_status": 1, "channel": 9, "note": 38, "velocity": 90, "time": 0, "type": "NormalMsg"}, "M_5134": {"note_status": 1, "channel": 9, "note": 42, "velocity": 58, "time": 0, "type": "NormalMsg"}, "M_5135": {"note_status": 1, "channel": 9, "note": 35, "velocity": 0, "time": 0, "type": "NormalMsg"}, "M_5136": {"note_status": 1, "channel": 9, "note": 38, "velocity": 0, "time": 0, "type": "NormalMsg"}, "M_5137": {"note_status": 1, "channel": 9, "note": 42, "velocity": 0, "time": 0, "type": "NormalMsg"}, "M_5138": {"note_status": 1, "channel": 9, "note": 42, "velocity": 45, "time": 0, "type": "NormalMsg"}, "M_5139": {"note_status": 1, "channel": 9, "note": 42, "velocity": 0, "time": 0, "type": "NormalMsg"}, "M_5140": {"note_status": 1, "channel": 9, "note": 42, "velocity": 45, "time": 0, "type": "NormalMsg"}, "M_5141": {"note_status": 1, "channel": 9, "note": 42, "velocity": 0, "time": 0, "type": "NormalMsg"}, "M_5142": {"note_status": 1, "channel": 9, "note": 35, "velocity": 112, "time": 0, "type": "NormalMsg"}, "M_5143": {"note_status": 1, "channel": 9, "note": 42, "velocity": 58, "time": 0, "type": "NormalMsg"}, "M_5144": {"note_status": 1, "channel": 9, "note": 35, "velocity": 0, "time": 0, "type": "NormalMsg"}, "M_5145": {"note_status": 1, "channel": 9, "note": 42, "velocity": 0, "time": 0, "type": "NormalMsg"}, "M_5146": {"note_status": 1, "channel": 9, "note": 42, "velocity": 52, "time": 0, "type": "NormalMsg"}, "M_5147": {"note_status": 1, "channel": 9, "note": 42, "velocity": 0, "time": 0, "type": "NormalMsg"}, "M_5148": {"note_status": 1, "channel": 9, "note": 42, "velocity": 58, "time": 0, "type": "NormalMsg"}, "M_5149": {"note_status": 1, "channel": 9, "note": 42, "velocity": 0, "time": 0, "type": "NormalMsg"}, "M_5150": {"note_status": 1, "channel": 9, "note": 42, "velocity": 58, "time": 0, "type": "NormalMsg"}, "M_5151": {"note_status": 1, "channel": 9, "note": 42, "velocity": 0, "time": 0, "type": "NormalMsg"}, "M_5152": {"note_status": 1, "channel": 9, "note": 35, "velocity": 112, "time": 0, "type": "NormalMsg"}, "M_5153": {"note_status": 1, "channel": 9, "note": 38, "velocity": 90, "time": 0, "type": "NormalMsg"}, "M_5154": {"note_status": 1, "channel": 9, "note": 42, "velocity": 58, "time": 0, "type": "NormalMsg"}, "M_5155": {"note_status": 1, "channel": 9, "note": 35, "velocity": 0, "time": 0, "type": "NormalMsg"}, "M_5156": {"note_status": 1, "channel": 9, "note": 38, "velocity": 0, "time": 0, "type": "NormalMsg"}, "M_5157": {"note_status": 1, "channel": 9, "note": 42, "velocity": 0, "time": 0, "type": "NormalMsg"}, "M_5158": {"note_status": 1, "channel": 9, "note": 42, "velocity": 45, "time": 0, "type": "NormalMsg"}, "M_5159": {"note_status": 1, "channel": 9, "note": 42, "velocity": 0, "time": 0, "type": "NormalMsg"}, "M_5160": {"note_status": 1, "channel": 9, "note": 42, "velocity": 45, "time": 0, "type": "NormalMsg"}, "M_5161": {"note_status": 1, "channel": 9, "note": 42, "velocity": 0, "time": 0, "type": "NormalMsg"}, "M_5162": {"note_status": 1, "channel": 9, "note": 35, "velocity": 112, "time": 0, "type": "NormalMsg"}, "M_5163": {"note_status": 1, "channel": 9, "note": 42, "velocity": 58, "time": 0, "type": "NormalMsg"}, "M_5164": {"note_status": 1, "channel": 9, "note": 35, "velocity": 0, "time": 0, "type": "NormalMsg"}, "M_5165": {"note_status": 1, "channel": 9, "note": 42, "velocity": 0, "time": 0, "type": "NormalMsg"}, "M_5166": {"note_status": 1, "channel": 9, "note": 42, "velocity": 45, "time": 0, "type": "NormalMsg"}, "M_5167": {"note_status": 1, "channel": 9, "note": 42, "velocity": 0, "time": 0, "type": "NormalMsg"}, "M_5168": {"note_status": 1, "channel": 9, "note": 42, "velocity": 45, "time": 0, "type": "NormalMsg"}, "M_5169": {"note_status": 1, "channel": 9, "note": 42, "velocity": 0, "time": 0, "type": "NormalMsg"}, "M_5170": {"note_status": 1, "channel": 9, "note": 35, "velocity": 112, "time": 0, "type": "NormalMsg"}, "M_5171": {"note_status": 1, "channel": 9, "note": 38, "velocity": 90, "time": 0, "type": "NormalMsg"}, "M_5172": {"note_status": 1, "channel": 9, "note": 42, "velocity": 58, "time": 0, "type": "NormalMsg"}, "M_5173": {"note_status": 1, "channel": 9, "note": 35, "velocity": 0, "time": 0, "type": "NormalMsg"}, "M_5174": {"note_status": 1, "channel": 9, "note": 38, "velocity": 0, "time": 0, "type": "NormalMsg"}, "M_5175": {"note_status": 1, "channel": 9, "note": 42, "velocity": 0, "time": 0, "type": "NormalMsg"}, "M_5176": {"note_status": 1, "channel": 9, "note": 42, "velocity": 45, "time": 0, "type": "NormalMsg"}, "M_5177": {"note_status": 1, "channel": 9, "note": 42, "velocity": 0, "time": 0, "type": "NormalMsg"}, "M_5178": {"note_status": 1, "channel": 9, "note": 42, "velocity": 45, "time": 0, "type": "NormalMsg"}, "M_5179": {"note_status": 1, "channel": 9, "note": 42, "velocity": 0, "time": 0, "type": "NormalMsg"}, "M_5180": {"note_status": 1, "channel": 9, "note": 35, "velocity": 112, "time": 0, "type": "NormalMsg"}, "M_5181": {"note_status": 1, "channel": 9, "note": 38, "velocity": 90, "time": 0, "type": "NormalMsg"}, "M_5182": {"note_status": 1, "channel": 9, "note": 42, "velocity": 58, "time": 0, "type": "NormalMsg"}, "M_5183": {"note_status": 1, "channel": 9, "note": 35, "velocity": 0, "time": 0, "type": "NormalMsg"}, "M_5184": {"note_status": 1, "channel": 9, "note": 38, "velocity": 0, "time": 0, "type": "NormalMsg"}, "M_5185": {"note_status": 1, "channel": 9, "note": 42, "velocity": 0, "time": 0, "type": "NormalMsg"}, "M_5186": {"note_status": 1, "channel": 9, "note": 42, "velocity": 52, "time": 0, "type": "NormalMsg"}, "M_5187": {"note_status": 1, "channel": 9, "note": 42, "velocity": 0, "time": 0, "type": "NormalMsg"}, "M_5188": {"note_status": 1, "channel": 9, "note": 35, "velocity": 112, "time": 0, "type": "NormalMsg"}, "M_5189": {"note_status": 1, "channel": 9, "note": 38, "velocity": 90, "time": 0, "type": "NormalMsg"}, "M_5190": {"note_status": 1, "channel": 9, "note": 42, "velocity": 58, "time": 0, "type": "NormalMsg"}, "M_5191": {"note_status": 1, "channel": 9, "note": 35, "velocity": 0, "time": 0, "type": "NormalMsg"}, "M_5192": {"note_status": 1, "channel": 9, "note": 38, "velocity": 0, "time": 0, "type": "NormalMsg"}, "M_5193": {"note_status": 1, "channel": 9, "note": 42, "velocity": 0, "time": 0, "type": "NormalMsg"}, "M_5194": {"note_status": 1, "channel": 9, "note": 42, "velocity": 58, "time": 0, "type": "NormalMsg"}, "M_5195": {"note_status": 1, "channel": 9, "note": 42, "velocity": 0, "time": 0, "type": "NormalMsg"}, "M_5196": {"note_status": 1, "channel": 9, "note": 35, "velocity": 112, "time": 0, "type": "NormalMsg"}, "M_5197": {"note_status": 1, "channel": 9, "note": 38, "velocity": 90, "time": 0, "type": "NormalMsg"}, "M_5198": {"note_status": 1, "channel": 9, "note": 42, "velocity": 58, "time": 0, "type": "NormalMsg"}, "M_5199": {"note_status": 1, "channel": 9, "note": 35, "velocity": 0, "time": 0, "type": "NormalMsg"}, "M_5200": {"note_status": 1, "channel": 9, "note": 38, "velocity": 0, "time": 0, "type": "NormalMsg"}, "M_5201": {"note_status": 1, "channel": 9, "note": 42, "velocity": 0, "time": 0, "type": "NormalMsg"}, "M_5202": {"note_status": 1, "channel": 9, "note": 35, "velocity": 112, "time": 0, "type": "NormalMsg"}, "M_5203": {"note_status": 1, "channel": 9, "note": 38, "velocity": 90, "time": 0, "type": "NormalMsg"}, "M_5204": {"note_status": 1, "channel": 9, "note": 42, "velocity": 45, "time": 0, "type": "NormalMsg"}, "M_5205": {"note_status": 1, "channel": 9, "note": 35, "velocity": 0, "time": 0, "type": "NormalMsg"}, "M_5206": {"note_status": 1, "channel": 9, "note": 38, "velocity": 0, "time": 0, "type": "NormalMsg"}, "M_5207": {"note_status": 1, "channel": 9, "note": 42, "velocity": 0, "time": 0, "type": "NormalMsg"}, "M_5208": {"note_status": 1, "channel": 9, "note": 42, "velocity": 45, "time": 0, "type": "NormalMsg"}, "M_5209": {"note_status": 1, "channel": 9, "note": 42, "velocity": 0, "time": 0, "type": "NormalMsg"}, "M_5210": {"note_status": 1, "channel": 9, "note": 35, "velocity": 112, "time": 0, "type": "NormalMsg"}, "M_5211": {"note_status": 1, "channel": 9, "note": 42, "velocity": 58, "time": 0, "type": "NormalMsg"}, "M_5212": {"note_status": 1, "channel": 9, "note": 35, "velocity": 0, "time": 0, "type": "NormalMsg"}, "M_5213": {"note_status": 1, "channel": 9, "note": 42, "velocity": 0, "time": 0, "type": "NormalMsg"}, "M_5214": {"note_status": 1, "channel": 9, "note": 42, "velocity": 45, "time": 0, "type": "NormalMsg"}, "M_5215": {"note_status": 1, "channel": 9, "note": 42, "velocity": 0, "time": 0, "type": "NormalMsg"}, "M_5216": {"note_status": 1, "channel": 9, "note": 42, "velocity": 45, "time": 0, "type": "NormalMsg"}, "M_5217": {"note_status": 1, "channel": 9, "note": 42, "velocity": 0, "time": 0, "type": "NormalMsg"}, "M_5218": {"note_status": 1, "channel": 9, "note": 28, "velocity": 127, "time": 0, "type": "NormalMsg"}, "M_5219": {"note_status": 1, "channel": 9, "note": 35, "velocity": 112, "time": 0, "type": "NormalMsg"}, "M_5220": {"note_status": 1, "channel": 9, "note": 38, "velocity": 90, "time": 0, "type": "NormalMsg"}, "M_5221": {"note_status": 1, "channel": 9, "note": 42, "velocity": 58, "time": 0, "type": "NormalMsg"}, "M_5222": {"note_status": 1, "channel": 9, "note": 49, "velocity": 103, "time": 0, "type": "NormalMsg"}, "M_5223": {"note_status": 1, "channel": 9, "note": 28, "velocity": 0, "time": 0, "type": "NormalMsg"}, "M_5224": {"note_status": 1, "channel": 9, "note": 35, "velocity": 0, "time": 0, "type": "NormalMsg"}, "M_5225": {"note_status": 1, "channel": 9, "note": 38, "velocity": 0, "time": 0, "type": "NormalMsg"}, "M_5226": {"note_status": 1, "channel": 9, "note": 42, "velocity": 0, "time": 0, "type": "NormalMsg"}, "M_5227": {"note_status": 1, "channel": 9, "note": 49, "velocity": 0, "time": 0, "type": "NormalMsg"}, "M_5228": {"note_status": 1, "channel": 9, "note": 42, "velocity": 45, "time": 0, "type": "NormalMsg"}, "M_5229": {"note_status": 1, "channel": 9, "note": 42, "velocity": 0, "time": 0, "type": "NormalMsg"}, "M_5230": {"note_status": 1, "channel": 9, "note": 42, "velocity": 45, "time": 0, "type": "NormalMsg"}, "M_5231": {"note_status": 1, "channel": 9, "note": 42, "velocity": 0, "time": 0, "type": "NormalMsg"}, "M_5232": {"note_status": 1, "channel": 9, "note": 35, "velocity": 112, "time": 0, "type": "NormalMsg"}, "M_5233": {"note_status": 1, "channel": 9, "note": 42, "velocity": 58, "time": 0, "type": "NormalMsg"}, "M_5234": {"note_status": 1, "channel": 9, "note": 35, "velocity": 0, "time": 0, "type": "NormalMsg"}, "M_5235": {"note_status": 1, "channel": 9, "note": 42, "velocity": 0, "time": 0, "type": "NormalMsg"}, "M_5236": {"note_status": 1, "channel": 9, "note": 42, "velocity": 52, "time": 0, "type": "NormalMsg"}, "M_5237": {"note_status": 1, "channel": 9, "note": 42, "velocity": 0, "time": 0, "type": "NormalMsg"}, "M_5238": {"note_status": 1, "channel": 9, "note": 42, "velocity": 58, "time": 0, "type": "NormalMsg"}, "M_5239": {"note_status": 1, "channel": 9, "note": 42, "velocity": 0, "time": 0, "type": "NormalMsg"}, "M_5240": {"note_status": 1, "channel": 9, "note": 42, "velocity": 58, "time": 0, "type": "NormalMsg"}, "M_5241": {"note_status": 1, "channel": 9, "note": 42, "velocity": 0, "time": 0, "type": "NormalMsg"}, "M_5242": {"note_status": 1, "channel": 9, "note": 35, "velocity": 112, "time": 0, "type": "NormalMsg"}, "M_5243": {"note_status": 1, "channel": 9, "note": 38, "velocity": 90, "time": 0, "type": "NormalMsg"}, "M_5244": {"note_status": 1, "channel": 9, "note": 42, "velocity": 58, "time": 0, "type": "NormalMsg"}, "M_5245": {"note_status": 1, "channel": 9, "note": 35, "velocity": 0, "time": 0, "type": "NormalMsg"}, "M_5246": {"note_status": 1, "channel": 9, "note": 38, "velocity": 0, "time": 0, "type": "NormalMsg"}, "M_5247": {"note_status": 1, "channel": 9, "note": 42, "velocity": 0, "time": 0, "type": "NormalMsg"}, "M_5248": {"note_status": 1, "channel": 9, "note": 42, "velocity": 45, "time": 0, "type": "NormalMsg"}, "M_5249": {"note_status": 1, "channel": 9, "note": 42, "velocity": 0, "time": 0, "type": "NormalMsg"}, "M_5250": {"note_status": 1, "channel": 9, "note": 42, "velocity": 45, "time": 0, "type": "NormalMsg"}, "M_5251": {"note_status": 1, "channel": 9, "note": 42, "velocity": 0, "time": 0, "type": "NormalMsg"}, "M_5252": {"note_status": 1, "channel": 9, "note": 35, "velocity": 112, "time": 0, "type": "NormalMsg"}, "M_5253": {"note_status": 1, "channel": 9, "note": 42, "velocity": 58, "time": 0, "type": "NormalMsg"}, "M_5254": {"note_status": 1, "channel": 9, "note": 35, "velocity": 0, "time": 0, "type": "NormalMsg"}, "M_5255": {"note_status": 1, "channel": 9, "note": 42, "velocity": 0, "time": 0, "type": "NormalMsg"}, "M_5256": {"note_status": 1, "channel": 9, "note": 42, "velocity": 45, "time": 0, "type": "NormalMsg"}, "M_5257": {"note_status": 1, "channel": 9, "note": 42, "velocity": 0, "time": 0, "type": "NormalMsg"}, "M_5258": {"note_status": 1, "channel": 9, "note": 42, "velocity": 45, "time": 0, "type": "NormalMsg"}, "M_5259": {"note_status": 1, "channel": 9, "note": 42, "velocity": 0, "time": 0, "type": "NormalMsg"}, "M_5260": {"note_status": 1, "channel": 9, "note": 35, "velocity": 112, "time": 0, "type": "NormalMsg"}, "M_5261": {"note_status": 1, "channel": 9, "note": 38, "velocity": 90, "time": 0, "type": "NormalMsg"}, "M_5262": {"note_status": 1, "channel": 9, "note": 42, "velocity": 58, "time": 0, "type": "NormalMsg"}, "M_5263": {"note_status": 1, "channel": 9, "note": 35, "velocity": 0, "time": 0, "type": "NormalMsg"}, "M_5264": {"note_status": 1, "channel": 9, "note": 38, "velocity": 0, "time": 0, "type": "NormalMsg"}, "M_5265": {"note_status": 1, "channel": 9, "note": 42, "velocity": 0, "time": 0, "type": "NormalMsg"}, "M_5266": {"note_status": 1, "channel": 9, "note": 42, "velocity": 45, "time": 0, "type": "NormalMsg"}, "M_5267": {"note_status": 1, "channel": 9, "note": 42, "velocity": 0, "time": 0, "type": "NormalMsg"}, "M_5268": {"note_status": 1, "channel": 9, "note": 42, "velocity": 45, "time": 0, "type": "NormalMsg"}, "M_5269": {"note_status": 1, "channel": 9, "note": 42, "velocity": 0, "time": 0, "type": "NormalMsg"}, "M_5270": {"note_status": 1, "channel": 9, "note": 35, "velocity": 112, "time": 0, "type": "NormalMsg"}, "M_5271": {"note_status": 1, "channel": 9, "note": 42, "velocity": 58, "time": 0, "type": "NormalMsg"}, "M_5272": {"note_status": 1, "channel": 9, "note": 35, "velocity": 0, "time": 0, "type": "NormalMsg"}, "M_5273": {"note_status": 1, "channel": 9, "note": 42, "velocity": 0, "time": 0, "type": "NormalMsg"}, "M_5274": {"note_status": 1, "channel": 9, "note": 42, "velocity": 33, "time": 0, "type": "NormalMsg"}, "M_5275": {"note_status": 1, "channel": 9, "note": 42, "velocity": 0, "time": 0, "type": "NormalMsg"}, "M_5276": {"note_status": 1, "channel": 9, "note": 42, "velocity": 58, "time": 0, "type": "NormalMsg"}, "M_5277": {"note_status": 1, "channel": 9, "note": 42, "velocity": 0, "time": 0, "type": "NormalMsg"}, "M_5278": {"note_status": 1, "channel": 9, "note": 42, "velocity": 58, "time": 0, "type": "NormalMsg"}, "M_5279": {"note_status": 1, "channel": 9, "note": 42, "velocity": 0, "time": 0, "type": "NormalMsg"}, "M_5280": {"note_status": 1, "channel": 9, "note": 35, "velocity": 112, "time": 0, "type": "NormalMsg"}, "M_5281": {"note_status": 1, "channel": 9, "note": 38, "velocity": 90, "time": 0, "type": "NormalMsg"}, "M_5282": {"note_status": 1, "channel": 9, "note": 42, "velocity": 58, "time": 0, "type": "NormalMsg"}, "M_5283": {"note_status": 1, "channel": 9, "note": 35, "velocity": 0, "time": 0, "type": "NormalMsg"}, "M_5284": {"note_status": 1, "channel": 9, "note": 38, "velocity": 0, "time": 0, "type": "NormalMsg"}, "M_5285": {"note_status": 1, "channel": 9, "note": 42, "velocity": 0, "time": 0, "type": "NormalMsg"}, "M_5286": {"note_status": 1, "channel": 9, "note": 42, "velocity": 45, "time": 0, "type": "NormalMsg"}, "M_5287": {"note_status": 1, "channel": 9, "note": 42, "velocity": 0, "time": 0, "type": "NormalMsg"}, "M_5288": {"note_status": 1, "channel": 9, "note": 42, "velocity": 45, "time": 0, "type": "NormalMsg"}, "M_5289": {"note_status": 1, "channel": 9, "note": 42, "velocity": 0, "time": 0, "type": "NormalMsg"}, "M_5290": {"note_status": 1, "channel": 9, "note": 35, "velocity": 112, "time": 0, "type": "NormalMsg"}, "M_5291": {"note_status": 1, "channel": 9, "note": 42, "velocity": 58, "time": 0, "type": "NormalMsg"}, "M_5292": {"note_status": 1, "channel": 9, "note": 35, "velocity": 0, "time": 0, "type": "NormalMsg"}, "M_5293": {"note_status": 1, "channel": 9, "note": 42, "velocity": 0, "time": 0, "type": "NormalMsg"}, "M_5294": {"note_status": 1, "channel": 9, "note": 42, "velocity": 45, "time": 0, "type": "NormalMsg"}, "M_5295": {"note_status": 1, "channel": 9, "note": 42, "velocity": 0, "time": 0, "type": "NormalMsg"}, "M_5296": {"note_status": 1, "channel": 9, "note": 42, "velocity": 45, "time": 0, "type": "NormalMsg"}, "M_5297": {"note_status": 1, "channel": 9, "note": 42, "velocity": 0, "time": 0, "type": "NormalMsg"}, "M_5298": {"note_status": 1, "channel": 9, "note": 35, "velocity": 112, "time": 0, "type": "NormalMsg"}, "M_5299": {"note_status": 1, "channel": 9, "note": 38, "velocity": 90, "time": 0, "type": "NormalMsg"}, "M_5300": {"note_status": 1, "channel": 9, "note": 42, "velocity": 58, "time": 0, "type": "NormalMsg"}, "M_5301": {"note_status": 1, "channel": 9, "note": 35, "velocity": 0, "time": 0, "type": "NormalMsg"}, "M_5302": {"note_status": 1, "channel": 9, "note": 38, "velocity": 0, "time": 0, "type": "NormalMsg"}, "M_5303": {"note_status": 1, "channel": 9, "note": 42, "velocity": 0, "time": 0, "type": "NormalMsg"}, "M_5304": {"note_status": 1, "channel": 9, "note": 42, "velocity": 45, "time": 0, "type": "NormalMsg"}, "M_5305": {"note_status": 1, "channel": 9, "note": 42, "velocity": 0, "time": 0, "type": "NormalMsg"}, "M_5306": {"note_status": 1, "channel": 9, "note": 42, "velocity": 45, "time": 0, "type": "NormalMsg"}, "M_5307": {"note_status": 1, "channel": 9, "note": 42, "velocity": 0, "time": 0, "type": "NormalMsg"}, "M_5308": {"note_status": 1, "channel": 9, "note": 35, "velocity": 112, "time": 0, "type": "NormalMsg"}, "M_5309": {"note_status": 1, "channel": 9, "note": 42, "velocity": 58, "time": 0, "type": "NormalMsg"}, "M_5310": {"note_status": 1, "channel": 9, "note": 35, "velocity": 0, "time": 0, "type": "NormalMsg"}, "M_5311": {"note_status": 1, "channel": 9, "note": 42, "velocity": 0, "time": 0, "type": "NormalMsg"}, "M_5312": {"note_status": 1, "channel": 9, "note": 42, "velocity": 52, "time": 0, "type": "NormalMsg"}, "M_5313": {"note_status": 1, "channel": 9, "note": 42, "velocity": 0, "time": 0, "type": "NormalMsg"}, "M_5314": {"note_status": 1, "channel": 9, "note": 42, "velocity": 58, "time": 0, "type": "NormalMsg"}, "M_5315": {"note_status": 1, "channel": 9, "note": 42, "velocity": 0, "time": 0, "type": "NormalMsg"}, "M_5316": {"note_status": 1, "channel": 9, "note": 42, "velocity": 58, "time": 0, "type": "NormalMsg"}, "M_5317": {"note_status": 1, "channel": 9, "note": 42, "velocity": 0, "time": 0, "type": "NormalMsg"}, "M_5318": {"note_status": 1, "channel": 9, "note": 35, "velocity": 112, "time": 0, "type": "NormalMsg"}, "M_5319": {"note_status": 1, "channel": 9, "note": 38, "velocity": 90, "time": 0, "type": "NormalMsg"}, "M_5320": {"note_status": 1, "channel": 9, "note": 42, "velocity": 58, "time": 0, "type": "NormalMsg"}, "M_5321": {"note_status": 1, "channel": 9, "note": 35, "velocity": 0, "time": 0, "type": "NormalMsg"}, "M_5322": {"note_status": 1, "channel": 9, "note": 38, "velocity": 0, "time": 0, "type": "NormalMsg"}, "M_5323": {"note_status": 1, "channel": 9, "note": 42, "velocity": 0, "time": 0, "type": "NormalMsg"}, "M_5324": {"note_status": 1, "channel": 9, "note": 42, "velocity": 45, "time": 0, "type": "NormalMsg"}, "M_5325": {"note_status": 1, "channel": 9, "note": 42, "velocity": 0, "time": 0, "type": "NormalMsg"}, "M_5326": {"note_status": 1, "channel": 9, "note": 42, "velocity": 45, "time": 0, "type": "NormalMsg"}, "M_5327": {"note_status": 1, "channel": 9, "note": 42, "velocity": 0, "time": 0, "type": "NormalMsg"}, "M_5328": {"note_status": 1, "channel": 9, "note": 35, "velocity": 112, "time": 0, "type": "NormalMsg"}, "M_5329": {"note_status": 1, "channel": 9, "note": 42, "velocity": 58, "time": 0, "type": "NormalMsg"}, "M_5330": {"note_status": 1, "channel": 9, "note": 35, "velocity": 0, "time": 0, "type": "NormalMsg"}, "M_5331": {"note_status": 1, "channel": 9, "note": 42, "velocity": 0, "time": 0, "type": "NormalMsg"}, "M_5332": {"note_status": 1, "channel": 9, "note": 42, "velocity": 45, "time": 0, "type": "NormalMsg"}, "M_5333": {"note_status": 1, "channel": 9, "note": 42, "velocity": 0, "time": 0, "type": "NormalMsg"}, "M_5334": {"note_status": 1, "channel": 9, "note": 42, "velocity": 45, "time": 0, "type": "NormalMsg"}, "M_5335": {"note_status": 1, "channel": 9, "note": 42, "velocity": 0, "time": 0, "type": "NormalMsg"}, "M_5336": {"note_status": 1, "channel": 9, "note": 35, "velocity": 112, "time": 0, "type": "NormalMsg"}, "M_5337": {"note_status": 1, "channel": 9, "note": 38, "velocity": 90, "time": 0, "type": "NormalMsg"}, "M_5338": {"note_status": 1, "channel": 9, "note": 42, "velocity": 58, "time": 0, "type": "NormalMsg"}, "M_5339": {"note_status": 1, "channel": 9, "note": 35, "velocity": 0, "time": 0, "type": "NormalMsg"}, "M_5340": {"note_status": 1, "channel": 9, "note": 38, "velocity": 0, "time": 0, "type": "NormalMsg"}, "M_5341": {"note_status": 1, "channel": 9, "note": 42, "velocity": 0, "time": 0, "type": "NormalMsg"}, "M_5342": {"note_status": 1, "channel": 9, "note": 42, "velocity": 45, "time": 0, "type": "NormalMsg"}, "M_5343": {"note_status": 1, "channel": 9, "note": 42, "velocity": 0, "time": 0, "type": "NormalMsg"}, "M_5344": {"note_status": 1, "channel": 9, "note": 42, "velocity": 45, "time": 0, "type": "NormalMsg"}, "M_5345": {"note_status": 1, "channel": 9, "note": 42, "velocity": 0, "time": 0, "type": "NormalMsg"}, "M_5346": {"note_status": 1, "channel": 9, "note": 35, "velocity": 112, "time": 0, "type": "NormalMsg"}, "M_5347": {"note_status": 1, "channel": 9, "note": 42, "velocity": 58, "time": 0, "type": "NormalMsg"}, "M_5348": {"note_status": 1, "channel": 9, "note": 35, "velocity": 0, "time": 0, "type": "NormalMsg"}, "M_5349": {"note_status": 1, "channel": 9, "note": 42, "velocity": 0, "time": 0, "type": "NormalMsg"}, "M_5350": {"note_status": 1, "channel": 9, "note": 42, "velocity": 45, "time": 0, "type": "NormalMsg"}, "M_5351": {"note_status": 1, "channel": 9, "note": 42, "velocity": 0, "time": 0, "type": "NormalMsg"}, "M_5352": {"note_status": 1, "channel": 9, "note": 42, "velocity": 45, "time": 0, "type": "NormalMsg"}, "M_5353": {"note_status": 1, "channel": 9, "note": 42, "velocity": 0, "time": 0, "type": "NormalMsg"}, "M_5354": {"note_status": 1, "channel": 9, "note": 28, "velocity": 127, "time": 0, "type": "NormalMsg"}, "M_5355": {"note_status": 1, "channel": 9, "note": 35, "velocity": 112, "time": 0, "type": "NormalMsg"}, "M_5356": {"note_status": 1, "channel": 9, "note": 38, "velocity": 90, "time": 0, "type": "NormalMsg"}, "M_5357": {"note_status": 1, "channel": 9, "note": 42, "velocity": 58, "time": 0, "type": "NormalMsg"}, "M_5358": {"note_status": 1, "channel": 9, "note": 49, "velocity": 103, "time": 0, "type": "NormalMsg"}, "M_5359": {"note_status": 1, "channel": 9, "note": 28, "velocity": 0, "time": 0, "type": "NormalMsg"}, "M_5360": {"note_status": 1, "channel": 9, "note": 35, "velocity": 0, "time": 0, "type": "NormalMsg"}, "M_5361": {"note_status": 1, "channel": 9, "note": 38, "velocity": 0, "time": 0, "type": "NormalMsg"}, "M_5362": {"note_status": 1, "channel": 9, "note": 42, "velocity": 0, "time": 0, "type": "NormalMsg"}, "M_5363": {"note_status": 1, "channel": 9, "note": 49, "velocity": 0, "time": 0, "type": "NormalMsg"}, "M_5364": {"note_status": 1, "channel": 9, "note": 42, "velocity": 45, "time": 0, "type": "NormalMsg"}, "M_5365": {"note_status": 1, "channel": 9, "note": 42, "velocity": 0, "time": 0, "type": "NormalMsg"}, "M_5366": {"note_status": 1, "channel": 9, "note": 42, "velocity": 45, "time": 0, "type": "NormalMsg"}, "M_5367": {"note_status": 1, "channel": 9, "note": 42, "velocity": 0, "time": 0, "type": "NormalMsg"}, "M_5368": {"note_status": 1, "channel": 9, "note": 35, "velocity": 112, "time": 0, "type": "NormalMsg"}, "M_5369": {"note_status": 1, "channel": 9, "note": 42, "velocity": 58, "time": 0, "type": "NormalMsg"}, "M_5370": {"note_status": 1, "channel": 9, "note": 35, "velocity": 0, "time": 0, "type": "NormalMsg"}, "M_5371": {"note_status": 1, "channel": 9, "note": 42, "velocity": 0, "time": 0, "type": "NormalMsg"}, "M_5372": {"note_status": 1, "channel": 9, "note": 42, "velocity": 52, "time": 0, "type": "NormalMsg"}, "M_5373": {"note_status": 1, "channel": 9, "note": 42, "velocity": 0, "time": 0, "type": "NormalMsg"}, "M_5374": {"note_status": 1, "channel": 9, "note": 42, "velocity": 58, "time": 0, "type": "NormalMsg"}, "M_5375": {"note_status": 1, "channel": 9, "note": 42, "velocity": 0, "time": 0, "type": "NormalMsg"}, "M_5376": {"note_status": 1, "channel": 9, "note": 42, "velocity": 58, "time": 0, "type": "NormalMsg"}, "M_5377": {"note_status": 1, "channel": 9, "note": 42, "velocity": 0, "time": 0, "type": "NormalMsg"}, "M_5378": {"note_status": 1, "channel": 9, "note": 35, "velocity": 112, "time": 0, "type": "NormalMsg"}, "M_5379": {"note_status": 1, "channel": 9, "note": 38, "velocity": 90, "time": 0, "type": "NormalMsg"}, "M_5380": {"note_status": 1, "channel": 9, "note": 42, "velocity": 58, "time": 0, "type": "NormalMsg"}, "M_5381": {"note_status": 1, "channel": 9, "note": 35, "velocity": 0, "time": 0, "type": "NormalMsg"}, "M_5382": {"note_status": 1, "channel": 9, "note": 38, "velocity": 0, "time": 0, "type": "NormalMsg"}, "M_5383": {"note_status": 1, "channel": 9, "note": 42, "velocity": 0, "time": 0, "type": "NormalMsg"}, "M_5384": {"note_status": 1, "channel": 9, "note": 42, "velocity": 45, "time": 0, "type": "NormalMsg"}, "M_5385": {"note_status": 1, "channel": 9, "note": 42, "velocity": 0, "time": 0, "type": "NormalMsg"}, "M_5386": {"note_status": 1, "channel": 9, "note": 42, "velocity": 45, "time": 0, "type": "NormalMsg"}, "M_5387": {"note_status": 1, "channel": 9, "note": 42, "velocity": 0, "time": 0, "type": "NormalMsg"}, "M_5388": {"note_status": 1, "channel": 9, "note": 35, "velocity": 112, "time": 0, "type": "NormalMsg"}, "M_5389": {"note_status": 1, "channel": 9, "note": 42, "velocity": 58, "time": 0, "type": "NormalMsg"}, "M_5390": {"note_status": 1, "channel": 9, "note": 35, "velocity": 0, "time": 0, "type": "NormalMsg"}, "M_5391": {"note_status": 1, "channel": 9, "note": 42, "velocity": 0, "time": 0, "type": "NormalMsg"}, "M_5392": {"note_status": 1, "channel": 9, "note": 42, "velocity": 45, "time": 0, "type": "NormalMsg"}, "M_5393": {"note_status": 1, "channel": 9, "note": 42, "velocity": 0, "time": 0, "type": "NormalMsg"}, "M_5394": {"note_status": 1, "channel": 9, "note": 42, "velocity": 45, "time": 0, "type": "NormalMsg"}, "M_5395": {"note_status": 1, "channel": 9, "note": 42, "velocity": 0, "time": 0, "type": "NormalMsg"}, "M_5396": {"note_status": 1, "channel": 9, "note": 35, "velocity": 112, "time": 0, "type": "NormalMsg"}, "M_5397": {"note_status": 1, "channel": 9, "note": 38, "velocity": 90, "time": 0, "type": "NormalMsg"}, "M_5398": {"note_status": 1, "channel": 9, "note": 42, "velocity": 58, "time": 0, "type": "NormalMsg"}, "M_5399": {"note_status": 1, "channel": 9, "note": 35, "velocity": 0, "time": 0, "type": "NormalMsg"}, "M_5400": {"note_status": 1, "channel": 9, "note": 38, "velocity": 0, "time": 0, "type": "NormalMsg"}, "M_5401": {"note_status": 1, "channel": 9, "note": 42, "velocity": 0, "time": 0, "type": "NormalMsg"}, "M_5402": {"note_status": 1, "channel": 9, "note": 42, "velocity": 45, "time": 0, "type": "NormalMsg"}, "M_5403": {"note_status": 1, "channel": 9, "note": 42, "velocity": 0, "time": 0, "type": "NormalMsg"}, "M_5404": {"note_status": 1, "channel": 9, "note": 42, "velocity": 45, "time": 0, "type": "NormalMsg"}, "M_5405": {"note_status": 1, "channel": 9, "note": 42, "velocity": 0, "time": 0, "type": "NormalMsg"}, "M_5406": {"note_status": 1, "channel": 9, "note": 35, "velocity": 112, "time": 0, "type": "NormalMsg"}, "M_5407": {"note_status": 1, "channel": 9, "note": 42, "velocity": 58, "time": 0, "type": "NormalMsg"}, "M_5408": {"note_status": 1, "channel": 9, "note": 35, "velocity": 0, "time": 0, "type": "NormalMsg"}, "M_5409": {"note_status": 1, "channel": 9, "note": 42, "velocity": 0, "time": 0, "type": "NormalMsg"}, "M_5410": {"note_status": 1, "channel": 9, "note": 42, "velocity": 58, "time": 0, "type": "NormalMsg"}, "M_5411": {"note_status": 1, "channel": 9, "note": 42, "velocity": 0, "time": 0, "type": "NormalMsg"}, "M_5412": {"note_status": 1, "channel": 9, "note": 42, "velocity": 58, "time": 0, "type": "NormalMsg"}, "M_5413": {"note_status": 1, "channel": 9, "note": 42, "velocity": 0, "time": 0, "type": "NormalMsg"}, "M_5414": {"note_status": 1, "channel": 9, "note": 35, "velocity": 112, "time": 0, "type": "NormalMsg"}, "M_5415": {"note_status": 1, "channel": 9, "note": 38, "velocity": 90, "time": 0, "type": "NormalMsg"}, "M_5416": {"note_status": 1, "channel": 9, "note": 42, "velocity": 58, "time": 0, "type": "NormalMsg"}, "M_5417": {"note_status": 1, "channel": 9, "note": 35, "velocity": 0, "time": 0, "type": "NormalMsg"}, "M_5418": {"note_status": 1, "channel": 9, "note": 38, "velocity": 0, "time": 0, "type": "NormalMsg"}, "M_5419": {"note_status": 1, "channel": 9, "note": 42, "velocity": 0, "time": 0, "type": "NormalMsg"}, "M_5420": {"note_status": 1, "channel": 9, "note": 42, "velocity": 45, "time": 0, "type": "NormalMsg"}, "M_5421": {"note_status": 1, "channel": 9, "note": 42, "velocity": 0, "time": 0, "type": "NormalMsg"}, "M_5422": {"note_status": 1, "channel": 9, "note": 42, "velocity": 45, "time": 0, "type": "NormalMsg"}, "M_5423": {"note_status": 1, "channel": 9, "note": 42, "velocity": 0, "time": 0, "type": "NormalMsg"}, "M_5424": {"note_status": 1, "channel": 9, "note": 35, "velocity": 112, "time": 0, "type": "NormalMsg"}, "M_5425": {"note_status": 1, "channel": 9, "note": 42, "velocity": 58, "time": 0, "type": "NormalMsg"}, "M_5426": {"note_status": 1, "channel": 9, "note": 35, "velocity": 0, "time": 0, "type": "NormalMsg"}, "M_5427": {"note_status": 1, "channel": 9, "note": 42, "velocity": 0, "time": 0, "type": "NormalMsg"}, "M_5428": {"note_status": 1, "channel": 9, "note": 42, "velocity": 45, "time": 0, "type": "NormalMsg"}, "M_5429": {"note_status": 1, "channel": 9, "note": 42, "velocity": 0, "time": 0, "type": "NormalMsg"}, "M_5430": {"note_status": 1, "channel": 9, "note": 28, "velocity": 70, "time": 0, "type": "NormalMsg"}, "M_5431": {"note_status": 1, "channel": 9, "note": 35, "velocity": 112, "time": 0, "type": "NormalMsg"}, "M_5432": {"note_status": 1, "channel": 9, "note": 38, "velocity": 90, "time": 0, "type": "NormalMsg"}, "M_5433": {"note_status": 1, "channel": 9, "note": 42, "velocity": 58, "time": 0, "type": "NormalMsg"}, "M_5434": {"note_status": 1, "channel": 9, "note": 28, "velocity": 0, "time": 0, "type": "NormalMsg"}, "M_5435": {"note_status": 1, "channel": 9, "note": 35, "velocity": 0, "time": 0, "type": "NormalMsg"}, "M_5436": {"note_status": 1, "channel": 9, "note": 38, "velocity": 0, "time": 0, "type": "NormalMsg"}, "M_5437": {"note_status": 1, "channel": 9, "note": 42, "velocity": 0, "time": 0, "type": "NormalMsg"}, "M_5438": {"note_status": 1, "channel": 9, "note": 42, "velocity": 45, "time": 0, "type": "NormalMsg"}, "M_5439": {"note_status": 1, "channel": 9, "note": 42, "velocity": 0, "time": 0, "type": "NormalMsg"}, "M_5440": {"note_status": 1, "channel": 9, "note": 35, "velocity": 112, "time": 0, "type": "NormalMsg"}, "M_5441": {"note_status": 1, "channel": 9, "note": 42, "velocity": 58, "time": 0, "type": "NormalMsg"}, "M_5442": {"note_status": 1, "channel": 9, "note": 35, "velocity": 0, "time": 0, "type": "NormalMsg"}, "M_5443": {"note_status": 1, "channel": 9, "note": 42, "velocity": 0, "time": 0, "type": "NormalMsg"}, "M_5444": {"note_status": 1, "channel": 9, "note": 42, "velocity": 52, "time": 0, "type": "NormalMsg"}, "M_5445": {"note_status": 1, "channel": 9, "note": 42, "velocity": 0, "time": 0, "type": "NormalMsg"}, "M_5446": {"note_status": 1, "channel": 9, "note": 38, "velocity": 70, "time": 0, "type": "NormalMsg"}, "M_5447": {"note_status": 1, "channel": 9, "note": 42, "velocity": 58, "time": 0, "type": "NormalMsg"}, "M_5448": {"note_status": 1, "channel": 9, "note": 38, "velocity": 0, "time": 0, "type": "NormalMsg"}, "M_5449": {"note_status": 1, "channel": 9, "note": 42, "velocity": 0, "time": 0, "type": "NormalMsg"}, "M_5450": {"note_status": 1, "channel": 9, "note": 28, "velocity": 70, "time": 0, "type": "NormalMsg"}, "M_5451": {"note_status": 1, "channel": 9, "note": 35, "velocity": 112, "time": 0, "type": "NormalMsg"}, "M_5452": {"note_status": 1, "channel": 9, "note": 38, "velocity": 90, "time": 0, "type": "NormalMsg"}, "M_5453": {"note_status": 1, "channel": 9, "note": 42, "velocity": 58, "time": 0, "type": "NormalMsg"}, "M_5454": {"note_status": 1, "channel": 9, "note": 28, "velocity": 0, "time": 0, "type": "NormalMsg"}, "M_5455": {"note_status": 1, "channel": 9, "note": 35, "velocity": 0, "time": 0, "type": "NormalMsg"}, "M_5456": {"note_status": 1, "channel": 9, "note": 38, "velocity": 0, "time": 0, "type": "NormalMsg"}, "M_5457": {"note_status": 1, "channel": 9, "note": 42, "velocity": 0, "time": 0, "type": "NormalMsg"}, "M_5458": {"note_status": 1, "channel": 9, "note": 42, "velocity": 45, "time": 0, "type": "NormalMsg"}, "M_5459": {"note_status": 1, "channel": 9, "note": 42, "velocity": 0, "time": 0, "type": "NormalMsg"}, "M_5460": {"note_status": 1, "channel": 9, "note": 35, "velocity": 112, "time": 0, "type": "NormalMsg"}, "M_5461": {"note_status": 1, "channel": 9, "note": 42, "velocity": 58, "time": 0, "type": "NormalMsg"}, "M_5462": {"note_status": 1, "channel": 9, "note": 35, "velocity": 0, "time": 0, "type": "NormalMsg"}, "M_5463": {"note_status": 1, "channel": 9, "note": 42, "velocity": 0, "time": 0, "type": "NormalMsg"}, "M_5464": {"note_status": 1, "channel": 9, "note": 42, "velocity": 45, "time": 0, "type": "NormalMsg"}, "M_5465": {"note_status": 1, "channel": 9, "note": 42, "velocity": 0, "time": 0, "type": "NormalMsg"}, "M_5466": {"note_status": 1, "channel": 9, "note": 28, "velocity": 70, "time": 0, "type": "NormalMsg"}, "M_5467": {"note_status": 1, "channel": 9, "note": 35, "velocity": 112, "time": 0, "type": "NormalMsg"}, "M_5468": {"note_status": 1, "channel": 9, "note": 38, "velocity": 90, "time": 0, "type": "NormalMsg"}, "M_5469": {"note_status": 1, "channel": 9, "note": 42, "velocity": 58, "time": 0, "type": "NormalMsg"}, "M_5470": {"note_status": 1, "channel": 9, "note": 28, "velocity": 0, "time": 0, "type": "NormalMsg"}, "M_5471": {"note_status": 1, "channel": 9, "note": 35, "velocity": 0, "time": 0, "type": "NormalMsg"}, "M_5472": {"note_status": 1, "channel": 9, "note": 38, "velocity": 0, "time": 0, "type": "NormalMsg"}, "M_5473": {"note_status": 1, "channel": 9, "note": 42, "velocity": 0, "time": 0, "type": "NormalMsg"}, "M_5474": {"note_status": 1, "channel": 9, "note": 42, "velocity": 45, "time": 0, "type": "NormalMsg"}, "M_5475": {"note_status": 1, "channel": 9, "note": 42, "velocity": 0, "time": 0, "type": "NormalMsg"}, "M_5476": {"note_status": 1, "channel": 9, "note": 35, "velocity": 112, "time": 0, "type": "NormalMsg"}, "M_5477": {"note_status": 1, "channel": 9, "note": 42, "velocity": 58, "time": 0, "type": "NormalMsg"}, "M_5478": {"note_status": 1, "channel": 9, "note": 35, "velocity": 0, "time": 0, "type": "NormalMsg"}, "M_5479": {"note_status": 1, "channel": 9, "note": 42, "velocity": 0, "time": 0, "type": "NormalMsg"}, "M_5480": {"note_status": 1, "channel": 9, "note": 42, "velocity": 52, "time": 0, "type": "NormalMsg"}, "M_5481": {"note_status": 1, "channel": 9, "note": 42, "velocity": 0, "time": 0, "type": "NormalMsg"}, "M_5482": {"note_status": 1, "channel": 9, "note": 38, "velocity": 70, "time": 0, "type": "NormalMsg"}, "M_5483": {"note_status": 1, "channel": 9, "note": 42, "velocity": 58, "time": 0, "type": "NormalMsg"}, "M_5484": {"note_status": 1, "channel": 9, "note": 38, "velocity": 0, "time": 0, "type": "NormalMsg"}, "M_5485": {"note_status": 1, "channel": 9, "note": 42, "velocity": 0, "time": 0, "type": "NormalMsg"}, "M_5486": {"note_status": 1, "channel": 9, "note": 28, "velocity": 70, "time": 0, "type": "NormalMsg"}, "M_5487": {"note_status": 1, "channel": 9, "note": 35, "velocity": 112, "time": 0, "type": "NormalMsg"}, "M_5488": {"note_status": 1, "channel": 9, "note": 38, "velocity": 90, "time": 0, "type": "NormalMsg"}, "M_5489": {"note_status": 1, "channel": 9, "note": 42, "velocity": 58, "time": 0, "type": "NormalMsg"}, "M_5490": {"note_status": 1, "channel": 9, "note": 28, "velocity": 0, "time": 0, "type": "NormalMsg"}, "M_5491": {"note_status": 1, "channel": 9, "note": 35, "velocity": 0, "time": 0, "type": "NormalMsg"}, "M_5492": {"note_status": 1, "channel": 9, "note": 38, "velocity": 0, "time": 0, "type": "NormalMsg"}, "M_5493": {"note_status": 1, "channel": 9, "note": 42, "velocity": 0, "time": 0, "type": "NormalMsg"}, "M_5494": {"note_status": 1, "channel": 9, "note": 42, "velocity": 45, "time": 0, "type": "NormalMsg"}, "M_5495": {"note_status": 1, "channel": 9, "note": 42, "velocity": 0, "time": 0, "type": "NormalMsg"}, "M_5496": {"note_status": 1, "channel": 9, "note": 35, "velocity": 112, "time": 0, "type": "NormalMsg"}, "M_5497": {"note_status": 1, "channel": 9, "note": 42, "velocity": 58, "time": 0, "type": "NormalMsg"}, "M_5498": {"note_status": 1, "channel": 9, "note": 35, "velocity": 0, "time": 0, "type": "NormalMsg"}, "M_5499": {"note_status": 1, "channel": 9, "note": 42, "velocity": 0, "time": 0, "type": "NormalMsg"}, "M_5500": {"note_status": 1, "channel": 9, "note": 28, "velocity": 70, "time": 0, "type": "NormalMsg"}, "M_5501": {"note_status": 1, "channel": 9, "note": 38, "velocity": 90, "time": 0, "type": "NormalMsg"}, "M_5502": {"note_status": 1, "channel": 9, "note": 42, "velocity": 45, "time": 0, "type": "NormalMsg"}, "M_5503": {"note_status": 1, "channel": 9, "note": 28, "velocity": 0, "time": 0, "type": "NormalMsg"}, "M_5504": {"note_status": 1, "channel": 9, "note": 38, "velocity": 0, "time": 0, "type": "NormalMsg"}, "M_5505": {"note_status": 1, "channel": 9, "note": 42, "velocity": 0, "time": 0, "type": "NormalMsg"}, "M_5506": {"note_status": 1, "channel": 9, "note": 28, "velocity": 70, "time": 0, "type": "NormalMsg"}, "M_5507": {"note_status": 1, "channel": 9, "note": 35, "velocity": 112, "time": 0, "type": "NormalMsg"}, "M_5508": {"note_status": 1, "channel": 9, "note": 38, "velocity": 90, "time": 0, "type": "NormalMsg"}, "M_5509": {"note_status": 1, "channel": 9, "note": 42, "velocity": 58, "time": 0, "type": "NormalMsg"}, "M_5510": {"note_status": 1, "channel": 9, "note": 28, "velocity": 0, "time": 0, "type": "NormalMsg"}, "M_5511": {"note_status": 1, "channel": 9, "note": 35, "velocity": 0, "time": 0, "type": "NormalMsg"}, "M_5512": {"note_status": 1, "channel": 9, "note": 38, "velocity": 0, "time": 0, "type": "NormalMsg"}, "M_5513": {"note_status": 1, "channel": 9, "note": 42, "velocity": 0, "time": 0, "type": "NormalMsg"}, "M_5514": {"note_status": 1, "channel": 9, "note": 28, "velocity": 90, "time": 0, "type": "NormalMsg"}, "M_5515": {"note_status": 1, "channel": 9, "note": 38, "velocity": 90, "time": 0, "type": "NormalMsg"}, "M_5516": {"note_status": 1, "channel": 9, "note": 42, "velocity": 45, "time": 0, "type": "NormalMsg"}, "M_5517": {"note_status": 1, "channel": 9, "note": 28, "velocity": 0, "time": 0, "type": "NormalMsg"}, "M_5518": {"note_status": 1, "channel": 9, "note": 38, "velocity": 0, "time": 0, "type": "NormalMsg"}, "M_5519": {"note_status": 1, "channel": 9, "note": 42, "velocity": 0, "time": 0, "type": "NormalMsg"}, "M_5520": {"note_status": 1, "channel": 9, "note": 28, "velocity": 90, "time": 0, "type": "NormalMsg"}, "M_5521": {"note_status": 1, "channel": 9, "note": 35, "velocity": 112, "time": 0, "type": "NormalMsg"}, "M_5522": {"note_status": 1, "channel": 9, "note": 38, "velocity": 90, "time": 0, "type": "NormalMsg"}, "M_5523": {"note_status": 1, "channel": 9, "note": 42, "velocity": 58, "time": 0, "type": "NormalMsg"}, "M_5524": {"note_status": 1, "channel": 9, "note": 28, "velocity": 0, "time": 0, "type": "NormalMsg"}, "M_5525": {"note_status": 1, "channel": 9, "note": 35, "velocity": 0, "time": 0, "type": "NormalMsg"}, "M_5526": {"note_status": 1, "channel": 9, "note": 38, "velocity": 0, "time": 0, "type": "NormalMsg"}, "M_5527": {"note_status": 1, "channel": 9, "note": 42, "velocity": 0, "time": 0, "type": "NormalMsg"}, "M_5528": {"note_status": 1, "channel": 9, "note": 28, "velocity": 90, "time": 0, "type": "NormalMsg"}, "M_5529": {"note_status": 1, "channel": 9, "note": 38, "velocity": 90, "time": 0, "type": "NormalMsg"}, "M_5530": {"note_status": 1, "channel": 9, "note": 42, "velocity": 52, "time": 0, "type": "NormalMsg"}, "M_5531": {"note_status": 1, "channel": 9, "note": 28, "velocity": 0, "time": 0, "type": "NormalMsg"}, "M_5532": {"note_status": 1, "channel": 9, "note": 38, "velocity": 0, "time": 0, "type": "NormalMsg"}, "M_5533": {"note_status": 1, "channel": 9, "note": 42, "velocity": 0, "time": 0, "type": "NormalMsg"}, "M_5534": {"note_status": 1, "channel": 9, "note": 28, "velocity": 110, "time": 0, "type": "NormalMsg"}, "M_5535": {"note_status": 1, "channel": 9, "note": 35, "velocity": 112, "time": 0, "type": "NormalMsg"}, "M_5536": {"note_status": 1, "channel": 9, "note": 38, "velocity": 90, "time": 0, "type": "NormalMsg"}, "M_5537": {"note_status": 1, "channel": 9, "note": 42, "velocity": 58, "time": 0, "type": "NormalMsg"}, "M_5538": {"note_status": 1, "channel": 9, "note": 28, "velocity": 0, "time": 0, "type": "NormalMsg"}, "M_5539": {"note_status": 1, "channel": 9, "note": 35, "velocity": 0, "time": 0, "type": "NormalMsg"}, "M_5540": {"note_status": 1, "channel": 9, "note": 38, "velocity": 0, "time": 0, "type": "NormalMsg"}, "M_5541": {"note_status": 1, "channel": 9, "note": 42, "velocity": 0, "time": 0, "type": "NormalMsg"}, "M_5542": {"note_status": 1, "channel": 9, "note": 28, "velocity": 110, "time": 0, "type": "NormalMsg"}, "M_5543": {"note_status": 1, "channel": 9, "note": 38, "velocity": 90, "time": 0, "type": "NormalMsg"}, "M_5544": {"note_status": 1, "channel": 9, "note": 42, "velocity": 45, "time": 0, "type": "NormalMsg"}, "M_5545": {"note_status": 1, "channel": 9, "note": 28, "velocity": 0, "time": 0, "type": "NormalMsg"}, "M_5546": {"note_status": 1, "channel": 9, "note": 38, "velocity": 0, "time": 0, "type": "NormalMsg"}, "M_5547": {"note_status": 1, "channel": 9, "note": 42, "velocity": 0, "time": 0, "type": "NormalMsg"}, "M_5548": {"note_status": 1, "channel": 9, "note": 35, "velocity": 112, "time": 0, "type": "NormalMsg"}, "M_5549": {"note_status": 1, "channel": 9, "note": 42, "velocity": 58, "time": 0, "type": "NormalMsg"}, "M_5550": {"note_status": 1, "channel": 9, "note": 35, "velocity": 0, "time": 0, "type": "NormalMsg"}, "M_5551": {"note_status": 1, "channel": 9, "note": 42, "velocity": 0, "time": 0, "type": "NormalMsg"}, "M_5552": {"note_status": 1, "channel": 9, "note": 42, "velocity": 45, "time": 0, "type": "NormalMsg"}, "M_5553": {"note_status": 1, "channel": 9, "note": 42, "velocity": 0, "time": 0, "type": "NormalMsg"}, "M_5554": {"note_status": 1, "channel": 9, "note": 42, "velocity": 45, "time": 0, "type": "NormalMsg"}, "M_5555": {"note_status": 1, "channel": 9, "note": 42, "velocity": 0, "time": 0, "type": "NormalMsg"}, "M_5556": {"note_status": 1, "channel": 9, "note": 35, "velocity": 112, "time": 0, "type": "NormalMsg"}, "M_5557": {"note_status": 1, "channel": 9, "note": 38, "velocity": 90, "time": 0, "type": "NormalMsg"}, "M_5558": {"note_status": 1, "channel": 9, "note": 42, "velocity": 58, "time": 0, "type": "NormalMsg"}, "M_5559": {"note_status": 1, "channel": 9, "note": 35, "velocity": 0, "time": 0, "type": "NormalMsg"}, "M_5560": {"note_status": 1, "channel": 9, "note": 38, "velocity": 0, "time": 0, "type": "NormalMsg"}, "M_5561": {"note_status": 1, "channel": 9, "note": 42, "velocity": 0, "time": 0, "type": "NormalMsg"}, "M_5562": {"note_status": 1, "channel": 9, "note": 42, "velocity": 45, "time": 0, "type": "NormalMsg"}, "M_5563": {"note_status": 1, "channel": 9, "note": 42, "velocity": 0, "time": 0, "type": "NormalMsg"}, "M_5564": {"note_status": 1, "channel": 9, "note": 42, "velocity": 45, "time": 0, "type": "NormalMsg"}, "M_5565": {"note_status": 1, "channel": 9, "note": 42, "velocity": 0, "time": 0, "type": "NormalMsg"}, "M_5566": {"note_status": 1, "channel": 9, "note": 35, "velocity": 112, "time": 0, "type": "NormalMsg"}, "M_5567": {"note_status": 1, "channel": 9, "note": 42, "velocity": 58, "time": 0, "type": "NormalMsg"}, "M_5568": {"note_status": 1, "channel": 9, "note": 35, "velocity": 0, "time": 0, "type": "NormalMsg"}, "M_5569": {"note_status": 1, "channel": 9, "note": 42, "velocity": 0, "time": 0, "type": "NormalMsg"}, "M_5570": {"note_status": 1, "channel": 9, "note": 42, "velocity": 52, "time": 0, "type": "NormalMsg"}, "M_5571": {"note_status": 1, "channel": 9, "note": 42, "velocity": 0, "time": 0, "type": "NormalMsg"}, "M_5572": {"note_status": 1, "channel": 9, "note": 42, "velocity": 58, "time": 0, "type": "NormalMsg"}, "M_5573": {"note_status": 1, "channel": 9, "note": 42, "velocity": 0, "time": 0, "type": "NormalMsg"}, "M_5574": {"note_status": 1, "channel": 9, "note": 42, "velocity": 58, "time": 0, "type": "NormalMsg"}, "M_5575": {"note_status": 1, "channel": 9, "note": 42, "velocity": 0, "time": 0, "type": "NormalMsg"}, "M_5576": {"note_status": 1, "channel": 9, "note": 35, "velocity": 112, "time": 0, "type": "NormalMsg"}, "M_5577": {"note_status": 1, "channel": 9, "note": 38, "velocity": 90, "time": 0, "type": "NormalMsg"}, "M_5578": {"note_status": 1, "channel": 9, "note": 42, "velocity": 58, "time": 0, "type": "NormalMsg"}, "M_5579": {"note_status": 1, "channel": 9, "note": 35, "velocity": 0, "time": 0, "type": "NormalMsg"}, "M_5580": {"note_status": 1, "channel": 9, "note": 38, "velocity": 0, "time": 0, "type": "NormalMsg"}, "M_5581": {"note_status": 1, "channel": 9, "note": 42, "velocity": 0, "time": 0, "type": "NormalMsg"}, "M_5582": {"note_status": 1, "channel": 9, "note": 42, "velocity": 45, "time": 0, "type": "NormalMsg"}, "M_5583": {"note_status": 1, "channel": 9, "note": 42, "velocity": 0, "time": 0, "type": "NormalMsg"}, "M_5584": {"note_status": 1, "channel": 9, "note": 42, "velocity": 45, "time": 0, "type": "NormalMsg"}, "M_5585": {"note_status": 1, "channel": 9, "note": 42, "velocity": 0, "time": 0, "type": "NormalMsg"}, "M_5586": {"note_status": 1, "channel": 9, "note": 35, "velocity": 112, "time": 0, "type": "NormalMsg"}, "M_5587": {"note_status": 1, "channel": 9, "note": 42, "velocity": 58, "time": 0, "type": "NormalMsg"}, "M_5588": {"note_status": 1, "channel": 9, "note": 35, "velocity": 0, "time": 0, "type": "NormalMsg"}, "M_5589": {"note_status": 1, "channel": 9, "note": 42, "velocity": 0, "time": 0, "type": "NormalMsg"}, "M_5590": {"note_status": 1, "channel": 9, "note": 42, "velocity": 45, "time": 0, "type": "NormalMsg"}, "M_5591": {"note_status": 1, "channel": 9, "note": 42, "velocity": 0, "time": 0, "type": "NormalMsg"}, "M_5592": {"note_status": 1, "channel": 9, "note": 42, "velocity": 45, "time": 0, "type": "NormalMsg"}, "M_5593": {"note_status": 1, "channel": 9, "note": 42, "velocity": 0, "time": 0, "type": "NormalMsg"}, "M_5594": {"note_status": 1, "channel": 9, "note": 35, "velocity": 112, "time": 0, "type": "NormalMsg"}, "M_5595": {"note_status": 1, "channel": 9, "note": 38, "velocity": 90, "time": 0, "type": "NormalMsg"}, "M_5596": {"note_status": 1, "channel": 9, "note": 42, "velocity": 58, "time": 0, "type": "NormalMsg"}, "M_5597": {"note_status": 1, "channel": 9, "note": 35, "velocity": 0, "time": 0, "type": "NormalMsg"}, "M_5598": {"note_status": 1, "channel": 9, "note": 38, "velocity": 0, "time": 0, "type": "NormalMsg"}, "M_5599": {"note_status": 1, "channel": 9, "note": 42, "velocity": 0, "time": 0, "type": "NormalMsg"}, "M_5600": {"note_status": 1, "channel": 9, "note": 42, "velocity": 45, "time": 0, "type": "NormalMsg"}, "M_5601": {"note_status": 1, "channel": 9, "note": 42, "velocity": 0, "time": 0, "type": "NormalMsg"}, "M_5602": {"note_status": 1, "channel": 9, "note": 42, "velocity": 45, "time": 0, "type": "NormalMsg"}, "M_5603": {"note_status": 1, "channel": 9, "note": 42, "velocity": 0, "time": 0, "type": "NormalMsg"}, "M_5604": {"note_status": 1, "channel": 9, "note": 35, "velocity": 112, "time": 0, "type": "NormalMsg"}, "M_5605": {"note_status": 1, "channel": 9, "note": 42, "velocity": 58, "time": 0, "type": "NormalMsg"}, "M_5606": {"note_status": 1, "channel": 9, "note": 35, "velocity": 0, "time": 0, "type": "NormalMsg"}, "M_5607": {"note_status": 1, "channel": 9, "note": 42, "velocity": 0, "time": 0, "type": "NormalMsg"}, "M_5608": {"note_status": 1, "channel": 9, "note": 42, "velocity": 58, "time": 0, "type": "NormalMsg"}, "M_5609": {"note_status": 1, "channel": 9, "note": 42, "velocity": 0, "time": 0, "type": "NormalMsg"}, "M_5610": {"note_status": 1, "channel": 9, "note": 42, "velocity": 58, "time": 0, "type": "NormalMsg"}, "M_5611": {"note_status": 1, "channel": 9, "note": 42, "velocity": 0, "time": 0, "type": "NormalMsg"}, "M_5612": {"note_status": 1, "channel": 9, "note": 35, "velocity": 112, "time": 0, "type": "NormalMsg"}, "M_5613": {"note_status": 1, "channel": 9, "note": 38, "velocity": 90, "time": 0, "type": "NormalMsg"}, "M_5614": {"note_status": 1, "channel": 9, "note": 42, "velocity": 58, "time": 0, "type": "NormalMsg"}, "M_5615": {"note_status": 1, "channel": 9, "note": 35, "velocity": 0, "time": 0, "type": "NormalMsg"}, "M_5616": {"note_status": 1, "channel": 9, "note": 38, "velocity": 0, "time": 0, "type": "NormalMsg"}, "M_5617": {"note_status": 1, "channel": 9, "note": 42, "velocity": 0, "time": 0, "type": "NormalMsg"}, "M_5618": {"note_status": 1, "channel": 9, "note": 42, "velocity": 45, "time": 0, "type": "NormalMsg"}, "M_5619": {"note_status": 1, "channel": 9, "note": 42, "velocity": 0, "time": 0, "type": "NormalMsg"}, "M_5620": {"note_status": 1, "channel": 9, "note": 42, "velocity": 45, "time": 0, "type": "NormalMsg"}, "M_5621": {"note_status": 1, "channel": 9, "note": 42, "velocity": 0, "time": 0, "type": "NormalMsg"}, "M_5622": {"note_status": 1, "channel": 9, "note": 35, "velocity": 112, "time": 0, "type": "NormalMsg"}, "M_5623": {"note_status": 1, "channel": 9, "note": 42, "velocity": 58, "time": 0, "type": "NormalMsg"}, "M_5624": {"note_status": 1, "channel": 9, "note": 35, "velocity": 0, "time": 0, "type": "NormalMsg"}, "M_5625": {"note_status": 1, "channel": 9, "note": 42, "velocity": 0, "time": 0, "type": "NormalMsg"}, "M_5626": {"note_status": 1, "channel": 9, "note": 42, "velocity": 45, "time": 0, "type": "NormalMsg"}, "M_5627": {"note_status": 1, "channel": 9, "note": 42, "velocity": 0, "time": 0, "type": "NormalMsg"}, "M_5628": {"note_status": 1, "channel": 9, "note": 42, "velocity": 45, "time": 0, "type": "NormalMsg"}, "M_5629": {"note_status": 1, "channel": 9, "note": 42, "velocity": 0, "time": 0, "type": "NormalMsg"}, "M_5630": {"note_status": 1, "channel": 9, "note": 35, "velocity": 112, "time": 0, "type": "NormalMsg"}, "M_5631": {"note_status": 1, "channel": 9, "note": 38, "velocity": 90, "time": 0, "type": "NormalMsg"}, "M_5632": {"note_status": 1, "channel": 9, "note": 42, "velocity": 58, "time": 0, "type": "NormalMsg"}, "M_5633": {"note_status": 1, "channel": 9, "note": 35, "velocity": 0, "time": 0, "type": "NormalMsg"}, "M_5634": {"note_status": 1, "channel": 9, "note": 38, "velocity": 0, "time": 0, "type": "NormalMsg"}, "M_5635": {"note_status": 1, "channel": 9, "note": 42, "velocity": 0, "time": 0, "type": "NormalMsg"}, "M_5636": {"note_status": 1, "channel": 9, "note": 42, "velocity": 45, "time": 0, "type": "NormalMsg"}, "M_5637": {"note_status": 1, "channel": 9, "note": 42, "velocity": 0, "time": 0, "type": "NormalMsg"}, "M_5638": {"note_status": 1, "channel": 9, "note": 42, "velocity": 45, "time": 0, "type": "NormalMsg"}, "M_5639": {"note_status": 1, "channel": 9, "note": 42, "velocity": 0, "time": 0, "type": "NormalMsg"}, "M_5640": {"note_status": 1, "channel": 9, "note": 35, "velocity": 112, "time": 0, "type": "NormalMsg"}, "M_5641": {"note_status": 1, "channel": 9, "note": 42, "velocity": 58, "time": 0, "type": "NormalMsg"}, "M_5642": {"note_status": 1, "channel": 9, "note": 35, "velocity": 0, "time": 0, "type": "NormalMsg"}, "M_5643": {"note_status": 1, "channel": 9, "note": 42, "velocity": 0, "time": 0, "type": "NormalMsg"}, "M_5644": {"note_status": 1, "channel": 9, "note": 42, "velocity": 52, "time": 0, "type": "NormalMsg"}, "M_5645": {"note_status": 1, "channel": 9, "note": 42, "velocity": 0, "time": 0, "type": "NormalMsg"}, "M_5646": {"note_status": 1, "channel": 9, "note": 42, "velocity": 58, "time": 0, "type": "NormalMsg"}, "M_5647": {"note_status": 1, "channel": 9, "note": 42, "velocity": 0, "time": 0, "type": "NormalMsg"}, "M_5648": {"note_status": 1, "channel": 9, "note": 42, "velocity": 58, "time": 0, "type": "NormalMsg"}, "M_5649": {"note_status": 1, "channel": 9, "note": 42, "velocity": 0, "time": 0, "type": "NormalMsg"}, "M_5650": {"note_status": 1, "channel": 9, "note": 35, "velocity": 112, "time": 0, "type": "NormalMsg"}, "M_5651": {"note_status": 1, "channel": 9, "note": 38, "velocity": 90, "time": 0, "type": "NormalMsg"}, "M_5652": {"note_status": 1, "channel": 9, "note": 42, "velocity": 58, "time": 0, "type": "NormalMsg"}, "M_5653": {"note_status": 1, "channel": 9, "note": 35, "velocity": 0, "time": 0, "type": "NormalMsg"}, "M_5654": {"note_status": 1, "channel": 9, "note": 38, "velocity": 0, "time": 0, "type": "NormalMsg"}, "M_5655": {"note_status": 1, "channel": 9, "note": 42, "velocity": 0, "time": 0, "type": "NormalMsg"}, "M_5656": {"note_status": 1, "channel": 9, "note": 42, "velocity": 45, "time": 0, "type": "NormalMsg"}, "M_5657": {"note_status": 1, "channel": 9, "note": 42, "velocity": 0, "time": 0, "type": "NormalMsg"}, "M_5658": {"note_status": 1, "channel": 9, "note": 42, "velocity": 45, "time": 0, "type": "NormalMsg"}, "M_5659": {"note_status": 1, "channel": 9, "note": 42, "velocity": 0, "time": 0, "type": "NormalMsg"}, "M_5660": {"note_status": 1, "channel": 9, "note": 35, "velocity": 112, "time": 0, "type": "NormalMsg"}, "M_5661": {"note_status": 1, "channel": 9, "note": 42, "velocity": 58, "time": 0, "type": "NormalMsg"}, "M_5662": {"note_status": 1, "channel": 9, "note": 35, "velocity": 0, "time": 0, "type": "NormalMsg"}, "M_5663": {"note_status": 1, "channel": 9, "note": 42, "velocity": 0, "time": 0, "type": "NormalMsg"}, "M_5664": {"note_status": 1, "channel": 9, "note": 42, "velocity": 45, "time": 0, "type": "NormalMsg"}, "M_5665": {"note_status": 1, "channel": 9, "note": 42, "velocity": 0, "time": 0, "type": "NormalMsg"}, "M_5666": {"note_status": 1, "channel": 9, "note": 42, "velocity": 45, "time": 0, "type": "NormalMsg"}, "M_5667": {"note_status": 1, "channel": 9, "note": 42, "velocity": 0, "time": 0, "type": "NormalMsg"}, "M_5668": {"note_status": 1, "channel": 9, "note": 35, "velocity": 112, "time": 0, "type": "NormalMsg"}, "M_5669": {"note_status": 1, "channel": 9, "note": 38, "velocity": 90, "time": 0, "type": "NormalMsg"}, "M_5670": {"note_status": 1, "channel": 9, "note": 42, "velocity": 58, "time": 0, "type": "NormalMsg"}, "M_5671": {"note_status": 1, "channel": 9, "note": 35, "velocity": 0, "time": 0, "type": "NormalMsg"}, "M_5672": {"note_status": 1, "channel": 9, "note": 38, "velocity": 0, "time": 0, "type": "NormalMsg"}, "M_5673": {"note_status": 1, "channel": 9, "note": 42, "velocity": 0, "time": 0, "type": "NormalMsg"}, "M_5674": {"note_status": 1, "channel": 9, "note": 52, "velocity": 97, "time": 0, "type": "NormalMsg"}, "M_5675": {"note_status": 1, "channel": 9, "note": 52, "velocity": 0, "time": 0, "type": "NormalMsg"}, "M_5676": {"note_status": 1, "channel": 9, "note": 42, "velocity": 45, "time": 0, "type": "NormalMsg"}, "M_5677": {"note_status": 1, "channel": 9, "note": 42, "velocity": 0, "time": 0, "type": "NormalMsg"}, "M_5678": {"note_status": 1, "channel": 9, "note": 42, "velocity": 45, "time": 0, "type": "NormalMsg"}, "M_5679": {"note_status": 1, "channel": 9, "note": 42, "velocity": 0, "time": 0, "type": "NormalMsg"}, "M_5680": {"note_status": 1, "channel": 9, "note": 35, "velocity": 112, "time": 0, "type": "NormalMsg"}, "M_5681": {"note_status": 1, "channel": 9, "note": 42, "velocity": 58, "time": 0, "type": "NormalMsg"}, "M_5682": {"note_status": 1, "channel": 9, "note": 35, "velocity": 0, "time": 0, "type": "NormalMsg"}, "M_5683": {"note_status": 1, "channel": 9, "note": 42, "velocity": 0, "time": 0, "type": "NormalMsg"}, "M_5684": {"note_status": 1, "channel": 9, "note": 42, "velocity": 58, "time": 0, "type": "NormalMsg"}, "M_5685": {"note_status": 1, "channel": 9, "note": 42, "velocity": 0, "time": 0, "type": "NormalMsg"}, "M_5686": {"note_status": 1, "channel": 9, "note": 42, "velocity": 58, "time": 0, "type": "NormalMsg"}, "M_5687": {"note_status": 1, "channel": 9, "note": 42, "velocity": 0, "time": 0, "type": "NormalMsg"}, "M_5688": {"note_status": 1, "channel": 9, "note": 35, "velocity": 112, "time": 0, "type": "NormalMsg"}, "M_5689": {"note_status": 1, "channel": 9, "note": 38, "velocity": 90, "time": 0, "type": "NormalMsg"}, "M_5690": {"note_status": 1, "channel": 9, "note": 40, "velocity": 78, "time": 0, "type": "NormalMsg"}, "M_5691": {"note_status": 1, "channel": 9, "note": 42, "velocity": 58, "time": 0, "type": "NormalMsg"}, "M_5692": {"note_status": 1, "channel": 9, "note": 35, "velocity": 0, "time": 0, "type": "NormalMsg"}, "M_5693": {"note_status": 1, "channel": 9, "note": 38, "velocity": 0, "time": 0, "type": "NormalMsg"}, "M_5694": {"note_status": 1, "channel": 9, "note": 40, "velocity": 0, "time": 0, "type": "NormalMsg"}, "M_5695": {"note_status": 1, "channel": 9, "note": 42, "velocity": 0, "time": 0, "type": "NormalMsg"}, "M_5696": {"note_status": 1, "channel": 9, "note": 42, "velocity": 45, "time": 0, "type": "NormalMsg"}, "M_5697": {"note_status": 1, "channel": 9, "note": 42, "velocity": 0, "time": 0, "type": "NormalMsg"}, "M_5698": {"note_status": 1, "channel": 9, "note": 42, "velocity": 45, "time": 0, "type": "NormalMsg"}, "M_5699": {"note_status": 1, "channel": 9, "note": 42, "velocity": 0, "time": 0, "type": "NormalMsg"}, "M_5700": {"note_status": 1, "channel": 9, "note": 35, "velocity": 112, "time": 0, "type": "NormalMsg"}, "M_5701": {"note_status": 1, "channel": 9, "note": 42, "velocity": 34, "time": 0, "type": "NormalMsg"}, "M_5702": {"note_status": 1, "channel": 9, "note": 35, "velocity": 0, "time": 0, "type": "NormalMsg"}, "M_5703": {"note_status": 1, "channel": 9, "note": 42, "velocity": 0, "time": 0, "type": "NormalMsg"}, "M_5704": {"note_status": 1, "channel": 9, "note": 42, "velocity": 58, "time": 0, "type": "NormalMsg"}, "M_5705": {"note_status": 1, "channel": 9, "note": 42, "velocity": 0, "time": 0, "type": "NormalMsg"}, "M_5706": {"note_status": 1, "channel": 9, "note": 35, "velocity": 112, "time": 0, "type": "NormalMsg"}, "M_5707": {"note_status": 1, "channel": 9, "note": 38, "velocity": 90, "time": 0, "type": "NormalMsg"}, "M_5708": {"note_status": 1, "channel": 9, "note": 42, "velocity": 34, "time": 0, "type": "NormalMsg"}, "M_5709": {"note_status": 1, "channel": 9, "note": 35, "velocity": 0, "time": 0, "type": "NormalMsg"}, "M_5710": {"note_status": 1, "channel": 9, "note": 38, "velocity": 0, "time": 0, "type": "NormalMsg"}, "M_5711": {"note_status": 1, "channel": 9, "note": 42, "velocity": 0, "time": 0, "type": "NormalMsg"}, "M_5712": {"note_status": 1, "channel": 9, "note": 42, "velocity": 58, "time": 0, "type": "NormalMsg"}, "M_5713": {"note_status": 1, "channel": 9, "note": 42, "velocity": 0, "time": 0, "type": "NormalMsg"}, "M_5714": {"note_status": 1, "channel": 9, "note": 35, "velocity": 112, "time": 0, "type": "NormalMsg"}, "M_5715": {"note_status": 1, "channel": 9, "note": 42, "velocity": 34, "time": 0, "type": "NormalMsg"}, "M_5716": {"note_status": 1, "channel": 9, "note": 35, "velocity": 0, "time": 0, "type": "NormalMsg"}, "M_5717": {"note_status": 1, "channel": 9, "note": 42, "velocity": 0, "time": 0, "type": "NormalMsg"}, "M_5718": {"note_status": 1, "channel": 9, "note": 42, "velocity": 58, "time": 0, "type": "NormalMsg"}, "M_5719": {"note_status": 1, "channel": 9, "note": 42, "velocity": 0, "time": 0, "type": "NormalMsg"}, "M_5720": {"note_status": 1, "channel": 9, "note": 35, "velocity": 112, "time": 0, "type": "NormalMsg"}, "M_5721": {"note_status": 1, "channel": 9, "note": 38, "velocity": 90, "time": 0, "type": "NormalMsg"}, "M_5722": {"note_status": 1, "channel": 9, "note": 42, "velocity": 34, "time": 0, "type": "NormalMsg"}, "M_5723": {"note_status": 1, "channel": 9, "note": 35, "velocity": 0, "time": 0, "type": "NormalMsg"}, "M_5724": {"note_status": 1, "channel": 9, "note": 38, "velocity": 0, "time": 0, "type": "NormalMsg"}, "M_5725": {"note_status": 1, "channel": 9, "note": 42, "velocity": 0, "time": 0, "type": "NormalMsg"}, "M_5726": {"note_status": 1, "channel": 9, "note": 42, "velocity": 58, "time": 0, "type": "NormalMsg"}, "M_5727": {"note_status": 1, "channel": 9, "note": 42, "velocity": 0, "time": 0, "type": "NormalMsg"}, "M_5728": {"note_status": 1, "channel": 9, "note": 42, "velocity": 58, "time": 0, "type": "NormalMsg"}, "M_5729": {"note_status": 1, "channel": 9, "note": 42, "velocity": 0, "time": 0, "type": "NormalMsg"}, "M_5730": {"note_status": 1, "channel": 9, "note": 35, "velocity": 112, "time": 0, "type": "NormalMsg"}, "M_5731": {"note_status": 1, "channel": 9, "note": 42, "velocity": 34, "time": 0, "type": "NormalMsg"}, "M_5732": {"note_status": 1, "channel": 9, "note": 35, "velocity": 0, "time": 0, "type": "NormalMsg"}, "M_5733": {"note_status": 1, "channel": 9, "note": 42, "velocity": 0, "time": 0, "type": "NormalMsg"}, "M_5734": {"note_status": 1, "channel": 9, "note": 42, "velocity": 58, "time": 0, "type": "NormalMsg"}, "M_5735": {"note_status": 1, "channel": 9, "note": 42, "velocity": 0, "time": 0, "type": "NormalMsg"}, "M_5736": {"note_status": 1, "channel": 9, "note": 35, "velocity": 112, "time": 0, "type": "NormalMsg"}, "M_5737": {"note_status": 1, "channel": 9, "note": 38, "velocity": 90, "time": 0, "type": "NormalMsg"}, "M_5738": {"note_status": 1, "channel": 9, "note": 42, "velocity": 34, "time": 0, "type": "NormalMsg"}, "M_5739": {"note_status": 1, "channel": 9, "note": 35, "velocity": 0, "time": 0, "type": "NormalMsg"}, "M_5740": {"note_status": 1, "channel": 9, "note": 38, "velocity": 0, "time": 0, "type": "NormalMsg"}, "M_5741": {"note_status": 1, "channel": 9, "note": 42, "velocity": 0, "time": 0, "type": "NormalMsg"}, "M_5742": {"note_status": 1, "channel": 9, "note": 42, "velocity": 58, "time": 0, "type": "NormalMsg"}, "M_5743": {"note_status": 1, "channel": 9, "note": 42, "velocity": 0, "time": 0, "type": "NormalMsg"}, "M_5744": {"note_status": 1, "channel": 9, "note": 35, "velocity": 112, "time": 0, "type": "NormalMsg"}, "M_5745": {"note_status": 1, "channel": 9, "note": 42, "velocity": 34, "time": 0, "type": "NormalMsg"}, "M_5746": {"note_status": 1, "channel": 9, "note": 35, "velocity": 0, "time": 0, "type": "NormalMsg"}, "M_5747": {"note_status": 1, "channel": 9, "note": 42, "velocity": 0, "time": 0, "type": "NormalMsg"}, "M_5748": {"note_status": 1, "channel": 9, "note": 42, "velocity": 58, "time": 0, "type": "NormalMsg"}, "M_5749": {"note_status": 1, "channel": 9, "note": 42, "velocity": 0, "time": 0, "type": "NormalMsg"}, "M_5750": {"note_status": 1, "channel": 9, "note": 35, "velocity": 112, "time": 0, "type": "NormalMsg"}, "M_5751": {"note_status": 1, "channel": 9, "note": 38, "velocity": 90, "time": 0, "type": "NormalMsg"}, "M_5752": {"note_status": 1, "channel": 9, "note": 42, "velocity": 34, "time": 0, "type": "NormalMsg"}, "M_5753": {"note_status": 1, "channel": 9, "note": 35, "velocity": 0, "time": 0, "type": "NormalMsg"}, "M_5754": {"note_status": 1, "channel": 9, "note": 38, "velocity": 0, "time": 0, "type": "NormalMsg"}, "M_5755": {"note_status": 1, "channel": 9, "note": 42, "velocity": 0, "time": 0, "type": "NormalMsg"}, "M_5756": {"note_status": 1, "channel": 9, "note": 42, "velocity": 52, "time": 0, "type": "NormalMsg"}, "M_5757": {"note_status": 1, "channel": 9, "note": 42, "velocity": 0, "time": 0, "type": "NormalMsg"}, "M_5758": {"note_status": 1, "channel": 9, "note": 42, "velocity": 58, "time": 0, "type": "NormalMsg"}, "M_5759": {"note_status": 1, "channel": 9, "note": 42, "velocity": 0, "time": 0, "type": "NormalMsg"}, "M_5760": {"note_status": 1, "channel": 9, "note": 42, "velocity": 58, "time": 0, "type": "NormalMsg"}, "M_5761": {"note_status": 1, "channel": 9, "note": 42, "velocity": 0, "time": 0, "type": "NormalMsg"}, "M_5762": {"note_status": 1, "channel": 9, "note": 35, "velocity": 112, "time": 0, "type": "NormalMsg"}, "M_5763": {"note_status": 1, "channel": 9, "note": 42, "velocity": 34, "time": 0, "type": "NormalMsg"}, "M_5764": {"note_status": 1, "channel": 9, "note": 35, "velocity": 0, "time": 0, "type": "NormalMsg"}, "M_5765": {"note_status": 1, "channel": 9, "note": 42, "velocity": 0, "time": 0, "type": "NormalMsg"}, "M_5766": {"note_status": 1, "channel": 9, "note": 42, "velocity": 58, "time": 0, "type": "NormalMsg"}, "M_5767": {"note_status": 1, "channel": 9, "note": 42, "velocity": 0, "time": 0, "type": "NormalMsg"}, "M_5768": {"note_status": 1, "channel": 9, "note": 35, "velocity": 112, "time": 0, "type": "NormalMsg"}, "M_5769": {"note_status": 1, "channel": 9, "note": 38, "velocity": 90, "time": 0, "type": "NormalMsg"}, "M_5770": {"note_status": 1, "channel": 9, "note": 42, "velocity": 34, "time": 0, "type": "NormalMsg"}, "M_5771": {"note_status": 1, "channel": 9, "note": 35, "velocity": 0, "time": 0, "type": "NormalMsg"}, "M_5772": {"note_status": 1, "channel": 9, "note": 38, "velocity": 0, "time": 0, "type": "NormalMsg"}, "M_5773": {"note_status": 1, "channel": 9, "note": 42, "velocity": 0, "time": 0, "type": "NormalMsg"}, "M_5774": {"note_status": 1, "channel": 9, "note": 42, "velocity": 58, "time": 0, "type": "NormalMsg"}, "M_5775": {"note_status": 1, "channel": 9, "note": 42, "velocity": 0, "time": 0, "type": "NormalMsg"}, "M_5776": {"note_status": 1, "channel": 9, "note": 35, "velocity": 112, "time": 0, "type": "NormalMsg"}, "M_5777": {"note_status": 1, "channel": 9, "note": 42, "velocity": 34, "time": 0, "type": "NormalMsg"}, "M_5778": {"note_status": 1, "channel": 9, "note": 35, "velocity": 0, "time": 0, "type": "NormalMsg"}, "M_5779": {"note_status": 1, "channel": 9, "note": 42, "velocity": 0, "time": 0, "type": "NormalMsg"}, "M_5780": {"note_status": 1, "channel": 9, "note": 42, "velocity": 58, "time": 0, "type": "NormalMsg"}, "M_5781": {"note_status": 1, "channel": 9, "note": 42, "velocity": 0, "time": 0, "type": "NormalMsg"}, "M_5782": {"note_status": 1, "channel": 9, "note": 35, "velocity": 112, "time": 0, "type": "NormalMsg"}, "M_5783": {"note_status": 1, "channel": 9, "note": 38, "velocity": 90, "time": 0, "type": "NormalMsg"}, "M_5784": {"note_status": 1, "channel": 9, "note": 42, "velocity": 34, "time": 0, "type": "NormalMsg"}, "M_5785": {"note_status": 1, "channel": 9, "note": 35, "velocity": 0, "time": 0, "type": "NormalMsg"}, "M_5786": {"note_status": 1, "channel": 9, "note": 38, "velocity": 0, "time": 0, "type": "NormalMsg"}, "M_5787": {"note_status": 1, "channel": 9, "note": 42, "velocity": 0, "time": 0, "type": "NormalMsg"}, "M_5788": {"note_status": 1, "channel": 9, "note": 42, "velocity": 58, "time": 0, "type": "NormalMsg"}, "M_5789": {"note_status": 1, "channel": 9, "note": 42, "velocity": 0, "time": 0, "type": "NormalMsg"}, "M_5790": {"note_status": 1, "channel": 9, "note": 42, "velocity": 58, "time": 0, "type": "NormalMsg"}, "M_5791": {"note_status": 1, "channel": 9, "note": 42, "velocity": 0, "time": 0, "type": "NormalMsg"}, "M_5792": {"note_status": 1, "channel": 9, "note": 35, "velocity": 112, "time": 0, "type": "NormalMsg"}, "M_5793": {"note_status": 1, "channel": 9, "note": 42, "velocity": 34, "time": 0, "type": "NormalMsg"}, "M_5794": {"note_status": 1, "channel": 9, "note": 35, "velocity": 0, "time": 0, "type": "NormalMsg"}, "M_5795": {"note_status": 1, "channel": 9, "note": 42, "velocity": 0, "time": 0, "type": "NormalMsg"}, "M_5796": {"note_status": 1, "channel": 9, "note": 42, "velocity": 58, "time": 0, "type": "NormalMsg"}, "M_5797": {"note_status": 1, "channel": 9, "note": 42, "velocity": 0, "time": 0, "type": "NormalMsg"}, "M_5798": {"note_status": 1, "channel": 9, "note": 35, "velocity": 112, "time": 0, "type": "NormalMsg"}, "M_5799": {"note_status": 1, "channel": 9, "note": 38, "velocity": 90, "time": 0, "type": "NormalMsg"}, "M_5800": {"note_status": 1, "channel": 9, "note": 42, "velocity": 34, "time": 0, "type": "NormalMsg"}, "M_5801": {"note_status": 1, "channel": 9, "note": 35, "velocity": 0, "time": 0, "type": "NormalMsg"}, "M_5802": {"note_status": 1, "channel": 9, "note": 38, "velocity": 0, "time": 0, "type": "NormalMsg"}, "M_5803": {"note_status": 1, "channel": 9, "note": 42, "velocity": 0, "time": 0, "type": "NormalMsg"}, "M_5804": {"note_status": 1, "channel": 9, "note": 42, "velocity": 58, "time": 0, "type": "NormalMsg"}, "M_5805": {"note_status": 1, "channel": 9, "note": 42, "velocity": 0, "time": 0, "type": "NormalMsg"}, "M_5806": {"note_status": 1, "channel": 9, "note": 35, "velocity": 112, "time": 0, "type": "NormalMsg"}, "M_5807": {"note_status": 1, "channel": 9, "note": 42, "velocity": 34, "time": 0, "type": "NormalMsg"}, "M_5808": {"note_status": 1, "channel": 9, "note": 35, "velocity": 0, "time": 0, "type": "NormalMsg"}, "M_5809": {"note_status": 1, "channel": 9, "note": 42, "velocity": 0, "time": 0, "type": "NormalMsg"}, "M_5810": {"note_status": 1, "channel": 9, "note": 42, "velocity": 58, "time": 0, "type": "NormalMsg"}, "M_5811": {"note_status": 1, "channel": 9, "note": 42, "velocity": 0, "time": 0, "type": "NormalMsg"}, "M_5812": {"note_status": 1, "channel": 9, "note": 35, "velocity": 112, "time": 0, "type": "NormalMsg"}, "M_5813": {"note_status": 1, "channel": 9, "note": 38, "velocity": 90, "time": 0, "type": "NormalMsg"}, "M_5814": {"note_status": 1, "channel": 9, "note": 42, "velocity": 34, "time": 0, "type": "NormalMsg"}, "M_5815": {"note_status": 1, "channel": 9, "note": 35, "velocity": 0, "time": 0, "type": "NormalMsg"}, "M_5816": {"note_status": 1, "channel": 9, "note": 38, "velocity": 0, "time": 0, "type": "NormalMsg"}, "M_5817": {"note_status": 1, "channel": 9, "note": 42, "velocity": 0, "time": 0, "type": "NormalMsg"}, "M_5818": {"note_status": 1, "channel": 9, "note": 42, "velocity": 52, "time": 0, "type": "NormalMsg"}, "M_5819": {"note_status": 1, "channel": 9, "note": 42, "velocity": 0, "time": 0, "type": "NormalMsg"}, "M_5820": {"note_status": 1, "channel": 9, "note": 42, "velocity": 58, "time": 0, "type": "NormalMsg"}, "M_5821": {"note_status": 1, "channel": 9, "note": 42, "velocity": 0, "time": 0, "type": "NormalMsg"}, "M_5822": {"note_status": 1, "channel": 9, "note": 42, "velocity": 58, "time": 0, "type": "NormalMsg"}, "M_5823": {"note_status": 1, "channel": 9, "note": 42, "velocity": 0, "time": 0, "type": "NormalMsg"}, "M_5824": {"note_status": 1, "channel": 9, "note": 35, "velocity": 112, "time": 0, "type": "NormalMsg"}, "M_5825": {"note_status": 1, "channel": 9, "note": 42, "velocity": 34, "time": 0, "type": "NormalMsg"}, "M_5826": {"note_status": 1, "channel": 9, "note": 35, "velocity": 0, "time": 0, "type": "NormalMsg"}, "M_5827": {"note_status": 1, "channel": 9, "note": 42, "velocity": 0, "time": 0, "type": "NormalMsg"}, "M_5828": {"note_status": 1, "channel": 9, "note": 42, "velocity": 58, "time": 0, "type": "NormalMsg"}, "M_5829": {"note_status": 1, "channel": 9, "note": 42, "velocity": 0, "time": 0, "type": "NormalMsg"}, "M_5830": {"note_status": 1, "channel": 9, "note": 35, "velocity": 112, "time": 0, "type": "NormalMsg"}, "M_5831": {"note_status": 1, "channel": 9, "note": 38, "velocity": 90, "time": 0, "type": "NormalMsg"}, "M_5832": {"note_status": 1, "channel": 9, "note": 42, "velocity": 34, "time": 0, "type": "NormalMsg"}, "M_5833": {"note_status": 1, "channel": 9, "note": 35, "velocity": 0, "time": 0, "type": "NormalMsg"}, "M_5834": {"note_status": 1, "channel": 9, "note": 38, "velocity": 0, "time": 0, "type": "NormalMsg"}, "M_5835": {"note_status": 1, "channel": 9, "note": 42, "velocity": 0, "time": 0, "type": "NormalMsg"}, "M_5836": {"note_status": 1, "channel": 9, "note": 42, "velocity": 58, "time": 0, "type": "NormalMsg"}, "M_5837": {"note_status": 1, "channel": 9, "note": 42, "velocity": 0, "time": 0, "type": "NormalMsg"}, "M_5838": {"note_status": 1, "channel": 9, "note": 35, "velocity": 112, "time": 0, "type": "NormalMsg"}, "M_5839": {"note_status": 1, "channel": 9, "note": 42, "velocity": 34, "time": 0, "type": "NormalMsg"}, "M_5840": {"note_status": 1, "channel": 9, "note": 35, "velocity": 0, "time": 0, "type": "NormalMsg"}, "M_5841": {"note_status": 1, "channel": 9, "note": 42, "velocity": 0, "time": 0, "type": "NormalMsg"}, "M_5842": {"note_status": 1, "channel": 9, "note": 42, "velocity": 58, "time": 0, "type": "NormalMsg"}, "M_5843": {"note_status": 1, "channel": 9, "note": 42, "velocity": 0, "time": 0, "type": "NormalMsg"}, "M_5844": {"note_status": 1, "channel": 9, "note": 35, "velocity": 112, "time": 0, "type": "NormalMsg"}, "M_5845": {"note_status": 1, "channel": 9, "note": 38, "velocity": 90, "time": 0, "type": "NormalMsg"}, "M_5846": {"note_status": 1, "channel": 9, "note": 42, "velocity": 34, "time": 0, "type": "NormalMsg"}, "M_5847": {"note_status": 1, "channel": 9, "note": 35, "velocity": 0, "time": 0, "type": "NormalMsg"}, "M_5848": {"note_status": 1, "channel": 9, "note": 38, "velocity": 0, "time": 0, "type": "NormalMsg"}, "M_5849": {"note_status": 1, "channel": 9, "note": 42, "velocity": 0, "time": 0, "type": "NormalMsg"}, "M_5850": {"note_status": 1, "channel": 9, "note": 42, "velocity": 58, "time": 0, "type": "NormalMsg"}, "M_5851": {"note_status": 1, "channel": 9, "note": 42, "velocity": 0, "time": 0, "type": "NormalMsg"}, "M_5852": {"note_status": 1, "channel": 9, "note": 42, "velocity": 58, "time": 0, "type": "NormalMsg"}, "M_5853": {"note_status": 1, "channel": 9, "note": 42, "velocity": 0, "time": 0, "type": "NormalMsg"}, "M_5854": {"note_status": 1, "channel": 9, "note": 35, "velocity": 112, "time": 0, "type": "NormalMsg"}, "M_5855": {"note_status": 1, "channel": 9, "note": 42, "velocity": 34, "time": 0, "type": "NormalMsg"}, "M_5856": {"note_status": 1, "channel": 9, "note": 35, "velocity": 0, "time": 0, "type": "NormalMsg"}, "M_5857": {"note_status": 1, "channel": 9, "note": 42, "velocity": 0, "time": 0, "type": "NormalMsg"}, "M_5858": {"note_status": 1, "channel": 9, "note": 42, "velocity": 58, "time": 0, "type": "NormalMsg"}, "M_5859": {"note_status": 1, "channel": 9, "note": 42, "velocity": 0, "time": 0, "type": "NormalMsg"}, "M_5860": {"note_status": 1, "channel": 9, "note": 35, "velocity": 112, "time": 0, "type": "NormalMsg"}, "M_5861": {"note_status": 1, "channel": 9, "note": 38, "velocity": 90, "time": 0, "type": "NormalMsg"}, "M_5862": {"note_status": 1, "channel": 9, "note": 42, "velocity": 34, "time": 0, "type": "NormalMsg"}, "M_5863": {"note_status": 1, "channel": 9, "note": 35, "velocity": 0, "time": 0, "type": "NormalMsg"}, "M_5864": {"note_status": 1, "channel": 9, "note": 38, "velocity": 0, "time": 0, "type": "NormalMsg"}, "M_5865": {"note_status": 1, "channel": 9, "note": 42, "velocity": 0, "time": 0, "type": "NormalMsg"}, "M_5866": {"note_status": 1, "channel": 9, "note": 42, "velocity": 58, "time": 0, "type": "NormalMsg"}, "M_5867": {"note_status": 1, "channel": 9, "note": 42, "velocity": 0, "time": 0, "type": "NormalMsg"}, "M_5868": {"note_status": 1, "channel": 9, "note": 35, "velocity": 112, "time": 0, "type": "NormalMsg"}, "M_5869": {"note_status": 1, "channel": 9, "note": 42, "velocity": 34, "time": 0, "type": "NormalMsg"}, "M_5870": {"note_status": 1, "channel": 9, "note": 35, "velocity": 0, "time": 0, "type": "NormalMsg"}, "M_5871": {"note_status": 1, "channel": 9, "note": 42, "velocity": 0, "time": 0, "type": "NormalMsg"}, "M_5872": {"note_status": 1, "channel": 9, "note": 42, "velocity": 58, "time": 0, "type": "NormalMsg"}, "M_5873": {"note_status": 1, "channel": 9, "note": 42, "velocity": 0, "time": 0, "type": "NormalMsg"}, "M_5874": {"note_status": 1, "channel": 9, "note": 35, "velocity": 112, "time": 0, "type": "NormalMsg"}, "M_5875": {"note_status": 1, "channel": 9, "note": 38, "velocity": 90, "time": 0, "type": "NormalMsg"}, "M_5876": {"note_status": 1, "channel": 9, "note": 42, "velocity": 34, "time": 0, "type": "NormalMsg"}, "M_5877": {"note_status": 1, "channel": 9, "note": 35, "velocity": 0, "time": 0, "type": "NormalMsg"}, "M_5878": {"note_status": 1, "channel": 9, "note": 38, "velocity": 0, "time": 0, "type": "NormalMsg"}, "M_5879": {"note_status": 1, "channel": 9, "note": 42, "velocity": 0, "time": 0, "type": "NormalMsg"}, "M_5880": {"note_status": 1, "channel": 9, "note": 42, "velocity": 52, "time": 0, "type": "NormalMsg"}, "M_5881": {"note_status": 1, "channel": 9, "note": 42, "velocity": 0, "time": 0, "type": "NormalMsg"}, "M_5882": {"note_status": 1, "channel": 9, "note": 42, "velocity": 58, "time": 0, "type": "NormalMsg"}, "M_5883": {"note_status": 1, "channel": 9, "note": 42, "velocity": 0, "time": 0, "type": "NormalMsg"}, "M_5884": {"note_status": 1, "channel": 9, "note": 42, "velocity": 58, "time": 0, "type": "NormalMsg"}, "M_5885": {"note_status": 1, "channel": 9, "note": 42, "velocity": 0, "time": 0, "type": "NormalMsg"}, "M_5886": {"note_status": 1, "channel": 9, "note": 35, "velocity": 112, "time": 0, "type": "NormalMsg"}, "M_5887": {"note_status": 1, "channel": 9, "note": 42, "velocity": 34, "time": 0, "type": "NormalMsg"}, "M_5888": {"note_status": 1, "channel": 9, "note": 35, "velocity": 0, "time": 0, "type": "NormalMsg"}, "M_5889": {"note_status": 1, "channel": 9, "note": 42, "velocity": 0, "time": 0, "type": "NormalMsg"}, "M_5890": {"note_status": 1, "channel": 9, "note": 42, "velocity": 58, "time": 0, "type": "NormalMsg"}, "M_5891": {"note_status": 1, "channel": 9, "note": 42, "velocity": 0, "time": 0, "type": "NormalMsg"}, "M_5892": {"note_status": 1, "channel": 9, "note": 35, "velocity": 112, "time": 0, "type": "NormalMsg"}, "M_5893": {"note_status": 1, "channel": 9, "note": 38, "velocity": 90, "time": 0, "type": "NormalMsg"}, "M_5894": {"note_status": 1, "channel": 9, "note": 42, "velocity": 34, "time": 0, "type": "NormalMsg"}, "M_5895": {"note_status": 1, "channel": 9, "note": 35, "velocity": 0, "time": 0, "type": "NormalMsg"}, "M_5896": {"note_status": 1, "channel": 9, "note": 38, "velocity": 0, "time": 0, "type": "NormalMsg"}, "M_5897": {"note_status": 1, "channel": 9, "note": 42, "velocity": 0, "time": 0, "type": "NormalMsg"}, "M_5898": {"note_status": 1, "channel": 9, "note": 42, "velocity": 58, "time": 0, "type": "NormalMsg"}, "M_5899": {"note_status": 1, "channel": 9, "note": 42, "velocity": 0, "time": 0, "type": "NormalMsg"}, "M_5900": {"note_status": 1, "channel": 9, "note": 35, "velocity": 112, "time": 0, "type": "NormalMsg"}, "M_5901": {"note_status": 1, "channel": 9, "note": 42, "velocity": 34, "time": 0, "type": "NormalMsg"}, "M_5902": {"note_status": 1, "channel": 9, "note": 35, "velocity": 0, "time": 0, "type": "NormalMsg"}, "M_5903": {"note_status": 1, "channel": 9, "note": 42, "velocity": 0, "time": 0, "type": "NormalMsg"}, "M_5904": {"note_status": 1, "channel": 9, "note": 42, "velocity": 58, "time": 0, "type": "NormalMsg"}, "M_5905": {"note_status": 1, "channel": 9, "note": 42, "velocity": 0, "time": 0, "type": "NormalMsg"}, "M_5906": {"note_status": 1, "channel": 9, "note": 35, "velocity": 112, "time": 0, "type": "NormalMsg"}, "M_5907": {"note_status": 1, "channel": 9, "note": 38, "velocity": 90, "time": 0, "type": "NormalMsg"}, "M_5908": {"note_status": 1, "channel": 9, "note": 42, "velocity": 34, "time": 0, "type": "NormalMsg"}, "M_5909": {"note_status": 1, "channel": 9, "note": 35, "velocity": 0, "time": 0, "type": "NormalMsg"}, "M_5910": {"note_status": 1, "channel": 9, "note": 38, "velocity": 0, "time": 0, "type": "NormalMsg"}, "M_5911": {"note_status": 1, "channel": 9, "note": 42, "velocity": 0, "time": 0, "type": "NormalMsg"}, "M_5912": {"note_status": 1, "channel": 9, "note": 42, "velocity": 58, "time": 0, "type": "NormalMsg"}, "M_5913": {"note_status": 1, "channel": 9, "note": 42, "velocity": 0, "time": 0, "type": "NormalMsg"}, "M_5914": {"note_status": 1, "channel": 9, "note": 42, "velocity": 58, "time": 0, "type": "NormalMsg"}, "M_5915": {"note_status": 1, "channel": 9, "note": 42, "velocity": 0, "time": 0, "type": "NormalMsg"}, "M_5916": {"note_status": 1, "channel": 9, "note": 35, "velocity": 112, "time": 0, "type": "NormalMsg"}, "M_5917": {"note_status": 1, "channel": 9, "note": 42, "velocity": 34, "time": 0, "type": "NormalMsg"}, "M_5918": {"note_status": 1, "channel": 9, "note": 35, "velocity": 0, "time": 0, "type": "NormalMsg"}, "M_5919": {"note_status": 1, "channel": 9, "note": 42, "velocity": 0, "time": 0, "type": "NormalMsg"}, "M_5920": {"note_status": 1, "channel": 9, "note": 42, "velocity": 58, "time": 0, "type": "NormalMsg"}, "M_5921": {"note_status": 1, "channel": 9, "note": 42, "velocity": 0, "time": 0, "type": "NormalMsg"}, "M_5922": {"note_status": 1, "channel": 9, "note": 35, "velocity": 112, "time": 0, "type": "NormalMsg"}, "M_5923": {"note_status": 1, "channel": 9, "note": 38, "velocity": 90, "time": 0, "type": "NormalMsg"}, "M_5924": {"note_status": 1, "channel": 9, "note": 42, "velocity": 34, "time": 0, "type": "NormalMsg"}, "M_5925": {"note_status": 1, "channel": 9, "note": 35, "velocity": 0, "time": 0, "type": "NormalMsg"}, "M_5926": {"note_status": 1, "channel": 9, "note": 38, "velocity": 0, "time": 0, "type": "NormalMsg"}, "M_5927": {"note_status": 1, "channel": 9, "note": 42, "velocity": 0, "time": 0, "type": "NormalMsg"}, "M_5928": {"note_status": 1, "channel": 9, "note": 42, "velocity": 58, "time": 0, "type": "NormalMsg"}, "M_5929": {"note_status": 1, "channel": 9, "note": 42, "velocity": 0, "time": 0, "type": "NormalMsg"}, "M_5930": {"note_status": 1, "channel": 9, "note": 35, "velocity": 112, "time": 0, "type": "NormalMsg"}, "M_5931": {"note_status": 1, "channel": 9, "note": 42, "velocity": 34, "time": 0, "type": "NormalMsg"}, "M_5932": {"note_status": 1, "channel": 9, "note": 35, "velocity": 0, "time": 0, "type": "NormalMsg"}, "M_5933": {"note_status": 1, "channel": 9, "note": 42, "velocity": 0, "time": 0, "type": "NormalMsg"}, "M_5934": {"note_status": 1, "channel": 9, "note": 42, "velocity": 58, "time": 0, "type": "NormalMsg"}, "M_5935": {"note_status": 1, "channel": 9, "note": 42, "velocity": 0, "time": 0, "type": "NormalMsg"}, "M_5936": {"note_status": 1, "channel": 9, "note": 35, "velocity": 112, "time": 0, "type": "NormalMsg"}, "M_5937": {"note_status": 1, "channel": 9, "note": 38, "velocity": 90, "time": 0, "type": "NormalMsg"}, "M_5938": {"note_status": 1, "channel": 9, "note": 42, "velocity": 34, "time": 0, "type": "NormalMsg"}, "M_5939": {"note_status": 1, "channel": 9, "note": 35, "velocity": 0, "time": 0, "type": "NormalMsg"}, "M_5940": {"note_status": 1, "channel": 9, "note": 38, "velocity": 0, "time": 0, "type": "NormalMsg"}, "M_5941": {"note_status": 1, "channel": 9, "note": 42, "velocity": 0, "time": 0, "type": "NormalMsg"}, "M_5942": {"note_status": 1, "channel": 9, "note": 42, "velocity": 52, "time": 0, "type": "NormalMsg"}, "M_5943": {"note_status": 1, "channel": 9, "note": 42, "velocity": 0, "time": 0, "type": "NormalMsg"}, "M_5944": {"note_status": 1, "channel": 9, "note": 42, "velocity": 58, "time": 0, "type": "NormalMsg"}, "M_5945": {"note_status": 1, "channel": 9, "note": 42, "velocity": 0, "time": 0, "type": "NormalMsg"}, "M_5946": {"note_status": 1, "channel": 9, "note": 42, "velocity": 58, "time": 0, "type": "NormalMsg"}, "M_5947": {"note_status": 1, "channel": 9, "note": 42, "velocity": 0, "time": 0, "type": "NormalMsg"}, "M_5948": {"note_status": 1, "channel": 9, "note": 35, "velocity": 112, "time": 0, "type": "NormalMsg"}, "M_5949": {"note_status": 1, "channel": 9, "note": 42, "velocity": 34, "time": 0, "type": "NormalMsg"}, "M_5950": {"note_status": 1, "channel": 9, "note": 35, "velocity": 0, "time": 0, "type": "NormalMsg"}, "M_5951": {"note_status": 1, "channel": 9, "note": 42, "velocity": 0, "time": 0, "type": "NormalMsg"}, "M_5952": {"note_status": 1, "channel": 9, "note": 42, "velocity": 58, "time": 0, "type": "NormalMsg"}, "M_5953": {"note_status": 1, "channel": 9, "note": 42, "velocity": 0, "time": 0, "type": "NormalMsg"}, "M_5954": {"note_status": 1, "channel": 9, "note": 35, "velocity": 112, "time": 0, "type": "NormalMsg"}, "M_5955": {"note_status": 1, "channel": 9, "note": 38, "velocity": 90, "time": 0, "type": "NormalMsg"}, "M_5956": {"note_status": 1, "channel": 9, "note": 42, "velocity": 34, "time": 0, "type": "NormalMsg"}, "M_5957": {"note_status": 1, "channel": 9, "note": 35, "velocity": 0, "time": 0, "type": "NormalMsg"}, "M_5958": {"note_status": 1, "channel": 9, "note": 38, "velocity": 0, "time": 0, "type": "NormalMsg"}, "M_5959": {"note_status": 1, "channel": 9, "note": 42, "velocity": 0, "time": 0, "type": "NormalMsg"}, "M_5960": {"note_status": 1, "channel": 9, "note": 42, "velocity": 58, "time": 0, "type": "NormalMsg"}, "M_5961": {"note_status": 1, "channel": 9, "note": 42, "velocity": 0, "time": 0, "type": "NormalMsg"}, "M_5962": {"note_status": 1, "channel": 9, "note": 35, "velocity": 112, "time": 0, "type": "NormalMsg"}, "M_5963": {"note_status": 1, "channel": 9, "note": 42, "velocity": 34, "time": 0, "type": "NormalMsg"}, "M_5964": {"note_status": 1, "channel": 9, "note": 35, "velocity": 0, "time": 0, "type": "NormalMsg"}, "M_5965": {"note_status": 1, "channel": 9, "note": 42, "velocity": 0, "time": 0, "type": "NormalMsg"}, "M_5966": {"note_status": 1, "channel": 9, "note": 42, "velocity": 58, "time": 0, "type": "NormalMsg"}, "M_5967": {"note_status": 1, "channel": 9, "note": 42, "velocity": 0, "time": 0, "type": "NormalMsg"}, "M_5968": {"note_status": 1, "channel": 9, "note": 35, "velocity": 112, "time": 0, "type": "NormalMsg"}, "M_5969": {"note_status": 1, "channel": 9, "note": 38, "velocity": 90, "time": 0, "type": "NormalMsg"}, "M_5970": {"note_status": 1, "channel": 9, "note": 42, "velocity": 34, "time": 0, "type": "NormalMsg"}, "M_5971": {"note_status": 1, "channel": 9, "note": 35, "velocity": 0, "time": 0, "type": "NormalMsg"}, "M_5972": {"note_status": 1, "channel": 9, "note": 38, "velocity": 0, "time": 0, "type": "NormalMsg"}, "M_5973": {"note_status": 1, "channel": 9, "note": 42, "velocity": 0, "time": 0, "type": "NormalMsg"}, "M_5974": {"note_status": 1, "channel": 9, "note": 42, "velocity": 58, "time": 0, "type": "NormalMsg"}, "M_5975": {"note_status": 1, "channel": 9, "note": 42, "velocity": 0, "time": 0, "type": "NormalMsg"}, "M_5976": {"note_status": 1, "channel": 9, "note": 42, "velocity": 58, "time": 0, "type": "NormalMsg"}, "M_5977": {"note_status": 1, "channel": 9, "note": 42, "velocity": 0, "time": 0, "type": "NormalMsg"}, "M_5978": {"note_status": 1, "channel": 9, "note": 35, "velocity": 112, "time": 0, "type": "NormalMsg"}, "M_5979": {"note_status": 1, "channel": 9, "note": 42, "velocity": 34, "time": 0, "type": "NormalMsg"}, "M_5980": {"note_status": 1, "channel": 9, "note": 35, "velocity": 0, "time": 0, "type": "NormalMsg"}, "M_5981": {"note_status": 1, "channel": 9, "note": 42, "velocity": 0, "time": 0, "type": "NormalMsg"}, "M_5982": {"note_status": 1, "channel": 9, "note": 42, "velocity": 58, "time": 0, "type": "NormalMsg"}, "M_5983": {"note_status": 1, "channel": 9, "note": 42, "velocity": 0, "time": 0, "type": "NormalMsg"}, "M_5984": {"note_status": 1, "channel": 9, "note": 35, "velocity": 112, "time": 0, "type": "NormalMsg"}, "M_5985": {"note_status": 1, "channel": 9, "note": 38, "velocity": 90, "time": 0, "type": "NormalMsg"}, "M_5986": {"note_status": 1, "channel": 9, "note": 42, "velocity": 34, "time": 0, "type": "NormalMsg"}, "M_5987": {"note_status": 1, "channel": 9, "note": 35, "velocity": 0, "time": 0, "type": "NormalMsg"}, "M_5988": {"note_status": 1, "channel": 9, "note": 38, "velocity": 0, "time": 0, "type": "NormalMsg"}, "M_5989": {"note_status": 1, "channel": 9, "note": 42, "velocity": 0, "time": 0, "type": "NormalMsg"}, "M_5990": {"note_status": 1, "channel": 9, "note": 42, "velocity": 58, "time": 0, "type": "NormalMsg"}, "M_5991": {"note_status": 1, "channel": 9, "note": 42, "velocity": 0, "time": 0, "type": "NormalMsg"}, "M_5992": {"note_status": 1, "channel": 9, "note": 35, "velocity": 112, "time": 0, "type": "NormalMsg"}, "M_5993": {"note_status": 1, "channel": 9, "note": 42, "velocity": 34, "time": 0, "type": "NormalMsg"}, "M_5994": {"note_status": 1, "channel": 9, "note": 35, "velocity": 0, "time": 0, "type": "NormalMsg"}, "M_5995": {"note_status": 1, "channel": 9, "note": 42, "velocity": 0, "time": 0, "type": "NormalMsg"}, "M_5996": {"note_status": 1, "channel": 9, "note": 42, "velocity": 58, "time": 0, "type": "NormalMsg"}, "M_5997": {"note_status": 1, "channel": 9, "note": 42, "velocity": 0, "time": 0, "type": "NormalMsg"}, "M_5998": {"note_status": 1, "channel": 9, "note": 35, "velocity": 112, "time": 0, "type": "NormalMsg"}, "M_5999": {"note_status": 1, "channel": 9, "note": 38, "velocity": 90, "time": 0, "type": "NormalMsg"}, "M_6000": {"note_status": 1, "channel": 9, "note": 42, "velocity": 34, "time": 0, "type": "NormalMsg"}, "M_6001": {"note_status": 1, "channel": 9, "note": 35, "velocity": 0, "time": 0, "type": "NormalMsg"}, "M_6002": {"note_status": 1, "channel": 9, "note": 38, "velocity": 0, "time": 0, "type": "NormalMsg"}, "M_6003": {"note_status": 1, "channel": 9, "note": 42, "velocity": 0, "time": 0, "type": "NormalMsg"}, "M_6004": {"note_status": 1, "channel": 9, "note": 42, "velocity": 52, "time": 0, "type": "NormalMsg"}, "M_6005": {"note_status": 1, "channel": 9, "note": 42, "velocity": 0, "time": 0, "type": "NormalMsg"}, "M_6006": {"note_status": 1, "channel": 9, "note": 42, "velocity": 58, "time": 0, "type": "NormalMsg"}, "M_6007": {"note_status": 1, "channel": 9, "note": 42, "velocity": 0, "time": 0, "type": "NormalMsg"}, "M_6008": {"note_status": 1, "channel": 9, "note": 42, "velocity": 58, "time": 0, "type": "NormalMsg"}, "M_6009": {"note_status": 1, "channel": 9, "note": 42, "velocity": 0, "time": 0, "type": "NormalMsg"}, "M_6010": {"note_status": 1, "channel": 9, "note": 35, "velocity": 112, "time": 0, "type": "NormalMsg"}, "M_6011": {"note_status": 1, "channel": 9, "note": 42, "velocity": 34, "time": 0, "type": "NormalMsg"}, "M_6012": {"note_status": 1, "channel": 9, "note": 35, "velocity": 0, "time": 0, "type": "NormalMsg"}, "M_6013": {"note_status": 1, "channel": 9, "note": 42, "velocity": 0, "time": 0, "type": "NormalMsg"}, "M_6014": {"note_status": 1, "channel": 9, "note": 42, "velocity": 58, "time": 0, "type": "NormalMsg"}, "M_6015": {"note_status": 1, "channel": 9, "note": 42, "velocity": 0, "time": 0, "type": "NormalMsg"}, "M_6016": {"note_status": 1, "channel": 9, "note": 35, "velocity": 112, "time": 0, "type": "NormalMsg"}, "M_6017": {"note_status": 1, "channel": 9, "note": 38, "velocity": 90, "time": 0, "type": "NormalMsg"}, "M_6018": {"note_status": 1, "channel": 9, "note": 42, "velocity": 34, "time": 0, "type": "NormalMsg"}, "M_6019": {"note_status": 1, "channel": 9, "note": 35, "velocity": 0, "time": 0, "type": "NormalMsg"}, "M_6020": {"note_status": 1, "channel": 9, "note": 38, "velocity": 0, "time": 0, "type": "NormalMsg"}, "M_6021": {"note_status": 1, "channel": 9, "note": 42, "velocity": 0, "time": 0, "type": "NormalMsg"}, "M_6022": {"note_status": 1, "channel": 9, "note": 42, "velocity": 58, "time": 0, "type": "NormalMsg"}, "M_6023": {"note_status": 1, "channel": 9, "note": 42, "velocity": 0, "time": 0, "type": "NormalMsg"}, "M_6024": {"note_status": 1, "channel": 9, "note": 35, "velocity": 112, "time": 0, "type": "NormalMsg"}, "M_6025": {"note_status": 1, "channel": 9, "note": 42, "velocity": 34, "time": 0, "type": "NormalMsg"}, "M_6026": {"note_status": 1, "channel": 9, "note": 35, "velocity": 0, "time": 0, "type": "NormalMsg"}, "M_6027": {"note_status": 1, "channel": 9, "note": 42, "velocity": 0, "time": 0, "type": "NormalMsg"}, "M_6028": {"note_status": 1, "channel": 9, "note": 42, "velocity": 58, "time": 0, "type": "NormalMsg"}, "M_6029": {"note_status": 1, "channel": 9, "note": 42, "velocity": 0, "time": 0, "type": "NormalMsg"}, "M_6030": {"note_status": 1, "channel": 9, "note": 35, "velocity": 112, "time": 0, "type": "NormalMsg"}, "M_6031": {"note_status": 1, "channel": 9, "note": 38, "velocity": 90, "time": 0, "type": "NormalMsg"}, "M_6032": {"note_status": 1, "channel": 9, "note": 42, "velocity": 34, "time": 0, "type": "NormalMsg"}, "M_6033": {"note_status": 1, "channel": 9, "note": 35, "velocity": 0, "time": 0, "type": "NormalMsg"}, "M_6034": {"note_status": 1, "channel": 9, "note": 38, "velocity": 0, "time": 0, "type": "NormalMsg"}, "M_6035": {"note_status": 1, "channel": 9, "note": 42, "velocity": 0, "time": 0, "type": "NormalMsg"}, "M_6036": {"note_status": 1, "channel": 9, "note": 42, "velocity": 58, "time": 0, "type": "NormalMsg"}, "M_6037": {"note_status": 1, "channel": 9, "note": 42, "velocity": 0, "time": 0, "type": "NormalMsg"}, "M_6038": {"note_status": 1, "channel": 9, "note": 42, "velocity": 58, "time": 0, "type": "NormalMsg"}, "M_6039": {"note_status": 1, "channel": 9, "note": 42, "velocity": 0, "time": 0, "type": "NormalMsg"}, "M_6040": {"note_status": 1, "channel": 9, "note": 35, "velocity": 112, "time": 0, "type": "NormalMsg"}, "M_6041": {"note_status": 1, "channel": 9, "note": 42, "velocity": 34, "time": 0, "type": "NormalMsg"}, "M_6042": {"note_status": 1, "channel": 9, "note": 35, "velocity": 0, "time": 0, "type": "NormalMsg"}, "M_6043": {"note_status": 1, "channel": 9, "note": 42, "velocity": 0, "time": 0, "type": "NormalMsg"}, "M_6044": {"note_status": 1, "channel": 9, "note": 42, "velocity": 58, "time": 0, "type": "NormalMsg"}, "M_6045": {"note_status": 1, "channel": 9, "note": 42, "velocity": 0, "time": 0, "type": "NormalMsg"}, "M_6046": {"note_status": 1, "channel": 9, "note": 35, "velocity": 112, "time": 0, "type": "NormalMsg"}, "M_6047": {"note_status": 1, "channel": 9, "note": 38, "velocity": 90, "time": 0, "type": "NormalMsg"}, "M_6048": {"note_status": 1, "channel": 9, "note": 42, "velocity": 34, "time": 0, "type": "NormalMsg"}, "M_6049": {"note_status": 1, "channel": 9, "note": 35, "velocity": 0, "time": 0, "type": "NormalMsg"}, "M_6050": {"note_status": 1, "channel": 9, "note": 38, "velocity": 0, "time": 0, "type": "NormalMsg"}, "M_6051": {"note_status": 1, "channel": 9, "note": 42, "velocity": 0, "time": 0, "type": "NormalMsg"}, "M_6052": {"note_status": 1, "channel": 9, "note": 42, "velocity": 58, "time": 0, "type": "NormalMsg"}, "M_6053": {"note_status": 1, "channel": 9, "note": 42, "velocity": 0, "time": 0, "type": "NormalMsg"}, "M_6054": {"note_status": 1, "channel": 9, "note": 35, "velocity": 112, "time": 0, "type": "NormalMsg"}, "M_6055": {"note_status": 1, "channel": 9, "note": 42, "velocity": 34, "time": 0, "type": "NormalMsg"}, "M_6056": {"note_status": 1, "channel": 9, "note": 35, "velocity": 0, "time": 0, "type": "NormalMsg"}, "M_6057": {"note_status": 1, "channel": 9, "note": 42, "velocity": 0, "time": 0, "type": "NormalMsg"}, "M_6058": {"note_status": 1, "channel": 9, "note": 42, "velocity": 58, "time": 0, "type": "NormalMsg"}, "M_6059": {"note_status": 1, "channel": 9, "note": 42, "velocity": 0, "time": 0, "type": "NormalMsg"}, "M_6060": {"note_status": 1, "channel": 9, "note": 35, "velocity": 112, "time": 0, "type": "NormalMsg"}, "M_6061": {"note_status": 1, "channel": 9, "note": 38, "velocity": 90, "time": 0, "type": "NormalMsg"}, "M_6062": {"note_status": 1, "channel": 9, "note": 42, "velocity": 34, "time": 0, "type": "NormalMsg"}, "M_6063": {"note_status": 1, "channel": 9, "note": 35, "velocity": 0, "time": 0, "type": "NormalMsg"}, "M_6064": {"note_status": 1, "channel": 9, "note": 38, "velocity": 0, "time": 0, "type": "NormalMsg"}, "M_6065": {"note_status": 1, "channel": 9, "note": 42, "velocity": 0, "time": 0, "type": "NormalMsg"}, "M_6066": {"note_status": 1, "channel": 9, "note": 42, "velocity": 52, "time": 0, "type": "NormalMsg"}, "M_6067": {"note_status": 1, "channel": 9, "note": 42, "velocity": 0, "time": 0, "type": "NormalMsg"}, "M_6068": {"note_status": 1, "channel": 9, "note": 38, "velocity": 98, "time": 0, "type": "NormalMsg"}, "M_6069": {"note_status": 1, "channel": 9, "note": 42, "velocity": 58, "time": 0, "type": "NormalMsg"}, "M_6070": {"note_status": 1, "channel": 9, "note": 38, "velocity": 0, "time": 0, "type": "NormalMsg"}, "M_6071": {"note_status": 1, "channel": 9, "note": 42, "velocity": 0, "time": 0, "type": "NormalMsg"}, "M_6072": {"note_status": 1, "channel": 9, "note": 38, "velocity": 90, "time": 0, "type": "NormalMsg"}, "M_6073": {"note_status": 1, "channel": 9, "note": 42, "velocity": 58, "time": 0, "type": "NormalMsg"}, "M_6074": {"note_status": 1, "channel": 9, "note": 38, "velocity": 0, "time": 0, "type": "NormalMsg"}, "M_6075": {"note_status": 1, "channel": 9, "note": 42, "velocity": 0, "time": 0, "type": "NormalMsg"}, "M_6076": {"note_status": 1, "channel": 9, "note": 35, "velocity": 112, "time": 0, "type": "NormalMsg"}, "M_6077": {"note_status": 1, "channel": 9, "note": 42, "velocity": 34, "time": 0, "type": "NormalMsg"}, "M_6078": {"note_status": 1, "channel": 9, "note": 35, "velocity": 0, "time": 0, "type": "NormalMsg"}, "M_6079": {"note_status": 1, "channel": 9, "note": 42, "velocity": 0, "time": 0, "type": "NormalMsg"}, "M_6080": {"note_status": 1, "channel": 9, "note": 42, "velocity": 58, "time": 0, "type": "NormalMsg"}, "M_6081": {"note_status": 1, "channel": 9, "note": 42, "velocity": 0, "time": 0, "type": "NormalMsg"}, "M_6082": {"note_status": 1, "channel": 9, "note": 35, "velocity": 112, "time": 0, "type": "NormalMsg"}, "M_6083": {"note_status": 1, "channel": 9, "note": 38, "velocity": 90, "time": 0, "type": "NormalMsg"}, "M_6084": {"note_status": 1, "channel": 9, "note": 42, "velocity": 34, "time": 0, "type": "NormalMsg"}, "M_6085": {"note_status": 1, "channel": 9, "note": 35, "velocity": 0, "time": 0, "type": "NormalMsg"}, "M_6086": {"note_status": 1, "channel": 9, "note": 38, "velocity": 0, "time": 0, "type": "NormalMsg"}, "M_6087": {"note_status": 1, "channel": 9, "note": 42, "velocity": 0, "time": 0, "type": "NormalMsg"}, "M_6088": {"note_status": 1, "channel": 9, "note": 42, "velocity": 58, "time": 0, "type": "NormalMsg"}, "M_6089": {"note_status": 1, "channel": 9, "note": 42, "velocity": 0, "time": 0, "type": "NormalMsg"}, "M_6090": {"note_status": 1, "channel": 9, "note": 35, "velocity": 112, "time": 0, "type": "NormalMsg"}, "M_6091": {"note_status": 1, "channel": 9, "note": 42, "velocity": 34, "time": 0, "type": "NormalMsg"}, "M_6092": {"note_status": 1, "channel": 9, "note": 35, "velocity": 0, "time": 0, "type": "NormalMsg"}, "M_6093": {"note_status": 1, "channel": 9, "note": 42, "velocity": 0, "time": 0, "type": "NormalMsg"}, "M_6094": {"note_status": 1, "channel": 9, "note": 42, "velocity": 58, "time": 0, "type": "NormalMsg"}, "M_6095": {"note_status": 1, "channel": 9, "note": 42, "velocity": 0, "time": 0, "type": "NormalMsg"}, "M_6096": {"note_status": 1, "channel": 9, "note": 35, "velocity": 112, "time": 0, "type": "NormalMsg"}, "M_6097": {"note_status": 1, "channel": 9, "note": 38, "velocity": 90, "time": 0, "type": "NormalMsg"}, "M_6098": {"note_status": 1, "channel": 9, "note": 42, "velocity": 34, "time": 0, "type": "NormalMsg"}, "M_6099": {"note_status": 1, "channel": 9, "note": 35, "velocity": 0, "time": 0, "type": "NormalMsg"}, "M_6100": {"note_status": 1, "channel": 9, "note": 38, "velocity": 0, "time": 0, "type": "NormalMsg"}, "M_6101": {"note_status": 1, "channel": 9, "note": 42, "velocity": 0, "time": 0, "type": "NormalMsg"}, "M_6102": {"note_status": 1, "channel": 9, "note": 42, "velocity": 58, "time": 0, "type": "NormalMsg"}, "M_6103": {"note_status": 1, "channel": 9, "note": 42, "velocity": 0, "time": 0, "type": "NormalMsg"}, "M_6104": {"note_status": 1, "channel": 9, "note": 42, "velocity": 58, "time": 0, "type": "NormalMsg"}, "M_6105": {"note_status": 1, "channel": 9, "note": 42, "velocity": 0, "time": 0, "type": "NormalMsg"}, "M_6106": {"note_status": 1, "channel": 9, "note": 35, "velocity": 112, "time": 0, "type": "NormalMsg"}, "M_6107": {"note_status": 1, "channel": 9, "note": 42, "velocity": 34, "time": 0, "type": "NormalMsg"}, "M_6108": {"note_status": 1, "channel": 9, "note": 35, "velocity": 0, "time": 0, "type": "NormalMsg"}, "M_6109": {"note_status": 1, "channel": 9, "note": 42, "velocity": 0, "time": 0, "type": "NormalMsg"}, "M_6110": {"note_status": 1, "channel": 9, "note": 42, "velocity": 58, "time": 0, "type": "NormalMsg"}, "M_6111": {"note_status": 1, "channel": 9, "note": 42, "velocity": 0, "time": 0, "type": "NormalMsg"}, "M_6112": {"note_status": 1, "channel": 9, "note": 35, "velocity": 112, "time": 0, "type": "NormalMsg"}, "M_6113": {"note_status": 1, "channel": 9, "note": 38, "velocity": 90, "time": 0, "type": "NormalMsg"}, "M_6114": {"note_status": 1, "channel": 9, "note": 42, "velocity": 34, "time": 0, "type": "NormalMsg"}, "M_6115": {"note_status": 1, "channel": 9, "note": 35, "velocity": 0, "time": 0, "type": "NormalMsg"}, "M_6116": {"note_status": 1, "channel": 9, "note": 38, "velocity": 0, "time": 0, "type": "NormalMsg"}, "M_6117": {"note_status": 1, "channel": 9, "note": 42, "velocity": 0, "time": 0, "type": "NormalMsg"}, "M_6118": {"note_status": 1, "channel": 9, "note": 42, "velocity": 58, "time": 0, "type": "NormalMsg"}, "M_6119": {"note_status": 1, "channel": 9, "note": 42, "velocity": 0, "time": 0, "type": "NormalMsg"}, "M_6120": {"note_status": 1, "channel": 9, "note": 35, "velocity": 112, "time": 0, "type": "NormalMsg"}, "M_6121": {"note_status": 1, "channel": 9, "note": 42, "velocity": 34, "time": 0, "type": "NormalMsg"}, "M_6122": {"note_status": 1, "channel": 9, "note": 35, "velocity": 0, "time": 0, "type": "NormalMsg"}, "M_6123": {"note_status": 1, "channel": 9, "note": 42, "velocity": 0, "time": 0, "type": "NormalMsg"}, "M_6124": {"note_status": 1, "channel": 9, "note": 42, "velocity": 58, "time": 0, "type": "NormalMsg"}, "M_6125": {"note_status": 1, "channel": 9, "note": 42, "velocity": 0, "time": 0, "type": "NormalMsg"}, "M_6126": {"note_status": 1, "channel": 9, "note": 35, "velocity": 112, "time": 0, "type": "NormalMsg"}, "M_6127": {"note_status": 1, "channel": 9, "note": 38, "velocity": 90, "time": 0, "type": "NormalMsg"}, "M_6128": {"note_status": 1, "channel": 9, "note": 42, "velocity": 34, "time": 0, "type": "NormalMsg"}, "M_6129": {"note_status": 1, "channel": 9, "note": 35, "velocity": 0, "time": 0, "type": "NormalMsg"}, "M_6130": {"note_status": 1, "channel": 9, "note": 38, "velocity": 0, "time": 0, "type": "NormalMsg"}, "M_6131": {"note_status": 1, "channel": 9, "note": 42, "velocity": 0, "time": 0, "type": "NormalMsg"}, "M_6132": {"note_status": 1, "channel": 9, "note": 42, "velocity": 52, "time": 0, "type": "NormalMsg"}, "M_6133": {"note_status": 1, "channel": 9, "note": 42, "velocity": 0, "time": 0, "type": "NormalMsg"}, "M_6134": {"note_status": 1, "channel": 9, "note": 42, "velocity": 58, "time": 0, "type": "NormalMsg"}, "M_6135": {"note_status": 1, "channel": 9, "note": 42, "velocity": 0, "time": 0, "type": "NormalMsg"}, "M_6136": {"note_status": 1, "channel": 9, "note": 42, "velocity": 58, "time": 0, "type": "NormalMsg"}, "M_6137": {"note_status": 1, "channel": 9, "note": 42, "velocity": 0, "time": 0, "type": "NormalMsg"}, "M_6138": {"note_status": 1, "channel": 9, "note": 35, "velocity": 112, "time": 0, "type": "NormalMsg"}, "M_6139": {"note_status": 1, "channel": 9, "note": 42, "velocity": 34, "time": 0, "type": "NormalMsg"}, "M_6140": {"note_status": 1, "channel": 9, "note": 35, "velocity": 0, "time": 0, "type": "NormalMsg"}, "M_6141": {"note_status": 1, "channel": 9, "note": 42, "velocity": 0, "time": 0, "type": "NormalMsg"}, "M_6142": {"note_status": 1, "channel": 9, "note": 42, "velocity": 58, "time": 0, "type": "NormalMsg"}, "M_6143": {"note_status": 1, "channel": 9, "note": 42, "velocity": 0, "time": 0, "type": "NormalMsg"}, "M_6144": {"note_status": 1, "channel": 9, "note": 35, "velocity": 112, "time": 0, "type": "NormalMsg"}, "M_6145": {"note_status": 1, "channel": 9, "note": 38, "velocity": 90, "time": 0, "type": "NormalMsg"}, "M_6146": {"note_status": 1, "channel": 9, "note": 42, "velocity": 34, "time": 0, "type": "NormalMsg"}, "M_6147": {"note_status": 1, "channel": 9, "note": 35, "velocity": 0, "time": 0, "type": "NormalMsg"}, "M_6148": {"note_status": 1, "channel": 9, "note": 38, "velocity": 0, "time": 0, "type": "NormalMsg"}, "M_6149": {"note_status": 1, "channel": 9, "note": 42, "velocity": 0, "time": 0, "type": "NormalMsg"}, "M_6150": {"note_status": 1, "channel": 9, "note": 42, "velocity": 58, "time": 0, "type": "NormalMsg"}, "M_6151": {"note_status": 1, "channel": 9, "note": 42, "velocity": 0, "time": 0, "type": "NormalMsg"}, "M_6152": {"note_status": 1, "channel": 9, "note": 35, "velocity": 112, "time": 0, "type": "NormalMsg"}, "M_6153": {"note_status": 1, "channel": 9, "note": 42, "velocity": 34, "time": 0, "type": "NormalMsg"}, "M_6154": {"note_status": 1, "channel": 9, "note": 35, "velocity": 0, "time": 0, "type": "NormalMsg"}, "M_6155": {"note_status": 1, "channel": 9, "note": 42, "velocity": 0, "time": 0, "type": "NormalMsg"}, "M_6156": {"note_status": 1, "channel": 9, "note": 42, "velocity": 58, "time": 0, "type": "NormalMsg"}, "M_6157": {"note_status": 1, "channel": 9, "note": 42, "velocity": 0, "time": 0, "type": "NormalMsg"}, "M_6158": {"note_status": 1, "channel": 9, "note": 35, "velocity": 112, "time": 0, "type": "NormalMsg"}, "M_6159": {"note_status": 1, "channel": 9, "note": 38, "velocity": 90, "time": 0, "type": "NormalMsg"}, "M_6160": {"note_status": 1, "channel": 9, "note": 42, "velocity": 34, "time": 0, "type": "NormalMsg"}, "M_6161": {"note_status": 1, "channel": 9, "note": 35, "velocity": 0, "time": 0, "type": "NormalMsg"}, "M_6162": {"note_status": 1, "channel": 9, "note": 38, "velocity": 0, "time": 0, "type": "NormalMsg"}, "M_6163": {"note_status": 1, "channel": 9, "note": 42, "velocity": 0, "time": 0, "type": "NormalMsg"}, "M_6164": {"note_status": 1, "channel": 9, "note": 42, "velocity": 58, "time": 0, "type": "NormalMsg"}, "M_6165": {"note_status": 1, "channel": 9, "note": 42, "velocity": 0, "time": 0, "type": "NormalMsg"}, "M_6166": {"note_status": 1, "channel": 9, "note": 42, "velocity": 58, "time": 0, "type": "NormalMsg"}, "M_6167": {"note_status": 1, "channel": 9, "note": 42, "velocity": 0, "time": 0, "type": "NormalMsg"}, "M_6168": {"note_status": 1, "channel": 9, "note": 35, "velocity": 112, "time": 0, "type": "NormalMsg"}, "M_6169": {"note_status": 1, "channel": 9, "note": 42, "velocity": 34, "time": 0, "type": "NormalMsg"}, "M_6170": {"note_status": 1, "channel": 9, "note": 35, "velocity": 0, "time": 0, "type": "NormalMsg"}, "M_6171": {"note_status": 1, "channel": 9, "note": 42, "velocity": 0, "time": 0, "type": "NormalMsg"}, "M_6172": {"note_status": 1, "channel": 9, "note": 42, "velocity": 58, "time": 0, "type": "NormalMsg"}, "M_6173": {"note_status": 1, "channel": 9, "note": 42, "velocity": 0, "time": 0, "type": "NormalMsg"}, "M_6174": {"note_status": 1, "channel": 9, "note": 35, "velocity": 112, "time": 0, "type": "NormalMsg"}, "M_6175": {"note_status": 1, "channel": 9, "note": 38, "velocity": 90, "time": 0, "type": "NormalMsg"}, "M_6176": {"note_status": 1, "channel": 9, "note": 42, "velocity": 34, "time": 0, "type": "NormalMsg"}, "M_6177": {"note_status": 1, "channel": 9, "note": 35, "velocity": 0, "time": 0, "type": "NormalMsg"}, "M_6178": {"note_status": 1, "channel": 9, "note": 38, "velocity": 0, "time": 0, "type": "NormalMsg"}, "M_6179": {"note_status": 1, "channel": 9, "note": 42, "velocity": 0, "time": 0, "type": "NormalMsg"}, "M_6180": {"note_status": 1, "channel": 9, "note": 42, "velocity": 58, "time": 0, "type": "NormalMsg"}, "M_6181": {"note_status": 1, "channel": 9, "note": 42, "velocity": 0, "time": 0, "type": "NormalMsg"}, "M_6182": {"note_status": 1, "channel": 9, "note": 35, "velocity": 112, "time": 0, "type": "NormalMsg"}, "M_6183": {"note_status": 1, "channel": 9, "note": 42, "velocity": 34, "time": 0, "type": "NormalMsg"}, "M_6184": {"note_status": 1, "channel": 9, "note": 35, "velocity": 0, "time": 0, "type": "NormalMsg"}, "M_6185": {"note_status": 1, "channel": 9, "note": 42, "velocity": 0, "time": 0, "type": "NormalMsg"}, "M_6186": {"note_status": 1, "channel": 9, "note": 42, "velocity": 58, "time": 0, "type": "NormalMsg"}, "M_6187": {"note_status": 1, "channel": 9, "note": 42, "velocity": 0, "time": 0, "type": "NormalMsg"}, "M_6188": {"note_status": 1, "channel": 9, "note": 35, "velocity": 112, "time": 0, "type": "NormalMsg"}, "M_6189": {"note_status": 1, "channel": 9, "note": 38, "velocity": 90, "time": 0, "type": "NormalMsg"}, "M_6190": {"note_status": 1, "channel": 9, "note": 42, "velocity": 34, "time": 0, "type": "NormalMsg"}, "M_6191": {"note_status": 1, "channel": 9, "note": 35, "velocity": 0, "time": 0, "type": "NormalMsg"}, "M_6192": {"note_status": 1, "channel": 9, "note": 38, "velocity": 0, "time": 0, "type": "NormalMsg"}, "M_6193": {"note_status": 1, "channel": 9, "note": 42, "velocity": 0, "time": 0, "type": "NormalMsg"}, "M_6194": {"note_status": 1, "channel": 9, "note": 42, "velocity": 52, "time": 0, "type": "NormalMsg"}, "M_6195": {"note_status": 1, "channel": 9, "note": 43, "velocity": 82, "time": 0, "type": "NormalMsg"}, "M_6196": {"note_status": 1, "channel": 9, "note": 42, "velocity": 0, "time": 0, "type": "NormalMsg"}, "M_6197": {"note_status": 1, "channel": 9, "note": 43, "velocity": 0, "time": 0, "type": "NormalMsg"}, "M_6198": {"note_status": 1, "channel": 9, "note": 41, "velocity": 90, "time": 0, "type": "NormalMsg"}, "M_6199": {"note_status": 1, "channel": 9, "note": 42, "velocity": 58, "time": 0, "type": "NormalMsg"}, "M_6200": {"note_status": 1, "channel": 9, "note": 41, "velocity": 0, "time": 0, "type": "NormalMsg"}, "M_6201": {"note_status": 1, "channel": 9, "note": 42, "velocity": 0, "time": 0, "type": "NormalMsg"}, "M_6202": {"note_status": 1, "channel": 9, "note": 41, "velocity": 90, "time": 0, "type": "NormalMsg"}, "M_6203": {"note_status": 1, "channel": 9, "note": 42, "velocity": 58, "time": 0, "type": "NormalMsg"}, "M_6204": {"note_status": 1, "channel": 9, "note": 41, "velocity": 0, "time": 0, "type": "NormalMsg"}, "M_6205": {"note_status": 1, "channel": 9, "note": 42, "velocity": 0, "time": 0, "type": "NormalMsg"}, "M_6206": {"note_status": 1, "channel": 9, "note": 35, "velocity": 112, "time": 0, "type": "NormalMsg"}, "M_6207": {"note_status": 1, "channel": 9, "note": 42, "velocity": 58, "time": 0, "type": "NormalMsg"}, "M_6208": {"note_status": 1, "channel": 9, "note": 35, "velocity": 0, "time": 0, "type": "NormalMsg"}, "M_6209": {"note_status": 1, "channel": 9, "note": 42, "velocity": 0, "time": 0, "type": "NormalMsg"}, "M_6210": {"note_status": 1, "channel": 9, "note": 42, "velocity": 52, "time": 0, "type": "NormalMsg"}, "M_6211": {"note_status": 1, "channel": 9, "note": 42, "velocity": 0, "time": 0, "type": "NormalMsg"}, "M_6212": {"note_status": 1, "channel": 9, "note": 42, "velocity": 45, "time": 0, "type": "NormalMsg"}, "M_6213": {"note_status": 1, "channel": 9, "note": 42, "velocity": 0, "time": 0, "type": "NormalMsg"}, "M_6214": {"note_status": 1, "channel": 9, "note": 42, "velocity": 45, "time": 0, "type": "NormalMsg"}, "M_6215": {"note_status": 1, "channel": 9, "note": 42, "velocity": 0, "time": 0, "type": "NormalMsg"}, "M_6216": {"note_status": 1, "channel": 9, "note": 35, "velocity": 112, "time": 0, "type": "NormalMsg"}, "M_6217": {"note_status": 1, "channel": 9, "note": 38, "velocity": 90, "time": 0, "type": "NormalMsg"}, "M_6218": {"note_status": 1, "channel": 9, "note": 42, "velocity": 58, "time": 0, "type": "NormalMsg"}, "M_6219": {"note_status": 1, "channel": 9, "note": 35, "velocity": 0, "time": 0, "type": "NormalMsg"}, "M_6220": {"note_status": 1, "channel": 9, "note": 38, "velocity": 0, "time": 0, "type": "NormalMsg"}, "M_6221": {"note_status": 1, "channel": 9, "note": 42, "velocity": 0, "time": 0, "type": "NormalMsg"}, "M_6222": {"note_status": 1, "channel": 9, "note": 42, "velocity": 52, "time": 0, "type": "NormalMsg"}, "M_6223": {"note_status": 1, "channel": 9, "note": 42, "velocity": 0, "time": 0, "type": "NormalMsg"}, "M_6224": {"note_status": 1, "channel": 9, "note": 42, "velocity": 45, "time": 0, "type": "NormalMsg"}, "M_6225": {"note_status": 1, "channel": 9, "note": 42, "velocity": 0, "time": 0, "type": "NormalMsg"}, "M_6226": {"note_status": 1, "channel": 9, "note": 42, "velocity": 45, "time": 0, "type": "NormalMsg"}, "M_6227": {"note_status": 1, "channel": 9, "note": 42, "velocity": 0, "time": 0, "type": "NormalMsg"}, "M_6228": {"note_status": 1, "channel": 9, "note": 35, "velocity": 112, "time": 0, "type": "NormalMsg"}, "M_6229": {"note_status": 1, "channel": 9, "note": 42, "velocity": 58, "time": 0, "type": "NormalMsg"}, "M_6230": {"note_status": 1, "channel": 9, "note": 35, "velocity": 0, "time": 0, "type": "NormalMsg"}, "M_6231": {"note_status": 1, "channel": 9, "note": 42, "velocity": 0, "time": 0, "type": "NormalMsg"}, "M_6232": {"note_status": 1, "channel": 9, "note": 42, "velocity": 52, "time": 0, "type": "NormalMsg"}, "M_6233": {"note_status": 1, "channel": 9, "note": 42, "velocity": 0, "time": 0, "type": "NormalMsg"}, "M_6234": {"note_status": 1, "channel": 9, "note": 42, "velocity": 58, "time": 0, "type": "NormalMsg"}, "M_6235": {"note_status": 1, "channel": 9, "note": 42, "velocity": 0, "time": 0, "type": "NormalMsg"}, "M_6236": {"note_status": 1, "channel": 9, "note": 42, "velocity": 58, "time": 0, "type": "NormalMsg"}, "M_6237": {"note_status": 1, "channel": 9, "note": 42, "velocity": 0, "time": 0, "type": "NormalMsg"}, "M_6238": {"note_status": 1, "channel": 9, "note": 35, "velocity": 112, "time": 0, "type": "NormalMsg"}, "M_6239": {"note_status": 1, "channel": 9, "note": 38, "velocity": 90, "time": 0, "type": "NormalMsg"}, "M_6240": {"note_status": 1, "channel": 9, "note": 42, "velocity": 58, "time": 0, "type": "NormalMsg"}, "M_6241": {"note_status": 1, "channel": 9, "note": 35, "velocity": 0, "time": 0, "type": "NormalMsg"}, "M_6242": {"note_status": 1, "channel": 9, "note": 38, "velocity": 0, "time": 0, "type": "NormalMsg"}, "M_6243": {"note_status": 1, "channel": 9, "note": 42, "velocity": 0, "time": 0, "type": "NormalMsg"}, "M_6244": {"note_status": 1, "channel": 9, "note": 42, "velocity": 52, "time": 0, "type": "NormalMsg"}, "M_6245": {"note_status": 1, "channel": 9, "note": 42, "velocity": 0, "time": 0, "type": "NormalMsg"}, "M_6246": {"note_status": 1, "channel": 9, "note": 42, "velocity": 45, "time": 0, "type": "NormalMsg"}, "M_6247": {"note_status": 1, "channel": 9, "note": 42, "velocity": 0, "time": 0, "type": "NormalMsg"}, "M_6248": {"note_status": 1, "channel": 9, "note": 42, "velocity": 45, "time": 0, "type": "NormalMsg"}, "M_6249": {"note_status": 1, "channel": 9, "note": 42, "velocity": 0, "time": 0, "type": "NormalMsg"}, "M_6250": {"note_status": 1, "channel": 9, "note": 35, "velocity": 112, "time": 0, "type": "NormalMsg"}, "M_6251": {"note_status": 1, "channel": 9, "note": 42, "velocity": 58, "time": 0, "type": "NormalMsg"}, "M_6252": {"note_status": 1, "channel": 9, "note": 35, "velocity": 0, "time": 0, "type": "NormalMsg"}, "M_6253": {"note_status": 1, "channel": 9, "note": 42, "velocity": 0, "time": 0, "type": "NormalMsg"}, "M_6254": {"note_status": 1, "channel": 9, "note": 42, "velocity": 52, "time": 0, "type": "NormalMsg"}, "M_6255": {"note_status": 1, "channel": 9, "note": 42, "velocity": 0, "time": 0, "type": "NormalMsg"}, "M_6256": {"note_status": 1, "channel": 9, "note": 42, "velocity": 45, "time": 0, "type": "NormalMsg"}, "M_6257": {"note_status": 1, "channel": 9, "note": 42, "velocity": 0, "time": 0, "type": "NormalMsg"}, "M_6258": {"note_status": 1, "channel": 9, "note": 42, "velocity": 45, "time": 0, "type": "NormalMsg"}, "M_6259": {"note_status": 1, "channel": 9, "note": 42, "velocity": 0, "time": 0, "type": "NormalMsg"}, "M_6260": {"note_status": 1, "channel": 9, "note": 35, "velocity": 112, "time": 0, "type": "NormalMsg"}, "M_6261": {"note_status": 1, "channel": 9, "note": 38, "velocity": 90, "time": 0, "type": "NormalMsg"}, "M_6262": {"note_status": 1, "channel": 9, "note": 42, "velocity": 58, "time": 0, "type": "NormalMsg"}, "M_6263": {"note_status": 1, "channel": 9, "note": 35, "velocity": 0, "time": 0, "type": "NormalMsg"}, "M_6264": {"note_status": 1, "channel": 9, "note": 38, "velocity": 0, "time": 0, "type": "NormalMsg"}, "M_6265": {"note_status": 1, "channel": 9, "note": 42, "velocity": 0, "time": 0, "type": "NormalMsg"}, "M_6266": {"note_status": 1, "channel": 9, "note": 42, "velocity": 52, "time": 0, "type": "NormalMsg"}, "M_6267": {"note_status": 1, "channel": 9, "note": 42, "velocity": 0, "time": 0, "type": "NormalMsg"}, "M_6268": {"note_status": 1, "channel": 9, "note": 42, "velocity": 45, "time": 0, "type": "NormalMsg"}, "M_6269": {"note_status": 1, "channel": 9, "note": 42, "velocity": 0, "time": 0, "type": "NormalMsg"}, "M_6270": {"note_status": 1, "channel": 9, "note": 42, "velocity": 45, "time": 0, "type": "NormalMsg"}, "M_6271": {"note_status": 1, "channel": 9, "note": 42, "velocity": 0, "time": 0, "type": "NormalMsg"}, "M_6272": {"note_status": 1, "channel": 9, "note": 35, "velocity": 112, "time": 0, "type": "NormalMsg"}, "M_6273": {"note_status": 1, "channel": 9, "note": 42, "velocity": 58, "time": 0, "type": "NormalMsg"}, "M_6274": {"note_status": 1, "channel": 9, "note": 35, "velocity": 0, "time": 0, "type": "NormalMsg"}, "M_6275": {"note_status": 1, "channel": 9, "note": 42, "velocity": 0, "time": 0, "type": "NormalMsg"}, "M_6276": {"note_status": 1, "channel": 9, "note": 42, "velocity": 52, "time": 0, "type": "NormalMsg"}, "M_6277": {"note_status": 1, "channel": 9, "note": 42, "velocity": 0, "time": 0, "type": "NormalMsg"}, "M_6278": {"note_status": 1, "channel": 9, "note": 42, "velocity": 58, "time": 0, "type": "NormalMsg"}, "M_6279": {"note_status": 1, "channel": 9, "note": 42, "velocity": 0, "time": 0, "type": "NormalMsg"}, "M_6280": {"note_status": 1, "channel": 9, "note": 42, "velocity": 58, "time": 0, "type": "NormalMsg"}, "M_6281": {"note_status": 1, "channel": 9, "note": 42, "velocity": 0, "time": 0, "type": "NormalMsg"}, "M_6282": {"note_status": 1, "channel": 9, "note": 35, "velocity": 112, "time": 0, "type": "NormalMsg"}, "M_6283": {"note_status": 1, "channel": 9, "note": 38, "velocity": 90, "time": 0, "type": "NormalMsg"}, "M_6284": {"note_status": 1, "channel": 9, "note": 42, "velocity": 58, "time": 0, "type": "NormalMsg"}, "M_6285": {"note_status": 1, "channel": 9, "note": 35, "velocity": 0, "time": 0, "type": "NormalMsg"}, "M_6286": {"note_status": 1, "channel": 9, "note": 38, "velocity": 0, "time": 0, "type": "NormalMsg"}, "M_6287": {"note_status": 1, "channel": 9, "note": 42, "velocity": 0, "time": 0, "type": "NormalMsg"}, "M_6288": {"note_status": 1, "channel": 9, "note": 42, "velocity": 52, "time": 0, "type": "NormalMsg"}, "M_6289": {"note_status": 1, "channel": 9, "note": 42, "velocity": 0, "time": 0, "type": "NormalMsg"}, "M_6290": {"note_status": 1, "channel": 9, "note": 42, "velocity": 45, "time": 0, "type": "NormalMsg"}, "M_6291": {"note_status": 1, "channel": 9, "note": 42, "velocity": 0, "time": 0, "type": "NormalMsg"}, "M_6292": {"note_status": 1, "channel": 9, "note": 42, "velocity": 45, "time": 0, "type": "NormalMsg"}, "M_6293": {"note_status": 1, "channel": 9, "note": 42, "velocity": 0, "time": 0, "type": "NormalMsg"}, "M_6294": {"note_status": 1, "channel": 9, "note": 35, "velocity": 112, "time": 0, "type": "NormalMsg"}, "M_6295": {"note_status": 1, "channel": 9, "note": 42, "velocity": 58, "time": 0, "type": "NormalMsg"}, "M_6296": {"note_status": 1, "channel": 9, "note": 35, "velocity": 0, "time": 0, "type": "NormalMsg"}, "M_6297": {"note_status": 1, "channel": 9, "note": 42, "velocity": 0, "time": 0, "type": "NormalMsg"}, "M_6298": {"note_status": 1, "channel": 9, "note": 42, "velocity": 52, "time": 0, "type": "NormalMsg"}, "M_6299": {"note_status": 1, "channel": 9, "note": 42, "velocity": 0, "time": 0, "type": "NormalMsg"}, "M_6300": {"note_status": 1, "channel": 9, "note": 42, "velocity": 45, "time": 0, "type": "NormalMsg"}, "M_6301": {"note_status": 1, "channel": 9, "note": 42, "velocity": 0, "time": 0, "type": "NormalMsg"}, "M_6302": {"note_status": 1, "channel": 9, "note": 42, "velocity": 45, "time": 0, "type": "NormalMsg"}, "M_6303": {"note_status": 1, "channel": 9, "note": 42, "velocity": 0, "time": 0, "type": "NormalMsg"}, "M_6304": {"note_status": 1, "channel": 9, "note": 35, "velocity": 112, "time": 0, "type": "NormalMsg"}, "M_6305": {"note_status": 1, "channel": 9, "note": 38, "velocity": 90, "time": 0, "type": "NormalMsg"}, "M_6306": {"note_status": 1, "channel": 9, "note": 42, "velocity": 58, "time": 0, "type": "NormalMsg"}, "M_6307": {"note_status": 1, "channel": 9, "note": 35, "velocity": 0, "time": 0, "type": "NormalMsg"}, "M_6308": {"note_status": 1, "channel": 9, "note": 38, "velocity": 0, "time": 0, "type": "NormalMsg"}, "M_6309": {"note_status": 1, "channel": 9, "note": 42, "velocity": 0, "time": 0, "type": "NormalMsg"}, "M_6310": {"note_status": 1, "channel": 9, "note": 42, "velocity": 52, "time": 0, "type": "NormalMsg"}, "M_6311": {"note_status": 1, "channel": 9, "note": 42, "velocity": 0, "time": 0, "type": "NormalMsg"}, "M_6312": {"note_status": 1, "channel": 9, "note": 42, "velocity": 45, "time": 0, "type": "NormalMsg"}, "M_6313": {"note_status": 1, "channel": 9, "note": 42, "velocity": 0, "time": 0, "type": "NormalMsg"}, "M_6314": {"note_status": 1, "channel": 9, "note": 42, "velocity": 45, "time": 0, "type": "NormalMsg"}, "M_6315": {"note_status": 1, "channel": 9, "note": 42, "velocity": 0, "time": 0, "type": "NormalMsg"}, "M_6316": {"note_status": 1, "channel": 9, "note": 35, "velocity": 112, "time": 0, "type": "NormalMsg"}, "M_6317": {"note_status": 1, "channel": 9, "note": 42, "velocity": 58, "time": 0, "type": "NormalMsg"}, "M_6318": {"note_status": 1, "channel": 9, "note": 35, "velocity": 0, "time": 0, "type": "NormalMsg"}, "M_6319": {"note_status": 1, "channel": 9, "note": 42, "velocity": 0, "time": 0, "type": "NormalMsg"}, "M_6320": {"note_status": 1, "channel": 9, "note": 42, "velocity": 52, "time": 0, "type": "NormalMsg"}, "M_6321": {"note_status": 1, "channel": 9, "note": 42, "velocity": 0, "time": 0, "type": "NormalMsg"}, "M_6322": {"note_status": 1, "channel": 9, "note": 42, "velocity": 58, "time": 0, "type": "NormalMsg"}, "M_6323": {"note_status": 1, "channel": 9, "note": 42, "velocity": 0, "time": 0, "type": "NormalMsg"}, "M_6324": {"note_status": 1, "channel": 9, "note": 42, "velocity": 58, "time": 0, "type": "NormalMsg"}, "M_6325": {"note_status": 1, "channel": 9, "note": 42, "velocity": 0, "time": 0, "type": "NormalMsg"}, "M_6326": {"note_status": 1, "channel": 9, "note": 35, "velocity": 112, "time": 0, "type": "NormalMsg"}, "M_6327": {"note_status": 1, "channel": 9, "note": 38, "velocity": 90, "time": 0, "type": "NormalMsg"}, "M_6328": {"note_status": 1, "channel": 9, "note": 42, "velocity": 58, "time": 0, "type": "NormalMsg"}, "M_6329": {"note_status": 1, "channel": 9, "note": 35, "velocity": 0, "time": 0, "type": "NormalMsg"}, "M_6330": {"note_status": 1, "channel": 9, "note": 38, "velocity": 0, "time": 0, "type": "NormalMsg"}, "M_6331": {"note_status": 1, "channel": 9, "note": 42, "velocity": 0, "time": 0, "type": "NormalMsg"}, "M_6332": {"note_status": 1, "channel": 9, "note": 42, "velocity": 52, "time": 0, "type": "NormalMsg"}, "M_6333": {"note_status": 1, "channel": 9, "note": 52, "velocity": 70, "time": 0, "type": "NormalMsg"}, "M_6334": {"note_status": 1, "channel": 9, "note": 42, "velocity": 0, "time": 0, "type": "NormalMsg"}, "M_6335": {"note_status": 1, "channel": 9, "note": 52, "velocity": 0, "time": 0, "type": "NormalMsg"}, "M_6336": {"note_status": 1, "channel": 9, "note": 42, "velocity": 45, "time": 0, "type": "NormalMsg"}, "M_6337": {"note_status": 1, "channel": 9, "note": 42, "velocity": 0, "time": 0, "type": "NormalMsg"}, "M_6338": {"note_status": 1, "channel": 9, "note": 42, "velocity": 45, "time": 0, "type": "NormalMsg"}, "M_6339": {"note_status": 1, "channel": 9, "note": 42, "velocity": 0, "time": 0, "type": "NormalMsg"}, "M_6340": {"note_status": 1, "channel": 9, "note": 35, "velocity": 112, "time": 0, "type": "NormalMsg"}, "M_6341": {"note_status": 1, "channel": 9, "note": 42, "velocity": 58, "time": 0, "type": "NormalMsg"}, "M_6342": {"note_status": 1, "channel": 9, "note": 35, "velocity": 0, "time": 0, "type": "NormalMsg"}, "M_6343": {"note_status": 1, "channel": 9, "note": 42, "velocity": 0, "time": 0, "type": "NormalMsg"}, "M_6344": {"note_status": 1, "channel": 9, "note": 42, "velocity": 58, "time": 0, "type": "NormalMsg"}, "M_6345": {"note_status": 1, "channel": 9, "note": 42, "velocity": 0, "time": 0, "type": "NormalMsg"}, "M_6346": {"note_status": 1, "channel": 9, "note": 42, "velocity": 45, "time": 0, "type": "NormalMsg"}, "M_6347": {"note_status": 1, "channel": 9, "note": 42, "velocity": 0, "time": 0, "type": "NormalMsg"}, "M_6348": {"note_status": 1, "channel": 9, "note": 42, "velocity": 45, "time": 0, "type": "NormalMsg"}, "M_6349": {"note_status": 1, "channel": 9, "note": 42, "velocity": 0, "time": 0, "type": "NormalMsg"}, "M_6350": {"note_status": 1, "channel": 9, "note": 28, "velocity": 90, "time": 0, "type": "NormalMsg"}, "M_6351": {"note_status": 1, "channel": 9, "note": 35, "velocity": 112, "time": 0, "type": "NormalMsg"}, "M_6352": {"note_status": 1, "channel": 9, "note": 38, "velocity": 90, "time": 0, "type": "NormalMsg"}, "M_6353": {"note_status": 1, "channel": 9, "note": 40, "velocity": 78, "time": 0, "type": "NormalMsg"}, "M_6354": {"note_status": 1, "channel": 9, "note": 42, "velocity": 58, "time": 0, "type": "NormalMsg"}, "M_6355": {"note_status": 1, "channel": 9, "note": 28, "velocity": 0, "time": 0, "type": "NormalMsg"}, "M_6356": {"note_status": 1, "channel": 9, "note": 35, "velocity": 0, "time": 0, "type": "NormalMsg"}, "M_6357": {"note_status": 1, "channel": 9, "note": 38, "velocity": 0, "time": 0, "type": "NormalMsg"}, "M_6358": {"note_status": 1, "channel": 9, "note": 40, "velocity": 0, "time": 0, "type": "NormalMsg"}, "M_6359": {"note_status": 1, "channel": 9, "note": 42, "velocity": 0, "time": 0, "type": "NormalMsg"}, "M_6360": {"note_status": 1, "channel": 9, "note": 35, "velocity": 112, "time": 0, "type": "NormalMsg"}, "M_6361": {"note_status": 1, "channel": 9, "note": 38, "velocity": 90, "time": 0, "type": "NormalMsg"}, "M_6362": {"note_status": 1, "channel": 9, "note": 35, "velocity": 0, "time": 0, "type": "NormalMsg"}, "M_6363": {"note_status": 1, "channel": 9, "note": 38, "velocity": 0, "time": 0, "type": "NormalMsg"}, "M_6364": {"note_status": 1, "channel": 9, "note": 35, "velocity": 112, "time": 0, "type": "NormalMsg"}, "M_6365": {"note_status": 1, "channel": 9, "note": 38, "velocity": 90, "time": 0, "type": "NormalMsg"}, "M_6366": {"note_status": 1, "channel": 9, "note": 35, "velocity": 0, "time": 0, "type": "NormalMsg"}, "M_6367": {"note_status": 1, "channel": 9, "note": 38, "velocity": 0, "time": 0, "type": "NormalMsg"}, "M_6368": {"note_status": 1, "channel": 9, "note": 35, "velocity": 112, "time": 0, "type": "NormalMsg"}, "M_6369": {"note_status": 1, "channel": 9, "note": 38, "velocity": 90, "time": 0, "type": "NormalMsg"}, "M_6370": {"note_status": 1, "channel": 9, "note": 35, "velocity": 0, "time": 0, "type": "NormalMsg"}, "M_6371": {"note_status": 1, "channel": 9, "note": 38, "velocity": 0, "time": 0, "type": "NormalMsg"}, "M_6372": {"note_status": 1, "channel": 9, "note": 35, "velocity": 112, "time": 0, "type": "NormalMsg"}, "M_6373": {"note_status": 1, "channel": 9, "note": 38, "velocity": 90, "time": 0, "type": "NormalMsg"}, "M_6374": {"note_status": 1, "channel": 9, "note": 35, "velocity": 0, "time": 0, "type": "NormalMsg"}, "M_6375": {"note_status": 1, "channel": 9, "note": 38, "velocity": 0, "time": 0, "type": "NormalMsg"}, "M_6376": {"note_status": 1, "channel": 9, "note": 35, "velocity": 112, "time": 0, "type": "NormalMsg"}, "M_6377": {"note_status": 1, "channel": 9, "note": 42, "velocity": 58, "time": 0, "type": "NormalMsg"}, "M_6378": {"note_status": 1, "channel": 9, "note": 35, "velocity": 0, "time": 0, "type": "NormalMsg"}, "M_6379": {"note_status": 1, "channel": 9, "note": 42, "velocity": 0, "time": 0, "type": "NormalMsg"}, "M_6380": {"note_status": 1, "channel": 9, "note": 42, "velocity": 45, "time": 0, "type": "NormalMsg"}, "M_6381": {"note_status": 1, "channel": 9, "note": 42, "velocity": 0, "time": 0, "type": "NormalMsg"}, "M_6382": {"note_status": 1, "channel": 9, "note": 42, "velocity": 45, "time": 0, "type": "NormalMsg"}, "M_6383": {"note_status": 1, "channel": 9, "note": 42, "velocity": 0, "time": 0, "type": "NormalMsg"}, "M_6384": {"note_status": 1, "channel": 9, "note": 28, "velocity": 127, "time": 0, "type": "NormalMsg"}, "M_6385": {"note_status": 1, "channel": 9, "note": 35, "velocity": 112, "time": 0, "type": "NormalMsg"}, "M_6386": {"note_status": 1, "channel": 9, "note": 38, "velocity": 90, "time": 0, "type": "NormalMsg"}, "M_6387": {"note_status": 1, "channel": 9, "note": 42, "velocity": 58, "time": 0, "type": "NormalMsg"}, "M_6388": {"note_status": 1, "channel": 9, "note": 49, "velocity": 103, "time": 0, "type": "NormalMsg"}, "M_6389": {"note_status": 1, "channel": 9, "note": 28, "velocity": 0, "time": 0, "type": "NormalMsg"}, "M_6390": {"note_status": 1, "channel": 9, "note": 35, "velocity": 0, "time": 0, "type": "NormalMsg"}, "M_6391": {"note_status": 1, "channel": 9, "note": 38, "velocity": 0, "time": 0, "type": "NormalMsg"}, "M_6392": {"note_status": 1, "channel": 9, "note": 42, "velocity": 0, "time": 0, "type": "NormalMsg"}, "M_6393": {"note_status": 1, "channel": 9, "note": 49, "velocity": 0, "time": 0, "type": "NormalMsg"}, "M_6394": {"note_status": 1, "channel": 9, "note": 42, "velocity": 45, "time": 0, "type": "NormalMsg"}, "M_6395": {"note_status": 1, "channel": 9, "note": 42, "velocity": 0, "time": 0, "type": "NormalMsg"}, "M_6396": {"note_status": 1, "channel": 9, "note": 42, "velocity": 45, "time": 0, "type": "NormalMsg"}, "M_6397": {"note_status": 1, "channel": 9, "note": 42, "velocity": 0, "time": 0, "type": "NormalMsg"}, "M_6398": {"note_status": 1, "channel": 9, "note": 35, "velocity": 112, "time": 0, "type": "NormalMsg"}, "M_6399": {"note_status": 1, "channel": 9, "note": 42, "velocity": 58, "time": 0, "type": "NormalMsg"}, "M_6400": {"note_status": 1, "channel": 9, "note": 35, "velocity": 0, "time": 0, "type": "NormalMsg"}, "M_6401": {"note_status": 1, "channel": 9, "note": 42, "velocity": 0, "time": 0, "type": "NormalMsg"}, "M_6402": {"note_status": 1, "channel": 9, "note": 42, "velocity": 52, "time": 0, "type": "NormalMsg"}, "M_6403": {"note_status": 1, "channel": 9, "note": 42, "velocity": 0, "time": 0, "type": "NormalMsg"}, "M_6404": {"note_status": 1, "channel": 9, "note": 42, "velocity": 58, "time": 0, "type": "NormalMsg"}, "M_6405": {"note_status": 1, "channel": 9, "note": 42, "velocity": 0, "time": 0, "type": "NormalMsg"}, "M_6406": {"note_status": 1, "channel": 9, "note": 42, "velocity": 58, "time": 0, "type": "NormalMsg"}, "M_6407": {"note_status": 1, "channel": 9, "note": 42, "velocity": 0, "time": 0, "type": "NormalMsg"}, "M_6408": {"note_status": 1, "channel": 9, "note": 35, "velocity": 112, "time": 0, "type": "NormalMsg"}, "M_6409": {"note_status": 1, "channel": 9, "note": 38, "velocity": 90, "time": 0, "type": "NormalMsg"}, "M_6410": {"note_status": 1, "channel": 9, "note": 42, "velocity": 58, "time": 0, "type": "NormalMsg"}, "M_6411": {"note_status": 1, "channel": 9, "note": 35, "velocity": 0, "time": 0, "type": "NormalMsg"}, "M_6412": {"note_status": 1, "channel": 9, "note": 38, "velocity": 0, "time": 0, "type": "NormalMsg"}, "M_6413": {"note_status": 1, "channel": 9, "note": 42, "velocity": 0, "time": 0, "type": "NormalMsg"}, "M_6414": {"note_status": 1, "channel": 9, "note": 42, "velocity": 45, "time": 0, "type": "NormalMsg"}, "M_6415": {"note_status": 1, "channel": 9, "note": 42, "velocity": 0, "time": 0, "type": "NormalMsg"}, "M_6416": {"note_status": 1, "channel": 9, "note": 42, "velocity": 45, "time": 0, "type": "NormalMsg"}, "M_6417": {"note_status": 1, "channel": 9, "note": 42, "velocity": 0, "time": 0, "type": "NormalMsg"}, "M_6418": {"note_status": 1, "channel": 9, "note": 35, "velocity": 112, "time": 0, "type": "NormalMsg"}, "M_6419": {"note_status": 1, "channel": 9, "note": 42, "velocity": 58, "time": 0, "type": "NormalMsg"}, "M_6420": {"note_status": 1, "channel": 9, "note": 35, "velocity": 0, "time": 0, "type": "NormalMsg"}, "M_6421": {"note_status": 1, "channel": 9, "note": 42, "velocity": 0, "time": 0, "type": "NormalMsg"}, "M_6422": {"note_status": 1, "channel": 9, "note": 42, "velocity": 45, "time": 0, "type": "NormalMsg"}, "M_6423": {"note_status": 1, "channel": 9, "note": 42, "velocity": 0, "time": 0, "type": "NormalMsg"}, "M_6424": {"note_status": 1, "channel": 9, "note": 42, "velocity": 45, "time": 0, "type": "NormalMsg"}, "M_6425": {"note_status": 1, "channel": 9, "note": 42, "velocity": 0, "time": 0, "type": "NormalMsg"}, "M_6426": {"note_status": 1, "channel": 9, "note": 35, "velocity": 112, "time": 0, "type": "NormalMsg"}, "M_6427": {"note_status": 1, "channel": 9, "note": 38, "velocity": 90, "time": 0, "type": "NormalMsg"}, "M_6428": {"note_status": 1, "channel": 9, "note": 42, "velocity": 58, "time": 0, "type": "NormalMsg"}, "M_6429": {"note_status": 1, "channel": 9, "note": 35, "velocity": 0, "time": 0, "type": "NormalMsg"}, "M_6430": {"note_status": 1, "channel": 9, "note": 38, "velocity": 0, "time": 0, "type": "NormalMsg"}, "M_6431": {"note_status": 1, "channel": 9, "note": 42, "velocity": 0, "time": 0, "type": "NormalMsg"}, "M_6432": {"note_status": 1, "channel": 9, "note": 42, "velocity": 45, "time": 0, "type": "NormalMsg"}, "M_6433": {"note_status": 1, "channel": 9, "note": 42, "velocity": 0, "time": 0, "type": "NormalMsg"}, "M_6434": {"note_status": 1, "channel": 9, "note": 42, "velocity": 45, "time": 0, "type": "NormalMsg"}, "M_6435": {"note_status": 1, "channel": 9, "note": 42, "velocity": 0, "time": 0, "type": "NormalMsg"}, "M_6436": {"note_status": 1, "channel": 9, "note": 35, "velocity": 112, "time": 0, "type": "NormalMsg"}, "M_6437": {"note_status": 1, "channel": 9, "note": 42, "velocity": 58, "time": 0, "type": "NormalMsg"}, "M_6438": {"note_status": 1, "channel": 9, "note": 35, "velocity": 0, "time": 0, "type": "NormalMsg"}, "M_6439": {"note_status": 1, "channel": 9, "note": 42, "velocity": 0, "time": 0, "type": "NormalMsg"}, "M_6440": {"note_status": 1, "channel": 9, "note": 42, "velocity": 33, "time": 0, "type": "NormalMsg"}, "M_6441": {"note_status": 1, "channel": 9, "note": 42, "velocity": 0, "time": 0, "type": "NormalMsg"}, "M_6442": {"note_status": 1, "channel": 9, "note": 42, "velocity": 58, "time": 0, "type": "NormalMsg"}, "M_6443": {"note_status": 1, "channel": 9, "note": 42, "velocity": 0, "time": 0, "type": "NormalMsg"}, "M_6444": {"note_status": 1, "channel": 9, "note": 42, "velocity": 58, "time": 0, "type": "NormalMsg"}, "M_6445": {"note_status": 1, "channel": 9, "note": 42, "velocity": 0, "time": 0, "type": "NormalMsg"}, "M_6446": {"note_status": 1, "channel": 9, "note": 35, "velocity": 112, "time": 0, "type": "NormalMsg"}, "M_6447": {"note_status": 1, "channel": 9, "note": 38, "velocity": 90, "time": 0, "type": "NormalMsg"}, "M_6448": {"note_status": 1, "channel": 9, "note": 42, "velocity": 58, "time": 0, "type": "NormalMsg"}, "M_6449": {"note_status": 1, "channel": 9, "note": 35, "velocity": 0, "time": 0, "type": "NormalMsg"}, "M_6450": {"note_status": 1, "channel": 9, "note": 38, "velocity": 0, "time": 0, "type": "NormalMsg"}, "M_6451": {"note_status": 1, "channel": 9, "note": 42, "velocity": 0, "time": 0, "type": "NormalMsg"}, "M_6452": {"note_status": 1, "channel": 9, "note": 42, "velocity": 45, "time": 0, "type": "NormalMsg"}, "M_6453": {"note_status": 1, "channel": 9, "note": 42, "velocity": 0, "time": 0, "type": "NormalMsg"}, "M_6454": {"note_status": 1, "channel": 9, "note": 42, "velocity": 45, "time": 0, "type": "NormalMsg"}, "M_6455": {"note_status": 1, "channel": 9, "note": 42, "velocity": 0, "time": 0, "type": "NormalMsg"}, "M_6456": {"note_status": 1, "channel": 9, "note": 35, "velocity": 112, "time": 0, "type": "NormalMsg"}, "M_6457": {"note_status": 1, "channel": 9, "note": 42, "velocity": 58, "time": 0, "type": "NormalMsg"}, "M_6458": {"note_status": 1, "channel": 9, "note": 35, "velocity": 0, "time": 0, "type": "NormalMsg"}, "M_6459": {"note_status": 1, "channel": 9, "note": 42, "velocity": 0, "time": 0, "type": "NormalMsg"}, "M_6460": {"note_status": 1, "channel": 9, "note": 42, "velocity": 45, "time": 0, "type": "NormalMsg"}, "M_6461": {"note_status": 1, "channel": 9, "note": 42, "velocity": 0, "time": 0, "type": "NormalMsg"}, "M_6462": {"note_status": 1, "channel": 9, "note": 42, "velocity": 45, "time": 0, "type": "NormalMsg"}, "M_6463": {"note_status": 1, "channel": 9, "note": 42, "velocity": 0, "time": 0, "type": "NormalMsg"}, "M_6464": {"note_status": 1, "channel": 9, "note": 35, "velocity": 112, "time": 0, "type": "NormalMsg"}, "M_6465": {"note_status": 1, "channel": 9, "note": 38, "velocity": 90, "time": 0, "type": "NormalMsg"}, "M_6466": {"note_status": 1, "channel": 9, "note": 42, "velocity": 58, "time": 0, "type": "NormalMsg"}, "M_6467": {"note_status": 1, "channel": 9, "note": 35, "velocity": 0, "time": 0, "type": "NormalMsg"}, "M_6468": {"note_status": 1, "channel": 9, "note": 38, "velocity": 0, "time": 0, "type": "NormalMsg"}, "M_6469": {"note_status": 1, "channel": 9, "note": 42, "velocity": 0, "time": 0, "type": "NormalMsg"}, "M_6470": {"note_status": 1, "channel": 9, "note": 42, "velocity": 45, "time": 0, "type": "NormalMsg"}, "M_6471": {"note_status": 1, "channel": 9, "note": 42, "velocity": 0, "time": 0, "type": "NormalMsg"}, "M_6472": {"note_status": 1, "channel": 9, "note": 42, "velocity": 45, "time": 0, "type": "NormalMsg"}, "M_6473": {"note_status": 1, "channel": 9, "note": 42, "velocity": 0, "time": 0, "type": "NormalMsg"}, "M_6474": {"note_status": 1, "channel": 9, "note": 35, "velocity": 112, "time": 0, "type": "NormalMsg"}, "M_6475": {"note_status": 1, "channel": 9, "note": 42, "velocity": 58, "time": 0, "type": "NormalMsg"}, "M_6476": {"note_status": 1, "channel": 9, "note": 35, "velocity": 0, "time": 0, "type": "NormalMsg"}, "M_6477": {"note_status": 1, "channel": 9, "note": 42, "velocity": 0, "time": 0, "type": "NormalMsg"}, "M_6478": {"note_status": 1, "channel": 9, "note": 42, "velocity": 52, "time": 0, "type": "NormalMsg"}, "M_6479": {"note_status": 1, "channel": 9, "note": 42, "velocity": 0, "time": 0, "type": "NormalMsg"}, "M_6480": {"note_status": 1, "channel": 9, "note": 42, "velocity": 58, "time": 0, "type": "NormalMsg"}, "M_6481": {"note_status": 1, "channel": 9, "note": 42, "velocity": 0, "time": 0, "type": "NormalMsg"}, "M_6482": {"note_status": 1, "channel": 9, "note": 42, "velocity": 58, "time": 0, "type": "NormalMsg"}, "M_6483": {"note_status": 1, "channel": 9, "note": 42, "velocity": 0, "time": 0, "type": "NormalMsg"}, "M_6484": {"note_status": 1, "channel": 9, "note": 35, "velocity": 112, "time": 0, "type": "NormalMsg"}, "M_6485": {"note_status": 1, "channel": 9, "note": 38, "velocity": 90, "time": 0, "type": "NormalMsg"}, "M_6486": {"note_status": 1, "channel": 9, "note": 42, "velocity": 58, "time": 0, "type": "NormalMsg"}, "M_6487": {"note_status": 1, "channel": 9, "note": 35, "velocity": 0, "time": 0, "type": "NormalMsg"}, "M_6488": {"note_status": 1, "channel": 9, "note": 38, "velocity": 0, "time": 0, "type": "NormalMsg"}, "M_6489": {"note_status": 1, "channel": 9, "note": 42, "velocity": 0, "time": 0, "type": "NormalMsg"}, "M_6490": {"note_status": 1, "channel": 9, "note": 42, "velocity": 45, "time": 0, "type": "NormalMsg"}, "M_6491": {"note_status": 1, "channel": 9, "note": 42, "velocity": 0, "time": 0, "type": "NormalMsg"}, "M_6492": {"note_status": 1, "channel": 9, "note": 42, "velocity": 45, "time": 0, "type": "NormalMsg"}, "M_6493": {"note_status": 1, "channel": 9, "note": 42, "velocity": 0, "time": 0, "type": "NormalMsg"}, "M_6494": {"note_status": 1, "channel": 9, "note": 35, "velocity": 112, "time": 0, "type": "NormalMsg"}, "M_6495": {"note_status": 1, "channel": 9, "note": 42, "velocity": 58, "time": 0, "type": "NormalMsg"}, "M_6496": {"note_status": 1, "channel": 9, "note": 35, "velocity": 0, "time": 0, "type": "NormalMsg"}, "M_6497": {"note_status": 1, "channel": 9, "note": 42, "velocity": 0, "time": 0, "type": "NormalMsg"}, "M_6498": {"note_status": 1, "channel": 9, "note": 42, "velocity": 45, "time": 0, "type": "NormalMsg"}, "M_6499": {"note_status": 1, "channel": 9, "note": 42, "velocity": 0, "time": 0, "type": "NormalMsg"}, "M_6500": {"note_status": 1, "channel": 9, "note": 42, "velocity": 45, "time": 0, "type": "NormalMsg"}, "M_6501": {"note_status": 1, "channel": 9, "note": 42, "velocity": 0, "time": 0, "type": "NormalMsg"}, "M_6502": {"note_status": 1, "channel": 9, "note": 35, "velocity": 112, "time": 0, "type": "NormalMsg"}, "M_6503": {"note_status": 1, "channel": 9, "note": 38, "velocity": 90, "time": 0, "type": "NormalMsg"}, "M_6504": {"note_status": 1, "channel": 9, "note": 42, "velocity": 58, "time": 0, "type": "NormalMsg"}, "M_6505": {"note_status": 1, "channel": 9, "note": 35, "velocity": 0, "time": 0, "type": "NormalMsg"}, "M_6506": {"note_status": 1, "channel": 9, "note": 38, "velocity": 0, "time": 0, "type": "NormalMsg"}, "M_6507": {"note_status": 1, "channel": 9, "note": 42, "velocity": 0, "time": 0, "type": "NormalMsg"}, "M_6508": {"note_status": 1, "channel": 9, "note": 42, "velocity": 45, "time": 0, "type": "NormalMsg"}, "M_6509": {"note_status": 1, "channel": 9, "note": 42, "velocity": 0, "time": 0, "type": "NormalMsg"}, "M_6510": {"note_status": 1, "channel": 9, "note": 42, "velocity": 45, "time": 0, "type": "NormalMsg"}, "M_6511": {"note_status": 1, "channel": 9, "note": 42, "velocity": 0, "time": 0, "type": "NormalMsg"}, "M_6512": {"note_status": 1, "channel": 9, "note": 35, "velocity": 112, "time": 0, "type": "NormalMsg"}, "M_6513": {"note_status": 1, "channel": 9, "note": 42, "velocity": 58, "time": 0, "type": "NormalMsg"}, "M_6514": {"note_status": 1, "channel": 9, "note": 35, "velocity": 0, "time": 0, "type": "NormalMsg"}, "M_6515": {"note_status": 1, "channel": 9, "note": 42, "velocity": 0, "time": 0, "type": "NormalMsg"}, "M_6516": {"note_status": 1, "channel": 9, "note": 42, "velocity": 45, "time": 0, "type": "NormalMsg"}, "M_6517": {"note_status": 1, "channel": 9, "note": 42, "velocity": 0, "time": 0, "type": "NormalMsg"}, "M_6518": {"note_status": 1, "channel": 9, "note": 42, "velocity": 45, "time": 0, "type": "NormalMsg"}, "M_6519": {"note_status": 1, "channel": 9, "note": 42, "velocity": 0, "time": 0, "type": "NormalMsg"}, "M_6520": {"note_status": 1, "channel": 9, "note": 28, "velocity": 127, "time": 0, "type": "NormalMsg"}, "M_6521": {"note_status": 1, "channel": 9, "note": 35, "velocity": 112, "time": 0, "type": "NormalMsg"}, "M_6522": {"note_status": 1, "channel": 9, "note": 38, "velocity": 90, "time": 0, "type": "NormalMsg"}, "M_6523": {"note_status": 1, "channel": 9, "note": 42, "velocity": 58, "time": 0, "type": "NormalMsg"}, "M_6524": {"note_status": 1, "channel": 9, "note": 49, "velocity": 103, "time": 0, "type": "NormalMsg"}, "M_6525": {"note_status": 1, "channel": 9, "note": 28, "velocity": 0, "time": 0, "type": "NormalMsg"}, "M_6526": {"note_status": 1, "channel": 9, "note": 35, "velocity": 0, "time": 0, "type": "NormalMsg"}, "M_6527": {"note_status": 1, "channel": 9, "note": 38, "velocity": 0, "time": 0, "type": "NormalMsg"}, "M_6528": {"note_status": 1, "channel": 9, "note": 42, "velocity": 0, "time": 0, "type": "NormalMsg"}, "M_6529": {"note_status": 1, "channel": 9, "note": 49, "velocity": 0, "time": 0, "type": "NormalMsg"}, "M_6530": {"note_status": 1, "channel": 9, "note": 42, "velocity": 45, "time": 0, "type": "NormalMsg"}, "M_6531": {"note_status": 1, "channel": 9, "note": 42, "velocity": 0, "time": 0, "type": "NormalMsg"}, "M_6532": {"note_status": 1, "channel": 9, "note": 42, "velocity": 45, "time": 0, "type": "NormalMsg"}, "M_6533": {"note_status": 1, "channel": 9, "note": 42, "velocity": 0, "time": 0, "type": "NormalMsg"}, "M_6534": {"note_status": 1, "channel": 9, "note": 35, "velocity": 112, "time": 0, "type": "NormalMsg"}, "M_6535": {"note_status": 1, "channel": 9, "note": 42, "velocity": 58, "time": 0, "type": "NormalMsg"}, "M_6536": {"note_status": 1, "channel": 9, "note": 35, "velocity": 0, "time": 0, "type": "NormalMsg"}, "M_6537": {"note_status": 1, "channel": 9, "note": 42, "velocity": 0, "time": 0, "type": "NormalMsg"}, "M_6538": {"note_status": 1, "channel": 9, "note": 42, "velocity": 52, "time": 0, "type": "NormalMsg"}, "M_6539": {"note_status": 1, "channel": 9, "note": 42, "velocity": 0, "time": 0, "type": "NormalMsg"}, "M_6540": {"note_status": 1, "channel": 9, "note": 42, "velocity": 58, "time": 0, "type": "NormalMsg"}, "M_6541": {"note_status": 1, "channel": 9, "note": 42, "velocity": 0, "time": 0, "type": "NormalMsg"}, "M_6542": {"note_status": 1, "channel": 9, "note": 42, "velocity": 58, "time": 0, "type": "NormalMsg"}, "M_6543": {"note_status": 1, "channel": 9, "note": 42, "velocity": 0, "time": 0, "type": "NormalMsg"}, "M_6544": {"note_status": 1, "channel": 9, "note": 35, "velocity": 112, "time": 0, "type": "NormalMsg"}, "M_6545": {"note_status": 1, "channel": 9, "note": 38, "velocity": 90, "time": 0, "type": "NormalMsg"}, "M_6546": {"note_status": 1, "channel": 9, "note": 42, "velocity": 58, "time": 0, "type": "NormalMsg"}, "M_6547": {"note_status": 1, "channel": 9, "note": 35, "velocity": 0, "time": 0, "type": "NormalMsg"}, "M_6548": {"note_status": 1, "channel": 9, "note": 38, "velocity": 0, "time": 0, "type": "NormalMsg"}, "M_6549": {"note_status": 1, "channel": 9, "note": 42, "velocity": 0, "time": 0, "type": "NormalMsg"}, "M_6550": {"note_status": 1, "channel": 9, "note": 42, "velocity": 45, "time": 0, "type": "NormalMsg"}, "M_6551": {"note_status": 1, "channel": 9, "note": 42, "velocity": 0, "time": 0, "type": "NormalMsg"}, "M_6552": {"note_status": 1, "channel": 9, "note": 42, "velocity": 45, "time": 0, "type": "NormalMsg"}, "M_6553": {"note_status": 1, "channel": 9, "note": 42, "velocity": 0, "time": 0, "type": "NormalMsg"}, "M_6554": {"note_status": 1, "channel": 9, "note": 35, "velocity": 112, "time": 0, "type": "NormalMsg"}, "M_6555": {"note_status": 1, "channel": 9, "note": 42, "velocity": 58, "time": 0, "type": "NormalMsg"}, "M_6556": {"note_status": 1, "channel": 9, "note": 35, "velocity": 0, "time": 0, "type": "NormalMsg"}, "M_6557": {"note_status": 1, "channel": 9, "note": 42, "velocity": 0, "time": 0, "type": "NormalMsg"}, "M_6558": {"note_status": 1, "channel": 9, "note": 42, "velocity": 45, "time": 0, "type": "NormalMsg"}, "M_6559": {"note_status": 1, "channel": 9, "note": 42, "velocity": 0, "time": 0, "type": "NormalMsg"}, "M_6560": {"note_status": 1, "channel": 9, "note": 42, "velocity": 45, "time": 0, "type": "NormalMsg"}, "M_6561": {"note_status": 1, "channel": 9, "note": 42, "velocity": 0, "time": 0, "type": "NormalMsg"}, "M_6562": {"note_status": 1, "channel": 9, "note": 35, "velocity": 112, "time": 0, "type": "NormalMsg"}, "M_6563": {"note_status": 1, "channel": 9, "note": 38, "velocity": 90, "time": 0, "type": "NormalMsg"}, "M_6564": {"note_status": 1, "channel": 9, "note": 42, "velocity": 58, "time": 0, "type": "NormalMsg"}, "M_6565": {"note_status": 1, "channel": 9, "note": 35, "velocity": 0, "time": 0, "type": "NormalMsg"}, "M_6566": {"note_status": 1, "channel": 9, "note": 38, "velocity": 0, "time": 0, "type": "NormalMsg"}, "M_6567": {"note_status": 1, "channel": 9, "note": 42, "velocity": 0, "time": 0, "type": "NormalMsg"}, "M_6568": {"note_status": 1, "channel": 9, "note": 42, "velocity": 45, "time": 0, "type": "NormalMsg"}, "M_6569": {"note_status": 1, "channel": 9, "note": 42, "velocity": 0, "time": 0, "type": "NormalMsg"}, "M_6570": {"note_status": 1, "channel": 9, "note": 42, "velocity": 45, "time": 0, "type": "NormalMsg"}, "M_6571": {"note_status": 1, "channel": 9, "note": 42, "velocity": 0, "time": 0, "type": "NormalMsg"}, "M_6572": {"note_status": 1, "channel": 9, "note": 35, "velocity": 112, "time": 0, "type": "NormalMsg"}, "M_6573": {"note_status": 1, "channel": 9, "note": 42, "velocity": 58, "time": 0, "type": "NormalMsg"}, "M_6574": {"note_status": 1, "channel": 9, "note": 35, "velocity": 0, "time": 0, "type": "NormalMsg"}, "M_6575": {"note_status": 1, "channel": 9, "note": 42, "velocity": 0, "time": 0, "type": "NormalMsg"}, "M_6576": {"note_status": 1, "channel": 9, "note": 42, "velocity": 58, "time": 0, "type": "NormalMsg"}, "M_6577": {"note_status": 1, "channel": 9, "note": 42, "velocity": 0, "time": 0, "type": "NormalMsg"}, "M_6578": {"note_status": 1, "channel": 9, "note": 42, "velocity": 58, "time": 0, "type": "NormalMsg"}, "M_6579": {"note_status": 1, "channel": 9, "note": 42, "velocity": 0, "time": 0, "type": "NormalMsg"}, "M_6580": {"note_status": 1, "channel": 9, "note": 35, "velocity": 112, "time": 0, "type": "NormalMsg"}, "M_6581": {"note_status": 1, "channel": 9, "note": 38, "velocity": 90, "time": 0, "type": "NormalMsg"}, "M_6582": {"note_status": 1, "channel": 9, "note": 42, "velocity": 58, "time": 0, "type": "NormalMsg"}, "M_6583": {"note_status": 1, "channel": 9, "note": 35, "velocity": 0, "time": 0, "type": "NormalMsg"}, "M_6584": {"note_status": 1, "channel": 9, "note": 38, "velocity": 0, "time": 0, "type": "NormalMsg"}, "M_6585": {"note_status": 1, "channel": 9, "note": 42, "velocity": 0, "time": 0, "type": "NormalMsg"}, "M_6586": {"note_status": 1, "channel": 9, "note": 42, "velocity": 45, "time": 0, "type": "NormalMsg"}, "M_6587": {"note_status": 1, "channel": 9, "note": 42, "velocity": 0, "time": 0, "type": "NormalMsg"}, "M_6588": {"note_status": 1, "channel": 9, "note": 42, "velocity": 45, "time": 0, "type": "NormalMsg"}, "M_6589": {"note_status": 1, "channel": 9, "note": 42, "velocity": 0, "time": 0, "type": "NormalMsg"}, "M_6590": {"note_status": 1, "channel": 9, "note": 35, "velocity": 112, "time": 0, "type": "NormalMsg"}, "M_6591": {"note_status": 1, "channel": 9, "note": 42, "velocity": 58, "time": 0, "type": "NormalMsg"}, "M_6592": {"note_status": 1, "channel": 9, "note": 35, "velocity": 0, "time": 0, "type": "NormalMsg"}, "M_6593": {"note_status": 1, "channel": 9, "note": 42, "velocity": 0, "time": 0, "type": "NormalMsg"}, "M_6594": {"note_status": 1, "channel": 9, "note": 42, "velocity": 45, "time": 0, "type": "NormalMsg"}, "M_6595": {"note_status": 1, "channel": 9, "note": 42, "velocity": 0, "time": 0, "type": "NormalMsg"}, "M_6596": {"note_status": 1, "channel": 9, "note": 42, "velocity": 45, "time": 0, "type": "NormalMsg"}, "M_6597": {"note_status": 1, "channel": 9, "note": 42, "velocity": 0, "time": 0, "type": "NormalMsg"}, "M_6598": {"note_status": 1, "channel": 9, "note": 35, "velocity": 112, "time": 0, "type": "NormalMsg"}, "M_6599": {"note_status": 1, "channel": 9, "note": 38, "velocity": 90, "time": 0, "type": "NormalMsg"}, "M_6600": {"note_status": 1, "channel": 9, "note": 42, "velocity": 58, "time": 0, "type": "NormalMsg"}, "M_6601": {"note_status": 1, "channel": 9, "note": 35, "velocity": 0, "time": 0, "type": "NormalMsg"}, "M_6602": {"note_status": 1, "channel": 9, "note": 38, "velocity": 0, "time": 0, "type": "NormalMsg"}, "M_6603": {"note_status": 1, "channel": 9, "note": 42, "velocity": 0, "time": 0, "type": "NormalMsg"}, "M_6604": {"note_status": 1, "channel": 9, "note": 42, "velocity": 45, "time": 0, "type": "NormalMsg"}, "M_6605": {"note_status": 1, "channel": 9, "note": 42, "velocity": 0, "time": 0, "type": "NormalMsg"}, "M_6606": {"note_status": 1, "channel": 9, "note": 42, "velocity": 45, "time": 0, "type": "NormalMsg"}, "M_6607": {"note_status": 1, "channel": 9, "note": 42, "velocity": 0, "time": 0, "type": "NormalMsg"}, "M_6608": {"note_status": 1, "channel": 9, "note": 35, "velocity": 112, "time": 0, "type": "NormalMsg"}, "M_6609": {"note_status": 1, "channel": 9, "note": 42, "velocity": 58, "time": 0, "type": "NormalMsg"}, "M_6610": {"note_status": 1, "channel": 9, "note": 35, "velocity": 0, "time": 0, "type": "NormalMsg"}, "M_6611": {"note_status": 1, "channel": 9, "note": 42, "velocity": 0, "time": 0, "type": "NormalMsg"}, "M_6612": {"note_status": 1, "channel": 9, "note": 42, "velocity": 52, "time": 0, "type": "NormalMsg"}, "M_6613": {"note_status": 1, "channel": 9, "note": 42, "velocity": 0, "time": 0, "type": "NormalMsg"}, "M_6614": {"note_status": 1, "channel": 9, "note": 42, "velocity": 58, "time": 0, "type": "NormalMsg"}, "M_6615": {"note_status": 1, "channel": 9, "note": 42, "velocity": 0, "time": 0, "type": "NormalMsg"}, "M_6616": {"note_status": 1, "channel": 9, "note": 42, "velocity": 58, "time": 0, "type": "NormalMsg"}, "M_6617": {"note_status": 1, "channel": 9, "note": 42, "velocity": 0, "time": 0, "type": "NormalMsg"}, "M_6618": {"note_status": 1, "channel": 9, "note": 35, "velocity": 112, "time": 0, "type": "NormalMsg"}, "M_6619": {"note_status": 1, "channel": 9, "note": 38, "velocity": 90, "time": 0, "type": "NormalMsg"}, "M_6620": {"note_status": 1, "channel": 9, "note": 42, "velocity": 58, "time": 0, "type": "NormalMsg"}, "M_6621": {"note_status": 1, "channel": 9, "note": 35, "velocity": 0, "time": 0, "type": "NormalMsg"}, "M_6622": {"note_status": 1, "channel": 9, "note": 38, "velocity": 0, "time": 0, "type": "NormalMsg"}, "M_6623": {"note_status": 1, "channel": 9, "note": 42, "velocity": 0, "time": 0, "type": "NormalMsg"}, "M_6624": {"note_status": 1, "channel": 9, "note": 42, "velocity": 45, "time": 0, "type": "NormalMsg"}, "M_6625": {"note_status": 1, "channel": 9, "note": 42, "velocity": 0, "time": 0, "type": "NormalMsg"}, "M_6626": {"note_status": 1, "channel": 9, "note": 42, "velocity": 45, "time": 0, "type": "NormalMsg"}, "M_6627": {"note_status": 1, "channel": 9, "note": 42, "velocity": 0, "time": 0, "type": "NormalMsg"}, "M_6628": {"note_status": 1, "channel": 9, "note": 35, "velocity": 112, "time": 0, "type": "NormalMsg"}, "M_6629": {"note_status": 1, "channel": 9, "note": 42, "velocity": 58, "time": 0, "type": "NormalMsg"}, "M_6630": {"note_status": 1, "channel": 9, "note": 35, "velocity": 0, "time": 0, "type": "NormalMsg"}, "M_6631": {"note_status": 1, "channel": 9, "note": 42, "velocity": 0, "time": 0, "type": "NormalMsg"}, "M_6632": {"note_status": 1, "channel": 9, "note": 42, "velocity": 45, "time": 0, "type": "NormalMsg"}, "M_6633": {"note_status": 1, "channel": 9, "note": 42, "velocity": 0, "time": 0, "type": "NormalMsg"}, "M_6634": {"note_status": 1, "channel": 9, "note": 42, "velocity": 45, "time": 0, "type": "NormalMsg"}, "M_6635": {"note_status": 1, "channel": 9, "note": 42, "velocity": 0, "time": 0, "type": "NormalMsg"}, "M_6636": {"note_status": 1, "channel": 9, "note": 35, "velocity": 112, "time": 0, "type": "NormalMsg"}, "M_6637": {"note_status": 1, "channel": 9, "note": 38, "velocity": 90, "time": 0, "type": "NormalMsg"}, "M_6638": {"note_status": 1, "channel": 9, "note": 42, "velocity": 58, "time": 0, "type": "NormalMsg"}, "M_6639": {"note_status": 1, "channel": 9, "note": 35, "velocity": 0, "time": 0, "type": "NormalMsg"}, "M_6640": {"note_status": 1, "channel": 9, "note": 38, "velocity": 0, "time": 0, "type": "NormalMsg"}, "M_6641": {"note_status": 1, "channel": 9, "note": 42, "velocity": 0, "time": 0, "type": "NormalMsg"}, "M_6642": {"note_status": 1, "channel": 9, "note": 42, "velocity": 45, "time": 0, "type": "NormalMsg"}, "M_6643": {"note_status": 1, "channel": 9, "note": 42, "velocity": 0, "time": 0, "type": "NormalMsg"}, "M_6644": {"note_status": 1, "channel": 9, "note": 42, "velocity": 45, "time": 0, "type": "NormalMsg"}, "M_6645": {"note_status": 1, "channel": 9, "note": 42, "velocity": 0, "time": 0, "type": "NormalMsg"}, "M_6646": {"note_status": 1, "channel": 9, "note": 35, "velocity": 112, "time": 0, "type": "NormalMsg"}, "M_6647": {"note_status": 1, "channel": 9, "note": 38, "velocity": 90, "time": 0, "type": "NormalMsg"}, "M_6648": {"note_status": 1, "channel": 9, "note": 42, "velocity": 58, "time": 0, "type": "NormalMsg"}, "M_6649": {"note_status": 1, "channel": 9, "note": 35, "velocity": 0, "time": 0, "type": "NormalMsg"}, "M_6650": {"note_status": 1, "channel": 9, "note": 38, "velocity": 0, "time": 0, "type": "NormalMsg"}, "M_6651": {"note_status": 1, "channel": 9, "note": 42, "velocity": 0, "time": 0, "type": "NormalMsg"}, "M_6652": {"note_status": 1, "channel": 9, "note": 42, "velocity": 52, "time": 0, "type": "NormalMsg"}, "M_6653": {"note_status": 1, "channel": 9, "note": 42, "velocity": 0, "time": 0, "type": "NormalMsg"}, "M_6654": {"note_status": 1, "channel": 9, "note": 35, "velocity": 112, "time": 0, "type": "NormalMsg"}, "M_6655": {"note_status": 1, "channel": 9, "note": 38, "velocity": 90, "time": 0, "type": "NormalMsg"}, "M_6656": {"note_status": 1, "channel": 9, "note": 42, "velocity": 58, "time": 0, "type": "NormalMsg"}, "M_6657": {"note_status": 1, "channel": 9, "note": 35, "velocity": 0, "time": 0, "type": "NormalMsg"}, "M_6658": {"note_status": 1, "channel": 9, "note": 38, "velocity": 0, "time": 0, "type": "NormalMsg"}, "M_6659": {"note_status": 1, "channel": 9, "note": 42, "velocity": 0, "time": 0, "type": "NormalMsg"}, "M_6660": {"note_status": 1, "channel": 9, "note": 42, "velocity": 58, "time": 0, "type": "NormalMsg"}, "M_6661": {"note_status": 1, "channel": 9, "note": 42, "velocity": 0, "time": 0, "type": "NormalMsg"}, "M_6662": {"note_status": 1, "channel": 9, "note": 35, "velocity": 112, "time": 0, "type": "NormalMsg"}, "M_6663": {"note_status": 1, "channel": 9, "note": 38, "velocity": 90, "time": 0, "type": "NormalMsg"}, "M_6664": {"note_status": 1, "channel": 9, "note": 42, "velocity": 58, "time": 0, "type": "NormalMsg"}, "M_6665": {"note_status": 1, "channel": 9, "note": 35, "velocity": 0, "time": 0, "type": "NormalMsg"}, "M_6666": {"note_status": 1, "channel": 9, "note": 38, "velocity": 0, "time": 0, "type": "NormalMsg"}, "M_6667": {"note_status": 1, "channel": 9, "note": 42, "velocity": 0, "time": 0, "type": "NormalMsg"}, "M_6668": {"note_status": 1, "channel": 9, "note": 35, "velocity": 112, "time": 0, "type": "NormalMsg"}, "M_6669": {"note_status": 1, "channel": 9, "note": 38, "velocity": 90, "time": 0, "type": "NormalMsg"}, "M_6670": {"note_status": 1, "channel": 9, "note": 42, "velocity": 45, "time": 0, "type": "NormalMsg"}, "M_6671": {"note_status": 1, "channel": 9, "note": 35, "velocity": 0, "time": 0, "type": "NormalMsg"}, "M_6672": {"note_status": 1, "channel": 9, "note": 38, "velocity": 0, "time": 0, "type": "NormalMsg"}, "M_6673": {"note_status": 1, "channel": 9, "note": 42, "velocity": 0, "time": 0, "type": "NormalMsg"}, "M_6674": {"note_status": 1, "channel": 9, "note": 42, "velocity": 45, "time": 0, "type": "NormalMsg"}, "M_6675": {"note_status": 1, "channel": 9, "note": 42, "velocity": 0, "time": 0, "type": "NormalMsg"}, "M_6676": {"note_status": 1, "channel": 9, "note": 35, "velocity": 112, "time": 0, "type": "NormalMsg"}, "M_6677": {"note_status": 1, "channel": 9, "note": 42, "velocity": 58, "time": 0, "type": "NormalMsg"}, "M_6678": {"note_status": 1, "channel": 9, "note": 35, "velocity": 0, "time": 0, "type": "NormalMsg"}, "M_6679": {"note_status": 1, "channel": 9, "note": 42, "velocity": 0, "time": 0, "type": "NormalMsg"}, "M_6680": {"note_status": 1, "channel": 9, "note": 42, "velocity": 45, "time": 0, "type": "NormalMsg"}, "M_6681": {"note_status": 1, "channel": 9, "note": 42, "velocity": 0, "time": 0, "type": "NormalMsg"}, "M_6682": {"note_status": 1, "channel": 9, "note": 42, "velocity": 45, "time": 0, "type": "NormalMsg"}, "M_6683": {"note_status": 1, "channel": 9, "note": 42, "velocity": 0, "time": 0, "type": "NormalMsg"}, "M_6684": {"note_status": 1, "channel": 9, "note": 35, "velocity": 112, "time": 0, "type": "NormalMsg"}, "M_6685": {"note_status": 1, "channel": 9, "note": 38, "velocity": 90, "time": 0, "type": "NormalMsg"}, "M_6686": {"note_status": 1, "channel": 9, "note": 42, "velocity": 58, "time": 0, "type": "NormalMsg"}, "M_6687": {"note_status": 1, "channel": 9, "note": 35, "velocity": 0, "time": 0, "type": "NormalMsg"}, "M_6688": {"note_status": 1, "channel": 9, "note": 38, "velocity": 0, "time": 0, "type": "NormalMsg"}, "M_6689": {"note_status": 1, "channel": 9, "note": 42, "velocity": 0, "time": 0, "type": "NormalMsg"}, "M_6690": {"note_status": 1, "channel": 9, "note": 42, "velocity": 45, "time": 0, "type": "NormalMsg"}, "M_6691": {"note_status": 1, "channel": 9, "note": 42, "velocity": 0, "time": 0, "type": "NormalMsg"}, "M_6692": {"note_status": 1, "channel": 9, "note": 42, "velocity": 45, "time": 0, "type": "NormalMsg"}, "M_6693": {"note_status": 1, "channel": 9, "note": 42, "velocity": 0, "time": 0, "type": "NormalMsg"}, "M_6694": {"note_status": 1, "channel": 9, "note": 35, "velocity": 112, "time": 0, "type": "NormalMsg"}, "M_6695": {"note_status": 1, "channel": 9, "note": 42, "velocity": 58, "time": 0, "type": "NormalMsg"}, "M_6696": {"note_status": 1, "channel": 9, "note": 35, "velocity": 0, "time": 0, "type": "NormalMsg"}, "M_6697": {"note_status": 1, "channel": 9, "note": 42, "velocity": 0, "time": 0, "type": "NormalMsg"}, "M_6698": {"note_status": 1, "channel": 9, "note": 42, "velocity": 52, "time": 0, "type": "NormalMsg"}, "M_6699": {"note_status": 1, "channel": 9, "note": 42, "velocity": 0, "time": 0, "type": "NormalMsg"}, "M_6700": {"note_status": 1, "channel": 9, "note": 42, "velocity": 58, "time": 0, "type": "NormalMsg"}, "M_6701": {"note_status": 1, "channel": 9, "note": 42, "velocity": 0, "time": 0, "type": "NormalMsg"}, "M_6702": {"note_status": 1, "channel": 9, "note": 42, "velocity": 58, "time": 0, "type": "NormalMsg"}, "M_6703": {"note_status": 1, "channel": 9, "note": 42, "velocity": 0, "time": 0, "type": "NormalMsg"}, "M_6704": {"note_status": 1, "channel": 9, "note": 35, "velocity": 112, "time": 0, "type": "NormalMsg"}, "M_6705": {"note_status": 1, "channel": 9, "note": 38, "velocity": 90, "time": 0, "type": "NormalMsg"}, "M_6706": {"note_status": 1, "channel": 9, "note": 42, "velocity": 58, "time": 0, "type": "NormalMsg"}, "M_6707": {"note_status": 1, "channel": 9, "note": 35, "velocity": 0, "time": 0, "type": "NormalMsg"}, "M_6708": {"note_status": 1, "channel": 9, "note": 38, "velocity": 0, "time": 0, "type": "NormalMsg"}, "M_6709": {"note_status": 1, "channel": 9, "note": 42, "velocity": 0, "time": 0, "type": "NormalMsg"}, "M_6710": {"note_status": 1, "channel": 9, "note": 42, "velocity": 45, "time": 0, "type": "NormalMsg"}, "M_6711": {"note_status": 1, "channel": 9, "note": 42, "velocity": 0, "time": 0, "type": "NormalMsg"}, "M_6712": {"note_status": 1, "channel": 9, "note": 42, "velocity": 45, "time": 0, "type": "NormalMsg"}, "M_6713": {"note_status": 1, "channel": 9, "note": 42, "velocity": 0, "time": 0, "type": "NormalMsg"}, "M_6714": {"note_status": 1, "channel": 9, "note": 35, "velocity": 112, "time": 0, "type": "NormalMsg"}, "M_6715": {"note_status": 1, "channel": 9, "note": 42, "velocity": 58, "time": 0, "type": "NormalMsg"}, "M_6716": {"note_status": 1, "channel": 9, "note": 35, "velocity": 0, "time": 0, "type": "NormalMsg"}, "M_6717": {"note_status": 1, "channel": 9, "note": 42, "velocity": 0, "time": 0, "type": "NormalMsg"}, "M_6718": {"note_status": 1, "channel": 9, "note": 42, "velocity": 45, "time": 0, "type": "NormalMsg"}, "M_6719": {"note_status": 1, "channel": 9, "note": 42, "velocity": 0, "time": 0, "type": "NormalMsg"}, "M_6720": {"note_status": 1, "channel": 9, "note": 42, "velocity": 45, "time": 0, "type": "NormalMsg"}, "M_6721": {"note_status": 1, "channel": 9, "note": 42, "velocity": 0, "time": 0, "type": "NormalMsg"}, "M_6722": {"note_status": 1, "channel": 9, "note": 35, "velocity": 112, "time": 0, "type": "NormalMsg"}, "M_6723": {"note_status": 1, "channel": 9, "note": 38, "velocity": 90, "time": 0, "type": "NormalMsg"}, "M_6724": {"note_status": 1, "channel": 9, "note": 42, "velocity": 58, "time": 0, "type": "NormalMsg"}, "M_6725": {"note_status": 1, "channel": 9, "note": 35, "velocity": 0, "time": 0, "type": "NormalMsg"}, "M_6726": {"note_status": 1, "channel": 9, "note": 38, "velocity": 0, "time": 0, "type": "NormalMsg"}, "M_6727": {"note_status": 1, "channel": 9, "note": 42, "velocity": 0, "time": 0, "type": "NormalMsg"}, "M_6728": {"note_status": 1, "channel": 9, "note": 42, "velocity": 45, "time": 0, "type": "NormalMsg"}, "M_6729": {"note_status": 1, "channel": 9, "note": 42, "velocity": 0, "time": 0, "type": "NormalMsg"}, "M_6730": {"note_status": 1, "channel": 9, "note": 42, "velocity": 45, "time": 0, "type": "NormalMsg"}, "M_6731": {"note_status": 1, "channel": 9, "note": 42, "velocity": 0, "time": 0, "type": "NormalMsg"}, "M_6732": {"note_status": 1, "channel": 9, "note": 35, "velocity": 112, "time": 0, "type": "NormalMsg"}, "M_6733": {"note_status": 1, "channel": 9, "note": 38, "velocity": 90, "time": 0, "type": "NormalMsg"}, "M_6734": {"note_status": 1, "channel": 9, "note": 42, "velocity": 58, "time": 0, "type": "NormalMsg"}, "M_6735": {"note_status": 1, "channel": 9, "note": 35, "velocity": 0, "time": 0, "type": "NormalMsg"}, "M_6736": {"note_status": 1, "channel": 9, "note": 38, "velocity": 0, "time": 0, "type": "NormalMsg"}, "M_6737": {"note_status": 1, "channel": 9, "note": 42, "velocity": 0, "time": 0, "type": "NormalMsg"}, "M_6738": {"note_status": 1, "channel": 9, "note": 42, "velocity": 33, "time": 0, "type": "NormalMsg"}, "M_6739": {"note_status": 1, "channel": 9, "note": 42, "velocity": 0, "time": 0, "type": "NormalMsg"}, "M_6740": {"note_status": 1, "channel": 9, "note": 42, "velocity": 58, "time": 0, "type": "NormalMsg"}, "M_6741": {"note_status": 1, "channel": 9, "note": 42, "velocity": 0, "time": 0, "type": "NormalMsg"}, "M_6742": {"note_status": 1, "channel": 9, "note": 42, "velocity": 58, "time": 0, "type": "NormalMsg"}, "M_6743": {"note_status": 1, "channel": 9, "note": 42, "velocity": 0, "time": 0, "type": "NormalMsg"}, "M_6744": {"note_status": 1, "channel": 9, "note": 35, "velocity": 112, "time": 0, "type": "NormalMsg"}, "M_6745": {"note_status": 1, "channel": 9, "note": 38, "velocity": 90, "time": 0, "type": "NormalMsg"}, "M_6746": {"note_status": 1, "channel": 9, "note": 42, "velocity": 58, "time": 0, "type": "NormalMsg"}, "M_6747": {"note_status": 1, "channel": 9, "note": 35, "velocity": 0, "time": 0, "type": "NormalMsg"}, "M_6748": {"note_status": 1, "channel": 9, "note": 38, "velocity": 0, "time": 0, "type": "NormalMsg"}, "M_6749": {"note_status": 1, "channel": 9, "note": 42, "velocity": 0, "time": 0, "type": "NormalMsg"}, "M_6750": {"note_status": 1, "channel": 9, "note": 38, "velocity": 90, "time": 0, "type": "NormalMsg"}, "M_6751": {"note_status": 1, "channel": 9, "note": 42, "velocity": 45, "time": 0, "type": "NormalMsg"}, "M_6752": {"note_status": 1, "channel": 9, "note": 38, "velocity": 0, "time": 0, "type": "NormalMsg"}, "M_6753": {"note_status": 1, "channel": 9, "note": 42, "velocity": 0, "time": 0, "type": "NormalMsg"}, "M_6754": {"note_status": 1, "channel": 9, "note": 38, "velocity": 70, "time": 0, "type": "NormalMsg"}, "M_6755": {"note_status": 1, "channel": 9, "note": 42, "velocity": 45, "time": 0, "type": "NormalMsg"}, "M_6756": {"note_status": 1, "channel": 9, "note": 38, "velocity": 0, "time": 0, "type": "NormalMsg"}, "M_6757": {"note_status": 1, "channel": 9, "note": 42, "velocity": 0, "time": 0, "type": "NormalMsg"}, "M_6758": {"note_status": 1, "channel": 9, "note": 35, "velocity": 112, "time": 0, "type": "NormalMsg"}, "M_6759": {"note_status": 1, "channel": 9, "note": 42, "velocity": 58, "time": 0, "type": "NormalMsg"}, "M_6760": {"note_status": 1, "channel": 9, "note": 35, "velocity": 0, "time": 0, "type": "NormalMsg"}, "M_6761": {"note_status": 1, "channel": 9, "note": 42, "velocity": 0, "time": 0, "type": "NormalMsg"}, "M_6762": {"note_status": 1, "channel": 9, "note": 42, "velocity": 45, "time": 0, "type": "NormalMsg"}, "M_6763": {"note_status": 1, "channel": 9, "note": 42, "velocity": 0, "time": 0, "type": "NormalMsg"}, "M_6764": {"note_status": 1, "channel": 9, "note": 42, "velocity": 45, "time": 0, "type": "NormalMsg"}, "M_6765": {"note_status": 1, "channel": 9, "note": 42, "velocity": 0, "time": 0, "type": "NormalMsg"}, "M_6766": {"note_status": 1, "channel": 9, "note": 35, "velocity": 112, "time": 0, "type": "NormalMsg"}, "M_6767": {"note_status": 1, "channel": 9, "note": 38, "velocity": 90, "time": 0, "type": "NormalMsg"}, "M_6768": {"note_status": 1, "channel": 9, "note": 42, "velocity": 58, "time": 0, "type": "NormalMsg"}, "M_6769": {"note_status": 1, "channel": 9, "note": 35, "velocity": 0, "time": 0, "type": "NormalMsg"}, "M_6770": {"note_status": 1, "channel": 9, "note": 38, "velocity": 0, "time": 0, "type": "NormalMsg"}, "M_6771": {"note_status": 1, "channel": 9, "note": 42, "velocity": 0, "time": 0, "type": "NormalMsg"}, "M_6772": {"note_status": 1, "channel": 9, "note": 42, "velocity": 45, "time": 0, "type": "NormalMsg"}, "M_6773": {"note_status": 1, "channel": 9, "note": 42, "velocity": 0, "time": 0, "type": "NormalMsg"}, "M_6774": {"note_status": 1, "channel": 9, "note": 42, "velocity": 45, "time": 0, "type": "NormalMsg"}, "M_6775": {"note_status": 1, "channel": 9, "note": 42, "velocity": 0, "time": 0, "type": "NormalMsg"}, "M_6776": {"note_status": 1, "channel": 9, "note": 35, "velocity": 112, "time": 0, "type": "NormalMsg"}, "M_6777": {"note_status": 1, "channel": 9, "note": 42, "velocity": 58, "time": 0, "type": "NormalMsg"}, "M_6778": {"note_status": 1, "channel": 9, "note": 35, "velocity": 0, "time": 0, "type": "NormalMsg"}, "M_6779": {"note_status": 1, "channel": 9, "note": 42, "velocity": 0, "time": 0, "type": "NormalMsg"}, "M_6780": {"note_status": 1, "channel": 9, "note": 42, "velocity": 52, "time": 0, "type": "NormalMsg"}, "M_6781": {"note_status": 1, "channel": 9, "note": 42, "velocity": 0, "time": 0, "type": "NormalMsg"}, "M_6782": {"note_status": 1, "channel": 9, "note": 42, "velocity": 58, "time": 0, "type": "NormalMsg"}, "M_6783": {"note_status": 1, "channel": 9, "note": 42, "velocity": 0, "time": 0, "type": "NormalMsg"}, "M_6784": {"note_status": 1, "channel": 9, "note": 42, "velocity": 58, "time": 0, "type": "NormalMsg"}, "M_6785": {"note_status": 1, "channel": 9, "note": 42, "velocity": 0, "time": 0, "type": "NormalMsg"}, "M_6786": {"note_status": 1, "channel": 9, "note": 35, "velocity": 112, "time": 0, "type": "NormalMsg"}, "M_6787": {"note_status": 1, "channel": 9, "note": 38, "velocity": 90, "time": 0, "type": "NormalMsg"}, "M_6788": {"note_status": 1, "channel": 9, "note": 42, "velocity": 58, "time": 0, "type": "NormalMsg"}, "M_6789": {"note_status": 1, "channel": 9, "note": 35, "velocity": 0, "time": 0, "type": "NormalMsg"}, "M_6790": {"note_status": 1, "channel": 9, "note": 38, "velocity": 0, "time": 0, "type": "NormalMsg"}, "M_6791": {"note_status": 1, "channel": 9, "note": 42, "velocity": 0, "time": 0, "type": "NormalMsg"}, "M_6792": {"note_status": 1, "channel": 9, "note": 42, "velocity": 45, "time": 0, "type": "NormalMsg"}, "M_6793": {"note_status": 1, "channel": 9, "note": 42, "velocity": 0, "time": 0, "type": "NormalMsg"}, "M_6794": {"note_status": 1, "channel": 9, "note": 42, "velocity": 45, "time": 0, "type": "NormalMsg"}, "M_6795": {"note_status": 1, "channel": 9, "note": 42, "velocity": 0, "time": 0, "type": "NormalMsg"}, "M_6796": {"note_status": 1, "channel": 9, "note": 35, "velocity": 112, "time": 0, "type": "NormalMsg"}, "M_6797": {"note_status": 1, "channel": 9, "note": 42, "velocity": 58, "time": 0, "type": "NormalMsg"}, "M_6798": {"note_status": 1, "channel": 9, "note": 35, "velocity": 0, "time": 0, "type": "NormalMsg"}, "M_6799": {"note_status": 1, "channel": 9, "note": 42, "velocity": 0, "time": 0, "type": "NormalMsg"}, "M_6800": {"note_status": 1, "channel": 9, "note": 42, "velocity": 45, "time": 0, "type": "NormalMsg"}, "M_6801": {"note_status": 1, "channel": 9, "note": 42, "velocity": 0, "time": 0, "type": "NormalMsg"}, "M_6802": {"note_status": 1, "channel": 9, "note": 42, "velocity": 45, "time": 0, "type": "NormalMsg"}, "M_6803": {"note_status": 1, "channel": 9, "note": 42, "velocity": 0, "time": 0, "type": "NormalMsg"}, "M_6804": {"note_status": 1, "channel": 9, "note": 35, "velocity": 112, "time": 0, "type": "NormalMsg"}, "M_6805": {"note_status": 1, "channel": 9, "note": 38, "velocity": 90, "time": 0, "type": "NormalMsg"}, "M_6806": {"note_status": 1, "channel": 9, "note": 42, "velocity": 58, "time": 0, "type": "NormalMsg"}, "M_6807": {"note_status": 1, "channel": 9, "note": 35, "velocity": 0, "time": 0, "type": "NormalMsg"}, "M_6808": {"note_status": 1, "channel": 9, "note": 38, "velocity": 0, "time": 0, "type": "NormalMsg"}, "M_6809": {"note_status": 1, "channel": 9, "note": 42, "velocity": 0, "time": 0, "type": "NormalMsg"}, "M_6810": {"note_status": 1, "channel": 9, "note": 42, "velocity": 45, "time": 0, "type": "NormalMsg"}, "M_6811": {"note_status": 1, "channel": 9, "note": 42, "velocity": 0, "time": 0, "type": "NormalMsg"}, "M_6812": {"note_status": 1, "channel": 9, "note": 42, "velocity": 45, "time": 0, "type": "NormalMsg"}, "M_6813": {"note_status": 1, "channel": 9, "note": 42, "velocity": 0, "time": 0, "type": "NormalMsg"}, "M_6814": {"note_status": 1, "channel": 9, "note": 35, "velocity": 112, "time": 0, "type": "NormalMsg"}, "M_6815": {"note_status": 1, "channel": 9, "note": 42, "velocity": 58, "time": 0, "type": "NormalMsg"}, "M_6816": {"note_status": 1, "channel": 9, "note": 35, "velocity": 0, "time": 0, "type": "NormalMsg"}, "M_6817": {"note_status": 1, "channel": 9, "note": 42, "velocity": 0, "time": 0, "type": "NormalMsg"}, "M_6818": {"note_status": 1, "channel": 9, "note": 42, "velocity": 58, "time": 0, "type": "NormalMsg"}, "M_6819": {"note_status": 1, "channel": 9, "note": 42, "velocity": 0, "time": 0, "type": "NormalMsg"}, "M_6820": {"note_status": 1, "channel": 9, "note": 42, "velocity": 58, "time": 0, "type": "NormalMsg"}, "M_6821": {"note_status": 1, "channel": 9, "note": 42, "velocity": 0, "time": 0, "type": "NormalMsg"}, "M_6822": {"note_status": 1, "channel": 9, "note": 35, "velocity": 112, "time": 0, "type": "NormalMsg"}, "M_6823": {"note_status": 1, "channel": 9, "note": 38, "velocity": 90, "time": 0, "type": "NormalMsg"}, "M_6824": {"note_status": 1, "channel": 9, "note": 42, "velocity": 58, "time": 0, "type": "NormalMsg"}, "M_6825": {"note_status": 1, "channel": 9, "note": 35, "velocity": 0, "time": 0, "type": "NormalMsg"}, "M_6826": {"note_status": 1, "channel": 9, "note": 38, "velocity": 0, "time": 0, "type": "NormalMsg"}, "M_6827": {"note_status": 1, "channel": 9, "note": 42, "velocity": 0, "time": 0, "type": "NormalMsg"}, "M_6828": {"note_status": 1, "channel": 9, "note": 42, "velocity": 45, "time": 0, "type": "NormalMsg"}, "M_6829": {"note_status": 1, "channel": 9, "note": 42, "velocity": 0, "time": 0, "type": "NormalMsg"}, "M_6830": {"note_status": 1, "channel": 9, "note": 42, "velocity": 45, "time": 0, "type": "NormalMsg"}, "M_6831": {"note_status": 1, "channel": 9, "note": 42, "velocity": 0, "time": 0, "type": "NormalMsg"}, "M_6832": {"note_status": 1, "channel": 9, "note": 35, "velocity": 112, "time": 0, "type": "NormalMsg"}, "M_6833": {"note_status": 1, "channel": 9, "note": 42, "velocity": 58, "time": 0, "type": "NormalMsg"}, "M_6834": {"note_status": 1, "channel": 9, "note": 35, "velocity": 0, "time": 0, "type": "NormalMsg"}, "M_6835": {"note_status": 1, "channel": 9, "note": 42, "velocity": 0, "time": 0, "type": "NormalMsg"}, "M_6836": {"note_status": 1, "channel": 9, "note": 42, "velocity": 45, "time": 0, "type": "NormalMsg"}, "M_6837": {"note_status": 1, "channel": 9, "note": 42, "velocity": 0, "time": 0, "type": "NormalMsg"}, "M_6838": {"note_status": 1, "channel": 9, "note": 28, "velocity": 70, "time": 0, "type": "NormalMsg"}, "M_6839": {"note_status": 1, "channel": 9, "note": 35, "velocity": 112, "time": 0, "type": "NormalMsg"}, "M_6840": {"note_status": 1, "channel": 9, "note": 38, "velocity": 90, "time": 0, "type": "NormalMsg"}, "M_6841": {"note_status": 1, "channel": 9, "note": 42, "velocity": 58, "time": 0, "type": "NormalMsg"}, "M_6842": {"note_status": 1, "channel": 9, "note": 28, "velocity": 0, "time": 0, "type": "NormalMsg"}, "M_6843": {"note_status": 1, "channel": 9, "note": 35, "velocity": 0, "time": 0, "type": "NormalMsg"}, "M_6844": {"note_status": 1, "channel": 9, "note": 38, "velocity": 0, "time": 0, "type": "NormalMsg"}, "M_6845": {"note_status": 1, "channel": 9, "note": 42, "velocity": 0, "time": 0, "type": "NormalMsg"}, "M_6846": {"note_status": 1, "channel": 9, "note": 42, "velocity": 45, "time": 0, "type": "NormalMsg"}, "M_6847": {"note_status": 1, "channel": 9, "note": 42, "velocity": 0, "time": 0, "type": "NormalMsg"}, "M_6848": {"note_status": 1, "channel": 9, "note": 35, "velocity": 112, "time": 0, "type": "NormalMsg"}, "M_6849": {"note_status": 1, "channel": 9, "note": 42, "velocity": 58, "time": 0, "type": "NormalMsg"}, "M_6850": {"note_status": 1, "channel": 9, "note": 35, "velocity": 0, "time": 0, "type": "NormalMsg"}, "M_6851": {"note_status": 1, "channel": 9, "note": 42, "velocity": 0, "time": 0, "type": "NormalMsg"}, "M_6852": {"note_status": 1, "channel": 9, "note": 42, "velocity": 52, "time": 0, "type": "NormalMsg"}, "M_6853": {"note_status": 1, "channel": 9, "note": 42, "velocity": 0, "time": 0, "type": "NormalMsg"}, "M_6854": {"note_status": 1, "channel": 9, "note": 38, "velocity": 70, "time": 0, "type": "NormalMsg"}, "M_6855": {"note_status": 1, "channel": 9, "note": 42, "velocity": 58, "time": 0, "type": "NormalMsg"}, "M_6856": {"note_status": 1, "channel": 9, "note": 38, "velocity": 0, "time": 0, "type": "NormalMsg"}, "M_6857": {"note_status": 1, "channel": 9, "note": 42, "velocity": 0, "time": 0, "type": "NormalMsg"}, "M_6858": {"note_status": 1, "channel": 9, "note": 28, "velocity": 70, "time": 0, "type": "NormalMsg"}, "M_6859": {"note_status": 1, "channel": 9, "note": 35, "velocity": 112, "time": 0, "type": "NormalMsg"}, "M_6860": {"note_status": 1, "channel": 9, "note": 38, "velocity": 90, "time": 0, "type": "NormalMsg"}, "M_6861": {"note_status": 1, "channel": 9, "note": 42, "velocity": 58, "time": 0, "type": "NormalMsg"}, "M_6862": {"note_status": 1, "channel": 9, "note": 28, "velocity": 0, "time": 0, "type": "NormalMsg"}, "M_6863": {"note_status": 1, "channel": 9, "note": 35, "velocity": 0, "time": 0, "type": "NormalMsg"}, "M_6864": {"note_status": 1, "channel": 9, "note": 38, "velocity": 0, "time": 0, "type": "NormalMsg"}, "M_6865": {"note_status": 1, "channel": 9, "note": 42, "velocity": 0, "time": 0, "type": "NormalMsg"}, "M_6866": {"note_status": 1, "channel": 9, "note": 42, "velocity": 45, "time": 0, "type": "NormalMsg"}, "M_6867": {"note_status": 1, "channel": 9, "note": 42, "velocity": 0, "time": 0, "type": "NormalMsg"}, "M_6868": {"note_status": 1, "channel": 9, "note": 35, "velocity": 112, "time": 0, "type": "NormalMsg"}, "M_6869": {"note_status": 1, "channel": 9, "note": 42, "velocity": 58, "time": 0, "type": "NormalMsg"}, "M_6870": {"note_status": 1, "channel": 9, "note": 35, "velocity": 0, "time": 0, "type": "NormalMsg"}, "M_6871": {"note_status": 1, "channel": 9, "note": 42, "velocity": 0, "time": 0, "type": "NormalMsg"}, "M_6872": {"note_status": 1, "channel": 9, "note": 42, "velocity": 45, "time": 0, "type": "NormalMsg"}, "M_6873": {"note_status": 1, "channel": 9, "note": 42, "velocity": 0, "time": 0, "type": "NormalMsg"}, "M_6874": {"note_status": 1, "channel": 9, "note": 28, "velocity": 70, "time": 0, "type": "NormalMsg"}, "M_6875": {"note_status": 1, "channel": 9, "note": 35, "velocity": 112, "time": 0, "type": "NormalMsg"}, "M_6876": {"note_status": 1, "channel": 9, "note": 38, "velocity": 90, "time": 0, "type": "NormalMsg"}, "M_6877": {"note_status": 1, "channel": 9, "note": 42, "velocity": 58, "time": 0, "type": "NormalMsg"}, "M_6878": {"note_status": 1, "channel": 9, "note": 28, "velocity": 0, "time": 0, "type": "NormalMsg"}, "M_6879": {"note_status": 1, "channel": 9, "note": 35, "velocity": 0, "time": 0, "type": "NormalMsg"}, "M_6880": {"note_status": 1, "channel": 9, "note": 38, "velocity": 0, "time": 0, "type": "NormalMsg"}, "M_6881": {"note_status": 1, "channel": 9, "note": 42, "velocity": 0, "time": 0, "type": "NormalMsg"}, "M_6882": {"note_status": 1, "channel": 9, "note": 42, "velocity": 45, "time": 0, "type": "NormalMsg"}, "M_6883": {"note_status": 1, "channel": 9, "note": 42, "velocity": 0, "time": 0, "type": "NormalMsg"}, "M_6884": {"note_status": 1, "channel": 9, "note": 35, "velocity": 112, "time": 0, "type": "NormalMsg"}, "M_6885": {"note_status": 1, "channel": 9, "note": 42, "velocity": 58, "time": 0, "type": "NormalMsg"}, "M_6886": {"note_status": 1, "channel": 9, "note": 35, "velocity": 0, "time": 0, "type": "NormalMsg"}, "M_6887": {"note_status": 1, "channel": 9, "note": 42, "velocity": 0, "time": 0, "type": "NormalMsg"}, "M_6888": {"note_status": 1, "channel": 9, "note": 42, "velocity": 52, "time": 0, "type": "NormalMsg"}, "M_6889": {"note_status": 1, "channel": 9, "note": 42, "velocity": 0, "time": 0, "type": "NormalMsg"}, "M_6890": {"note_status": 1, "channel": 9, "note": 38, "velocity": 70, "time": 0, "type": "NormalMsg"}, "M_6891": {"note_status": 1, "channel": 9, "note": 42, "velocity": 58, "time": 0, "type": "NormalMsg"}, "M_6892": {"note_status": 1, "channel": 9, "note": 38, "velocity": 0, "time": 0, "type": "NormalMsg"}, "M_6893": {"note_status": 1, "channel": 9, "note": 42, "velocity": 0, "time": 0, "type": "NormalMsg"}, "M_6894": {"note_status": 1, "channel": 9, "note": 28, "velocity": 70, "time": 0, "type": "NormalMsg"}, "M_6895": {"note_status": 1, "channel": 9, "note": 35, "velocity": 112, "time": 0, "type": "NormalMsg"}, "M_6896": {"note_status": 1, "channel": 9, "note": 38, "velocity": 90, "time": 0, "type": "NormalMsg"}, "M_6897": {"note_status": 1, "channel": 9, "note": 42, "velocity": 58, "time": 0, "type": "NormalMsg"}, "M_6898": {"note_status": 1, "channel": 9, "note": 28, "velocity": 0, "time": 0, "type": "NormalMsg"}, "M_6899": {"note_status": 1, "channel": 9, "note": 35, "velocity": 0, "time": 0, "type": "NormalMsg"}, "M_6900": {"note_status": 1, "channel": 9, "note": 38, "velocity": 0, "time": 0, "type": "NormalMsg"}, "M_6901": {"note_status": 1, "channel": 9, "note": 42, "velocity": 0, "time": 0, "type": "NormalMsg"}, "M_6902": {"note_status": 1, "channel": 9, "note": 42, "velocity": 45, "time": 0, "type": "NormalMsg"}, "M_6903": {"note_status": 1, "channel": 9, "note": 42, "velocity": 0, "time": 0, "type": "NormalMsg"}, "M_6904": {"note_status": 1, "channel": 9, "note": 35, "velocity": 112, "time": 0, "type": "NormalMsg"}, "M_6905": {"note_status": 1, "channel": 9, "note": 42, "velocity": 58, "time": 0, "type": "NormalMsg"}, "M_6906": {"note_status": 1, "channel": 9, "note": 35, "velocity": 0, "time": 0, "type": "NormalMsg"}, "M_6907": {"note_status": 1, "channel": 9, "note": 42, "velocity": 0, "time": 0, "type": "NormalMsg"}, "M_6908": {"note_status": 1, "channel": 9, "note": 42, "velocity": 45, "time": 0, "type": "NormalMsg"}, "M_6909": {"note_status": 1, "channel": 9, "note": 42, "velocity": 0, "time": 0, "type": "NormalMsg"}, "M_6910": {"note_status": 1, "channel": 9, "note": 28, "velocity": 70, "time": 0, "type": "NormalMsg"}, "M_6911": {"note_status": 1, "channel": 9, "note": 35, "velocity": 112, "time": 0, "type": "NormalMsg"}, "M_6912": {"note_status": 1, "channel": 9, "note": 38, "velocity": 90, "time": 0, "type": "NormalMsg"}, "M_6913": {"note_status": 1, "channel": 9, "note": 42, "velocity": 58, "time": 0, "type": "NormalMsg"}, "M_6914": {"note_status": 1, "channel": 9, "note": 28, "velocity": 0, "time": 0, "type": "NormalMsg"}, "M_6915": {"note_status": 1, "channel": 9, "note": 35, "velocity": 0, "time": 0, "type": "NormalMsg"}, "M_6916": {"note_status": 1, "channel": 9, "note": 38, "velocity": 0, "time": 0, "type": "NormalMsg"}, "M_6917": {"note_status": 1, "channel": 9, "note": 42, "velocity": 0, "time": 0, "type": "NormalMsg"}, "M_6918": {"note_status": 1, "channel": 9, "note": 42, "velocity": 45, "time": 0, "type": "NormalMsg"}, "M_6919": {"note_status": 1, "channel": 9, "note": 42, "velocity": 0, "time": 0, "type": "NormalMsg"}, "M_6920": {"note_status": 1, "channel": 9, "note": 35, "velocity": 112, "time": 0, "type": "NormalMsg"}, "M_6921": {"note_status": 1, "channel": 9, "note": 42, "velocity": 58, "time": 0, "type": "NormalMsg"}, "M_6922": {"note_status": 1, "channel": 9, "note": 35, "velocity": 0, "time": 0, "type": "NormalMsg"}, "M_6923": {"note_status": 1, "channel": 9, "note": 42, "velocity": 0, "time": 0, "type": "NormalMsg"}, "M_6924": {"note_status": 1, "channel": 9, "note": 42, "velocity": 52, "time": 0, "type": "NormalMsg"}, "M_6925": {"note_status": 1, "channel": 9, "note": 42, "velocity": 0, "time": 0, "type": "NormalMsg"}, "M_6926": {"note_status": 1, "channel": 9, "note": 38, "velocity": 70, "time": 0, "type": "NormalMsg"}, "M_6927": {"note_status": 1, "channel": 9, "note": 42, "velocity": 52, "time": 0, "type": "NormalMsg"}, "M_6928": {"note_status": 1, "channel": 9, "note": 38, "velocity": 0, "time": 0, "type": "NormalMsg"}, "M_6929": {"note_status": 1, "channel": 9, "note": 42, "velocity": 0, "time": 0, "type": "NormalMsg"}, "M_6930": {"note_status": 1, "channel": 9, "note": 28, "velocity": 110, "time": 0, "type": "NormalMsg"}, "M_6931": {"note_status": 1, "channel": 9, "note": 35, "velocity": 112, "time": 0, "type": "NormalMsg"}, "M_6932": {"note_status": 1, "channel": 9, "note": 38, "velocity": 90, "time": 0, "type": "NormalMsg"}, "M_6933": {"note_status": 1, "channel": 9, "note": 42, "velocity": 58, "time": 0, "type": "NormalMsg"}, "M_6934": {"note_status": 1, "channel": 9, "note": 28, "velocity": 0, "time": 0, "type": "NormalMsg"}, "M_6935": {"note_status": 1, "channel": 9, "note": 35, "velocity": 0, "time": 0, "type": "NormalMsg"}, "M_6936": {"note_status": 1, "channel": 9, "note": 38, "velocity": 0, "time": 0, "type": "NormalMsg"}, "M_6937": {"note_status": 1, "channel": 9, "note": 42, "velocity": 0, "time": 0, "type": "NormalMsg"}, "M_6938": {"note_status": 1, "channel": 9, "note": 38, "velocity": 90, "time": 0, "type": "NormalMsg"}, "M_6939": {"note_status": 1, "channel": 9, "note": 42, "velocity": 45, "time": 0, "type": "NormalMsg"}, "M_6940": {"note_status": 1, "channel": 9, "note": 38, "velocity": 0, "time": 0, "type": "NormalMsg"}, "M_6941": {"note_status": 1, "channel": 9, "note": 42, "velocity": 0, "time": 0, "type": "NormalMsg"}, "M_6942": {"note_status": 1, "channel": 9, "note": 28, "velocity": 70, "time": 0, "type": "NormalMsg"}, "M_6943": {"note_status": 1, "channel": 9, "note": 35, "velocity": 112, "time": 0, "type": "NormalMsg"}, "M_6944": {"note_status": 1, "channel": 9, "note": 38, "velocity": 90, "time": 0, "type": "NormalMsg"}, "M_6945": {"note_status": 1, "channel": 9, "note": 42, "velocity": 58, "time": 0, "type": "NormalMsg"}, "M_6946": {"note_status": 1, "channel": 9, "note": 28, "velocity": 0, "time": 0, "type": "NormalMsg"}, "M_6947": {"note_status": 1, "channel": 9, "note": 35, "velocity": 0, "time": 0, "type": "NormalMsg"}, "M_6948": {"note_status": 1, "channel": 9, "note": 38, "velocity": 0, "time": 0, "type": "NormalMsg"}, "M_6949": {"note_status": 1, "channel": 9, "note": 42, "velocity": 0, "time": 0, "type": "NormalMsg"}, "M_6950": {"note_status": 1, "channel": 9, "note": 28, "velocity": 70, "time": 0, "type": "NormalMsg"}, "M_6951": {"note_status": 1, "channel": 9, "note": 35, "velocity": 112, "time": 0, "type": "NormalMsg"}, "M_6952": {"note_status": 1, "channel": 9, "note": 38, "velocity": 90, "time": 0, "type": "NormalMsg"}, "M_6953": {"note_status": 1, "channel": 9, "note": 28, "velocity": 0, "time": 0, "type": "NormalMsg"}, "M_6954": {"note_status": 1, "channel": 9, "note": 35, "velocity": 0, "time": 0, "type": "NormalMsg"}, "M_6955": {"note_status": 1, "channel": 9, "note": 38, "velocity": 0, "time": 0, "type": "NormalMsg"}, "M_6956": {"note_status": 1, "channel": 9, "note": 28, "velocity": 70, "time": 0, "type": "NormalMsg"}, "M_6957": {"note_status": 1, "channel": 9, "note": 35, "velocity": 112, "time": 0, "type": "NormalMsg"}, "M_6958": {"note_status": 1, "channel": 9, "note": 38, "velocity": 90, "time": 0, "type": "NormalMsg"}, "M_6959": {"note_status": 1, "channel": 9, "note": 42, "velocity": 45, "time": 0, "type": "NormalMsg"}, "M_6960": {"note_status": 1, "channel": 9, "note": 28, "velocity": 0, "time": 0, "type": "NormalMsg"}, "M_6961": {"note_status": 1, "channel": 9, "note": 35, "velocity": 0, "time": 0, "type": "NormalMsg"}, "M_6962": {"note_status": 1, "channel": 9, "note": 38, "velocity": 0, "time": 0, "type": "NormalMsg"}, "M_6963": {"note_status": 1, "channel": 9, "note": 42, "velocity": 0, "time": 0, "type": "NormalMsg"}, "M_6964": {"note_status": 1, "channel": 9, "note": 28, "velocity": 70, "time": 0, "type": "NormalMsg"}, "M_6965": {"note_status": 1, "channel": 9, "note": 35, "velocity": 112, "time": 0, "type": "NormalMsg"}, "M_6966": {"note_status": 1, "channel": 9, "note": 38, "velocity": 90, "time": 0, "type": "NormalMsg"}, "M_6967": {"note_status": 1, "channel": 9, "note": 28, "velocity": 0, "time": 0, "type": "NormalMsg"}, "M_6968": {"note_status": 1, "channel": 9, "note": 35, "velocity": 0, "time": 0, "type": "NormalMsg"}, "M_6969": {"note_status": 1, "channel": 9, "note": 38, "velocity": 0, "time": 0, "type": "NormalMsg"}, "M_6970": {"note_status": 1, "channel": 9, "note": 28, "velocity": 70, "time": 0, "type": "NormalMsg"}, "M_6971": {"note_status": 1, "channel": 9, "note": 35, "velocity": 112, "time": 0, "type": "NormalMsg"}, "M_6972": {"note_status": 1, "channel": 9, "note": 38, "velocity": 90, "time": 0, "type": "NormalMsg"}, "M_6973": {"note_status": 1, "channel": 9, "note": 42, "velocity": 58, "time": 0, "type": "NormalMsg"}, "M_6974": {"note_status": 1, "channel": 9, "note": 28, "velocity": 0, "time": 0, "type": "NormalMsg"}, "M_6975": {"note_status": 1, "channel": 9, "note": 35, "velocity": 0, "time": 0, "type": "NormalMsg"}, "M_6976": {"note_status": 1, "channel": 9, "note": 38, "velocity": 0, "time": 0, "type": "NormalMsg"}, "M_6977": {"note_status": 1, "channel": 9, "note": 42, "velocity": 0, "time": 0, "type": "NormalMsg"}, "M_6978": {"note_status": 1, "channel": 9, "note": 28, "velocity": 70, "time": 0, "type": "NormalMsg"}, "M_6979": {"note_status": 1, "channel": 9, "note": 35, "velocity": 112, "time": 0, "type": "NormalMsg"}, "M_6980": {"note_status": 1, "channel": 9, "note": 38, "velocity": 90, "time": 0, "type": "NormalMsg"}, "M_6981": {"note_status": 1, "channel": 9, "note": 28, "velocity": 0, "time": 0, "type": "NormalMsg"}, "M_6982": {"note_status": 1, "channel": 9, "note": 35, "velocity": 0, "time": 0, "type": "NormalMsg"}, "M_6983": {"note_status": 1, "channel": 9, "note": 38, "velocity": 0, "time": 0, "type": "NormalMsg"}, "M_6984": {"note_status": 1, "channel": 9, "note": 28, "velocity": 70, "time": 0, "type": "NormalMsg"}, "M_6985": {"note_status": 1, "channel": 9, "note": 35, "velocity": 112, "time": 0, "type": "NormalMsg"}, "M_6986": {"note_status": 1, "channel": 9, "note": 38, "velocity": 90, "time": 0, "type": "NormalMsg"}, "M_6987": {"note_status": 1, "channel": 9, "note": 42, "velocity": 45, "time": 0, "type": "NormalMsg"}, "M_6988": {"note_status": 1, "channel": 9, "note": 28, "velocity": 0, "time": 0, "type": "NormalMsg"}, "M_6989": {"note_status": 1, "channel": 9, "note": 35, "velocity": 0, "time": 0, "type": "NormalMsg"}, "M_6990": {"note_status": 1, "channel": 9, "note": 38, "velocity": 0, "time": 0, "type": "NormalMsg"}, "M_6991": {"note_status": 1, "channel": 9, "note": 42, "velocity": 0, "time": 0, "type": "NormalMsg"}, "M_6992": {"note_status": 1, "channel": 9, "note": 28, "velocity": 70, "time": 0, "type": "NormalMsg"}, "M_6993": {"note_status": 1, "channel": 9, "note": 35, "velocity": 112, "time": 0, "type": "NormalMsg"}, "M_6994": {"note_status": 1, "channel": 9, "note": 38, "velocity": 90, "time": 0, "type": "NormalMsg"}, "M_6995": {"note_status": 1, "channel": 9, "note": 28, "velocity": 0, "time": 0, "type": "NormalMsg"}, "M_6996": {"note_status": 1, "channel": 9, "note": 35, "velocity": 0, "time": 0, "type": "NormalMsg"}, "M_6997": {"note_status": 1, "channel": 9, "note": 38, "velocity": 0, "time": 0, "type": "NormalMsg"}, "M_6998": {"note_status": 1, "channel": 9, "note": 28, "velocity": 70, "time": 0, "type": "NormalMsg"}, "M_6999": {"note_status": 1, "channel": 9, "note": 35, "velocity": 112, "time": 0, "type": "NormalMsg"}, "M_7000": {"note_status": 1, "channel": 9, "note": 38, "velocity": 90, "time": 0, "type": "NormalMsg"}, "M_7001": {"note_status": 1, "channel": 9, "note": 42, "velocity": 58, "time": 0, "type": "NormalMsg"}, "M_7002": {"note_status": 1, "channel": 9, "note": 28, "velocity": 0, "time": 0, "type": "NormalMsg"}, "M_7003": {"note_status": 1, "channel": 9, "note": 35, "velocity": 0, "time": 0, "type": "NormalMsg"}, "M_7004": {"note_status": 1, "channel": 9, "note": 38, "velocity": 0, "time": 0, "type": "NormalMsg"}, "M_7005": {"note_status": 1, "channel": 9, "note": 42, "velocity": 0, "time": 0, "type": "NormalMsg"}, "M_7006": {"note_status": 1, "channel": 9, "note": 28, "velocity": 70, "time": 0, "type": "NormalMsg"}, "M_7007": {"note_status": 1, "channel": 9, "note": 35, "velocity": 112, "time": 0, "type": "NormalMsg"}, "M_7008": {"note_status": 1, "channel": 9, "note": 38, "velocity": 90, "time": 0, "type": "NormalMsg"}, "M_7009": {"note_status": 1, "channel": 9, "note": 42, "velocity": 52, "time": 0, "type": "NormalMsg"}, "M_7010": {"note_status": 1, "channel": 9, "note": 28, "velocity": 0, "time": 0, "type": "NormalMsg"}, "M_7011": {"note_status": 1, "channel": 9, "note": 35, "velocity": 0, "time": 0, "type": "NormalMsg"}, "M_7012": {"note_status": 1, "channel": 9, "note": 38, "velocity": 0, "time": 0, "type": "NormalMsg"}, "M_7013": {"note_status": 1, "channel": 9, "note": 42, "velocity": 0, "time": 0, "type": "NormalMsg"}, "M_7014": {"note_status": 1, "channel": 9, "note": 28, "velocity": 70, "time": 0, "type": "NormalMsg"}, "M_7015": {"note_status": 1, "channel": 9, "note": 35, "velocity": 112, "time": 0, "type": "NormalMsg"}, "M_7016": {"note_status": 1, "channel": 9, "note": 38, "velocity": 90, "time": 0, "type": "NormalMsg"}, "M_7017": {"note_status": 1, "channel": 9, "note": 28, "velocity": 0, "time": 0, "type": "NormalMsg"}, "M_7018": {"note_status": 1, "channel": 9, "note": 35, "velocity": 0, "time": 0, "type": "NormalMsg"}, "M_7019": {"note_status": 1, "channel": 9, "note": 38, "velocity": 0, "time": 0, "type": "NormalMsg"}, "M_7020": {"note_status": 1, "channel": 9, "note": 28, "velocity": 70, "time": 0, "type": "NormalMsg"}, "M_7021": {"note_status": 1, "channel": 9, "note": 35, "velocity": 112, "time": 0, "type": "NormalMsg"}, "M_7022": {"note_status": 1, "channel": 9, "note": 38, "velocity": 70, "time": 0, "type": "NormalMsg"}, "M_7023": {"note_status": 1, "channel": 9, "note": 42, "velocity": 58, "time": 0, "type": "NormalMsg"}, "M_7024": {"note_status": 1, "channel": 9, "note": 28, "velocity": 0, "time": 0, "type": "NormalMsg"}, "M_7025": {"note_status": 1, "channel": 9, "note": 35, "velocity": 0, "time": 0, "type": "NormalMsg"}, "M_7026": {"note_status": 1, "channel": 9, "note": 38, "velocity": 0, "time": 0, "type": "NormalMsg"}, "M_7027": {"note_status": 1, "channel": 9, "note": 42, "velocity": 0, "time": 0, "type": "NormalMsg"}, "M_7028": {"note_status": 1, "channel": 9, "note": 28, "velocity": 61, "time": 0, "type": "NormalMsg"}, "M_7029": {"note_status": 1, "channel": 9, "note": 35, "velocity": 112, "time": 0, "type": "NormalMsg"}, "M_7030": {"note_status": 1, "channel": 9, "note": 38, "velocity": 90, "time": 0, "type": "NormalMsg"}, "M_7031": {"note_status": 1, "channel": 9, "note": 42, "velocity": 58, "time": 0, "type": "NormalMsg"}, "M_7032": {"note_status": 1, "channel": 9, "note": 28, "velocity": 0, "time": 0, "type": "NormalMsg"}, "M_7033": {"note_status": 1, "channel": 9, "note": 35, "velocity": 0, "time": 0, "type": "NormalMsg"}, "M_7034": {"note_status": 1, "channel": 9, "note": 38, "velocity": 0, "time": 0, "type": "NormalMsg"}, "M_7035": {"note_status": 1, "channel": 9, "note": 42, "velocity": 0, "time": 0, "type": "NormalMsg"}, "M_7036": {"note_status": 1, "channel": 9, "note": 28, "velocity": 51, "time": 0, "type": "NormalMsg"}, "M_7037": {"note_status": 1, "channel": 9, "note": 42, "velocity": 34, "time": 0, "type": "NormalMsg"}, "M_7038": {"note_status": 1, "channel": 9, "note": 28, "velocity": 0, "time": 0, "type": "NormalMsg"}, "M_7039": {"note_status": 1, "channel": 9, "note": 42, "velocity": 0, "time": 0, "type": "NormalMsg"}, "M_7040": {"note_status": 1, "channel": 9, "note": 28, "velocity": 40, "time": 0, "type": "NormalMsg"}, "M_7041": {"note_status": 1, "channel": 9, "note": 42, "velocity": 45, "time": 0, "type": "NormalMsg"}, "M_7042": {"note_status": 1, "channel": 9, "note": 28, "velocity": 0, "time": 0, "type": "NormalMsg"}, "M_7043": {"note_status": 1, "channel": 9, "note": 42, "velocity": 0, "time": 0, "type": "NormalMsg"}, "M_7044": {"note_status": 1, "channel": 9, "note": 28, "velocity": 29, "time": 0, "type": "NormalMsg"}, "M_7045": {"note_status": 1, "channel": 9, "note": 42, "velocity": 34, "time": 0, "type": "NormalMsg"}, "M_7046": {"note_status": 1, "channel": 9, "note": 28, "velocity": 0, "time": 0, "type": "NormalMsg"}, "M_7047": {"note_status": 1, "channel": 9, "note": 42, "velocity": 0, "time": 0, "type": "NormalMsg"}, "M_7048": {"note_status": 1, "channel": 9, "note": 35, "velocity": 112, "time": 0, "type": "NormalMsg"}, "M_7049": {"note_status": 1, "channel": 9, "note": 42, "velocity": 34, "time": 0, "type": "NormalMsg"}, "M_7050": {"note_status": 1, "channel": 9, "note": 35, "velocity": 0, "time": 0, "type": "NormalMsg"}, "M_7051": {"note_status": 1, "channel": 9, "note": 42, "velocity": 0, "time": 0, "type": "NormalMsg"}, "M_7052": {"note_status": 1, "channel": 9, "note": 42, "velocity": 58, "time": 0, "type": "NormalMsg"}, "M_7053": {"note_status": 1, "channel": 9, "note": 42, "velocity": 0, "time": 0, "type": "NormalMsg"}, "M_7054": {"note_status": 1, "channel": 9, "note": 35, "velocity": 112, "time": 0, "type": "NormalMsg"}, "M_7055": {"note_status": 1, "channel": 9, "note": 38, "velocity": 90, "time": 0, "type": "NormalMsg"}, "M_7056": {"note_status": 1, "channel": 9, "note": 42, "velocity": 34, "time": 0, "type": "NormalMsg"}, "M_7057": {"note_status": 1, "channel": 9, "note": 35, "velocity": 0, "time": 0, "type": "NormalMsg"}, "M_7058": {"note_status": 1, "channel": 9, "note": 38, "velocity": 0, "time": 0, "type": "NormalMsg"}, "M_7059": {"note_status": 1, "channel": 9, "note": 42, "velocity": 0, "time": 0, "type": "NormalMsg"}, "M_7060": {"note_status": 1, "channel": 9, "note": 42, "velocity": 58, "time": 0, "type": "NormalMsg"}, "M_7061": {"note_status": 1, "channel": 9, "note": 42, "velocity": 0, "time": 0, "type": "NormalMsg"}, "M_7062": {"note_status": 1, "channel": 9, "note": 35, "velocity": 112, "time": 0, "type": "NormalMsg"}, "M_7063": {"note_status": 1, "channel": 9, "note": 42, "velocity": 34, "time": 0, "type": "NormalMsg"}, "M_7064": {"note_status": 1, "channel": 9, "note": 35, "velocity": 0, "time": 0, "type": "NormalMsg"}, "M_7065": {"note_status": 1, "channel": 9, "note": 42, "velocity": 0, "time": 0, "type": "NormalMsg"}, "M_7066": {"note_status": 1, "channel": 9, "note": 42, "velocity": 58, "time": 0, "type": "NormalMsg"}, "M_7067": {"note_status": 1, "channel": 9, "note": 42, "velocity": 0, "time": 0, "type": "NormalMsg"}, "M_7068": {"note_status": 1, "channel": 9, "note": 35, "velocity": 112, "time": 0, "type": "NormalMsg"}, "M_7069": {"note_status": 1, "channel": 9, "note": 38, "velocity": 90, "time": 0, "type": "NormalMsg"}, "M_7070": {"note_status": 1, "channel": 9, "note": 42, "velocity": 34, "time": 0, "type": "NormalMsg"}, "M_7071": {"note_status": 1, "channel": 9, "note": 35, "velocity": 0, "time": 0, "type": "NormalMsg"}, "M_7072": {"note_status": 1, "channel": 9, "note": 38, "velocity": 0, "time": 0, "type": "NormalMsg"}, "M_7073": {"note_status": 1, "channel": 9, "note": 42, "velocity": 0, "time": 0, "type": "NormalMsg"}, "M_7074": {"note_status": 1, "channel": 9, "note": 42, "velocity": 58, "time": 0, "type": "NormalMsg"}, "M_7075": {"note_status": 1, "channel": 9, "note": 42, "velocity": 0, "time": 0, "type": "NormalMsg"}, "M_7076": {"note_status": 1, "channel": 9, "note": 42, "velocity": 58, "time": 0, "type": "NormalMsg"}, "M_7077": {"note_status": 1, "channel": 9, "note": 42, "velocity": 0, "time": 0, "type": "NormalMsg"}, "M_7078": {"note_status": 1, "channel": 9, "note": 35, "velocity": 112, "time": 0, "type": "NormalMsg"}, "M_7079": {"note_status": 1, "channel": 9, "note": 42, "velocity": 34, "time": 0, "type": "NormalMsg"}, "M_7080": {"note_status": 1, "channel": 9, "note": 35, "velocity": 0, "time": 0, "type": "NormalMsg"}, "M_7081": {"note_status": 1, "channel": 9, "note": 42, "velocity": 0, "time": 0, "type": "NormalMsg"}, "M_7082": {"note_status": 1, "channel": 9, "note": 42, "velocity": 58, "time": 0, "type": "NormalMsg"}, "M_7083": {"note_status": 1, "channel": 9, "note": 42, "velocity": 0, "time": 0, "type": "NormalMsg"}, "M_7084": {"note_status": 1, "channel": 9, "note": 35, "velocity": 112, "time": 0, "type": "NormalMsg"}, "M_7085": {"note_status": 1, "channel": 9, "note": 38, "velocity": 90, "time": 0, "type": "NormalMsg"}, "M_7086": {"note_status": 1, "channel": 9, "note": 42, "velocity": 34, "time": 0, "type": "NormalMsg"}, "M_7087": {"note_status": 1, "channel": 9, "note": 35, "velocity": 0, "time": 0, "type": "NormalMsg"}, "M_7088": {"note_status": 1, "channel": 9, "note": 38, "velocity": 0, "time": 0, "type": "NormalMsg"}, "M_7089": {"note_status": 1, "channel": 9, "note": 42, "velocity": 0, "time": 0, "type": "NormalMsg"}, "M_7090": {"note_status": 1, "channel": 9, "note": 42, "velocity": 58, "time": 0, "type": "NormalMsg"}, "M_7091": {"note_status": 1, "channel": 9, "note": 42, "velocity": 0, "time": 0, "type": "NormalMsg"}, "M_7092": {"note_status": 1, "channel": 9, "note": 35, "velocity": 112, "time": 0, "type": "NormalMsg"}, "M_7093": {"note_status": 1, "channel": 9, "note": 42, "velocity": 34, "time": 0, "type": "NormalMsg"}, "M_7094": {"note_status": 1, "channel": 9, "note": 35, "velocity": 0, "time": 0, "type": "NormalMsg"}, "M_7095": {"note_status": 1, "channel": 9, "note": 42, "velocity": 0, "time": 0, "type": "NormalMsg"}, "M_7096": {"note_status": 1, "channel": 9, "note": 42, "velocity": 58, "time": 0, "type": "NormalMsg"}, "M_7097": {"note_status": 1, "channel": 9, "note": 42, "velocity": 0, "time": 0, "type": "NormalMsg"}, "M_7098": {"note_status": 1, "channel": 9, "note": 35, "velocity": 112, "time": 0, "type": "NormalMsg"}, "M_7099": {"note_status": 1, "channel": 9, "note": 38, "velocity": 90, "time": 0, "type": "NormalMsg"}, "M_7100": {"note_status": 1, "channel": 9, "note": 42, "velocity": 34, "time": 0, "type": "NormalMsg"}, "M_7101": {"note_status": 1, "channel": 9, "note": 35, "velocity": 0, "time": 0, "type": "NormalMsg"}, "M_7102": {"note_status": 1, "channel": 9, "note": 38, "velocity": 0, "time": 0, "type": "NormalMsg"}, "M_7103": {"note_status": 1, "channel": 9, "note": 42, "velocity": 0, "time": 0, "type": "NormalMsg"}, "M_7104": {"note_status": 1, "channel": 9, "note": 42, "velocity": 52, "time": 0, "type": "NormalMsg"}, "M_7105": {"note_status": 1, "channel": 9, "note": 42, "velocity": 0, "time": 0, "type": "NormalMsg"}, "M_7106": {"note_status": 1, "channel": 9, "note": 42, "velocity": 58, "time": 0, "type": "NormalMsg"}, "M_7107": {"note_status": 1, "channel": 9, "note": 42, "velocity": 0, "time": 0, "type": "NormalMsg"}, "M_7108": {"note_status": 1, "channel": 9, "note": 42, "velocity": 58, "time": 0, "type": "NormalMsg"}, "M_7109": {"note_status": 1, "channel": 9, "note": 42, "velocity": 0, "time": 0, "type": "NormalMsg"}, "M_7110": {"note_status": 1, "channel": 9, "note": 35, "velocity": 112, "time": 0, "type": "NormalMsg"}, "M_7111": {"note_status": 1, "channel": 9, "note": 42, "velocity": 34, "time": 0, "type": "NormalMsg"}, "M_7112": {"note_status": 1, "channel": 9, "note": 35, "velocity": 0, "time": 0, "type": "NormalMsg"}, "M_7113": {"note_status": 1, "channel": 9, "note": 42, "velocity": 0, "time": 0, "type": "NormalMsg"}, "M_7114": {"note_status": 1, "channel": 9, "note": 42, "velocity": 58, "time": 0, "type": "NormalMsg"}, "M_7115": {"note_status": 1, "channel": 9, "note": 42, "velocity": 0, "time": 0, "type": "NormalMsg"}, "M_7116": {"note_status": 1, "channel": 9, "note": 35, "velocity": 112, "time": 0, "type": "NormalMsg"}, "M_7117": {"note_status": 1, "channel": 9, "note": 38, "velocity": 90, "time": 0, "type": "NormalMsg"}, "M_7118": {"note_status": 1, "channel": 9, "note": 42, "velocity": 34, "time": 0, "type": "NormalMsg"}, "M_7119": {"note_status": 1, "channel": 9, "note": 35, "velocity": 0, "time": 0, "type": "NormalMsg"}, "M_7120": {"note_status": 1, "channel": 9, "note": 38, "velocity": 0, "time": 0, "type": "NormalMsg"}, "M_7121": {"note_status": 1, "channel": 9, "note": 42, "velocity": 0, "time": 0, "type": "NormalMsg"}, "M_7122": {"note_status": 1, "channel": 9, "note": 42, "velocity": 58, "time": 0, "type": "NormalMsg"}, "M_7123": {"note_status": 1, "channel": 9, "note": 42, "velocity": 0, "time": 0, "type": "NormalMsg"}, "M_7124": {"note_status": 1, "channel": 9, "note": 35, "velocity": 112, "time": 0, "type": "NormalMsg"}, "M_7125": {"note_status": 1, "channel": 9, "note": 42, "velocity": 34, "time": 0, "type": "NormalMsg"}, "M_7126": {"note_status": 1, "channel": 9, "note": 35, "velocity": 0, "time": 0, "type": "NormalMsg"}, "M_7127": {"note_status": 1, "channel": 9, "note": 42, "velocity": 0, "time": 0, "type": "NormalMsg"}, "M_7128": {"note_status": 1, "channel": 9, "note": 42, "velocity": 58, "time": 0, "type": "NormalMsg"}, "M_7129": {"note_status": 1, "channel": 9, "note": 42, "velocity": 0, "time": 0, "type": "NormalMsg"}, "M_7130": {"note_status": 1, "channel": 9, "note": 35, "velocity": 112, "time": 0, "type": "NormalMsg"}, "M_7131": {"note_status": 1, "channel": 9, "note": 38, "velocity": 90, "time": 0, "type": "NormalMsg"}, "M_7132": {"note_status": 1, "channel": 9, "note": 42, "velocity": 34, "time": 0, "type": "NormalMsg"}, "M_7133": {"note_status": 1, "channel": 9, "note": 35, "velocity": 0, "time": 0, "type": "NormalMsg"}, "M_7134": {"note_status": 1, "channel": 9, "note": 38, "velocity": 0, "time": 0, "type": "NormalMsg"}, "M_7135": {"note_status": 1, "channel": 9, "note": 42, "velocity": 0, "time": 0, "type": "NormalMsg"}, "M_7136": {"note_status": 1, "channel": 9, "note": 42, "velocity": 58, "time": 0, "type": "NormalMsg"}, "M_7137": {"note_status": 1, "channel": 9, "note": 42, "velocity": 0, "time": 0, "type": "NormalMsg"}, "M_7138": {"note_status": 1, "channel": 9, "note": 42, "velocity": 58, "time": 0, "type": "NormalMsg"}, "M_7139": {"note_status": 1, "channel": 9, "note": 42, "velocity": 0, "time": 0, "type": "NormalMsg"}, "M_7140": {"note_status": 1, "channel": 9, "note": 35, "velocity": 112, "time": 0, "type": "NormalMsg"}, "M_7141": {"note_status": 1, "channel": 9, "note": 42, "velocity": 34, "time": 0, "type": "NormalMsg"}, "M_7142": {"note_status": 1, "channel": 9, "note": 35, "velocity": 0, "time": 0, "type": "NormalMsg"}, "M_7143": {"note_status": 1, "channel": 9, "note": 42, "velocity": 0, "time": 0, "type": "NormalMsg"}, "M_7144": {"note_status": 1, "channel": 9, "note": 42, "velocity": 58, "time": 0, "type": "NormalMsg"}, "M_7145": {"note_status": 1, "channel": 9, "note": 42, "velocity": 0, "time": 0, "type": "NormalMsg"}, "M_7146": {"note_status": 1, "channel": 9, "note": 35, "velocity": 112, "time": 0, "type": "NormalMsg"}, "M_7147": {"note_status": 1, "channel": 9, "note": 38, "velocity": 90, "time": 0, "type": "NormalMsg"}, "M_7148": {"note_status": 1, "channel": 9, "note": 42, "velocity": 34, "time": 0, "type": "NormalMsg"}, "M_7149": {"note_status": 1, "channel": 9, "note": 35, "velocity": 0, "time": 0, "type": "NormalMsg"}, "M_7150": {"note_status": 1, "channel": 9, "note": 38, "velocity": 0, "time": 0, "type": "NormalMsg"}, "M_7151": {"note_status": 1, "channel": 9, "note": 42, "velocity": 0, "time": 0, "type": "NormalMsg"}, "M_7152": {"note_status": 1, "channel": 9, "note": 42, "velocity": 58, "time": 0, "type": "NormalMsg"}, "M_7153": {"note_status": 1, "channel": 9, "note": 42, "velocity": 0, "time": 0, "type": "NormalMsg"}, "M_7154": {"note_status": 1, "channel": 9, "note": 35, "velocity": 112, "time": 0, "type": "NormalMsg"}, "M_7155": {"note_status": 1, "channel": 9, "note": 42, "velocity": 34, "time": 0, "type": "NormalMsg"}, "M_7156": {"note_status": 1, "channel": 9, "note": 35, "velocity": 0, "time": 0, "type": "NormalMsg"}, "M_7157": {"note_status": 1, "channel": 9, "note": 42, "velocity": 0, "time": 0, "type": "NormalMsg"}, "M_7158": {"note_status": 1, "channel": 9, "note": 42, "velocity": 58, "time": 0, "type": "NormalMsg"}, "M_7159": {"note_status": 1, "channel": 9, "note": 47, "velocity": 90, "time": 0, "type": "NormalMsg"}, "M_7160": {"note_status": 1, "channel": 9, "note": 42, "velocity": 0, "time": 0, "type": "NormalMsg"}, "M_7161": {"note_status": 1, "channel": 9, "note": 47, "velocity": 0, "time": 0, "type": "NormalMsg"}, "M_7162": {"note_status": 1, "channel": 9, "note": 35, "velocity": 112, "time": 0, "type": "NormalMsg"}, "M_7163": {"note_status": 1, "channel": 9, "note": 38, "velocity": 90, "time": 0, "type": "NormalMsg"}, "M_7164": {"note_status": 1, "channel": 9, "note": 42, "velocity": 34, "time": 0, "type": "NormalMsg"}, "M_7165": {"note_status": 1, "channel": 9, "note": 45, "velocity": 110, "time": 0, "type": "NormalMsg"}, "M_7166": {"note_status": 1, "channel": 9, "note": 35, "velocity": 0, "time": 0, "type": "NormalMsg"}, "M_7167": {"note_status": 1, "channel": 9, "note": 38, "velocity": 0, "time": 0, "type": "NormalMsg"}, "M_7168": {"note_status": 1, "channel": 9, "note": 42, "velocity": 0, "time": 0, "type": "NormalMsg"}, "M_7169": {"note_status": 1, "channel": 9, "note": 45, "velocity": 0, "time": 0, "type": "NormalMsg"}, "M_7170": {"note_status": 1, "channel": 9, "note": 42, "velocity": 52, "time": 0, "type": "NormalMsg"}, "M_7171": {"note_status": 1, "channel": 9, "note": 42, "velocity": 0, "time": 0, "type": "NormalMsg"}, "M_7172": {"note_status": 1, "channel": 9, "note": 38, "velocity": 70, "time": 0, "type": "NormalMsg"}, "M_7173": {"note_status": 1, "channel": 9, "note": 42, "velocity": 58, "time": 0, "type": "NormalMsg"}, "M_7174": {"note_status": 1, "channel": 9, "note": 43, "velocity": 82, "time": 0, "type": "NormalMsg"}, "M_7175": {"note_status": 1, "channel": 9, "note": 38, "velocity": 0, "time": 0, "type": "NormalMsg"}, "M_7176": {"note_status": 1, "channel": 9, "note": 42, "velocity": 0, "time": 0, "type": "NormalMsg"}, "M_7177": {"note_status": 1, "channel": 9, "note": 43, "velocity": 0, "time": 0, "type": "NormalMsg"}, "M_7178": {"note_status": 1, "channel": 9, "note": 38, "velocity": 70, "time": 0, "type": "NormalMsg"}, "M_7179": {"note_status": 1, "channel": 9, "note": 42, "velocity": 58, "time": 0, "type": "NormalMsg"}, "M_7180": {"note_status": 1, "channel": 9, "note": 43, "velocity": 82, "time": 0, "type": "NormalMsg"}, "M_7181": {"note_status": 1, "channel": 9, "note": 38, "velocity": 0, "time": 0, "type": "NormalMsg"}, "M_7182": {"note_status": 1, "channel": 9, "note": 42, "velocity": 0, "time": 0, "type": "NormalMsg"}, "M_7183": {"note_status": 1, "channel": 9, "note": 43, "velocity": 0, "time": 0, "type": "NormalMsg"}, "M_7184": {"note_status": 1, "channel": 9, "note": 35, "velocity": 112, "time": 0, "type": "NormalMsg"}, "M_7185": {"note_status": 1, "channel": 9, "note": 42, "velocity": 58, "time": 0, "type": "NormalMsg"}, "M_7186": {"note_status": 1, "channel": 9, "note": 35, "velocity": 0, "time": 0, "type": "NormalMsg"}, "M_7187": {"note_status": 1, "channel": 9, "note": 42, "velocity": 0, "time": 0, "type": "NormalMsg"}, "M_7188": {"note_status": 1, "channel": 9, "note": 42, "velocity": 52, "time": 0, "type": "NormalMsg"}, "M_7189": {"note_status": 1, "channel": 9, "note": 42, "velocity": 0, "time": 0, "type": "NormalMsg"}, "M_7190": {"note_status": 1, "channel": 9, "note": 42, "velocity": 45, "time": 0, "type": "NormalMsg"}, "M_7191": {"note_status": 1, "channel": 9, "note": 42, "velocity": 0, "time": 0, "type": "NormalMsg"}, "M_7192": {"note_status": 1, "channel": 9, "note": 42, "velocity": 45, "time": 0, "type": "NormalMsg"}, "M_7193": {"note_status": 1, "channel": 9, "note": 42, "velocity": 0, "time": 0, "type": "NormalMsg"}, "M_7194": {"note_status": 1, "channel": 9, "note": 35, "velocity": 112, "time": 0, "type": "NormalMsg"}, "M_7195": {"note_status": 1, "channel": 9, "note": 38, "velocity": 90, "time": 0, "type": "NormalMsg"}, "M_7196": {"note_status": 1, "channel": 9, "note": 42, "velocity": 58, "time": 0, "type": "NormalMsg"}, "M_7197": {"note_status": 1, "channel": 9, "note": 35, "velocity": 0, "time": 0, "type": "NormalMsg"}, "M_7198": {"note_status": 1, "channel": 9, "note": 38, "velocity": 0, "time": 0, "type": "NormalMsg"}, "M_7199": {"note_status": 1, "channel": 9, "note": 42, "velocity": 0, "time": 0, "type": "NormalMsg"}, "M_7200": {"note_status": 1, "channel": 9, "note": 42, "velocity": 52, "time": 0, "type": "NormalMsg"}, "M_7201": {"note_status": 1, "channel": 9, "note": 42, "velocity": 0, "time": 0, "type": "NormalMsg"}, "M_7202": {"note_status": 1, "channel": 9, "note": 42, "velocity": 45, "time": 0, "type": "NormalMsg"}, "M_7203": {"note_status": 1, "channel": 9, "note": 42, "velocity": 0, "time": 0, "type": "NormalMsg"}, "M_7204": {"note_status": 1, "channel": 9, "note": 42, "velocity": 45, "time": 0, "type": "NormalMsg"}, "M_7205": {"note_status": 1, "channel": 9, "note": 42, "velocity": 0, "time": 0, "type": "NormalMsg"}, "M_7206": {"note_status": 1, "channel": 9, "note": 35, "velocity": 112, "time": 0, "type": "NormalMsg"}, "M_7207": {"note_status": 1, "channel": 9, "note": 42, "velocity": 58, "time": 0, "type": "NormalMsg"}, "M_7208": {"note_status": 1, "channel": 9, "note": 35, "velocity": 0, "time": 0, "type": "NormalMsg"}, "M_7209": {"note_status": 1, "channel": 9, "note": 42, "velocity": 0, "time": 0, "type": "NormalMsg"}, "M_7210": {"note_status": 1, "channel": 9, "note": 42, "velocity": 52, "time": 0, "type": "NormalMsg"}, "M_7211": {"note_status": 1, "channel": 9, "note": 42, "velocity": 0, "time": 0, "type": "NormalMsg"}, "M_7212": {"note_status": 1, "channel": 9, "note": 42, "velocity": 58, "time": 0, "type": "NormalMsg"}, "M_7213": {"note_status": 1, "channel": 9, "note": 42, "velocity": 0, "time": 0, "type": "NormalMsg"}, "M_7214": {"note_status": 1, "channel": 9, "note": 42, "velocity": 58, "time": 0, "type": "NormalMsg"}, "M_7215": {"note_status": 1, "channel": 9, "note": 42, "velocity": 0, "time": 0, "type": "NormalMsg"}, "M_7216": {"note_status": 1, "channel": 9, "note": 35, "velocity": 112, "time": 0, "type": "NormalMsg"}, "M_7217": {"note_status": 1, "channel": 9, "note": 38, "velocity": 90, "time": 0, "type": "NormalMsg"}, "M_7218": {"note_status": 1, "channel": 9, "note": 42, "velocity": 58, "time": 0, "type": "NormalMsg"}, "M_7219": {"note_status": 1, "channel": 9, "note": 35, "velocity": 0, "time": 0, "type": "NormalMsg"}, "M_7220": {"note_status": 1, "channel": 9, "note": 38, "velocity": 0, "time": 0, "type": "NormalMsg"}, "M_7221": {"note_status": 1, "channel": 9, "note": 42, "velocity": 0, "time": 0, "type": "NormalMsg"}, "M_7222": {"note_status": 1, "channel": 9, "note": 42, "velocity": 52, "time": 0, "type": "NormalMsg"}, "M_7223": {"note_status": 1, "channel": 9, "note": 42, "velocity": 0, "time": 0, "type": "NormalMsg"}, "M_7224": {"note_status": 1, "channel": 9, "note": 42, "velocity": 45, "time": 0, "type": "NormalMsg"}, "M_7225": {"note_status": 1, "channel": 9, "note": 42, "velocity": 0, "time": 0, "type": "NormalMsg"}, "M_7226": {"note_status": 1, "channel": 9, "note": 42, "velocity": 45, "time": 0, "type": "NormalMsg"}, "M_7227": {"note_status": 1, "channel": 9, "note": 42, "velocity": 0, "time": 0, "type": "NormalMsg"}, "M_7228": {"note_status": 1, "channel": 9, "note": 35, "velocity": 112, "time": 0, "type": "NormalMsg"}, "M_7229": {"note_status": 1, "channel": 9, "note": 42, "velocity": 58, "time": 0, "type": "NormalMsg"}, "M_7230": {"note_status": 1, "channel": 9, "note": 35, "velocity": 0, "time": 0, "type": "NormalMsg"}, "M_7231": {"note_status": 1, "channel": 9, "note": 42, "velocity": 0, "time": 0, "type": "NormalMsg"}, "M_7232": {"note_status": 1, "channel": 9, "note": 42, "velocity": 52, "time": 0, "type": "NormalMsg"}, "M_7233": {"note_status": 1, "channel": 9, "note": 42, "velocity": 0, "time": 0, "type": "NormalMsg"}, "M_7234": {"note_status": 1, "channel": 9, "note": 42, "velocity": 45, "time": 0, "type": "NormalMsg"}, "M_7235": {"note_status": 1, "channel": 9, "note": 42, "velocity": 0, "time": 0, "type": "NormalMsg"}, "M_7236": {"note_status": 1, "channel": 9, "note": 42, "velocity": 45, "time": 0, "type": "NormalMsg"}, "M_7237": {"note_status": 1, "channel": 9, "note": 42, "velocity": 0, "time": 0, "type": "NormalMsg"}, "M_7238": {"note_status": 1, "channel": 9, "note": 35, "velocity": 112, "time": 0, "type": "NormalMsg"}, "M_7239": {"note_status": 1, "channel": 9, "note": 38, "velocity": 90, "time": 0, "type": "NormalMsg"}, "M_7240": {"note_status": 1, "channel": 9, "note": 42, "velocity": 58, "time": 0, "type": "NormalMsg"}, "M_7241": {"note_status": 1, "channel": 9, "note": 35, "velocity": 0, "time": 0, "type": "NormalMsg"}, "M_7242": {"note_status": 1, "channel": 9, "note": 38, "velocity": 0, "time": 0, "type": "NormalMsg"}, "M_7243": {"note_status": 1, "channel": 9, "note": 42, "velocity": 0, "time": 0, "type": "NormalMsg"}, "M_7244": {"note_status": 1, "channel": 9, "note": 42, "velocity": 52, "time": 0, "type": "NormalMsg"}, "M_7245": {"note_status": 1, "channel": 9, "note": 42, "velocity": 0, "time": 0, "type": "NormalMsg"}, "M_7246": {"note_status": 1, "channel": 9, "note": 42, "velocity": 45, "time": 0, "type": "NormalMsg"}, "M_7247": {"note_status": 1, "channel": 9, "note": 42, "velocity": 0, "time": 0, "type": "NormalMsg"}, "M_7248": {"note_status": 1, "channel": 9, "note": 42, "velocity": 45, "time": 0, "type": "NormalMsg"}, "M_7249": {"note_status": 1, "channel": 9, "note": 42, "velocity": 0, "time": 0, "type": "NormalMsg"}, "M_7250": {"note_status": 1, "channel": 9, "note": 35, "velocity": 112, "time": 0, "type": "NormalMsg"}, "M_7251": {"note_status": 1, "channel": 9, "note": 42, "velocity": 58, "time": 0, "type": "NormalMsg"}, "M_7252": {"note_status": 1, "channel": 9, "note": 35, "velocity": 0, "time": 0, "type": "NormalMsg"}, "M_7253": {"note_status": 1, "channel": 9, "note": 42, "velocity": 0, "time": 0, "type": "NormalMsg"}, "M_7254": {"note_status": 1, "channel": 9, "note": 42, "velocity": 52, "time": 0, "type": "NormalMsg"}, "M_7255": {"note_status": 1, "channel": 9, "note": 42, "velocity": 0, "time": 0, "type": "NormalMsg"}, "M_7256": {"note_status": 1, "channel": 9, "note": 42, "velocity": 58, "time": 0, "type": "NormalMsg"}, "M_7257": {"note_status": 1, "channel": 9, "note": 42, "velocity": 0, "time": 0, "type": "NormalMsg"}, "M_7258": {"note_status": 1, "channel": 9, "note": 42, "velocity": 58, "time": 0, "type": "NormalMsg"}, "M_7259": {"note_status": 1, "channel": 9, "note": 42, "velocity": 0, "time": 0, "type": "NormalMsg"}, "M_7260": {"note_status": 1, "channel": 9, "note": 35, "velocity": 112, "time": 0, "type": "NormalMsg"}, "M_7261": {"note_status": 1, "channel": 9, "note": 38, "velocity": 90, "time": 0, "type": "NormalMsg"}, "M_7262": {"note_status": 1, "channel": 9, "note": 42, "velocity": 58, "time": 0, "type": "NormalMsg"}, "M_7263": {"note_status": 1, "channel": 9, "note": 35, "velocity": 0, "time": 0, "type": "NormalMsg"}, "M_7264": {"note_status": 1, "channel": 9, "note": 38, "velocity": 0, "time": 0, "type": "NormalMsg"}, "M_7265": {"note_status": 1, "channel": 9, "note": 42, "velocity": 0, "time": 0, "type": "NormalMsg"}, "M_7266": {"note_status": 1, "channel": 9, "note": 42, "velocity": 52, "time": 0, "type": "NormalMsg"}, "M_7267": {"note_status": 1, "channel": 9, "note": 42, "velocity": 0, "time": 0, "type": "NormalMsg"}, "M_7268": {"note_status": 1, "channel": 9, "note": 42, "velocity": 45, "time": 0, "type": "NormalMsg"}, "M_7269": {"note_status": 1, "channel": 9, "note": 42, "velocity": 0, "time": 0, "type": "NormalMsg"}, "M_7270": {"note_status": 1, "channel": 9, "note": 42, "velocity": 45, "time": 0, "type": "NormalMsg"}, "M_7271": {"note_status": 1, "channel": 9, "note": 42, "velocity": 0, "time": 0, "type": "NormalMsg"}, "M_7272": {"note_status": 1, "channel": 9, "note": 35, "velocity": 112, "time": 0, "type": "NormalMsg"}, "M_7273": {"note_status": 1, "channel": 9, "note": 42, "velocity": 58, "time": 0, "type": "NormalMsg"}, "M_7274": {"note_status": 1, "channel": 9, "note": 35, "velocity": 0, "time": 0, "type": "NormalMsg"}, "M_7275": {"note_status": 1, "channel": 9, "note": 42, "velocity": 0, "time": 0, "type": "NormalMsg"}, "M_7276": {"note_status": 1, "channel": 9, "note": 42, "velocity": 52, "time": 0, "type": "NormalMsg"}, "M_7277": {"note_status": 1, "channel": 9, "note": 42, "velocity": 0, "time": 0, "type": "NormalMsg"}, "M_7278": {"note_status": 1, "channel": 9, "note": 42, "velocity": 45, "time": 0, "type": "NormalMsg"}, "M_7279": {"note_status": 1, "channel": 9, "note": 42, "velocity": 0, "time": 0, "type": "NormalMsg"}, "M_7280": {"note_status": 1, "channel": 9, "note": 42, "velocity": 45, "time": 0, "type": "NormalMsg"}, "M_7281": {"note_status": 1, "channel": 9, "note": 42, "velocity": 0, "time": 0, "type": "NormalMsg"}, "M_7282": {"note_status": 1, "channel": 9, "note": 35, "velocity": 112, "time": 0, "type": "NormalMsg"}, "M_7283": {"note_status": 1, "channel": 9, "note": 38, "velocity": 90, "time": 0, "type": "NormalMsg"}, "M_7284": {"note_status": 1, "channel": 9, "note": 42, "velocity": 58, "time": 0, "type": "NormalMsg"}, "M_7285": {"note_status": 1, "channel": 9, "note": 35, "velocity": 0, "time": 0, "type": "NormalMsg"}, "M_7286": {"note_status": 1, "channel": 9, "note": 38, "velocity": 0, "time": 0, "type": "NormalMsg"}, "M_7287": {"note_status": 1, "channel": 9, "note": 42, "velocity": 0, "time": 0, "type": "NormalMsg"}, "M_7288": {"note_status": 1, "channel": 9, "note": 42, "velocity": 52, "time": 0, "type": "NormalMsg"}, "M_7289": {"note_status": 1, "channel": 9, "note": 42, "velocity": 0, "time": 0, "type": "NormalMsg"}, "M_7290": {"note_status": 1, "channel": 9, "note": 42, "velocity": 45, "time": 0, "type": "NormalMsg"}, "M_7291": {"note_status": 1, "channel": 9, "note": 42, "velocity": 0, "time": 0, "type": "NormalMsg"}, "M_7292": {"note_status": 1, "channel": 9, "note": 42, "velocity": 45, "time": 0, "type": "NormalMsg"}, "M_7293": {"note_status": 1, "channel": 9, "note": 42, "velocity": 0, "time": 0, "type": "NormalMsg"}, "M_7294": {"note_status": 1, "channel": 9, "note": 35, "velocity": 112, "time": 0, "type": "NormalMsg"}, "M_7295": {"note_status": 1, "channel": 9, "note": 42, "velocity": 58, "time": 0, "type": "NormalMsg"}, "M_7296": {"note_status": 1, "channel": 9, "note": 35, "velocity": 0, "time": 0, "type": "NormalMsg"}, "M_7297": {"note_status": 1, "channel": 9, "note": 42, "velocity": 0, "time": 0, "type": "NormalMsg"}, "M_7298": {"note_status": 1, "channel": 9, "note": 42, "velocity": 52, "time": 0, "type": "NormalMsg"}, "M_7299": {"note_status": 1, "channel": 9, "note": 42, "velocity": 0, "time": 0, "type": "NormalMsg"}, "M_7300": {"note_status": 1, "channel": 9, "note": 42, "velocity": 58, "time": 0, "type": "NormalMsg"}, "M_7301": {"note_status": 1, "channel": 9, "note": 42, "velocity": 0, "time": 0, "type": "NormalMsg"}, "M_7302": {"note_status": 1, "channel": 9, "note": 42, "velocity": 58, "time": 0, "type": "NormalMsg"}, "M_7303": {"note_status": 1, "channel": 9, "note": 42, "velocity": 0, "time": 0, "type": "NormalMsg"}, "M_7304": {"note_status": 1, "channel": 9, "note": 35, "velocity": 112, "time": 0, "type": "NormalMsg"}, "M_7305": {"note_status": 1, "channel": 9, "note": 38, "velocity": 90, "time": 0, "type": "NormalMsg"}, "M_7306": {"note_status": 1, "channel": 9, "note": 42, "velocity": 58, "time": 0, "type": "NormalMsg"}, "M_7307": {"note_status": 1, "channel": 9, "note": 35, "velocity": 0, "time": 0, "type": "NormalMsg"}, "M_7308": {"note_status": 1, "channel": 9, "note": 38, "velocity": 0, "time": 0, "type": "NormalMsg"}, "M_7309": {"note_status": 1, "channel": 9, "note": 42, "velocity": 0, "time": 0, "type": "NormalMsg"}, "M_7310": {"note_status": 1, "channel": 9, "note": 42, "velocity": 52, "time": 0, "type": "NormalMsg"}, "M_7311": {"note_status": 1, "channel": 9, "note": 52, "velocity": 70, "time": 0, "type": "NormalMsg"}, "M_7312": {"note_status": 1, "channel": 9, "note": 42, "velocity": 0, "time": 0, "type": "NormalMsg"}, "M_7313": {"note_status": 1, "channel": 9, "note": 52, "velocity": 0, "time": 0, "type": "NormalMsg"}, "M_7314": {"note_status": 1, "channel": 9, "note": 42, "velocity": 45, "time": 0, "type": "NormalMsg"}, "M_7315": {"note_status": 1, "channel": 9, "note": 42, "velocity": 0, "time": 0, "type": "NormalMsg"}, "M_7316": {"note_status": 1, "channel": 9, "note": 42, "velocity": 45, "time": 0, "type": "NormalMsg"}, "M_7317": {"note_status": 1, "channel": 9, "note": 42, "velocity": 0, "time": 0, "type": "NormalMsg"}, "M_7318": {"note_status": 1, "channel": 9, "note": 35, "velocity": 112, "time": 0, "type": "NormalMsg"}, "M_7319": {"note_status": 1, "channel": 9, "note": 42, "velocity": 58, "time": 0, "type": "NormalMsg"}, "M_7320": {"note_status": 1, "channel": 9, "note": 35, "velocity": 0, "time": 0, "type": "NormalMsg"}, "M_7321": {"note_status": 1, "channel": 9, "note": 42, "velocity": 0, "time": 0, "type": "NormalMsg"}, "M_7322": {"note_status": 1, "channel": 9, "note": 42, "velocity": 58, "time": 0, "type": "NormalMsg"}, "M_7323": {"note_status": 1, "channel": 9, "note": 42, "velocity": 0, "time": 0, "type": "NormalMsg"}, "M_7324": {"note_status": 1, "channel": 9, "note": 42, "velocity": 45, "time": 0, "type": "NormalMsg"}, "M_7325": {"note_status": 1, "channel": 9, "note": 42, "velocity": 0, "time": 0, "type": "NormalMsg"}, "M_7326": {"note_status": 1, "channel": 9, "note": 42, "velocity": 45, "time": 0, "type": "NormalMsg"}, "M_7327": {"note_status": 1, "channel": 9, "note": 42, "velocity": 0, "time": 0, "type": "NormalMsg"}, "M_7328": {"note_status": 1, "channel": 9, "note": 28, "velocity": 90, "time": 0, "type": "NormalMsg"}, "M_7329": {"note_status": 1, "channel": 9, "note": 35, "velocity": 112, "time": 0, "type": "NormalMsg"}, "M_7330": {"note_status": 1, "channel": 9, "note": 38, "velocity": 90, "time": 0, "type": "NormalMsg"}, "M_7331": {"note_status": 1, "channel": 9, "note": 40, "velocity": 78, "time": 0, "type": "NormalMsg"}, "M_7332": {"note_status": 1, "channel": 9, "note": 42, "velocity": 58, "time": 0, "type": "NormalMsg"}, "M_7333": {"note_status": 1, "channel": 9, "note": 28, "velocity": 0, "time": 0, "type": "NormalMsg"}, "M_7334": {"note_status": 1, "channel": 9, "note": 35, "velocity": 0, "time": 0, "type": "NormalMsg"}, "M_7335": {"note_status": 1, "channel": 9, "note": 38, "velocity": 0, "time": 0, "type": "NormalMsg"}, "M_7336": {"note_status": 1, "channel": 9, "note": 40, "velocity": 0, "time": 0, "type": "NormalMsg"}, "M_7337": {"note_status": 1, "channel": 9, "note": 42, "velocity": 0, "time": 0, "type": "NormalMsg"}, "M_7338": {"note_status": 1, "channel": 9, "note": 35, "velocity": 112, "time": 0, "type": "NormalMsg"}, "M_7339": {"note_status": 1, "channel": 9, "note": 38, "velocity": 90, "time": 0, "type": "NormalMsg"}, "M_7340": {"note_status": 1, "channel": 9, "note": 35, "velocity": 0, "time": 0, "type": "NormalMsg"}, "M_7341": {"note_status": 1, "channel": 9, "note": 38, "velocity": 0, "time": 0, "type": "NormalMsg"}, "M_7342": {"note_status": 1, "channel": 9, "note": 35, "velocity": 112, "time": 0, "type": "NormalMsg"}, "M_7343": {"note_status": 1, "channel": 9, "note": 38, "velocity": 90, "time": 0, "type": "NormalMsg"}, "M_7344": {"note_status": 1, "channel": 9, "note": 35, "velocity": 0, "time": 0, "type": "NormalMsg"}, "M_7345": {"note_status": 1, "channel": 9, "note": 38, "velocity": 0, "time": 0, "type": "NormalMsg"}, "M_7346": {"note_status": 1, "channel": 9, "note": 35, "velocity": 112, "time": 0, "type": "NormalMsg"}, "M_7347": {"note_status": 1, "channel": 9, "note": 38, "velocity": 90, "time": 0, "type": "NormalMsg"}, "M_7348": {"note_status": 1, "channel": 9, "note": 35, "velocity": 0, "time": 0, "type": "NormalMsg"}, "M_7349": {"note_status": 1, "channel": 9, "note": 38, "velocity": 0, "time": 0, "type": "NormalMsg"}, "M_7350": {"note_status": 1, "channel": 9, "note": 35, "velocity": 112, "time": 0, "type": "NormalMsg"}, "M_7351": {"note_status": 1, "channel": 9, "note": 38, "velocity": 90, "time": 0, "type": "NormalMsg"}, "M_7352": {"note_status": 1, "channel": 9, "note": 35, "velocity": 0, "time": 0, "type": "NormalMsg"}, "M_7353": {"note_status": 1, "channel": 9, "note": 38, "velocity": 0, "time": 0, "type": "NormalMsg"}, "M_7354": {"note_status": 1, "channel": 9, "note": 35, "velocity": 112, "time": 0, "type": "NormalMsg"}, "M_7355": {"note_status": 1, "channel": 9, "note": 42, "velocity": 58, "time": 0, "type": "NormalMsg"}, "M_7356": {"note_status": 1, "channel": 9, "note": 35, "velocity": 0, "time": 0, "type": "NormalMsg"}, "M_7357": {"note_status": 1, "channel": 9, "note": 42, "velocity": 0, "time": 0, "type": "NormalMsg"}, "M_7358": {"note_status": 1, "channel": 9, "note": 42, "velocity": 45, "time": 0, "type": "NormalMsg"}, "M_7359": {"note_status": 1, "channel": 9, "note": 42, "velocity": 0, "time": 0, "type": "NormalMsg"}, "M_7360": {"note_status": 1, "channel": 9, "note": 42, "velocity": 45, "time": 0, "type": "NormalMsg"}, "M_7361": {"note_status": 1, "channel": 9, "note": 42, "velocity": 0, "time": 0, "type": "NormalMsg"}, "M_7362": {"note_status": 1, "channel": 9, "note": 28, "velocity": 127, "time": 0, "type": "NormalMsg"}, "M_7363": {"note_status": 1, "channel": 9, "note": 35, "velocity": 112, "time": 0, "type": "NormalMsg"}, "M_7364": {"note_status": 1, "channel": 9, "note": 38, "velocity": 90, "time": 0, "type": "NormalMsg"}, "M_7365": {"note_status": 1, "channel": 9, "note": 42, "velocity": 58, "time": 0, "type": "NormalMsg"}, "M_7366": {"note_status": 1, "channel": 9, "note": 49, "velocity": 103, "time": 0, "type": "NormalMsg"}, "M_7367": {"note_status": 1, "channel": 9, "note": 28, "velocity": 0, "time": 0, "type": "NormalMsg"}, "M_7368": {"note_status": 1, "channel": 9, "note": 35, "velocity": 0, "time": 0, "type": "NormalMsg"}, "M_7369": {"note_status": 1, "channel": 9, "note": 38, "velocity": 0, "time": 0, "type": "NormalMsg"}, "M_7370": {"note_status": 1, "channel": 9, "note": 42, "velocity": 0, "time": 0, "type": "NormalMsg"}, "M_7371": {"note_status": 1, "channel": 9, "note": 49, "velocity": 0, "time": 0, "type": "NormalMsg"}, "M_7372": {"note_status": 1, "channel": 9, "note": 42, "velocity": 45, "time": 0, "type": "NormalMsg"}, "M_7373": {"note_status": 1, "channel": 9, "note": 42, "velocity": 0, "time": 0, "type": "NormalMsg"}, "M_7374": {"note_status": 1, "channel": 9, "note": 42, "velocity": 45, "time": 0, "type": "NormalMsg"}, "M_7375": {"note_status": 1, "channel": 9, "note": 42, "velocity": 0, "time": 0, "type": "NormalMsg"}, "M_7376": {"note_status": 1, "channel": 9, "note": 35, "velocity": 112, "time": 0, "type": "NormalMsg"}, "M_7377": {"note_status": 1, "channel": 9, "note": 42, "velocity": 58, "time": 0, "type": "NormalMsg"}, "M_7378": {"note_status": 1, "channel": 9, "note": 35, "velocity": 0, "time": 0, "type": "NormalMsg"}, "M_7379": {"note_status": 1, "channel": 9, "note": 42, "velocity": 0, "time": 0, "type": "NormalMsg"}, "M_7380": {"note_status": 1, "channel": 9, "note": 42, "velocity": 52, "time": 0, "type": "NormalMsg"}, "M_7381": {"note_status": 1, "channel": 9, "note": 42, "velocity": 0, "time": 0, "type": "NormalMsg"}, "M_7382": {"note_status": 1, "channel": 9, "note": 42, "velocity": 58, "time": 0, "type": "NormalMsg"}, "M_7383": {"note_status": 1, "channel": 9, "note": 42, "velocity": 0, "time": 0, "type": "NormalMsg"}, "M_7384": {"note_status": 1, "channel": 9, "note": 42, "velocity": 58, "time": 0, "type": "NormalMsg"}, "M_7385": {"note_status": 1, "channel": 9, "note": 42, "velocity": 0, "time": 0, "type": "NormalMsg"}, "M_7386": {"note_status": 1, "channel": 9, "note": 35, "velocity": 112, "time": 0, "type": "NormalMsg"}, "M_7387": {"note_status": 1, "channel": 9, "note": 38, "velocity": 90, "time": 0, "type": "NormalMsg"}, "M_7388": {"note_status": 1, "channel": 9, "note": 42, "velocity": 58, "time": 0, "type": "NormalMsg"}, "M_7389": {"note_status": 1, "channel": 9, "note": 35, "velocity": 0, "time": 0, "type": "NormalMsg"}, "M_7390": {"note_status": 1, "channel": 9, "note": 38, "velocity": 0, "time": 0, "type": "NormalMsg"}, "M_7391": {"note_status": 1, "channel": 9, "note": 42, "velocity": 0, "time": 0, "type": "NormalMsg"}, "M_7392": {"note_status": 1, "channel": 9, "note": 42, "velocity": 45, "time": 0, "type": "NormalMsg"}, "M_7393": {"note_status": 1, "channel": 9, "note": 42, "velocity": 0, "time": 0, "type": "NormalMsg"}, "M_7394": {"note_status": 1, "channel": 9, "note": 42, "velocity": 45, "time": 0, "type": "NormalMsg"}, "M_7395": {"note_status": 1, "channel": 9, "note": 42, "velocity": 0, "time": 0, "type": "NormalMsg"}, "M_7396": {"note_status": 1, "channel": 9, "note": 35, "velocity": 112, "time": 0, "type": "NormalMsg"}, "M_7397": {"note_status": 1, "channel": 9, "note": 42, "velocity": 58, "time": 0, "type": "NormalMsg"}, "M_7398": {"note_status": 1, "channel": 9, "note": 35, "velocity": 0, "time": 0, "type": "NormalMsg"}, "M_7399": {"note_status": 1, "channel": 9, "note": 42, "velocity": 0, "time": 0, "type": "NormalMsg"}, "M_7400": {"note_status": 1, "channel": 9, "note": 42, "velocity": 45, "time": 0, "type": "NormalMsg"}, "M_7401": {"note_status": 1, "channel": 9, "note": 42, "velocity": 0, "time": 0, "type": "NormalMsg"}, "M_7402": {"note_status": 1, "channel": 9, "note": 42, "velocity": 45, "time": 0, "type": "NormalMsg"}, "M_7403": {"note_status": 1, "channel": 9, "note": 42, "velocity": 0, "time": 0, "type": "NormalMsg"}, "M_7404": {"note_status": 1, "channel": 9, "note": 35, "velocity": 112, "time": 0, "type": "NormalMsg"}, "M_7405": {"note_status": 1, "channel": 9, "note": 38, "velocity": 90, "time": 0, "type": "NormalMsg"}, "M_7406": {"note_status": 1, "channel": 9, "note": 42, "velocity": 58, "time": 0, "type": "NormalMsg"}, "M_7407": {"note_status": 1, "channel": 9, "note": 35, "velocity": 0, "time": 0, "type": "NormalMsg"}, "M_7408": {"note_status": 1, "channel": 9, "note": 38, "velocity": 0, "time": 0, "type": "NormalMsg"}, "M_7409": {"note_status": 1, "channel": 9, "note": 42, "velocity": 0, "time": 0, "type": "NormalMsg"}, "M_7410": {"note_status": 1, "channel": 9, "note": 42, "velocity": 45, "time": 0, "type": "NormalMsg"}, "M_7411": {"note_status": 1, "channel": 9, "note": 42, "velocity": 0, "time": 0, "type": "NormalMsg"}, "M_7412": {"note_status": 1, "channel": 9, "note": 42, "velocity": 45, "time": 0, "type": "NormalMsg"}, "M_7413": {"note_status": 1, "channel": 9, "note": 42, "velocity": 0, "time": 0, "type": "NormalMsg"}, "M_7414": {"note_status": 1, "channel": 9, "note": 35, "velocity": 112, "time": 0, "type": "NormalMsg"}, "M_7415": {"note_status": 1, "channel": 9, "note": 42, "velocity": 58, "time": 0, "type": "NormalMsg"}, "M_7416": {"note_status": 1, "channel": 9, "note": 35, "velocity": 0, "time": 0, "type": "NormalMsg"}, "M_7417": {"note_status": 1, "channel": 9, "note": 42, "velocity": 0, "time": 0, "type": "NormalMsg"}, "M_7418": {"note_status": 1, "channel": 9, "note": 42, "velocity": 33, "time": 0, "type": "NormalMsg"}, "M_7419": {"note_status": 1, "channel": 9, "note": 42, "velocity": 0, "time": 0, "type": "NormalMsg"}, "M_7420": {"note_status": 1, "channel": 9, "note": 42, "velocity": 58, "time": 0, "type": "NormalMsg"}, "M_7421": {"note_status": 1, "channel": 9, "note": 42, "velocity": 0, "time": 0, "type": "NormalMsg"}, "M_7422": {"note_status": 1, "channel": 9, "note": 42, "velocity": 58, "time": 0, "type": "NormalMsg"}, "M_7423": {"note_status": 1, "channel": 9, "note": 42, "velocity": 0, "time": 0, "type": "NormalMsg"}, "M_7424": {"note_status": 1, "channel": 9, "note": 35, "velocity": 112, "time": 0, "type": "NormalMsg"}, "M_7425": {"note_status": 1, "channel": 9, "note": 38, "velocity": 90, "time": 0, "type": "NormalMsg"}, "M_7426": {"note_status": 1, "channel": 9, "note": 42, "velocity": 58, "time": 0, "type": "NormalMsg"}, "M_7427": {"note_status": 1, "channel": 9, "note": 35, "velocity": 0, "time": 0, "type": "NormalMsg"}, "M_7428": {"note_status": 1, "channel": 9, "note": 38, "velocity": 0, "time": 0, "type": "NormalMsg"}, "M_7429": {"note_status": 1, "channel": 9, "note": 42, "velocity": 0, "time": 0, "type": "NormalMsg"}, "M_7430": {"note_status": 1, "channel": 9, "note": 42, "velocity": 45, "time": 0, "type": "NormalMsg"}, "M_7431": {"note_status": 1, "channel": 9, "note": 42, "velocity": 0, "time": 0, "type": "NormalMsg"}, "M_7432": {"note_status": 1, "channel": 9, "note": 42, "velocity": 45, "time": 0, "type": "NormalMsg"}, "M_7433": {"note_status": 1, "channel": 9, "note": 42, "velocity": 0, "time": 0, "type": "NormalMsg"}, "M_7434": {"note_status": 1, "channel": 9, "note": 35, "velocity": 112, "time": 0, "type": "NormalMsg"}, "M_7435": {"note_status": 1, "channel": 9, "note": 42, "velocity": 58, "time": 0, "type": "NormalMsg"}, "M_7436": {"note_status": 1, "channel": 9, "note": 35, "velocity": 0, "time": 0, "type": "NormalMsg"}, "M_7437": {"note_status": 1, "channel": 9, "note": 42, "velocity": 0, "time": 0, "type": "NormalMsg"}, "M_7438": {"note_status": 1, "channel": 9, "note": 42, "velocity": 45, "time": 0, "type": "NormalMsg"}, "M_7439": {"note_status": 1, "channel": 9, "note": 42, "velocity": 0, "time": 0, "type": "NormalMsg"}, "M_7440": {"note_status": 1, "channel": 9, "note": 42, "velocity": 45, "time": 0, "type": "NormalMsg"}, "M_7441": {"note_status": 1, "channel": 9, "note": 42, "velocity": 0, "time": 0, "type": "NormalMsg"}, "M_7442": {"note_status": 1, "channel": 9, "note": 35, "velocity": 112, "time": 0, "type": "NormalMsg"}, "M_7443": {"note_status": 1, "channel": 9, "note": 38, "velocity": 90, "time": 0, "type": "NormalMsg"}, "M_7444": {"note_status": 1, "channel": 9, "note": 42, "velocity": 58, "time": 0, "type": "NormalMsg"}, "M_7445": {"note_status": 1, "channel": 9, "note": 35, "velocity": 0, "time": 0, "type": "NormalMsg"}, "M_7446": {"note_status": 1, "channel": 9, "note": 38, "velocity": 0, "time": 0, "type": "NormalMsg"}, "M_7447": {"note_status": 1, "channel": 9, "note": 42, "velocity": 0, "time": 0, "type": "NormalMsg"}, "M_7448": {"note_status": 1, "channel": 9, "note": 42, "velocity": 45, "time": 0, "type": "NormalMsg"}, "M_7449": {"note_status": 1, "channel": 9, "note": 42, "velocity": 0, "time": 0, "type": "NormalMsg"}, "M_7450": {"note_status": 1, "channel": 9, "note": 42, "velocity": 45, "time": 0, "type": "NormalMsg"}, "M_7451": {"note_status": 1, "channel": 9, "note": 42, "velocity": 0, "time": 0, "type": "NormalMsg"}, "M_7452": {"note_status": 1, "channel": 9, "note": 35, "velocity": 112, "time": 0, "type": "NormalMsg"}, "M_7453": {"note_status": 1, "channel": 9, "note": 42, "velocity": 58, "time": 0, "type": "NormalMsg"}, "M_7454": {"note_status": 1, "channel": 9, "note": 35, "velocity": 0, "time": 0, "type": "NormalMsg"}, "M_7455": {"note_status": 1, "channel": 9, "note": 42, "velocity": 0, "time": 0, "type": "NormalMsg"}, "M_7456": {"note_status": 1, "channel": 9, "note": 42, "velocity": 52, "time": 0, "type": "NormalMsg"}, "M_7457": {"note_status": 1, "channel": 9, "note": 42, "velocity": 0, "time": 0, "type": "NormalMsg"}, "M_7458": {"note_status": 1, "channel": 9, "note": 42, "velocity": 58, "time": 0, "type": "NormalMsg"}, "M_7459": {"note_status": 1, "channel": 9, "note": 42, "velocity": 0, "time": 0, "type": "NormalMsg"}, "M_7460": {"note_status": 1, "channel": 9, "note": 42, "velocity": 58, "time": 0, "type": "NormalMsg"}, "M_7461": {"note_status": 1, "channel": 9, "note": 42, "velocity": 0, "time": 0, "type": "NormalMsg"}, "M_7462": {"note_status": 1, "channel": 9, "note": 35, "velocity": 112, "time": 0, "type": "NormalMsg"}, "M_7463": {"note_status": 1, "channel": 9, "note": 38, "velocity": 90, "time": 0, "type": "NormalMsg"}, "M_7464": {"note_status": 1, "channel": 9, "note": 42, "velocity": 58, "time": 0, "type": "NormalMsg"}, "M_7465": {"note_status": 1, "channel": 9, "note": 35, "velocity": 0, "time": 0, "type": "NormalMsg"}, "M_7466": {"note_status": 1, "channel": 9, "note": 38, "velocity": 0, "time": 0, "type": "NormalMsg"}, "M_7467": {"note_status": 1, "channel": 9, "note": 42, "velocity": 0, "time": 0, "type": "NormalMsg"}, "M_7468": {"note_status": 1, "channel": 9, "note": 42, "velocity": 45, "time": 0, "type": "NormalMsg"}, "M_7469": {"note_status": 1, "channel": 9, "note": 42, "velocity": 0, "time": 0, "type": "NormalMsg"}, "M_7470": {"note_status": 1, "channel": 9, "note": 42, "velocity": 45, "time": 0, "type": "NormalMsg"}, "M_7471": {"note_status": 1, "channel": 9, "note": 42, "velocity": 0, "time": 0, "type": "NormalMsg"}, "M_7472": {"note_status": 1, "channel": 9, "note": 35, "velocity": 112, "time": 0, "type": "NormalMsg"}, "M_7473": {"note_status": 1, "channel": 9, "note": 42, "velocity": 58, "time": 0, "type": "NormalMsg"}, "M_7474": {"note_status": 1, "channel": 9, "note": 35, "velocity": 0, "time": 0, "type": "NormalMsg"}, "M_7475": {"note_status": 1, "channel": 9, "note": 42, "velocity": 0, "time": 0, "type": "NormalMsg"}, "M_7476": {"note_status": 1, "channel": 9, "note": 42, "velocity": 45, "time": 0, "type": "NormalMsg"}, "M_7477": {"note_status": 1, "channel": 9, "note": 42, "velocity": 0, "time": 0, "type": "NormalMsg"}, "M_7478": {"note_status": 1, "channel": 9, "note": 42, "velocity": 45, "time": 0, "type": "NormalMsg"}, "M_7479": {"note_status": 1, "channel": 9, "note": 42, "velocity": 0, "time": 0, "type": "NormalMsg"}, "M_7480": {"note_status": 1, "channel": 9, "note": 35, "velocity": 112, "time": 0, "type": "NormalMsg"}, "M_7481": {"note_status": 1, "channel": 9, "note": 38, "velocity": 90, "time": 0, "type": "NormalMsg"}, "M_7482": {"note_status": 1, "channel": 9, "note": 42, "velocity": 58, "time": 0, "type": "NormalMsg"}, "M_7483": {"note_status": 1, "channel": 9, "note": 35, "velocity": 0, "time": 0, "type": "NormalMsg"}, "M_7484": {"note_status": 1, "channel": 9, "note": 38, "velocity": 0, "time": 0, "type": "NormalMsg"}, "M_7485": {"note_status": 1, "channel": 9, "note": 42, "velocity": 0, "time": 0, "type": "NormalMsg"}, "M_7486": {"note_status": 1, "channel": 9, "note": 42, "velocity": 45, "time": 0, "type": "NormalMsg"}, "M_7487": {"note_status": 1, "channel": 9, "note": 42, "velocity": 0, "time": 0, "type": "NormalMsg"}, "M_7488": {"note_status": 1, "channel": 9, "note": 42, "velocity": 45, "time": 0, "type": "NormalMsg"}, "M_7489": {"note_status": 1, "channel": 9, "note": 42, "velocity": 0, "time": 0, "type": "NormalMsg"}, "M_7490": {"note_status": 1, "channel": 9, "note": 35, "velocity": 112, "time": 0, "type": "NormalMsg"}, "M_7491": {"note_status": 1, "channel": 9, "note": 42, "velocity": 58, "time": 0, "type": "NormalMsg"}, "M_7492": {"note_status": 1, "channel": 9, "note": 35, "velocity": 0, "time": 0, "type": "NormalMsg"}, "M_7493": {"note_status": 1, "channel": 9, "note": 42, "velocity": 0, "time": 0, "type": "NormalMsg"}, "M_7494": {"note_status": 1, "channel": 9, "note": 42, "velocity": 45, "time": 0, "type": "NormalMsg"}, "M_7495": {"note_status": 1, "channel": 9, "note": 42, "velocity": 0, "time": 0, "type": "NormalMsg"}, "M_7496": {"note_status": 1, "channel": 9, "note": 42, "velocity": 45, "time": 0, "type": "NormalMsg"}, "M_7497": {"note_status": 1, "channel": 9, "note": 42, "velocity": 0, "time": 0, "type": "NormalMsg"}, "M_7498": {"note_status": 1, "channel": 9, "note": 28, "velocity": 127, "time": 0, "type": "NormalMsg"}, "M_7499": {"note_status": 1, "channel": 9, "note": 35, "velocity": 112, "time": 0, "type": "NormalMsg"}, "M_7500": {"note_status": 1, "channel": 9, "note": 38, "velocity": 90, "time": 0, "type": "NormalMsg"}, "M_7501": {"note_status": 1, "channel": 9, "note": 42, "velocity": 58, "time": 0, "type": "NormalMsg"}, "M_7502": {"note_status": 1, "channel": 9, "note": 49, "velocity": 103, "time": 0, "type": "NormalMsg"}, "M_7503": {"note_status": 1, "channel": 9, "note": 28, "velocity": 0, "time": 0, "type": "NormalMsg"}, "M_7504": {"note_status": 1, "channel": 9, "note": 35, "velocity": 0, "time": 0, "type": "NormalMsg"}, "M_7505": {"note_status": 1, "channel": 9, "note": 38, "velocity": 0, "time": 0, "type": "NormalMsg"}, "M_7506": {"note_status": 1, "channel": 9, "note": 42, "velocity": 0, "time": 0, "type": "NormalMsg"}, "M_7507": {"note_status": 1, "channel": 9, "note": 49, "velocity": 0, "time": 0, "type": "NormalMsg"}, "M_7508": {"note_status": 1, "channel": 9, "note": 42, "velocity": 45, "time": 0, "type": "NormalMsg"}, "M_7509": {"note_status": 1, "channel": 9, "note": 42, "velocity": 0, "time": 0, "type": "NormalMsg"}, "M_7510": {"note_status": 1, "channel": 9, "note": 42, "velocity": 45, "time": 0, "type": "NormalMsg"}, "M_7511": {"note_status": 1, "channel": 9, "note": 42, "velocity": 0, "time": 0, "type": "NormalMsg"}, "M_7512": {"note_status": 1, "channel": 9, "note": 35, "velocity": 112, "time": 0, "type": "NormalMsg"}, "M_7513": {"note_status": 1, "channel": 9, "note": 42, "velocity": 58, "time": 0, "type": "NormalMsg"}, "M_7514": {"note_status": 1, "channel": 9, "note": 35, "velocity": 0, "time": 0, "type": "NormalMsg"}, "M_7515": {"note_status": 1, "channel": 9, "note": 42, "velocity": 0, "time": 0, "type": "NormalMsg"}, "M_7516": {"note_status": 1, "channel": 9, "note": 42, "velocity": 52, "time": 0, "type": "NormalMsg"}, "M_7517": {"note_status": 1, "channel": 9, "note": 42, "velocity": 0, "time": 0, "type": "NormalMsg"}, "M_7518": {"note_status": 1, "channel": 9, "note": 42, "velocity": 58, "time": 0, "type": "NormalMsg"}, "M_7519": {"note_status": 1, "channel": 9, "note": 42, "velocity": 0, "time": 0, "type": "NormalMsg"}, "M_7520": {"note_status": 1, "channel": 9, "note": 42, "velocity": 58, "time": 0, "type": "NormalMsg"}, "M_7521": {"note_status": 1, "channel": 9, "note": 42, "velocity": 0, "time": 0, "type": "NormalMsg"}, "M_7522": {"note_status": 1, "channel": 9, "note": 35, "velocity": 112, "time": 0, "type": "NormalMsg"}, "M_7523": {"note_status": 1, "channel": 9, "note": 38, "velocity": 90, "time": 0, "type": "NormalMsg"}, "M_7524": {"note_status": 1, "channel": 9, "note": 42, "velocity": 58, "time": 0, "type": "NormalMsg"}, "M_7525": {"note_status": 1, "channel": 9, "note": 35, "velocity": 0, "time": 0, "type": "NormalMsg"}, "M_7526": {"note_status": 1, "channel": 9, "note": 38, "velocity": 0, "time": 0, "type": "NormalMsg"}, "M_7527": {"note_status": 1, "channel": 9, "note": 42, "velocity": 0, "time": 0, "type": "NormalMsg"}, "M_7528": {"note_status": 1, "channel": 9, "note": 42, "velocity": 45, "time": 0, "type": "NormalMsg"}, "M_7529": {"note_status": 1, "channel": 9, "note": 42, "velocity": 0, "time": 0, "type": "NormalMsg"}, "M_7530": {"note_status": 1, "channel": 9, "note": 42, "velocity": 45, "time": 0, "type": "NormalMsg"}, "M_7531": {"note_status": 1, "channel": 9, "note": 42, "velocity": 0, "time": 0, "type": "NormalMsg"}, "M_7532": {"note_status": 1, "channel": 9, "note": 35, "velocity": 112, "time": 0, "type": "NormalMsg"}, "M_7533": {"note_status": 1, "channel": 9, "note": 42, "velocity": 58, "time": 0, "type": "NormalMsg"}, "M_7534": {"note_status": 1, "channel": 9, "note": 35, "velocity": 0, "time": 0, "type": "NormalMsg"}, "M_7535": {"note_status": 1, "channel": 9, "note": 42, "velocity": 0, "time": 0, "type": "NormalMsg"}, "M_7536": {"note_status": 1, "channel": 9, "note": 42, "velocity": 45, "time": 0, "type": "NormalMsg"}, "M_7537": {"note_status": 1, "channel": 9, "note": 42, "velocity": 0, "time": 0, "type": "NormalMsg"}, "M_7538": {"note_status": 1, "channel": 9, "note": 42, "velocity": 45, "time": 0, "type": "NormalMsg"}, "M_7539": {"note_status": 1, "channel": 9, "note": 42, "velocity": 0, "time": 0, "type": "NormalMsg"}, "M_7540": {"note_status": 1, "channel": 9, "note": 35, "velocity": 112, "time": 0, "type": "NormalMsg"}, "M_7541": {"note_status": 1, "channel": 9, "note": 38, "velocity": 90, "time": 0, "type": "NormalMsg"}, "M_7542": {"note_status": 1, "channel": 9, "note": 42, "velocity": 58, "time": 0, "type": "NormalMsg"}, "M_7543": {"note_status": 1, "channel": 9, "note": 35, "velocity": 0, "time": 0, "type": "NormalMsg"}, "M_7544": {"note_status": 1, "channel": 9, "note": 38, "velocity": 0, "time": 0, "type": "NormalMsg"}, "M_7545": {"note_status": 1, "channel": 9, "note": 42, "velocity": 0, "time": 0, "type": "NormalMsg"}, "M_7546": {"note_status": 1, "channel": 9, "note": 42, "velocity": 45, "time": 0, "type": "NormalMsg"}, "M_7547": {"note_status": 1, "channel": 9, "note": 42, "velocity": 0, "time": 0, "type": "NormalMsg"}, "M_7548": {"note_status": 1, "channel": 9, "note": 42, "velocity": 45, "time": 0, "type": "NormalMsg"}, "M_7549": {"note_status": 1, "channel": 9, "note": 42, "velocity": 0, "time": 0, "type": "NormalMsg"}, "M_7550": {"note_status": 1, "channel": 9, "note": 35, "velocity": 112, "time": 0, "type": "NormalMsg"}, "M_7551": {"note_status": 1, "channel": 9, "note": 42, "velocity": 58, "time": 0, "type": "NormalMsg"}, "M_7552": {"note_status": 1, "channel": 9, "note": 35, "velocity": 0, "time": 0, "type": "NormalMsg"}, "M_7553": {"note_status": 1, "channel": 9, "note": 42, "velocity": 0, "time": 0, "type": "NormalMsg"}, "M_7554": {"note_status": 1, "channel": 9, "note": 42, "velocity": 58, "time": 0, "type": "NormalMsg"}, "M_7555": {"note_status": 1, "channel": 9, "note": 42, "velocity": 0, "time": 0, "type": "NormalMsg"}, "M_7556": {"note_status": 1, "channel": 9, "note": 42, "velocity": 58, "time": 0, "type": "NormalMsg"}, "M_7557": {"note_status": 1, "channel": 9, "note": 42, "velocity": 0, "time": 0, "type": "NormalMsg"}, "M_7558": {"note_status": 1, "channel": 9, "note": 35, "velocity": 112, "time": 0, "type": "NormalMsg"}, "M_7559": {"note_status": 1, "channel": 9, "note": 38, "velocity": 90, "time": 0, "type": "NormalMsg"}, "M_7560": {"note_status": 1, "channel": 9, "note": 42, "velocity": 58, "time": 0, "type": "NormalMsg"}, "M_7561": {"note_status": 1, "channel": 9, "note": 35, "velocity": 0, "time": 0, "type": "NormalMsg"}, "M_7562": {"note_status": 1, "channel": 9, "note": 38, "velocity": 0, "time": 0, "type": "NormalMsg"}, "M_7563": {"note_status": 1, "channel": 9, "note": 42, "velocity": 0, "time": 0, "type": "NormalMsg"}, "M_7564": {"note_status": 1, "channel": 9, "note": 42, "velocity": 45, "time": 0, "type": "NormalMsg"}, "M_7565": {"note_status": 1, "channel": 9, "note": 42, "velocity": 0, "time": 0, "type": "NormalMsg"}, "M_7566": {"note_status": 1, "channel": 9, "note": 42, "velocity": 45, "time": 0, "type": "NormalMsg"}, "M_7567": {"note_status": 1, "channel": 9, "note": 42, "velocity": 0, "time": 0, "type": "NormalMsg"}, "M_7568": {"note_status": 1, "channel": 9, "note": 35, "velocity": 112, "time": 0, "type": "NormalMsg"}, "M_7569": {"note_status": 1, "channel": 9, "note": 42, "velocity": 58, "time": 0, "type": "NormalMsg"}, "M_7570": {"note_status": 1, "channel": 9, "note": 35, "velocity": 0, "time": 0, "type": "NormalMsg"}, "M_7571": {"note_status": 1, "channel": 9, "note": 42, "velocity": 0, "time": 0, "type": "NormalMsg"}, "M_7572": {"note_status": 1, "channel": 9, "note": 42, "velocity": 45, "time": 0, "type": "NormalMsg"}, "M_7573": {"note_status": 1, "channel": 9, "note": 42, "velocity": 0, "time": 0, "type": "NormalMsg"}, "M_7574": {"note_status": 1, "channel": 9, "note": 42, "velocity": 45, "time": 0, "type": "NormalMsg"}, "M_7575": {"note_status": 1, "channel": 9, "note": 42, "velocity": 0, "time": 0, "type": "NormalMsg"}, "M_7576": {"note_status": 1, "channel": 9, "note": 35, "velocity": 112, "time": 0, "type": "NormalMsg"}, "M_7577": {"note_status": 1, "channel": 9, "note": 38, "velocity": 90, "time": 0, "type": "NormalMsg"}, "M_7578": {"note_status": 1, "channel": 9, "note": 42, "velocity": 58, "time": 0, "type": "NormalMsg"}, "M_7579": {"note_status": 1, "channel": 9, "note": 35, "velocity": 0, "time": 0, "type": "NormalMsg"}, "M_7580": {"note_status": 1, "channel": 9, "note": 38, "velocity": 0, "time": 0, "type": "NormalMsg"}, "M_7581": {"note_status": 1, "channel": 9, "note": 42, "velocity": 0, "time": 0, "type": "NormalMsg"}, "M_7582": {"note_status": 1, "channel": 9, "note": 42, "velocity": 45, "time": 0, "type": "NormalMsg"}, "M_7583": {"note_status": 1, "channel": 9, "note": 42, "velocity": 0, "time": 0, "type": "NormalMsg"}, "M_7584": {"note_status": 1, "channel": 9, "note": 42, "velocity": 45, "time": 0, "type": "NormalMsg"}, "M_7585": {"note_status": 1, "channel": 9, "note": 42, "velocity": 0, "time": 0, "type": "NormalMsg"}, "M_7586": {"note_status": 1, "channel": 9, "note": 35, "velocity": 112, "time": 0, "type": "NormalMsg"}, "M_7587": {"note_status": 1, "channel": 9, "note": 42, "velocity": 58, "time": 0, "type": "NormalMsg"}, "M_7588": {"note_status": 1, "channel": 9, "note": 35, "velocity": 0, "time": 0, "type": "NormalMsg"}, "M_7589": {"note_status": 1, "channel": 9, "note": 42, "velocity": 0, "time": 0, "type": "NormalMsg"}, "M_7590": {"note_status": 1, "channel": 9, "note": 42, "velocity": 52, "time": 0, "type": "NormalMsg"}, "M_7591": {"note_status": 1, "channel": 9, "note": 42, "velocity": 0, "time": 0, "type": "NormalMsg"}, "M_7592": {"note_status": 1, "channel": 9, "note": 42, "velocity": 58, "time": 0, "type": "NormalMsg"}, "M_7593": {"note_status": 1, "channel": 9, "note": 42, "velocity": 0, "time": 0, "type": "NormalMsg"}, "M_7594": {"note_status": 1, "channel": 9, "note": 42, "velocity": 58, "time": 0, "type": "NormalMsg"}, "M_7595": {"note_status": 1, "channel": 9, "note": 42, "velocity": 0, "time": 0, "type": "NormalMsg"}, "M_7596": {"note_status": 1, "channel": 9, "note": 35, "velocity": 112, "time": 0, "type": "NormalMsg"}, "M_7597": {"note_status": 1, "channel": 9, "note": 38, "velocity": 90, "time": 0, "type": "NormalMsg"}, "M_7598": {"note_status": 1, "channel": 9, "note": 42, "velocity": 58, "time": 0, "type": "NormalMsg"}, "M_7599": {"note_status": 1, "channel": 9, "note": 35, "velocity": 0, "time": 0, "type": "NormalMsg"}, "M_7600": {"note_status": 1, "channel": 9, "note": 38, "velocity": 0, "time": 0, "type": "NormalMsg"}, "M_7601": {"note_status": 1, "channel": 9, "note": 42, "velocity": 0, "time": 0, "type": "NormalMsg"}, "M_7602": {"note_status": 1, "channel": 9, "note": 42, "velocity": 45, "time": 0, "type": "NormalMsg"}, "M_7603": {"note_status": 1, "channel": 9, "note": 42, "velocity": 0, "time": 0, "type": "NormalMsg"}, "M_7604": {"note_status": 1, "channel": 9, "note": 42, "velocity": 45, "time": 0, "type": "NormalMsg"}, "M_7605": {"note_status": 1, "channel": 9, "note": 42, "velocity": 0, "time": 0, "type": "NormalMsg"}, "M_7606": {"note_status": 1, "channel": 9, "note": 35, "velocity": 112, "time": 0, "type": "NormalMsg"}, "M_7607": {"note_status": 1, "channel": 9, "note": 42, "velocity": 58, "time": 0, "type": "NormalMsg"}, "M_7608": {"note_status": 1, "channel": 9, "note": 35, "velocity": 0, "time": 0, "type": "NormalMsg"}, "M_7609": {"note_status": 1, "channel": 9, "note": 42, "velocity": 0, "time": 0, "type": "NormalMsg"}, "M_7610": {"note_status": 1, "channel": 9, "note": 42, "velocity": 45, "time": 0, "type": "NormalMsg"}, "M_7611": {"note_status": 1, "channel": 9, "note": 42, "velocity": 0, "time": 0, "type": "NormalMsg"}, "M_7612": {"note_status": 1, "channel": 9, "note": 42, "velocity": 45, "time": 0, "type": "NormalMsg"}, "M_7613": {"note_status": 1, "channel": 9, "note": 42, "velocity": 0, "time": 0, "type": "NormalMsg"}, "M_7614": {"note_status": 1, "channel": 9, "note": 35, "velocity": 112, "time": 0, "type": "NormalMsg"}, "M_7615": {"note_status": 1, "channel": 9, "note": 38, "velocity": 90, "time": 0, "type": "NormalMsg"}, "M_7616": {"note_status": 1, "channel": 9, "note": 42, "velocity": 58, "time": 0, "type": "NormalMsg"}, "M_7617": {"note_status": 1, "channel": 9, "note": 35, "velocity": 0, "time": 0, "type": "NormalMsg"}, "M_7618": {"note_status": 1, "channel": 9, "note": 38, "velocity": 0, "time": 0, "type": "NormalMsg"}, "M_7619": {"note_status": 1, "channel": 9, "note": 42, "velocity": 0, "time": 0, "type": "NormalMsg"}, "M_7620": {"note_status": 1, "channel": 9, "note": 42, "velocity": 45, "time": 0, "type": "NormalMsg"}, "M_7621": {"note_status": 1, "channel": 9, "note": 42, "velocity": 0, "time": 0, "type": "NormalMsg"}, "M_7622": {"note_status": 1, "channel": 9, "note": 42, "velocity": 45, "time": 0, "type": "NormalMsg"}, "M_7623": {"note_status": 1, "channel": 9, "note": 42, "velocity": 0, "time": 0, "type": "NormalMsg"}, "M_7624": {"note_status": 1, "channel": 9, "note": 35, "velocity": 112, "time": 0, "type": "NormalMsg"}, "M_7625": {"note_status": 1, "channel": 9, "note": 38, "velocity": 90, "time": 0, "type": "NormalMsg"}, "M_7626": {"note_status": 1, "channel": 9, "note": 42, "velocity": 58, "time": 0, "type": "NormalMsg"}, "M_7627": {"note_status": 1, "channel": 9, "note": 35, "velocity": 0, "time": 0, "type": "NormalMsg"}, "M_7628": {"note_status": 1, "channel": 9, "note": 38, "velocity": 0, "time": 0, "type": "NormalMsg"}, "M_7629": {"note_status": 1, "channel": 9, "note": 42, "velocity": 0, "time": 0, "type": "NormalMsg"}, "M_7630": {"note_status": 1, "channel": 9, "note": 42, "velocity": 52, "time": 0, "type": "NormalMsg"}, "M_7631": {"note_status": 1, "channel": 9, "note": 42, "velocity": 0, "time": 0, "type": "NormalMsg"}, "M_7632": {"note_status": 1, "channel": 9, "note": 35, "velocity": 112, "time": 0, "type": "NormalMsg"}, "M_7633": {"note_status": 1, "channel": 9, "note": 38, "velocity": 90, "time": 0, "type": "NormalMsg"}, "M_7634": {"note_status": 1, "channel": 9, "note": 42, "velocity": 58, "time": 0, "type": "NormalMsg"}, "M_7635": {"note_status": 1, "channel": 9, "note": 35, "velocity": 0, "time": 0, "type": "NormalMsg"}, "M_7636": {"note_status": 1, "channel": 9, "note": 38, "velocity": 0, "time": 0, "type": "NormalMsg"}, "M_7637": {"note_status": 1, "channel": 9, "note": 42, "velocity": 0, "time": 0, "type": "NormalMsg"}, "M_7638": {"note_status": 1, "channel": 9, "note": 42, "velocity": 58, "time": 0, "type": "NormalMsg"}, "M_7639": {"note_status": 1, "channel": 9, "note": 42, "velocity": 0, "time": 0, "type": "NormalMsg"}, "M_7640": {"note_status": 1, "channel": 9, "note": 35, "velocity": 112, "time": 0, "type": "NormalMsg"}, "M_7641": {"note_status": 1, "channel": 9, "note": 38, "velocity": 90, "time": 0, "type": "NormalMsg"}, "M_7642": {"note_status": 1, "channel": 9, "note": 42, "velocity": 58, "time": 0, "type": "NormalMsg"}, "M_7643": {"note_status": 1, "channel": 9, "note": 35, "velocity": 0, "time": 0, "type": "NormalMsg"}, "M_7644": {"note_status": 1, "channel": 9, "note": 38, "velocity": 0, "time": 0, "type": "NormalMsg"}, "M_7645": {"note_status": 1, "channel": 9, "note": 42, "velocity": 0, "time": 0, "type": "NormalMsg"}, "M_7646": {"note_status": 1, "channel": 9, "note": 35, "velocity": 112, "time": 0, "type": "NormalMsg"}, "M_7647": {"note_status": 1, "channel": 9, "note": 38, "velocity": 90, "time": 0, "type": "NormalMsg"}, "M_7648": {"note_status": 1, "channel": 9, "note": 42, "velocity": 45, "time": 0, "type": "NormalMsg"}, "M_7649": {"note_status": 1, "channel": 9, "note": 35, "velocity": 0, "time": 0, "type": "NormalMsg"}, "M_7650": {"note_status": 1, "channel": 9, "note": 38, "velocity": 0, "time": 0, "type": "NormalMsg"}, "M_7651": {"note_status": 1, "channel": 9, "note": 42, "velocity": 0, "time": 0, "type": "NormalMsg"}, "M_7652": {"note_status": 1, "channel": 9, "note": 42, "velocity": 45, "time": 0, "type": "NormalMsg"}, "M_7653": {"note_status": 1, "channel": 9, "note": 42, "velocity": 0, "time": 0, "type": "NormalMsg"}, "M_7654": {"note_status": 1, "channel": 9, "note": 35, "velocity": 112, "time": 0, "type": "NormalMsg"}, "M_7655": {"note_status": 1, "channel": 9, "note": 42, "velocity": 58, "time": 0, "type": "NormalMsg"}, "M_7656": {"note_status": 1, "channel": 9, "note": 35, "velocity": 0, "time": 0, "type": "NormalMsg"}, "M_7657": {"note_status": 1, "channel": 9, "note": 42, "velocity": 0, "time": 0, "type": "NormalMsg"}, "M_7658": {"note_status": 1, "channel": 9, "note": 42, "velocity": 45, "time": 0, "type": "NormalMsg"}, "M_7659": {"note_status": 1, "channel": 9, "note": 42, "velocity": 0, "time": 0, "type": "NormalMsg"}, "M_7660": {"note_status": 1, "channel": 9, "note": 42, "velocity": 45, "time": 0, "type": "NormalMsg"}, "M_7661": {"note_status": 1, "channel": 9, "note": 42, "velocity": 0, "time": 0, "type": "NormalMsg"}, "M_7662": {"note_status": 1, "channel": 9, "note": 35, "velocity": 112, "time": 0, "type": "NormalMsg"}, "M_7663": {"note_status": 1, "channel": 9, "note": 38, "velocity": 90, "time": 0, "type": "NormalMsg"}, "M_7664": {"note_status": 1, "channel": 9, "note": 42, "velocity": 58, "time": 0, "type": "NormalMsg"}, "M_7665": {"note_status": 1, "channel": 9, "note": 35, "velocity": 0, "time": 0, "type": "NormalMsg"}, "M_7666": {"note_status": 1, "channel": 9, "note": 38, "velocity": 0, "time": 0, "type": "NormalMsg"}, "M_7667": {"note_status": 1, "channel": 9, "note": 42, "velocity": 0, "time": 0, "type": "NormalMsg"}, "M_7668": {"note_status": 1, "channel": 9, "note": 42, "velocity": 45, "time": 0, "type": "NormalMsg"}, "M_7669": {"note_status": 1, "channel": 9, "note": 42, "velocity": 0, "time": 0, "type": "NormalMsg"}, "M_7670": {"note_status": 1, "channel": 9, "note": 42, "velocity": 45, "time": 0, "type": "NormalMsg"}, "M_7671": {"note_status": 1, "channel": 9, "note": 42, "velocity": 0, "time": 0, "type": "NormalMsg"}, "M_7672": {"note_status": 1, "channel": 9, "note": 35, "velocity": 112, "time": 0, "type": "NormalMsg"}, "M_7673": {"note_status": 1, "channel": 9, "note": 42, "velocity": 58, "time": 0, "type": "NormalMsg"}, "M_7674": {"note_status": 1, "channel": 9, "note": 35, "velocity": 0, "time": 0, "type": "NormalMsg"}, "M_7675": {"note_status": 1, "channel": 9, "note": 42, "velocity": 0, "time": 0, "type": "NormalMsg"}, "M_7676": {"note_status": 1, "channel": 9, "note": 42, "velocity": 52, "time": 0, "type": "NormalMsg"}, "M_7677": {"note_status": 1, "channel": 9, "note": 42, "velocity": 0, "time": 0, "type": "NormalMsg"}, "M_7678": {"note_status": 1, "channel": 9, "note": 42, "velocity": 58, "time": 0, "type": "NormalMsg"}, "M_7679": {"note_status": 1, "channel": 9, "note": 42, "velocity": 0, "time": 0, "type": "NormalMsg"}, "M_7680": {"note_status": 1, "channel": 9, "note": 42, "velocity": 58, "time": 0, "type": "NormalMsg"}, "M_7681": {"note_status": 1, "channel": 9, "note": 42, "velocity": 0, "time": 0, "type": "NormalMsg"}, "M_7682": {"note_status": 1, "channel": 9, "note": 35, "velocity": 112, "time": 0, "type": "NormalMsg"}, "M_7683": {"note_status": 1, "channel": 9, "note": 38, "velocity": 90, "time": 0, "type": "NormalMsg"}, "M_7684": {"note_status": 1, "channel": 9, "note": 42, "velocity": 58, "time": 0, "type": "NormalMsg"}, "M_7685": {"note_status": 1, "channel": 9, "note": 35, "velocity": 0, "time": 0, "type": "NormalMsg"}, "M_7686": {"note_status": 1, "channel": 9, "note": 38, "velocity": 0, "time": 0, "type": "NormalMsg"}, "M_7687": {"note_status": 1, "channel": 9, "note": 42, "velocity": 0, "time": 0, "type": "NormalMsg"}, "M_7688": {"note_status": 1, "channel": 9, "note": 42, "velocity": 45, "time": 0, "type": "NormalMsg"}, "M_7689": {"note_status": 1, "channel": 9, "note": 42, "velocity": 0, "time": 0, "type": "NormalMsg"}, "M_7690": {"note_status": 1, "channel": 9, "note": 42, "velocity": 45, "time": 0, "type": "NormalMsg"}, "M_7691": {"note_status": 1, "channel": 9, "note": 42, "velocity": 0, "time": 0, "type": "NormalMsg"}, "M_7692": {"note_status": 1, "channel": 9, "note": 35, "velocity": 112, "time": 0, "type": "NormalMsg"}, "M_7693": {"note_status": 1, "channel": 9, "note": 42, "velocity": 58, "time": 0, "type": "NormalMsg"}, "M_7694": {"note_status": 1, "channel": 9, "note": 35, "velocity": 0, "time": 0, "type": "NormalMsg"}, "M_7695": {"note_status": 1, "channel": 9, "note": 42, "velocity": 0, "time": 0, "type": "NormalMsg"}, "M_7696": {"note_status": 1, "channel": 9, "note": 42, "velocity": 45, "time": 0, "type": "NormalMsg"}, "M_7697": {"note_status": 1, "channel": 9, "note": 42, "velocity": 0, "time": 0, "type": "NormalMsg"}, "M_7698": {"note_status": 1, "channel": 9, "note": 42, "velocity": 45, "time": 0, "type": "NormalMsg"}, "M_7699": {"note_status": 1, "channel": 9, "note": 42, "velocity": 0, "time": 0, "type": "NormalMsg"}, "M_7700": {"note_status": 1, "channel": 9, "note": 35, "velocity": 112, "time": 0, "type": "NormalMsg"}, "M_7701": {"note_status": 1, "channel": 9, "note": 38, "velocity": 90, "time": 0, "type": "NormalMsg"}, "M_7702": {"note_status": 1, "channel": 9, "note": 42, "velocity": 58, "time": 0, "type": "NormalMsg"}, "M_7703": {"note_status": 1, "channel": 9, "note": 35, "velocity": 0, "time": 0, "type": "NormalMsg"}, "M_7704": {"note_status": 1, "channel": 9, "note": 38, "velocity": 0, "time": 0, "type": "NormalMsg"}, "M_7705": {"note_status": 1, "channel": 9, "note": 42, "velocity": 0, "time": 0, "type": "NormalMsg"}, "M_7706": {"note_status": 1, "channel": 9, "note": 42, "velocity": 45, "time": 0, "type": "NormalMsg"}, "M_7707": {"note_status": 1, "channel": 9, "note": 42, "velocity": 0, "time": 0, "type": "NormalMsg"}, "M_7708": {"note_status": 1, "channel": 9, "note": 42, "velocity": 45, "time": 0, "type": "NormalMsg"}, "M_7709": {"note_status": 1, "channel": 9, "note": 42, "velocity": 0, "time": 0, "type": "NormalMsg"}, "M_7710": {"note_status": 1, "channel": 9, "note": 35, "velocity": 112, "time": 0, "type": "NormalMsg"}, "M_7711": {"note_status": 1, "channel": 9, "note": 38, "velocity": 90, "time": 0, "type": "NormalMsg"}, "M_7712": {"note_status": 1, "channel": 9, "note": 42, "velocity": 58, "time": 0, "type": "NormalMsg"}, "M_7713": {"note_status": 1, "channel": 9, "note": 35, "velocity": 0, "time": 0, "type": "NormalMsg"}, "M_7714": {"note_status": 1, "channel": 9, "note": 38, "velocity": 0, "time": 0, "type": "NormalMsg"}, "M_7715": {"note_status": 1, "channel": 9, "note": 42, "velocity": 0, "time": 0, "type": "NormalMsg"}, "M_7716": {"note_status": 1, "channel": 9, "note": 42, "velocity": 33, "time": 0, "type": "NormalMsg"}, "M_7717": {"note_status": 1, "channel": 9, "note": 42, "velocity": 0, "time": 0, "type": "NormalMsg"}, "M_7718": {"note_status": 1, "channel": 9, "note": 42, "velocity": 58, "time": 0, "type": "NormalMsg"}, "M_7719": {"note_status": 1, "channel": 9, "note": 42, "velocity": 0, "time": 0, "type": "NormalMsg"}, "M_7720": {"note_status": 1, "channel": 9, "note": 42, "velocity": 58, "time": 0, "type": "NormalMsg"}, "M_7721": {"note_status": 1, "channel": 9, "note": 42, "velocity": 0, "time": 0, "type": "NormalMsg"}, "M_7722": {"note_status": 1, "channel": 9, "note": 35, "velocity": 112, "time": 0, "type": "NormalMsg"}, "M_7723": {"note_status": 1, "channel": 9, "note": 38, "velocity": 90, "time": 0, "type": "NormalMsg"}, "M_7724": {"note_status": 1, "channel": 9, "note": 42, "velocity": 58, "time": 0, "type": "NormalMsg"}, "M_7725": {"note_status": 1, "channel": 9, "note": 35, "velocity": 0, "time": 0, "type": "NormalMsg"}, "M_7726": {"note_status": 1, "channel": 9, "note": 38, "velocity": 0, "time": 0, "type": "NormalMsg"}, "M_7727": {"note_status": 1, "channel": 9, "note": 42, "velocity": 0, "time": 0, "type": "NormalMsg"}, "M_7728": {"note_status": 1, "channel": 9, "note": 38, "velocity": 90, "time": 0, "type": "NormalMsg"}, "M_7729": {"note_status": 1, "channel": 9, "note": 42, "velocity": 45, "time": 0, "type": "NormalMsg"}, "M_7730": {"note_status": 1, "channel": 9, "note": 38, "velocity": 0, "time": 0, "type": "NormalMsg"}, "M_7731": {"note_status": 1, "channel": 9, "note": 42, "velocity": 0, "time": 0, "type": "NormalMsg"}, "M_7732": {"note_status": 1, "channel": 9, "note": 38, "velocity": 70, "time": 0, "type": "NormalMsg"}, "M_7733": {"note_status": 1, "channel": 9, "note": 42, "velocity": 45, "time": 0, "type": "NormalMsg"}, "M_7734": {"note_status": 1, "channel": 9, "note": 38, "velocity": 0, "time": 0, "type": "NormalMsg"}, "M_7735": {"note_status": 1, "channel": 9, "note": 42, "velocity": 0, "time": 0, "type": "NormalMsg"}, "M_7736": {"note_status": 1, "channel": 9, "note": 35, "velocity": 112, "time": 0, "type": "NormalMsg"}, "M_7737": {"note_status": 1, "channel": 9, "note": 42, "velocity": 58, "time": 0, "type": "NormalMsg"}, "M_7738": {"note_status": 1, "channel": 9, "note": 35, "velocity": 0, "time": 0, "type": "NormalMsg"}, "M_7739": {"note_status": 1, "channel": 9, "note": 42, "velocity": 0, "time": 0, "type": "NormalMsg"}, "M_7740": {"note_status": 1, "channel": 9, "note": 42, "velocity": 45, "time": 0, "type": "NormalMsg"}, "M_7741": {"note_status": 1, "channel": 9, "note": 42, "velocity": 0, "time": 0, "type": "NormalMsg"}, "M_7742": {"note_status": 1, "channel": 9, "note": 42, "velocity": 45, "time": 0, "type": "NormalMsg"}, "M_7743": {"note_status": 1, "channel": 9, "note": 42, "velocity": 0, "time": 0, "type": "NormalMsg"}, "M_7744": {"note_status": 1, "channel": 9, "note": 35, "velocity": 112, "time": 0, "type": "NormalMsg"}, "M_7745": {"note_status": 1, "channel": 9, "note": 38, "velocity": 90, "time": 0, "type": "NormalMsg"}, "M_7746": {"note_status": 1, "channel": 9, "note": 42, "velocity": 58, "time": 0, "type": "NormalMsg"}, "M_7747": {"note_status": 1, "channel": 9, "note": 35, "velocity": 0, "time": 0, "type": "NormalMsg"}, "M_7748": {"note_status": 1, "channel": 9, "note": 38, "velocity": 0, "time": 0, "type": "NormalMsg"}, "M_7749": {"note_status": 1, "channel": 9, "note": 42, "velocity": 0, "time": 0, "type": "NormalMsg"}, "M_7750": {"note_status": 1, "channel": 9, "note": 42, "velocity": 45, "time": 0, "type": "NormalMsg"}, "M_7751": {"note_status": 1, "channel": 9, "note": 42, "velocity": 0, "time": 0, "type": "NormalMsg"}, "M_7752": {"note_status": 1, "channel": 9, "note": 42, "velocity": 45, "time": 0, "type": "NormalMsg"}, "M_7753": {"note_status": 1, "channel": 9, "note": 42, "velocity": 0, "time": 0, "type": "NormalMsg"}, "M_7754": {"note_status": 1, "channel": 9, "note": 35, "velocity": 112, "time": 0, "type": "NormalMsg"}, "M_7755": {"note_status": 1, "channel": 9, "note": 42, "velocity": 58, "time": 0, "type": "NormalMsg"}, "M_7756": {"note_status": 1, "channel": 9, "note": 35, "velocity": 0, "time": 0, "type": "NormalMsg"}, "M_7757": {"note_status": 1, "channel": 9, "note": 42, "velocity": 0, "time": 0, "type": "NormalMsg"}, "M_7758": {"note_status": 1, "channel": 9, "note": 42, "velocity": 52, "time": 0, "type": "NormalMsg"}, "M_7759": {"note_status": 1, "channel": 9, "note": 42, "velocity": 0, "time": 0, "type": "NormalMsg"}, "M_7760": {"note_status": 1, "channel": 9, "note": 42, "velocity": 58, "time": 0, "type": "NormalMsg"}, "M_7761": {"note_status": 1, "channel": 9, "note": 42, "velocity": 0, "time": 0, "type": "NormalMsg"}, "M_7762": {"note_status": 1, "channel": 9, "note": 42, "velocity": 58, "time": 0, "type": "NormalMsg"}, "M_7763": {"note_status": 1, "channel": 9, "note": 42, "velocity": 0, "time": 0, "type": "NormalMsg"}, "M_7764": {"note_status": 1, "channel": 9, "note": 35, "velocity": 112, "time": 0, "type": "NormalMsg"}, "M_7765": {"note_status": 1, "channel": 9, "note": 38, "velocity": 90, "time": 0, "type": "NormalMsg"}, "M_7766": {"note_status": 1, "channel": 9, "note": 42, "velocity": 58, "time": 0, "type": "NormalMsg"}, "M_7767": {"note_status": 1, "channel": 9, "note": 35, "velocity": 0, "time": 0, "type": "NormalMsg"}, "M_7768": {"note_status": 1, "channel": 9, "note": 38, "velocity": 0, "time": 0, "type": "NormalMsg"}, "M_7769": {"note_status": 1, "channel": 9, "note": 42, "velocity": 0, "time": 0, "type": "NormalMsg"}, "M_7770": {"note_status": 1, "channel": 9, "note": 42, "velocity": 45, "time": 0, "type": "NormalMsg"}, "M_7771": {"note_status": 1, "channel": 9, "note": 42, "velocity": 0, "time": 0, "type": "NormalMsg"}, "M_7772": {"note_status": 1, "channel": 9, "note": 42, "velocity": 45, "time": 0, "type": "NormalMsg"}, "M_7773": {"note_status": 1, "channel": 9, "note": 42, "velocity": 0, "time": 0, "type": "NormalMsg"}, "M_7774": {"note_status": 1, "channel": 9, "note": 35, "velocity": 112, "time": 0, "type": "NormalMsg"}, "M_7775": {"note_status": 1, "channel": 9, "note": 42, "velocity": 58, "time": 0, "type": "NormalMsg"}, "M_7776": {"note_status": 1, "channel": 9, "note": 35, "velocity": 0, "time": 0, "type": "NormalMsg"}, "M_7777": {"note_status": 1, "channel": 9, "note": 42, "velocity": 0, "time": 0, "type": "NormalMsg"}, "M_7778": {"note_status": 1, "channel": 9, "note": 42, "velocity": 45, "time": 0, "type": "NormalMsg"}, "M_7779": {"note_status": 1, "channel": 9, "note": 42, "velocity": 0, "time": 0, "type": "NormalMsg"}, "M_7780": {"note_status": 1, "channel": 9, "note": 42, "velocity": 45, "time": 0, "type": "NormalMsg"}, "M_7781": {"note_status": 1, "channel": 9, "note": 42, "velocity": 0, "time": 0, "type": "NormalMsg"}, "M_7782": {"note_status": 1, "channel": 9, "note": 35, "velocity": 112, "time": 0, "type": "NormalMsg"}, "M_7783": {"note_status": 1, "channel": 9, "note": 38, "velocity": 90, "time": 0, "type": "NormalMsg"}, "M_7784": {"note_status": 1, "channel": 9, "note": 42, "velocity": 58, "time": 0, "type": "NormalMsg"}, "M_7785": {"note_status": 1, "channel": 9, "note": 35, "velocity": 0, "time": 0, "type": "NormalMsg"}, "M_7786": {"note_status": 1, "channel": 9, "note": 38, "velocity": 0, "time": 0, "type": "NormalMsg"}, "M_7787": {"note_status": 1, "channel": 9, "note": 42, "velocity": 0, "time": 0, "type": "NormalMsg"}, "M_7788": {"note_status": 1, "channel": 9, "note": 42, "velocity": 45, "time": 0, "type": "NormalMsg"}, "M_7789": {"note_status": 1, "channel": 9, "note": 42, "velocity": 0, "time": 0, "type": "NormalMsg"}, "M_7790": {"note_status": 1, "channel": 9, "note": 42, "velocity": 45, "time": 0, "type": "NormalMsg"}, "M_7791": {"note_status": 1, "channel": 9, "note": 42, "velocity": 0, "time": 0, "type": "NormalMsg"}, "M_7792": {"note_status": 1, "channel": 9, "note": 35, "velocity": 112, "time": 0, "type": "NormalMsg"}, "M_7793": {"note_status": 1, "channel": 9, "note": 42, "velocity": 58, "time": 0, "type": "NormalMsg"}, "M_7794": {"note_status": 1, "channel": 9, "note": 35, "velocity": 0, "time": 0, "type": "NormalMsg"}, "M_7795": {"note_status": 1, "channel": 9, "note": 42, "velocity": 0, "time": 0, "type": "NormalMsg"}, "M_7796": {"note_status": 1, "channel": 9, "note": 42, "velocity": 58, "time": 0, "type": "NormalMsg"}, "M_7797": {"note_status": 1, "channel": 9, "note": 42, "velocity": 0, "time": 0, "type": "NormalMsg"}, "M_7798": {"note_status": 1, "channel": 9, "note": 42, "velocity": 58, "time": 0, "type": "NormalMsg"}, "M_7799": {"note_status": 1, "channel": 9, "note": 42, "velocity": 0, "time": 0, "type": "NormalMsg"}, "M_7800": {"note_status": 1, "channel": 9, "note": 35, "velocity": 112, "time": 0, "type": "NormalMsg"}, "M_7801": {"note_status": 1, "channel": 9, "note": 38, "velocity": 90, "time": 0, "type": "NormalMsg"}, "M_7802": {"note_status": 1, "channel": 9, "note": 42, "velocity": 58, "time": 0, "type": "NormalMsg"}, "M_7803": {"note_status": 1, "channel": 9, "note": 35, "velocity": 0, "time": 0, "type": "NormalMsg"}, "M_7804": {"note_status": 1, "channel": 9, "note": 38, "velocity": 0, "time": 0, "type": "NormalMsg"}, "M_7805": {"note_status": 1, "channel": 9, "note": 42, "velocity": 0, "time": 0, "type": "NormalMsg"}, "M_7806": {"note_status": 1, "channel": 9, "note": 42, "velocity": 45, "time": 0, "type": "NormalMsg"}, "M_7807": {"note_status": 1, "channel": 9, "note": 42, "velocity": 0, "time": 0, "type": "NormalMsg"}, "M_7808": {"note_status": 1, "channel": 9, "note": 42, "velocity": 45, "time": 0, "type": "NormalMsg"}, "M_7809": {"note_status": 1, "channel": 9, "note": 42, "velocity": 0, "time": 0, "type": "NormalMsg"}, "M_7810": {"note_status": 1, "channel": 9, "note": 35, "velocity": 112, "time": 0, "type": "NormalMsg"}, "M_7811": {"note_status": 1, "channel": 9, "note": 42, "velocity": 58, "time": 0, "type": "NormalMsg"}, "M_7812": {"note_status": 1, "channel": 9, "note": 35, "velocity": 0, "time": 0, "type": "NormalMsg"}, "M_7813": {"note_status": 1, "channel": 9, "note": 42, "velocity": 0, "time": 0, "type": "NormalMsg"}, "M_7814": {"note_status": 1, "channel": 9, "note": 42, "velocity": 45, "time": 0, "type": "NormalMsg"}, "M_7815": {"note_status": 1, "channel": 9, "note": 42, "velocity": 0, "time": 0, "type": "NormalMsg"}, "M_7816": {"note_status": 1, "channel": 9, "note": 42, "velocity": 45, "time": 0, "type": "NormalMsg"}, "M_7817": {"note_status": 1, "channel": 9, "note": 42, "velocity": 0, "time": 0, "type": "NormalMsg"}, "M_7818": {"note_status": 1, "channel": 9, "note": 35, "velocity": 112, "time": 0, "type": "NormalMsg"}, "M_7819": {"note_status": 1, "channel": 9, "note": 38, "velocity": 90, "time": 0, "type": "NormalMsg"}, "M_7820": {"note_status": 1, "channel": 9, "note": 42, "velocity": 58, "time": 0, "type": "NormalMsg"}, "M_7821": {"note_status": 1, "channel": 9, "note": 35, "velocity": 0, "time": 0, "type": "NormalMsg"}, "M_7822": {"note_status": 1, "channel": 9, "note": 38, "velocity": 0, "time": 0, "type": "NormalMsg"}, "M_7823": {"note_status": 1, "channel": 9, "note": 42, "velocity": 0, "time": 0, "type": "NormalMsg"}, "M_7824": {"note_status": 1, "channel": 9, "note": 42, "velocity": 45, "time": 0, "type": "NormalMsg"}, "M_7825": {"note_status": 1, "channel": 9, "note": 42, "velocity": 0, "time": 0, "type": "NormalMsg"}, "M_7826": {"note_status": 1, "channel": 9, "note": 42, "velocity": 45, "time": 0, "type": "NormalMsg"}, "M_7827": {"note_status": 1, "channel": 9, "note": 42, "velocity": 0, "time": 0, "type": "NormalMsg"}, "M_7828": {"note_status": 1, "channel": 9, "note": 35, "velocity": 112, "time": 0, "type": "NormalMsg"}, "M_7829": {"note_status": 1, "channel": 9, "note": 42, "velocity": 58, "time": 0, "type": "NormalMsg"}, "M_7830": {"note_status": 1, "channel": 9, "note": 35, "velocity": 0, "time": 0, "type": "NormalMsg"}, "M_7831": {"note_status": 1, "channel": 9, "note": 42, "velocity": 0, "time": 0, "type": "NormalMsg"}, "M_7832": {"note_status": 1, "channel": 9, "note": 42, "velocity": 52, "time": 0, "type": "NormalMsg"}, "M_7833": {"note_status": 1, "channel": 9, "note": 42, "velocity": 0, "time": 0, "type": "NormalMsg"}, "M_7834": {"note_status": 1, "channel": 9, "note": 42, "velocity": 58, "time": 0, "type": "NormalMsg"}, "M_7835": {"note_status": 1, "channel": 9, "note": 42, "velocity": 0, "time": 0, "type": "NormalMsg"}, "M_7836": {"note_status": 1, "channel": 9, "note": 42, "velocity": 58, "time": 0, "type": "NormalMsg"}, "M_7837": {"note_status": 1, "channel": 9, "note": 42, "velocity": 0, "time": 0, "type": "NormalMsg"}, "M_7838": {"note_status": 1, "channel": 9, "note": 35, "velocity": 112, "time": 0, "type": "NormalMsg"}, "M_7839": {"note_status": 1, "channel": 9, "note": 38, "velocity": 90, "time": 0, "type": "NormalMsg"}, "M_7840": {"note_status": 1, "channel": 9, "note": 42, "velocity": 58, "time": 0, "type": "NormalMsg"}, "M_7841": {"note_status": 1, "channel": 9, "note": 35, "velocity": 0, "time": 0, "type": "NormalMsg"}, "M_7842": {"note_status": 1, "channel": 9, "note": 38, "velocity": 0, "time": 0, "type": "NormalMsg"}, "M_7843": {"note_status": 1, "channel": 9, "note": 42, "velocity": 0, "time": 0, "type": "NormalMsg"}, "M_7844": {"note_status": 1, "channel": 9, "note": 42, "velocity": 45, "time": 0, "type": "NormalMsg"}, "M_7845": {"note_status": 1, "channel": 9, "note": 42, "velocity": 0, "time": 0, "type": "NormalMsg"}, "M_7846": {"note_status": 1, "channel": 9, "note": 42, "velocity": 45, "time": 0, "type": "NormalMsg"}, "M_7847": {"note_status": 1, "channel": 9, "note": 42, "velocity": 0, "time": 0, "type": "NormalMsg"}, "M_7848": {"note_status": 1, "channel": 9, "note": 35, "velocity": 112, "time": 0, "type": "NormalMsg"}, "M_7849": {"note_status": 1, "channel": 9, "note": 42, "velocity": 58, "time": 0, "type": "NormalMsg"}, "M_7850": {"note_status": 1, "channel": 9, "note": 35, "velocity": 0, "time": 0, "type": "NormalMsg"}, "M_7851": {"note_status": 1, "channel": 9, "note": 42, "velocity": 0, "time": 0, "type": "NormalMsg"}, "M_7852": {"note_status": 1, "channel": 9, "note": 42, "velocity": 45, "time": 0, "type": "NormalMsg"}, "M_7853": {"note_status": 1, "channel": 9, "note": 42, "velocity": 0, "time": 0, "type": "NormalMsg"}, "M_7854": {"note_status": 1, "channel": 9, "note": 42, "velocity": 45, "time": 0, "type": "NormalMsg"}, "M_7855": {"note_status": 1, "channel": 9, "note": 42, "velocity": 0, "time": 0, "type": "NormalMsg"}, "M_7856": {"note_status": 1, "channel": 9, "note": 35, "velocity": 112, "time": 0, "type": "NormalMsg"}, "M_7857": {"note_status": 1, "channel": 9, "note": 38, "velocity": 90, "time": 0, "type": "NormalMsg"}, "M_7858": {"note_status": 1, "channel": 9, "note": 42, "velocity": 58, "time": 0, "type": "NormalMsg"}, "M_7859": {"note_status": 1, "channel": 9, "note": 35, "velocity": 0, "time": 0, "type": "NormalMsg"}, "M_7860": {"note_status": 1, "channel": 9, "note": 38, "velocity": 0, "time": 0, "type": "NormalMsg"}, "M_7861": {"note_status": 1, "channel": 9, "note": 42, "velocity": 0, "time": 0, "type": "NormalMsg"}, "M_7862": {"note_status": 1, "channel": 9, "note": 42, "velocity": 45, "time": 0, "type": "NormalMsg"}, "M_7863": {"note_status": 1, "channel": 9, "note": 42, "velocity": 0, "time": 0, "type": "NormalMsg"}, "M_7864": {"note_status": 1, "channel": 9, "note": 42, "velocity": 45, "time": 0, "type": "NormalMsg"}, "M_7865": {"note_status": 1, "channel": 9, "note": 42, "velocity": 0, "time": 0, "type": "NormalMsg"}, "M_7866": {"note_status": 1, "channel": 9, "note": 35, "velocity": 112, "time": 0, "type": "NormalMsg"}, "M_7867": {"note_status": 1, "channel": 9, "note": 38, "velocity": 90, "time": 0, "type": "NormalMsg"}, "M_7868": {"note_status": 1, "channel": 9, "note": 42, "velocity": 58, "time": 0, "type": "NormalMsg"}, "M_7869": {"note_status": 1, "channel": 9, "note": 35, "velocity": 0, "time": 0, "type": "NormalMsg"}, "M_7870": {"note_status": 1, "channel": 9, "note": 38, "velocity": 0, "time": 0, "type": "NormalMsg"}, "M_7871": {"note_status": 1, "channel": 9, "note": 42, "velocity": 0, "time": 0, "type": "NormalMsg"}, "M_7872": {"note_status": 1, "channel": 9, "note": 42, "velocity": 52, "time": 0, "type": "NormalMsg"}, "M_7873": {"note_status": 1, "channel": 9, "note": 42, "velocity": 0, "time": 0, "type": "NormalMsg"}, "M_7874": {"note_status": 1, "channel": 9, "note": 35, "velocity": 112, "time": 0, "type": "NormalMsg"}, "M_7875": {"note_status": 1, "channel": 9, "note": 38, "velocity": 90, "time": 0, "type": "NormalMsg"}, "M_7876": {"note_status": 1, "channel": 9, "note": 42, "velocity": 58, "time": 0, "type": "NormalMsg"}, "M_7877": {"note_status": 1, "channel": 9, "note": 35, "velocity": 0, "time": 0, "type": "NormalMsg"}, "M_7878": {"note_status": 1, "channel": 9, "note": 38, "velocity": 0, "time": 0, "type": "NormalMsg"}, "M_7879": {"note_status": 1, "channel": 9, "note": 42, "velocity": 0, "time": 0, "type": "NormalMsg"}, "M_7880": {"note_status": 1, "channel": 9, "note": 42, "velocity": 58, "time": 0, "type": "NormalMsg"}, "M_7881": {"note_status": 1, "channel": 9, "note": 42, "velocity": 0, "time": 0, "type": "NormalMsg"}, "M_7882": {"note_status": 1, "channel": 9, "note": 35, "velocity": 112, "time": 0, "type": "NormalMsg"}, "M_7883": {"note_status": 1, "channel": 9, "note": 38, "velocity": 90, "time": 0, "type": "NormalMsg"}, "M_7884": {"note_status": 1, "channel": 9, "note": 42, "velocity": 58, "time": 0, "type": "NormalMsg"}, "M_7885": {"note_status": 1, "channel": 9, "note": 35, "velocity": 0, "time": 0, "type": "NormalMsg"}, "M_7886": {"note_status": 1, "channel": 9, "note": 38, "velocity": 0, "time": 0, "type": "NormalMsg"}, "M_7887": {"note_status": 1, "channel": 9, "note": 42, "velocity": 0, "time": 0, "type": "NormalMsg"}, "M_7888": {"note_status": 1, "channel": 9, "note": 35, "velocity": 112, "time": 0, "type": "NormalMsg"}, "M_7889": {"note_status": 1, "channel": 9, "note": 38, "velocity": 90, "time": 0, "type": "NormalMsg"}, "M_7890": {"note_status": 1, "channel": 9, "note": 42, "velocity": 45, "time": 0, "type": "NormalMsg"}, "M_7891": {"note_status": 1, "channel": 9, "note": 35, "velocity": 0, "time": 0, "type": "NormalMsg"}, "M_7892": {"note_status": 1, "channel": 9, "note": 38, "velocity": 0, "time": 0, "type": "NormalMsg"}, "M_7893": {"note_status": 1, "channel": 9, "note": 42, "velocity": 0, "time": 0, "type": "NormalMsg"}, "M_7894": {"note_status": 1, "channel": 9, "note": 42, "velocity": 45, "time": 0, "type": "NormalMsg"}, "M_7895": {"note_status": 1, "channel": 9, "note": 42, "velocity": 0, "time": 0, "type": "NormalMsg"}, "M_7896": {"note_status": 1, "channel": 9, "note": 35, "velocity": 112, "time": 0, "type": "NormalMsg"}, "M_7897": {"note_status": 1, "channel": 9, "note": 42, "velocity": 58, "time": 0, "type": "NormalMsg"}, "M_7898": {"note_status": 1, "channel": 9, "note": 35, "velocity": 0, "time": 0, "type": "NormalMsg"}, "M_7899": {"note_status": 1, "channel": 9, "note": 42, "velocity": 0, "time": 0, "type": "NormalMsg"}, "M_7900": {"note_status": 1, "channel": 9, "note": 42, "velocity": 45, "time": 0, "type": "NormalMsg"}, "M_7901": {"note_status": 1, "channel": 9, "note": 42, "velocity": 0, "time": 0, "type": "NormalMsg"}, "M_7902": {"note_status": 1, "channel": 9, "note": 28, "velocity": 70, "time": 0, "type": "NormalMsg"}, "M_7903": {"note_status": 1, "channel": 9, "note": 35, "velocity": 112, "time": 0, "type": "NormalMsg"}, "M_7904": {"note_status": 1, "channel": 9, "note": 38, "velocity": 90, "time": 0, "type": "NormalMsg"}, "M_7905": {"note_status": 1, "channel": 9, "note": 42, "velocity": 58, "time": 0, "type": "NormalMsg"}, "M_7906": {"note_status": 1, "channel": 9, "note": 28, "velocity": 0, "time": 0, "type": "NormalMsg"}, "M_7907": {"note_status": 1, "channel": 9, "note": 35, "velocity": 0, "time": 0, "type": "NormalMsg"}, "M_7908": {"note_status": 1, "channel": 9, "note": 38, "velocity": 0, "time": 0, "type": "NormalMsg"}, "M_7909": {"note_status": 1, "channel": 9, "note": 42, "velocity": 0, "time": 0, "type": "NormalMsg"}, "M_7910": {"note_status": 1, "channel": 9, "note": 42, "velocity": 45, "time": 0, "type": "NormalMsg"}, "M_7911": {"note_status": 1, "channel": 9, "note": 42, "velocity": 0, "time": 0, "type": "NormalMsg"}, "M_7912": {"note_status": 1, "channel": 9, "note": 35, "velocity": 112, "time": 0, "type": "NormalMsg"}, "M_7913": {"note_status": 1, "channel": 9, "note": 42, "velocity": 58, "time": 0, "type": "NormalMsg"}, "M_7914": {"note_status": 1, "channel": 9, "note": 35, "velocity": 0, "time": 0, "type": "NormalMsg"}, "M_7915": {"note_status": 1, "channel": 9, "note": 42, "velocity": 0, "time": 0, "type": "NormalMsg"}, "M_7916": {"note_status": 1, "channel": 9, "note": 42, "velocity": 52, "time": 0, "type": "NormalMsg"}, "M_7917": {"note_status": 1, "channel": 9, "note": 42, "velocity": 0, "time": 0, "type": "NormalMsg"}, "M_7918": {"note_status": 1, "channel": 9, "note": 38, "velocity": 70, "time": 0, "type": "NormalMsg"}, "M_7919": {"note_status": 1, "channel": 9, "note": 42, "velocity": 58, "time": 0, "type": "NormalMsg"}, "M_7920": {"note_status": 1, "channel": 9, "note": 38, "velocity": 0, "time": 0, "type": "NormalMsg"}, "M_7921": {"note_status": 1, "channel": 9, "note": 42, "velocity": 0, "time": 0, "type": "NormalMsg"}, "M_7922": {"note_status": 1, "channel": 9, "note": 28, "velocity": 70, "time": 0, "type": "NormalMsg"}, "M_7923": {"note_status": 1, "channel": 9, "note": 35, "velocity": 112, "time": 0, "type": "NormalMsg"}, "M_7924": {"note_status": 1, "channel": 9, "note": 38, "velocity": 90, "time": 0, "type": "NormalMsg"}, "M_7925": {"note_status": 1, "channel": 9, "note": 42, "velocity": 58, "time": 0, "type": "NormalMsg"}, "M_7926": {"note_status": 1, "channel": 9, "note": 28, "velocity": 0, "time": 0, "type": "NormalMsg"}, "M_7927": {"note_status": 1, "channel": 9, "note": 35, "velocity": 0, "time": 0, "type": "NormalMsg"}, "M_7928": {"note_status": 1, "channel": 9, "note": 38, "velocity": 0, "time": 0, "type": "NormalMsg"}, "M_7929": {"note_status": 1, "channel": 9, "note": 42, "velocity": 0, "time": 0, "type": "NormalMsg"}, "M_7930": {"note_status": 1, "channel": 9, "note": 42, "velocity": 45, "time": 0, "type": "NormalMsg"}, "M_7931": {"note_status": 1, "channel": 9, "note": 42, "velocity": 0, "time": 0, "type": "NormalMsg"}, "M_7932": {"note_status": 1, "channel": 9, "note": 35, "velocity": 112, "time": 0, "type": "NormalMsg"}, "M_7933": {"note_status": 1, "channel": 9, "note": 42, "velocity": 58, "time": 0, "type": "NormalMsg"}, "M_7934": {"note_status": 1, "channel": 9, "note": 35, "velocity": 0, "time": 0, "type": "NormalMsg"}, "M_7935": {"note_status": 1, "channel": 9, "note": 42, "velocity": 0, "time": 0, "type": "NormalMsg"}, "M_7936": {"note_status": 1, "channel": 9, "note": 42, "velocity": 45, "time": 0, "type": "NormalMsg"}, "M_7937": {"note_status": 1, "channel": 9, "note": 42, "velocity": 0, "time": 0, "type": "NormalMsg"}, "M_7938": {"note_status": 1, "channel": 9, "note": 28, "velocity": 70, "time": 0, "type": "NormalMsg"}, "M_7939": {"note_status": 1, "channel": 9, "note": 35, "velocity": 112, "time": 0, "type": "NormalMsg"}, "M_7940": {"note_status": 1, "channel": 9, "note": 38, "velocity": 90, "time": 0, "type": "NormalMsg"}, "M_7941": {"note_status": 1, "channel": 9, "note": 42, "velocity": 58, "time": 0, "type": "NormalMsg"}, "M_7942": {"note_status": 1, "channel": 9, "note": 28, "velocity": 0, "time": 0, "type": "NormalMsg"}, "M_7943": {"note_status": 1, "channel": 9, "note": 35, "velocity": 0, "time": 0, "type": "NormalMsg"}, "M_7944": {"note_status": 1, "channel": 9, "note": 38, "velocity": 0, "time": 0, "type": "NormalMsg"}, "M_7945": {"note_status": 1, "channel": 9, "note": 42, "velocity": 0, "time": 0, "type": "NormalMsg"}, "M_7946": {"note_status": 1, "channel": 9, "note": 42, "velocity": 45, "time": 0, "type": "NormalMsg"}, "M_7947": {"note_status": 1, "channel": 9, "note": 42, "velocity": 0, "time": 0, "type": "NormalMsg"}, "M_7948": {"note_status": 1, "channel": 9, "note": 35, "velocity": 112, "time": 0, "type": "NormalMsg"}, "M_7949": {"note_status": 1, "channel": 9, "note": 42, "velocity": 58, "time": 0, "type": "NormalMsg"}, "M_7950": {"note_status": 1, "channel": 9, "note": 35, "velocity": 0, "time": 0, "type": "NormalMsg"}, "M_7951": {"note_status": 1, "channel": 9, "note": 42, "velocity": 0, "time": 0, "type": "NormalMsg"}, "M_7952": {"note_status": 1, "channel": 9, "note": 42, "velocity": 52, "time": 0, "type": "NormalMsg"}, "M_7953": {"note_status": 1, "channel": 9, "note": 42, "velocity": 0, "time": 0, "type": "NormalMsg"}, "M_7954": {"note_status": 1, "channel": 9, "note": 38, "velocity": 70, "time": 0, "type": "NormalMsg"}, "M_7955": {"note_status": 1, "channel": 9, "note": 42, "velocity": 58, "time": 0, "type": "NormalMsg"}, "M_7956": {"note_status": 1, "channel": 9, "note": 38, "velocity": 0, "time": 0, "type": "NormalMsg"}, "M_7957": {"note_status": 1, "channel": 9, "note": 42, "velocity": 0, "time": 0, "type": "NormalMsg"}, "M_7958": {"note_status": 1, "channel": 9, "note": 28, "velocity": 70, "time": 0, "type": "NormalMsg"}, "M_7959": {"note_status": 1, "channel": 9, "note": 35, "velocity": 112, "time": 0, "type": "NormalMsg"}, "M_7960": {"note_status": 1, "channel": 9, "note": 38, "velocity": 90, "time": 0, "type": "NormalMsg"}, "M_7961": {"note_status": 1, "channel": 9, "note": 42, "velocity": 58, "time": 0, "type": "NormalMsg"}, "M_7962": {"note_status": 1, "channel": 9, "note": 28, "velocity": 0, "time": 0, "type": "NormalMsg"}, "M_7963": {"note_status": 1, "channel": 9, "note": 35, "velocity": 0, "time": 0, "type": "NormalMsg"}, "M_7964": {"note_status": 1, "channel": 9, "note": 38, "velocity": 0, "time": 0, "type": "NormalMsg"}, "M_7965": {"note_status": 1, "channel": 9, "note": 42, "velocity": 0, "time": 0, "type": "NormalMsg"}, "M_7966": {"note_status": 1, "channel": 9, "note": 42, "velocity": 45, "time": 0, "type": "NormalMsg"}, "M_7967": {"note_status": 1, "channel": 9, "note": 42, "velocity": 0, "time": 0, "type": "NormalMsg"}, "M_7968": {"note_status": 1, "channel": 9, "note": 35, "velocity": 112, "time": 0, "type": "NormalMsg"}, "M_7969": {"note_status": 1, "channel": 9, "note": 42, "velocity": 58, "time": 0, "type": "NormalMsg"}, "M_7970": {"note_status": 1, "channel": 9, "note": 35, "velocity": 0, "time": 0, "type": "NormalMsg"}, "M_7971": {"note_status": 1, "channel": 9, "note": 42, "velocity": 0, "time": 0, "type": "NormalMsg"}, "M_7972": {"note_status": 1, "channel": 9, "note": 42, "velocity": 45, "time": 0, "type": "NormalMsg"}, "M_7973": {"note_status": 1, "channel": 9, "note": 42, "velocity": 0, "time": 0, "type": "NormalMsg"}, "M_7974": {"note_status": 1, "channel": 9, "note": 28, "velocity": 70, "time": 0, "type": "NormalMsg"}, "M_7975": {"note_status": 1, "channel": 9, "note": 35, "velocity": 112, "time": 0, "type": "NormalMsg"}, "M_7976": {"note_status": 1, "channel": 9, "note": 38, "velocity": 90, "time": 0, "type": "NormalMsg"}, "M_7977": {"note_status": 1, "channel": 9, "note": 42, "velocity": 58, "time": 0, "type": "NormalMsg"}, "M_7978": {"note_status": 1, "channel": 9, "note": 28, "velocity": 0, "time": 0, "type": "NormalMsg"}, "M_7979": {"note_status": 1, "channel": 9, "note": 35, "velocity": 0, "time": 0, "type": "NormalMsg"}, "M_7980": {"note_status": 1, "channel": 9, "note": 38, "velocity": 0, "time": 0, "type": "NormalMsg"}, "M_7981": {"note_status": 1, "channel": 9, "note": 42, "velocity": 0, "time": 0, "type": "NormalMsg"}, "M_7982": {"note_status": 1, "channel": 9, "note": 42, "velocity": 45, "time": 0, "type": "NormalMsg"}, "M_7983": {"note_status": 1, "channel": 9, "note": 42, "velocity": 0, "time": 0, "type": "NormalMsg"}, "M_7984": {"note_status": 1, "channel": 9, "note": 35, "velocity": 112, "time": 0, "type": "NormalMsg"}, "M_7985": {"note_status": 1, "channel": 9, "note": 42, "velocity": 58, "time": 0, "type": "NormalMsg"}, "M_7986": {"note_status": 1, "channel": 9, "note": 35, "velocity": 0, "time": 0, "type": "NormalMsg"}, "M_7987": {"note_status": 1, "channel": 9, "note": 42, "velocity": 0, "time": 0, "type": "NormalMsg"}, "M_7988": {"note_status": 1, "channel": 9, "note": 42, "velocity": 52, "time": 0, "type": "NormalMsg"}, "M_7989": {"note_status": 1, "channel": 9, "note": 42, "velocity": 0, "time": 0, "type": "NormalMsg"}, "M_7990": {"note_status": 1, "channel": 9, "note": 38, "velocity": 70, "time": 0, "type": "NormalMsg"}, "M_7991": {"note_status": 1, "channel": 9, "note": 42, "velocity": 52, "time": 0, "type": "NormalMsg"}, "M_7992": {"note_status": 1, "channel": 9, "note": 38, "velocity": 0, "time": 0, "type": "NormalMsg"}, "M_7993": {"note_status": 1, "channel": 9, "note": 42, "velocity": 0, "time": 0, "type": "NormalMsg"}, "M_7994": {"note_status": 1, "channel": 9, "note": 28, "velocity": 110, "time": 0, "type": "NormalMsg"}, "M_7995": {"note_status": 1, "channel": 9, "note": 35, "velocity": 112, "time": 0, "type": "NormalMsg"}, "M_7996": {"note_status": 1, "channel": 9, "note": 38, "velocity": 90, "time": 0, "type": "NormalMsg"}, "M_7997": {"note_status": 1, "channel": 9, "note": 42, "velocity": 58, "time": 0, "type": "NormalMsg"}, "M_7998": {"note_status": 1, "channel": 9, "note": 28, "velocity": 0, "time": 0, "type": "NormalMsg"}, "M_7999": {"note_status": 1, "channel": 9, "note": 35, "velocity": 0, "time": 0, "type": "NormalMsg"}, "M_8000": {"note_status": 1, "channel": 9, "note": 38, "velocity": 0, "time": 0, "type": "NormalMsg"}, "M_8001": {"note_status": 1, "channel": 9, "note": 42, "velocity": 0, "time": 0, "type": "NormalMsg"}, "M_8002": {"note_status": 1, "channel": 9, "note": 38, "velocity": 90, "time": 0, "type": "NormalMsg"}, "M_8003": {"note_status": 1, "channel": 9, "note": 42, "velocity": 45, "time": 0, "type": "NormalMsg"}, "M_8004": {"note_status": 1, "channel": 9, "note": 38, "velocity": 0, "time": 0, "type": "NormalMsg"}, "M_8005": {"note_status": 1, "channel": 9, "note": 42, "velocity": 0, "time": 0, "type": "NormalMsg"}, "M_8006": {"note_status": 1, "channel": 9, "note": 28, "velocity": 70, "time": 0, "type": "NormalMsg"}, "M_8007": {"note_status": 1, "channel": 9, "note": 35, "velocity": 112, "time": 0, "type": "NormalMsg"}, "M_8008": {"note_status": 1, "channel": 9, "note": 38, "velocity": 90, "time": 0, "type": "NormalMsg"}, "M_8009": {"note_status": 1, "channel": 9, "note": 42, "velocity": 58, "time": 0, "type": "NormalMsg"}, "M_8010": {"note_status": 1, "channel": 9, "note": 28, "velocity": 0, "time": 0, "type": "NormalMsg"}, "M_8011": {"note_status": 1, "channel": 9, "note": 35, "velocity": 0, "time": 0, "type": "NormalMsg"}, "M_8012": {"note_status": 1, "channel": 9, "note": 38, "velocity": 0, "time": 0, "type": "NormalMsg"}, "M_8013": {"note_status": 1, "channel": 9, "note": 42, "velocity": 0, "time": 0, "type": "NormalMsg"}, "M_8014": {"note_status": 1, "channel": 9, "note": 28, "velocity": 70, "time": 0, "type": "NormalMsg"}, "M_8015": {"note_status": 1, "channel": 9, "note": 35, "velocity": 112, "time": 0, "type": "NormalMsg"}, "M_8016": {"note_status": 1, "channel": 9, "note": 38, "velocity": 90, "time": 0, "type": "NormalMsg"}, "M_8017": {"note_status": 1, "channel": 9, "note": 28, "velocity": 0, "time": 0, "type": "NormalMsg"}, "M_8018": {"note_status": 1, "channel": 9, "note": 35, "velocity": 0, "time": 0, "type": "NormalMsg"}, "M_8019": {"note_status": 1, "channel": 9, "note": 38, "velocity": 0, "time": 0, "type": "NormalMsg"}, "M_8020": {"note_status": 1, "channel": 9, "note": 28, "velocity": 70, "time": 0, "type": "NormalMsg"}, "M_8021": {"note_status": 1, "channel": 9, "note": 35, "velocity": 112, "time": 0, "type": "NormalMsg"}, "M_8022": {"note_status": 1, "channel": 9, "note": 38, "velocity": 90, "time": 0, "type": "NormalMsg"}, "M_8023": {"note_status": 1, "channel": 9, "note": 42, "velocity": 45, "time": 0, "type": "NormalMsg"}, "M_8024": {"note_status": 1, "channel": 9, "note": 28, "velocity": 0, "time": 0, "type": "NormalMsg"}, "M_8025": {"note_status": 1, "channel": 9, "note": 35, "velocity": 0, "time": 0, "type": "NormalMsg"}, "M_8026": {"note_status": 1, "channel": 9, "note": 38, "velocity": 0, "time": 0, "type": "NormalMsg"}, "M_8027": {"note_status": 1, "channel": 9, "note": 42, "velocity": 0, "time": 0, "type": "NormalMsg"}, "M_8028": {"note_status": 1, "channel": 9, "note": 28, "velocity": 70, "time": 0, "type": "NormalMsg"}, "M_8029": {"note_status": 1, "channel": 9, "note": 35, "velocity": 112, "time": 0, "type": "NormalMsg"}, "M_8030": {"note_status": 1, "channel": 9, "note": 38, "velocity": 90, "time": 0, "type": "NormalMsg"}, "M_8031": {"note_status": 1, "channel": 9, "note": 28, "velocity": 0, "time": 0, "type": "NormalMsg"}, "M_8032": {"note_status": 1, "channel": 9, "note": 35, "velocity": 0, "time": 0, "type": "NormalMsg"}, "M_8033": {"note_status": 1, "channel": 9, "note": 38, "velocity": 0, "time": 0, "type": "NormalMsg"}, "M_8034": {"note_status": 1, "channel": 9, "note": 28, "velocity": 70, "time": 0, "type": "NormalMsg"}, "M_8035": {"note_status": 1, "channel": 9, "note": 35, "velocity": 112, "time": 0, "type": "NormalMsg"}, "M_8036": {"note_status": 1, "channel": 9, "note": 38, "velocity": 90, "time": 0, "type": "NormalMsg"}, "M_8037": {"note_status": 1, "channel": 9, "note": 42, "velocity": 58, "time": 0, "type": "NormalMsg"}, "M_8038": {"note_status": 1, "channel": 9, "note": 28, "velocity": 0, "time": 0, "type": "NormalMsg"}, "M_8039": {"note_status": 1, "channel": 9, "note": 35, "velocity": 0, "time": 0, "type": "NormalMsg"}, "M_8040": {"note_status": 1, "channel": 9, "note": 38, "velocity": 0, "time": 0, "type": "NormalMsg"}, "M_8041": {"note_status": 1, "channel": 9, "note": 42, "velocity": 0, "time": 0, "type": "NormalMsg"}, "M_8042": {"note_status": 1, "channel": 9, "note": 28, "velocity": 70, "time": 0, "type": "NormalMsg"}, "M_8043": {"note_status": 1, "channel": 9, "note": 35, "velocity": 112, "time": 0, "type": "NormalMsg"}, "M_8044": {"note_status": 1, "channel": 9, "note": 38, "velocity": 90, "time": 0, "type": "NormalMsg"}, "M_8045": {"note_status": 1, "channel": 9, "note": 28, "velocity": 0, "time": 0, "type": "NormalMsg"}, "M_8046": {"note_status": 1, "channel": 9, "note": 35, "velocity": 0, "time": 0, "type": "NormalMsg"}, "M_8047": {"note_status": 1, "channel": 9, "note": 38, "velocity": 0, "time": 0, "type": "NormalMsg"}, "M_8048": {"note_status": 1, "channel": 9, "note": 28, "velocity": 70, "time": 0, "type": "NormalMsg"}, "M_8049": {"note_status": 1, "channel": 9, "note": 35, "velocity": 112, "time": 0, "type": "NormalMsg"}, "M_8050": {"note_status": 1, "channel": 9, "note": 38, "velocity": 90, "time": 0, "type": "NormalMsg"}, "M_8051": {"note_status": 1, "channel": 9, "note": 42, "velocity": 45, "time": 0, "type": "NormalMsg"}, "M_8052": {"note_status": 1, "channel": 9, "note": 28, "velocity": 0, "time": 0, "type": "NormalMsg"}, "M_8053": {"note_status": 1, "channel": 9, "note": 35, "velocity": 0, "time": 0, "type": "NormalMsg"}, "M_8054": {"note_status": 1, "channel": 9, "note": 38, "velocity": 0, "time": 0, "type": "NormalMsg"}, "M_8055": {"note_status": 1, "channel": 9, "note": 42, "velocity": 0, "time": 0, "type": "NormalMsg"}, "M_8056": {"note_status": 1, "channel": 9, "note": 28, "velocity": 70, "time": 0, "type": "NormalMsg"}, "M_8057": {"note_status": 1, "channel": 9, "note": 35, "velocity": 112, "time": 0, "type": "NormalMsg"}, "M_8058": {"note_status": 1, "channel": 9, "note": 38, "velocity": 90, "time": 0, "type": "NormalMsg"}, "M_8059": {"note_status": 1, "channel": 9, "note": 28, "velocity": 0, "time": 0, "type": "NormalMsg"}, "M_8060": {"note_status": 1, "channel": 9, "note": 35, "velocity": 0, "time": 0, "type": "NormalMsg"}, "M_8061": {"note_status": 1, "channel": 9, "note": 38, "velocity": 0, "time": 0, "type": "NormalMsg"}, "M_8062": {"note_status": 1, "channel": 9, "note": 28, "velocity": 70, "time": 0, "type": "NormalMsg"}, "M_8063": {"note_status": 1, "channel": 9, "note": 35, "velocity": 112, "time": 0, "type": "NormalMsg"}, "M_8064": {"note_status": 1, "channel": 9, "note": 38, "velocity": 90, "time": 0, "type": "NormalMsg"}, "M_8065": {"note_status": 1, "channel": 9, "note": 42, "velocity": 58, "time": 0, "type": "NormalMsg"}, "M_8066": {"note_status": 1, "channel": 9, "note": 28, "velocity": 0, "time": 0, "type": "NormalMsg"}, "M_8067": {"note_status": 1, "channel": 9, "note": 35, "velocity": 0, "time": 0, "type": "NormalMsg"}, "M_8068": {"note_status": 1, "channel": 9, "note": 38, "velocity": 0, "time": 0, "type": "NormalMsg"}, "M_8069": {"note_status": 1, "channel": 9, "note": 42, "velocity": 0, "time": 0, "type": "NormalMsg"}, "M_8070": {"note_status": 1, "channel": 9, "note": 28, "velocity": 70, "time": 0, "type": "NormalMsg"}, "M_8071": {"note_status": 1, "channel": 9, "note": 35, "velocity": 112, "time": 0, "type": "NormalMsg"}, "M_8072": {"note_status": 1, "channel": 9, "note": 38, "velocity": 90, "time": 0, "type": "NormalMsg"}, "M_8073": {"note_status": 1, "channel": 9, "note": 42, "velocity": 52, "time": 0, "type": "NormalMsg"}, "M_8074": {"note_status": 1, "channel": 9, "note": 28, "velocity": 0, "time": 0, "type": "NormalMsg"}, "M_8075": {"note_status": 1, "channel": 9, "note": 35, "velocity": 0, "time": 0, "type": "NormalMsg"}, "M_8076": {"note_status": 1, "channel": 9, "note": 38, "velocity": 0, "time": 0, "type": "NormalMsg"}, "M_8077": {"note_status": 1, "channel": 9, "note": 42, "velocity": 0, "time": 0, "type": "NormalMsg"}, "M_8078": {"note_status": 1, "channel": 9, "note": 28, "velocity": 70, "time": 0, "type": "NormalMsg"}, "M_8079": {"note_status": 1, "channel": 9, "note": 35, "velocity": 112, "time": 0, "type": "NormalMsg"}, "M_8080": {"note_status": 1, "channel": 9, "note": 38, "velocity": 90, "time": 0, "type": "NormalMsg"}, "M_8081": {"note_status": 1, "channel": 9, "note": 28, "velocity": 0, "time": 0, "type": "NormalMsg"}, "M_8082": {"note_status": 1, "channel": 9, "note": 35, "velocity": 0, "time": 0, "type": "NormalMsg"}, "M_8083": {"note_status": 1, "channel": 9, "note": 38, "velocity": 0, "time": 0, "type": "NormalMsg"}, "M_8084": {"note_status": 1, "channel": 9, "note": 28, "velocity": 70, "time": 0, "type": "NormalMsg"}, "M_8085": {"note_status": 1, "channel": 9, "note": 35, "velocity": 112, "time": 0, "type": "NormalMsg"}, "M_8086": {"note_status": 1, "channel": 9, "note": 38, "velocity": 70, "time": 0, "type": "NormalMsg"}, "M_8087": {"note_status": 1, "channel": 9, "note": 42, "velocity": 58, "time": 0, "type": "NormalMsg"}, "M_8088": {"note_status": 1, "channel": 9, "note": 28, "velocity": 0, "time": 0, "type": "NormalMsg"}, "M_8089": {"note_status": 1, "channel": 9, "note": 35, "velocity": 0, "time": 0, "type": "NormalMsg"}, "M_8090": {"note_status": 1, "channel": 9, "note": 38, "velocity": 0, "time": 0, "type": "NormalMsg"}, "M_8091": {"note_status": 1, "channel": 9, "note": 42, "velocity": 0, "time": 0, "type": "NormalMsg"}, "M_8092": {"note_status": 1, "channel": 9, "note": 28, "velocity": 61, "time": 0, "type": "NormalMsg"}, "M_8093": {"note_status": 1, "channel": 9, "note": 35, "velocity": 112, "time": 0, "type": "NormalMsg"}, "M_8094": {"note_status": 1, "channel": 9, "note": 38, "velocity": 90, "time": 0, "type": "NormalMsg"}, "M_8095": {"note_status": 1, "channel": 9, "note": 42, "velocity": 58, "time": 0, "type": "NormalMsg"}, "M_8096": {"note_status": 1, "channel": 9, "note": 28, "velocity": 0, "time": 0, "type": "NormalMsg"}, "M_8097": {"note_status": 1, "channel": 9, "note": 35, "velocity": 0, "time": 0, "type": "NormalMsg"}, "M_8098": {"note_status": 1, "channel": 9, "note": 38, "velocity": 0, "time": 0, "type": "NormalMsg"}, "M_8099": {"note_status": 1, "channel": 9, "note": 42, "velocity": 0, "time": 0, "type": "NormalMsg"}, "M_8100": {"note_status": 1, "channel": 9, "note": 28, "velocity": 51, "time": 0, "type": "NormalMsg"}, "M_8101": {"note_status": 1, "channel": 9, "note": 42, "velocity": 34, "time": 0, "type": "NormalMsg"}, "M_8102": {"note_status": 1, "channel": 9, "note": 28, "velocity": 0, "time": 0, "type": "NormalMsg"}, "M_8103": {"note_status": 1, "channel": 9, "note": 42, "velocity": 0, "time": 0, "type": "NormalMsg"}, "M_8104": {"note_status": 1, "channel": 9, "note": 28, "velocity": 40, "time": 0, "type": "NormalMsg"}, "M_8105": {"note_status": 1, "channel": 9, "note": 38, "velocity": 110, "time": 0, "type": "NormalMsg"}, "M_8106": {"note_status": 1, "channel": 9, "note": 42, "velocity": 45, "time": 0, "type": "NormalMsg"}, "M_8107": {"note_status": 1, "channel": 9, "note": 28, "velocity": 0, "time": 0, "type": "NormalMsg"}, "M_8108": {"note_status": 1, "channel": 9, "note": 38, "velocity": 0, "time": 0, "type": "NormalMsg"}, "M_8109": {"note_status": 1, "channel": 9, "note": 42, "velocity": 0, "time": 0, "type": "NormalMsg"}, "M_8110": {"note_status": 1, "channel": 9, "note": 28, "velocity": 29, "time": 0, "type": "NormalMsg"}, "M_8111": {"note_status": 1, "channel": 9, "note": 38, "velocity": 110, "time": 0, "type": "NormalMsg"}, "M_8112": {"note_status": 1, "channel": 9, "note": 42, "velocity": 34, "time": 0, "type": "NormalMsg"}, "M_8113": {"note_status": 1, "channel": 9, "note": 28, "velocity": 0, "time": 0, "type": "NormalMsg"}, "M_8114": {"note_status": 1, "channel": 9, "note": 38, "velocity": 0, "time": 0, "type": "NormalMsg"}, "M_8115": {"note_status": 1, "channel": 9, "note": 42, "velocity": 0, "time": 0, "type": "NormalMsg"}, "M_8116": {"note_status": 1, "channel": 9, "note": 28, "velocity": 120, "time": 0, "type": "NormalMsg"}, "M_8117": {"note_status": 1, "channel": 9, "note": 35, "velocity": 112, "time": 0, "type": "NormalMsg"}, "M_8118": {"note_status": 1, "channel": 9, "note": 38, "velocity": 110, "time": 0, "type": "NormalMsg"}, "M_8119": {"note_status": 1, "channel": 9, "note": 42, "velocity": 58, "time": 0, "type": "NormalMsg"}, "M_8120": {"note_status": 1, "channel": 9, "note": 28, "velocity": 0, "time": 0, "type": "NormalMsg"}, "M_8121": {"note_status": 1, "channel": 9, "note": 35, "velocity": 0, "time": 0, "type": "NormalMsg"}, "M_8122": {"note_status": 1, "channel": 9, "note": 38, "velocity": 0, "time": 0, "type": "NormalMsg"}, "M_8123": {"note_status": 1, "channel": 9, "note": 42, "velocity": 0, "time": 0, "type": "NormalMsg"}, "R_8124": {"note_status": 0, "channel": 0, "note": 0, "velocity": 0, "time": 0, "type": "ResetMsg"}, "R_8125": {"note_status": 0, "channel": 0, "note": 0, "velocity": 0, "time": 0, "type": "ResetMsg"}, "U_8126": {"note_status": 0, "channel": 0, "note": 0, "velocity": 0, "time": 0, "type": "DummyType"}, "M_8127": {"note_status": 1, "channel": 3, "note": 81, "velocity": 122, "time": 0, "type": "NormalMsg"}, "M_8128": {"note_status": 1, "channel": 3, "note": 81, "velocity": 0, "time": 0, "type": "NormalMsg"}, "M_8129": {"note_status": 1, "channel": 3, "note": 81, "velocity": 122, "time": 0, "type": "NormalMsg"}, "M_8130": {"note_status": 1, "channel": 3, "note": 81, "velocity": 0, "time": 0, "type": "NormalMsg"}, "M_8131": {"note_status": 1, "channel": 3, "note": 84, "velocity": 122, "time": 0, "type": "NormalMsg"}, "M_8132": {"note_status": 1, "channel": 3, "note": 84, "velocity": 0, "time": 0, "type": "NormalMsg"}, "M_8133": {"note_status": 1, "channel": 3, "note": 81, "velocity": 127, "time": 0, "type": "NormalMsg"}, "M_8134": {"note_status": 1, "channel": 3, "note": 81, "velocity": 0, "time": 0, "type": "NormalMsg"}, "M_8135": {"note_status": 1, "channel": 3, "note": 79, "velocity": 122, "time": 0, "type": "NormalMsg"}, "M_8136": {"note_status": 1, "channel": 3, "note": 79, "velocity": 0, "time": 0, "type": "NormalMsg"}, "M_8137": {"note_status": 1, "channel": 3, "note": 79, "velocity": 122, "time": 0, "type": "NormalMsg"}, "M_8138": {"note_status": 1, "channel": 3, "note": 79, "velocity": 0, "time": 0, "type": "NormalMsg"}, "M_8139": {"note_status": 1, "channel": 3, "note": 81, "velocity": 122, "time": 0, "type": "NormalMsg"}, "M_8140": {"note_status": 1, "channel": 3, "note": 81, "velocity": 0, "time": 0, "type": "NormalMsg"}, "M_8141": {"note_status": 1, "channel": 3, "note": 79, "velocity": 122, "time": 0, "type": "NormalMsg"}, "M_8142": {"note_status": 1, "channel": 3, "note": 79, "velocity": 0, "time": 0, "type": "NormalMsg"}, "M_8143": {"note_status": 1, "channel": 3, "note": 81, "velocity": 122, "time": 0, "type": "NormalMsg"}, "M_8144": {"note_status": 1, "channel": 3, "note": 81, "velocity": 0, "time": 0, "type": "NormalMsg"}, "M_8145": {"note_status": 1, "channel": 3, "note": 81, "velocity": 122, "time": 0, "type": "NormalMsg"}, "M_8146": {"note_status": 1, "channel": 3, "note": 81, "velocity": 0, "time": 0, "type": "NormalMsg"}, "M_8147": {"note_status": 1, "channel": 3, "note": 84, "velocity": 122, "time": 0, "type": "NormalMsg"}, "M_8148": {"note_status": 1, "channel": 3, "note": 84, "velocity": 0, "time": 0, "type": "NormalMsg"}, "M_8149": {"note_status": 1, "channel": 3, "note": 81, "velocity": 127, "time": 0, "type": "NormalMsg"}, "M_8150": {"note_status": 1, "channel": 3, "note": 81, "velocity": 0, "time": 0, "type": "NormalMsg"}, "M_8151": {"note_status": 1, "channel": 3, "note": 79, "velocity": 122, "time": 0, "type": "NormalMsg"}, "M_8152": {"note_status": 1, "channel": 3, "note": 79, "velocity": 0, "time": 0, "type": "NormalMsg"}, "M_8153": {"note_status": 1, "channel": 3, "note": 79, "velocity": 122, "time": 0, "type": "NormalMsg"}, "M_8154": {"note_status": 1, "channel": 3, "note": 79, "velocity": 0, "time": 0, "type": "NormalMsg"}, "M_8155": {"note_status": 1, "channel": 3, "note": 81, "velocity": 122, "time": 0, "type": "NormalMsg"}, "M_8156": {"note_status": 1, "channel": 3, "note": 81, "velocity": 0, "time": 0, "type": "NormalMsg"}, "M_8157": {"note_status": 1, "channel": 3, "note": 79, "velocity": 122, "time": 0, "type": "NormalMsg"}, "M_8158": {"note_status": 1, "channel": 3, "note": 79, "velocity": 0, "time": 0, "type": "NormalMsg"}, "M_8159": {"note_status": 1, "channel": 3, "note": 81, "velocity": 122, "time": 0, "type": "NormalMsg"}, "M_8160": {"note_status": 1, "channel": 3, "note": 81, "velocity": 0, "time": 0, "type": "NormalMsg"}, "M_8161": {"note_status": 1, "channel": 3, "note": 81, "velocity": 122, "time": 0, "type": "NormalMsg"}, "M_8162": {"note_status": 1, "channel": 3, "note": 81, "velocity": 0, "time": 0, "type": "NormalMsg"}, "M_8163": {"note_status": 1, "channel": 3, "note": 84, "velocity": 122, "time": 0, "type": "NormalMsg"}, "M_8164": {"note_status": 1, "channel": 3, "note": 84, "velocity": 0, "time": 0, "type": "NormalMsg"}, "M_8165": {"note_status": 1, "channel": 3, "note": 81, "velocity": 127, "time": 0, "type": "NormalMsg"}, "M_8166": {"note_status": 1, "channel": 3, "note": 81, "velocity": 0, "time": 0, "type": "NormalMsg"}, "M_8167": {"note_status": 1, "channel": 3, "note": 79, "velocity": 122, "time": 0, "type": "NormalMsg"}, "M_8168": {"note_status": 1, "channel": 3, "note": 79, "velocity": 0, "time": 0, "type": "NormalMsg"}, "M_8169": {"note_status": 1, "channel": 3, "note": 79, "velocity": 122, "time": 0, "type": "NormalMsg"}, "M_8170": {"note_status": 1, "channel": 3, "note": 79, "velocity": 0, "time": 0, "type": "NormalMsg"}, "M_8171": {"note_status": 1, "channel": 3, "note": 81, "velocity": 122, "time": 0, "type": "NormalMsg"}, "M_8172": {"note_status": 1, "channel": 3, "note": 81, "velocity": 0, "time": 0, "type": "NormalMsg"}, "M_8173": {"note_status": 1, "channel": 3, "note": 79, "velocity": 122, "time": 0, "type": "NormalMsg"}, "M_8174": {"note_status": 1, "channel": 3, "note": 79, "velocity": 0, "time": 0, "type": "NormalMsg"}, "M_8175": {"note_status": 1, "channel": 3, "note": 81, "velocity": 122, "time": 0, "type": "NormalMsg"}, "M_8176": {"note_status": 1, "channel": 3, "note": 81, "velocity": 0, "time": 0, "type": "NormalMsg"}, "M_8177": {"note_status": 1, "channel": 3, "note": 81, "velocity": 122, "time": 0, "type": "NormalMsg"}, "M_8178": {"note_status": 1, "channel": 3, "note": 81, "velocity": 0, "time": 0, "type": "NormalMsg"}, "M_8179": {"note_status": 1, "channel": 3, "note": 84, "velocity": 122, "time": 0, "type": "NormalMsg"}, "M_8180": {"note_status": 1, "channel": 3, "note": 84, "velocity": 0, "time": 0, "type": "NormalMsg"}, "M_8181": {"note_status": 1, "channel": 3, "note": 81, "velocity": 127, "time": 0, "type": "NormalMsg"}, "M_8182": {"note_status": 1, "channel": 3, "note": 81, "velocity": 0, "time": 0, "type": "NormalMsg"}, "M_8183": {"note_status": 1, "channel": 3, "note": 79, "velocity": 122, "time": 0, "type": "NormalMsg"}, "M_8184": {"note_status": 1, "channel": 3, "note": 79, "velocity": 0, "time": 0, "type": "NormalMsg"}, "M_8185": {"note_status": 1, "channel": 3, "note": 79, "velocity": 122, "time": 0, "type": "NormalMsg"}, "M_8186": {"note_status": 1, "channel": 3, "note": 79, "velocity": 0, "time": 0, "type": "NormalMsg"}, "M_8187": {"note_status": 1, "channel": 3, "note": 81, "velocity": 122, "time": 0, "type": "NormalMsg"}, "M_8188": {"note_status": 1, "channel": 3, "note": 81, "velocity": 0, "time": 0, "type": "NormalMsg"}, "M_8189": {"note_status": 1, "channel": 3, "note": 79, "velocity": 122, "time": 0, "type": "NormalMsg"}, "M_8190": {"note_status": 1, "channel": 3, "note": 79, "velocity": 0, "time": 0, "type": "NormalMsg"}, "M_8191": {"note_status": 1, "channel": 3, "note": 81, "velocity": 122, "time": 0, "type": "NormalMsg"}, "M_8192": {"note_status": 1, "channel": 3, "note": 81, "velocity": 0, "time": 0, "type": "NormalMsg"}, "M_8193": {"note_status": 1, "channel": 3, "note": 81, "velocity": 122, "time": 0, "type": "NormalMsg"}, "M_8194": {"note_status": 1, "channel": 3, "note": 81, "velocity": 0, "time": 0, "type": "NormalMsg"}, "M_8195": {"note_status": 1, "channel": 3, "note": 84, "velocity": 122, "time": 0, "type": "NormalMsg"}, "M_8196": {"note_status": 1, "channel": 3, "note": 84, "velocity": 0, "time": 0, "type": "NormalMsg"}, "M_8197": {"note_status": 1, "channel": 3, "note": 81, "velocity": 127, "time": 0, "type": "NormalMsg"}, "M_8198": {"note_status": 1, "channel": 3, "note": 81, "velocity": 0, "time": 0, "type": "NormalMsg"}, "M_8199": {"note_status": 1, "channel": 3, "note": 79, "velocity": 122, "time": 0, "type": "NormalMsg"}, "M_8200": {"note_status": 1, "channel": 3, "note": 79, "velocity": 0, "time": 0, "type": "NormalMsg"}, "M_8201": {"note_status": 1, "channel": 3, "note": 79, "velocity": 122, "time": 0, "type": "NormalMsg"}, "M_8202": {"note_status": 1, "channel": 3, "note": 79, "velocity": 0, "time": 0, "type": "NormalMsg"}, "M_8203": {"note_status": 1, "channel": 3, "note": 81, "velocity": 122, "time": 0, "type": "NormalMsg"}, "M_8204": {"note_status": 1, "channel": 3, "note": 81, "velocity": 0, "time": 0, "type": "NormalMsg"}, "M_8205": {"note_status": 1, "channel": 3, "note": 79, "velocity": 122, "time": 0, "type": "NormalMsg"}, "M_8206": {"note_status": 1, "channel": 3, "note": 79, "velocity": 0, "time": 0, "type": "NormalMsg"}, "M_8207": {"note_status": 1, "channel": 3, "note": 81, "velocity": 122, "time": 0, "type": "NormalMsg"}, "M_8208": {"note_status": 1, "channel": 3, "note": 81, "velocity": 0, "time": 0, "type": "NormalMsg"}, "M_8209": {"note_status": 1, "channel": 3, "note": 81, "velocity": 122, "time": 0, "type": "NormalMsg"}, "M_8210": {"note_status": 1, "channel": 3, "note": 81, "velocity": 0, "time": 0, "type": "NormalMsg"}, "M_8211": {"note_status": 1, "channel": 3, "note": 84, "velocity": 122, "time": 0, "type": "NormalMsg"}, "M_8212": {"note_status": 1, "channel": 3, "note": 84, "velocity": 0, "time": 0, "type": "NormalMsg"}, "M_8213": {"note_status": 1, "channel": 3, "note": 81, "velocity": 127, "time": 0, "type": "NormalMsg"}, "M_8214": {"note_status": 1, "channel": 3, "note": 81, "velocity": 0, "time": 0, "type": "NormalMsg"}, "M_8215": {"note_status": 1, "channel": 3, "note": 79, "velocity": 122, "time": 0, "type": "NormalMsg"}, "M_8216": {"note_status": 1, "channel": 3, "note": 79, "velocity": 0, "time": 0, "type": "NormalMsg"}, "M_8217": {"note_status": 1, "channel": 3, "note": 79, "velocity": 122, "time": 0, "type": "NormalMsg"}, "M_8218": {"note_status": 1, "channel": 3, "note": 79, "velocity": 0, "time": 0, "type": "NormalMsg"}, "M_8219": {"note_status": 1, "channel": 3, "note": 81, "velocity": 122, "time": 0, "type": "NormalMsg"}, "M_8220": {"note_status": 1, "channel": 3, "note": 81, "velocity": 0, "time": 0, "type": "NormalMsg"}, "M_8221": {"note_status": 1, "channel": 3, "note": 79, "velocity": 122, "time": 0, "type": "NormalMsg"}, "M_8222": {"note_status": 1, "channel": 3, "note": 79, "velocity": 0, "time": 0, "type": "NormalMsg"}, "M_8223": {"note_status": 1, "channel": 3, "note": 81, "velocity": 122, "time": 0, "type": "NormalMsg"}, "M_8224": {"note_status": 1, "channel": 3, "note": 81, "velocity": 0, "time": 0, "type": "NormalMsg"}, "M_8225": {"note_status": 1, "channel": 3, "note": 81, "velocity": 122, "time": 0, "type": "NormalMsg"}, "M_8226": {"note_status": 1, "channel": 3, "note": 81, "velocity": 0, "time": 0, "type": "NormalMsg"}, "M_8227": {"note_status": 1, "channel": 3, "note": 84, "velocity": 122, "time": 0, "type": "NormalMsg"}, "M_8228": {"note_status": 1, "channel": 3, "note": 84, "velocity": 0, "time": 0, "type": "NormalMsg"}, "M_8229": {"note_status": 1, "channel": 3, "note": 81, "velocity": 127, "time": 0, "type": "NormalMsg"}, "M_8230": {"note_status": 1, "channel": 3, "note": 81, "velocity": 0, "time": 0, "type": "NormalMsg"}, "M_8231": {"note_status": 1, "channel": 3, "note": 79, "velocity": 122, "time": 0, "type": "NormalMsg"}, "M_8232": {"note_status": 1, "channel": 3, "note": 79, "velocity": 0, "time": 0, "type": "NormalMsg"}, "M_8233": {"note_status": 1, "channel": 3, "note": 79, "velocity": 122, "time": 0, "type": "NormalMsg"}, "M_8234": {"note_status": 1, "channel": 3, "note": 79, "velocity": 0, "time": 0, "type": "NormalMsg"}, "M_8235": {"note_status": 1, "channel": 3, "note": 81, "velocity": 122, "time": 0, "type": "NormalMsg"}, "M_8236": {"note_status": 1, "channel": 3, "note": 81, "velocity": 0, "time": 0, "type": "NormalMsg"}, "M_8237": {"note_status": 1, "channel": 3, "note": 79, "velocity": 122, "time": 0, "type": "NormalMsg"}, "M_8238": {"note_status": 1, "channel": 3, "note": 79, "velocity": 0, "time": 0, "type": "NormalMsg"}, "M_8239": {"note_status": 1, "channel": 3, "note": 81, "velocity": 122, "time": 0, "type": "NormalMsg"}, "M_8240": {"note_status": 1, "channel": 3, "note": 81, "velocity": 0, "time": 0, "type": "NormalMsg"}, "M_8241": {"note_status": 1, "channel": 3, "note": 81, "velocity": 122, "time": 0, "type": "NormalMsg"}, "M_8242": {"note_status": 1, "channel": 3, "note": 81, "velocity": 0, "time": 0, "type": "NormalMsg"}, "M_8243": {"note_status": 1, "channel": 3, "note": 84, "velocity": 122, "time": 0, "type": "NormalMsg"}, "M_8244": {"note_status": 1, "channel": 3, "note": 84, "velocity": 0, "time": 0, "type": "NormalMsg"}, "M_8245": {"note_status": 1, "channel": 3, "note": 81, "velocity": 127, "time": 0, "type": "NormalMsg"}, "M_8246": {"note_status": 1, "channel": 3, "note": 81, "velocity": 0, "time": 0, "type": "NormalMsg"}, "M_8247": {"note_status": 1, "channel": 3, "note": 79, "velocity": 122, "time": 0, "type": "NormalMsg"}, "M_8248": {"note_status": 1, "channel": 3, "note": 79, "velocity": 0, "time": 0, "type": "NormalMsg"}, "M_8249": {"note_status": 1, "channel": 3, "note": 79, "velocity": 122, "time": 0, "type": "NormalMsg"}, "M_8250": {"note_status": 1, "channel": 3, "note": 79, "velocity": 0, "time": 0, "type": "NormalMsg"}, "M_8251": {"note_status": 1, "channel": 3, "note": 81, "velocity": 122, "time": 0, "type": "NormalMsg"}, "M_8252": {"note_status": 1, "channel": 3, "note": 81, "velocity": 0, "time": 0, "type": "NormalMsg"}, "M_8253": {"note_status": 1, "channel": 3, "note": 79, "velocity": 122, "time": 0, "type": "NormalMsg"}, "M_8254": {"note_status": 1, "channel": 3, "note": 79, "velocity": 0, "time": 0, "type": "NormalMsg"}, "M_8255": {"note_status": 1, "channel": 3, "note": 81, "velocity": 122, "time": 0, "type": "NormalMsg"}, "M_8256": {"note_status": 1, "channel": 3, "note": 81, "velocity": 0, "time": 0, "type": "NormalMsg"}, "M_8257": {"note_status": 1, "channel": 3, "note": 81, "velocity": 122, "time": 0, "type": "NormalMsg"}, "M_8258": {"note_status": 1, "channel": 3, "note": 81, "velocity": 0, "time": 0, "type": "NormalMsg"}, "M_8259": {"note_status": 1, "channel": 3, "note": 84, "velocity": 122, "time": 0, "type": "NormalMsg"}, "M_8260": {"note_status": 1, "channel": 3, "note": 84, "velocity": 0, "time": 0, "type": "NormalMsg"}, "M_8261": {"note_status": 1, "channel": 3, "note": 81, "velocity": 127, "time": 0, "type": "NormalMsg"}, "M_8262": {"note_status": 1, "channel": 3, "note": 81, "velocity": 0, "time": 0, "type": "NormalMsg"}, "M_8263": {"note_status": 1, "channel": 3, "note": 79, "velocity": 122, "time": 0, "type": "NormalMsg"}, "M_8264": {"note_status": 1, "channel": 3, "note": 79, "velocity": 0, "time": 0, "type": "NormalMsg"}, "M_8265": {"note_status": 1, "channel": 3, "note": 79, "velocity": 122, "time": 0, "type": "NormalMsg"}, "M_8266": {"note_status": 1, "channel": 3, "note": 79, "velocity": 0, "time": 0, "type": "NormalMsg"}, "M_8267": {"note_status": 1, "channel": 3, "note": 81, "velocity": 122, "time": 0, "type": "NormalMsg"}, "M_8268": {"note_status": 1, "channel": 3, "note": 81, "velocity": 0, "time": 0, "type": "NormalMsg"}, "M_8269": {"note_status": 1, "channel": 3, "note": 79, "velocity": 122, "time": 0, "type": "NormalMsg"}, "M_8270": {"note_status": 1, "channel": 3, "note": 79, "velocity": 0, "time": 0, "type": "NormalMsg"}, "M_8271": {"note_status": 1, "channel": 3, "note": 81, "velocity": 122, "time": 0, "type": "NormalMsg"}, "M_8272": {"note_status": 1, "channel": 3, "note": 81, "velocity": 0, "time": 0, "type": "NormalMsg"}, "M_8273": {"note_status": 1, "channel": 3, "note": 81, "velocity": 122, "time": 0, "type": "NormalMsg"}, "M_8274": {"note_status": 1, "channel": 3, "note": 81, "velocity": 0, "time": 0, "type": "NormalMsg"}, "M_8275": {"note_status": 1, "channel": 3, "note": 84, "velocity": 122, "time": 0, "type": "NormalMsg"}, "M_8276": {"note_status": 1, "channel": 3, "note": 84, "velocity": 0, "time": 0, "type": "NormalMsg"}, "M_8277": {"note_status": 1, "channel": 3, "note": 81, "velocity": 127, "time": 0, "type": "NormalMsg"}, "M_8278": {"note_status": 1, "channel": 3, "note": 81, "velocity": 0, "time": 0, "type": "NormalMsg"}, "M_8279": {"note_status": 1, "channel": 3, "note": 79, "velocity": 122, "time": 0, "type": "NormalMsg"}, "M_8280": {"note_status": 1, "channel": 3, "note": 79, "velocity": 0, "time": 0, "type": "NormalMsg"}, "M_8281": {"note_status": 1, "channel": 3, "note": 79, "velocity": 122, "time": 0, "type": "NormalMsg"}, "M_8282": {"note_status": 1, "channel": 3, "note": 79, "velocity": 0, "time": 0, "type": "NormalMsg"}, "M_8283": {"note_status": 1, "channel": 3, "note": 81, "velocity": 122, "time": 0, "type": "NormalMsg"}, "M_8284": {"note_status": 1, "channel": 3, "note": 81, "velocity": 0, "time": 0, "type": "NormalMsg"}, "M_8285": {"note_status": 1, "channel": 3, "note": 79, "velocity": 122, "time": 0, "type": "NormalMsg"}, "M_8286": {"note_status": 1, "channel": 3, "note": 79, "velocity": 0, "time": 0, "type": "NormalMsg"}, "M_8287": {"note_status": 1, "channel": 3, "note": 81, "velocity": 113, "time": 0, "type": "NormalMsg"}, "M_8288": {"note_status": 1, "channel": 3, "note": 81, "velocity": 0, "time": 0, "type": "NormalMsg"}, "M_8289": {"note_status": 1, "channel": 3, "note": 83, "velocity": 114, "time": 0, "type": "NormalMsg"}, "M_8290": {"note_status": 1, "channel": 3, "note": 83, "velocity": 0, "time": 0, "type": "NormalMsg"}, "M_8291": {"note_status": 1, "channel": 3, "note": 84, "velocity": 116, "time": 0, "type": "NormalMsg"}, "M_8292": {"note_status": 1, "channel": 3, "note": 84, "velocity": 0, "time": 0, "type": "NormalMsg"}, "M_8293": {"note_status": 1, "channel": 3, "note": 83, "velocity": 118, "time": 0, "type": "NormalMsg"}, "M_8294": {"note_status": 1, "channel": 3, "note": 83, "velocity": 0, "time": 0, "type": "NormalMsg"}, "M_8295": {"note_status": 1, "channel": 3, "note": 81, "velocity": 117, "time": 0, "type": "NormalMsg"}, "M_8296": {"note_status": 1, "channel": 3, "note": 81, "velocity": 0, "time": 0, "type": "NormalMsg"}, "M_8297": {"note_status": 1, "channel": 3, "note": 79, "velocity": 122, "time": 0, "type": "NormalMsg"}, "M_8298": {"note_status": 1, "channel": 3, "note": 79, "velocity": 0, "time": 0, "type": "NormalMsg"}, "M_8299": {"note_status": 1, "channel": 3, "note": 79, "velocity": 121, "time": 0, "type": "NormalMsg"}, "M_8300": {"note_status": 1, "channel": 3, "note": 79, "velocity": 0, "time": 0, "type": "NormalMsg"}, "M_8301": {"note_status": 1, "channel": 3, "note": 81, "velocity": 122, "time": 0, "type": "NormalMsg"}, "M_8302": {"note_status": 1, "channel": 3, "note": 81, "velocity": 0, "time": 0, "type": "NormalMsg"}, "M_8303": {"note_status": 1, "channel": 3, "note": 79, "velocity": 123, "time": 0, "type": "NormalMsg"}, "M_8304": {"note_status": 1, "channel": 3, "note": 79, "velocity": 0, "time": 0, "type": "NormalMsg"}, "M_8305": {"note_status": 1, "channel": 3, "note": 81, "velocity": 113, "time": 0, "type": "NormalMsg"}, "M_8306": {"note_status": 1, "channel": 3, "note": 81, "velocity": 0, "time": 0, "type": "NormalMsg"}, "M_8307": {"note_status": 1, "channel": 3, "note": 83, "velocity": 114, "time": 0, "type": "NormalMsg"}, "M_8308": {"note_status": 1, "channel": 3, "note": 83, "velocity": 0, "time": 0, "type": "NormalMsg"}, "M_8309": {"note_status": 1, "channel": 3, "note": 84, "velocity": 116, "time": 0, "type": "NormalMsg"}, "M_8310": {"note_status": 1, "channel": 3, "note": 84, "velocity": 0, "time": 0, "type": "NormalMsg"}, "M_8311": {"note_status": 1, "channel": 3, "note": 83, "velocity": 118, "time": 0, "type": "NormalMsg"}, "M_8312": {"note_status": 1, "channel": 3, "note": 83, "velocity": 0, "time": 0, "type": "NormalMsg"}, "M_8313": {"note_status": 1, "channel": 3, "note": 81, "velocity": 117, "time": 0, "type": "NormalMsg"}, "M_8314": {"note_status": 1, "channel": 3, "note": 81, "velocity": 0, "time": 0, "type": "NormalMsg"}, "M_8315": {"note_status": 1, "channel": 3, "note": 84, "velocity": 122, "time": 0, "type": "NormalMsg"}, "M_8316": {"note_status": 1, "channel": 3, "note": 84, "velocity": 0, "time": 0, "type": "NormalMsg"}, "M_8317": {"note_status": 1, "channel": 3, "note": 84, "velocity": 121, "time": 0, "type": "NormalMsg"}, "M_8318": {"note_status": 1, "channel": 3, "note": 84, "velocity": 0, "time": 0, "type": "NormalMsg"}, "M_8319": {"note_status": 1, "channel": 3, "note": 83, "velocity": 122, "time": 0, "type": "NormalMsg"}, "M_8320": {"note_status": 1, "channel": 3, "note": 83, "velocity": 0, "time": 0, "type": "NormalMsg"}, "M_8321": {"note_status": 1, "channel": 3, "note": 84, "velocity": 123, "time": 0, "type": "NormalMsg"}, "M_8322": {"note_status": 1, "channel": 3, "note": 84, "velocity": 0, "time": 0, "type": "NormalMsg"}, "M_8323": {"note_status": 1, "channel": 3, "note": 81, "velocity": 122, "time": 0, "type": "NormalMsg"}, "M_8324": {"note_status": 1, "channel": 3, "note": 81, "velocity": 0, "time": 0, "type": "NormalMsg"}, "M_8325": {"note_status": 1, "channel": 3, "note": 81, "velocity": 122, "time": 0, "type": "NormalMsg"}, "M_8326": {"note_status": 1, "channel": 3, "note": 81, "velocity": 0, "time": 0, "type": "NormalMsg"}, "M_8327": {"note_status": 1, "channel": 3, "note": 84, "velocity": 122, "time": 0, "type": "NormalMsg"}, "M_8328": {"note_status": 1, "channel": 3, "note": 84, "velocity": 0, "time": 0, "type": "NormalMsg"}, "M_8329": {"note_status": 1, "channel": 3, "note": 81, "velocity": 127, "time": 0, "type": "NormalMsg"}, "M_8330": {"note_status": 1, "channel": 3, "note": 81, "velocity": 0, "time": 0, "type": "NormalMsg"}, "M_8331": {"note_status": 1, "channel": 3, "note": 79, "velocity": 122, "time": 0, "type": "NormalMsg"}, "M_8332": {"note_status": 1, "channel": 3, "note": 79, "velocity": 0, "time": 0, "type": "NormalMsg"}, "M_8333": {"note_status": 1, "channel": 3, "note": 79, "velocity": 122, "time": 0, "type": "NormalMsg"}, "M_8334": {"note_status": 1, "channel": 3, "note": 79, "velocity": 0, "time": 0, "type": "NormalMsg"}, "M_8335": {"note_status": 1, "channel": 3, "note": 81, "velocity": 122, "time": 0, "type": "NormalMsg"}, "M_8336": {"note_status": 1, "channel": 3, "note": 81, "velocity": 0, "time": 0, "type": "NormalMsg"}, "M_8337": {"note_status": 1, "channel": 3, "note": 79, "velocity": 122, "time": 0, "type": "NormalMsg"}, "M_8338": {"note_status": 1, "channel": 3, "note": 79, "velocity": 0, "time": 0, "type": "NormalMsg"}, "M_8339": {"note_status": 1, "channel": 3, "note": 81, "velocity": 122, "time": 0, "type": "NormalMsg"}, "M_8340": {"note_status": 1, "channel": 3, "note": 81, "velocity": 0, "time": 0, "type": "NormalMsg"}, "M_8341": {"note_status": 1, "channel": 3, "note": 81, "velocity": 122, "time": 0, "type": "NormalMsg"}, "M_8342": {"note_status": 1, "channel": 3, "note": 81, "velocity": 0, "time": 0, "type": "NormalMsg"}, "M_8343": {"note_status": 1, "channel": 3, "note": 84, "velocity": 122, "time": 0, "type": "NormalMsg"}, "M_8344": {"note_status": 1, "channel": 3, "note": 84, "velocity": 0, "time": 0, "type": "NormalMsg"}, "M_8345": {"note_status": 1, "channel": 3, "note": 81, "velocity": 127, "time": 0, "type": "NormalMsg"}, "M_8346": {"note_status": 1, "channel": 3, "note": 81, "velocity": 0, "time": 0, "type": "NormalMsg"}, "M_8347": {"note_status": 1, "channel": 3, "note": 79, "velocity": 122, "time": 0, "type": "NormalMsg"}, "M_8348": {"note_status": 1, "channel": 3, "note": 79, "velocity": 0, "time": 0, "type": "NormalMsg"}, "M_8349": {"note_status": 1, "channel": 3, "note": 79, "velocity": 122, "time": 0, "type": "NormalMsg"}, "M_8350": {"note_status": 1, "channel": 3, "note": 79, "velocity": 0, "time": 0, "type": "NormalMsg"}, "M_8351": {"note_status": 1, "channel": 3, "note": 81, "velocity": 122, "time": 0, "type": "NormalMsg"}, "M_8352": {"note_status": 1, "channel": 3, "note": 81, "velocity": 0, "time": 0, "type": "NormalMsg"}, "M_8353": {"note_status": 1, "channel": 3, "note": 79, "velocity": 122, "time": 0, "type": "NormalMsg"}, "M_8354": {"note_status": 1, "channel": 3, "note": 79, "velocity": 0, "time": 0, "type": "NormalMsg"}, "M_8355": {"note_status": 1, "channel": 3, "note": 81, "velocity": 122, "time": 0, "type": "NormalMsg"}, "M_8356": {"note_status": 1, "channel": 3, "note": 81, "velocity": 0, "time": 0, "type": "NormalMsg"}, "M_8357": {"note_status": 1, "channel": 3, "note": 81, "velocity": 122, "time": 0, "type": "NormalMsg"}, "M_8358": {"note_status": 1, "channel": 3, "note": 81, "velocity": 0, "time": 0, "type": "NormalMsg"}, "M_8359": {"note_status": 1, "channel": 3, "note": 84, "velocity": 122, "time": 0, "type": "NormalMsg"}, "M_8360": {"note_status": 1, "channel": 3, "note": 84, "velocity": 0, "time": 0, "type": "NormalMsg"}, "M_8361": {"note_status": 1, "channel": 3, "note": 81, "velocity": 127, "time": 0, "type": "NormalMsg"}, "M_8362": {"note_status": 1, "channel": 3, "note": 81, "velocity": 0, "time": 0, "type": "NormalMsg"}, "M_8363": {"note_status": 1, "channel": 3, "note": 79, "velocity": 122, "time": 0, "type": "NormalMsg"}, "M_8364": {"note_status": 1, "channel": 3, "note": 79, "velocity": 0, "time": 0, "type": "NormalMsg"}, "M_8365": {"note_status": 1, "channel": 3, "note": 79, "velocity": 122, "time": 0, "type": "NormalMsg"}, "M_8366": {"note_status": 1, "channel": 3, "note": 79, "velocity": 0, "time": 0, "type": "NormalMsg"}, "M_8367": {"note_status": 1, "channel": 3, "note": 81, "velocity": 122, "time": 0, "type": "NormalMsg"}, "M_8368": {"note_status": 1, "channel": 3, "note": 81, "velocity": 0, "time": 0, "type": "NormalMsg"}, "M_8369": {"note_status": 1, "channel": 3, "note": 79, "velocity": 122, "time": 0, "type": "NormalMsg"}, "M_8370": {"note_status": 1, "channel": 3, "note": 79, "velocity": 0, "time": 0, "type": "NormalMsg"}, "M_8371": {"note_status": 1, "channel": 3, "note": 81, "velocity": 122, "time": 0, "type": "NormalMsg"}, "M_8372": {"note_status": 1, "channel": 3, "note": 81, "velocity": 0, "time": 0, "type": "NormalMsg"}, "M_8373": {"note_status": 1, "channel": 3, "note": 81, "velocity": 122, "time": 0, "type": "NormalMsg"}, "M_8374": {"note_status": 1, "channel": 3, "note": 81, "velocity": 0, "time": 0, "type": "NormalMsg"}, "M_8375": {"note_status": 1, "channel": 3, "note": 84, "velocity": 122, "time": 0, "type": "NormalMsg"}, "M_8376": {"note_status": 1, "channel": 3, "note": 84, "velocity": 0, "time": 0, "type": "NormalMsg"}, "M_8377": {"note_status": 1, "channel": 3, "note": 81, "velocity": 127, "time": 0, "type": "NormalMsg"}, "M_8378": {"note_status": 1, "channel": 3, "note": 81, "velocity": 0, "time": 0, "type": "NormalMsg"}, "M_8379": {"note_status": 1, "channel": 3, "note": 79, "velocity": 122, "time": 0, "type": "NormalMsg"}, "M_8380": {"note_status": 1, "channel": 3, "note": 79, "velocity": 0, "time": 0, "type": "NormalMsg"}, "M_8381": {"note_status": 1, "channel": 3, "note": 79, "velocity": 122, "time": 0, "type": "NormalMsg"}, "M_8382": {"note_status": 1, "channel": 3, "note": 79, "velocity": 0, "time": 0, "type": "NormalMsg"}, "M_8383": {"note_status": 1, "channel": 3, "note": 81, "velocity": 122, "time": 0, "type": "NormalMsg"}, "M_8384": {"note_status": 1, "channel": 3, "note": 81, "velocity": 0, "time": 0, "type": "NormalMsg"}, "M_8385": {"note_status": 1, "channel": 3, "note": 79, "velocity": 122, "time": 0, "type": "NormalMsg"}, "M_8386": {"note_status": 1, "channel": 3, "note": 79, "velocity": 0, "time": 0, "type": "NormalMsg"}, "R_8387": {"note_status": 0, "channel": 0, "note": 0, "velocity": 0, "time": 0, "type": "ResetMsg"}, "R_8388": {"note_status": 0, "channel": 0, "note": 0, "velocity": 0, "time": 0, "type": "ResetMsg"}, "U_8389": {"note_status": 0, "channel": 0, "note": 0, "velocity": 0, "time": 0, "type": "DummyType"}, "M_8390": {"note_status": 1, "channel": 4, "note": 81, "velocity": 122, "time": 0, "type": "NormalMsg"}, "M_8391": {"note_status": 1, "channel": 4, "note": 81, "velocity": 0, "time": 0, "type": "NormalMsg"}, "M_8392": {"note_status": 1, "channel": 4, "note": 81, "velocity": 122, "time": 0, "type": "NormalMsg"}, "M_8393": {"note_status": 1, "channel": 4, "note": 81, "velocity": 0, "time": 0, "type": "NormalMsg"}, "M_8394": {"note_status": 1, "channel": 4, "note": 84, "velocity": 122, "time": 0, "type": "NormalMsg"}, "M_8395": {"note_status": 1, "channel": 4, "note": 84, "velocity": 0, "time": 0, "type": "NormalMsg"}, "M_8396": {"note_status": 1, "channel": 4, "note": 81, "velocity": 127, "time": 0, "type": "NormalMsg"}, "M_8397": {"note_status": 1, "channel": 4, "note": 81, "velocity": 0, "time": 0, "type": "NormalMsg"}, "M_8398": {"note_status": 1, "channel": 4, "note": 79, "velocity": 122, "time": 0, "type": "NormalMsg"}, "M_8399": {"note_status": 1, "channel": 4, "note": 79, "velocity": 0, "time": 0, "type": "NormalMsg"}, "M_8400": {"note_status": 1, "channel": 4, "note": 79, "velocity": 122, "time": 0, "type": "NormalMsg"}, "M_8401": {"note_status": 1, "channel": 4, "note": 79, "velocity": 0, "time": 0, "type": "NormalMsg"}, "M_8402": {"note_status": 1, "channel": 4, "note": 81, "velocity": 122, "time": 0, "type": "NormalMsg"}, "M_8403": {"note_status": 1, "channel": 4, "note": 81, "velocity": 0, "time": 0, "type": "NormalMsg"}, "M_8404": {"note_status": 1, "channel": 4, "note": 79, "velocity": 122, "time": 0, "type": "NormalMsg"}, "M_8405": {"note_status": 1, "channel": 4, "note": 79, "velocity": 0, "time": 0, "type": "NormalMsg"}, "M_8406": {"note_status": 1, "channel": 4, "note": 81, "velocity": 122, "time": 0, "type": "NormalMsg"}, "M_8407": {"note_status": 1, "channel": 4, "note": 81, "velocity": 0, "time": 0, "type": "NormalMsg"}, "M_8408": {"note_status": 1, "channel": 4, "note": 81, "velocity": 122, "time": 0, "type": "NormalMsg"}, "M_8409": {"note_status": 1, "channel": 4, "note": 81, "velocity": 0, "time": 0, "type": "NormalMsg"}, "M_8410": {"note_status": 1, "channel": 4, "note": 84, "velocity": 122, "time": 0, "type": "NormalMsg"}, "M_8411": {"note_status": 1, "channel": 4, "note": 84, "velocity": 0, "time": 0, "type": "NormalMsg"}, "M_8412": {"note_status": 1, "channel": 4, "note": 81, "velocity": 127, "time": 0, "type": "NormalMsg"}, "M_8413": {"note_status": 1, "channel": 4, "note": 81, "velocity": 0, "time": 0, "type": "NormalMsg"}, "M_8414": {"note_status": 1, "channel": 4, "note": 79, "velocity": 122, "time": 0, "type": "NormalMsg"}, "M_8415": {"note_status": 1, "channel": 4, "note": 79, "velocity": 0, "time": 0, "type": "NormalMsg"}, "M_8416": {"note_status": 1, "channel": 4, "note": 79, "velocity": 122, "time": 0, "type": "NormalMsg"}, "M_8417": {"note_status": 1, "channel": 4, "note": 79, "velocity": 0, "time": 0, "type": "NormalMsg"}, "M_8418": {"note_status": 1, "channel": 4, "note": 81, "velocity": 122, "time": 0, "type": "NormalMsg"}, "M_8419": {"note_status": 1, "channel": 4, "note": 81, "velocity": 0, "time": 0, "type": "NormalMsg"}, "M_8420": {"note_status": 1, "channel": 4, "note": 79, "velocity": 122, "time": 0, "type": "NormalMsg"}, "M_8421": {"note_status": 1, "channel": 4, "note": 79, "velocity": 0, "time": 0, "type": "NormalMsg"}, "M_8422": {"note_status": 1, "channel": 4, "note": 81, "velocity": 122, "time": 0, "type": "NormalMsg"}, "M_8423": {"note_status": 1, "channel": 4, "note": 81, "velocity": 0, "time": 0, "type": "NormalMsg"}, "M_8424": {"note_status": 1, "channel": 4, "note": 81, "velocity": 122, "time": 0, "type": "NormalMsg"}, "M_8425": {"note_status": 1, "channel": 4, "note": 81, "velocity": 0, "time": 0, "type": "NormalMsg"}, "M_8426": {"note_status": 1, "channel": 4, "note": 84, "velocity": 122, "time": 0, "type": "NormalMsg"}, "M_8427": {"note_status": 1, "channel": 4, "note": 84, "velocity": 0, "time": 0, "type": "NormalMsg"}, "M_8428": {"note_status": 1, "channel": 4, "note": 81, "velocity": 127, "time": 0, "type": "NormalMsg"}, "M_8429": {"note_status": 1, "channel": 4, "note": 81, "velocity": 0, "time": 0, "type": "NormalMsg"}, "M_8430": {"note_status": 1, "channel": 4, "note": 79, "velocity": 122, "time": 0, "type": "NormalMsg"}, "M_8431": {"note_status": 1, "channel": 4, "note": 79, "velocity": 0, "time": 0, "type": "NormalMsg"}, "M_8432": {"note_status": 1, "channel": 4, "note": 79, "velocity": 122, "time": 0, "type": "NormalMsg"}, "M_8433": {"note_status": 1, "channel": 4, "note": 79, "velocity": 0, "time": 0, "type": "NormalMsg"}, "M_8434": {"note_status": 1, "channel": 4, "note": 81, "velocity": 122, "time": 0, "type": "NormalMsg"}, "M_8435": {"note_status": 1, "channel": 4, "note": 81, "velocity": 0, "time": 0, "type": "NormalMsg"}, "M_8436": {"note_status": 1, "channel": 4, "note": 79, "velocity": 122, "time": 0, "type": "NormalMsg"}, "M_8437": {"note_status": 1, "channel": 4, "note": 79, "velocity": 0, "time": 0, "type": "NormalMsg"}, "M_8438": {"note_status": 1, "channel": 4, "note": 81, "velocity": 122, "time": 0, "type": "NormalMsg"}, "M_8439": {"note_status": 1, "channel": 4, "note": 81, "velocity": 0, "time": 0, "type": "NormalMsg"}, "M_8440": {"note_status": 1, "channel": 4, "note": 81, "velocity": 122, "time": 0, "type": "NormalMsg"}, "M_8441": {"note_status": 1, "channel": 4, "note": 81, "velocity": 0, "time": 0, "type": "NormalMsg"}, "M_8442": {"note_status": 1, "channel": 4, "note": 84, "velocity": 122, "time": 0, "type": "NormalMsg"}, "M_8443": {"note_status": 1, "channel": 4, "note": 84, "velocity": 0, "time": 0, "type": "NormalMsg"}, "M_8444": {"note_status": 1, "channel": 4, "note": 81, "velocity": 127, "time": 0, "type": "NormalMsg"}, "M_8445": {"note_status": 1, "channel": 4, "note": 81, "velocity": 0, "time": 0, "type": "NormalMsg"}, "M_8446": {"note_status": 1, "channel": 4, "note": 79, "velocity": 122, "time": 0, "type": "NormalMsg"}, "M_8447": {"note_status": 1, "channel": 4, "note": 79, "velocity": 0, "time": 0, "type": "NormalMsg"}, "M_8448": {"note_status": 1, "channel": 4, "note": 79, "velocity": 122, "time": 0, "type": "NormalMsg"}, "M_8449": {"note_status": 1, "channel": 4, "note": 79, "velocity": 0, "time": 0, "type": "NormalMsg"}, "M_8450": {"note_status": 1, "channel": 4, "note": 81, "velocity": 122, "time": 0, "type": "NormalMsg"}, "M_8451": {"note_status": 1, "channel": 4, "note": 81, "velocity": 0, "time": 0, "type": "NormalMsg"}, "M_8452": {"note_status": 1, "channel": 4, "note": 79, "velocity": 122, "time": 0, "type": "NormalMsg"}, "M_8453": {"note_status": 1, "channel": 4, "note": 79, "velocity": 0, "time": 0, "type": "NormalMsg"}, "M_8454": {"note_status": 1, "channel": 4, "note": 81, "velocity": 122, "time": 0, "type": "NormalMsg"}, "M_8455": {"note_status": 1, "channel": 4, "note": 81, "velocity": 0, "time": 0, "type": "NormalMsg"}, "M_8456": {"note_status": 1, "channel": 4, "note": 81, "velocity": 122, "time": 0, "type": "NormalMsg"}, "M_8457": {"note_status": 1, "channel": 4, "note": 81, "velocity": 0, "time": 0, "type": "NormalMsg"}, "M_8458": {"note_status": 1, "channel": 4, "note": 84, "velocity": 122, "time": 0, "type": "NormalMsg"}, "M_8459": {"note_status": 1, "channel": 4, "note": 84, "velocity": 0, "time": 0, "type": "NormalMsg"}, "M_8460": {"note_status": 1, "channel": 4, "note": 81, "velocity": 127, "time": 0, "type": "NormalMsg"}, "M_8461": {"note_status": 1, "channel": 4, "note": 81, "velocity": 0, "time": 0, "type": "NormalMsg"}, "M_8462": {"note_status": 1, "channel": 4, "note": 79, "velocity": 122, "time": 0, "type": "NormalMsg"}, "M_8463": {"note_status": 1, "channel": 4, "note": 79, "velocity": 0, "time": 0, "type": "NormalMsg"}, "M_8464": {"note_status": 1, "channel": 4, "note": 79, "velocity": 122, "time": 0, "type": "NormalMsg"}, "M_8465": {"note_status": 1, "channel": 4, "note": 79, "velocity": 0, "time": 0, "type": "NormalMsg"}, "M_8466": {"note_status": 1, "channel": 4, "note": 81, "velocity": 122, "time": 0, "type": "NormalMsg"}, "M_8467": {"note_status": 1, "channel": 4, "note": 81, "velocity": 0, "time": 0, "type": "NormalMsg"}, "M_8468": {"note_status": 1, "channel": 4, "note": 79, "velocity": 122, "time": 0, "type": "NormalMsg"}, "M_8469": {"note_status": 1, "channel": 4, "note": 79, "velocity": 0, "time": 0, "type": "NormalMsg"}, "M_8470": {"note_status": 1, "channel": 4, "note": 81, "velocity": 122, "time": 0, "type": "NormalMsg"}, "M_8471": {"note_status": 1, "channel": 4, "note": 81, "velocity": 0, "time": 0, "type": "NormalMsg"}, "M_8472": {"note_status": 1, "channel": 4, "note": 81, "velocity": 122, "time": 0, "type": "NormalMsg"}, "M_8473": {"note_status": 1, "channel": 4, "note": 81, "velocity": 0, "time": 0, "type": "NormalMsg"}, "M_8474": {"note_status": 1, "channel": 4, "note": 84, "velocity": 122, "time": 0, "type": "NormalMsg"}, "M_8475": {"note_status": 1, "channel": 4, "note": 84, "velocity": 0, "time": 0, "type": "NormalMsg"}, "M_8476": {"note_status": 1, "channel": 4, "note": 81, "velocity": 127, "time": 0, "type": "NormalMsg"}, "M_8477": {"note_status": 1, "channel": 4, "note": 81, "velocity": 0, "time": 0, "type": "NormalMsg"}, "M_8478": {"note_status": 1, "channel": 4, "note": 79, "velocity": 122, "time": 0, "type": "NormalMsg"}, "M_8479": {"note_status": 1, "channel": 4, "note": 79, "velocity": 0, "time": 0, "type": "NormalMsg"}, "M_8480": {"note_status": 1, "channel": 4, "note": 79, "velocity": 122, "time": 0, "type": "NormalMsg"}, "M_8481": {"note_status": 1, "channel": 4, "note": 79, "velocity": 0, "time": 0, "type": "NormalMsg"}, "M_8482": {"note_status": 1, "channel": 4, "note": 81, "velocity": 122, "time": 0, "type": "NormalMsg"}, "M_8483": {"note_status": 1, "channel": 4, "note": 81, "velocity": 0, "time": 0, "type": "NormalMsg"}, "M_8484": {"note_status": 1, "channel": 4, "note": 79, "velocity": 122, "time": 0, "type": "NormalMsg"}, "M_8485": {"note_status": 1, "channel": 4, "note": 79, "velocity": 0, "time": 0, "type": "NormalMsg"}, "M_8486": {"note_status": 1, "channel": 4, "note": 81, "velocity": 122, "time": 0, "type": "NormalMsg"}, "M_8487": {"note_status": 1, "channel": 4, "note": 81, "velocity": 0, "time": 0, "type": "NormalMsg"}, "M_8488": {"note_status": 1, "channel": 4, "note": 81, "velocity": 122, "time": 0, "type": "NormalMsg"}, "M_8489": {"note_status": 1, "channel": 4, "note": 81, "velocity": 0, "time": 0, "type": "NormalMsg"}, "M_8490": {"note_status": 1, "channel": 4, "note": 84, "velocity": 122, "time": 0, "type": "NormalMsg"}, "M_8491": {"note_status": 1, "channel": 4, "note": 84, "velocity": 0, "time": 0, "type": "NormalMsg"}, "M_8492": {"note_status": 1, "channel": 4, "note": 81, "velocity": 127, "time": 0, "type": "NormalMsg"}, "M_8493": {"note_status": 1, "channel": 4, "note": 81, "velocity": 0, "time": 0, "type": "NormalMsg"}, "M_8494": {"note_status": 1, "channel": 4, "note": 79, "velocity": 122, "time": 0, "type": "NormalMsg"}, "M_8495": {"note_status": 1, "channel": 4, "note": 79, "velocity": 0, "time": 0, "type": "NormalMsg"}, "M_8496": {"note_status": 1, "channel": 4, "note": 79, "velocity": 122, "time": 0, "type": "NormalMsg"}, "M_8497": {"note_status": 1, "channel": 4, "note": 79, "velocity": 0, "time": 0, "type": "NormalMsg"}, "M_8498": {"note_status": 1, "channel": 4, "note": 81, "velocity": 122, "time": 0, "type": "NormalMsg"}, "M_8499": {"note_status": 1, "channel": 4, "note": 81, "velocity": 0, "time": 0, "type": "NormalMsg"}, "M_8500": {"note_status": 1, "channel": 4, "note": 79, "velocity": 122, "time": 0, "type": "NormalMsg"}, "M_8501": {"note_status": 1, "channel": 4, "note": 79, "velocity": 0, "time": 0, "type": "NormalMsg"}, "M_8502": {"note_status": 1, "channel": 4, "note": 81, "velocity": 122, "time": 0, "type": "NormalMsg"}, "M_8503": {"note_status": 1, "channel": 4, "note": 81, "velocity": 0, "time": 0, "type": "NormalMsg"}, "M_8504": {"note_status": 1, "channel": 4, "note": 81, "velocity": 122, "time": 0, "type": "NormalMsg"}, "M_8505": {"note_status": 1, "channel": 4, "note": 81, "velocity": 0, "time": 0, "type": "NormalMsg"}, "M_8506": {"note_status": 1, "channel": 4, "note": 84, "velocity": 122, "time": 0, "type": "NormalMsg"}, "M_8507": {"note_status": 1, "channel": 4, "note": 84, "velocity": 0, "time": 0, "type": "NormalMsg"}, "M_8508": {"note_status": 1, "channel": 4, "note": 81, "velocity": 127, "time": 0, "type": "NormalMsg"}, "M_8509": {"note_status": 1, "channel": 4, "note": 81, "velocity": 0, "time": 0, "type": "NormalMsg"}, "M_8510": {"note_status": 1, "channel": 4, "note": 79, "velocity": 122, "time": 0, "type": "NormalMsg"}, "M_8511": {"note_status": 1, "channel": 4, "note": 79, "velocity": 0, "time": 0, "type": "NormalMsg"}, "M_8512": {"note_status": 1, "channel": 4, "note": 79, "velocity": 122, "time": 0, "type": "NormalMsg"}, "M_8513": {"note_status": 1, "channel": 4, "note": 79, "velocity": 0, "time": 0, "type": "NormalMsg"}, "M_8514": {"note_status": 1, "channel": 4, "note": 81, "velocity": 122, "time": 0, "type": "NormalMsg"}, "M_8515": {"note_status": 1, "channel": 4, "note": 81, "velocity": 0, "time": 0, "type": "NormalMsg"}, "M_8516": {"note_status": 1, "channel": 4, "note": 79, "velocity": 122, "time": 0, "type": "NormalMsg"}, "M_8517": {"note_status": 1, "channel": 4, "note": 79, "velocity": 0, "time": 0, "type": "NormalMsg"}, "M_8518": {"note_status": 1, "channel": 4, "note": 81, "velocity": 122, "time": 0, "type": "NormalMsg"}, "M_8519": {"note_status": 1, "channel": 4, "note": 81, "velocity": 0, "time": 0, "type": "NormalMsg"}, "M_8520": {"note_status": 1, "channel": 4, "note": 81, "velocity": 122, "time": 0, "type": "NormalMsg"}, "M_8521": {"note_status": 1, "channel": 4, "note": 81, "velocity": 0, "time": 0, "type": "NormalMsg"}, "M_8522": {"note_status": 1, "channel": 4, "note": 84, "velocity": 122, "time": 0, "type": "NormalMsg"}, "M_8523": {"note_status": 1, "channel": 4, "note": 84, "velocity": 0, "time": 0, "type": "NormalMsg"}, "M_8524": {"note_status": 1, "channel": 4, "note": 81, "velocity": 127, "time": 0, "type": "NormalMsg"}, "M_8525": {"note_status": 1, "channel": 4, "note": 81, "velocity": 0, "time": 0, "type": "NormalMsg"}, "M_8526": {"note_status": 1, "channel": 4, "note": 79, "velocity": 122, "time": 0, "type": "NormalMsg"}, "M_8527": {"note_status": 1, "channel": 4, "note": 79, "velocity": 0, "time": 0, "type": "NormalMsg"}, "M_8528": {"note_status": 1, "channel": 4, "note": 79, "velocity": 122, "time": 0, "type": "NormalMsg"}, "M_8529": {"note_status": 1, "channel": 4, "note": 79, "velocity": 0, "time": 0, "type": "NormalMsg"}, "M_8530": {"note_status": 1, "channel": 4, "note": 81, "velocity": 122, "time": 0, "type": "NormalMsg"}, "M_8531": {"note_status": 1, "channel": 4, "note": 81, "velocity": 0, "time": 0, "type": "NormalMsg"}, "M_8532": {"note_status": 1, "channel": 4, "note": 79, "velocity": 122, "time": 0, "type": "NormalMsg"}, "M_8533": {"note_status": 1, "channel": 4, "note": 79, "velocity": 0, "time": 0, "type": "NormalMsg"}, "M_8534": {"note_status": 1, "channel": 4, "note": 81, "velocity": 122, "time": 0, "type": "NormalMsg"}, "M_8535": {"note_status": 1, "channel": 4, "note": 81, "velocity": 0, "time": 0, "type": "NormalMsg"}, "M_8536": {"note_status": 1, "channel": 4, "note": 81, "velocity": 122, "time": 0, "type": "NormalMsg"}, "M_8537": {"note_status": 1, "channel": 4, "note": 81, "velocity": 0, "time": 0, "type": "NormalMsg"}, "M_8538": {"note_status": 1, "channel": 4, "note": 84, "velocity": 122, "time": 0, "type": "NormalMsg"}, "M_8539": {"note_status": 1, "channel": 4, "note": 84, "velocity": 0, "time": 0, "type": "NormalMsg"}, "M_8540": {"note_status": 1, "channel": 4, "note": 81, "velocity": 127, "time": 0, "type": "NormalMsg"}, "M_8541": {"note_status": 1, "channel": 4, "note": 81, "velocity": 0, "time": 0, "type": "NormalMsg"}, "M_8542": {"note_status": 1, "channel": 4, "note": 79, "velocity": 122, "time": 0, "type": "NormalMsg"}, "M_8543": {"note_status": 1, "channel": 4, "note": 79, "velocity": 0, "time": 0, "type": "NormalMsg"}, "M_8544": {"note_status": 1, "channel": 4, "note": 79, "velocity": 122, "time": 0, "type": "NormalMsg"}, "M_8545": {"note_status": 1, "channel": 4, "note": 79, "velocity": 0, "time": 0, "type": "NormalMsg"}, "M_8546": {"note_status": 1, "channel": 4, "note": 81, "velocity": 122, "time": 0, "type": "NormalMsg"}, "M_8547": {"note_status": 1, "channel": 4, "note": 81, "velocity": 0, "time": 0, "type": "NormalMsg"}, "M_8548": {"note_status": 1, "channel": 4, "note": 79, "velocity": 122, "time": 0, "type": "NormalMsg"}, "M_8549": {"note_status": 1, "channel": 4, "note": 79, "velocity": 0, "time": 0, "type": "NormalMsg"}, "M_8550": {"note_status": 1, "channel": 4, "note": 81, "velocity": 113, "time": 0, "type": "NormalMsg"}, "M_8551": {"note_status": 1, "channel": 4, "note": 81, "velocity": 0, "time": 0, "type": "NormalMsg"}, "M_8552": {"note_status": 1, "channel": 4, "note": 83, "velocity": 114, "time": 0, "type": "NormalMsg"}, "M_8553": {"note_status": 1, "channel": 4, "note": 83, "velocity": 0, "time": 0, "type": "NormalMsg"}, "M_8554": {"note_status": 1, "channel": 4, "note": 84, "velocity": 116, "time": 0, "type": "NormalMsg"}, "M_8555": {"note_status": 1, "channel": 4, "note": 84, "velocity": 0, "time": 0, "type": "NormalMsg"}, "M_8556": {"note_status": 1, "channel": 4, "note": 83, "velocity": 118, "time": 0, "type": "NormalMsg"}, "M_8557": {"note_status": 1, "channel": 4, "note": 83, "velocity": 0, "time": 0, "type": "NormalMsg"}, "M_8558": {"note_status": 1, "channel": 4, "note": 81, "velocity": 117, "time": 0, "type": "NormalMsg"}, "M_8559": {"note_status": 1, "channel": 4, "note": 81, "velocity": 0, "time": 0, "type": "NormalMsg"}, "M_8560": {"note_status": 1, "channel": 4, "note": 79, "velocity": 122, "time": 0, "type": "NormalMsg"}, "M_8561": {"note_status": 1, "channel": 4, "note": 79, "velocity": 0, "time": 0, "type": "NormalMsg"}, "M_8562": {"note_status": 1, "channel": 4, "note": 79, "velocity": 121, "time": 0, "type": "NormalMsg"}, "M_8563": {"note_status": 1, "channel": 4, "note": 79, "velocity": 0, "time": 0, "type": "NormalMsg"}, "M_8564": {"note_status": 1, "channel": 4, "note": 81, "velocity": 122, "time": 0, "type": "NormalMsg"}, "M_8565": {"note_status": 1, "channel": 4, "note": 81, "velocity": 0, "time": 0, "type": "NormalMsg"}, "M_8566": {"note_status": 1, "channel": 4, "note": 79, "velocity": 123, "time": 0, "type": "NormalMsg"}, "M_8567": {"note_status": 1, "channel": 4, "note": 79, "velocity": 0, "time": 0, "type": "NormalMsg"}, "M_8568": {"note_status": 1, "channel": 4, "note": 81, "velocity": 113, "time": 0, "type": "NormalMsg"}, "M_8569": {"note_status": 1, "channel": 4, "note": 81, "velocity": 0, "time": 0, "type": "NormalMsg"}, "M_8570": {"note_status": 1, "channel": 4, "note": 83, "velocity": 114, "time": 0, "type": "NormalMsg"}, "M_8571": {"note_status": 1, "channel": 4, "note": 83, "velocity": 0, "time": 0, "type": "NormalMsg"}, "M_8572": {"note_status": 1, "channel": 4, "note": 84, "velocity": 116, "time": 0, "type": "NormalMsg"}, "M_8573": {"note_status": 1, "channel": 4, "note": 84, "velocity": 0, "time": 0, "type": "NormalMsg"}, "M_8574": {"note_status": 1, "channel": 4, "note": 83, "velocity": 118, "time": 0, "type": "NormalMsg"}, "M_8575": {"note_status": 1, "channel": 4, "note": 83, "velocity": 0, "time": 0, "type": "NormalMsg"}, "M_8576": {"note_status": 1, "channel": 4, "note": 81, "velocity": 117, "time": 0, "type": "NormalMsg"}, "M_8577": {"note_status": 1, "channel": 4, "note": 81, "velocity": 0, "time": 0, "type": "NormalMsg"}, "M_8578": {"note_status": 1, "channel": 4, "note": 84, "velocity": 122, "time": 0, "type": "NormalMsg"}, "M_8579": {"note_status": 1, "channel": 4, "note": 84, "velocity": 0, "time": 0, "type": "NormalMsg"}, "M_8580": {"note_status": 1, "channel": 4, "note": 84, "velocity": 121, "time": 0, "type": "NormalMsg"}, "M_8581": {"note_status": 1, "channel": 4, "note": 84, "velocity": 0, "time": 0, "type": "NormalMsg"}, "M_8582": {"note_status": 1, "channel": 4, "note": 83, "velocity": 122, "time": 0, "type": "NormalMsg"}, "M_8583": {"note_status": 1, "channel": 4, "note": 83, "velocity": 0, "time": 0, "type": "NormalMsg"}, "M_8584": {"note_status": 1, "channel": 4, "note": 84, "velocity": 123, "time": 0, "type": "NormalMsg"}, "M_8585": {"note_status": 1, "channel": 4, "note": 84, "velocity": 0, "time": 0, "type": "NormalMsg"}, "M_8586": {"note_status": 1, "channel": 4, "note": 81, "velocity": 122, "time": 0, "type": "NormalMsg"}, "M_8587": {"note_status": 1, "channel": 4, "note": 81, "velocity": 0, "time": 0, "type": "NormalMsg"}, "M_8588": {"note_status": 1, "channel": 4, "note": 81, "velocity": 122, "time": 0, "type": "NormalMsg"}, "M_8589": {"note_status": 1, "channel": 4, "note": 81, "velocity": 0, "time": 0, "type": "NormalMsg"}, "M_8590": {"note_status": 1, "channel": 4, "note": 84, "velocity": 122, "time": 0, "type": "NormalMsg"}, "M_8591": {"note_status": 1, "channel": 4, "note": 84, "velocity": 0, "time": 0, "type": "NormalMsg"}, "M_8592": {"note_status": 1, "channel": 4, "note": 81, "velocity": 127, "time": 0, "type": "NormalMsg"}, "M_8593": {"note_status": 1, "channel": 4, "note": 81, "velocity": 0, "time": 0, "type": "NormalMsg"}, "M_8594": {"note_status": 1, "channel": 4, "note": 79, "velocity": 122, "time": 0, "type": "NormalMsg"}, "M_8595": {"note_status": 1, "channel": 4, "note": 79, "velocity": 0, "time": 0, "type": "NormalMsg"}, "M_8596": {"note_status": 1, "channel": 4, "note": 79, "velocity": 122, "time": 0, "type": "NormalMsg"}, "M_8597": {"note_status": 1, "channel": 4, "note": 79, "velocity": 0, "time": 0, "type": "NormalMsg"}, "M_8598": {"note_status": 1, "channel": 4, "note": 81, "velocity": 122, "time": 0, "type": "NormalMsg"}, "M_8599": {"note_status": 1, "channel": 4, "note": 81, "velocity": 0, "time": 0, "type": "NormalMsg"}, "M_8600": {"note_status": 1, "channel": 4, "note": 79, "velocity": 122, "time": 0, "type": "NormalMsg"}, "M_8601": {"note_status": 1, "channel": 4, "note": 79, "velocity": 0, "time": 0, "type": "NormalMsg"}, "M_8602": {"note_status": 1, "channel": 4, "note": 81, "velocity": 122, "time": 0, "type": "NormalMsg"}, "M_8603": {"note_status": 1, "channel": 4, "note": 81, "velocity": 0, "time": 0, "type": "NormalMsg"}, "M_8604": {"note_status": 1, "channel": 4, "note": 81, "velocity": 122, "time": 0, "type": "NormalMsg"}, "M_8605": {"note_status": 1, "channel": 4, "note": 81, "velocity": 0, "time": 0, "type": "NormalMsg"}, "M_8606": {"note_status": 1, "channel": 4, "note": 84, "velocity": 122, "time": 0, "type": "NormalMsg"}, "M_8607": {"note_status": 1, "channel": 4, "note": 84, "velocity": 0, "time": 0, "type": "NormalMsg"}, "M_8608": {"note_status": 1, "channel": 4, "note": 81, "velocity": 127, "time": 0, "type": "NormalMsg"}, "M_8609": {"note_status": 1, "channel": 4, "note": 81, "velocity": 0, "time": 0, "type": "NormalMsg"}, "M_8610": {"note_status": 1, "channel": 4, "note": 79, "velocity": 122, "time": 0, "type": "NormalMsg"}, "M_8611": {"note_status": 1, "channel": 4, "note": 79, "velocity": 0, "time": 0, "type": "NormalMsg"}, "M_8612": {"note_status": 1, "channel": 4, "note": 79, "velocity": 122, "time": 0, "type": "NormalMsg"}, "M_8613": {"note_status": 1, "channel": 4, "note": 79, "velocity": 0, "time": 0, "type": "NormalMsg"}, "M_8614": {"note_status": 1, "channel": 4, "note": 81, "velocity": 122, "time": 0, "type": "NormalMsg"}, "M_8615": {"note_status": 1, "channel": 4, "note": 81, "velocity": 0, "time": 0, "type": "NormalMsg"}, "M_8616": {"note_status": 1, "channel": 4, "note": 79, "velocity": 122, "time": 0, "type": "NormalMsg"}, "M_8617": {"note_status": 1, "channel": 4, "note": 79, "velocity": 0, "time": 0, "type": "NormalMsg"}, "R_8618": {"note_status": 0, "channel": 0, "note": 0, "velocity": 0, "time": 0, "type": "ResetMsg"}, "R_8619": {"note_status": 0, "channel": 0, "note": 0, "velocity": 0, "time": 0, "type": "ResetMsg"}, "U_8620": {"note_status": 0, "channel": 0, "note": 0, "velocity": 0, "time": 0, "type": "DummyType"}, "M_8621": {"note_status": 1, "channel": 5, "note": 57, "velocity": 117, "time": 0, "type": "NormalMsg"}, "M_8622": {"note_status": 1, "channel": 5, "note": 57, "velocity": 0, "time": 0, "type": "NormalMsg"}, "M_8623": {"note_status": 1, "channel": 5, "note": 57, "velocity": 113, "time": 0, "type": "NormalMsg"}, "M_8624": {"note_status": 1, "channel": 5, "note": 57, "velocity": 0, "time": 0, "type": "NormalMsg"}, "M_8625": {"note_status": 1, "channel": 5, "note": 60, "velocity": 117, "time": 0, "type": "NormalMsg"}, "M_8626": {"note_status": 1, "channel": 5, "note": 60, "velocity": 0, "time": 0, "type": "NormalMsg"}, "M_8627": {"note_status": 1, "channel": 5, "note": 57, "velocity": 117, "time": 0, "type": "NormalMsg"}, "M_8628": {"note_status": 1, "channel": 5, "note": 57, "velocity": 0, "time": 0, "type": "NormalMsg"}, "M_8629": {"note_status": 1, "channel": 5, "note": 53, "velocity": 117, "time": 0, "type": "NormalMsg"}, "M_8630": {"note_status": 1, "channel": 5, "note": 53, "velocity": 0, "time": 0, "type": "NormalMsg"}, "M_8631": {"note_status": 1, "channel": 5, "note": 53, "velocity": 108, "time": 0, "type": "NormalMsg"}, "M_8632": {"note_status": 1, "channel": 5, "note": 53, "velocity": 0, "time": 0, "type": "NormalMsg"}, "M_8633": {"note_status": 1, "channel": 5, "note": 57, "velocity": 122, "time": 0, "type": "NormalMsg"}, "M_8634": {"note_status": 1, "channel": 5, "note": 57, "velocity": 0, "time": 0, "type": "NormalMsg"}, "M_8635": {"note_status": 1, "channel": 5, "note": 53, "velocity": 122, "time": 0, "type": "NormalMsg"}, "M_8636": {"note_status": 1, "channel": 5, "note": 53, "velocity": 0, "time": 0, "type": "NormalMsg"}, "M_8637": {"note_status": 1, "channel": 5, "note": 50, "velocity": 113, "time": 0, "type": "NormalMsg"}, "M_8638": {"note_status": 1, "channel": 5, "note": 50, "velocity": 0, "time": 0, "type": "NormalMsg"}, "M_8639": {"note_status": 1, "channel": 5, "note": 50, "velocity": 104, "time": 0, "type": "NormalMsg"}, "M_8640": {"note_status": 1, "channel": 5, "note": 50, "velocity": 0, "time": 0, "type": "NormalMsg"}, "M_8641": {"note_status": 1, "channel": 5, "note": 53, "velocity": 113, "time": 0, "type": "NormalMsg"}, "M_8642": {"note_status": 1, "channel": 5, "note": 53, "velocity": 0, "time": 0, "type": "NormalMsg"}, "M_8643": {"note_status": 1, "channel": 5, "note": 50, "velocity": 101, "time": 0, "type": "NormalMsg"}, "M_8644": {"note_status": 1, "channel": 5, "note": 50, "velocity": 0, "time": 0, "type": "NormalMsg"}, "M_8645": {"note_status": 1, "channel": 5, "note": 55, "velocity": 113, "time": 0, "type": "NormalMsg"}, "M_8646": {"note_status": 1, "channel": 5, "note": 55, "velocity": 0, "time": 0, "type": "NormalMsg"}, "M_8647": {"note_status": 1, "channel": 5, "note": 55, "velocity": 113, "time": 0, "type": "NormalMsg"}, "M_8648": {"note_status": 1, "channel": 5, "note": 55, "velocity": 0, "time": 0, "type": "NormalMsg"}, "M_8649": {"note_status": 1, "channel": 5, "note": 59, "velocity": 113, "time": 0, "type": "NormalMsg"}, "M_8650": {"note_status": 1, "channel": 5, "note": 59, "velocity": 0, "time": 0, "type": "NormalMsg"}, "M_8651": {"note_status": 1, "channel": 5, "note": 55, "velocity": 113, "time": 0, "type": "NormalMsg"}, "M_8652": {"note_status": 1, "channel": 5, "note": 55, "velocity": 0, "time": 0, "type": "NormalMsg"}, "M_8653": {"note_status": 1, "channel": 5, "note": 57, "velocity": 117, "time": 0, "type": "NormalMsg"}, "M_8654": {"note_status": 1, "channel": 5, "note": 57, "velocity": 0, "time": 0, "type": "NormalMsg"}, "M_8655": {"note_status": 1, "channel": 5, "note": 57, "velocity": 108, "time": 0, "type": "NormalMsg"}, "M_8656": {"note_status": 1, "channel": 5, "note": 57, "velocity": 0, "time": 0, "type": "NormalMsg"}, "M_8657": {"note_status": 1, "channel": 5, "note": 60, "velocity": 117, "time": 0, "type": "NormalMsg"}, "M_8658": {"note_status": 1, "channel": 5, "note": 60, "velocity": 0, "time": 0, "type": "NormalMsg"}, "M_8659": {"note_status": 1, "channel": 5, "note": 57, "velocity": 113, "time": 0, "type": "NormalMsg"}, "M_8660": {"note_status": 1, "channel": 5, "note": 57, "velocity": 0, "time": 0, "type": "NormalMsg"}, "M_8661": {"note_status": 1, "channel": 5, "note": 53, "velocity": 122, "time": 0, "type": "NormalMsg"}, "M_8662": {"note_status": 1, "channel": 5, "note": 53, "velocity": 0, "time": 0, "type": "NormalMsg"}, "M_8663": {"note_status": 1, "channel": 5, "note": 53, "velocity": 117, "time": 0, "type": "NormalMsg"}, "M_8664": {"note_status": 1, "channel": 5, "note": 53, "velocity": 0, "time": 0, "type": "NormalMsg"}, "M_8665": {"note_status": 1, "channel": 5, "note": 57, "velocity": 122, "time": 0, "type": "NormalMsg"}, "M_8666": {"note_status": 1, "channel": 5, "note": 57, "velocity": 0, "time": 0, "type": "NormalMsg"}, "M_8667": {"note_status": 1, "channel": 5, "note": 53, "velocity": 122, "time": 0, "type": "NormalMsg"}, "M_8668": {"note_status": 1, "channel": 5, "note": 53, "velocity": 0, "time": 0, "type": "NormalMsg"}, "M_8669": {"note_status": 1, "channel": 5, "note": 50, "velocity": 122, "time": 0, "type": "NormalMsg"}, "M_8670": {"note_status": 1, "channel": 5, "note": 50, "velocity": 0, "time": 0, "type": "NormalMsg"}, "M_8671": {"note_status": 1, "channel": 5, "note": 50, "velocity": 113, "time": 0, "type": "NormalMsg"}, "M_8672": {"note_status": 1, "channel": 5, "note": 50, "velocity": 0, "time": 0, "type": "NormalMsg"}, "M_8673": {"note_status": 1, "channel": 5, "note": 53, "velocity": 113, "time": 0, "type": "NormalMsg"}, "M_8674": {"note_status": 1, "channel": 5, "note": 53, "velocity": 0, "time": 0, "type": "NormalMsg"}, "M_8675": {"note_status": 1, "channel": 5, "note": 50, "velocity": 108, "time": 0, "type": "NormalMsg"}, "M_8676": {"note_status": 1, "channel": 5, "note": 50, "velocity": 0, "time": 0, "type": "NormalMsg"}, "M_8677": {"note_status": 1, "channel": 5, "note": 55, "velocity": 113, "time": 0, "type": "NormalMsg"}, "M_8678": {"note_status": 1, "channel": 5, "note": 55, "velocity": 0, "time": 0, "type": "NormalMsg"}, "M_8679": {"note_status": 1, "channel": 5, "note": 55, "velocity": 117, "time": 0, "type": "NormalMsg"}, "M_8680": {"note_status": 1, "channel": 5, "note": 55, "velocity": 0, "time": 0, "type": "NormalMsg"}, "M_8681": {"note_status": 1, "channel": 5, "note": 59, "velocity": 113, "time": 0, "type": "NormalMsg"}, "M_8682": {"note_status": 1, "channel": 5, "note": 59, "velocity": 0, "time": 0, "type": "NormalMsg"}, "M_8683": {"note_status": 1, "channel": 5, "note": 55, "velocity": 117, "time": 0, "type": "NormalMsg"}, "M_8684": {"note_status": 1, "channel": 5, "note": 55, "velocity": 0, "time": 0, "type": "NormalMsg"}, "M_8685": {"note_status": 1, "channel": 5, "note": 57, "velocity": 117, "time": 0, "type": "NormalMsg"}, "M_8686": {"note_status": 1, "channel": 5, "note": 57, "velocity": 0, "time": 0, "type": "NormalMsg"}, "M_8687": {"note_status": 1, "channel": 5, "note": 57, "velocity": 113, "time": 0, "type": "NormalMsg"}, "M_8688": {"note_status": 1, "channel": 5, "note": 57, "velocity": 0, "time": 0, "type": "NormalMsg"}, "M_8689": {"note_status": 1, "channel": 5, "note": 60, "velocity": 117, "time": 0, "type": "NormalMsg"}, "M_8690": {"note_status": 1, "channel": 5, "note": 60, "velocity": 0, "time": 0, "type": "NormalMsg"}, "M_8691": {"note_status": 1, "channel": 5, "note": 57, "velocity": 117, "time": 0, "type": "NormalMsg"}, "M_8692": {"note_status": 1, "channel": 5, "note": 57, "velocity": 0, "time": 0, "type": "NormalMsg"}, "M_8693": {"note_status": 1, "channel": 5, "note": 53, "velocity": 117, "time": 0, "type": "NormalMsg"}, "M_8694": {"note_status": 1, "channel": 5, "note": 53, "velocity": 0, "time": 0, "type": "NormalMsg"}, "M_8695": {"note_status": 1, "channel": 5, "note": 53, "velocity": 108, "time": 0, "type": "NormalMsg"}, "M_8696": {"note_status": 1, "channel": 5, "note": 53, "velocity": 0, "time": 0, "type": "NormalMsg"}, "M_8697": {"note_status": 1, "channel": 5, "note": 57, "velocity": 122, "time": 0, "type": "NormalMsg"}, "M_8698": {"note_status": 1, "channel": 5, "note": 57, "velocity": 0, "time": 0, "type": "NormalMsg"}, "M_8699": {"note_status": 1, "channel": 5, "note": 53, "velocity": 122, "time": 0, "type": "NormalMsg"}, "M_8700": {"note_status": 1, "channel": 5, "note": 53, "velocity": 0, "time": 0, "type": "NormalMsg"}, "M_8701": {"note_status": 1, "channel": 5, "note": 50, "velocity": 113, "time": 0, "type": "NormalMsg"}, "M_8702": {"note_status": 1, "channel": 5, "note": 50, "velocity": 0, "time": 0, "type": "NormalMsg"}, "M_8703": {"note_status": 1, "channel": 5, "note": 50, "velocity": 104, "time": 0, "type": "NormalMsg"}, "M_8704": {"note_status": 1, "channel": 5, "note": 50, "velocity": 0, "time": 0, "type": "NormalMsg"}, "M_8705": {"note_status": 1, "channel": 5, "note": 53, "velocity": 113, "time": 0, "type": "NormalMsg"}, "M_8706": {"note_status": 1, "channel": 5, "note": 53, "velocity": 0, "time": 0, "type": "NormalMsg"}, "M_8707": {"note_status": 1, "channel": 5, "note": 50, "velocity": 101, "time": 0, "type": "NormalMsg"}, "M_8708": {"note_status": 1, "channel": 5, "note": 50, "velocity": 0, "time": 0, "type": "NormalMsg"}, "M_8709": {"note_status": 1, "channel": 5, "note": 55, "velocity": 113, "time": 0, "type": "NormalMsg"}, "M_8710": {"note_status": 1, "channel": 5, "note": 55, "velocity": 0, "time": 0, "type": "NormalMsg"}, "M_8711": {"note_status": 1, "channel": 5, "note": 55, "velocity": 113, "time": 0, "type": "NormalMsg"}, "M_8712": {"note_status": 1, "channel": 5, "note": 55, "velocity": 0, "time": 0, "type": "NormalMsg"}, "M_8713": {"note_status": 1, "channel": 5, "note": 59, "velocity": 113, "time": 0, "type": "NormalMsg"}, "M_8714": {"note_status": 1, "channel": 5, "note": 59, "velocity": 0, "time": 0, "type": "NormalMsg"}, "M_8715": {"note_status": 1, "channel": 5, "note": 55, "velocity": 113, "time": 0, "type": "NormalMsg"}, "M_8716": {"note_status": 1, "channel": 5, "note": 55, "velocity": 0, "time": 0, "type": "NormalMsg"}, "M_8717": {"note_status": 1, "channel": 5, "note": 57, "velocity": 117, "time": 0, "type": "NormalMsg"}, "M_8718": {"note_status": 1, "channel": 5, "note": 57, "velocity": 0, "time": 0, "type": "NormalMsg"}, "M_8719": {"note_status": 1, "channel": 5, "note": 57, "velocity": 108, "time": 0, "type": "NormalMsg"}, "M_8720": {"note_status": 1, "channel": 5, "note": 57, "velocity": 0, "time": 0, "type": "NormalMsg"}, "M_8721": {"note_status": 1, "channel": 5, "note": 60, "velocity": 117, "time": 0, "type": "NormalMsg"}, "M_8722": {"note_status": 1, "channel": 5, "note": 60, "velocity": 0, "time": 0, "type": "NormalMsg"}, "M_8723": {"note_status": 1, "channel": 5, "note": 57, "velocity": 113, "time": 0, "type": "NormalMsg"}, "M_8724": {"note_status": 1, "channel": 5, "note": 57, "velocity": 0, "time": 0, "type": "NormalMsg"}, "M_8725": {"note_status": 1, "channel": 5, "note": 53, "velocity": 122, "time": 0, "type": "NormalMsg"}, "M_8726": {"note_status": 1, "channel": 5, "note": 53, "velocity": 0, "time": 0, "type": "NormalMsg"}, "M_8727": {"note_status": 1, "channel": 5, "note": 53, "velocity": 117, "time": 0, "type": "NormalMsg"}, "M_8728": {"note_status": 1, "channel": 5, "note": 53, "velocity": 0, "time": 0, "type": "NormalMsg"}, "M_8729": {"note_status": 1, "channel": 5, "note": 57, "velocity": 122, "time": 0, "type": "NormalMsg"}, "M_8730": {"note_status": 1, "channel": 5, "note": 57, "velocity": 0, "time": 0, "type": "NormalMsg"}, "M_8731": {"note_status": 1, "channel": 5, "note": 53, "velocity": 122, "time": 0, "type": "NormalMsg"}, "M_8732": {"note_status": 1, "channel": 5, "note": 53, "velocity": 0, "time": 0, "type": "NormalMsg"}, "M_8733": {"note_status": 1, "channel": 5, "note": 50, "velocity": 122, "time": 0, "type": "NormalMsg"}, "M_8734": {"note_status": 1, "channel": 5, "note": 50, "velocity": 0, "time": 0, "type": "NormalMsg"}, "M_8735": {"note_status": 1, "channel": 5, "note": 50, "velocity": 113, "time": 0, "type": "NormalMsg"}, "M_8736": {"note_status": 1, "channel": 5, "note": 50, "velocity": 0, "time": 0, "type": "NormalMsg"}, "M_8737": {"note_status": 1, "channel": 5, "note": 53, "velocity": 113, "time": 0, "type": "NormalMsg"}, "M_8738": {"note_status": 1, "channel": 5, "note": 53, "velocity": 0, "time": 0, "type": "NormalMsg"}, "M_8739": {"note_status": 1, "channel": 5, "note": 50, "velocity": 108, "time": 0, "type": "NormalMsg"}, "M_8740": {"note_status": 1, "channel": 5, "note": 50, "velocity": 0, "time": 0, "type": "NormalMsg"}, "M_8741": {"note_status": 1, "channel": 5, "note": 55, "velocity": 113, "time": 0, "type": "NormalMsg"}, "M_8742": {"note_status": 1, "channel": 5, "note": 55, "velocity": 0, "time": 0, "type": "NormalMsg"}, "M_8743": {"note_status": 1, "channel": 5, "note": 55, "velocity": 117, "time": 0, "type": "NormalMsg"}, "M_8744": {"note_status": 1, "channel": 5, "note": 55, "velocity": 0, "time": 0, "type": "NormalMsg"}, "M_8745": {"note_status": 1, "channel": 5, "note": 59, "velocity": 113, "time": 0, "type": "NormalMsg"}, "M_8746": {"note_status": 1, "channel": 5, "note": 59, "velocity": 0, "time": 0, "type": "NormalMsg"}, "M_8747": {"note_status": 1, "channel": 5, "note": 55, "velocity": 117, "time": 0, "type": "NormalMsg"}, "M_8748": {"note_status": 1, "channel": 5, "note": 55, "velocity": 0, "time": 0, "type": "NormalMsg"}, "M_8749": {"note_status": 1, "channel": 5, "note": 57, "velocity": 117, "time": 0, "type": "NormalMsg"}, "M_8750": {"note_status": 1, "channel": 5, "note": 57, "velocity": 0, "time": 0, "type": "NormalMsg"}, "M_8751": {"note_status": 1, "channel": 5, "note": 57, "velocity": 113, "time": 0, "type": "NormalMsg"}, "M_8752": {"note_status": 1, "channel": 5, "note": 57, "velocity": 0, "time": 0, "type": "NormalMsg"}, "M_8753": {"note_status": 1, "channel": 5, "note": 60, "velocity": 117, "time": 0, "type": "NormalMsg"}, "M_8754": {"note_status": 1, "channel": 5, "note": 60, "velocity": 0, "time": 0, "type": "NormalMsg"}, "M_8755": {"note_status": 1, "channel": 5, "note": 57, "velocity": 117, "time": 0, "type": "NormalMsg"}, "M_8756": {"note_status": 1, "channel": 5, "note": 57, "velocity": 0, "time": 0, "type": "NormalMsg"}, "M_8757": {"note_status": 1, "channel": 5, "note": 53, "velocity": 117, "time": 0, "type": "NormalMsg"}, "M_8758": {"note_status": 1, "channel": 5, "note": 53, "velocity": 0, "time": 0, "type": "NormalMsg"}, "M_8759": {"note_status": 1, "channel": 5, "note": 53, "velocity": 108, "time": 0, "type": "NormalMsg"}, "M_8760": {"note_status": 1, "channel": 5, "note": 53, "velocity": 0, "time": 0, "type": "NormalMsg"}, "M_8761": {"note_status": 1, "channel": 5, "note": 57, "velocity": 122, "time": 0, "type": "NormalMsg"}, "M_8762": {"note_status": 1, "channel": 5, "note": 57, "velocity": 0, "time": 0, "type": "NormalMsg"}, "M_8763": {"note_status": 1, "channel": 5, "note": 53, "velocity": 122, "time": 0, "type": "NormalMsg"}, "M_8764": {"note_status": 1, "channel": 5, "note": 53, "velocity": 0, "time": 0, "type": "NormalMsg"}, "M_8765": {"note_status": 1, "channel": 5, "note": 50, "velocity": 113, "time": 0, "type": "NormalMsg"}, "M_8766": {"note_status": 1, "channel": 5, "note": 50, "velocity": 0, "time": 0, "type": "NormalMsg"}, "M_8767": {"note_status": 1, "channel": 5, "note": 50, "velocity": 104, "time": 0, "type": "NormalMsg"}, "M_8768": {"note_status": 1, "channel": 5, "note": 50, "velocity": 0, "time": 0, "type": "NormalMsg"}, "M_8769": {"note_status": 1, "channel": 5, "note": 53, "velocity": 113, "time": 0, "type": "NormalMsg"}, "M_8770": {"note_status": 1, "channel": 5, "note": 53, "velocity": 0, "time": 0, "type": "NormalMsg"}, "M_8771": {"note_status": 1, "channel": 5, "note": 50, "velocity": 101, "time": 0, "type": "NormalMsg"}, "M_8772": {"note_status": 1, "channel": 5, "note": 50, "velocity": 0, "time": 0, "type": "NormalMsg"}, "M_8773": {"note_status": 1, "channel": 5, "note": 55, "velocity": 113, "time": 0, "type": "NormalMsg"}, "M_8774": {"note_status": 1, "channel": 5, "note": 55, "velocity": 0, "time": 0, "type": "NormalMsg"}, "M_8775": {"note_status": 1, "channel": 5, "note": 55, "velocity": 113, "time": 0, "type": "NormalMsg"}, "M_8776": {"note_status": 1, "channel": 5, "note": 55, "velocity": 0, "time": 0, "type": "NormalMsg"}, "M_8777": {"note_status": 1, "channel": 5, "note": 59, "velocity": 113, "time": 0, "type": "NormalMsg"}, "M_8778": {"note_status": 1, "channel": 5, "note": 59, "velocity": 0, "time": 0, "type": "NormalMsg"}, "M_8779": {"note_status": 1, "channel": 5, "note": 55, "velocity": 113, "time": 0, "type": "NormalMsg"}, "M_8780": {"note_status": 1, "channel": 5, "note": 55, "velocity": 0, "time": 0, "type": "NormalMsg"}, "M_8781": {"note_status": 1, "channel": 5, "note": 57, "velocity": 117, "time": 0, "type": "NormalMsg"}, "M_8782": {"note_status": 1, "channel": 5, "note": 57, "velocity": 0, "time": 0, "type": "NormalMsg"}, "M_8783": {"note_status": 1, "channel": 5, "note": 57, "velocity": 108, "time": 0, "type": "NormalMsg"}, "M_8784": {"note_status": 1, "channel": 5, "note": 57, "velocity": 0, "time": 0, "type": "NormalMsg"}, "M_8785": {"note_status": 1, "channel": 5, "note": 60, "velocity": 117, "time": 0, "type": "NormalMsg"}, "M_8786": {"note_status": 1, "channel": 5, "note": 60, "velocity": 0, "time": 0, "type": "NormalMsg"}, "M_8787": {"note_status": 1, "channel": 5, "note": 57, "velocity": 113, "time": 0, "type": "NormalMsg"}, "M_8788": {"note_status": 1, "channel": 5, "note": 57, "velocity": 0, "time": 0, "type": "NormalMsg"}, "M_8789": {"note_status": 1, "channel": 5, "note": 53, "velocity": 122, "time": 0, "type": "NormalMsg"}, "M_8790": {"note_status": 1, "channel": 5, "note": 53, "velocity": 0, "time": 0, "type": "NormalMsg"}, "M_8791": {"note_status": 1, "channel": 5, "note": 53, "velocity": 117, "time": 0, "type": "NormalMsg"}, "M_8792": {"note_status": 1, "channel": 5, "note": 53, "velocity": 0, "time": 0, "type": "NormalMsg"}, "M_8793": {"note_status": 1, "channel": 5, "note": 57, "velocity": 122, "time": 0, "type": "NormalMsg"}, "M_8794": {"note_status": 1, "channel": 5, "note": 57, "velocity": 0, "time": 0, "type": "NormalMsg"}, "M_8795": {"note_status": 1, "channel": 5, "note": 53, "velocity": 122, "time": 0, "type": "NormalMsg"}, "M_8796": {"note_status": 1, "channel": 5, "note": 53, "velocity": 0, "time": 0, "type": "NormalMsg"}, "M_8797": {"note_status": 1, "channel": 5, "note": 50, "velocity": 122, "time": 0, "type": "NormalMsg"}, "M_8798": {"note_status": 1, "channel": 5, "note": 50, "velocity": 0, "time": 0, "type": "NormalMsg"}, "M_8799": {"note_status": 1, "channel": 5, "note": 50, "velocity": 113, "time": 0, "type": "NormalMsg"}, "M_8800": {"note_status": 1, "channel": 5, "note": 50, "velocity": 0, "time": 0, "type": "NormalMsg"}, "M_8801": {"note_status": 1, "channel": 5, "note": 53, "velocity": 113, "time": 0, "type": "NormalMsg"}, "M_8802": {"note_status": 1, "channel": 5, "note": 53, "velocity": 0, "time": 0, "type": "NormalMsg"}, "M_8803": {"note_status": 1, "channel": 5, "note": 50, "velocity": 108, "time": 0, "type": "NormalMsg"}, "M_8804": {"note_status": 1, "channel": 5, "note": 50, "velocity": 0, "time": 0, "type": "NormalMsg"}, "M_8805": {"note_status": 1, "channel": 5, "note": 55, "velocity": 113, "time": 0, "type": "NormalMsg"}, "M_8806": {"note_status": 1, "channel": 5, "note": 55, "velocity": 0, "time": 0, "type": "NormalMsg"}, "M_8807": {"note_status": 1, "channel": 5, "note": 55, "velocity": 117, "time": 0, "type": "NormalMsg"}, "M_8808": {"note_status": 1, "channel": 5, "note": 55, "velocity": 0, "time": 0, "type": "NormalMsg"}, "M_8809": {"note_status": 1, "channel": 5, "note": 59, "velocity": 113, "time": 0, "type": "NormalMsg"}, "M_8810": {"note_status": 1, "channel": 5, "note": 59, "velocity": 0, "time": 0, "type": "NormalMsg"}, "M_8811": {"note_status": 1, "channel": 5, "note": 55, "velocity": 117, "time": 0, "type": "NormalMsg"}, "M_8812": {"note_status": 1, "channel": 5, "note": 55, "velocity": 0, "time": 0, "type": "NormalMsg"}, "M_8813": {"note_status": 1, "channel": 5, "note": 57, "velocity": 117, "time": 0, "type": "NormalMsg"}, "M_8814": {"note_status": 1, "channel": 5, "note": 57, "velocity": 0, "time": 0, "type": "NormalMsg"}, "M_8815": {"note_status": 1, "channel": 5, "note": 57, "velocity": 113, "time": 0, "type": "NormalMsg"}, "M_8816": {"note_status": 1, "channel": 5, "note": 57, "velocity": 0, "time": 0, "type": "NormalMsg"}, "M_8817": {"note_status": 1, "channel": 5, "note": 60, "velocity": 117, "time": 0, "type": "NormalMsg"}, "M_8818": {"note_status": 1, "channel": 5, "note": 60, "velocity": 0, "time": 0, "type": "NormalMsg"}, "M_8819": {"note_status": 1, "channel": 5, "note": 57, "velocity": 117, "time": 0, "type": "NormalMsg"}, "M_8820": {"note_status": 1, "channel": 5, "note": 57, "velocity": 0, "time": 0, "type": "NormalMsg"}, "M_8821": {"note_status": 1, "channel": 5, "note": 53, "velocity": 117, "time": 0, "type": "NormalMsg"}, "M_8822": {"note_status": 1, "channel": 5, "note": 53, "velocity": 0, "time": 0, "type": "NormalMsg"}, "M_8823": {"note_status": 1, "channel": 5, "note": 53, "velocity": 108, "time": 0, "type": "NormalMsg"}, "M_8824": {"note_status": 1, "channel": 5, "note": 53, "velocity": 0, "time": 0, "type": "NormalMsg"}, "M_8825": {"note_status": 1, "channel": 5, "note": 57, "velocity": 122, "time": 0, "type": "NormalMsg"}, "M_8826": {"note_status": 1, "channel": 5, "note": 57, "velocity": 0, "time": 0, "type": "NormalMsg"}, "M_8827": {"note_status": 1, "channel": 5, "note": 53, "velocity": 122, "time": 0, "type": "NormalMsg"}, "M_8828": {"note_status": 1, "channel": 5, "note": 53, "velocity": 0, "time": 0, "type": "NormalMsg"}, "M_8829": {"note_status": 1, "channel": 5, "note": 50, "velocity": 113, "time": 0, "type": "NormalMsg"}, "M_8830": {"note_status": 1, "channel": 5, "note": 50, "velocity": 0, "time": 0, "type": "NormalMsg"}, "M_8831": {"note_status": 1, "channel": 5, "note": 50, "velocity": 104, "time": 0, "type": "NormalMsg"}, "M_8832": {"note_status": 1, "channel": 5, "note": 50, "velocity": 0, "time": 0, "type": "NormalMsg"}, "M_8833": {"note_status": 1, "channel": 5, "note": 53, "velocity": 113, "time": 0, "type": "NormalMsg"}, "M_8834": {"note_status": 1, "channel": 5, "note": 53, "velocity": 0, "time": 0, "type": "NormalMsg"}, "M_8835": {"note_status": 1, "channel": 5, "note": 50, "velocity": 101, "time": 0, "type": "NormalMsg"}, "M_8836": {"note_status": 1, "channel": 5, "note": 50, "velocity": 0, "time": 0, "type": "NormalMsg"}, "M_8837": {"note_status": 1, "channel": 5, "note": 55, "velocity": 113, "time": 0, "type": "NormalMsg"}, "M_8838": {"note_status": 1, "channel": 5, "note": 55, "velocity": 0, "time": 0, "type": "NormalMsg"}, "M_8839": {"note_status": 1, "channel": 5, "note": 55, "velocity": 113, "time": 0, "type": "NormalMsg"}, "M_8840": {"note_status": 1, "channel": 5, "note": 55, "velocity": 0, "time": 0, "type": "NormalMsg"}, "M_8841": {"note_status": 1, "channel": 5, "note": 59, "velocity": 113, "time": 0, "type": "NormalMsg"}, "M_8842": {"note_status": 1, "channel": 5, "note": 59, "velocity": 0, "time": 0, "type": "NormalMsg"}, "M_8843": {"note_status": 1, "channel": 5, "note": 55, "velocity": 113, "time": 0, "type": "NormalMsg"}, "M_8844": {"note_status": 1, "channel": 5, "note": 55, "velocity": 0, "time": 0, "type": "NormalMsg"}, "M_8845": {"note_status": 1, "channel": 5, "note": 57, "velocity": 117, "time": 0, "type": "NormalMsg"}, "M_8846": {"note_status": 1, "channel": 5, "note": 57, "velocity": 0, "time": 0, "type": "NormalMsg"}, "M_8847": {"note_status": 1, "channel": 5, "note": 57, "velocity": 108, "time": 0, "type": "NormalMsg"}, "M_8848": {"note_status": 1, "channel": 5, "note": 57, "velocity": 0, "time": 0, "type": "NormalMsg"}, "M_8849": {"note_status": 1, "channel": 5, "note": 60, "velocity": 117, "time": 0, "type": "NormalMsg"}, "M_8850": {"note_status": 1, "channel": 5, "note": 60, "velocity": 0, "time": 0, "type": "NormalMsg"}, "M_8851": {"note_status": 1, "channel": 5, "note": 57, "velocity": 113, "time": 0, "type": "NormalMsg"}, "M_8852": {"note_status": 1, "channel": 5, "note": 57, "velocity": 0, "time": 0, "type": "NormalMsg"}, "M_8853": {"note_status": 1, "channel": 5, "note": 53, "velocity": 122, "time": 0, "type": "NormalMsg"}, "M_8854": {"note_status": 1, "channel": 5, "note": 53, "velocity": 0, "time": 0, "type": "NormalMsg"}, "M_8855": {"note_status": 1, "channel": 5, "note": 53, "velocity": 117, "time": 0, "type": "NormalMsg"}, "M_8856": {"note_status": 1, "channel": 5, "note": 53, "velocity": 0, "time": 0, "type": "NormalMsg"}, "M_8857": {"note_status": 1, "channel": 5, "note": 57, "velocity": 122, "time": 0, "type": "NormalMsg"}, "M_8858": {"note_status": 1, "channel": 5, "note": 57, "velocity": 0, "time": 0, "type": "NormalMsg"}, "M_8859": {"note_status": 1, "channel": 5, "note": 53, "velocity": 122, "time": 0, "type": "NormalMsg"}, "M_8860": {"note_status": 1, "channel": 5, "note": 53, "velocity": 0, "time": 0, "type": "NormalMsg"}, "M_8861": {"note_status": 1, "channel": 5, "note": 50, "velocity": 122, "time": 0, "type": "NormalMsg"}, "M_8862": {"note_status": 1, "channel": 5, "note": 50, "velocity": 0, "time": 0, "type": "NormalMsg"}, "M_8863": {"note_status": 1, "channel": 5, "note": 50, "velocity": 113, "time": 0, "type": "NormalMsg"}, "M_8864": {"note_status": 1, "channel": 5, "note": 50, "velocity": 0, "time": 0, "type": "NormalMsg"}, "M_8865": {"note_status": 1, "channel": 5, "note": 53, "velocity": 113, "time": 0, "type": "NormalMsg"}, "M_8866": {"note_status": 1, "channel": 5, "note": 53, "velocity": 0, "time": 0, "type": "NormalMsg"}, "M_8867": {"note_status": 1, "channel": 5, "note": 50, "velocity": 108, "time": 0, "type": "NormalMsg"}, "M_8868": {"note_status": 1, "channel": 5, "note": 50, "velocity": 0, "time": 0, "type": "NormalMsg"}, "M_8869": {"note_status": 1, "channel": 5, "note": 55, "velocity": 113, "time": 0, "type": "NormalMsg"}, "M_8870": {"note_status": 1, "channel": 5, "note": 55, "velocity": 0, "time": 0, "type": "NormalMsg"}, "M_8871": {"note_status": 1, "channel": 5, "note": 55, "velocity": 117, "time": 0, "type": "NormalMsg"}, "M_8872": {"note_status": 1, "channel": 5, "note": 55, "velocity": 0, "time": 0, "type": "NormalMsg"}, "M_8873": {"note_status": 1, "channel": 5, "note": 59, "velocity": 113, "time": 0, "type": "NormalMsg"}, "M_8874": {"note_status": 1, "channel": 5, "note": 59, "velocity": 0, "time": 0, "type": "NormalMsg"}, "M_8875": {"note_status": 1, "channel": 5, "note": 55, "velocity": 117, "time": 0, "type": "NormalMsg"}, "M_8876": {"note_status": 1, "channel": 5, "note": 55, "velocity": 0, "time": 0, "type": "NormalMsg"}, "M_8877": {"note_status": 1, "channel": 5, "note": 57, "velocity": 117, "time": 0, "type": "NormalMsg"}, "M_8878": {"note_status": 1, "channel": 5, "note": 57, "velocity": 0, "time": 0, "type": "NormalMsg"}, "M_8879": {"note_status": 1, "channel": 5, "note": 57, "velocity": 113, "time": 0, "type": "NormalMsg"}, "M_8880": {"note_status": 1, "channel": 5, "note": 57, "velocity": 0, "time": 0, "type": "NormalMsg"}, "M_8881": {"note_status": 1, "channel": 5, "note": 60, "velocity": 117, "time": 0, "type": "NormalMsg"}, "M_8882": {"note_status": 1, "channel": 5, "note": 60, "velocity": 0, "time": 0, "type": "NormalMsg"}, "M_8883": {"note_status": 1, "channel": 5, "note": 57, "velocity": 117, "time": 0, "type": "NormalMsg"}, "M_8884": {"note_status": 1, "channel": 5, "note": 57, "velocity": 0, "time": 0, "type": "NormalMsg"}, "M_8885": {"note_status": 1, "channel": 5, "note": 53, "velocity": 117, "time": 0, "type": "NormalMsg"}, "M_8886": {"note_status": 1, "channel": 5, "note": 53, "velocity": 0, "time": 0, "type": "NormalMsg"}, "M_8887": {"note_status": 1, "channel": 5, "note": 53, "velocity": 108, "time": 0, "type": "NormalMsg"}, "M_8888": {"note_status": 1, "channel": 5, "note": 53, "velocity": 0, "time": 0, "type": "NormalMsg"}, "M_8889": {"note_status": 1, "channel": 5, "note": 57, "velocity": 122, "time": 0, "type": "NormalMsg"}, "M_8890": {"note_status": 1, "channel": 5, "note": 57, "velocity": 0, "time": 0, "type": "NormalMsg"}, "M_8891": {"note_status": 1, "channel": 5, "note": 53, "velocity": 122, "time": 0, "type": "NormalMsg"}, "M_8892": {"note_status": 1, "channel": 5, "note": 53, "velocity": 0, "time": 0, "type": "NormalMsg"}, "M_8893": {"note_status": 1, "channel": 5, "note": 50, "velocity": 113, "time": 0, "type": "NormalMsg"}, "M_8894": {"note_status": 1, "channel": 5, "note": 50, "velocity": 0, "time": 0, "type": "NormalMsg"}, "M_8895": {"note_status": 1, "channel": 5, "note": 50, "velocity": 104, "time": 0, "type": "NormalMsg"}, "M_8896": {"note_status": 1, "channel": 5, "note": 50, "velocity": 0, "time": 0, "type": "NormalMsg"}, "M_8897": {"note_status": 1, "channel": 5, "note": 53, "velocity": 113, "time": 0, "type": "NormalMsg"}, "M_8898": {"note_status": 1, "channel": 5, "note": 53, "velocity": 0, "time": 0, "type": "NormalMsg"}, "M_8899": {"note_status": 1, "channel": 5, "note": 50, "velocity": 101, "time": 0, "type": "NormalMsg"}, "M_8900": {"note_status": 1, "channel": 5, "note": 50, "velocity": 0, "time": 0, "type": "NormalMsg"}, "M_8901": {"note_status": 1, "channel": 5, "note": 55, "velocity": 113, "time": 0, "type": "NormalMsg"}, "M_8902": {"note_status": 1, "channel": 5, "note": 55, "velocity": 0, "time": 0, "type": "NormalMsg"}, "M_8903": {"note_status": 1, "channel": 5, "note": 55, "velocity": 113, "time": 0, "type": "NormalMsg"}, "M_8904": {"note_status": 1, "channel": 5, "note": 55, "velocity": 0, "time": 0, "type": "NormalMsg"}, "M_8905": {"note_status": 1, "channel": 5, "note": 59, "velocity": 113, "time": 0, "type": "NormalMsg"}, "M_8906": {"note_status": 1, "channel": 5, "note": 59, "velocity": 0, "time": 0, "type": "NormalMsg"}, "M_8907": {"note_status": 1, "channel": 5, "note": 55, "velocity": 113, "time": 0, "type": "NormalMsg"}, "M_8908": {"note_status": 1, "channel": 5, "note": 55, "velocity": 0, "time": 0, "type": "NormalMsg"}, "M_8909": {"note_status": 1, "channel": 5, "note": 57, "velocity": 117, "time": 0, "type": "NormalMsg"}, "M_8910": {"note_status": 1, "channel": 5, "note": 57, "velocity": 0, "time": 0, "type": "NormalMsg"}, "M_8911": {"note_status": 1, "channel": 5, "note": 57, "velocity": 108, "time": 0, "type": "NormalMsg"}, "M_8912": {"note_status": 1, "channel": 5, "note": 57, "velocity": 0, "time": 0, "type": "NormalMsg"}, "M_8913": {"note_status": 1, "channel": 5, "note": 60, "velocity": 117, "time": 0, "type": "NormalMsg"}, "M_8914": {"note_status": 1, "channel": 5, "note": 60, "velocity": 0, "time": 0, "type": "NormalMsg"}, "M_8915": {"note_status": 1, "channel": 5, "note": 57, "velocity": 113, "time": 0, "type": "NormalMsg"}, "M_8916": {"note_status": 1, "channel": 5, "note": 57, "velocity": 0, "time": 0, "type": "NormalMsg"}, "M_8917": {"note_status": 1, "channel": 5, "note": 53, "velocity": 122, "time": 0, "type": "NormalMsg"}, "M_8918": {"note_status": 1, "channel": 5, "note": 53, "velocity": 0, "time": 0, "type": "NormalMsg"}, "M_8919": {"note_status": 1, "channel": 5, "note": 53, "velocity": 117, "time": 0, "type": "NormalMsg"}, "M_8920": {"note_status": 1, "channel": 5, "note": 53, "velocity": 0, "time": 0, "type": "NormalMsg"}, "M_8921": {"note_status": 1, "channel": 5, "note": 57, "velocity": 122, "time": 0, "type": "NormalMsg"}, "M_8922": {"note_status": 1, "channel": 5, "note": 57, "velocity": 0, "time": 0, "type": "NormalMsg"}, "M_8923": {"note_status": 1, "channel": 5, "note": 53, "velocity": 122, "time": 0, "type": "NormalMsg"}, "M_8924": {"note_status": 1, "channel": 5, "note": 53, "velocity": 0, "time": 0, "type": "NormalMsg"}, "M_8925": {"note_status": 1, "channel": 5, "note": 55, "velocity": 122, "time": 0, "type": "NormalMsg"}, "M_8926": {"note_status": 1, "channel": 5, "note": 55, "velocity": 0, "time": 0, "type": "NormalMsg"}, "M_8927": {"note_status": 1, "channel": 5, "note": 55, "velocity": 113, "time": 0, "type": "NormalMsg"}, "M_8928": {"note_status": 1, "channel": 5, "note": 55, "velocity": 0, "time": 0, "type": "NormalMsg"}, "M_8929": {"note_status": 1, "channel": 5, "note": 59, "velocity": 113, "time": 0, "type": "NormalMsg"}, "M_8930": {"note_status": 1, "channel": 5, "note": 59, "velocity": 0, "time": 0, "type": "NormalMsg"}, "M_8931": {"note_status": 1, "channel": 5, "note": 55, "velocity": 108, "time": 0, "type": "NormalMsg"}, "M_8932": {"note_status": 1, "channel": 5, "note": 55, "velocity": 0, "time": 0, "type": "NormalMsg"}, "M_8933": {"note_status": 1, "channel": 5, "note": 52, "velocity": 113, "time": 0, "type": "NormalMsg"}, "M_8934": {"note_status": 1, "channel": 5, "note": 52, "velocity": 0, "time": 0, "type": "NormalMsg"}, "M_8935": {"note_status": 1, "channel": 5, "note": 52, "velocity": 117, "time": 0, "type": "NormalMsg"}, "M_8936": {"note_status": 1, "channel": 5, "note": 52, "velocity": 0, "time": 0, "type": "NormalMsg"}, "M_8937": {"note_status": 1, "channel": 5, "note": 55, "velocity": 113, "time": 0, "type": "NormalMsg"}, "M_8938": {"note_status": 1, "channel": 5, "note": 55, "velocity": 0, "time": 0, "type": "NormalMsg"}, "M_8939": {"note_status": 1, "channel": 5, "note": 52, "velocity": 117, "time": 0, "type": "NormalMsg"}, "M_8940": {"note_status": 1, "channel": 5, "note": 52, "velocity": 0, "time": 0, "type": "NormalMsg"}, "M_8941": {"note_status": 1, "channel": 5, "note": 57, "velocity": 117, "time": 0, "type": "NormalMsg"}, "M_8942": {"note_status": 1, "channel": 5, "note": 57, "velocity": 0, "time": 0, "type": "NormalMsg"}, "M_8943": {"note_status": 1, "channel": 5, "note": 57, "velocity": 113, "time": 0, "type": "NormalMsg"}, "M_8944": {"note_status": 1, "channel": 5, "note": 57, "velocity": 0, "time": 0, "type": "NormalMsg"}, "M_8945": {"note_status": 1, "channel": 5, "note": 60, "velocity": 117, "time": 0, "type": "NormalMsg"}, "M_8946": {"note_status": 1, "channel": 5, "note": 60, "velocity": 0, "time": 0, "type": "NormalMsg"}, "M_8947": {"note_status": 1, "channel": 5, "note": 57, "velocity": 117, "time": 0, "type": "NormalMsg"}, "M_8948": {"note_status": 1, "channel": 5, "note": 57, "velocity": 0, "time": 0, "type": "NormalMsg"}, "M_8949": {"note_status": 1, "channel": 5, "note": 53, "velocity": 117, "time": 0, "type": "NormalMsg"}, "M_8950": {"note_status": 1, "channel": 5, "note": 53, "velocity": 0, "time": 0, "type": "NormalMsg"}, "M_8951": {"note_status": 1, "channel": 5, "note": 53, "velocity": 108, "time": 0, "type": "NormalMsg"}, "M_8952": {"note_status": 1, "channel": 5, "note": 53, "velocity": 0, "time": 0, "type": "NormalMsg"}, "M_8953": {"note_status": 1, "channel": 5, "note": 57, "velocity": 122, "time": 0, "type": "NormalMsg"}, "M_8954": {"note_status": 1, "channel": 5, "note": 57, "velocity": 0, "time": 0, "type": "NormalMsg"}, "M_8955": {"note_status": 1, "channel": 5, "note": 53, "velocity": 122, "time": 0, "type": "NormalMsg"}, "M_8956": {"note_status": 1, "channel": 5, "note": 53, "velocity": 0, "time": 0, "type": "NormalMsg"}, "M_8957": {"note_status": 1, "channel": 5, "note": 50, "velocity": 113, "time": 0, "type": "NormalMsg"}, "M_8958": {"note_status": 1, "channel": 5, "note": 50, "velocity": 0, "time": 0, "type": "NormalMsg"}, "M_8959": {"note_status": 1, "channel": 5, "note": 50, "velocity": 104, "time": 0, "type": "NormalMsg"}, "M_8960": {"note_status": 1, "channel": 5, "note": 50, "velocity": 0, "time": 0, "type": "NormalMsg"}, "M_8961": {"note_status": 1, "channel": 5, "note": 53, "velocity": 113, "time": 0, "type": "NormalMsg"}, "M_8962": {"note_status": 1, "channel": 5, "note": 53, "velocity": 0, "time": 0, "type": "NormalMsg"}, "M_8963": {"note_status": 1, "channel": 5, "note": 50, "velocity": 101, "time": 0, "type": "NormalMsg"}, "M_8964": {"note_status": 1, "channel": 5, "note": 50, "velocity": 0, "time": 0, "type": "NormalMsg"}, "M_8965": {"note_status": 1, "channel": 5, "note": 55, "velocity": 113, "time": 0, "type": "NormalMsg"}, "M_8966": {"note_status": 1, "channel": 5, "note": 55, "velocity": 0, "time": 0, "type": "NormalMsg"}, "M_8967": {"note_status": 1, "channel": 5, "note": 55, "velocity": 113, "time": 0, "type": "NormalMsg"}, "M_8968": {"note_status": 1, "channel": 5, "note": 55, "velocity": 0, "time": 0, "type": "NormalMsg"}, "M_8969": {"note_status": 1, "channel": 5, "note": 59, "velocity": 113, "time": 0, "type": "NormalMsg"}, "M_8970": {"note_status": 1, "channel": 5, "note": 59, "velocity": 0, "time": 0, "type": "NormalMsg"}, "M_8971": {"note_status": 1, "channel": 5, "note": 55, "velocity": 113, "time": 0, "type": "NormalMsg"}, "M_8972": {"note_status": 1, "channel": 5, "note": 55, "velocity": 0, "time": 0, "type": "NormalMsg"}, "M_8973": {"note_status": 1, "channel": 5, "note": 57, "velocity": 117, "time": 0, "type": "NormalMsg"}, "M_8974": {"note_status": 1, "channel": 5, "note": 57, "velocity": 0, "time": 0, "type": "NormalMsg"}, "M_8975": {"note_status": 1, "channel": 5, "note": 57, "velocity": 108, "time": 0, "type": "NormalMsg"}, "M_8976": {"note_status": 1, "channel": 5, "note": 57, "velocity": 0, "time": 0, "type": "NormalMsg"}, "M_8977": {"note_status": 1, "channel": 5, "note": 60, "velocity": 117, "time": 0, "type": "NormalMsg"}, "M_8978": {"note_status": 1, "channel": 5, "note": 60, "velocity": 0, "time": 0, "type": "NormalMsg"}, "M_8979": {"note_status": 1, "channel": 5, "note": 57, "velocity": 113, "time": 0, "type": "NormalMsg"}, "M_8980": {"note_status": 1, "channel": 5, "note": 57, "velocity": 0, "time": 0, "type": "NormalMsg"}, "M_8981": {"note_status": 1, "channel": 5, "note": 53, "velocity": 122, "time": 0, "type": "NormalMsg"}, "M_8982": {"note_status": 1, "channel": 5, "note": 53, "velocity": 0, "time": 0, "type": "NormalMsg"}, "M_8983": {"note_status": 1, "channel": 5, "note": 53, "velocity": 117, "time": 0, "type": "NormalMsg"}, "M_8984": {"note_status": 1, "channel": 5, "note": 53, "velocity": 0, "time": 0, "type": "NormalMsg"}, "M_8985": {"note_status": 1, "channel": 5, "note": 57, "velocity": 122, "time": 0, "type": "NormalMsg"}, "M_8986": {"note_status": 1, "channel": 5, "note": 57, "velocity": 0, "time": 0, "type": "NormalMsg"}, "M_8987": {"note_status": 1, "channel": 5, "note": 53, "velocity": 122, "time": 0, "type": "NormalMsg"}, "M_8988": {"note_status": 1, "channel": 5, "note": 53, "velocity": 0, "time": 0, "type": "NormalMsg"}, "M_8989": {"note_status": 1, "channel": 5, "note": 50, "velocity": 122, "time": 0, "type": "NormalMsg"}, "M_8990": {"note_status": 1, "channel": 5, "note": 50, "velocity": 0, "time": 0, "type": "NormalMsg"}, "M_8991": {"note_status": 1, "channel": 5, "note": 50, "velocity": 113, "time": 0, "type": "NormalMsg"}, "M_8992": {"note_status": 1, "channel": 5, "note": 50, "velocity": 0, "time": 0, "type": "NormalMsg"}, "M_8993": {"note_status": 1, "channel": 5, "note": 53, "velocity": 113, "time": 0, "type": "NormalMsg"}, "M_8994": {"note_status": 1, "channel": 5, "note": 53, "velocity": 0, "time": 0, "type": "NormalMsg"}, "M_8995": {"note_status": 1, "channel": 5, "note": 50, "velocity": 108, "time": 0, "type": "NormalMsg"}, "M_8996": {"note_status": 1, "channel": 5, "note": 50, "velocity": 0, "time": 0, "type": "NormalMsg"}, "M_8997": {"note_status": 1, "channel": 5, "note": 55, "velocity": 113, "time": 0, "type": "NormalMsg"}, "M_8998": {"note_status": 1, "channel": 5, "note": 55, "velocity": 0, "time": 0, "type": "NormalMsg"}, "M_8999": {"note_status": 1, "channel": 5, "note": 55, "velocity": 117, "time": 0, "type": "NormalMsg"}, "M_9000": {"note_status": 1, "channel": 5, "note": 55, "velocity": 0, "time": 0, "type": "NormalMsg"}, "M_9001": {"note_status": 1, "channel": 5, "note": 59, "velocity": 113, "time": 0, "type": "NormalMsg"}, "M_9002": {"note_status": 1, "channel": 5, "note": 59, "velocity": 0, "time": 0, "type": "NormalMsg"}, "M_9003": {"note_status": 1, "channel": 5, "note": 55, "velocity": 117, "time": 0, "type": "NormalMsg"}, "M_9004": {"note_status": 1, "channel": 5, "note": 55, "velocity": 0, "time": 0, "type": "NormalMsg"}, "M_9005": {"note_status": 1, "channel": 5, "note": 65, "velocity": 113, "time": 0, "type": "NormalMsg"}, "M_9006": {"note_status": 1, "channel": 5, "note": 69, "velocity": 113, "time": 0, "type": "NormalMsg"}, "M_9007": {"note_status": 1, "channel": 5, "note": 72, "velocity": 108, "time": 0, "type": "NormalMsg"}, "M_9008": {"note_status": 1, "channel": 5, "note": 65, "velocity": 0, "time": 0, "type": "NormalMsg"}, "M_9009": {"note_status": 1, "channel": 5, "note": 69, "velocity": 0, "time": 0, "type": "NormalMsg"}, "M_9010": {"note_status": 1, "channel": 5, "note": 72, "velocity": 0, "time": 0, "type": "NormalMsg"}, "M_9011": {"note_status": 1, "channel": 5, "note": 67, "velocity": 94, "time": 0, "type": "NormalMsg"}, "M_9012": {"note_status": 1, "channel": 5, "note": 71, "velocity": 113, "time": 0, "type": "NormalMsg"}, "M_9013": {"note_status": 1, "channel": 5, "note": 74, "velocity": 117, "time": 0, "type": "NormalMsg"}, "M_9014": {"note_status": 1, "channel": 5, "note": 71, "velocity": 0, "time": 0, "type": "NormalMsg"}, "M_9015": {"note_status": 1, "channel": 5, "note": 74, "velocity": 0, "time": 0, "type": "NormalMsg"}, "M_9016": {"note_status": 1, "channel": 5, "note": 67, "velocity": 0, "time": 0, "type": "NormalMsg"}, "M_9017": {"note_status": 1, "channel": 5, "note": 65, "velocity": 104, "time": 0, "type": "NormalMsg"}, "M_9018": {"note_status": 1, "channel": 5, "note": 69, "velocity": 117, "time": 0, "type": "NormalMsg"}, "M_9019": {"note_status": 1, "channel": 5, "note": 72, "velocity": 113, "time": 0, "type": "NormalMsg"}, "M_9020": {"note_status": 1, "channel": 5, "note": 65, "velocity": 0, "time": 0, "type": "NormalMsg"}, "M_9021": {"note_status": 1, "channel": 5, "note": 69, "velocity": 0, "time": 0, "type": "NormalMsg"}, "M_9022": {"note_status": 1, "channel": 5, "note": 72, "velocity": 0, "time": 0, "type": "NormalMsg"}, "M_9023": {"note_status": 1, "channel": 5, "note": 67, "velocity": 97, "time": 0, "type": "NormalMsg"}, "M_9024": {"note_status": 1, "channel": 5, "note": 72, "velocity": 104, "time": 0, "type": "NormalMsg"}, "M_9025": {"note_status": 1, "channel": 5, "note": 76, "velocity": 108, "time": 0, "type": "NormalMsg"}, "M_9026": {"note_status": 1, "channel": 5, "note": 67, "velocity": 0, "time": 0, "type": "NormalMsg"}, "M_9027": {"note_status": 1, "channel": 5, "note": 72, "velocity": 0, "time": 0, "type": "NormalMsg"}, "M_9028": {"note_status": 1, "channel": 5, "note": 76, "velocity": 0, "time": 0, "type": "NormalMsg"}, "M_9029": {"note_status": 1, "channel": 5, "note": 72, "velocity": 113, "time": 0, "type": "NormalMsg"}, "M_9030": {"note_status": 1, "channel": 5, "note": 74, "velocity": 117, "time": 0, "type": "NormalMsg"}, "M_9031": {"note_status": 1, "channel": 5, "note": 67, "velocity": 94, "time": 0, "type": "NormalMsg"}, "M_9032": {"note_status": 1, "channel": 5, "note": 67, "velocity": 0, "time": 0, "type": "NormalMsg"}, "M_9033": {"note_status": 1, "channel": 5, "note": 72, "velocity": 0, "time": 0, "type": "NormalMsg"}, "M_9034": {"note_status": 1, "channel": 5, "note": 74, "velocity": 0, "time": 0, "type": "NormalMsg"}, "M_9035": {"note_status": 1, "channel": 5, "note": 67, "velocity": 113, "time": 0, "type": "NormalMsg"}, "M_9036": {"note_status": 1, "channel": 5, "note": 71, "velocity": 122, "time": 0, "type": "NormalMsg"}, "M_9037": {"note_status": 1, "channel": 5, "note": 74, "velocity": 127, "time": 0, "type": "NormalMsg"}, "M_9038": {"note_status": 1, "channel": 5, "note": 71, "velocity": 0, "time": 0, "type": "NormalMsg"}, "M_9039": {"note_status": 1, "channel": 5, "note": 67, "velocity": 0, "time": 0, "type": "NormalMsg"}, "M_9040": {"note_status": 1, "channel": 5, "note": 74, "velocity": 0, "time": 0, "type": "NormalMsg"}, "M_9041": {"note_status": 1, "channel": 5, "note": 57, "velocity": 117, "time": 0, "type": "NormalMsg"}, "M_9042": {"note_status": 1, "channel": 5, "note": 57, "velocity": 0, "time": 0, "type": "NormalMsg"}, "M_9043": {"note_status": 1, "channel": 5, "note": 57, "velocity": 113, "time": 0, "type": "NormalMsg"}, "M_9044": {"note_status": 1, "channel": 5, "note": 57, "velocity": 0, "time": 0, "type": "NormalMsg"}, "M_9045": {"note_status": 1, "channel": 5, "note": 60, "velocity": 117, "time": 0, "type": "NormalMsg"}, "M_9046": {"note_status": 1, "channel": 5, "note": 60, "velocity": 0, "time": 0, "type": "NormalMsg"}, "M_9047": {"note_status": 1, "channel": 5, "note": 57, "velocity": 117, "time": 0, "type": "NormalMsg"}, "M_9048": {"note_status": 1, "channel": 5, "note": 57, "velocity": 0, "time": 0, "type": "NormalMsg"}, "M_9049": {"note_status": 1, "channel": 5, "note": 53, "velocity": 117, "time": 0, "type": "NormalMsg"}, "M_9050": {"note_status": 1, "channel": 5, "note": 53, "velocity": 0, "time": 0, "type": "NormalMsg"}, "M_9051": {"note_status": 1, "channel": 5, "note": 53, "velocity": 108, "time": 0, "type": "NormalMsg"}, "M_9052": {"note_status": 1, "channel": 5, "note": 53, "velocity": 0, "time": 0, "type": "NormalMsg"}, "M_9053": {"note_status": 1, "channel": 5, "note": 57, "velocity": 122, "time": 0, "type": "NormalMsg"}, "M_9054": {"note_status": 1, "channel": 5, "note": 57, "velocity": 0, "time": 0, "type": "NormalMsg"}, "M_9055": {"note_status": 1, "channel": 5, "note": 53, "velocity": 122, "time": 0, "type": "NormalMsg"}, "M_9056": {"note_status": 1, "channel": 5, "note": 53, "velocity": 0, "time": 0, "type": "NormalMsg"}, "M_9057": {"note_status": 1, "channel": 5, "note": 50, "velocity": 113, "time": 0, "type": "NormalMsg"}, "M_9058": {"note_status": 1, "channel": 5, "note": 50, "velocity": 0, "time": 0, "type": "NormalMsg"}, "M_9059": {"note_status": 1, "channel": 5, "note": 50, "velocity": 104, "time": 0, "type": "NormalMsg"}, "M_9060": {"note_status": 1, "channel": 5, "note": 50, "velocity": 0, "time": 0, "type": "NormalMsg"}, "M_9061": {"note_status": 1, "channel": 5, "note": 53, "velocity": 113, "time": 0, "type": "NormalMsg"}, "M_9062": {"note_status": 1, "channel": 5, "note": 53, "velocity": 0, "time": 0, "type": "NormalMsg"}, "M_9063": {"note_status": 1, "channel": 5, "note": 50, "velocity": 101, "time": 0, "type": "NormalMsg"}, "M_9064": {"note_status": 1, "channel": 5, "note": 50, "velocity": 0, "time": 0, "type": "NormalMsg"}, "M_9065": {"note_status": 1, "channel": 5, "note": 55, "velocity": 113, "time": 0, "type": "NormalMsg"}, "M_9066": {"note_status": 1, "channel": 5, "note": 55, "velocity": 0, "time": 0, "type": "NormalMsg"}, "M_9067": {"note_status": 1, "channel": 5, "note": 55, "velocity": 113, "time": 0, "type": "NormalMsg"}, "M_9068": {"note_status": 1, "channel": 5, "note": 55, "velocity": 0, "time": 0, "type": "NormalMsg"}, "M_9069": {"note_status": 1, "channel": 5, "note": 59, "velocity": 113, "time": 0, "type": "NormalMsg"}, "M_9070": {"note_status": 1, "channel": 5, "note": 59, "velocity": 0, "time": 0, "type": "NormalMsg"}, "M_9071": {"note_status": 1, "channel": 5, "note": 55, "velocity": 113, "time": 0, "type": "NormalMsg"}, "M_9072": {"note_status": 1, "channel": 5, "note": 55, "velocity": 0, "time": 0, "type": "NormalMsg"}, "M_9073": {"note_status": 1, "channel": 5, "note": 57, "velocity": 117, "time": 0, "type": "NormalMsg"}, "M_9074": {"note_status": 1, "channel": 5, "note": 57, "velocity": 0, "time": 0, "type": "NormalMsg"}, "M_9075": {"note_status": 1, "channel": 5, "note": 57, "velocity": 108, "time": 0, "type": "NormalMsg"}, "M_9076": {"note_status": 1, "channel": 5, "note": 57, "velocity": 0, "time": 0, "type": "NormalMsg"}, "M_9077": {"note_status": 1, "channel": 5, "note": 60, "velocity": 117, "time": 0, "type": "NormalMsg"}, "M_9078": {"note_status": 1, "channel": 5, "note": 60, "velocity": 0, "time": 0, "type": "NormalMsg"}, "M_9079": {"note_status": 1, "channel": 5, "note": 57, "velocity": 113, "time": 0, "type": "NormalMsg"}, "M_9080": {"note_status": 1, "channel": 5, "note": 57, "velocity": 0, "time": 0, "type": "NormalMsg"}, "M_9081": {"note_status": 1, "channel": 5, "note": 53, "velocity": 122, "time": 0, "type": "NormalMsg"}, "M_9082": {"note_status": 1, "channel": 5, "note": 53, "velocity": 0, "time": 0, "type": "NormalMsg"}, "M_9083": {"note_status": 1, "channel": 5, "note": 53, "velocity": 117, "time": 0, "type": "NormalMsg"}, "M_9084": {"note_status": 1, "channel": 5, "note": 53, "velocity": 0, "time": 0, "type": "NormalMsg"}, "M_9085": {"note_status": 1, "channel": 5, "note": 57, "velocity": 122, "time": 0, "type": "NormalMsg"}, "M_9086": {"note_status": 1, "channel": 5, "note": 57, "velocity": 0, "time": 0, "type": "NormalMsg"}, "M_9087": {"note_status": 1, "channel": 5, "note": 53, "velocity": 122, "time": 0, "type": "NormalMsg"}, "M_9088": {"note_status": 1, "channel": 5, "note": 53, "velocity": 0, "time": 0, "type": "NormalMsg"}, "M_9089": {"note_status": 1, "channel": 5, "note": 55, "velocity": 113, "time": 0, "type": "NormalMsg"}, "M_9090": {"note_status": 1, "channel": 5, "note": 55, "velocity": 0, "time": 0, "type": "NormalMsg"}, "M_9091": {"note_status": 1, "channel": 5, "note": 55, "velocity": 117, "time": 0, "type": "NormalMsg"}, "M_9092": {"note_status": 1, "channel": 5, "note": 55, "velocity": 0, "time": 0, "type": "NormalMsg"}, "M_9093": {"note_status": 1, "channel": 5, "note": 59, "velocity": 113, "time": 0, "type": "NormalMsg"}, "M_9094": {"note_status": 1, "channel": 5, "note": 59, "velocity": 0, "time": 0, "type": "NormalMsg"}, "M_9095": {"note_status": 1, "channel": 5, "note": 55, "velocity": 117, "time": 0, "type": "NormalMsg"}, "M_9096": {"note_status": 1, "channel": 5, "note": 55, "velocity": 0, "time": 0, "type": "NormalMsg"}, "M_9097": {"note_status": 1, "channel": 5, "note": 57, "velocity": 117, "time": 0, "type": "NormalMsg"}, "M_9098": {"note_status": 1, "channel": 5, "note": 57, "velocity": 0, "time": 0, "type": "NormalMsg"}, "M_9099": {"note_status": 1, "channel": 5, "note": 57, "velocity": 113, "time": 0, "type": "NormalMsg"}, "M_9100": {"note_status": 1, "channel": 5, "note": 57, "velocity": 0, "time": 0, "type": "NormalMsg"}, "M_9101": {"note_status": 1, "channel": 5, "note": 60, "velocity": 117, "time": 0, "type": "NormalMsg"}, "M_9102": {"note_status": 1, "channel": 5, "note": 60, "velocity": 0, "time": 0, "type": "NormalMsg"}, "M_9103": {"note_status": 1, "channel": 5, "note": 57, "velocity": 117, "time": 0, "type": "NormalMsg"}, "M_9104": {"note_status": 1, "channel": 5, "note": 57, "velocity": 0, "time": 0, "type": "NormalMsg"}, "M_9105": {"note_status": 1, "channel": 5, "note": 53, "velocity": 117, "time": 0, "type": "NormalMsg"}, "M_9106": {"note_status": 1, "channel": 5, "note": 53, "velocity": 0, "time": 0, "type": "NormalMsg"}, "M_9107": {"note_status": 1, "channel": 5, "note": 53, "velocity": 108, "time": 0, "type": "NormalMsg"}, "M_9108": {"note_status": 1, "channel": 5, "note": 53, "velocity": 0, "time": 0, "type": "NormalMsg"}, "M_9109": {"note_status": 1, "channel": 5, "note": 57, "velocity": 122, "time": 0, "type": "NormalMsg"}, "M_9110": {"note_status": 1, "channel": 5, "note": 57, "velocity": 0, "time": 0, "type": "NormalMsg"}, "M_9111": {"note_status": 1, "channel": 5, "note": 53, "velocity": 122, "time": 0, "type": "NormalMsg"}, "M_9112": {"note_status": 1, "channel": 5, "note": 53, "velocity": 0, "time": 0, "type": "NormalMsg"}, "M_9113": {"note_status": 1, "channel": 5, "note": 50, "velocity": 113, "time": 0, "type": "NormalMsg"}, "M_9114": {"note_status": 1, "channel": 5, "note": 50, "velocity": 0, "time": 0, "type": "NormalMsg"}, "M_9115": {"note_status": 1, "channel": 5, "note": 50, "velocity": 104, "time": 0, "type": "NormalMsg"}, "M_9116": {"note_status": 1, "channel": 5, "note": 50, "velocity": 0, "time": 0, "type": "NormalMsg"}, "M_9117": {"note_status": 1, "channel": 5, "note": 53, "velocity": 113, "time": 0, "type": "NormalMsg"}, "M_9118": {"note_status": 1, "channel": 5, "note": 53, "velocity": 0, "time": 0, "type": "NormalMsg"}, "M_9119": {"note_status": 1, "channel": 5, "note": 50, "velocity": 101, "time": 0, "type": "NormalMsg"}, "M_9120": {"note_status": 1, "channel": 5, "note": 50, "velocity": 0, "time": 0, "type": "NormalMsg"}, "M_9121": {"note_status": 1, "channel": 5, "note": 55, "velocity": 113, "time": 0, "type": "NormalMsg"}, "M_9122": {"note_status": 1, "channel": 5, "note": 55, "velocity": 0, "time": 0, "type": "NormalMsg"}, "M_9123": {"note_status": 1, "channel": 5, "note": 55, "velocity": 113, "time": 0, "type": "NormalMsg"}, "M_9124": {"note_status": 1, "channel": 5, "note": 55, "velocity": 0, "time": 0, "type": "NormalMsg"}, "M_9125": {"note_status": 1, "channel": 5, "note": 59, "velocity": 113, "time": 0, "type": "NormalMsg"}, "M_9126": {"note_status": 1, "channel": 5, "note": 59, "velocity": 0, "time": 0, "type": "NormalMsg"}, "M_9127": {"note_status": 1, "channel": 5, "note": 55, "velocity": 113, "time": 0, "type": "NormalMsg"}, "M_9128": {"note_status": 1, "channel": 5, "note": 55, "velocity": 0, "time": 0, "type": "NormalMsg"}, "M_9129": {"note_status": 1, "channel": 5, "note": 57, "velocity": 117, "time": 0, "type": "NormalMsg"}, "M_9130": {"note_status": 1, "channel": 5, "note": 57, "velocity": 0, "time": 0, "type": "NormalMsg"}, "M_9131": {"note_status": 1, "channel": 5, "note": 57, "velocity": 108, "time": 0, "type": "NormalMsg"}, "M_9132": {"note_status": 1, "channel": 5, "note": 57, "velocity": 0, "time": 0, "type": "NormalMsg"}, "M_9133": {"note_status": 1, "channel": 5, "note": 60, "velocity": 117, "time": 0, "type": "NormalMsg"}, "M_9134": {"note_status": 1, "channel": 5, "note": 60, "velocity": 0, "time": 0, "type": "NormalMsg"}, "M_9135": {"note_status": 1, "channel": 5, "note": 57, "velocity": 113, "time": 0, "type": "NormalMsg"}, "M_9136": {"note_status": 1, "channel": 5, "note": 57, "velocity": 0, "time": 0, "type": "NormalMsg"}, "M_9137": {"note_status": 1, "channel": 5, "note": 53, "velocity": 122, "time": 0, "type": "NormalMsg"}, "M_9138": {"note_status": 1, "channel": 5, "note": 53, "velocity": 0, "time": 0, "type": "NormalMsg"}, "M_9139": {"note_status": 1, "channel": 5, "note": 53, "velocity": 117, "time": 0, "type": "NormalMsg"}, "M_9140": {"note_status": 1, "channel": 5, "note": 53, "velocity": 0, "time": 0, "type": "NormalMsg"}, "M_9141": {"note_status": 1, "channel": 5, "note": 57, "velocity": 122, "time": 0, "type": "NormalMsg"}, "M_9142": {"note_status": 1, "channel": 5, "note": 57, "velocity": 0, "time": 0, "type": "NormalMsg"}, "M_9143": {"note_status": 1, "channel": 5, "note": 53, "velocity": 122, "time": 0, "type": "NormalMsg"}, "M_9144": {"note_status": 1, "channel": 5, "note": 53, "velocity": 0, "time": 0, "type": "NormalMsg"}, "M_9145": {"note_status": 1, "channel": 5, "note": 50, "velocity": 122, "time": 0, "type": "NormalMsg"}, "M_9146": {"note_status": 1, "channel": 5, "note": 50, "velocity": 0, "time": 0, "type": "NormalMsg"}, "M_9147": {"note_status": 1, "channel": 5, "note": 50, "velocity": 113, "time": 0, "type": "NormalMsg"}, "M_9148": {"note_status": 1, "channel": 5, "note": 50, "velocity": 0, "time": 0, "type": "NormalMsg"}, "M_9149": {"note_status": 1, "channel": 5, "note": 53, "velocity": 113, "time": 0, "type": "NormalMsg"}, "M_9150": {"note_status": 1, "channel": 5, "note": 53, "velocity": 0, "time": 0, "type": "NormalMsg"}, "M_9151": {"note_status": 1, "channel": 5, "note": 50, "velocity": 108, "time": 0, "type": "NormalMsg"}, "M_9152": {"note_status": 1, "channel": 5, "note": 50, "velocity": 0, "time": 0, "type": "NormalMsg"}, "M_9153": {"note_status": 1, "channel": 5, "note": 55, "velocity": 113, "time": 0, "type": "NormalMsg"}, "M_9154": {"note_status": 1, "channel": 5, "note": 55, "velocity": 0, "time": 0, "type": "NormalMsg"}, "M_9155": {"note_status": 1, "channel": 5, "note": 55, "velocity": 117, "time": 0, "type": "NormalMsg"}, "M_9156": {"note_status": 1, "channel": 5, "note": 55, "velocity": 0, "time": 0, "type": "NormalMsg"}, "M_9157": {"note_status": 1, "channel": 5, "note": 59, "velocity": 113, "time": 0, "type": "NormalMsg"}, "M_9158": {"note_status": 1, "channel": 5, "note": 59, "velocity": 0, "time": 0, "type": "NormalMsg"}, "M_9159": {"note_status": 1, "channel": 5, "note": 55, "velocity": 117, "time": 0, "type": "NormalMsg"}, "M_9160": {"note_status": 1, "channel": 5, "note": 55, "velocity": 0, "time": 0, "type": "NormalMsg"}, "M_9161": {"note_status": 1, "channel": 5, "note": 57, "velocity": 117, "time": 0, "type": "NormalMsg"}, "M_9162": {"note_status": 1, "channel": 5, "note": 57, "velocity": 0, "time": 0, "type": "NormalMsg"}, "M_9163": {"note_status": 1, "channel": 5, "note": 57, "velocity": 113, "time": 0, "type": "NormalMsg"}, "M_9164": {"note_status": 1, "channel": 5, "note": 57, "velocity": 0, "time": 0, "type": "NormalMsg"}, "M_9165": {"note_status": 1, "channel": 5, "note": 60, "velocity": 117, "time": 0, "type": "NormalMsg"}, "M_9166": {"note_status": 1, "channel": 5, "note": 60, "velocity": 0, "time": 0, "type": "NormalMsg"}, "M_9167": {"note_status": 1, "channel": 5, "note": 57, "velocity": 117, "time": 0, "type": "NormalMsg"}, "M_9168": {"note_status": 1, "channel": 5, "note": 57, "velocity": 0, "time": 0, "type": "NormalMsg"}, "M_9169": {"note_status": 1, "channel": 5, "note": 53, "velocity": 117, "time": 0, "type": "NormalMsg"}, "M_9170": {"note_status": 1, "channel": 5, "note": 53, "velocity": 0, "time": 0, "type": "NormalMsg"}, "M_9171": {"note_status": 1, "channel": 5, "note": 53, "velocity": 108, "time": 0, "type": "NormalMsg"}, "M_9172": {"note_status": 1, "channel": 5, "note": 53, "velocity": 0, "time": 0, "type": "NormalMsg"}, "M_9173": {"note_status": 1, "channel": 5, "note": 57, "velocity": 122, "time": 0, "type": "NormalMsg"}, "M_9174": {"note_status": 1, "channel": 5, "note": 57, "velocity": 0, "time": 0, "type": "NormalMsg"}, "M_9175": {"note_status": 1, "channel": 5, "note": 53, "velocity": 122, "time": 0, "type": "NormalMsg"}, "M_9176": {"note_status": 1, "channel": 5, "note": 53, "velocity": 0, "time": 0, "type": "NormalMsg"}, "M_9177": {"note_status": 1, "channel": 5, "note": 50, "velocity": 113, "time": 0, "type": "NormalMsg"}, "M_9178": {"note_status": 1, "channel": 5, "note": 50, "velocity": 0, "time": 0, "type": "NormalMsg"}, "M_9179": {"note_status": 1, "channel": 5, "note": 50, "velocity": 104, "time": 0, "type": "NormalMsg"}, "M_9180": {"note_status": 1, "channel": 5, "note": 50, "velocity": 0, "time": 0, "type": "NormalMsg"}, "M_9181": {"note_status": 1, "channel": 5, "note": 53, "velocity": 113, "time": 0, "type": "NormalMsg"}, "M_9182": {"note_status": 1, "channel": 5, "note": 53, "velocity": 0, "time": 0, "type": "NormalMsg"}, "M_9183": {"note_status": 1, "channel": 5, "note": 50, "velocity": 101, "time": 0, "type": "NormalMsg"}, "M_9184": {"note_status": 1, "channel": 5, "note": 50, "velocity": 0, "time": 0, "type": "NormalMsg"}, "M_9185": {"note_status": 1, "channel": 5, "note": 55, "velocity": 113, "time": 0, "type": "NormalMsg"}, "M_9186": {"note_status": 1, "channel": 5, "note": 55, "velocity": 0, "time": 0, "type": "NormalMsg"}, "M_9187": {"note_status": 1, "channel": 5, "note": 55, "velocity": 113, "time": 0, "type": "NormalMsg"}, "M_9188": {"note_status": 1, "channel": 5, "note": 55, "velocity": 0, "time": 0, "type": "NormalMsg"}, "M_9189": {"note_status": 1, "channel": 5, "note": 59, "velocity": 113, "time": 0, "type": "NormalMsg"}, "M_9190": {"note_status": 1, "channel": 5, "note": 59, "velocity": 0, "time": 0, "type": "NormalMsg"}, "M_9191": {"note_status": 1, "channel": 5, "note": 55, "velocity": 113, "time": 0, "type": "NormalMsg"}, "M_9192": {"note_status": 1, "channel": 5, "note": 55, "velocity": 0, "time": 0, "type": "NormalMsg"}, "M_9193": {"note_status": 1, "channel": 5, "note": 57, "velocity": 117, "time": 0, "type": "NormalMsg"}, "M_9194": {"note_status": 1, "channel": 5, "note": 57, "velocity": 0, "time": 0, "type": "NormalMsg"}, "M_9195": {"note_status": 1, "channel": 5, "note": 57, "velocity": 108, "time": 0, "type": "NormalMsg"}, "M_9196": {"note_status": 1, "channel": 5, "note": 57, "velocity": 0, "time": 0, "type": "NormalMsg"}, "M_9197": {"note_status": 1, "channel": 5, "note": 60, "velocity": 117, "time": 0, "type": "NormalMsg"}, "M_9198": {"note_status": 1, "channel": 5, "note": 60, "velocity": 0, "time": 0, "type": "NormalMsg"}, "M_9199": {"note_status": 1, "channel": 5, "note": 57, "velocity": 113, "time": 0, "type": "NormalMsg"}, "M_9200": {"note_status": 1, "channel": 5, "note": 57, "velocity": 0, "time": 0, "type": "NormalMsg"}, "M_9201": {"note_status": 1, "channel": 5, "note": 53, "velocity": 122, "time": 0, "type": "NormalMsg"}, "M_9202": {"note_status": 1, "channel": 5, "note": 53, "velocity": 0, "time": 0, "type": "NormalMsg"}, "M_9203": {"note_status": 1, "channel": 5, "note": 53, "velocity": 117, "time": 0, "type": "NormalMsg"}, "M_9204": {"note_status": 1, "channel": 5, "note": 53, "velocity": 0, "time": 0, "type": "NormalMsg"}, "M_9205": {"note_status": 1, "channel": 5, "note": 57, "velocity": 122, "time": 0, "type": "NormalMsg"}, "M_9206": {"note_status": 1, "channel": 5, "note": 57, "velocity": 0, "time": 0, "type": "NormalMsg"}, "M_9207": {"note_status": 1, "channel": 5, "note": 53, "velocity": 122, "time": 0, "type": "NormalMsg"}, "M_9208": {"note_status": 1, "channel": 5, "note": 53, "velocity": 0, "time": 0, "type": "NormalMsg"}, "M_9209": {"note_status": 1, "channel": 5, "note": 55, "velocity": 113, "time": 0, "type": "NormalMsg"}, "M_9210": {"note_status": 1, "channel": 5, "note": 55, "velocity": 0, "time": 0, "type": "NormalMsg"}, "M_9211": {"note_status": 1, "channel": 5, "note": 55, "velocity": 117, "time": 0, "type": "NormalMsg"}, "M_9212": {"note_status": 1, "channel": 5, "note": 55, "velocity": 0, "time": 0, "type": "NormalMsg"}, "M_9213": {"note_status": 1, "channel": 5, "note": 59, "velocity": 113, "time": 0, "type": "NormalMsg"}, "M_9214": {"note_status": 1, "channel": 5, "note": 59, "velocity": 0, "time": 0, "type": "NormalMsg"}, "M_9215": {"note_status": 1, "channel": 5, "note": 55, "velocity": 117, "time": 0, "type": "NormalMsg"}, "M_9216": {"note_status": 1, "channel": 5, "note": 55, "velocity": 0, "time": 0, "type": "NormalMsg"}, "M_9217": {"note_status": 1, "channel": 5, "note": 57, "velocity": 117, "time": 0, "type": "NormalMsg"}, "M_9218": {"note_status": 1, "channel": 5, "note": 57, "velocity": 0, "time": 0, "type": "NormalMsg"}, "M_9219": {"note_status": 1, "channel": 5, "note": 57, "velocity": 113, "time": 0, "type": "NormalMsg"}, "M_9220": {"note_status": 1, "channel": 5, "note": 57, "velocity": 0, "time": 0, "type": "NormalMsg"}, "M_9221": {"note_status": 1, "channel": 5, "note": 60, "velocity": 117, "time": 0, "type": "NormalMsg"}, "M_9222": {"note_status": 1, "channel": 5, "note": 60, "velocity": 0, "time": 0, "type": "NormalMsg"}, "M_9223": {"note_status": 1, "channel": 5, "note": 57, "velocity": 117, "time": 0, "type": "NormalMsg"}, "M_9224": {"note_status": 1, "channel": 5, "note": 57, "velocity": 0, "time": 0, "type": "NormalMsg"}, "M_9225": {"note_status": 1, "channel": 5, "note": 53, "velocity": 117, "time": 0, "type": "NormalMsg"}, "M_9226": {"note_status": 1, "channel": 5, "note": 53, "velocity": 0, "time": 0, "type": "NormalMsg"}, "M_9227": {"note_status": 1, "channel": 5, "note": 53, "velocity": 108, "time": 0, "type": "NormalMsg"}, "M_9228": {"note_status": 1, "channel": 5, "note": 53, "velocity": 0, "time": 0, "type": "NormalMsg"}, "M_9229": {"note_status": 1, "channel": 5, "note": 57, "velocity": 122, "time": 0, "type": "NormalMsg"}, "M_9230": {"note_status": 1, "channel": 5, "note": 57, "velocity": 0, "time": 0, "type": "NormalMsg"}, "M_9231": {"note_status": 1, "channel": 5, "note": 53, "velocity": 122, "time": 0, "type": "NormalMsg"}, "M_9232": {"note_status": 1, "channel": 5, "note": 53, "velocity": 0, "time": 0, "type": "NormalMsg"}, "M_9233": {"note_status": 1, "channel": 5, "note": 50, "velocity": 113, "time": 0, "type": "NormalMsg"}, "M_9234": {"note_status": 1, "channel": 5, "note": 50, "velocity": 0, "time": 0, "type": "NormalMsg"}, "M_9235": {"note_status": 1, "channel": 5, "note": 50, "velocity": 104, "time": 0, "type": "NormalMsg"}, "M_9236": {"note_status": 1, "channel": 5, "note": 50, "velocity": 0, "time": 0, "type": "NormalMsg"}, "M_9237": {"note_status": 1, "channel": 5, "note": 53, "velocity": 113, "time": 0, "type": "NormalMsg"}, "M_9238": {"note_status": 1, "channel": 5, "note": 53, "velocity": 0, "time": 0, "type": "NormalMsg"}, "M_9239": {"note_status": 1, "channel": 5, "note": 50, "velocity": 101, "time": 0, "type": "NormalMsg"}, "M_9240": {"note_status": 1, "channel": 5, "note": 50, "velocity": 0, "time": 0, "type": "NormalMsg"}, "M_9241": {"note_status": 1, "channel": 5, "note": 55, "velocity": 113, "time": 0, "type": "NormalMsg"}, "M_9242": {"note_status": 1, "channel": 5, "note": 55, "velocity": 0, "time": 0, "type": "NormalMsg"}, "M_9243": {"note_status": 1, "channel": 5, "note": 55, "velocity": 113, "time": 0, "type": "NormalMsg"}, "M_9244": {"note_status": 1, "channel": 5, "note": 55, "velocity": 0, "time": 0, "type": "NormalMsg"}, "M_9245": {"note_status": 1, "channel": 5, "note": 59, "velocity": 113, "time": 0, "type": "NormalMsg"}, "M_9246": {"note_status": 1, "channel": 5, "note": 59, "velocity": 0, "time": 0, "type": "NormalMsg"}, "M_9247": {"note_status": 1, "channel": 5, "note": 55, "velocity": 113, "time": 0, "type": "NormalMsg"}, "M_9248": {"note_status": 1, "channel": 5, "note": 55, "velocity": 0, "time": 0, "type": "NormalMsg"}, "M_9249": {"note_status": 1, "channel": 5, "note": 53, "velocity": 117, "time": 0, "type": "NormalMsg"}, "M_9250": {"note_status": 1, "channel": 5, "note": 53, "velocity": 0, "time": 0, "type": "NormalMsg"}, "M_9251": {"note_status": 1, "channel": 5, "note": 53, "velocity": 108, "time": 0, "type": "NormalMsg"}, "M_9252": {"note_status": 1, "channel": 5, "note": 53, "velocity": 0, "time": 0, "type": "NormalMsg"}, "M_9253": {"note_status": 1, "channel": 5, "note": 53, "velocity": 117, "time": 0, "type": "NormalMsg"}, "M_9254": {"note_status": 1, "channel": 5, "note": 53, "velocity": 0, "time": 0, "type": "NormalMsg"}, "M_9255": {"note_status": 1, "channel": 5, "note": 50, "velocity": 113, "time": 0, "type": "NormalMsg"}, "M_9256": {"note_status": 1, "channel": 5, "note": 50, "velocity": 0, "time": 0, "type": "NormalMsg"}, "M_9257": {"note_status": 1, "channel": 5, "note": 50, "velocity": 117, "time": 0, "type": "NormalMsg"}, "M_9258": {"note_status": 1, "channel": 5, "note": 50, "velocity": 0, "time": 0, "type": "NormalMsg"}, "M_9259": {"note_status": 1, "channel": 5, "note": 50, "velocity": 122, "time": 0, "type": "NormalMsg"}, "M_9260": {"note_status": 1, "channel": 5, "note": 50, "velocity": 0, "time": 0, "type": "NormalMsg"}, "M_9261": {"note_status": 1, "channel": 5, "note": 53, "velocity": 122, "time": 0, "type": "NormalMsg"}, "M_9262": {"note_status": 1, "channel": 5, "note": 53, "velocity": 0, "time": 0, "type": "NormalMsg"}, "M_9263": {"note_status": 1, "channel": 5, "note": 53, "velocity": 113, "time": 0, "type": "NormalMsg"}, "M_9264": {"note_status": 1, "channel": 5, "note": 53, "velocity": 0, "time": 0, "type": "NormalMsg"}, "M_9265": {"note_status": 1, "channel": 5, "note": 53, "velocity": 113, "time": 0, "type": "NormalMsg"}, "M_9266": {"note_status": 1, "channel": 5, "note": 53, "velocity": 0, "time": 0, "type": "NormalMsg"}, "M_9267": {"note_status": 1, "channel": 5, "note": 50, "velocity": 108, "time": 0, "type": "NormalMsg"}, "M_9268": {"note_status": 1, "channel": 5, "note": 50, "velocity": 0, "time": 0, "type": "NormalMsg"}, "M_9269": {"note_status": 1, "channel": 5, "note": 50, "velocity": 117, "time": 0, "type": "NormalMsg"}, "M_9270": {"note_status": 1, "channel": 5, "note": 50, "velocity": 0, "time": 0, "type": "NormalMsg"}, "M_9271": {"note_status": 1, "channel": 5, "note": 50, "velocity": 117, "time": 0, "type": "NormalMsg"}, "M_9272": {"note_status": 1, "channel": 5, "note": 50, "velocity": 0, "time": 0, "type": "NormalMsg"}, "M_9273": {"note_status": 1, "channel": 5, "note": 53, "velocity": 122, "time": 0, "type": "NormalMsg"}, "M_9274": {"note_status": 1, "channel": 5, "note": 53, "velocity": 0, "time": 0, "type": "NormalMsg"}, "M_9275": {"note_status": 1, "channel": 5, "note": 53, "velocity": 113, "time": 0, "type": "NormalMsg"}, "M_9276": {"note_status": 1, "channel": 5, "note": 53, "velocity": 0, "time": 0, "type": "NormalMsg"}, "M_9277": {"note_status": 1, "channel": 5, "note": 53, "velocity": 113, "time": 0, "type": "NormalMsg"}, "M_9278": {"note_status": 1, "channel": 5, "note": 53, "velocity": 0, "time": 0, "type": "NormalMsg"}, "M_9279": {"note_status": 1, "channel": 5, "note": 50, "velocity": 108, "time": 0, "type": "NormalMsg"}, "M_9280": {"note_status": 1, "channel": 5, "note": 50, "velocity": 0, "time": 0, "type": "NormalMsg"}, "M_9281": {"note_status": 1, "channel": 5, "note": 50, "velocity": 117, "time": 0, "type": "NormalMsg"}, "M_9282": {"note_status": 1, "channel": 5, "note": 50, "velocity": 0, "time": 0, "type": "NormalMsg"}, "M_9283": {"note_status": 1, "channel": 5, "note": 50, "velocity": 117, "time": 0, "type": "NormalMsg"}, "M_9284": {"note_status": 1, "channel": 5, "note": 50, "velocity": 0, "time": 0, "type": "NormalMsg"}, "M_9285": {"note_status": 1, "channel": 5, "note": 57, "velocity": 117, "time": 0, "type": "NormalMsg"}, "M_9286": {"note_status": 1, "channel": 5, "note": 57, "velocity": 0, "time": 0, "type": "NormalMsg"}, "M_9287": {"note_status": 1, "channel": 5, "note": 57, "velocity": 113, "time": 0, "type": "NormalMsg"}, "M_9288": {"note_status": 1, "channel": 5, "note": 57, "velocity": 0, "time": 0, "type": "NormalMsg"}, "M_9289": {"note_status": 1, "channel": 5, "note": 60, "velocity": 117, "time": 0, "type": "NormalMsg"}, "M_9290": {"note_status": 1, "channel": 5, "note": 60, "velocity": 0, "time": 0, "type": "NormalMsg"}, "M_9291": {"note_status": 1, "channel": 5, "note": 57, "velocity": 117, "time": 0, "type": "NormalMsg"}, "M_9292": {"note_status": 1, "channel": 5, "note": 57, "velocity": 0, "time": 0, "type": "NormalMsg"}, "M_9293": {"note_status": 1, "channel": 5, "note": 53, "velocity": 117, "time": 0, "type": "NormalMsg"}, "M_9294": {"note_status": 1, "channel": 5, "note": 53, "velocity": 0, "time": 0, "type": "NormalMsg"}, "M_9295": {"note_status": 1, "channel": 5, "note": 53, "velocity": 108, "time": 0, "type": "NormalMsg"}, "M_9296": {"note_status": 1, "channel": 5, "note": 53, "velocity": 0, "time": 0, "type": "NormalMsg"}, "M_9297": {"note_status": 1, "channel": 5, "note": 57, "velocity": 122, "time": 0, "type": "NormalMsg"}, "M_9298": {"note_status": 1, "channel": 5, "note": 57, "velocity": 0, "time": 0, "type": "NormalMsg"}, "M_9299": {"note_status": 1, "channel": 5, "note": 53, "velocity": 122, "time": 0, "type": "NormalMsg"}, "M_9300": {"note_status": 1, "channel": 5, "note": 53, "velocity": 0, "time": 0, "type": "NormalMsg"}, "M_9301": {"note_status": 1, "channel": 5, "note": 50, "velocity": 113, "time": 0, "type": "NormalMsg"}, "M_9302": {"note_status": 1, "channel": 5, "note": 50, "velocity": 0, "time": 0, "type": "NormalMsg"}, "M_9303": {"note_status": 1, "channel": 5, "note": 50, "velocity": 104, "time": 0, "type": "NormalMsg"}, "M_9304": {"note_status": 1, "channel": 5, "note": 50, "velocity": 0, "time": 0, "type": "NormalMsg"}, "M_9305": {"note_status": 1, "channel": 5, "note": 53, "velocity": 113, "time": 0, "type": "NormalMsg"}, "M_9306": {"note_status": 1, "channel": 5, "note": 53, "velocity": 0, "time": 0, "type": "NormalMsg"}, "M_9307": {"note_status": 1, "channel": 5, "note": 50, "velocity": 101, "time": 0, "type": "NormalMsg"}, "M_9308": {"note_status": 1, "channel": 5, "note": 50, "velocity": 0, "time": 0, "type": "NormalMsg"}, "M_9309": {"note_status": 1, "channel": 5, "note": 55, "velocity": 113, "time": 0, "type": "NormalMsg"}, "M_9310": {"note_status": 1, "channel": 5, "note": 55, "velocity": 0, "time": 0, "type": "NormalMsg"}, "M_9311": {"note_status": 1, "channel": 5, "note": 55, "velocity": 113, "time": 0, "type": "NormalMsg"}, "M_9312": {"note_status": 1, "channel": 5, "note": 55, "velocity": 0, "time": 0, "type": "NormalMsg"}, "M_9313": {"note_status": 1, "channel": 5, "note": 59, "velocity": 113, "time": 0, "type": "NormalMsg"}, "M_9314": {"note_status": 1, "channel": 5, "note": 59, "velocity": 0, "time": 0, "type": "NormalMsg"}, "M_9315": {"note_status": 1, "channel": 5, "note": 55, "velocity": 113, "time": 0, "type": "NormalMsg"}, "M_9316": {"note_status": 1, "channel": 5, "note": 55, "velocity": 0, "time": 0, "type": "NormalMsg"}, "M_9317": {"note_status": 1, "channel": 5, "note": 57, "velocity": 117, "time": 0, "type": "NormalMsg"}, "M_9318": {"note_status": 1, "channel": 5, "note": 57, "velocity": 0, "time": 0, "type": "NormalMsg"}, "M_9319": {"note_status": 1, "channel": 5, "note": 57, "velocity": 108, "time": 0, "type": "NormalMsg"}, "M_9320": {"note_status": 1, "channel": 5, "note": 57, "velocity": 0, "time": 0, "type": "NormalMsg"}, "M_9321": {"note_status": 1, "channel": 5, "note": 60, "velocity": 117, "time": 0, "type": "NormalMsg"}, "M_9322": {"note_status": 1, "channel": 5, "note": 60, "velocity": 0, "time": 0, "type": "NormalMsg"}, "M_9323": {"note_status": 1, "channel": 5, "note": 57, "velocity": 113, "time": 0, "type": "NormalMsg"}, "M_9324": {"note_status": 1, "channel": 5, "note": 57, "velocity": 0, "time": 0, "type": "NormalMsg"}, "M_9325": {"note_status": 1, "channel": 5, "note": 53, "velocity": 122, "time": 0, "type": "NormalMsg"}, "M_9326": {"note_status": 1, "channel": 5, "note": 53, "velocity": 0, "time": 0, "type": "NormalMsg"}, "M_9327": {"note_status": 1, "channel": 5, "note": 53, "velocity": 117, "time": 0, "type": "NormalMsg"}, "M_9328": {"note_status": 1, "channel": 5, "note": 53, "velocity": 0, "time": 0, "type": "NormalMsg"}, "M_9329": {"note_status": 1, "channel": 5, "note": 57, "velocity": 122, "time": 0, "type": "NormalMsg"}, "M_9330": {"note_status": 1, "channel": 5, "note": 57, "velocity": 0, "time": 0, "type": "NormalMsg"}, "M_9331": {"note_status": 1, "channel": 5, "note": 53, "velocity": 122, "time": 0, "type": "NormalMsg"}, "M_9332": {"note_status": 1, "channel": 5, "note": 53, "velocity": 0, "time": 0, "type": "NormalMsg"}, "M_9333": {"note_status": 1, "channel": 5, "note": 50, "velocity": 122, "time": 0, "type": "NormalMsg"}, "M_9334": {"note_status": 1, "channel": 5, "note": 50, "velocity": 0, "time": 0, "type": "NormalMsg"}, "M_9335": {"note_status": 1, "channel": 5, "note": 50, "velocity": 113, "time": 0, "type": "NormalMsg"}, "M_9336": {"note_status": 1, "channel": 5, "note": 50, "velocity": 0, "time": 0, "type": "NormalMsg"}, "M_9337": {"note_status": 1, "channel": 5, "note": 53, "velocity": 113, "time": 0, "type": "NormalMsg"}, "M_9338": {"note_status": 1, "channel": 5, "note": 53, "velocity": 0, "time": 0, "type": "NormalMsg"}, "M_9339": {"note_status": 1, "channel": 5, "note": 50, "velocity": 108, "time": 0, "type": "NormalMsg"}, "M_9340": {"note_status": 1, "channel": 5, "note": 50, "velocity": 0, "time": 0, "type": "NormalMsg"}, "M_9341": {"note_status": 1, "channel": 5, "note": 55, "velocity": 113, "time": 0, "type": "NormalMsg"}, "M_9342": {"note_status": 1, "channel": 5, "note": 55, "velocity": 0, "time": 0, "type": "NormalMsg"}, "M_9343": {"note_status": 1, "channel": 5, "note": 55, "velocity": 117, "time": 0, "type": "NormalMsg"}, "M_9344": {"note_status": 1, "channel": 5, "note": 55, "velocity": 0, "time": 0, "type": "NormalMsg"}, "M_9345": {"note_status": 1, "channel": 5, "note": 59, "velocity": 113, "time": 0, "type": "NormalMsg"}, "M_9346": {"note_status": 1, "channel": 5, "note": 59, "velocity": 0, "time": 0, "type": "NormalMsg"}, "M_9347": {"note_status": 1, "channel": 5, "note": 55, "velocity": 117, "time": 0, "type": "NormalMsg"}, "M_9348": {"note_status": 1, "channel": 5, "note": 55, "velocity": 0, "time": 0, "type": "NormalMsg"}, "M_9349": {"note_status": 1, "channel": 5, "note": 57, "velocity": 117, "time": 0, "type": "NormalMsg"}, "M_9350": {"note_status": 1, "channel": 5, "note": 57, "velocity": 0, "time": 0, "type": "NormalMsg"}, "M_9351": {"note_status": 1, "channel": 5, "note": 57, "velocity": 113, "time": 0, "type": "NormalMsg"}, "M_9352": {"note_status": 1, "channel": 5, "note": 57, "velocity": 0, "time": 0, "type": "NormalMsg"}, "M_9353": {"note_status": 1, "channel": 5, "note": 60, "velocity": 117, "time": 0, "type": "NormalMsg"}, "M_9354": {"note_status": 1, "channel": 5, "note": 60, "velocity": 0, "time": 0, "type": "NormalMsg"}, "M_9355": {"note_status": 1, "channel": 5, "note": 57, "velocity": 117, "time": 0, "type": "NormalMsg"}, "M_9356": {"note_status": 1, "channel": 5, "note": 57, "velocity": 0, "time": 0, "type": "NormalMsg"}, "M_9357": {"note_status": 1, "channel": 5, "note": 53, "velocity": 117, "time": 0, "type": "NormalMsg"}, "M_9358": {"note_status": 1, "channel": 5, "note": 53, "velocity": 0, "time": 0, "type": "NormalMsg"}, "M_9359": {"note_status": 1, "channel": 5, "note": 53, "velocity": 108, "time": 0, "type": "NormalMsg"}, "M_9360": {"note_status": 1, "channel": 5, "note": 53, "velocity": 0, "time": 0, "type": "NormalMsg"}, "M_9361": {"note_status": 1, "channel": 5, "note": 57, "velocity": 122, "time": 0, "type": "NormalMsg"}, "M_9362": {"note_status": 1, "channel": 5, "note": 57, "velocity": 0, "time": 0, "type": "NormalMsg"}, "M_9363": {"note_status": 1, "channel": 5, "note": 53, "velocity": 122, "time": 0, "type": "NormalMsg"}, "M_9364": {"note_status": 1, "channel": 5, "note": 53, "velocity": 0, "time": 0, "type": "NormalMsg"}, "M_9365": {"note_status": 1, "channel": 5, "note": 50, "velocity": 113, "time": 0, "type": "NormalMsg"}, "M_9366": {"note_status": 1, "channel": 5, "note": 50, "velocity": 0, "time": 0, "type": "NormalMsg"}, "M_9367": {"note_status": 1, "channel": 5, "note": 50, "velocity": 104, "time": 0, "type": "NormalMsg"}, "M_9368": {"note_status": 1, "channel": 5, "note": 50, "velocity": 0, "time": 0, "type": "NormalMsg"}, "M_9369": {"note_status": 1, "channel": 5, "note": 53, "velocity": 113, "time": 0, "type": "NormalMsg"}, "M_9370": {"note_status": 1, "channel": 5, "note": 53, "velocity": 0, "time": 0, "type": "NormalMsg"}, "M_9371": {"note_status": 1, "channel": 5, "note": 50, "velocity": 101, "time": 0, "type": "NormalMsg"}, "M_9372": {"note_status": 1, "channel": 5, "note": 50, "velocity": 0, "time": 0, "type": "NormalMsg"}, "M_9373": {"note_status": 1, "channel": 5, "note": 55, "velocity": 113, "time": 0, "type": "NormalMsg"}, "M_9374": {"note_status": 1, "channel": 5, "note": 55, "velocity": 0, "time": 0, "type": "NormalMsg"}, "M_9375": {"note_status": 1, "channel": 5, "note": 55, "velocity": 113, "time": 0, "type": "NormalMsg"}, "M_9376": {"note_status": 1, "channel": 5, "note": 55, "velocity": 0, "time": 0, "type": "NormalMsg"}, "M_9377": {"note_status": 1, "channel": 5, "note": 59, "velocity": 113, "time": 0, "type": "NormalMsg"}, "M_9378": {"note_status": 1, "channel": 5, "note": 59, "velocity": 0, "time": 0, "type": "NormalMsg"}, "M_9379": {"note_status": 1, "channel": 5, "note": 55, "velocity": 113, "time": 0, "type": "NormalMsg"}, "M_9380": {"note_status": 1, "channel": 5, "note": 55, "velocity": 0, "time": 0, "type": "NormalMsg"}, "M_9381": {"note_status": 1, "channel": 5, "note": 57, "velocity": 117, "time": 0, "type": "NormalMsg"}, "M_9382": {"note_status": 1, "channel": 5, "note": 57, "velocity": 0, "time": 0, "type": "NormalMsg"}, "M_9383": {"note_status": 1, "channel": 5, "note": 57, "velocity": 108, "time": 0, "type": "NormalMsg"}, "M_9384": {"note_status": 1, "channel": 5, "note": 57, "velocity": 0, "time": 0, "type": "NormalMsg"}, "M_9385": {"note_status": 1, "channel": 5, "note": 60, "velocity": 117, "time": 0, "type": "NormalMsg"}, "M_9386": {"note_status": 1, "channel": 5, "note": 60, "velocity": 0, "time": 0, "type": "NormalMsg"}, "M_9387": {"note_status": 1, "channel": 5, "note": 57, "velocity": 113, "time": 0, "type": "NormalMsg"}, "M_9388": {"note_status": 1, "channel": 5, "note": 57, "velocity": 0, "time": 0, "type": "NormalMsg"}, "M_9389": {"note_status": 1, "channel": 5, "note": 53, "velocity": 122, "time": 0, "type": "NormalMsg"}, "M_9390": {"note_status": 1, "channel": 5, "note": 53, "velocity": 0, "time": 0, "type": "NormalMsg"}, "M_9391": {"note_status": 1, "channel": 5, "note": 53, "velocity": 117, "time": 0, "type": "NormalMsg"}, "M_9392": {"note_status": 1, "channel": 5, "note": 53, "velocity": 0, "time": 0, "type": "NormalMsg"}, "M_9393": {"note_status": 1, "channel": 5, "note": 57, "velocity": 122, "time": 0, "type": "NormalMsg"}, "M_9394": {"note_status": 1, "channel": 5, "note": 57, "velocity": 0, "time": 0, "type": "NormalMsg"}, "M_9395": {"note_status": 1, "channel": 5, "note": 53, "velocity": 122, "time": 0, "type": "NormalMsg"}, "M_9396": {"note_status": 1, "channel": 5, "note": 53, "velocity": 0, "time": 0, "type": "NormalMsg"}, "M_9397": {"note_status": 1, "channel": 5, "note": 50, "velocity": 122, "time": 0, "type": "NormalMsg"}, "M_9398": {"note_status": 1, "channel": 5, "note": 50, "velocity": 0, "time": 0, "type": "NormalMsg"}, "M_9399": {"note_status": 1, "channel": 5, "note": 50, "velocity": 113, "time": 0, "type": "NormalMsg"}, "M_9400": {"note_status": 1, "channel": 5, "note": 50, "velocity": 0, "time": 0, "type": "NormalMsg"}, "M_9401": {"note_status": 1, "channel": 5, "note": 53, "velocity": 113, "time": 0, "type": "NormalMsg"}, "M_9402": {"note_status": 1, "channel": 5, "note": 53, "velocity": 0, "time": 0, "type": "NormalMsg"}, "M_9403": {"note_status": 1, "channel": 5, "note": 50, "velocity": 108, "time": 0, "type": "NormalMsg"}, "M_9404": {"note_status": 1, "channel": 5, "note": 50, "velocity": 0, "time": 0, "type": "NormalMsg"}, "M_9405": {"note_status": 1, "channel": 5, "note": 55, "velocity": 113, "time": 0, "type": "NormalMsg"}, "M_9406": {"note_status": 1, "channel": 5, "note": 55, "velocity": 0, "time": 0, "type": "NormalMsg"}, "M_9407": {"note_status": 1, "channel": 5, "note": 55, "velocity": 117, "time": 0, "type": "NormalMsg"}, "M_9408": {"note_status": 1, "channel": 5, "note": 55, "velocity": 0, "time": 0, "type": "NormalMsg"}, "M_9409": {"note_status": 1, "channel": 5, "note": 59, "velocity": 113, "time": 0, "type": "NormalMsg"}, "M_9410": {"note_status": 1, "channel": 5, "note": 59, "velocity": 0, "time": 0, "type": "NormalMsg"}, "M_9411": {"note_status": 1, "channel": 5, "note": 55, "velocity": 117, "time": 0, "type": "NormalMsg"}, "M_9412": {"note_status": 1, "channel": 5, "note": 55, "velocity": 0, "time": 0, "type": "NormalMsg"}, "M_9413": {"note_status": 1, "channel": 5, "note": 57, "velocity": 117, "time": 0, "type": "NormalMsg"}, "M_9414": {"note_status": 1, "channel": 5, "note": 57, "velocity": 0, "time": 0, "type": "NormalMsg"}, "M_9415": {"note_status": 1, "channel": 5, "note": 57, "velocity": 113, "time": 0, "type": "NormalMsg"}, "M_9416": {"note_status": 1, "channel": 5, "note": 57, "velocity": 0, "time": 0, "type": "NormalMsg"}, "M_9417": {"note_status": 1, "channel": 5, "note": 60, "velocity": 117, "time": 0, "type": "NormalMsg"}, "M_9418": {"note_status": 1, "channel": 5, "note": 60, "velocity": 0, "time": 0, "type": "NormalMsg"}, "M_9419": {"note_status": 1, "channel": 5, "note": 57, "velocity": 117, "time": 0, "type": "NormalMsg"}, "M_9420": {"note_status": 1, "channel": 5, "note": 57, "velocity": 0, "time": 0, "type": "NormalMsg"}, "M_9421": {"note_status": 1, "channel": 5, "note": 53, "velocity": 117, "time": 0, "type": "NormalMsg"}, "M_9422": {"note_status": 1, "channel": 5, "note": 53, "velocity": 0, "time": 0, "type": "NormalMsg"}, "M_9423": {"note_status": 1, "channel": 5, "note": 53, "velocity": 108, "time": 0, "type": "NormalMsg"}, "M_9424": {"note_status": 1, "channel": 5, "note": 53, "velocity": 0, "time": 0, "type": "NormalMsg"}, "M_9425": {"note_status": 1, "channel": 5, "note": 57, "velocity": 122, "time": 0, "type": "NormalMsg"}, "M_9426": {"note_status": 1, "channel": 5, "note": 57, "velocity": 0, "time": 0, "type": "NormalMsg"}, "M_9427": {"note_status": 1, "channel": 5, "note": 53, "velocity": 122, "time": 0, "type": "NormalMsg"}, "M_9428": {"note_status": 1, "channel": 5, "note": 53, "velocity": 0, "time": 0, "type": "NormalMsg"}, "M_9429": {"note_status": 1, "channel": 5, "note": 50, "velocity": 113, "time": 0, "type": "NormalMsg"}, "M_9430": {"note_status": 1, "channel": 5, "note": 50, "velocity": 0, "time": 0, "type": "NormalMsg"}, "M_9431": {"note_status": 1, "channel": 5, "note": 50, "velocity": 104, "time": 0, "type": "NormalMsg"}, "M_9432": {"note_status": 1, "channel": 5, "note": 50, "velocity": 0, "time": 0, "type": "NormalMsg"}, "M_9433": {"note_status": 1, "channel": 5, "note": 53, "velocity": 113, "time": 0, "type": "NormalMsg"}, "M_9434": {"note_status": 1, "channel": 5, "note": 53, "velocity": 0, "time": 0, "type": "NormalMsg"}, "M_9435": {"note_status": 1, "channel": 5, "note": 50, "velocity": 101, "time": 0, "type": "NormalMsg"}, "M_9436": {"note_status": 1, "channel": 5, "note": 50, "velocity": 0, "time": 0, "type": "NormalMsg"}, "M_9437": {"note_status": 1, "channel": 5, "note": 55, "velocity": 113, "time": 0, "type": "NormalMsg"}, "M_9438": {"note_status": 1, "channel": 5, "note": 55, "velocity": 0, "time": 0, "type": "NormalMsg"}, "M_9439": {"note_status": 1, "channel": 5, "note": 55, "velocity": 113, "time": 0, "type": "NormalMsg"}, "M_9440": {"note_status": 1, "channel": 5, "note": 55, "velocity": 0, "time": 0, "type": "NormalMsg"}, "M_9441": {"note_status": 1, "channel": 5, "note": 59, "velocity": 113, "time": 0, "type": "NormalMsg"}, "M_9442": {"note_status": 1, "channel": 5, "note": 59, "velocity": 0, "time": 0, "type": "NormalMsg"}, "M_9443": {"note_status": 1, "channel": 5, "note": 55, "velocity": 113, "time": 0, "type": "NormalMsg"}, "M_9444": {"note_status": 1, "channel": 5, "note": 55, "velocity": 0, "time": 0, "type": "NormalMsg"}, "M_9445": {"note_status": 1, "channel": 5, "note": 57, "velocity": 117, "time": 0, "type": "NormalMsg"}, "M_9446": {"note_status": 1, "channel": 5, "note": 57, "velocity": 0, "time": 0, "type": "NormalMsg"}, "M_9447": {"note_status": 1, "channel": 5, "note": 57, "velocity": 108, "time": 0, "type": "NormalMsg"}, "M_9448": {"note_status": 1, "channel": 5, "note": 57, "velocity": 0, "time": 0, "type": "NormalMsg"}, "M_9449": {"note_status": 1, "channel": 5, "note": 60, "velocity": 117, "time": 0, "type": "NormalMsg"}, "M_9450": {"note_status": 1, "channel": 5, "note": 60, "velocity": 0, "time": 0, "type": "NormalMsg"}, "M_9451": {"note_status": 1, "channel": 5, "note": 57, "velocity": 113, "time": 0, "type": "NormalMsg"}, "M_9452": {"note_status": 1, "channel": 5, "note": 57, "velocity": 0, "time": 0, "type": "NormalMsg"}, "M_9453": {"note_status": 1, "channel": 5, "note": 53, "velocity": 122, "time": 0, "type": "NormalMsg"}, "M_9454": {"note_status": 1, "channel": 5, "note": 53, "velocity": 0, "time": 0, "type": "NormalMsg"}, "M_9455": {"note_status": 1, "channel": 5, "note": 53, "velocity": 117, "time": 0, "type": "NormalMsg"}, "M_9456": {"note_status": 1, "channel": 5, "note": 53, "velocity": 0, "time": 0, "type": "NormalMsg"}, "M_9457": {"note_status": 1, "channel": 5, "note": 57, "velocity": 122, "time": 0, "type": "NormalMsg"}, "M_9458": {"note_status": 1, "channel": 5, "note": 57, "velocity": 0, "time": 0, "type": "NormalMsg"}, "M_9459": {"note_status": 1, "channel": 5, "note": 53, "velocity": 122, "time": 0, "type": "NormalMsg"}, "M_9460": {"note_status": 1, "channel": 5, "note": 53, "velocity": 0, "time": 0, "type": "NormalMsg"}, "M_9461": {"note_status": 1, "channel": 5, "note": 50, "velocity": 122, "time": 0, "type": "NormalMsg"}, "M_9462": {"note_status": 1, "channel": 5, "note": 50, "velocity": 0, "time": 0, "type": "NormalMsg"}, "M_9463": {"note_status": 1, "channel": 5, "note": 50, "velocity": 113, "time": 0, "type": "NormalMsg"}, "M_9464": {"note_status": 1, "channel": 5, "note": 50, "velocity": 0, "time": 0, "type": "NormalMsg"}, "M_9465": {"note_status": 1, "channel": 5, "note": 53, "velocity": 113, "time": 0, "type": "NormalMsg"}, "M_9466": {"note_status": 1, "channel": 5, "note": 53, "velocity": 0, "time": 0, "type": "NormalMsg"}, "M_9467": {"note_status": 1, "channel": 5, "note": 50, "velocity": 108, "time": 0, "type": "NormalMsg"}, "M_9468": {"note_status": 1, "channel": 5, "note": 50, "velocity": 0, "time": 0, "type": "NormalMsg"}, "M_9469": {"note_status": 1, "channel": 5, "note": 55, "velocity": 113, "time": 0, "type": "NormalMsg"}, "M_9470": {"note_status": 1, "channel": 5, "note": 55, "velocity": 0, "time": 0, "type": "NormalMsg"}, "M_9471": {"note_status": 1, "channel": 5, "note": 55, "velocity": 117, "time": 0, "type": "NormalMsg"}, "M_9472": {"note_status": 1, "channel": 5, "note": 55, "velocity": 0, "time": 0, "type": "NormalMsg"}, "M_9473": {"note_status": 1, "channel": 5, "note": 59, "velocity": 113, "time": 0, "type": "NormalMsg"}, "M_9474": {"note_status": 1, "channel": 5, "note": 59, "velocity": 0, "time": 0, "type": "NormalMsg"}, "M_9475": {"note_status": 1, "channel": 5, "note": 55, "velocity": 117, "time": 0, "type": "NormalMsg"}, "M_9476": {"note_status": 1, "channel": 5, "note": 55, "velocity": 0, "time": 0, "type": "NormalMsg"}, "M_9477": {"note_status": 1, "channel": 5, "note": 57, "velocity": 117, "time": 0, "type": "NormalMsg"}, "M_9478": {"note_status": 1, "channel": 5, "note": 57, "velocity": 0, "time": 0, "type": "NormalMsg"}, "M_9479": {"note_status": 1, "channel": 5, "note": 57, "velocity": 113, "time": 0, "type": "NormalMsg"}, "M_9480": {"note_status": 1, "channel": 5, "note": 57, "velocity": 0, "time": 0, "type": "NormalMsg"}, "M_9481": {"note_status": 1, "channel": 5, "note": 60, "velocity": 117, "time": 0, "type": "NormalMsg"}, "M_9482": {"note_status": 1, "channel": 5, "note": 60, "velocity": 0, "time": 0, "type": "NormalMsg"}, "M_9483": {"note_status": 1, "channel": 5, "note": 57, "velocity": 117, "time": 0, "type": "NormalMsg"}, "M_9484": {"note_status": 1, "channel": 5, "note": 57, "velocity": 0, "time": 0, "type": "NormalMsg"}, "M_9485": {"note_status": 1, "channel": 5, "note": 53, "velocity": 117, "time": 0, "type": "NormalMsg"}, "M_9486": {"note_status": 1, "channel": 5, "note": 53, "velocity": 0, "time": 0, "type": "NormalMsg"}, "M_9487": {"note_status": 1, "channel": 5, "note": 53, "velocity": 108, "time": 0, "type": "NormalMsg"}, "M_9488": {"note_status": 1, "channel": 5, "note": 53, "velocity": 0, "time": 0, "type": "NormalMsg"}, "M_9489": {"note_status": 1, "channel": 5, "note": 57, "velocity": 122, "time": 0, "type": "NormalMsg"}, "M_9490": {"note_status": 1, "channel": 5, "note": 57, "velocity": 0, "time": 0, "type": "NormalMsg"}, "M_9491": {"note_status": 1, "channel": 5, "note": 53, "velocity": 122, "time": 0, "type": "NormalMsg"}, "M_9492": {"note_status": 1, "channel": 5, "note": 53, "velocity": 0, "time": 0, "type": "NormalMsg"}, "M_9493": {"note_status": 1, "channel": 5, "note": 50, "velocity": 113, "time": 0, "type": "NormalMsg"}, "M_9494": {"note_status": 1, "channel": 5, "note": 50, "velocity": 0, "time": 0, "type": "NormalMsg"}, "M_9495": {"note_status": 1, "channel": 5, "note": 50, "velocity": 104, "time": 0, "type": "NormalMsg"}, "M_9496": {"note_status": 1, "channel": 5, "note": 50, "velocity": 0, "time": 0, "type": "NormalMsg"}, "M_9497": {"note_status": 1, "channel": 5, "note": 53, "velocity": 113, "time": 0, "type": "NormalMsg"}, "M_9498": {"note_status": 1, "channel": 5, "note": 53, "velocity": 0, "time": 0, "type": "NormalMsg"}, "M_9499": {"note_status": 1, "channel": 5, "note": 50, "velocity": 101, "time": 0, "type": "NormalMsg"}, "M_9500": {"note_status": 1, "channel": 5, "note": 50, "velocity": 0, "time": 0, "type": "NormalMsg"}, "M_9501": {"note_status": 1, "channel": 5, "note": 55, "velocity": 113, "time": 0, "type": "NormalMsg"}, "M_9502": {"note_status": 1, "channel": 5, "note": 55, "velocity": 0, "time": 0, "type": "NormalMsg"}, "M_9503": {"note_status": 1, "channel": 5, "note": 55, "velocity": 113, "time": 0, "type": "NormalMsg"}, "M_9504": {"note_status": 1, "channel": 5, "note": 55, "velocity": 0, "time": 0, "type": "NormalMsg"}, "M_9505": {"note_status": 1, "channel": 5, "note": 59, "velocity": 113, "time": 0, "type": "NormalMsg"}, "M_9506": {"note_status": 1, "channel": 5, "note": 59, "velocity": 0, "time": 0, "type": "NormalMsg"}, "M_9507": {"note_status": 1, "channel": 5, "note": 55, "velocity": 113, "time": 0, "type": "NormalMsg"}, "M_9508": {"note_status": 1, "channel": 5, "note": 55, "velocity": 0, "time": 0, "type": "NormalMsg"}, "M_9509": {"note_status": 1, "channel": 5, "note": 57, "velocity": 117, "time": 0, "type": "NormalMsg"}, "M_9510": {"note_status": 1, "channel": 5, "note": 57, "velocity": 0, "time": 0, "type": "NormalMsg"}, "M_9511": {"note_status": 1, "channel": 5, "note": 57, "velocity": 108, "time": 0, "type": "NormalMsg"}, "M_9512": {"note_status": 1, "channel": 5, "note": 57, "velocity": 0, "time": 0, "type": "NormalMsg"}, "M_9513": {"note_status": 1, "channel": 5, "note": 60, "velocity": 117, "time": 0, "type": "NormalMsg"}, "M_9514": {"note_status": 1, "channel": 5, "note": 60, "velocity": 0, "time": 0, "type": "NormalMsg"}, "M_9515": {"note_status": 1, "channel": 5, "note": 57, "velocity": 113, "time": 0, "type": "NormalMsg"}, "M_9516": {"note_status": 1, "channel": 5, "note": 57, "velocity": 0, "time": 0, "type": "NormalMsg"}, "M_9517": {"note_status": 1, "channel": 5, "note": 53, "velocity": 122, "time": 0, "type": "NormalMsg"}, "M_9518": {"note_status": 1, "channel": 5, "note": 53, "velocity": 0, "time": 0, "type": "NormalMsg"}, "M_9519": {"note_status": 1, "channel": 5, "note": 53, "velocity": 117, "time": 0, "type": "NormalMsg"}, "M_9520": {"note_status": 1, "channel": 5, "note": 53, "velocity": 0, "time": 0, "type": "NormalMsg"}, "M_9521": {"note_status": 1, "channel": 5, "note": 57, "velocity": 122, "time": 0, "type": "NormalMsg"}, "M_9522": {"note_status": 1, "channel": 5, "note": 57, "velocity": 0, "time": 0, "type": "NormalMsg"}, "M_9523": {"note_status": 1, "channel": 5, "note": 53, "velocity": 122, "time": 0, "type": "NormalMsg"}, "M_9524": {"note_status": 1, "channel": 5, "note": 53, "velocity": 0, "time": 0, "type": "NormalMsg"}, "M_9525": {"note_status": 1, "channel": 5, "note": 55, "velocity": 122, "time": 0, "type": "NormalMsg"}, "M_9526": {"note_status": 1, "channel": 5, "note": 55, "velocity": 0, "time": 0, "type": "NormalMsg"}, "M_9527": {"note_status": 1, "channel": 5, "note": 55, "velocity": 113, "time": 0, "type": "NormalMsg"}, "M_9528": {"note_status": 1, "channel": 5, "note": 55, "velocity": 0, "time": 0, "type": "NormalMsg"}, "M_9529": {"note_status": 1, "channel": 5, "note": 59, "velocity": 113, "time": 0, "type": "NormalMsg"}, "M_9530": {"note_status": 1, "channel": 5, "note": 59, "velocity": 0, "time": 0, "type": "NormalMsg"}, "M_9531": {"note_status": 1, "channel": 5, "note": 55, "velocity": 108, "time": 0, "type": "NormalMsg"}, "M_9532": {"note_status": 1, "channel": 5, "note": 55, "velocity": 0, "time": 0, "type": "NormalMsg"}, "M_9533": {"note_status": 1, "channel": 5, "note": 52, "velocity": 113, "time": 0, "type": "NormalMsg"}, "M_9534": {"note_status": 1, "channel": 5, "note": 52, "velocity": 0, "time": 0, "type": "NormalMsg"}, "M_9535": {"note_status": 1, "channel": 5, "note": 52, "velocity": 117, "time": 0, "type": "NormalMsg"}, "M_9536": {"note_status": 1, "channel": 5, "note": 52, "velocity": 0, "time": 0, "type": "NormalMsg"}, "M_9537": {"note_status": 1, "channel": 5, "note": 55, "velocity": 113, "time": 0, "type": "NormalMsg"}, "M_9538": {"note_status": 1, "channel": 5, "note": 55, "velocity": 0, "time": 0, "type": "NormalMsg"}, "M_9539": {"note_status": 1, "channel": 5, "note": 52, "velocity": 117, "time": 0, "type": "NormalMsg"}, "M_9540": {"note_status": 1, "channel": 5, "note": 52, "velocity": 0, "time": 0, "type": "NormalMsg"}, "M_9541": {"note_status": 1, "channel": 5, "note": 57, "velocity": 117, "time": 0, "type": "NormalMsg"}, "M_9542": {"note_status": 1, "channel": 5, "note": 57, "velocity": 0, "time": 0, "type": "NormalMsg"}, "M_9543": {"note_status": 1, "channel": 5, "note": 57, "velocity": 113, "time": 0, "type": "NormalMsg"}, "M_9544": {"note_status": 1, "channel": 5, "note": 57, "velocity": 0, "time": 0, "type": "NormalMsg"}, "M_9545": {"note_status": 1, "channel": 5, "note": 60, "velocity": 117, "time": 0, "type": "NormalMsg"}, "M_9546": {"note_status": 1, "channel": 5, "note": 60, "velocity": 0, "time": 0, "type": "NormalMsg"}, "M_9547": {"note_status": 1, "channel": 5, "note": 57, "velocity": 117, "time": 0, "type": "NormalMsg"}, "M_9548": {"note_status": 1, "channel": 5, "note": 57, "velocity": 0, "time": 0, "type": "NormalMsg"}, "M_9549": {"note_status": 1, "channel": 5, "note": 53, "velocity": 117, "time": 0, "type": "NormalMsg"}, "M_9550": {"note_status": 1, "channel": 5, "note": 53, "velocity": 0, "time": 0, "type": "NormalMsg"}, "M_9551": {"note_status": 1, "channel": 5, "note": 53, "velocity": 108, "time": 0, "type": "NormalMsg"}, "M_9552": {"note_status": 1, "channel": 5, "note": 53, "velocity": 0, "time": 0, "type": "NormalMsg"}, "M_9553": {"note_status": 1, "channel": 5, "note": 57, "velocity": 122, "time": 0, "type": "NormalMsg"}, "M_9554": {"note_status": 1, "channel": 5, "note": 57, "velocity": 0, "time": 0, "type": "NormalMsg"}, "M_9555": {"note_status": 1, "channel": 5, "note": 53, "velocity": 122, "time": 0, "type": "NormalMsg"}, "M_9556": {"note_status": 1, "channel": 5, "note": 53, "velocity": 0, "time": 0, "type": "NormalMsg"}, "M_9557": {"note_status": 1, "channel": 5, "note": 50, "velocity": 113, "time": 0, "type": "NormalMsg"}, "M_9558": {"note_status": 1, "channel": 5, "note": 50, "velocity": 0, "time": 0, "type": "NormalMsg"}, "M_9559": {"note_status": 1, "channel": 5, "note": 50, "velocity": 104, "time": 0, "type": "NormalMsg"}, "M_9560": {"note_status": 1, "channel": 5, "note": 50, "velocity": 0, "time": 0, "type": "NormalMsg"}, "M_9561": {"note_status": 1, "channel": 5, "note": 53, "velocity": 113, "time": 0, "type": "NormalMsg"}, "M_9562": {"note_status": 1, "channel": 5, "note": 53, "velocity": 0, "time": 0, "type": "NormalMsg"}, "M_9563": {"note_status": 1, "channel": 5, "note": 50, "velocity": 101, "time": 0, "type": "NormalMsg"}, "M_9564": {"note_status": 1, "channel": 5, "note": 50, "velocity": 0, "time": 0, "type": "NormalMsg"}, "M_9565": {"note_status": 1, "channel": 5, "note": 55, "velocity": 113, "time": 0, "type": "NormalMsg"}, "M_9566": {"note_status": 1, "channel": 5, "note": 55, "velocity": 0, "time": 0, "type": "NormalMsg"}, "M_9567": {"note_status": 1, "channel": 5, "note": 55, "velocity": 113, "time": 0, "type": "NormalMsg"}, "M_9568": {"note_status": 1, "channel": 5, "note": 55, "velocity": 0, "time": 0, "type": "NormalMsg"}, "M_9569": {"note_status": 1, "channel": 5, "note": 59, "velocity": 113, "time": 0, "type": "NormalMsg"}, "M_9570": {"note_status": 1, "channel": 5, "note": 59, "velocity": 0, "time": 0, "type": "NormalMsg"}, "M_9571": {"note_status": 1, "channel": 5, "note": 55, "velocity": 113, "time": 0, "type": "NormalMsg"}, "M_9572": {"note_status": 1, "channel": 5, "note": 55, "velocity": 0, "time": 0, "type": "NormalMsg"}, "M_9573": {"note_status": 1, "channel": 5, "note": 57, "velocity": 117, "time": 0, "type": "NormalMsg"}, "M_9574": {"note_status": 1, "channel": 5, "note": 57, "velocity": 0, "time": 0, "type": "NormalMsg"}, "M_9575": {"note_status": 1, "channel": 5, "note": 57, "velocity": 108, "time": 0, "type": "NormalMsg"}, "M_9576": {"note_status": 1, "channel": 5, "note": 57, "velocity": 0, "time": 0, "type": "NormalMsg"}, "M_9577": {"note_status": 1, "channel": 5, "note": 60, "velocity": 117, "time": 0, "type": "NormalMsg"}, "M_9578": {"note_status": 1, "channel": 5, "note": 60, "velocity": 0, "time": 0, "type": "NormalMsg"}, "M_9579": {"note_status": 1, "channel": 5, "note": 57, "velocity": 113, "time": 0, "type": "NormalMsg"}, "M_9580": {"note_status": 1, "channel": 5, "note": 57, "velocity": 0, "time": 0, "type": "NormalMsg"}, "M_9581": {"note_status": 1, "channel": 5, "note": 53, "velocity": 122, "time": 0, "type": "NormalMsg"}, "M_9582": {"note_status": 1, "channel": 5, "note": 53, "velocity": 0, "time": 0, "type": "NormalMsg"}, "M_9583": {"note_status": 1, "channel": 5, "note": 53, "velocity": 117, "time": 0, "type": "NormalMsg"}, "M_9584": {"note_status": 1, "channel": 5, "note": 53, "velocity": 0, "time": 0, "type": "NormalMsg"}, "M_9585": {"note_status": 1, "channel": 5, "note": 57, "velocity": 122, "time": 0, "type": "NormalMsg"}, "M_9586": {"note_status": 1, "channel": 5, "note": 57, "velocity": 0, "time": 0, "type": "NormalMsg"}, "M_9587": {"note_status": 1, "channel": 5, "note": 53, "velocity": 122, "time": 0, "type": "NormalMsg"}, "M_9588": {"note_status": 1, "channel": 5, "note": 53, "velocity": 0, "time": 0, "type": "NormalMsg"}, "M_9589": {"note_status": 1, "channel": 5, "note": 50, "velocity": 122, "time": 0, "type": "NormalMsg"}, "M_9590": {"note_status": 1, "channel": 5, "note": 50, "velocity": 0, "time": 0, "type": "NormalMsg"}, "M_9591": {"note_status": 1, "channel": 5, "note": 50, "velocity": 113, "time": 0, "type": "NormalMsg"}, "M_9592": {"note_status": 1, "channel": 5, "note": 50, "velocity": 0, "time": 0, "type": "NormalMsg"}, "M_9593": {"note_status": 1, "channel": 5, "note": 53, "velocity": 113, "time": 0, "type": "NormalMsg"}, "M_9594": {"note_status": 1, "channel": 5, "note": 53, "velocity": 0, "time": 0, "type": "NormalMsg"}, "M_9595": {"note_status": 1, "channel": 5, "note": 50, "velocity": 108, "time": 0, "type": "NormalMsg"}, "M_9596": {"note_status": 1, "channel": 5, "note": 50, "velocity": 0, "time": 0, "type": "NormalMsg"}, "M_9597": {"note_status": 1, "channel": 5, "note": 55, "velocity": 113, "time": 0, "type": "NormalMsg"}, "M_9598": {"note_status": 1, "channel": 5, "note": 55, "velocity": 0, "time": 0, "type": "NormalMsg"}, "M_9599": {"note_status": 1, "channel": 5, "note": 55, "velocity": 117, "time": 0, "type": "NormalMsg"}, "M_9600": {"note_status": 1, "channel": 5, "note": 55, "velocity": 0, "time": 0, "type": "NormalMsg"}, "M_9601": {"note_status": 1, "channel": 5, "note": 59, "velocity": 113, "time": 0, "type": "NormalMsg"}, "M_9602": {"note_status": 1, "channel": 5, "note": 59, "velocity": 0, "time": 0, "type": "NormalMsg"}, "M_9603": {"note_status": 1, "channel": 5, "note": 55, "velocity": 117, "time": 0, "type": "NormalMsg"}, "M_9604": {"note_status": 1, "channel": 5, "note": 55, "velocity": 0, "time": 0, "type": "NormalMsg"}, "M_9605": {"note_status": 1, "channel": 5, "note": 65, "velocity": 113, "time": 0, "type": "NormalMsg"}, "M_9606": {"note_status": 1, "channel": 5, "note": 69, "velocity": 113, "time": 0, "type": "NormalMsg"}, "M_9607": {"note_status": 1, "channel": 5, "note": 72, "velocity": 108, "time": 0, "type": "NormalMsg"}, "M_9608": {"note_status": 1, "channel": 5, "note": 65, "velocity": 0, "time": 0, "type": "NormalMsg"}, "M_9609": {"note_status": 1, "channel": 5, "note": 69, "velocity": 0, "time": 0, "type": "NormalMsg"}, "M_9610": {"note_status": 1, "channel": 5, "note": 72, "velocity": 0, "time": 0, "type": "NormalMsg"}, "M_9611": {"note_status": 1, "channel": 5, "note": 67, "velocity": 94, "time": 0, "type": "NormalMsg"}, "M_9612": {"note_status": 1, "channel": 5, "note": 71, "velocity": 113, "time": 0, "type": "NormalMsg"}, "M_9613": {"note_status": 1, "channel": 5, "note": 74, "velocity": 117, "time": 0, "type": "NormalMsg"}, "M_9614": {"note_status": 1, "channel": 5, "note": 71, "velocity": 0, "time": 0, "type": "NormalMsg"}, "M_9615": {"note_status": 1, "channel": 5, "note": 74, "velocity": 0, "time": 0, "type": "NormalMsg"}, "M_9616": {"note_status": 1, "channel": 5, "note": 67, "velocity": 0, "time": 0, "type": "NormalMsg"}, "M_9617": {"note_status": 1, "channel": 5, "note": 65, "velocity": 104, "time": 0, "type": "NormalMsg"}, "M_9618": {"note_status": 1, "channel": 5, "note": 69, "velocity": 117, "time": 0, "type": "NormalMsg"}, "M_9619": {"note_status": 1, "channel": 5, "note": 72, "velocity": 113, "time": 0, "type": "NormalMsg"}, "M_9620": {"note_status": 1, "channel": 5, "note": 65, "velocity": 0, "time": 0, "type": "NormalMsg"}, "M_9621": {"note_status": 1, "channel": 5, "note": 69, "velocity": 0, "time": 0, "type": "NormalMsg"}, "M_9622": {"note_status": 1, "channel": 5, "note": 72, "velocity": 0, "time": 0, "type": "NormalMsg"}, "M_9623": {"note_status": 1, "channel": 5, "note": 67, "velocity": 97, "time": 0, "type": "NormalMsg"}, "M_9624": {"note_status": 1, "channel": 5, "note": 72, "velocity": 104, "time": 0, "type": "NormalMsg"}, "M_9625": {"note_status": 1, "channel": 5, "note": 76, "velocity": 108, "time": 0, "type": "NormalMsg"}, "M_9626": {"note_status": 1, "channel": 5, "note": 67, "velocity": 0, "time": 0, "type": "NormalMsg"}, "M_9627": {"note_status": 1, "channel": 5, "note": 72, "velocity": 0, "time": 0, "type": "NormalMsg"}, "M_9628": {"note_status": 1, "channel": 5, "note": 76, "velocity": 0, "time": 0, "type": "NormalMsg"}, "M_9629": {"note_status": 1, "channel": 5, "note": 74, "velocity": 117, "time": 0, "type": "NormalMsg"}, "M_9630": {"note_status": 1, "channel": 5, "note": 67, "velocity": 94, "time": 0, "type": "NormalMsg"}, "M_9631": {"note_status": 1, "channel": 5, "note": 72, "velocity": 113, "time": 0, "type": "NormalMsg"}, "M_9632": {"note_status": 1, "channel": 5, "note": 67, "velocity": 0, "time": 0, "type": "NormalMsg"}, "M_9633": {"note_status": 1, "channel": 5, "note": 72, "velocity": 0, "time": 0, "type": "NormalMsg"}, "M_9634": {"note_status": 1, "channel": 5, "note": 74, "velocity": 0, "time": 0, "type": "NormalMsg"}, "M_9635": {"note_status": 1, "channel": 5, "note": 67, "velocity": 113, "time": 0, "type": "NormalMsg"}, "M_9636": {"note_status": 1, "channel": 5, "note": 71, "velocity": 122, "time": 0, "type": "NormalMsg"}, "M_9637": {"note_status": 1, "channel": 5, "note": 74, "velocity": 127, "time": 0, "type": "NormalMsg"}, "M_9638": {"note_status": 1, "channel": 5, "note": 71, "velocity": 0, "time": 0, "type": "NormalMsg"}, "M_9639": {"note_status": 1, "channel": 5, "note": 67, "velocity": 0, "time": 0, "type": "NormalMsg"}, "M_9640": {"note_status": 1, "channel": 5, "note": 74, "velocity": 0, "time": 0, "type": "NormalMsg"}, "M_9641": {"note_status": 1, "channel": 5, "note": 57, "velocity": 117, "time": 0, "type": "NormalMsg"}, "M_9642": {"note_status": 1, "channel": 5, "note": 57, "velocity": 0, "time": 0, "type": "NormalMsg"}, "M_9643": {"note_status": 1, "channel": 5, "note": 57, "velocity": 113, "time": 0, "type": "NormalMsg"}, "M_9644": {"note_status": 1, "channel": 5, "note": 57, "velocity": 0, "time": 0, "type": "NormalMsg"}, "M_9645": {"note_status": 1, "channel": 5, "note": 60, "velocity": 117, "time": 0, "type": "NormalMsg"}, "M_9646": {"note_status": 1, "channel": 5, "note": 60, "velocity": 0, "time": 0, "type": "NormalMsg"}, "M_9647": {"note_status": 1, "channel": 5, "note": 57, "velocity": 117, "time": 0, "type": "NormalMsg"}, "M_9648": {"note_status": 1, "channel": 5, "note": 57, "velocity": 0, "time": 0, "type": "NormalMsg"}, "M_9649": {"note_status": 1, "channel": 5, "note": 53, "velocity": 117, "time": 0, "type": "NormalMsg"}, "M_9650": {"note_status": 1, "channel": 5, "note": 53, "velocity": 0, "time": 0, "type": "NormalMsg"}, "M_9651": {"note_status": 1, "channel": 5, "note": 53, "velocity": 108, "time": 0, "type": "NormalMsg"}, "M_9652": {"note_status": 1, "channel": 5, "note": 53, "velocity": 0, "time": 0, "type": "NormalMsg"}, "M_9653": {"note_status": 1, "channel": 5, "note": 57, "velocity": 122, "time": 0, "type": "NormalMsg"}, "M_9654": {"note_status": 1, "channel": 5, "note": 57, "velocity": 0, "time": 0, "type": "NormalMsg"}, "M_9655": {"note_status": 1, "channel": 5, "note": 53, "velocity": 122, "time": 0, "type": "NormalMsg"}, "M_9656": {"note_status": 1, "channel": 5, "note": 53, "velocity": 0, "time": 0, "type": "NormalMsg"}, "M_9657": {"note_status": 1, "channel": 5, "note": 50, "velocity": 113, "time": 0, "type": "NormalMsg"}, "M_9658": {"note_status": 1, "channel": 5, "note": 50, "velocity": 0, "time": 0, "type": "NormalMsg"}, "M_9659": {"note_status": 1, "channel": 5, "note": 50, "velocity": 104, "time": 0, "type": "NormalMsg"}, "M_9660": {"note_status": 1, "channel": 5, "note": 50, "velocity": 0, "time": 0, "type": "NormalMsg"}, "M_9661": {"note_status": 1, "channel": 5, "note": 53, "velocity": 113, "time": 0, "type": "NormalMsg"}, "M_9662": {"note_status": 1, "channel": 5, "note": 53, "velocity": 0, "time": 0, "type": "NormalMsg"}, "M_9663": {"note_status": 1, "channel": 5, "note": 50, "velocity": 101, "time": 0, "type": "NormalMsg"}, "M_9664": {"note_status": 1, "channel": 5, "note": 50, "velocity": 0, "time": 0, "type": "NormalMsg"}, "M_9665": {"note_status": 1, "channel": 5, "note": 55, "velocity": 113, "time": 0, "type": "NormalMsg"}, "M_9666": {"note_status": 1, "channel": 5, "note": 55, "velocity": 0, "time": 0, "type": "NormalMsg"}, "M_9667": {"note_status": 1, "channel": 5, "note": 55, "velocity": 113, "time": 0, "type": "NormalMsg"}, "M_9668": {"note_status": 1, "channel": 5, "note": 55, "velocity": 0, "time": 0, "type": "NormalMsg"}, "M_9669": {"note_status": 1, "channel": 5, "note": 59, "velocity": 113, "time": 0, "type": "NormalMsg"}, "M_9670": {"note_status": 1, "channel": 5, "note": 59, "velocity": 0, "time": 0, "type": "NormalMsg"}, "M_9671": {"note_status": 1, "channel": 5, "note": 55, "velocity": 113, "time": 0, "type": "NormalMsg"}, "M_9672": {"note_status": 1, "channel": 5, "note": 55, "velocity": 0, "time": 0, "type": "NormalMsg"}, "M_9673": {"note_status": 1, "channel": 5, "note": 57, "velocity": 117, "time": 0, "type": "NormalMsg"}, "M_9674": {"note_status": 1, "channel": 5, "note": 57, "velocity": 0, "time": 0, "type": "NormalMsg"}, "M_9675": {"note_status": 1, "channel": 5, "note": 57, "velocity": 108, "time": 0, "type": "NormalMsg"}, "M_9676": {"note_status": 1, "channel": 5, "note": 57, "velocity": 0, "time": 0, "type": "NormalMsg"}, "M_9677": {"note_status": 1, "channel": 5, "note": 60, "velocity": 117, "time": 0, "type": "NormalMsg"}, "M_9678": {"note_status": 1, "channel": 5, "note": 60, "velocity": 0, "time": 0, "type": "NormalMsg"}, "M_9679": {"note_status": 1, "channel": 5, "note": 57, "velocity": 113, "time": 0, "type": "NormalMsg"}, "M_9680": {"note_status": 1, "channel": 5, "note": 57, "velocity": 0, "time": 0, "type": "NormalMsg"}, "M_9681": {"note_status": 1, "channel": 5, "note": 53, "velocity": 122, "time": 0, "type": "NormalMsg"}, "M_9682": {"note_status": 1, "channel": 5, "note": 53, "velocity": 0, "time": 0, "type": "NormalMsg"}, "M_9683": {"note_status": 1, "channel": 5, "note": 53, "velocity": 117, "time": 0, "type": "NormalMsg"}, "M_9684": {"note_status": 1, "channel": 5, "note": 53, "velocity": 0, "time": 0, "type": "NormalMsg"}, "M_9685": {"note_status": 1, "channel": 5, "note": 57, "velocity": 122, "time": 0, "type": "NormalMsg"}, "M_9686": {"note_status": 1, "channel": 5, "note": 57, "velocity": 0, "time": 0, "type": "NormalMsg"}, "M_9687": {"note_status": 1, "channel": 5, "note": 53, "velocity": 122, "time": 0, "type": "NormalMsg"}, "M_9688": {"note_status": 1, "channel": 5, "note": 53, "velocity": 0, "time": 0, "type": "NormalMsg"}, "M_9689": {"note_status": 1, "channel": 5, "note": 55, "velocity": 113, "time": 0, "type": "NormalMsg"}, "M_9690": {"note_status": 1, "channel": 5, "note": 55, "velocity": 0, "time": 0, "type": "NormalMsg"}, "M_9691": {"note_status": 1, "channel": 5, "note": 55, "velocity": 117, "time": 0, "type": "NormalMsg"}, "M_9692": {"note_status": 1, "channel": 5, "note": 55, "velocity": 0, "time": 0, "type": "NormalMsg"}, "M_9693": {"note_status": 1, "channel": 5, "note": 59, "velocity": 113, "time": 0, "type": "NormalMsg"}, "M_9694": {"note_status": 1, "channel": 5, "note": 59, "velocity": 0, "time": 0, "type": "NormalMsg"}, "M_9695": {"note_status": 1, "channel": 5, "note": 55, "velocity": 117, "time": 0, "type": "NormalMsg"}, "M_9696": {"note_status": 1, "channel": 5, "note": 55, "velocity": 0, "time": 0, "type": "NormalMsg"}, "M_9697": {"note_status": 1, "channel": 5, "note": 57, "velocity": 117, "time": 0, "type": "NormalMsg"}, "M_9698": {"note_status": 1, "channel": 5, "note": 57, "velocity": 0, "time": 0, "type": "NormalMsg"}, "M_9699": {"note_status": 1, "channel": 5, "note": 57, "velocity": 113, "time": 0, "type": "NormalMsg"}, "M_9700": {"note_status": 1, "channel": 5, "note": 57, "velocity": 0, "time": 0, "type": "NormalMsg"}, "M_9701": {"note_status": 1, "channel": 5, "note": 60, "velocity": 117, "time": 0, "type": "NormalMsg"}, "M_9702": {"note_status": 1, "channel": 5, "note": 60, "velocity": 0, "time": 0, "type": "NormalMsg"}, "M_9703": {"note_status": 1, "channel": 5, "note": 57, "velocity": 117, "time": 0, "type": "NormalMsg"}, "M_9704": {"note_status": 1, "channel": 5, "note": 57, "velocity": 0, "time": 0, "type": "NormalMsg"}, "M_9705": {"note_status": 1, "channel": 5, "note": 53, "velocity": 117, "time": 0, "type": "NormalMsg"}, "M_9706": {"note_status": 1, "channel": 5, "note": 53, "velocity": 0, "time": 0, "type": "NormalMsg"}, "M_9707": {"note_status": 1, "channel": 5, "note": 53, "velocity": 108, "time": 0, "type": "NormalMsg"}, "M_9708": {"note_status": 1, "channel": 5, "note": 53, "velocity": 0, "time": 0, "type": "NormalMsg"}, "M_9709": {"note_status": 1, "channel": 5, "note": 57, "velocity": 122, "time": 0, "type": "NormalMsg"}, "M_9710": {"note_status": 1, "channel": 5, "note": 57, "velocity": 0, "time": 0, "type": "NormalMsg"}, "M_9711": {"note_status": 1, "channel": 5, "note": 53, "velocity": 122, "time": 0, "type": "NormalMsg"}, "M_9712": {"note_status": 1, "channel": 5, "note": 53, "velocity": 0, "time": 0, "type": "NormalMsg"}, "M_9713": {"note_status": 1, "channel": 5, "note": 50, "velocity": 113, "time": 0, "type": "NormalMsg"}, "M_9714": {"note_status": 1, "channel": 5, "note": 50, "velocity": 0, "time": 0, "type": "NormalMsg"}, "M_9715": {"note_status": 1, "channel": 5, "note": 50, "velocity": 104, "time": 0, "type": "NormalMsg"}, "M_9716": {"note_status": 1, "channel": 5, "note": 50, "velocity": 0, "time": 0, "type": "NormalMsg"}, "M_9717": {"note_status": 1, "channel": 5, "note": 53, "velocity": 113, "time": 0, "type": "NormalMsg"}, "M_9718": {"note_status": 1, "channel": 5, "note": 53, "velocity": 0, "time": 0, "type": "NormalMsg"}, "M_9719": {"note_status": 1, "channel": 5, "note": 50, "velocity": 101, "time": 0, "type": "NormalMsg"}, "M_9720": {"note_status": 1, "channel": 5, "note": 50, "velocity": 0, "time": 0, "type": "NormalMsg"}, "M_9721": {"note_status": 1, "channel": 5, "note": 55, "velocity": 113, "time": 0, "type": "NormalMsg"}, "M_9722": {"note_status": 1, "channel": 5, "note": 55, "velocity": 0, "time": 0, "type": "NormalMsg"}, "M_9723": {"note_status": 1, "channel": 5, "note": 55, "velocity": 113, "time": 0, "type": "NormalMsg"}, "M_9724": {"note_status": 1, "channel": 5, "note": 55, "velocity": 0, "time": 0, "type": "NormalMsg"}, "M_9725": {"note_status": 1, "channel": 5, "note": 59, "velocity": 113, "time": 0, "type": "NormalMsg"}, "M_9726": {"note_status": 1, "channel": 5, "note": 59, "velocity": 0, "time": 0, "type": "NormalMsg"}, "M_9727": {"note_status": 1, "channel": 5, "note": 55, "velocity": 113, "time": 0, "type": "NormalMsg"}, "M_9728": {"note_status": 1, "channel": 5, "note": 55, "velocity": 0, "time": 0, "type": "NormalMsg"}, "M_9729": {"note_status": 1, "channel": 5, "note": 57, "velocity": 117, "time": 0, "type": "NormalMsg"}, "M_9730": {"note_status": 1, "channel": 5, "note": 57, "velocity": 0, "time": 0, "type": "NormalMsg"}, "M_9731": {"note_status": 1, "channel": 5, "note": 57, "velocity": 108, "time": 0, "type": "NormalMsg"}, "M_9732": {"note_status": 1, "channel": 5, "note": 57, "velocity": 0, "time": 0, "type": "NormalMsg"}, "M_9733": {"note_status": 1, "channel": 5, "note": 60, "velocity": 117, "time": 0, "type": "NormalMsg"}, "M_9734": {"note_status": 1, "channel": 5, "note": 60, "velocity": 0, "time": 0, "type": "NormalMsg"}, "M_9735": {"note_status": 1, "channel": 5, "note": 57, "velocity": 113, "time": 0, "type": "NormalMsg"}, "M_9736": {"note_status": 1, "channel": 5, "note": 57, "velocity": 0, "time": 0, "type": "NormalMsg"}, "M_9737": {"note_status": 1, "channel": 5, "note": 53, "velocity": 122, "time": 0, "type": "NormalMsg"}, "M_9738": {"note_status": 1, "channel": 5, "note": 53, "velocity": 0, "time": 0, "type": "NormalMsg"}, "M_9739": {"note_status": 1, "channel": 5, "note": 53, "velocity": 117, "time": 0, "type": "NormalMsg"}, "M_9740": {"note_status": 1, "channel": 5, "note": 53, "velocity": 0, "time": 0, "type": "NormalMsg"}, "M_9741": {"note_status": 1, "channel": 5, "note": 57, "velocity": 122, "time": 0, "type": "NormalMsg"}, "M_9742": {"note_status": 1, "channel": 5, "note": 57, "velocity": 0, "time": 0, "type": "NormalMsg"}, "M_9743": {"note_status": 1, "channel": 5, "note": 53, "velocity": 122, "time": 0, "type": "NormalMsg"}, "M_9744": {"note_status": 1, "channel": 5, "note": 53, "velocity": 0, "time": 0, "type": "NormalMsg"}, "M_9745": {"note_status": 1, "channel": 5, "note": 50, "velocity": 122, "time": 0, "type": "NormalMsg"}, "M_9746": {"note_status": 1, "channel": 5, "note": 50, "velocity": 0, "time": 0, "type": "NormalMsg"}, "M_9747": {"note_status": 1, "channel": 5, "note": 50, "velocity": 113, "time": 0, "type": "NormalMsg"}, "M_9748": {"note_status": 1, "channel": 5, "note": 50, "velocity": 0, "time": 0, "type": "NormalMsg"}, "M_9749": {"note_status": 1, "channel": 5, "note": 53, "velocity": 113, "time": 0, "type": "NormalMsg"}, "M_9750": {"note_status": 1, "channel": 5, "note": 53, "velocity": 0, "time": 0, "type": "NormalMsg"}, "M_9751": {"note_status": 1, "channel": 5, "note": 50, "velocity": 108, "time": 0, "type": "NormalMsg"}, "M_9752": {"note_status": 1, "channel": 5, "note": 50, "velocity": 0, "time": 0, "type": "NormalMsg"}, "M_9753": {"note_status": 1, "channel": 5, "note": 55, "velocity": 113, "time": 0, "type": "NormalMsg"}, "M_9754": {"note_status": 1, "channel": 5, "note": 55, "velocity": 0, "time": 0, "type": "NormalMsg"}, "M_9755": {"note_status": 1, "channel": 5, "note": 55, "velocity": 117, "time": 0, "type": "NormalMsg"}, "M_9756": {"note_status": 1, "channel": 5, "note": 55, "velocity": 0, "time": 0, "type": "NormalMsg"}, "M_9757": {"note_status": 1, "channel": 5, "note": 59, "velocity": 113, "time": 0, "type": "NormalMsg"}, "M_9758": {"note_status": 1, "channel": 5, "note": 59, "velocity": 0, "time": 0, "type": "NormalMsg"}, "M_9759": {"note_status": 1, "channel": 5, "note": 55, "velocity": 117, "time": 0, "type": "NormalMsg"}, "M_9760": {"note_status": 1, "channel": 5, "note": 55, "velocity": 0, "time": 0, "type": "NormalMsg"}, "M_9761": {"note_status": 1, "channel": 5, "note": 57, "velocity": 117, "time": 0, "type": "NormalMsg"}, "M_9762": {"note_status": 1, "channel": 5, "note": 57, "velocity": 0, "time": 0, "type": "NormalMsg"}, "M_9763": {"note_status": 1, "channel": 5, "note": 57, "velocity": 113, "time": 0, "type": "NormalMsg"}, "M_9764": {"note_status": 1, "channel": 5, "note": 57, "velocity": 0, "time": 0, "type": "NormalMsg"}, "M_9765": {"note_status": 1, "channel": 5, "note": 60, "velocity": 117, "time": 0, "type": "NormalMsg"}, "M_9766": {"note_status": 1, "channel": 5, "note": 60, "velocity": 0, "time": 0, "type": "NormalMsg"}, "M_9767": {"note_status": 1, "channel": 5, "note": 57, "velocity": 117, "time": 0, "type": "NormalMsg"}, "M_9768": {"note_status": 1, "channel": 5, "note": 57, "velocity": 0, "time": 0, "type": "NormalMsg"}, "M_9769": {"note_status": 1, "channel": 5, "note": 53, "velocity": 117, "time": 0, "type": "NormalMsg"}, "M_9770": {"note_status": 1, "channel": 5, "note": 53, "velocity": 0, "time": 0, "type": "NormalMsg"}, "M_9771": {"note_status": 1, "channel": 5, "note": 53, "velocity": 108, "time": 0, "type": "NormalMsg"}, "M_9772": {"note_status": 1, "channel": 5, "note": 53, "velocity": 0, "time": 0, "type": "NormalMsg"}, "M_9773": {"note_status": 1, "channel": 5, "note": 57, "velocity": 122, "time": 0, "type": "NormalMsg"}, "M_9774": {"note_status": 1, "channel": 5, "note": 57, "velocity": 0, "time": 0, "type": "NormalMsg"}, "M_9775": {"note_status": 1, "channel": 5, "note": 53, "velocity": 122, "time": 0, "type": "NormalMsg"}, "M_9776": {"note_status": 1, "channel": 5, "note": 53, "velocity": 0, "time": 0, "type": "NormalMsg"}, "M_9777": {"note_status": 1, "channel": 5, "note": 50, "velocity": 113, "time": 0, "type": "NormalMsg"}, "M_9778": {"note_status": 1, "channel": 5, "note": 50, "velocity": 0, "time": 0, "type": "NormalMsg"}, "M_9779": {"note_status": 1, "channel": 5, "note": 50, "velocity": 104, "time": 0, "type": "NormalMsg"}, "M_9780": {"note_status": 1, "channel": 5, "note": 50, "velocity": 0, "time": 0, "type": "NormalMsg"}, "M_9781": {"note_status": 1, "channel": 5, "note": 53, "velocity": 113, "time": 0, "type": "NormalMsg"}, "M_9782": {"note_status": 1, "channel": 5, "note": 53, "velocity": 0, "time": 0, "type": "NormalMsg"}, "M_9783": {"note_status": 1, "channel": 5, "note": 50, "velocity": 101, "time": 0, "type": "NormalMsg"}, "M_9784": {"note_status": 1, "channel": 5, "note": 50, "velocity": 0, "time": 0, "type": "NormalMsg"}, "M_9785": {"note_status": 1, "channel": 5, "note": 55, "velocity": 113, "time": 0, "type": "NormalMsg"}, "M_9786": {"note_status": 1, "channel": 5, "note": 55, "velocity": 0, "time": 0, "type": "NormalMsg"}, "M_9787": {"note_status": 1, "channel": 5, "note": 55, "velocity": 113, "time": 0, "type": "NormalMsg"}, "M_9788": {"note_status": 1, "channel": 5, "note": 55, "velocity": 0, "time": 0, "type": "NormalMsg"}, "M_9789": {"note_status": 1, "channel": 5, "note": 59, "velocity": 113, "time": 0, "type": "NormalMsg"}, "M_9790": {"note_status": 1, "channel": 5, "note": 59, "velocity": 0, "time": 0, "type": "NormalMsg"}, "M_9791": {"note_status": 1, "channel": 5, "note": 55, "velocity": 113, "time": 0, "type": "NormalMsg"}, "M_9792": {"note_status": 1, "channel": 5, "note": 55, "velocity": 0, "time": 0, "type": "NormalMsg"}, "M_9793": {"note_status": 1, "channel": 5, "note": 57, "velocity": 117, "time": 0, "type": "NormalMsg"}, "M_9794": {"note_status": 1, "channel": 5, "note": 57, "velocity": 0, "time": 0, "type": "NormalMsg"}, "M_9795": {"note_status": 1, "channel": 5, "note": 57, "velocity": 113, "time": 0, "type": "NormalMsg"}, "M_9796": {"note_status": 1, "channel": 5, "note": 57, "velocity": 0, "time": 0, "type": "NormalMsg"}, "M_9797": {"note_status": 1, "channel": 5, "note": 60, "velocity": 117, "time": 0, "type": "NormalMsg"}, "M_9798": {"note_status": 1, "channel": 5, "note": 60, "velocity": 0, "time": 0, "type": "NormalMsg"}, "M_9799": {"note_status": 1, "channel": 5, "note": 57, "velocity": 117, "time": 0, "type": "NormalMsg"}, "M_9800": {"note_status": 1, "channel": 5, "note": 57, "velocity": 0, "time": 0, "type": "NormalMsg"}, "M_9801": {"note_status": 1, "channel": 5, "note": 53, "velocity": 117, "time": 0, "type": "NormalMsg"}, "M_9802": {"note_status": 1, "channel": 5, "note": 53, "velocity": 0, "time": 0, "type": "NormalMsg"}, "M_9803": {"note_status": 1, "channel": 5, "note": 53, "velocity": 108, "time": 0, "type": "NormalMsg"}, "M_9804": {"note_status": 1, "channel": 5, "note": 53, "velocity": 0, "time": 0, "type": "NormalMsg"}, "M_9805": {"note_status": 1, "channel": 5, "note": 57, "velocity": 122, "time": 0, "type": "NormalMsg"}, "M_9806": {"note_status": 1, "channel": 5, "note": 57, "velocity": 0, "time": 0, "type": "NormalMsg"}, "M_9807": {"note_status": 1, "channel": 5, "note": 53, "velocity": 122, "time": 0, "type": "NormalMsg"}, "M_9808": {"note_status": 1, "channel": 5, "note": 53, "velocity": 0, "time": 0, "type": "NormalMsg"}, "M_9809": {"note_status": 1, "channel": 5, "note": 50, "velocity": 113, "time": 0, "type": "NormalMsg"}, "M_9810": {"note_status": 1, "channel": 5, "note": 50, "velocity": 0, "time": 0, "type": "NormalMsg"}, "M_9811": {"note_status": 1, "channel": 5, "note": 50, "velocity": 104, "time": 0, "type": "NormalMsg"}, "M_9812": {"note_status": 1, "channel": 5, "note": 50, "velocity": 0, "time": 0, "type": "NormalMsg"}, "M_9813": {"note_status": 1, "channel": 5, "note": 53, "velocity": 113, "time": 0, "type": "NormalMsg"}, "M_9814": {"note_status": 1, "channel": 5, "note": 53, "velocity": 0, "time": 0, "type": "NormalMsg"}, "M_9815": {"note_status": 1, "channel": 5, "note": 50, "velocity": 101, "time": 0, "type": "NormalMsg"}, "M_9816": {"note_status": 1, "channel": 5, "note": 50, "velocity": 0, "time": 0, "type": "NormalMsg"}, "M_9817": {"note_status": 1, "channel": 5, "note": 55, "velocity": 113, "time": 0, "type": "NormalMsg"}, "M_9818": {"note_status": 1, "channel": 5, "note": 55, "velocity": 0, "time": 0, "type": "NormalMsg"}, "M_9819": {"note_status": 1, "channel": 5, "note": 55, "velocity": 113, "time": 0, "type": "NormalMsg"}, "M_9820": {"note_status": 1, "channel": 5, "note": 55, "velocity": 0, "time": 0, "type": "NormalMsg"}, "M_9821": {"note_status": 1, "channel": 5, "note": 59, "velocity": 113, "time": 0, "type": "NormalMsg"}, "M_9822": {"note_status": 1, "channel": 5, "note": 59, "velocity": 0, "time": 0, "type": "NormalMsg"}, "M_9823": {"note_status": 1, "channel": 5, "note": 55, "velocity": 113, "time": 0, "type": "NormalMsg"}, "M_9824": {"note_status": 1, "channel": 5, "note": 55, "velocity": 0, "time": 0, "type": "NormalMsg"}, "M_9825": {"note_status": 1, "channel": 5, "note": 53, "velocity": 117, "time": 0, "type": "NormalMsg"}, "M_9826": {"note_status": 1, "channel": 5, "note": 53, "velocity": 0, "time": 0, "type": "NormalMsg"}, "M_9827": {"note_status": 1, "channel": 5, "note": 53, "velocity": 108, "time": 0, "type": "NormalMsg"}, "M_9828": {"note_status": 1, "channel": 5, "note": 53, "velocity": 0, "time": 0, "type": "NormalMsg"}, "M_9829": {"note_status": 1, "channel": 5, "note": 53, "velocity": 117, "time": 0, "type": "NormalMsg"}, "M_9830": {"note_status": 1, "channel": 5, "note": 53, "velocity": 0, "time": 0, "type": "NormalMsg"}, "M_9831": {"note_status": 1, "channel": 5, "note": 50, "velocity": 113, "time": 0, "type": "NormalMsg"}, "M_9832": {"note_status": 1, "channel": 5, "note": 50, "velocity": 0, "time": 0, "type": "NormalMsg"}, "M_9833": {"note_status": 1, "channel": 5, "note": 50, "velocity": 117, "time": 0, "type": "NormalMsg"}, "M_9834": {"note_status": 1, "channel": 5, "note": 50, "velocity": 0, "time": 0, "type": "NormalMsg"}, "M_9835": {"note_status": 1, "channel": 5, "note": 50, "velocity": 122, "time": 0, "type": "NormalMsg"}, "M_9836": {"note_status": 1, "channel": 5, "note": 50, "velocity": 0, "time": 0, "type": "NormalMsg"}, "M_9837": {"note_status": 1, "channel": 5, "note": 53, "velocity": 122, "time": 0, "type": "NormalMsg"}, "M_9838": {"note_status": 1, "channel": 5, "note": 53, "velocity": 0, "time": 0, "type": "NormalMsg"}, "M_9839": {"note_status": 1, "channel": 5, "note": 53, "velocity": 113, "time": 0, "type": "NormalMsg"}, "M_9840": {"note_status": 1, "channel": 5, "note": 53, "velocity": 0, "time": 0, "type": "NormalMsg"}, "M_9841": {"note_status": 1, "channel": 5, "note": 53, "velocity": 113, "time": 0, "type": "NormalMsg"}, "M_9842": {"note_status": 1, "channel": 5, "note": 53, "velocity": 0, "time": 0, "type": "NormalMsg"}, "M_9843": {"note_status": 1, "channel": 5, "note": 50, "velocity": 108, "time": 0, "type": "NormalMsg"}, "M_9844": {"note_status": 1, "channel": 5, "note": 50, "velocity": 0, "time": 0, "type": "NormalMsg"}, "M_9845": {"note_status": 1, "channel": 5, "note": 50, "velocity": 117, "time": 0, "type": "NormalMsg"}, "M_9846": {"note_status": 1, "channel": 5, "note": 50, "velocity": 0, "time": 0, "type": "NormalMsg"}, "M_9847": {"note_status": 1, "channel": 5, "note": 50, "velocity": 117, "time": 0, "type": "NormalMsg"}, "M_9848": {"note_status": 1, "channel": 5, "note": 50, "velocity": 0, "time": 0, "type": "NormalMsg"}, "M_9849": {"note_status": 1, "channel": 5, "note": 53, "velocity": 122, "time": 0, "type": "NormalMsg"}, "M_9850": {"note_status": 1, "channel": 5, "note": 53, "velocity": 0, "time": 0, "type": "NormalMsg"}, "M_9851": {"note_status": 1, "channel": 5, "note": 53, "velocity": 113, "time": 0, "type": "NormalMsg"}, "M_9852": {"note_status": 1, "channel": 5, "note": 53, "velocity": 0, "time": 0, "type": "NormalMsg"}, "M_9853": {"note_status": 1, "channel": 5, "note": 53, "velocity": 113, "time": 0, "type": "NormalMsg"}, "M_9854": {"note_status": 1, "channel": 5, "note": 53, "velocity": 0, "time": 0, "type": "NormalMsg"}, "M_9855": {"note_status": 1, "channel": 5, "note": 50, "velocity": 108, "time": 0, "type": "NormalMsg"}, "M_9856": {"note_status": 1, "channel": 5, "note": 50, "velocity": 0, "time": 0, "type": "NormalMsg"}, "M_9857": {"note_status": 1, "channel": 5, "note": 50, "velocity": 117, "time": 0, "type": "NormalMsg"}, "M_9858": {"note_status": 1, "channel": 5, "note": 50, "velocity": 0, "time": 0, "type": "NormalMsg"}, "M_9859": {"note_status": 1, "channel": 5, "note": 50, "velocity": 117, "time": 0, "type": "NormalMsg"}, "M_9860": {"note_status": 1, "channel": 5, "note": 50, "velocity": 0, "time": 0, "type": "NormalMsg"}, "M_9861": {"note_status": 1, "channel": 5, "note": 57, "velocity": 117, "time": 0, "type": "NormalMsg"}, "M_9862": {"note_status": 1, "channel": 5, "note": 57, "velocity": 0, "time": 0, "type": "NormalMsg"}, "M_9863": {"note_status": 1, "channel": 5, "note": 57, "velocity": 113, "time": 0, "type": "NormalMsg"}, "M_9864": {"note_status": 1, "channel": 5, "note": 57, "velocity": 0, "time": 0, "type": "NormalMsg"}, "M_9865": {"note_status": 1, "channel": 5, "note": 60, "velocity": 117, "time": 0, "type": "NormalMsg"}, "M_9866": {"note_status": 1, "channel": 5, "note": 60, "velocity": 0, "time": 0, "type": "NormalMsg"}, "M_9867": {"note_status": 1, "channel": 5, "note": 57, "velocity": 117, "time": 0, "type": "NormalMsg"}, "M_9868": {"note_status": 1, "channel": 5, "note": 57, "velocity": 0, "time": 0, "type": "NormalMsg"}, "M_9869": {"note_status": 1, "channel": 5, "note": 53, "velocity": 117, "time": 0, "type": "NormalMsg"}, "M_9870": {"note_status": 1, "channel": 5, "note": 53, "velocity": 0, "time": 0, "type": "NormalMsg"}, "M_9871": {"note_status": 1, "channel": 5, "note": 53, "velocity": 108, "time": 0, "type": "NormalMsg"}, "M_9872": {"note_status": 1, "channel": 5, "note": 53, "velocity": 0, "time": 0, "type": "NormalMsg"}, "M_9873": {"note_status": 1, "channel": 5, "note": 57, "velocity": 122, "time": 0, "type": "NormalMsg"}, "M_9874": {"note_status": 1, "channel": 5, "note": 57, "velocity": 0, "time": 0, "type": "NormalMsg"}, "M_9875": {"note_status": 1, "channel": 5, "note": 53, "velocity": 122, "time": 0, "type": "NormalMsg"}, "M_9876": {"note_status": 1, "channel": 5, "note": 53, "velocity": 0, "time": 0, "type": "NormalMsg"}, "M_9877": {"note_status": 1, "channel": 5, "note": 50, "velocity": 113, "time": 0, "type": "NormalMsg"}, "M_9878": {"note_status": 1, "channel": 5, "note": 50, "velocity": 0, "time": 0, "type": "NormalMsg"}, "M_9879": {"note_status": 1, "channel": 5, "note": 50, "velocity": 104, "time": 0, "type": "NormalMsg"}, "M_9880": {"note_status": 1, "channel": 5, "note": 50, "velocity": 0, "time": 0, "type": "NormalMsg"}, "M_9881": {"note_status": 1, "channel": 5, "note": 53, "velocity": 113, "time": 0, "type": "NormalMsg"}, "M_9882": {"note_status": 1, "channel": 5, "note": 53, "velocity": 0, "time": 0, "type": "NormalMsg"}, "M_9883": {"note_status": 1, "channel": 5, "note": 50, "velocity": 101, "time": 0, "type": "NormalMsg"}, "M_9884": {"note_status": 1, "channel": 5, "note": 50, "velocity": 0, "time": 0, "type": "NormalMsg"}, "M_9885": {"note_status": 1, "channel": 5, "note": 55, "velocity": 113, "time": 0, "type": "NormalMsg"}, "M_9886": {"note_status": 1, "channel": 5, "note": 55, "velocity": 0, "time": 0, "type": "NormalMsg"}, "M_9887": {"note_status": 1, "channel": 5, "note": 55, "velocity": 113, "time": 0, "type": "NormalMsg"}, "M_9888": {"note_status": 1, "channel": 5, "note": 55, "velocity": 0, "time": 0, "type": "NormalMsg"}, "M_9889": {"note_status": 1, "channel": 5, "note": 59, "velocity": 113, "time": 0, "type": "NormalMsg"}, "M_9890": {"note_status": 1, "channel": 5, "note": 59, "velocity": 0, "time": 0, "type": "NormalMsg"}, "M_9891": {"note_status": 1, "channel": 5, "note": 55, "velocity": 113, "time": 0, "type": "NormalMsg"}, "M_9892": {"note_status": 1, "channel": 5, "note": 55, "velocity": 0, "time": 0, "type": "NormalMsg"}, "M_9893": {"note_status": 1, "channel": 5, "note": 57, "velocity": 117, "time": 0, "type": "NormalMsg"}, "M_9894": {"note_status": 1, "channel": 5, "note": 57, "velocity": 0, "time": 0, "type": "NormalMsg"}, "M_9895": {"note_status": 1, "channel": 5, "note": 57, "velocity": 108, "time": 0, "type": "NormalMsg"}, "M_9896": {"note_status": 1, "channel": 5, "note": 57, "velocity": 0, "time": 0, "type": "NormalMsg"}, "M_9897": {"note_status": 1, "channel": 5, "note": 60, "velocity": 117, "time": 0, "type": "NormalMsg"}, "M_9898": {"note_status": 1, "channel": 5, "note": 60, "velocity": 0, "time": 0, "type": "NormalMsg"}, "M_9899": {"note_status": 1, "channel": 5, "note": 57, "velocity": 113, "time": 0, "type": "NormalMsg"}, "M_9900": {"note_status": 1, "channel": 5, "note": 57, "velocity": 0, "time": 0, "type": "NormalMsg"}, "M_9901": {"note_status": 1, "channel": 5, "note": 53, "velocity": 122, "time": 0, "type": "NormalMsg"}, "M_9902": {"note_status": 1, "channel": 5, "note": 53, "velocity": 0, "time": 0, "type": "NormalMsg"}, "M_9903": {"note_status": 1, "channel": 5, "note": 53, "velocity": 117, "time": 0, "type": "NormalMsg"}, "M_9904": {"note_status": 1, "channel": 5, "note": 53, "velocity": 0, "time": 0, "type": "NormalMsg"}, "M_9905": {"note_status": 1, "channel": 5, "note": 57, "velocity": 122, "time": 0, "type": "NormalMsg"}, "M_9906": {"note_status": 1, "channel": 5, "note": 57, "velocity": 0, "time": 0, "type": "NormalMsg"}, "M_9907": {"note_status": 1, "channel": 5, "note": 53, "velocity": 122, "time": 0, "type": "NormalMsg"}, "M_9908": {"note_status": 1, "channel": 5, "note": 53, "velocity": 0, "time": 0, "type": "NormalMsg"}, "M_9909": {"note_status": 1, "channel": 5, "note": 50, "velocity": 122, "time": 0, "type": "NormalMsg"}, "M_9910": {"note_status": 1, "channel": 5, "note": 50, "velocity": 0, "time": 0, "type": "NormalMsg"}, "M_9911": {"note_status": 1, "channel": 5, "note": 50, "velocity": 113, "time": 0, "type": "NormalMsg"}, "M_9912": {"note_status": 1, "channel": 5, "note": 50, "velocity": 0, "time": 0, "type": "NormalMsg"}, "M_9913": {"note_status": 1, "channel": 5, "note": 53, "velocity": 113, "time": 0, "type": "NormalMsg"}, "M_9914": {"note_status": 1, "channel": 5, "note": 53, "velocity": 0, "time": 0, "type": "NormalMsg"}, "M_9915": {"note_status": 1, "channel": 5, "note": 50, "velocity": 108, "time": 0, "type": "NormalMsg"}, "M_9916": {"note_status": 1, "channel": 5, "note": 50, "velocity": 0, "time": 0, "type": "NormalMsg"}, "M_9917": {"note_status": 1, "channel": 5, "note": 55, "velocity": 113, "time": 0, "type": "NormalMsg"}, "M_9918": {"note_status": 1, "channel": 5, "note": 55, "velocity": 0, "time": 0, "type": "NormalMsg"}, "M_9919": {"note_status": 1, "channel": 5, "note": 55, "velocity": 117, "time": 0, "type": "NormalMsg"}, "M_9920": {"note_status": 1, "channel": 5, "note": 55, "velocity": 0, "time": 0, "type": "NormalMsg"}, "M_9921": {"note_status": 1, "channel": 5, "note": 59, "velocity": 113, "time": 0, "type": "NormalMsg"}, "M_9922": {"note_status": 1, "channel": 5, "note": 59, "velocity": 0, "time": 0, "type": "NormalMsg"}, "M_9923": {"note_status": 1, "channel": 5, "note": 55, "velocity": 117, "time": 0, "type": "NormalMsg"}, "M_9924": {"note_status": 1, "channel": 5, "note": 55, "velocity": 0, "time": 0, "type": "NormalMsg"}, "M_9925": {"note_status": 1, "channel": 5, "note": 65, "velocity": 113, "time": 0, "type": "NormalMsg"}, "M_9926": {"note_status": 1, "channel": 5, "note": 69, "velocity": 113, "time": 0, "type": "NormalMsg"}, "M_9927": {"note_status": 1, "channel": 5, "note": 72, "velocity": 108, "time": 0, "type": "NormalMsg"}, "M_9928": {"note_status": 1, "channel": 5, "note": 65, "velocity": 0, "time": 0, "type": "NormalMsg"}, "M_9929": {"note_status": 1, "channel": 5, "note": 69, "velocity": 0, "time": 0, "type": "NormalMsg"}, "M_9930": {"note_status": 1, "channel": 5, "note": 72, "velocity": 0, "time": 0, "type": "NormalMsg"}, "M_9931": {"note_status": 1, "channel": 5, "note": 67, "velocity": 94, "time": 0, "type": "NormalMsg"}, "M_9932": {"note_status": 1, "channel": 5, "note": 71, "velocity": 113, "time": 0, "type": "NormalMsg"}, "M_9933": {"note_status": 1, "channel": 5, "note": 74, "velocity": 117, "time": 0, "type": "NormalMsg"}, "M_9934": {"note_status": 1, "channel": 5, "note": 71, "velocity": 0, "time": 0, "type": "NormalMsg"}, "M_9935": {"note_status": 1, "channel": 5, "note": 74, "velocity": 0, "time": 0, "type": "NormalMsg"}, "M_9936": {"note_status": 1, "channel": 5, "note": 67, "velocity": 0, "time": 0, "type": "NormalMsg"}, "M_9937": {"note_status": 1, "channel": 5, "note": 65, "velocity": 104, "time": 0, "type": "NormalMsg"}, "M_9938": {"note_status": 1, "channel": 5, "note": 69, "velocity": 117, "time": 0, "type": "NormalMsg"}, "M_9939": {"note_status": 1, "channel": 5, "note": 72, "velocity": 113, "time": 0, "type": "NormalMsg"}, "M_9940": {"note_status": 1, "channel": 5, "note": 65, "velocity": 0, "time": 0, "type": "NormalMsg"}, "M_9941": {"note_status": 1, "channel": 5, "note": 69, "velocity": 0, "time": 0, "type": "NormalMsg"}, "M_9942": {"note_status": 1, "channel": 5, "note": 72, "velocity": 0, "time": 0, "type": "NormalMsg"}, "M_9943": {"note_status": 1, "channel": 5, "note": 67, "velocity": 97, "time": 0, "type": "NormalMsg"}, "M_9944": {"note_status": 1, "channel": 5, "note": 72, "velocity": 104, "time": 0, "type": "NormalMsg"}, "M_9945": {"note_status": 1, "channel": 5, "note": 76, "velocity": 108, "time": 0, "type": "NormalMsg"}, "M_9946": {"note_status": 1, "channel": 5, "note": 67, "velocity": 0, "time": 0, "type": "NormalMsg"}, "M_9947": {"note_status": 1, "channel": 5, "note": 72, "velocity": 0, "time": 0, "type": "NormalMsg"}, "M_9948": {"note_status": 1, "channel": 5, "note": 76, "velocity": 0, "time": 0, "type": "NormalMsg"}, "M_9949": {"note_status": 1, "channel": 5, "note": 74, "velocity": 117, "time": 0, "type": "NormalMsg"}, "M_9950": {"note_status": 1, "channel": 5, "note": 67, "velocity": 94, "time": 0, "type": "NormalMsg"}, "M_9951": {"note_status": 1, "channel": 5, "note": 72, "velocity": 113, "time": 0, "type": "NormalMsg"}, "M_9952": {"note_status": 1, "channel": 5, "note": 67, "velocity": 0, "time": 0, "type": "NormalMsg"}, "M_9953": {"note_status": 1, "channel": 5, "note": 72, "velocity": 0, "time": 0, "type": "NormalMsg"}, "M_9954": {"note_status": 1, "channel": 5, "note": 74, "velocity": 0, "time": 0, "type": "NormalMsg"}, "M_9955": {"note_status": 1, "channel": 5, "note": 67, "velocity": 113, "time": 0, "type": "NormalMsg"}, "M_9956": {"note_status": 1, "channel": 5, "note": 71, "velocity": 122, "time": 0, "type": "NormalMsg"}, "M_9957": {"note_status": 1, "channel": 5, "note": 74, "velocity": 127, "time": 0, "type": "NormalMsg"}, "M_9958": {"note_status": 1, "channel": 5, "note": 71, "velocity": 0, "time": 0, "type": "NormalMsg"}, "M_9959": {"note_status": 1, "channel": 5, "note": 67, "velocity": 0, "time": 0, "type": "NormalMsg"}, "M_9960": {"note_status": 1, "channel": 5, "note": 74, "velocity": 0, "time": 0, "type": "NormalMsg"}, "M_9961": {"note_status": 1, "channel": 5, "note": 57, "velocity": 117, "time": 0, "type": "NormalMsg"}, "M_9962": {"note_status": 1, "channel": 5, "note": 57, "velocity": 0, "time": 0, "type": "NormalMsg"}, "M_9963": {"note_status": 1, "channel": 5, "note": 57, "velocity": 113, "time": 0, "type": "NormalMsg"}, "M_9964": {"note_status": 1, "channel": 5, "note": 57, "velocity": 0, "time": 0, "type": "NormalMsg"}, "M_9965": {"note_status": 1, "channel": 5, "note": 60, "velocity": 117, "time": 0, "type": "NormalMsg"}, "M_9966": {"note_status": 1, "channel": 5, "note": 60, "velocity": 0, "time": 0, "type": "NormalMsg"}, "M_9967": {"note_status": 1, "channel": 5, "note": 57, "velocity": 117, "time": 0, "type": "NormalMsg"}, "M_9968": {"note_status": 1, "channel": 5, "note": 57, "velocity": 0, "time": 0, "type": "NormalMsg"}, "M_9969": {"note_status": 1, "channel": 5, "note": 53, "velocity": 117, "time": 0, "type": "NormalMsg"}, "M_9970": {"note_status": 1, "channel": 5, "note": 53, "velocity": 0, "time": 0, "type": "NormalMsg"}, "M_9971": {"note_status": 1, "channel": 5, "note": 53, "velocity": 108, "time": 0, "type": "NormalMsg"}, "M_9972": {"note_status": 1, "channel": 5, "note": 53, "velocity": 0, "time": 0, "type": "NormalMsg"}, "M_9973": {"note_status": 1, "channel": 5, "note": 57, "velocity": 122, "time": 0, "type": "NormalMsg"}, "M_9974": {"note_status": 1, "channel": 5, "note": 57, "velocity": 0, "time": 0, "type": "NormalMsg"}, "M_9975": {"note_status": 1, "channel": 5, "note": 53, "velocity": 122, "time": 0, "type": "NormalMsg"}, "M_9976": {"note_status": 1, "channel": 5, "note": 53, "velocity": 0, "time": 0, "type": "NormalMsg"}, "M_9977": {"note_status": 1, "channel": 5, "note": 50, "velocity": 113, "time": 0, "type": "NormalMsg"}, "M_9978": {"note_status": 1, "channel": 5, "note": 50, "velocity": 0, "time": 0, "type": "NormalMsg"}, "M_9979": {"note_status": 1, "channel": 5, "note": 50, "velocity": 104, "time": 0, "type": "NormalMsg"}, "M_9980": {"note_status": 1, "channel": 5, "note": 50, "velocity": 0, "time": 0, "type": "NormalMsg"}, "M_9981": {"note_status": 1, "channel": 5, "note": 53, "velocity": 113, "time": 0, "type": "NormalMsg"}, "M_9982": {"note_status": 1, "channel": 5, "note": 53, "velocity": 0, "time": 0, "type": "NormalMsg"}, "M_9983": {"note_status": 1, "channel": 5, "note": 50, "velocity": 101, "time": 0, "type": "NormalMsg"}, "M_9984": {"note_status": 1, "channel": 5, "note": 50, "velocity": 0, "time": 0, "type": "NormalMsg"}, "M_9985": {"note_status": 1, "channel": 5, "note": 55, "velocity": 113, "time": 0, "type": "NormalMsg"}, "M_9986": {"note_status": 1, "channel": 5, "note": 55, "velocity": 0, "time": 0, "type": "NormalMsg"}, "M_9987": {"note_status": 1, "channel": 5, "note": 55, "velocity": 113, "time": 0, "type": "NormalMsg"}, "M_9988": {"note_status": 1, "channel": 5, "note": 55, "velocity": 0, "time": 0, "type": "NormalMsg"}, "M_9989": {"note_status": 1, "channel": 5, "note": 59, "velocity": 113, "time": 0, "type": "NormalMsg"}, "M_9990": {"note_status": 1, "channel": 5, "note": 59, "velocity": 0, "time": 0, "type": "NormalMsg"}, "M_9991": {"note_status": 1, "channel": 5, "note": 55, "velocity": 113, "time": 0, "type": "NormalMsg"}, "M_9992": {"note_status": 1, "channel": 5, "note": 55, "velocity": 0, "time": 0, "type": "NormalMsg"}, "M_9993": {"note_status": 1, "channel": 5, "note": 57, "velocity": 117, "time": 0, "type": "NormalMsg"}, "M_9994": {"note_status": 1, "channel": 5, "note": 57, "velocity": 0, "time": 0, "type": "NormalMsg"}, "M_9995": {"note_status": 1, "channel": 5, "note": 57, "velocity": 108, "time": 0, "type": "NormalMsg"}, "M_9996": {"note_status": 1, "channel": 5, "note": 57, "velocity": 0, "time": 0, "type": "NormalMsg"}, "M_9997": {"note_status": 1, "channel": 5, "note": 60, "velocity": 117, "time": 0, "type": "NormalMsg"}, "M_9998": {"note_status": 1, "channel": 5, "note": 60, "velocity": 0, "time": 0, "type": "NormalMsg"}, "M_9999": {"note_status": 1, "channel": 5, "note": 57, "velocity": 113, "time": 0, "type": "NormalMsg"}, "M_10000": {"note_status": 1, "channel": 5, "note": 57, "velocity": 0, "time": 0, "type": "NormalMsg"}, "M_10001": {"note_status": 1, "channel": 5, "note": 53, "velocity": 122, "time": 0, "type": "NormalMsg"}, "M_10002": {"note_status": 1, "channel": 5, "note": 53, "velocity": 0, "time": 0, "type": "NormalMsg"}, "M_10003": {"note_status": 1, "channel": 5, "note": 53, "velocity": 117, "time": 0, "type": "NormalMsg"}, "M_10004": {"note_status": 1, "channel": 5, "note": 53, "velocity": 0, "time": 0, "type": "NormalMsg"}, "M_10005": {"note_status": 1, "channel": 5, "note": 57, "velocity": 122, "time": 0, "type": "NormalMsg"}, "M_10006": {"note_status": 1, "channel": 5, "note": 57, "velocity": 0, "time": 0, "type": "NormalMsg"}, "M_10007": {"note_status": 1, "channel": 5, "note": 53, "velocity": 122, "time": 0, "type": "NormalMsg"}, "M_10008": {"note_status": 1, "channel": 5, "note": 53, "velocity": 0, "time": 0, "type": "NormalMsg"}, "M_10009": {"note_status": 1, "channel": 5, "note": 55, "velocity": 113, "time": 0, "type": "NormalMsg"}, "M_10010": {"note_status": 1, "channel": 5, "note": 55, "velocity": 0, "time": 0, "type": "NormalMsg"}, "M_10011": {"note_status": 1, "channel": 5, "note": 55, "velocity": 117, "time": 0, "type": "NormalMsg"}, "M_10012": {"note_status": 1, "channel": 5, "note": 55, "velocity": 0, "time": 0, "type": "NormalMsg"}, "M_10013": {"note_status": 1, "channel": 5, "note": 59, "velocity": 113, "time": 0, "type": "NormalMsg"}, "M_10014": {"note_status": 1, "channel": 5, "note": 59, "velocity": 0, "time": 0, "type": "NormalMsg"}, "M_10015": {"note_status": 1, "channel": 5, "note": 55, "velocity": 117, "time": 0, "type": "NormalMsg"}, "M_10016": {"note_status": 1, "channel": 5, "note": 55, "velocity": 0, "time": 0, "type": "NormalMsg"}, "M_10017": {"note_status": 1, "channel": 5, "note": 57, "velocity": 117, "time": 0, "type": "NormalMsg"}, "M_10018": {"note_status": 1, "channel": 5, "note": 57, "velocity": 0, "time": 0, "type": "NormalMsg"}, "M_10019": {"note_status": 1, "channel": 5, "note": 57, "velocity": 113, "time": 0, "type": "NormalMsg"}, "M_10020": {"note_status": 1, "channel": 5, "note": 57, "velocity": 0, "time": 0, "type": "NormalMsg"}, "M_10021": {"note_status": 1, "channel": 5, "note": 60, "velocity": 117, "time": 0, "type": "NormalMsg"}, "M_10022": {"note_status": 1, "channel": 5, "note": 60, "velocity": 0, "time": 0, "type": "NormalMsg"}, "M_10023": {"note_status": 1, "channel": 5, "note": 57, "velocity": 117, "time": 0, "type": "NormalMsg"}, "M_10024": {"note_status": 1, "channel": 5, "note": 57, "velocity": 0, "time": 0, "type": "NormalMsg"}, "M_10025": {"note_status": 1, "channel": 5, "note": 53, "velocity": 117, "time": 0, "type": "NormalMsg"}, "M_10026": {"note_status": 1, "channel": 5, "note": 53, "velocity": 0, "time": 0, "type": "NormalMsg"}, "M_10027": {"note_status": 1, "channel": 5, "note": 53, "velocity": 108, "time": 0, "type": "NormalMsg"}, "M_10028": {"note_status": 1, "channel": 5, "note": 53, "velocity": 0, "time": 0, "type": "NormalMsg"}, "M_10029": {"note_status": 1, "channel": 5, "note": 57, "velocity": 122, "time": 0, "type": "NormalMsg"}, "M_10030": {"note_status": 1, "channel": 5, "note": 57, "velocity": 0, "time": 0, "type": "NormalMsg"}, "M_10031": {"note_status": 1, "channel": 5, "note": 53, "velocity": 122, "time": 0, "type": "NormalMsg"}, "M_10032": {"note_status": 1, "channel": 5, "note": 53, "velocity": 0, "time": 0, "type": "NormalMsg"}, "M_10033": {"note_status": 1, "channel": 5, "note": 50, "velocity": 113, "time": 0, "type": "NormalMsg"}, "M_10034": {"note_status": 1, "channel": 5, "note": 50, "velocity": 0, "time": 0, "type": "NormalMsg"}, "M_10035": {"note_status": 1, "channel": 5, "note": 50, "velocity": 104, "time": 0, "type": "NormalMsg"}, "M_10036": {"note_status": 1, "channel": 5, "note": 50, "velocity": 0, "time": 0, "type": "NormalMsg"}, "M_10037": {"note_status": 1, "channel": 5, "note": 53, "velocity": 113, "time": 0, "type": "NormalMsg"}, "M_10038": {"note_status": 1, "channel": 5, "note": 53, "velocity": 0, "time": 0, "type": "NormalMsg"}, "M_10039": {"note_status": 1, "channel": 5, "note": 50, "velocity": 101, "time": 0, "type": "NormalMsg"}, "M_10040": {"note_status": 1, "channel": 5, "note": 50, "velocity": 0, "time": 0, "type": "NormalMsg"}, "M_10041": {"note_status": 1, "channel": 5, "note": 55, "velocity": 113, "time": 0, "type": "NormalMsg"}, "M_10042": {"note_status": 1, "channel": 5, "note": 55, "velocity": 0, "time": 0, "type": "NormalMsg"}, "M_10043": {"note_status": 1, "channel": 5, "note": 55, "velocity": 113, "time": 0, "type": "NormalMsg"}, "M_10044": {"note_status": 1, "channel": 5, "note": 55, "velocity": 0, "time": 0, "type": "NormalMsg"}, "M_10045": {"note_status": 1, "channel": 5, "note": 59, "velocity": 113, "time": 0, "type": "NormalMsg"}, "M_10046": {"note_status": 1, "channel": 5, "note": 59, "velocity": 0, "time": 0, "type": "NormalMsg"}, "M_10047": {"note_status": 1, "channel": 5, "note": 55, "velocity": 113, "time": 0, "type": "NormalMsg"}, "M_10048": {"note_status": 1, "channel": 5, "note": 55, "velocity": 0, "time": 0, "type": "NormalMsg"}, "M_10049": {"note_status": 1, "channel": 5, "note": 57, "velocity": 117, "time": 0, "type": "NormalMsg"}, "M_10050": {"note_status": 1, "channel": 5, "note": 57, "velocity": 0, "time": 0, "type": "NormalMsg"}, "M_10051": {"note_status": 1, "channel": 5, "note": 57, "velocity": 108, "time": 0, "type": "NormalMsg"}, "M_10052": {"note_status": 1, "channel": 5, "note": 57, "velocity": 0, "time": 0, "type": "NormalMsg"}, "M_10053": {"note_status": 1, "channel": 5, "note": 60, "velocity": 117, "time": 0, "type": "NormalMsg"}, "M_10054": {"note_status": 1, "channel": 5, "note": 60, "velocity": 0, "time": 0, "type": "NormalMsg"}, "M_10055": {"note_status": 1, "channel": 5, "note": 57, "velocity": 113, "time": 0, "type": "NormalMsg"}, "M_10056": {"note_status": 1, "channel": 5, "note": 57, "velocity": 0, "time": 0, "type": "NormalMsg"}, "M_10057": {"note_status": 1, "channel": 5, "note": 53, "velocity": 122, "time": 0, "type": "NormalMsg"}, "M_10058": {"note_status": 1, "channel": 5, "note": 53, "velocity": 0, "time": 0, "type": "NormalMsg"}, "M_10059": {"note_status": 1, "channel": 5, "note": 53, "velocity": 117, "time": 0, "type": "NormalMsg"}, "M_10060": {"note_status": 1, "channel": 5, "note": 53, "velocity": 0, "time": 0, "type": "NormalMsg"}, "M_10061": {"note_status": 1, "channel": 5, "note": 57, "velocity": 122, "time": 0, "type": "NormalMsg"}, "M_10062": {"note_status": 1, "channel": 5, "note": 57, "velocity": 0, "time": 0, "type": "NormalMsg"}, "M_10063": {"note_status": 1, "channel": 5, "note": 53, "velocity": 122, "time": 0, "type": "NormalMsg"}, "M_10064": {"note_status": 1, "channel": 5, "note": 53, "velocity": 0, "time": 0, "type": "NormalMsg"}, "M_10065": {"note_status": 1, "channel": 5, "note": 50, "velocity": 122, "time": 0, "type": "NormalMsg"}, "M_10066": {"note_status": 1, "channel": 5, "note": 50, "velocity": 0, "time": 0, "type": "NormalMsg"}, "M_10067": {"note_status": 1, "channel": 5, "note": 50, "velocity": 113, "time": 0, "type": "NormalMsg"}, "M_10068": {"note_status": 1, "channel": 5, "note": 50, "velocity": 0, "time": 0, "type": "NormalMsg"}, "M_10069": {"note_status": 1, "channel": 5, "note": 53, "velocity": 113, "time": 0, "type": "NormalMsg"}, "M_10070": {"note_status": 1, "channel": 5, "note": 53, "velocity": 0, "time": 0, "type": "NormalMsg"}, "M_10071": {"note_status": 1, "channel": 5, "note": 50, "velocity": 108, "time": 0, "type": "NormalMsg"}, "M_10072": {"note_status": 1, "channel": 5, "note": 50, "velocity": 0, "time": 0, "type": "NormalMsg"}, "M_10073": {"note_status": 1, "channel": 5, "note": 55, "velocity": 113, "time": 0, "type": "NormalMsg"}, "M_10074": {"note_status": 1, "channel": 5, "note": 55, "velocity": 0, "time": 0, "type": "NormalMsg"}, "M_10075": {"note_status": 1, "channel": 5, "note": 55, "velocity": 117, "time": 0, "type": "NormalMsg"}, "M_10076": {"note_status": 1, "channel": 5, "note": 55, "velocity": 0, "time": 0, "type": "NormalMsg"}, "M_10077": {"note_status": 1, "channel": 5, "note": 59, "velocity": 113, "time": 0, "type": "NormalMsg"}, "M_10078": {"note_status": 1, "channel": 5, "note": 59, "velocity": 0, "time": 0, "type": "NormalMsg"}, "M_10079": {"note_status": 1, "channel": 5, "note": 55, "velocity": 117, "time": 0, "type": "NormalMsg"}, "M_10080": {"note_status": 1, "channel": 5, "note": 55, "velocity": 0, "time": 0, "type": "NormalMsg"}, "M_10081": {"note_status": 1, "channel": 5, "note": 57, "velocity": 117, "time": 0, "type": "NormalMsg"}, "M_10082": {"note_status": 1, "channel": 5, "note": 57, "velocity": 0, "time": 0, "type": "NormalMsg"}, "M_10083": {"note_status": 1, "channel": 5, "note": 57, "velocity": 113, "time": 0, "type": "NormalMsg"}, "M_10084": {"note_status": 1, "channel": 5, "note": 57, "velocity": 0, "time": 0, "type": "NormalMsg"}, "M_10085": {"note_status": 1, "channel": 5, "note": 60, "velocity": 117, "time": 0, "type": "NormalMsg"}, "M_10086": {"note_status": 1, "channel": 5, "note": 60, "velocity": 0, "time": 0, "type": "NormalMsg"}, "M_10087": {"note_status": 1, "channel": 5, "note": 57, "velocity": 117, "time": 0, "type": "NormalMsg"}, "M_10088": {"note_status": 1, "channel": 5, "note": 57, "velocity": 0, "time": 0, "type": "NormalMsg"}, "M_10089": {"note_status": 1, "channel": 5, "note": 53, "velocity": 117, "time": 0, "type": "NormalMsg"}, "M_10090": {"note_status": 1, "channel": 5, "note": 53, "velocity": 0, "time": 0, "type": "NormalMsg"}, "M_10091": {"note_status": 1, "channel": 5, "note": 53, "velocity": 108, "time": 0, "type": "NormalMsg"}, "M_10092": {"note_status": 1, "channel": 5, "note": 53, "velocity": 0, "time": 0, "type": "NormalMsg"}, "M_10093": {"note_status": 1, "channel": 5, "note": 57, "velocity": 122, "time": 0, "type": "NormalMsg"}, "M_10094": {"note_status": 1, "channel": 5, "note": 57, "velocity": 0, "time": 0, "type": "NormalMsg"}, "M_10095": {"note_status": 1, "channel": 5, "note": 53, "velocity": 122, "time": 0, "type": "NormalMsg"}, "M_10096": {"note_status": 1, "channel": 5, "note": 53, "velocity": 0, "time": 0, "type": "NormalMsg"}, "M_10097": {"note_status": 1, "channel": 5, "note": 50, "velocity": 113, "time": 0, "type": "NormalMsg"}, "M_10098": {"note_status": 1, "channel": 5, "note": 50, "velocity": 0, "time": 0, "type": "NormalMsg"}, "M_10099": {"note_status": 1, "channel": 5, "note": 50, "velocity": 104, "time": 0, "type": "NormalMsg"}, "M_10100": {"note_status": 1, "channel": 5, "note": 50, "velocity": 0, "time": 0, "type": "NormalMsg"}, "M_10101": {"note_status": 1, "channel": 5, "note": 53, "velocity": 113, "time": 0, "type": "NormalMsg"}, "M_10102": {"note_status": 1, "channel": 5, "note": 53, "velocity": 0, "time": 0, "type": "NormalMsg"}, "M_10103": {"note_status": 1, "channel": 5, "note": 50, "velocity": 101, "time": 0, "type": "NormalMsg"}, "M_10104": {"note_status": 1, "channel": 5, "note": 50, "velocity": 0, "time": 0, "type": "NormalMsg"}, "M_10105": {"note_status": 1, "channel": 5, "note": 55, "velocity": 113, "time": 0, "type": "NormalMsg"}, "M_10106": {"note_status": 1, "channel": 5, "note": 55, "velocity": 0, "time": 0, "type": "NormalMsg"}, "M_10107": {"note_status": 1, "channel": 5, "note": 55, "velocity": 113, "time": 0, "type": "NormalMsg"}, "M_10108": {"note_status": 1, "channel": 5, "note": 55, "velocity": 0, "time": 0, "type": "NormalMsg"}, "M_10109": {"note_status": 1, "channel": 5, "note": 59, "velocity": 113, "time": 0, "type": "NormalMsg"}, "M_10110": {"note_status": 1, "channel": 5, "note": 59, "velocity": 0, "time": 0, "type": "NormalMsg"}, "M_10111": {"note_status": 1, "channel": 5, "note": 55, "velocity": 113, "time": 0, "type": "NormalMsg"}, "M_10112": {"note_status": 1, "channel": 5, "note": 55, "velocity": 0, "time": 0, "type": "NormalMsg"}, "M_10113": {"note_status": 1, "channel": 5, "note": 57, "velocity": 117, "time": 0, "type": "NormalMsg"}, "M_10114": {"note_status": 1, "channel": 5, "note": 57, "velocity": 0, "time": 0, "type": "NormalMsg"}, "M_10115": {"note_status": 1, "channel": 5, "note": 57, "velocity": 113, "time": 0, "type": "NormalMsg"}, "M_10116": {"note_status": 1, "channel": 5, "note": 57, "velocity": 0, "time": 0, "type": "NormalMsg"}, "M_10117": {"note_status": 1, "channel": 5, "note": 60, "velocity": 117, "time": 0, "type": "NormalMsg"}, "M_10118": {"note_status": 1, "channel": 5, "note": 60, "velocity": 0, "time": 0, "type": "NormalMsg"}, "M_10119": {"note_status": 1, "channel": 5, "note": 57, "velocity": 117, "time": 0, "type": "NormalMsg"}, "M_10120": {"note_status": 1, "channel": 5, "note": 57, "velocity": 0, "time": 0, "type": "NormalMsg"}, "M_10121": {"note_status": 1, "channel": 5, "note": 53, "velocity": 117, "time": 0, "type": "NormalMsg"}, "M_10122": {"note_status": 1, "channel": 5, "note": 53, "velocity": 0, "time": 0, "type": "NormalMsg"}, "M_10123": {"note_status": 1, "channel": 5, "note": 53, "velocity": 108, "time": 0, "type": "NormalMsg"}, "M_10124": {"note_status": 1, "channel": 5, "note": 53, "velocity": 0, "time": 0, "type": "NormalMsg"}, "M_10125": {"note_status": 1, "channel": 5, "note": 57, "velocity": 122, "time": 0, "type": "NormalMsg"}, "M_10126": {"note_status": 1, "channel": 5, "note": 57, "velocity": 0, "time": 0, "type": "NormalMsg"}, "M_10127": {"note_status": 1, "channel": 5, "note": 53, "velocity": 122, "time": 0, "type": "NormalMsg"}, "M_10128": {"note_status": 1, "channel": 5, "note": 53, "velocity": 0, "time": 0, "type": "NormalMsg"}, "M_10129": {"note_status": 1, "channel": 5, "note": 50, "velocity": 113, "time": 0, "type": "NormalMsg"}, "M_10130": {"note_status": 1, "channel": 5, "note": 50, "velocity": 0, "time": 0, "type": "NormalMsg"}, "M_10131": {"note_status": 1, "channel": 5, "note": 50, "velocity": 104, "time": 0, "type": "NormalMsg"}, "M_10132": {"note_status": 1, "channel": 5, "note": 50, "velocity": 0, "time": 0, "type": "NormalMsg"}, "M_10133": {"note_status": 1, "channel": 5, "note": 53, "velocity": 113, "time": 0, "type": "NormalMsg"}, "M_10134": {"note_status": 1, "channel": 5, "note": 53, "velocity": 0, "time": 0, "type": "NormalMsg"}, "M_10135": {"note_status": 1, "channel": 5, "note": 50, "velocity": 101, "time": 0, "type": "NormalMsg"}, "M_10136": {"note_status": 1, "channel": 5, "note": 50, "velocity": 0, "time": 0, "type": "NormalMsg"}, "M_10137": {"note_status": 1, "channel": 5, "note": 55, "velocity": 113, "time": 0, "type": "NormalMsg"}, "M_10138": {"note_status": 1, "channel": 5, "note": 55, "velocity": 0, "time": 0, "type": "NormalMsg"}, "M_10139": {"note_status": 1, "channel": 5, "note": 55, "velocity": 113, "time": 0, "type": "NormalMsg"}, "M_10140": {"note_status": 1, "channel": 5, "note": 55, "velocity": 0, "time": 0, "type": "NormalMsg"}, "M_10141": {"note_status": 1, "channel": 5, "note": 59, "velocity": 113, "time": 0, "type": "NormalMsg"}, "M_10142": {"note_status": 1, "channel": 5, "note": 59, "velocity": 0, "time": 0, "type": "NormalMsg"}, "M_10143": {"note_status": 1, "channel": 5, "note": 55, "velocity": 113, "time": 0, "type": "NormalMsg"}, "M_10144": {"note_status": 1, "channel": 5, "note": 55, "velocity": 0, "time": 0, "type": "NormalMsg"}, "M_10145": {"note_status": 1, "channel": 5, "note": 57, "velocity": 117, "time": 0, "type": "NormalMsg"}, "M_10146": {"note_status": 1, "channel": 5, "note": 57, "velocity": 0, "time": 0, "type": "NormalMsg"}, "M_10147": {"note_status": 1, "channel": 5, "note": 57, "velocity": 108, "time": 0, "type": "NormalMsg"}, "M_10148": {"note_status": 1, "channel": 5, "note": 57, "velocity": 0, "time": 0, "type": "NormalMsg"}, "M_10149": {"note_status": 1, "channel": 5, "note": 60, "velocity": 117, "time": 0, "type": "NormalMsg"}, "M_10150": {"note_status": 1, "channel": 5, "note": 60, "velocity": 0, "time": 0, "type": "NormalMsg"}, "M_10151": {"note_status": 1, "channel": 5, "note": 57, "velocity": 113, "time": 0, "type": "NormalMsg"}, "M_10152": {"note_status": 1, "channel": 5, "note": 57, "velocity": 0, "time": 0, "type": "NormalMsg"}, "M_10153": {"note_status": 1, "channel": 5, "note": 53, "velocity": 122, "time": 0, "type": "NormalMsg"}, "M_10154": {"note_status": 1, "channel": 5, "note": 53, "velocity": 0, "time": 0, "type": "NormalMsg"}, "M_10155": {"note_status": 1, "channel": 5, "note": 53, "velocity": 117, "time": 0, "type": "NormalMsg"}, "M_10156": {"note_status": 1, "channel": 5, "note": 53, "velocity": 0, "time": 0, "type": "NormalMsg"}, "M_10157": {"note_status": 1, "channel": 5, "note": 57, "velocity": 122, "time": 0, "type": "NormalMsg"}, "M_10158": {"note_status": 1, "channel": 5, "note": 57, "velocity": 0, "time": 0, "type": "NormalMsg"}, "M_10159": {"note_status": 1, "channel": 5, "note": 53, "velocity": 122, "time": 0, "type": "NormalMsg"}, "M_10160": {"note_status": 1, "channel": 5, "note": 53, "velocity": 0, "time": 0, "type": "NormalMsg"}, "M_10161": {"note_status": 1, "channel": 5, "note": 50, "velocity": 122, "time": 0, "type": "NormalMsg"}, "M_10162": {"note_status": 1, "channel": 5, "note": 50, "velocity": 0, "time": 0, "type": "NormalMsg"}, "M_10163": {"note_status": 1, "channel": 5, "note": 50, "velocity": 113, "time": 0, "type": "NormalMsg"}, "M_10164": {"note_status": 1, "channel": 5, "note": 50, "velocity": 0, "time": 0, "type": "NormalMsg"}, "M_10165": {"note_status": 1, "channel": 5, "note": 53, "velocity": 113, "time": 0, "type": "NormalMsg"}, "M_10166": {"note_status": 1, "channel": 5, "note": 53, "velocity": 0, "time": 0, "type": "NormalMsg"}, "M_10167": {"note_status": 1, "channel": 5, "note": 50, "velocity": 108, "time": 0, "type": "NormalMsg"}, "M_10168": {"note_status": 1, "channel": 5, "note": 50, "velocity": 0, "time": 0, "type": "NormalMsg"}, "M_10169": {"note_status": 1, "channel": 5, "note": 55, "velocity": 113, "time": 0, "type": "NormalMsg"}, "M_10170": {"note_status": 1, "channel": 5, "note": 55, "velocity": 0, "time": 0, "type": "NormalMsg"}, "M_10171": {"note_status": 1, "channel": 5, "note": 55, "velocity": 117, "time": 0, "type": "NormalMsg"}, "M_10172": {"note_status": 1, "channel": 5, "note": 55, "velocity": 0, "time": 0, "type": "NormalMsg"}, "M_10173": {"note_status": 1, "channel": 5, "note": 59, "velocity": 113, "time": 0, "type": "NormalMsg"}, "M_10174": {"note_status": 1, "channel": 5, "note": 59, "velocity": 0, "time": 0, "type": "NormalMsg"}, "M_10175": {"note_status": 1, "channel": 5, "note": 55, "velocity": 117, "time": 0, "type": "NormalMsg"}, "M_10176": {"note_status": 1, "channel": 5, "note": 55, "velocity": 0, "time": 0, "type": "NormalMsg"}, "M_10177": {"note_status": 1, "channel": 5, "note": 53, "velocity": 117, "time": 0, "type": "NormalMsg"}, "M_10178": {"note_status": 1, "channel": 5, "note": 53, "velocity": 0, "time": 0, "type": "NormalMsg"}, "M_10179": {"note_status": 1, "channel": 5, "note": 53, "velocity": 108, "time": 0, "type": "NormalMsg"}, "M_10180": {"note_status": 1, "channel": 5, "note": 53, "velocity": 0, "time": 0, "type": "NormalMsg"}, "M_10181": {"note_status": 1, "channel": 5, "note": 53, "velocity": 117, "time": 0, "type": "NormalMsg"}, "M_10182": {"note_status": 1, "channel": 5, "note": 53, "velocity": 0, "time": 0, "type": "NormalMsg"}, "M_10183": {"note_status": 1, "channel": 5, "note": 50, "velocity": 113, "time": 0, "type": "NormalMsg"}, "M_10184": {"note_status": 1, "channel": 5, "note": 50, "velocity": 0, "time": 0, "type": "NormalMsg"}, "M_10185": {"note_status": 1, "channel": 5, "note": 50, "velocity": 117, "time": 0, "type": "NormalMsg"}, "M_10186": {"note_status": 1, "channel": 5, "note": 50, "velocity": 0, "time": 0, "type": "NormalMsg"}, "M_10187": {"note_status": 1, "channel": 5, "note": 50, "velocity": 122, "time": 0, "type": "NormalMsg"}, "M_10188": {"note_status": 1, "channel": 5, "note": 50, "velocity": 0, "time": 0, "type": "NormalMsg"}, "M_10189": {"note_status": 1, "channel": 5, "note": 53, "velocity": 122, "time": 0, "type": "NormalMsg"}, "M_10190": {"note_status": 1, "channel": 5, "note": 53, "velocity": 0, "time": 0, "type": "NormalMsg"}, "M_10191": {"note_status": 1, "channel": 5, "note": 53, "velocity": 113, "time": 0, "type": "NormalMsg"}, "M_10192": {"note_status": 1, "channel": 5, "note": 53, "velocity": 0, "time": 0, "type": "NormalMsg"}, "M_10193": {"note_status": 1, "channel": 5, "note": 53, "velocity": 113, "time": 0, "type": "NormalMsg"}, "M_10194": {"note_status": 1, "channel": 5, "note": 53, "velocity": 0, "time": 0, "type": "NormalMsg"}, "M_10195": {"note_status": 1, "channel": 5, "note": 50, "velocity": 108, "time": 0, "type": "NormalMsg"}, "M_10196": {"note_status": 1, "channel": 5, "note": 50, "velocity": 0, "time": 0, "type": "NormalMsg"}, "M_10197": {"note_status": 1, "channel": 5, "note": 50, "velocity": 117, "time": 0, "type": "NormalMsg"}, "M_10198": {"note_status": 1, "channel": 5, "note": 50, "velocity": 0, "time": 0, "type": "NormalMsg"}, "M_10199": {"note_status": 1, "channel": 5, "note": 50, "velocity": 117, "time": 0, "type": "NormalMsg"}, "M_10200": {"note_status": 1, "channel": 5, "note": 50, "velocity": 0, "time": 0, "type": "NormalMsg"}, "M_10201": {"note_status": 1, "channel": 5, "note": 53, "velocity": 122, "time": 0, "type": "NormalMsg"}, "M_10202": {"note_status": 1, "channel": 5, "note": 53, "velocity": 0, "time": 0, "type": "NormalMsg"}, "M_10203": {"note_status": 1, "channel": 5, "note": 53, "velocity": 113, "time": 0, "type": "NormalMsg"}, "M_10204": {"note_status": 1, "channel": 5, "note": 53, "velocity": 0, "time": 0, "type": "NormalMsg"}, "M_10205": {"note_status": 1, "channel": 5, "note": 53, "velocity": 113, "time": 0, "type": "NormalMsg"}, "M_10206": {"note_status": 1, "channel": 5, "note": 53, "velocity": 0, "time": 0, "type": "NormalMsg"}, "M_10207": {"note_status": 1, "channel": 5, "note": 50, "velocity": 108, "time": 0, "type": "NormalMsg"}, "M_10208": {"note_status": 1, "channel": 5, "note": 50, "velocity": 0, "time": 0, "type": "NormalMsg"}, "M_10209": {"note_status": 1, "channel": 5, "note": 50, "velocity": 117, "time": 0, "type": "NormalMsg"}, "M_10210": {"note_status": 1, "channel": 5, "note": 50, "velocity": 0, "time": 0, "type": "NormalMsg"}, "M_10211": {"note_status": 1, "channel": 5, "note": 50, "velocity": 117, "time": 0, "type": "NormalMsg"}, "M_10212": {"note_status": 1, "channel": 5, "note": 50, "velocity": 0, "time": 0, "type": "NormalMsg"}, "M_10213": {"note_status": 1, "channel": 5, "note": 57, "velocity": 127, "time": 0, "type": "NormalMsg"}, "M_10214": {"note_status": 1, "channel": 5, "note": 57, "velocity": 0, "time": 0, "type": "NormalMsg"}, "R_10215": {"note_status": 0, "channel": 0, "note": 0, "velocity": 0, "time": 0, "type": "ResetMsg"}, "R_10216": {"note_status": 0, "channel": 0, "note": 0, "velocity": 0, "time": 0, "type": "ResetMsg"}, "U_10217": {"note_status": 0, "channel": 0, "note": 0, "velocity": 0, "time": 0, "type": "DummyType"}, "M_10218": {"note_status": 1, "channel": 6, "note": 33, "velocity": 113, "time": 0, "type": "NormalMsg"}, "M_10219": {"note_status": 1, "channel": 6, "note": 33, "velocity": 0, "time": 0, "type": "NormalMsg"}, "M_10220": {"note_status": 1, "channel": 6, "note": 45, "velocity": 95, "time": 0, "type": "NormalMsg"}, "M_10221": {"note_status": 1, "channel": 6, "note": 45, "velocity": 0, "time": 0, "type": "NormalMsg"}, "M_10222": {"note_status": 1, "channel": 6, "note": 33, "velocity": 108, "time": 0, "type": "NormalMsg"}, "M_10223": {"note_status": 1, "channel": 6, "note": 33, "velocity": 0, "time": 0, "type": "NormalMsg"}, "M_10224": {"note_status": 1, "channel": 6, "note": 45, "velocity": 92, "time": 0, "type": "NormalMsg"}, "M_10225": {"note_status": 1, "channel": 6, "note": 45, "velocity": 0, "time": 0, "type": "NormalMsg"}, "M_10226": {"note_status": 1, "channel": 6, "note": 29, "velocity": 110, "time": 0, "type": "NormalMsg"}, "M_10227": {"note_status": 1, "channel": 6, "note": 29, "velocity": 0, "time": 0, "type": "NormalMsg"}, "M_10228": {"note_status": 1, "channel": 6, "note": 41, "velocity": 95, "time": 0, "type": "NormalMsg"}, "M_10229": {"note_status": 1, "channel": 6, "note": 41, "velocity": 0, "time": 0, "type": "NormalMsg"}, "M_10230": {"note_status": 1, "channel": 6, "note": 29, "velocity": 108, "time": 0, "type": "NormalMsg"}, "M_10231": {"note_status": 1, "channel": 6, "note": 29, "velocity": 0, "time": 0, "type": "NormalMsg"}, "M_10232": {"note_status": 1, "channel": 6, "note": 41, "velocity": 95, "time": 0, "type": "NormalMsg"}, "M_10233": {"note_status": 1, "channel": 6, "note": 41, "velocity": 0, "time": 0, "type": "NormalMsg"}, "M_10234": {"note_status": 1, "channel": 6, "note": 26, "velocity": 113, "time": 0, "type": "NormalMsg"}, "M_10235": {"note_status": 1, "channel": 6, "note": 26, "velocity": 0, "time": 0, "type": "NormalMsg"}, "M_10236": {"note_status": 1, "channel": 6, "note": 38, "velocity": 103, "time": 0, "type": "NormalMsg"}, "M_10237": {"note_status": 1, "channel": 6, "note": 38, "velocity": 0, "time": 0, "type": "NormalMsg"}, "M_10238": {"note_status": 1, "channel": 6, "note": 26, "velocity": 117, "time": 0, "type": "NormalMsg"}, "M_10239": {"note_status": 1, "channel": 6, "note": 26, "velocity": 0, "time": 0, "type": "NormalMsg"}, "M_10240": {"note_status": 1, "channel": 6, "note": 38, "velocity": 95, "time": 0, "type": "NormalMsg"}, "M_10241": {"note_status": 1, "channel": 6, "note": 38, "velocity": 0, "time": 0, "type": "NormalMsg"}, "M_10242": {"note_status": 1, "channel": 6, "note": 31, "velocity": 113, "time": 0, "type": "NormalMsg"}, "M_10243": {"note_status": 1, "channel": 6, "note": 31, "velocity": 0, "time": 0, "type": "NormalMsg"}, "M_10244": {"note_status": 1, "channel": 6, "note": 31, "velocity": 117, "time": 0, "type": "NormalMsg"}, "M_10245": {"note_status": 1, "channel": 6, "note": 31, "velocity": 0, "time": 0, "type": "NormalMsg"}, "M_10246": {"note_status": 1, "channel": 6, "note": 43, "velocity": 103, "time": 0, "type": "NormalMsg"}, "M_10247": {"note_status": 1, "channel": 6, "note": 43, "velocity": 0, "time": 0, "type": "NormalMsg"}, "M_10248": {"note_status": 1, "channel": 6, "note": 33, "velocity": 113, "time": 0, "type": "NormalMsg"}, "M_10249": {"note_status": 1, "channel": 6, "note": 33, "velocity": 0, "time": 0, "type": "NormalMsg"}, "M_10250": {"note_status": 1, "channel": 6, "note": 45, "velocity": 95, "time": 0, "type": "NormalMsg"}, "M_10251": {"note_status": 1, "channel": 6, "note": 45, "velocity": 0, "time": 0, "type": "NormalMsg"}, "M_10252": {"note_status": 1, "channel": 6, "note": 33, "velocity": 108, "time": 0, "type": "NormalMsg"}, "M_10253": {"note_status": 1, "channel": 6, "note": 33, "velocity": 0, "time": 0, "type": "NormalMsg"}, "M_10254": {"note_status": 1, "channel": 6, "note": 45, "velocity": 92, "time": 0, "type": "NormalMsg"}, "M_10255": {"note_status": 1, "channel": 6, "note": 45, "velocity": 0, "time": 0, "type": "NormalMsg"}, "M_10256": {"note_status": 1, "channel": 6, "note": 29, "velocity": 110, "time": 0, "type": "NormalMsg"}, "M_10257": {"note_status": 1, "channel": 6, "note": 29, "velocity": 0, "time": 0, "type": "NormalMsg"}, "M_10258": {"note_status": 1, "channel": 6, "note": 41, "velocity": 95, "time": 0, "type": "NormalMsg"}, "M_10259": {"note_status": 1, "channel": 6, "note": 41, "velocity": 0, "time": 0, "type": "NormalMsg"}, "M_10260": {"note_status": 1, "channel": 6, "note": 29, "velocity": 108, "time": 0, "type": "NormalMsg"}, "M_10261": {"note_status": 1, "channel": 6, "note": 29, "velocity": 0, "time": 0, "type": "NormalMsg"}, "M_10262": {"note_status": 1, "channel": 6, "note": 41, "velocity": 95, "time": 0, "type": "NormalMsg"}, "M_10263": {"note_status": 1, "channel": 6, "note": 41, "velocity": 0, "time": 0, "type": "NormalMsg"}, "M_10264": {"note_status": 1, "channel": 6, "note": 26, "velocity": 113, "time": 0, "type": "NormalMsg"}, "M_10265": {"note_status": 1, "channel": 6, "note": 26, "velocity": 0, "time": 0, "type": "NormalMsg"}, "M_10266": {"note_status": 1, "channel": 6, "note": 38, "velocity": 103, "time": 0, "type": "NormalMsg"}, "M_10267": {"note_status": 1, "channel": 6, "note": 38, "velocity": 0, "time": 0, "type": "NormalMsg"}, "M_10268": {"note_status": 1, "channel": 6, "note": 26, "velocity": 117, "time": 0, "type": "NormalMsg"}, "M_10269": {"note_status": 1, "channel": 6, "note": 26, "velocity": 0, "time": 0, "type": "NormalMsg"}, "M_10270": {"note_status": 1, "channel": 6, "note": 38, "velocity": 95, "time": 0, "type": "NormalMsg"}, "M_10271": {"note_status": 1, "channel": 6, "note": 38, "velocity": 0, "time": 0, "type": "NormalMsg"}, "M_10272": {"note_status": 1, "channel": 6, "note": 31, "velocity": 113, "time": 0, "type": "NormalMsg"}, "M_10273": {"note_status": 1, "channel": 6, "note": 31, "velocity": 0, "time": 0, "type": "NormalMsg"}, "M_10274": {"note_status": 1, "channel": 6, "note": 43, "velocity": 103, "time": 0, "type": "NormalMsg"}, "M_10275": {"note_status": 1, "channel": 6, "note": 43, "velocity": 0, "time": 0, "type": "NormalMsg"}, "M_10276": {"note_status": 1, "channel": 6, "note": 31, "velocity": 117, "time": 0, "type": "NormalMsg"}, "M_10277": {"note_status": 1, "channel": 6, "note": 31, "velocity": 0, "time": 0, "type": "NormalMsg"}, "M_10278": {"note_status": 1, "channel": 6, "note": 43, "velocity": 103, "time": 0, "type": "NormalMsg"}, "M_10279": {"note_status": 1, "channel": 6, "note": 43, "velocity": 0, "time": 0, "type": "NormalMsg"}, "M_10280": {"note_status": 1, "channel": 6, "note": 33, "velocity": 113, "time": 0, "type": "NormalMsg"}, "M_10281": {"note_status": 1, "channel": 6, "note": 33, "velocity": 0, "time": 0, "type": "NormalMsg"}, "M_10282": {"note_status": 1, "channel": 6, "note": 45, "velocity": 95, "time": 0, "type": "NormalMsg"}, "M_10283": {"note_status": 1, "channel": 6, "note": 45, "velocity": 0, "time": 0, "type": "NormalMsg"}, "M_10284": {"note_status": 1, "channel": 6, "note": 33, "velocity": 108, "time": 0, "type": "NormalMsg"}, "M_10285": {"note_status": 1, "channel": 6, "note": 33, "velocity": 0, "time": 0, "type": "NormalMsg"}, "M_10286": {"note_status": 1, "channel": 6, "note": 45, "velocity": 92, "time": 0, "type": "NormalMsg"}, "M_10287": {"note_status": 1, "channel": 6, "note": 45, "velocity": 0, "time": 0, "type": "NormalMsg"}, "M_10288": {"note_status": 1, "channel": 6, "note": 29, "velocity": 110, "time": 0, "type": "NormalMsg"}, "M_10289": {"note_status": 1, "channel": 6, "note": 29, "velocity": 0, "time": 0, "type": "NormalMsg"}, "M_10290": {"note_status": 1, "channel": 6, "note": 41, "velocity": 95, "time": 0, "type": "NormalMsg"}, "M_10291": {"note_status": 1, "channel": 6, "note": 41, "velocity": 0, "time": 0, "type": "NormalMsg"}, "M_10292": {"note_status": 1, "channel": 6, "note": 29, "velocity": 108, "time": 0, "type": "NormalMsg"}, "M_10293": {"note_status": 1, "channel": 6, "note": 29, "velocity": 0, "time": 0, "type": "NormalMsg"}, "M_10294": {"note_status": 1, "channel": 6, "note": 41, "velocity": 95, "time": 0, "type": "NormalMsg"}, "M_10295": {"note_status": 1, "channel": 6, "note": 41, "velocity": 0, "time": 0, "type": "NormalMsg"}, "M_10296": {"note_status": 1, "channel": 6, "note": 26, "velocity": 113, "time": 0, "type": "NormalMsg"}, "M_10297": {"note_status": 1, "channel": 6, "note": 26, "velocity": 0, "time": 0, "type": "NormalMsg"}, "M_10298": {"note_status": 1, "channel": 6, "note": 38, "velocity": 103, "time": 0, "type": "NormalMsg"}, "M_10299": {"note_status": 1, "channel": 6, "note": 38, "velocity": 0, "time": 0, "type": "NormalMsg"}, "M_10300": {"note_status": 1, "channel": 6, "note": 26, "velocity": 117, "time": 0, "type": "NormalMsg"}, "M_10301": {"note_status": 1, "channel": 6, "note": 26, "velocity": 0, "time": 0, "type": "NormalMsg"}, "M_10302": {"note_status": 1, "channel": 6, "note": 38, "velocity": 95, "time": 0, "type": "NormalMsg"}, "M_10303": {"note_status": 1, "channel": 6, "note": 38, "velocity": 0, "time": 0, "type": "NormalMsg"}, "M_10304": {"note_status": 1, "channel": 6, "note": 31, "velocity": 113, "time": 0, "type": "NormalMsg"}, "M_10305": {"note_status": 1, "channel": 6, "note": 31, "velocity": 0, "time": 0, "type": "NormalMsg"}, "M_10306": {"note_status": 1, "channel": 6, "note": 43, "velocity": 103, "time": 0, "type": "NormalMsg"}, "M_10307": {"note_status": 1, "channel": 6, "note": 43, "velocity": 0, "time": 0, "type": "NormalMsg"}, "M_10308": {"note_status": 1, "channel": 6, "note": 31, "velocity": 117, "time": 0, "type": "NormalMsg"}, "M_10309": {"note_status": 1, "channel": 6, "note": 31, "velocity": 0, "time": 0, "type": "NormalMsg"}, "M_10310": {"note_status": 1, "channel": 6, "note": 43, "velocity": 103, "time": 0, "type": "NormalMsg"}, "M_10311": {"note_status": 1, "channel": 6, "note": 43, "velocity": 0, "time": 0, "type": "NormalMsg"}, "M_10312": {"note_status": 1, "channel": 6, "note": 33, "velocity": 113, "time": 0, "type": "NormalMsg"}, "M_10313": {"note_status": 1, "channel": 6, "note": 33, "velocity": 0, "time": 0, "type": "NormalMsg"}, "M_10314": {"note_status": 1, "channel": 6, "note": 45, "velocity": 95, "time": 0, "type": "NormalMsg"}, "M_10315": {"note_status": 1, "channel": 6, "note": 45, "velocity": 0, "time": 0, "type": "NormalMsg"}, "M_10316": {"note_status": 1, "channel": 6, "note": 33, "velocity": 108, "time": 0, "type": "NormalMsg"}, "M_10317": {"note_status": 1, "channel": 6, "note": 33, "velocity": 0, "time": 0, "type": "NormalMsg"}, "M_10318": {"note_status": 1, "channel": 6, "note": 45, "velocity": 92, "time": 0, "type": "NormalMsg"}, "M_10319": {"note_status": 1, "channel": 6, "note": 45, "velocity": 0, "time": 0, "type": "NormalMsg"}, "M_10320": {"note_status": 1, "channel": 6, "note": 29, "velocity": 110, "time": 0, "type": "NormalMsg"}, "M_10321": {"note_status": 1, "channel": 6, "note": 29, "velocity": 0, "time": 0, "type": "NormalMsg"}, "M_10322": {"note_status": 1, "channel": 6, "note": 41, "velocity": 95, "time": 0, "type": "NormalMsg"}, "M_10323": {"note_status": 1, "channel": 6, "note": 41, "velocity": 0, "time": 0, "type": "NormalMsg"}, "M_10324": {"note_status": 1, "channel": 6, "note": 29, "velocity": 108, "time": 0, "type": "NormalMsg"}, "M_10325": {"note_status": 1, "channel": 6, "note": 29, "velocity": 0, "time": 0, "type": "NormalMsg"}, "M_10326": {"note_status": 1, "channel": 6, "note": 41, "velocity": 95, "time": 0, "type": "NormalMsg"}, "M_10327": {"note_status": 1, "channel": 6, "note": 41, "velocity": 0, "time": 0, "type": "NormalMsg"}, "M_10328": {"note_status": 1, "channel": 6, "note": 26, "velocity": 113, "time": 0, "type": "NormalMsg"}, "M_10329": {"note_status": 1, "channel": 6, "note": 26, "velocity": 0, "time": 0, "type": "NormalMsg"}, "M_10330": {"note_status": 1, "channel": 6, "note": 38, "velocity": 103, "time": 0, "type": "NormalMsg"}, "M_10331": {"note_status": 1, "channel": 6, "note": 38, "velocity": 0, "time": 0, "type": "NormalMsg"}, "M_10332": {"note_status": 1, "channel": 6, "note": 26, "velocity": 117, "time": 0, "type": "NormalMsg"}, "M_10333": {"note_status": 1, "channel": 6, "note": 26, "velocity": 0, "time": 0, "type": "NormalMsg"}, "M_10334": {"note_status": 1, "channel": 6, "note": 38, "velocity": 95, "time": 0, "type": "NormalMsg"}, "M_10335": {"note_status": 1, "channel": 6, "note": 38, "velocity": 0, "time": 0, "type": "NormalMsg"}, "M_10336": {"note_status": 1, "channel": 6, "note": 31, "velocity": 113, "time": 0, "type": "NormalMsg"}, "M_10337": {"note_status": 1, "channel": 6, "note": 31, "velocity": 0, "time": 0, "type": "NormalMsg"}, "M_10338": {"note_status": 1, "channel": 6, "note": 43, "velocity": 103, "time": 0, "type": "NormalMsg"}, "M_10339": {"note_status": 1, "channel": 6, "note": 43, "velocity": 0, "time": 0, "type": "NormalMsg"}, "M_10340": {"note_status": 1, "channel": 6, "note": 31, "velocity": 117, "time": 0, "type": "NormalMsg"}, "M_10341": {"note_status": 1, "channel": 6, "note": 31, "velocity": 0, "time": 0, "type": "NormalMsg"}, "M_10342": {"note_status": 1, "channel": 6, "note": 43, "velocity": 103, "time": 0, "type": "NormalMsg"}, "M_10343": {"note_status": 1, "channel": 6, "note": 43, "velocity": 0, "time": 0, "type": "NormalMsg"}, "M_10344": {"note_status": 1, "channel": 6, "note": 33, "velocity": 113, "time": 0, "type": "NormalMsg"}, "M_10345": {"note_status": 1, "channel": 6, "note": 33, "velocity": 0, "time": 0, "type": "NormalMsg"}, "M_10346": {"note_status": 1, "channel": 6, "note": 45, "velocity": 95, "time": 0, "type": "NormalMsg"}, "M_10347": {"note_status": 1, "channel": 6, "note": 45, "velocity": 0, "time": 0, "type": "NormalMsg"}, "M_10348": {"note_status": 1, "channel": 6, "note": 33, "velocity": 108, "time": 0, "type": "NormalMsg"}, "M_10349": {"note_status": 1, "channel": 6, "note": 33, "velocity": 0, "time": 0, "type": "NormalMsg"}, "M_10350": {"note_status": 1, "channel": 6, "note": 45, "velocity": 92, "time": 0, "type": "NormalMsg"}, "M_10351": {"note_status": 1, "channel": 6, "note": 45, "velocity": 0, "time": 0, "type": "NormalMsg"}, "M_10352": {"note_status": 1, "channel": 6, "note": 29, "velocity": 110, "time": 0, "type": "NormalMsg"}, "M_10353": {"note_status": 1, "channel": 6, "note": 29, "velocity": 0, "time": 0, "type": "NormalMsg"}, "M_10354": {"note_status": 1, "channel": 6, "note": 41, "velocity": 95, "time": 0, "type": "NormalMsg"}, "M_10355": {"note_status": 1, "channel": 6, "note": 41, "velocity": 0, "time": 0, "type": "NormalMsg"}, "M_10356": {"note_status": 1, "channel": 6, "note": 29, "velocity": 108, "time": 0, "type": "NormalMsg"}, "M_10357": {"note_status": 1, "channel": 6, "note": 29, "velocity": 0, "time": 0, "type": "NormalMsg"}, "M_10358": {"note_status": 1, "channel": 6, "note": 41, "velocity": 95, "time": 0, "type": "NormalMsg"}, "M_10359": {"note_status": 1, "channel": 6, "note": 41, "velocity": 0, "time": 0, "type": "NormalMsg"}, "M_10360": {"note_status": 1, "channel": 6, "note": 26, "velocity": 113, "time": 0, "type": "NormalMsg"}, "M_10361": {"note_status": 1, "channel": 6, "note": 26, "velocity": 0, "time": 0, "type": "NormalMsg"}, "M_10362": {"note_status": 1, "channel": 6, "note": 38, "velocity": 103, "time": 0, "type": "NormalMsg"}, "M_10363": {"note_status": 1, "channel": 6, "note": 38, "velocity": 0, "time": 0, "type": "NormalMsg"}, "M_10364": {"note_status": 1, "channel": 6, "note": 26, "velocity": 117, "time": 0, "type": "NormalMsg"}, "M_10365": {"note_status": 1, "channel": 6, "note": 26, "velocity": 0, "time": 0, "type": "NormalMsg"}, "M_10366": {"note_status": 1, "channel": 6, "note": 38, "velocity": 95, "time": 0, "type": "NormalMsg"}, "M_10367": {"note_status": 1, "channel": 6, "note": 38, "velocity": 0, "time": 0, "type": "NormalMsg"}, "M_10368": {"note_status": 1, "channel": 6, "note": 31, "velocity": 113, "time": 0, "type": "NormalMsg"}, "M_10369": {"note_status": 1, "channel": 6, "note": 31, "velocity": 0, "time": 0, "type": "NormalMsg"}, "M_10370": {"note_status": 1, "channel": 6, "note": 43, "velocity": 103, "time": 0, "type": "NormalMsg"}, "M_10371": {"note_status": 1, "channel": 6, "note": 43, "velocity": 0, "time": 0, "type": "NormalMsg"}, "M_10372": {"note_status": 1, "channel": 6, "note": 31, "velocity": 117, "time": 0, "type": "NormalMsg"}, "M_10373": {"note_status": 1, "channel": 6, "note": 31, "velocity": 0, "time": 0, "type": "NormalMsg"}, "M_10374": {"note_status": 1, "channel": 6, "note": 43, "velocity": 103, "time": 0, "type": "NormalMsg"}, "M_10375": {"note_status": 1, "channel": 6, "note": 43, "velocity": 0, "time": 0, "type": "NormalMsg"}, "M_10376": {"note_status": 1, "channel": 6, "note": 33, "velocity": 113, "time": 0, "type": "NormalMsg"}, "M_10377": {"note_status": 1, "channel": 6, "note": 33, "velocity": 0, "time": 0, "type": "NormalMsg"}, "M_10378": {"note_status": 1, "channel": 6, "note": 45, "velocity": 95, "time": 0, "type": "NormalMsg"}, "M_10379": {"note_status": 1, "channel": 6, "note": 45, "velocity": 0, "time": 0, "type": "NormalMsg"}, "M_10380": {"note_status": 1, "channel": 6, "note": 33, "velocity": 108, "time": 0, "type": "NormalMsg"}, "M_10381": {"note_status": 1, "channel": 6, "note": 33, "velocity": 0, "time": 0, "type": "NormalMsg"}, "M_10382": {"note_status": 1, "channel": 6, "note": 45, "velocity": 92, "time": 0, "type": "NormalMsg"}, "M_10383": {"note_status": 1, "channel": 6, "note": 45, "velocity": 0, "time": 0, "type": "NormalMsg"}, "M_10384": {"note_status": 1, "channel": 6, "note": 29, "velocity": 110, "time": 0, "type": "NormalMsg"}, "M_10385": {"note_status": 1, "channel": 6, "note": 29, "velocity": 0, "time": 0, "type": "NormalMsg"}, "M_10386": {"note_status": 1, "channel": 6, "note": 41, "velocity": 95, "time": 0, "type": "NormalMsg"}, "M_10387": {"note_status": 1, "channel": 6, "note": 41, "velocity": 0, "time": 0, "type": "NormalMsg"}, "M_10388": {"note_status": 1, "channel": 6, "note": 29, "velocity": 108, "time": 0, "type": "NormalMsg"}, "M_10389": {"note_status": 1, "channel": 6, "note": 29, "velocity": 0, "time": 0, "type": "NormalMsg"}, "M_10390": {"note_status": 1, "channel": 6, "note": 41, "velocity": 95, "time": 0, "type": "NormalMsg"}, "M_10391": {"note_status": 1, "channel": 6, "note": 41, "velocity": 0, "time": 0, "type": "NormalMsg"}, "M_10392": {"note_status": 1, "channel": 6, "note": 26, "velocity": 113, "time": 0, "type": "NormalMsg"}, "M_10393": {"note_status": 1, "channel": 6, "note": 26, "velocity": 0, "time": 0, "type": "NormalMsg"}, "M_10394": {"note_status": 1, "channel": 6, "note": 38, "velocity": 103, "time": 0, "type": "NormalMsg"}, "M_10395": {"note_status": 1, "channel": 6, "note": 38, "velocity": 0, "time": 0, "type": "NormalMsg"}, "M_10396": {"note_status": 1, "channel": 6, "note": 26, "velocity": 117, "time": 0, "type": "NormalMsg"}, "M_10397": {"note_status": 1, "channel": 6, "note": 26, "velocity": 0, "time": 0, "type": "NormalMsg"}, "M_10398": {"note_status": 1, "channel": 6, "note": 38, "velocity": 95, "time": 0, "type": "NormalMsg"}, "M_10399": {"note_status": 1, "channel": 6, "note": 38, "velocity": 0, "time": 0, "type": "NormalMsg"}, "M_10400": {"note_status": 1, "channel": 6, "note": 31, "velocity": 113, "time": 0, "type": "NormalMsg"}, "M_10401": {"note_status": 1, "channel": 6, "note": 31, "velocity": 0, "time": 0, "type": "NormalMsg"}, "M_10402": {"note_status": 1, "channel": 6, "note": 43, "velocity": 103, "time": 0, "type": "NormalMsg"}, "M_10403": {"note_status": 1, "channel": 6, "note": 43, "velocity": 0, "time": 0, "type": "NormalMsg"}, "M_10404": {"note_status": 1, "channel": 6, "note": 31, "velocity": 117, "time": 0, "type": "NormalMsg"}, "M_10405": {"note_status": 1, "channel": 6, "note": 31, "velocity": 0, "time": 0, "type": "NormalMsg"}, "M_10406": {"note_status": 1, "channel": 6, "note": 43, "velocity": 103, "time": 0, "type": "NormalMsg"}, "M_10407": {"note_status": 1, "channel": 6, "note": 43, "velocity": 0, "time": 0, "type": "NormalMsg"}, "M_10408": {"note_status": 1, "channel": 6, "note": 33, "velocity": 113, "time": 0, "type": "NormalMsg"}, "M_10409": {"note_status": 1, "channel": 6, "note": 33, "velocity": 0, "time": 0, "type": "NormalMsg"}, "M_10410": {"note_status": 1, "channel": 6, "note": 45, "velocity": 95, "time": 0, "type": "NormalMsg"}, "M_10411": {"note_status": 1, "channel": 6, "note": 45, "velocity": 0, "time": 0, "type": "NormalMsg"}, "M_10412": {"note_status": 1, "channel": 6, "note": 33, "velocity": 108, "time": 0, "type": "NormalMsg"}, "M_10413": {"note_status": 1, "channel": 6, "note": 33, "velocity": 0, "time": 0, "type": "NormalMsg"}, "M_10414": {"note_status": 1, "channel": 6, "note": 45, "velocity": 92, "time": 0, "type": "NormalMsg"}, "M_10415": {"note_status": 1, "channel": 6, "note": 45, "velocity": 0, "time": 0, "type": "NormalMsg"}, "M_10416": {"note_status": 1, "channel": 6, "note": 29, "velocity": 110, "time": 0, "type": "NormalMsg"}, "M_10417": {"note_status": 1, "channel": 6, "note": 29, "velocity": 0, "time": 0, "type": "NormalMsg"}, "M_10418": {"note_status": 1, "channel": 6, "note": 41, "velocity": 95, "time": 0, "type": "NormalMsg"}, "M_10419": {"note_status": 1, "channel": 6, "note": 41, "velocity": 0, "time": 0, "type": "NormalMsg"}, "M_10420": {"note_status": 1, "channel": 6, "note": 29, "velocity": 108, "time": 0, "type": "NormalMsg"}, "M_10421": {"note_status": 1, "channel": 6, "note": 29, "velocity": 0, "time": 0, "type": "NormalMsg"}, "M_10422": {"note_status": 1, "channel": 6, "note": 41, "velocity": 95, "time": 0, "type": "NormalMsg"}, "M_10423": {"note_status": 1, "channel": 6, "note": 41, "velocity": 0, "time": 0, "type": "NormalMsg"}, "M_10424": {"note_status": 1, "channel": 6, "note": 26, "velocity": 113, "time": 0, "type": "NormalMsg"}, "M_10425": {"note_status": 1, "channel": 6, "note": 26, "velocity": 0, "time": 0, "type": "NormalMsg"}, "M_10426": {"note_status": 1, "channel": 6, "note": 38, "velocity": 103, "time": 0, "type": "NormalMsg"}, "M_10427": {"note_status": 1, "channel": 6, "note": 38, "velocity": 0, "time": 0, "type": "NormalMsg"}, "M_10428": {"note_status": 1, "channel": 6, "note": 26, "velocity": 117, "time": 0, "type": "NormalMsg"}, "M_10429": {"note_status": 1, "channel": 6, "note": 26, "velocity": 0, "time": 0, "type": "NormalMsg"}, "M_10430": {"note_status": 1, "channel": 6, "note": 38, "velocity": 95, "time": 0, "type": "NormalMsg"}, "M_10431": {"note_status": 1, "channel": 6, "note": 38, "velocity": 0, "time": 0, "type": "NormalMsg"}, "M_10432": {"note_status": 1, "channel": 6, "note": 31, "velocity": 113, "time": 0, "type": "NormalMsg"}, "M_10433": {"note_status": 1, "channel": 6, "note": 31, "velocity": 0, "time": 0, "type": "NormalMsg"}, "M_10434": {"note_status": 1, "channel": 6, "note": 43, "velocity": 103, "time": 0, "type": "NormalMsg"}, "M_10435": {"note_status": 1, "channel": 6, "note": 43, "velocity": 0, "time": 0, "type": "NormalMsg"}, "M_10436": {"note_status": 1, "channel": 6, "note": 31, "velocity": 117, "time": 0, "type": "NormalMsg"}, "M_10437": {"note_status": 1, "channel": 6, "note": 31, "velocity": 0, "time": 0, "type": "NormalMsg"}, "M_10438": {"note_status": 1, "channel": 6, "note": 43, "velocity": 103, "time": 0, "type": "NormalMsg"}, "M_10439": {"note_status": 1, "channel": 6, "note": 43, "velocity": 0, "time": 0, "type": "NormalMsg"}, "M_10440": {"note_status": 1, "channel": 6, "note": 33, "velocity": 113, "time": 0, "type": "NormalMsg"}, "M_10441": {"note_status": 1, "channel": 6, "note": 33, "velocity": 0, "time": 0, "type": "NormalMsg"}, "M_10442": {"note_status": 1, "channel": 6, "note": 45, "velocity": 95, "time": 0, "type": "NormalMsg"}, "M_10443": {"note_status": 1, "channel": 6, "note": 45, "velocity": 0, "time": 0, "type": "NormalMsg"}, "M_10444": {"note_status": 1, "channel": 6, "note": 33, "velocity": 108, "time": 0, "type": "NormalMsg"}, "M_10445": {"note_status": 1, "channel": 6, "note": 33, "velocity": 0, "time": 0, "type": "NormalMsg"}, "M_10446": {"note_status": 1, "channel": 6, "note": 45, "velocity": 92, "time": 0, "type": "NormalMsg"}, "M_10447": {"note_status": 1, "channel": 6, "note": 45, "velocity": 0, "time": 0, "type": "NormalMsg"}, "M_10448": {"note_status": 1, "channel": 6, "note": 29, "velocity": 110, "time": 0, "type": "NormalMsg"}, "M_10449": {"note_status": 1, "channel": 6, "note": 29, "velocity": 0, "time": 0, "type": "NormalMsg"}, "M_10450": {"note_status": 1, "channel": 6, "note": 41, "velocity": 95, "time": 0, "type": "NormalMsg"}, "M_10451": {"note_status": 1, "channel": 6, "note": 41, "velocity": 0, "time": 0, "type": "NormalMsg"}, "M_10452": {"note_status": 1, "channel": 6, "note": 29, "velocity": 108, "time": 0, "type": "NormalMsg"}, "M_10453": {"note_status": 1, "channel": 6, "note": 29, "velocity": 0, "time": 0, "type": "NormalMsg"}, "M_10454": {"note_status": 1, "channel": 6, "note": 41, "velocity": 95, "time": 0, "type": "NormalMsg"}, "M_10455": {"note_status": 1, "channel": 6, "note": 41, "velocity": 0, "time": 0, "type": "NormalMsg"}, "M_10456": {"note_status": 1, "channel": 6, "note": 26, "velocity": 113, "time": 0, "type": "NormalMsg"}, "M_10457": {"note_status": 1, "channel": 6, "note": 26, "velocity": 0, "time": 0, "type": "NormalMsg"}, "M_10458": {"note_status": 1, "channel": 6, "note": 38, "velocity": 103, "time": 0, "type": "NormalMsg"}, "M_10459": {"note_status": 1, "channel": 6, "note": 38, "velocity": 0, "time": 0, "type": "NormalMsg"}, "M_10460": {"note_status": 1, "channel": 6, "note": 26, "velocity": 117, "time": 0, "type": "NormalMsg"}, "M_10461": {"note_status": 1, "channel": 6, "note": 26, "velocity": 0, "time": 0, "type": "NormalMsg"}, "M_10462": {"note_status": 1, "channel": 6, "note": 38, "velocity": 95, "time": 0, "type": "NormalMsg"}, "M_10463": {"note_status": 1, "channel": 6, "note": 38, "velocity": 0, "time": 0, "type": "NormalMsg"}, "M_10464": {"note_status": 1, "channel": 6, "note": 31, "velocity": 113, "time": 0, "type": "NormalMsg"}, "M_10465": {"note_status": 1, "channel": 6, "note": 31, "velocity": 0, "time": 0, "type": "NormalMsg"}, "M_10466": {"note_status": 1, "channel": 6, "note": 43, "velocity": 103, "time": 0, "type": "NormalMsg"}, "M_10467": {"note_status": 1, "channel": 6, "note": 43, "velocity": 0, "time": 0, "type": "NormalMsg"}, "M_10468": {"note_status": 1, "channel": 6, "note": 31, "velocity": 117, "time": 0, "type": "NormalMsg"}, "M_10469": {"note_status": 1, "channel": 6, "note": 31, "velocity": 0, "time": 0, "type": "NormalMsg"}, "M_10470": {"note_status": 1, "channel": 6, "note": 43, "velocity": 103, "time": 0, "type": "NormalMsg"}, "M_10471": {"note_status": 1, "channel": 6, "note": 43, "velocity": 0, "time": 0, "type": "NormalMsg"}, "M_10472": {"note_status": 1, "channel": 6, "note": 33, "velocity": 113, "time": 0, "type": "NormalMsg"}, "M_10473": {"note_status": 1, "channel": 6, "note": 33, "velocity": 0, "time": 0, "type": "NormalMsg"}, "M_10474": {"note_status": 1, "channel": 6, "note": 45, "velocity": 95, "time": 0, "type": "NormalMsg"}, "M_10475": {"note_status": 1, "channel": 6, "note": 45, "velocity": 0, "time": 0, "type": "NormalMsg"}, "M_10476": {"note_status": 1, "channel": 6, "note": 33, "velocity": 108, "time": 0, "type": "NormalMsg"}, "M_10477": {"note_status": 1, "channel": 6, "note": 33, "velocity": 0, "time": 0, "type": "NormalMsg"}, "M_10478": {"note_status": 1, "channel": 6, "note": 45, "velocity": 92, "time": 0, "type": "NormalMsg"}, "M_10479": {"note_status": 1, "channel": 6, "note": 45, "velocity": 0, "time": 0, "type": "NormalMsg"}, "M_10480": {"note_status": 1, "channel": 6, "note": 29, "velocity": 110, "time": 0, "type": "NormalMsg"}, "M_10481": {"note_status": 1, "channel": 6, "note": 29, "velocity": 0, "time": 0, "type": "NormalMsg"}, "M_10482": {"note_status": 1, "channel": 6, "note": 41, "velocity": 95, "time": 0, "type": "NormalMsg"}, "M_10483": {"note_status": 1, "channel": 6, "note": 41, "velocity": 0, "time": 0, "type": "NormalMsg"}, "M_10484": {"note_status": 1, "channel": 6, "note": 29, "velocity": 108, "time": 0, "type": "NormalMsg"}, "M_10485": {"note_status": 1, "channel": 6, "note": 29, "velocity": 0, "time": 0, "type": "NormalMsg"}, "M_10486": {"note_status": 1, "channel": 6, "note": 41, "velocity": 95, "time": 0, "type": "NormalMsg"}, "M_10487": {"note_status": 1, "channel": 6, "note": 41, "velocity": 0, "time": 0, "type": "NormalMsg"}, "M_10488": {"note_status": 1, "channel": 6, "note": 26, "velocity": 113, "time": 0, "type": "NormalMsg"}, "M_10489": {"note_status": 1, "channel": 6, "note": 26, "velocity": 0, "time": 0, "type": "NormalMsg"}, "M_10490": {"note_status": 1, "channel": 6, "note": 38, "velocity": 103, "time": 0, "type": "NormalMsg"}, "M_10491": {"note_status": 1, "channel": 6, "note": 38, "velocity": 0, "time": 0, "type": "NormalMsg"}, "M_10492": {"note_status": 1, "channel": 6, "note": 26, "velocity": 117, "time": 0, "type": "NormalMsg"}, "M_10493": {"note_status": 1, "channel": 6, "note": 26, "velocity": 0, "time": 0, "type": "NormalMsg"}, "M_10494": {"note_status": 1, "channel": 6, "note": 38, "velocity": 95, "time": 0, "type": "NormalMsg"}, "M_10495": {"note_status": 1, "channel": 6, "note": 38, "velocity": 0, "time": 0, "type": "NormalMsg"}, "M_10496": {"note_status": 1, "channel": 6, "note": 31, "velocity": 113, "time": 0, "type": "NormalMsg"}, "M_10497": {"note_status": 1, "channel": 6, "note": 31, "velocity": 0, "time": 0, "type": "NormalMsg"}, "M_10498": {"note_status": 1, "channel": 6, "note": 43, "velocity": 103, "time": 0, "type": "NormalMsg"}, "M_10499": {"note_status": 1, "channel": 6, "note": 43, "velocity": 0, "time": 0, "type": "NormalMsg"}, "M_10500": {"note_status": 1, "channel": 6, "note": 31, "velocity": 117, "time": 0, "type": "NormalMsg"}, "M_10501": {"note_status": 1, "channel": 6, "note": 31, "velocity": 0, "time": 0, "type": "NormalMsg"}, "M_10502": {"note_status": 1, "channel": 6, "note": 43, "velocity": 103, "time": 0, "type": "NormalMsg"}, "M_10503": {"note_status": 1, "channel": 6, "note": 43, "velocity": 0, "time": 0, "type": "NormalMsg"}, "M_10504": {"note_status": 1, "channel": 6, "note": 33, "velocity": 113, "time": 0, "type": "NormalMsg"}, "M_10505": {"note_status": 1, "channel": 6, "note": 33, "velocity": 0, "time": 0, "type": "NormalMsg"}, "M_10506": {"note_status": 1, "channel": 6, "note": 45, "velocity": 95, "time": 0, "type": "NormalMsg"}, "M_10507": {"note_status": 1, "channel": 6, "note": 45, "velocity": 0, "time": 0, "type": "NormalMsg"}, "M_10508": {"note_status": 1, "channel": 6, "note": 33, "velocity": 108, "time": 0, "type": "NormalMsg"}, "M_10509": {"note_status": 1, "channel": 6, "note": 33, "velocity": 0, "time": 0, "type": "NormalMsg"}, "M_10510": {"note_status": 1, "channel": 6, "note": 45, "velocity": 92, "time": 0, "type": "NormalMsg"}, "M_10511": {"note_status": 1, "channel": 6, "note": 45, "velocity": 0, "time": 0, "type": "NormalMsg"}, "M_10512": {"note_status": 1, "channel": 6, "note": 29, "velocity": 110, "time": 0, "type": "NormalMsg"}, "M_10513": {"note_status": 1, "channel": 6, "note": 29, "velocity": 0, "time": 0, "type": "NormalMsg"}, "M_10514": {"note_status": 1, "channel": 6, "note": 41, "velocity": 95, "time": 0, "type": "NormalMsg"}, "M_10515": {"note_status": 1, "channel": 6, "note": 41, "velocity": 0, "time": 0, "type": "NormalMsg"}, "M_10516": {"note_status": 1, "channel": 6, "note": 29, "velocity": 108, "time": 0, "type": "NormalMsg"}, "M_10517": {"note_status": 1, "channel": 6, "note": 29, "velocity": 0, "time": 0, "type": "NormalMsg"}, "M_10518": {"note_status": 1, "channel": 6, "note": 41, "velocity": 95, "time": 0, "type": "NormalMsg"}, "M_10519": {"note_status": 1, "channel": 6, "note": 41, "velocity": 0, "time": 0, "type": "NormalMsg"}, "M_10520": {"note_status": 1, "channel": 6, "note": 31, "velocity": 113, "time": 0, "type": "NormalMsg"}, "M_10521": {"note_status": 1, "channel": 6, "note": 31, "velocity": 0, "time": 0, "type": "NormalMsg"}, "M_10522": {"note_status": 1, "channel": 6, "note": 43, "velocity": 103, "time": 0, "type": "NormalMsg"}, "M_10523": {"note_status": 1, "channel": 6, "note": 43, "velocity": 0, "time": 0, "type": "NormalMsg"}, "M_10524": {"note_status": 1, "channel": 6, "note": 31, "velocity": 117, "time": 0, "type": "NormalMsg"}, "M_10525": {"note_status": 1, "channel": 6, "note": 31, "velocity": 0, "time": 0, "type": "NormalMsg"}, "M_10526": {"note_status": 1, "channel": 6, "note": 43, "velocity": 95, "time": 0, "type": "NormalMsg"}, "M_10527": {"note_status": 1, "channel": 6, "note": 43, "velocity": 0, "time": 0, "type": "NormalMsg"}, "M_10528": {"note_status": 1, "channel": 6, "note": 28, "velocity": 113, "time": 0, "type": "NormalMsg"}, "M_10529": {"note_status": 1, "channel": 6, "note": 28, "velocity": 0, "time": 0, "type": "NormalMsg"}, "M_10530": {"note_status": 1, "channel": 6, "note": 40, "velocity": 103, "time": 0, "type": "NormalMsg"}, "M_10531": {"note_status": 1, "channel": 6, "note": 40, "velocity": 0, "time": 0, "type": "NormalMsg"}, "M_10532": {"note_status": 1, "channel": 6, "note": 28, "velocity": 117, "time": 0, "type": "NormalMsg"}, "M_10533": {"note_status": 1, "channel": 6, "note": 28, "velocity": 0, "time": 0, "type": "NormalMsg"}, "M_10534": {"note_status": 1, "channel": 6, "note": 40, "velocity": 103, "time": 0, "type": "NormalMsg"}, "M_10535": {"note_status": 1, "channel": 6, "note": 40, "velocity": 0, "time": 0, "type": "NormalMsg"}, "M_10536": {"note_status": 1, "channel": 6, "note": 33, "velocity": 113, "time": 0, "type": "NormalMsg"}, "M_10537": {"note_status": 1, "channel": 6, "note": 33, "velocity": 0, "time": 0, "type": "NormalMsg"}, "M_10538": {"note_status": 1, "channel": 6, "note": 45, "velocity": 95, "time": 0, "type": "NormalMsg"}, "M_10539": {"note_status": 1, "channel": 6, "note": 45, "velocity": 0, "time": 0, "type": "NormalMsg"}, "M_10540": {"note_status": 1, "channel": 6, "note": 33, "velocity": 108, "time": 0, "type": "NormalMsg"}, "M_10541": {"note_status": 1, "channel": 6, "note": 33, "velocity": 0, "time": 0, "type": "NormalMsg"}, "M_10542": {"note_status": 1, "channel": 6, "note": 45, "velocity": 92, "time": 0, "type": "NormalMsg"}, "M_10543": {"note_status": 1, "channel": 6, "note": 45, "velocity": 0, "time": 0, "type": "NormalMsg"}, "M_10544": {"note_status": 1, "channel": 6, "note": 29, "velocity": 110, "time": 0, "type": "NormalMsg"}, "M_10545": {"note_status": 1, "channel": 6, "note": 29, "velocity": 0, "time": 0, "type": "NormalMsg"}, "M_10546": {"note_status": 1, "channel": 6, "note": 41, "velocity": 95, "time": 0, "type": "NormalMsg"}, "M_10547": {"note_status": 1, "channel": 6, "note": 41, "velocity": 0, "time": 0, "type": "NormalMsg"}, "M_10548": {"note_status": 1, "channel": 6, "note": 29, "velocity": 108, "time": 0, "type": "NormalMsg"}, "M_10549": {"note_status": 1, "channel": 6, "note": 29, "velocity": 0, "time": 0, "type": "NormalMsg"}, "M_10550": {"note_status": 1, "channel": 6, "note": 41, "velocity": 95, "time": 0, "type": "NormalMsg"}, "M_10551": {"note_status": 1, "channel": 6, "note": 41, "velocity": 0, "time": 0, "type": "NormalMsg"}, "M_10552": {"note_status": 1, "channel": 6, "note": 26, "velocity": 113, "time": 0, "type": "NormalMsg"}, "M_10553": {"note_status": 1, "channel": 6, "note": 26, "velocity": 0, "time": 0, "type": "NormalMsg"}, "M_10554": {"note_status": 1, "channel": 6, "note": 38, "velocity": 103, "time": 0, "type": "NormalMsg"}, "M_10555": {"note_status": 1, "channel": 6, "note": 38, "velocity": 0, "time": 0, "type": "NormalMsg"}, "M_10556": {"note_status": 1, "channel": 6, "note": 26, "velocity": 117, "time": 0, "type": "NormalMsg"}, "M_10557": {"note_status": 1, "channel": 6, "note": 26, "velocity": 0, "time": 0, "type": "NormalMsg"}, "M_10558": {"note_status": 1, "channel": 6, "note": 38, "velocity": 95, "time": 0, "type": "NormalMsg"}, "M_10559": {"note_status": 1, "channel": 6, "note": 38, "velocity": 0, "time": 0, "type": "NormalMsg"}, "M_10560": {"note_status": 1, "channel": 6, "note": 31, "velocity": 113, "time": 0, "type": "NormalMsg"}, "M_10561": {"note_status": 1, "channel": 6, "note": 31, "velocity": 0, "time": 0, "type": "NormalMsg"}, "M_10562": {"note_status": 1, "channel": 6, "note": 43, "velocity": 103, "time": 0, "type": "NormalMsg"}, "M_10563": {"note_status": 1, "channel": 6, "note": 43, "velocity": 0, "time": 0, "type": "NormalMsg"}, "M_10564": {"note_status": 1, "channel": 6, "note": 31, "velocity": 117, "time": 0, "type": "NormalMsg"}, "M_10565": {"note_status": 1, "channel": 6, "note": 31, "velocity": 0, "time": 0, "type": "NormalMsg"}, "M_10566": {"note_status": 1, "channel": 6, "note": 43, "velocity": 103, "time": 0, "type": "NormalMsg"}, "M_10567": {"note_status": 1, "channel": 6, "note": 43, "velocity": 0, "time": 0, "type": "NormalMsg"}, "M_10568": {"note_status": 1, "channel": 6, "note": 33, "velocity": 113, "time": 0, "type": "NormalMsg"}, "M_10569": {"note_status": 1, "channel": 6, "note": 33, "velocity": 0, "time": 0, "type": "NormalMsg"}, "M_10570": {"note_status": 1, "channel": 6, "note": 45, "velocity": 95, "time": 0, "type": "NormalMsg"}, "M_10571": {"note_status": 1, "channel": 6, "note": 45, "velocity": 0, "time": 0, "type": "NormalMsg"}, "M_10572": {"note_status": 1, "channel": 6, "note": 33, "velocity": 108, "time": 0, "type": "NormalMsg"}, "M_10573": {"note_status": 1, "channel": 6, "note": 33, "velocity": 0, "time": 0, "type": "NormalMsg"}, "M_10574": {"note_status": 1, "channel": 6, "note": 45, "velocity": 92, "time": 0, "type": "NormalMsg"}, "M_10575": {"note_status": 1, "channel": 6, "note": 45, "velocity": 0, "time": 0, "type": "NormalMsg"}, "M_10576": {"note_status": 1, "channel": 6, "note": 29, "velocity": 110, "time": 0, "type": "NormalMsg"}, "M_10577": {"note_status": 1, "channel": 6, "note": 29, "velocity": 0, "time": 0, "type": "NormalMsg"}, "M_10578": {"note_status": 1, "channel": 6, "note": 41, "velocity": 95, "time": 0, "type": "NormalMsg"}, "M_10579": {"note_status": 1, "channel": 6, "note": 41, "velocity": 0, "time": 0, "type": "NormalMsg"}, "M_10580": {"note_status": 1, "channel": 6, "note": 29, "velocity": 108, "time": 0, "type": "NormalMsg"}, "M_10581": {"note_status": 1, "channel": 6, "note": 29, "velocity": 0, "time": 0, "type": "NormalMsg"}, "M_10582": {"note_status": 1, "channel": 6, "note": 41, "velocity": 95, "time": 0, "type": "NormalMsg"}, "M_10583": {"note_status": 1, "channel": 6, "note": 41, "velocity": 0, "time": 0, "type": "NormalMsg"}, "M_10584": {"note_status": 1, "channel": 6, "note": 26, "velocity": 113, "time": 0, "type": "NormalMsg"}, "M_10585": {"note_status": 1, "channel": 6, "note": 26, "velocity": 0, "time": 0, "type": "NormalMsg"}, "M_10586": {"note_status": 1, "channel": 6, "note": 38, "velocity": 103, "time": 0, "type": "NormalMsg"}, "M_10587": {"note_status": 1, "channel": 6, "note": 38, "velocity": 0, "time": 0, "type": "NormalMsg"}, "M_10588": {"note_status": 1, "channel": 6, "note": 26, "velocity": 117, "time": 0, "type": "NormalMsg"}, "M_10589": {"note_status": 1, "channel": 6, "note": 26, "velocity": 0, "time": 0, "type": "NormalMsg"}, "M_10590": {"note_status": 1, "channel": 6, "note": 38, "velocity": 95, "time": 0, "type": "NormalMsg"}, "M_10591": {"note_status": 1, "channel": 6, "note": 38, "velocity": 0, "time": 0, "type": "NormalMsg"}, "M_10592": {"note_status": 1, "channel": 6, "note": 31, "velocity": 113, "time": 0, "type": "NormalMsg"}, "M_10593": {"note_status": 1, "channel": 6, "note": 31, "velocity": 0, "time": 0, "type": "NormalMsg"}, "M_10594": {"note_status": 1, "channel": 6, "note": 43, "velocity": 103, "time": 0, "type": "NormalMsg"}, "M_10595": {"note_status": 1, "channel": 6, "note": 43, "velocity": 0, "time": 0, "type": "NormalMsg"}, "M_10596": {"note_status": 1, "channel": 6, "note": 31, "velocity": 117, "time": 0, "type": "NormalMsg"}, "M_10597": {"note_status": 1, "channel": 6, "note": 31, "velocity": 0, "time": 0, "type": "NormalMsg"}, "M_10598": {"note_status": 1, "channel": 6, "note": 43, "velocity": 103, "time": 0, "type": "NormalMsg"}, "M_10599": {"note_status": 1, "channel": 6, "note": 43, "velocity": 0, "time": 0, "type": "NormalMsg"}, "M_10600": {"note_status": 1, "channel": 6, "note": 29, "velocity": 113, "time": 0, "type": "NormalMsg"}, "M_10601": {"note_status": 1, "channel": 6, "note": 29, "velocity": 0, "time": 0, "type": "NormalMsg"}, "M_10602": {"note_status": 1, "channel": 6, "note": 41, "velocity": 95, "time": 0, "type": "NormalMsg"}, "M_10603": {"note_status": 1, "channel": 6, "note": 41, "velocity": 0, "time": 0, "type": "NormalMsg"}, "M_10604": {"note_status": 1, "channel": 6, "note": 29, "velocity": 108, "time": 0, "type": "NormalMsg"}, "M_10605": {"note_status": 1, "channel": 6, "note": 29, "velocity": 0, "time": 0, "type": "NormalMsg"}, "M_10606": {"note_status": 1, "channel": 6, "note": 41, "velocity": 92, "time": 0, "type": "NormalMsg"}, "M_10607": {"note_status": 1, "channel": 6, "note": 41, "velocity": 0, "time": 0, "type": "NormalMsg"}, "M_10608": {"note_status": 1, "channel": 6, "note": 29, "velocity": 110, "time": 0, "type": "NormalMsg"}, "M_10609": {"note_status": 1, "channel": 6, "note": 29, "velocity": 0, "time": 0, "type": "NormalMsg"}, "M_10610": {"note_status": 1, "channel": 6, "note": 41, "velocity": 95, "time": 0, "type": "NormalMsg"}, "M_10611": {"note_status": 1, "channel": 6, "note": 41, "velocity": 0, "time": 0, "type": "NormalMsg"}, "M_10612": {"note_status": 1, "channel": 6, "note": 29, "velocity": 108, "time": 0, "type": "NormalMsg"}, "M_10613": {"note_status": 1, "channel": 6, "note": 29, "velocity": 0, "time": 0, "type": "NormalMsg"}, "M_10614": {"note_status": 1, "channel": 6, "note": 41, "velocity": 95, "time": 0, "type": "NormalMsg"}, "M_10615": {"note_status": 1, "channel": 6, "note": 41, "velocity": 0, "time": 0, "type": "NormalMsg"}, "M_10616": {"note_status": 1, "channel": 6, "note": 29, "velocity": 113, "time": 0, "type": "NormalMsg"}, "M_10617": {"note_status": 1, "channel": 6, "note": 29, "velocity": 0, "time": 0, "type": "NormalMsg"}, "M_10618": {"note_status": 1, "channel": 6, "note": 41, "velocity": 103, "time": 0, "type": "NormalMsg"}, "M_10619": {"note_status": 1, "channel": 6, "note": 41, "velocity": 0, "time": 0, "type": "NormalMsg"}, "M_10620": {"note_status": 1, "channel": 6, "note": 29, "velocity": 117, "time": 0, "type": "NormalMsg"}, "M_10621": {"note_status": 1, "channel": 6, "note": 29, "velocity": 0, "time": 0, "type": "NormalMsg"}, "M_10622": {"note_status": 1, "channel": 6, "note": 41, "velocity": 95, "time": 0, "type": "NormalMsg"}, "M_10623": {"note_status": 1, "channel": 6, "note": 41, "velocity": 0, "time": 0, "type": "NormalMsg"}, "M_10624": {"note_status": 1, "channel": 6, "note": 29, "velocity": 113, "time": 0, "type": "NormalMsg"}, "M_10625": {"note_status": 1, "channel": 6, "note": 29, "velocity": 0, "time": 0, "type": "NormalMsg"}, "M_10626": {"note_status": 1, "channel": 6, "note": 41, "velocity": 103, "time": 0, "type": "NormalMsg"}, "M_10627": {"note_status": 1, "channel": 6, "note": 41, "velocity": 0, "time": 0, "type": "NormalMsg"}, "M_10628": {"note_status": 1, "channel": 6, "note": 29, "velocity": 117, "time": 0, "type": "NormalMsg"}, "M_10629": {"note_status": 1, "channel": 6, "note": 29, "velocity": 0, "time": 0, "type": "NormalMsg"}, "M_10630": {"note_status": 1, "channel": 6, "note": 41, "velocity": 103, "time": 0, "type": "NormalMsg"}, "M_10631": {"note_status": 1, "channel": 6, "note": 41, "velocity": 0, "time": 0, "type": "NormalMsg"}, "M_10632": {"note_status": 1, "channel": 6, "note": 31, "velocity": 113, "time": 0, "type": "NormalMsg"}, "M_10633": {"note_status": 1, "channel": 6, "note": 31, "velocity": 0, "time": 0, "type": "NormalMsg"}, "M_10634": {"note_status": 1, "channel": 6, "note": 43, "velocity": 95, "time": 0, "type": "NormalMsg"}, "M_10635": {"note_status": 1, "channel": 6, "note": 43, "velocity": 0, "time": 0, "type": "NormalMsg"}, "M_10636": {"note_status": 1, "channel": 6, "note": 31, "velocity": 108, "time": 0, "type": "NormalMsg"}, "M_10637": {"note_status": 1, "channel": 6, "note": 31, "velocity": 0, "time": 0, "type": "NormalMsg"}, "M_10638": {"note_status": 1, "channel": 6, "note": 43, "velocity": 92, "time": 0, "type": "NormalMsg"}, "M_10639": {"note_status": 1, "channel": 6, "note": 43, "velocity": 0, "time": 0, "type": "NormalMsg"}, "M_10640": {"note_status": 1, "channel": 6, "note": 31, "velocity": 110, "time": 0, "type": "NormalMsg"}, "M_10641": {"note_status": 1, "channel": 6, "note": 31, "velocity": 0, "time": 0, "type": "NormalMsg"}, "M_10642": {"note_status": 1, "channel": 6, "note": 43, "velocity": 95, "time": 0, "type": "NormalMsg"}, "M_10643": {"note_status": 1, "channel": 6, "note": 43, "velocity": 0, "time": 0, "type": "NormalMsg"}, "M_10644": {"note_status": 1, "channel": 6, "note": 31, "velocity": 108, "time": 0, "type": "NormalMsg"}, "M_10645": {"note_status": 1, "channel": 6, "note": 31, "velocity": 0, "time": 0, "type": "NormalMsg"}, "M_10646": {"note_status": 1, "channel": 6, "note": 43, "velocity": 95, "time": 0, "type": "NormalMsg"}, "M_10647": {"note_status": 1, "channel": 6, "note": 43, "velocity": 0, "time": 0, "type": "NormalMsg"}, "M_10648": {"note_status": 1, "channel": 6, "note": 31, "velocity": 113, "time": 0, "type": "NormalMsg"}, "M_10649": {"note_status": 1, "channel": 6, "note": 31, "velocity": 0, "time": 0, "type": "NormalMsg"}, "M_10650": {"note_status": 1, "channel": 6, "note": 43, "velocity": 103, "time": 0, "type": "NormalMsg"}, "M_10651": {"note_status": 1, "channel": 6, "note": 43, "velocity": 0, "time": 0, "type": "NormalMsg"}, "M_10652": {"note_status": 1, "channel": 6, "note": 31, "velocity": 117, "time": 0, "type": "NormalMsg"}, "M_10653": {"note_status": 1, "channel": 6, "note": 31, "velocity": 0, "time": 0, "type": "NormalMsg"}, "M_10654": {"note_status": 1, "channel": 6, "note": 33, "velocity": 113, "time": 0, "type": "NormalMsg"}, "M_10655": {"note_status": 1, "channel": 6, "note": 33, "velocity": 0, "time": 0, "type": "NormalMsg"}, "M_10656": {"note_status": 1, "channel": 6, "note": 45, "velocity": 95, "time": 0, "type": "NormalMsg"}, "M_10657": {"note_status": 1, "channel": 6, "note": 45, "velocity": 0, "time": 0, "type": "NormalMsg"}, "M_10658": {"note_status": 1, "channel": 6, "note": 33, "velocity": 108, "time": 0, "type": "NormalMsg"}, "M_10659": {"note_status": 1, "channel": 6, "note": 33, "velocity": 0, "time": 0, "type": "NormalMsg"}, "M_10660": {"note_status": 1, "channel": 6, "note": 45, "velocity": 92, "time": 0, "type": "NormalMsg"}, "M_10661": {"note_status": 1, "channel": 6, "note": 45, "velocity": 0, "time": 0, "type": "NormalMsg"}, "M_10662": {"note_status": 1, "channel": 6, "note": 29, "velocity": 110, "time": 0, "type": "NormalMsg"}, "M_10663": {"note_status": 1, "channel": 6, "note": 29, "velocity": 0, "time": 0, "type": "NormalMsg"}, "M_10664": {"note_status": 1, "channel": 6, "note": 41, "velocity": 95, "time": 0, "type": "NormalMsg"}, "M_10665": {"note_status": 1, "channel": 6, "note": 41, "velocity": 0, "time": 0, "type": "NormalMsg"}, "M_10666": {"note_status": 1, "channel": 6, "note": 29, "velocity": 108, "time": 0, "type": "NormalMsg"}, "M_10667": {"note_status": 1, "channel": 6, "note": 29, "velocity": 0, "time": 0, "type": "NormalMsg"}, "M_10668": {"note_status": 1, "channel": 6, "note": 41, "velocity": 95, "time": 0, "type": "NormalMsg"}, "M_10669": {"note_status": 1, "channel": 6, "note": 41, "velocity": 0, "time": 0, "type": "NormalMsg"}, "M_10670": {"note_status": 1, "channel": 6, "note": 26, "velocity": 113, "time": 0, "type": "NormalMsg"}, "M_10671": {"note_status": 1, "channel": 6, "note": 26, "velocity": 0, "time": 0, "type": "NormalMsg"}, "M_10672": {"note_status": 1, "channel": 6, "note": 38, "velocity": 103, "time": 0, "type": "NormalMsg"}, "M_10673": {"note_status": 1, "channel": 6, "note": 38, "velocity": 0, "time": 0, "type": "NormalMsg"}, "M_10674": {"note_status": 1, "channel": 6, "note": 26, "velocity": 117, "time": 0, "type": "NormalMsg"}, "M_10675": {"note_status": 1, "channel": 6, "note": 26, "velocity": 0, "time": 0, "type": "NormalMsg"}, "M_10676": {"note_status": 1, "channel": 6, "note": 38, "velocity": 95, "time": 0, "type": "NormalMsg"}, "M_10677": {"note_status": 1, "channel": 6, "note": 38, "velocity": 0, "time": 0, "type": "NormalMsg"}, "M_10678": {"note_status": 1, "channel": 6, "note": 31, "velocity": 113, "time": 0, "type": "NormalMsg"}, "M_10679": {"note_status": 1, "channel": 6, "note": 31, "velocity": 0, "time": 0, "type": "NormalMsg"}, "M_10680": {"note_status": 1, "channel": 6, "note": 31, "velocity": 117, "time": 0, "type": "NormalMsg"}, "M_10681": {"note_status": 1, "channel": 6, "note": 31, "velocity": 0, "time": 0, "type": "NormalMsg"}, "M_10682": {"note_status": 1, "channel": 6, "note": 43, "velocity": 103, "time": 0, "type": "NormalMsg"}, "M_10683": {"note_status": 1, "channel": 6, "note": 43, "velocity": 0, "time": 0, "type": "NormalMsg"}, "M_10684": {"note_status": 1, "channel": 6, "note": 33, "velocity": 113, "time": 0, "type": "NormalMsg"}, "M_10685": {"note_status": 1, "channel": 6, "note": 33, "velocity": 0, "time": 0, "type": "NormalMsg"}, "M_10686": {"note_status": 1, "channel": 6, "note": 45, "velocity": 95, "time": 0, "type": "NormalMsg"}, "M_10687": {"note_status": 1, "channel": 6, "note": 45, "velocity": 0, "time": 0, "type": "NormalMsg"}, "M_10688": {"note_status": 1, "channel": 6, "note": 33, "velocity": 108, "time": 0, "type": "NormalMsg"}, "M_10689": {"note_status": 1, "channel": 6, "note": 33, "velocity": 0, "time": 0, "type": "NormalMsg"}, "M_10690": {"note_status": 1, "channel": 6, "note": 45, "velocity": 92, "time": 0, "type": "NormalMsg"}, "M_10691": {"note_status": 1, "channel": 6, "note": 45, "velocity": 0, "time": 0, "type": "NormalMsg"}, "M_10692": {"note_status": 1, "channel": 6, "note": 29, "velocity": 110, "time": 0, "type": "NormalMsg"}, "M_10693": {"note_status": 1, "channel": 6, "note": 29, "velocity": 0, "time": 0, "type": "NormalMsg"}, "M_10694": {"note_status": 1, "channel": 6, "note": 41, "velocity": 95, "time": 0, "type": "NormalMsg"}, "M_10695": {"note_status": 1, "channel": 6, "note": 41, "velocity": 0, "time": 0, "type": "NormalMsg"}, "M_10696": {"note_status": 1, "channel": 6, "note": 29, "velocity": 108, "time": 0, "type": "NormalMsg"}, "M_10697": {"note_status": 1, "channel": 6, "note": 29, "velocity": 0, "time": 0, "type": "NormalMsg"}, "M_10698": {"note_status": 1, "channel": 6, "note": 41, "velocity": 95, "time": 0, "type": "NormalMsg"}, "M_10699": {"note_status": 1, "channel": 6, "note": 41, "velocity": 0, "time": 0, "type": "NormalMsg"}, "M_10700": {"note_status": 1, "channel": 6, "note": 31, "velocity": 113, "time": 0, "type": "NormalMsg"}, "M_10701": {"note_status": 1, "channel": 6, "note": 31, "velocity": 0, "time": 0, "type": "NormalMsg"}, "M_10702": {"note_status": 1, "channel": 6, "note": 43, "velocity": 103, "time": 0, "type": "NormalMsg"}, "M_10703": {"note_status": 1, "channel": 6, "note": 43, "velocity": 0, "time": 0, "type": "NormalMsg"}, "M_10704": {"note_status": 1, "channel": 6, "note": 31, "velocity": 117, "time": 0, "type": "NormalMsg"}, "M_10705": {"note_status": 1, "channel": 6, "note": 31, "velocity": 0, "time": 0, "type": "NormalMsg"}, "M_10706": {"note_status": 1, "channel": 6, "note": 43, "velocity": 103, "time": 0, "type": "NormalMsg"}, "M_10707": {"note_status": 1, "channel": 6, "note": 43, "velocity": 0, "time": 0, "type": "NormalMsg"}, "M_10708": {"note_status": 1, "channel": 6, "note": 33, "velocity": 113, "time": 0, "type": "NormalMsg"}, "M_10709": {"note_status": 1, "channel": 6, "note": 33, "velocity": 0, "time": 0, "type": "NormalMsg"}, "M_10710": {"note_status": 1, "channel": 6, "note": 45, "velocity": 95, "time": 0, "type": "NormalMsg"}, "M_10711": {"note_status": 1, "channel": 6, "note": 45, "velocity": 0, "time": 0, "type": "NormalMsg"}, "M_10712": {"note_status": 1, "channel": 6, "note": 33, "velocity": 108, "time": 0, "type": "NormalMsg"}, "M_10713": {"note_status": 1, "channel": 6, "note": 33, "velocity": 0, "time": 0, "type": "NormalMsg"}, "M_10714": {"note_status": 1, "channel": 6, "note": 45, "velocity": 92, "time": 0, "type": "NormalMsg"}, "M_10715": {"note_status": 1, "channel": 6, "note": 45, "velocity": 0, "time": 0, "type": "NormalMsg"}, "M_10716": {"note_status": 1, "channel": 6, "note": 29, "velocity": 110, "time": 0, "type": "NormalMsg"}, "M_10717": {"note_status": 1, "channel": 6, "note": 29, "velocity": 0, "time": 0, "type": "NormalMsg"}, "M_10718": {"note_status": 1, "channel": 6, "note": 41, "velocity": 95, "time": 0, "type": "NormalMsg"}, "M_10719": {"note_status": 1, "channel": 6, "note": 41, "velocity": 0, "time": 0, "type": "NormalMsg"}, "M_10720": {"note_status": 1, "channel": 6, "note": 29, "velocity": 108, "time": 0, "type": "NormalMsg"}, "M_10721": {"note_status": 1, "channel": 6, "note": 29, "velocity": 0, "time": 0, "type": "NormalMsg"}, "M_10722": {"note_status": 1, "channel": 6, "note": 41, "velocity": 95, "time": 0, "type": "NormalMsg"}, "M_10723": {"note_status": 1, "channel": 6, "note": 41, "velocity": 0, "time": 0, "type": "NormalMsg"}, "M_10724": {"note_status": 1, "channel": 6, "note": 26, "velocity": 113, "time": 0, "type": "NormalMsg"}, "M_10725": {"note_status": 1, "channel": 6, "note": 26, "velocity": 0, "time": 0, "type": "NormalMsg"}, "M_10726": {"note_status": 1, "channel": 6, "note": 38, "velocity": 103, "time": 0, "type": "NormalMsg"}, "M_10727": {"note_status": 1, "channel": 6, "note": 38, "velocity": 0, "time": 0, "type": "NormalMsg"}, "M_10728": {"note_status": 1, "channel": 6, "note": 26, "velocity": 117, "time": 0, "type": "NormalMsg"}, "M_10729": {"note_status": 1, "channel": 6, "note": 26, "velocity": 0, "time": 0, "type": "NormalMsg"}, "M_10730": {"note_status": 1, "channel": 6, "note": 38, "velocity": 95, "time": 0, "type": "NormalMsg"}, "M_10731": {"note_status": 1, "channel": 6, "note": 38, "velocity": 0, "time": 0, "type": "NormalMsg"}, "M_10732": {"note_status": 1, "channel": 6, "note": 31, "velocity": 113, "time": 0, "type": "NormalMsg"}, "M_10733": {"note_status": 1, "channel": 6, "note": 31, "velocity": 0, "time": 0, "type": "NormalMsg"}, "M_10734": {"note_status": 1, "channel": 6, "note": 43, "velocity": 103, "time": 0, "type": "NormalMsg"}, "M_10735": {"note_status": 1, "channel": 6, "note": 43, "velocity": 0, "time": 0, "type": "NormalMsg"}, "M_10736": {"note_status": 1, "channel": 6, "note": 31, "velocity": 117, "time": 0, "type": "NormalMsg"}, "M_10737": {"note_status": 1, "channel": 6, "note": 31, "velocity": 0, "time": 0, "type": "NormalMsg"}, "M_10738": {"note_status": 1, "channel": 6, "note": 43, "velocity": 103, "time": 0, "type": "NormalMsg"}, "M_10739": {"note_status": 1, "channel": 6, "note": 43, "velocity": 0, "time": 0, "type": "NormalMsg"}, "M_10740": {"note_status": 1, "channel": 6, "note": 33, "velocity": 113, "time": 0, "type": "NormalMsg"}, "M_10741": {"note_status": 1, "channel": 6, "note": 33, "velocity": 0, "time": 0, "type": "NormalMsg"}, "M_10742": {"note_status": 1, "channel": 6, "note": 45, "velocity": 95, "time": 0, "type": "NormalMsg"}, "M_10743": {"note_status": 1, "channel": 6, "note": 45, "velocity": 0, "time": 0, "type": "NormalMsg"}, "M_10744": {"note_status": 1, "channel": 6, "note": 33, "velocity": 108, "time": 0, "type": "NormalMsg"}, "M_10745": {"note_status": 1, "channel": 6, "note": 33, "velocity": 0, "time": 0, "type": "NormalMsg"}, "M_10746": {"note_status": 1, "channel": 6, "note": 45, "velocity": 92, "time": 0, "type": "NormalMsg"}, "M_10747": {"note_status": 1, "channel": 6, "note": 45, "velocity": 0, "time": 0, "type": "NormalMsg"}, "M_10748": {"note_status": 1, "channel": 6, "note": 29, "velocity": 110, "time": 0, "type": "NormalMsg"}, "M_10749": {"note_status": 1, "channel": 6, "note": 29, "velocity": 0, "time": 0, "type": "NormalMsg"}, "M_10750": {"note_status": 1, "channel": 6, "note": 41, "velocity": 95, "time": 0, "type": "NormalMsg"}, "M_10751": {"note_status": 1, "channel": 6, "note": 41, "velocity": 0, "time": 0, "type": "NormalMsg"}, "M_10752": {"note_status": 1, "channel": 6, "note": 29, "velocity": 108, "time": 0, "type": "NormalMsg"}, "M_10753": {"note_status": 1, "channel": 6, "note": 29, "velocity": 0, "time": 0, "type": "NormalMsg"}, "M_10754": {"note_status": 1, "channel": 6, "note": 41, "velocity": 95, "time": 0, "type": "NormalMsg"}, "M_10755": {"note_status": 1, "channel": 6, "note": 41, "velocity": 0, "time": 0, "type": "NormalMsg"}, "M_10756": {"note_status": 1, "channel": 6, "note": 26, "velocity": 113, "time": 0, "type": "NormalMsg"}, "M_10757": {"note_status": 1, "channel": 6, "note": 26, "velocity": 0, "time": 0, "type": "NormalMsg"}, "M_10758": {"note_status": 1, "channel": 6, "note": 38, "velocity": 103, "time": 0, "type": "NormalMsg"}, "M_10759": {"note_status": 1, "channel": 6, "note": 38, "velocity": 0, "time": 0, "type": "NormalMsg"}, "M_10760": {"note_status": 1, "channel": 6, "note": 26, "velocity": 117, "time": 0, "type": "NormalMsg"}, "M_10761": {"note_status": 1, "channel": 6, "note": 26, "velocity": 0, "time": 0, "type": "NormalMsg"}, "M_10762": {"note_status": 1, "channel": 6, "note": 38, "velocity": 95, "time": 0, "type": "NormalMsg"}, "M_10763": {"note_status": 1, "channel": 6, "note": 38, "velocity": 0, "time": 0, "type": "NormalMsg"}, "M_10764": {"note_status": 1, "channel": 6, "note": 31, "velocity": 113, "time": 0, "type": "NormalMsg"}, "M_10765": {"note_status": 1, "channel": 6, "note": 31, "velocity": 0, "time": 0, "type": "NormalMsg"}, "M_10766": {"note_status": 1, "channel": 6, "note": 43, "velocity": 103, "time": 0, "type": "NormalMsg"}, "M_10767": {"note_status": 1, "channel": 6, "note": 43, "velocity": 0, "time": 0, "type": "NormalMsg"}, "M_10768": {"note_status": 1, "channel": 6, "note": 31, "velocity": 117, "time": 0, "type": "NormalMsg"}, "M_10769": {"note_status": 1, "channel": 6, "note": 31, "velocity": 0, "time": 0, "type": "NormalMsg"}, "M_10770": {"note_status": 1, "channel": 6, "note": 43, "velocity": 103, "time": 0, "type": "NormalMsg"}, "M_10771": {"note_status": 1, "channel": 6, "note": 43, "velocity": 0, "time": 0, "type": "NormalMsg"}, "M_10772": {"note_status": 1, "channel": 6, "note": 33, "velocity": 113, "time": 0, "type": "NormalMsg"}, "M_10773": {"note_status": 1, "channel": 6, "note": 33, "velocity": 0, "time": 0, "type": "NormalMsg"}, "M_10774": {"note_status": 1, "channel": 6, "note": 45, "velocity": 95, "time": 0, "type": "NormalMsg"}, "M_10775": {"note_status": 1, "channel": 6, "note": 45, "velocity": 0, "time": 0, "type": "NormalMsg"}, "M_10776": {"note_status": 1, "channel": 6, "note": 33, "velocity": 108, "time": 0, "type": "NormalMsg"}, "M_10777": {"note_status": 1, "channel": 6, "note": 33, "velocity": 0, "time": 0, "type": "NormalMsg"}, "M_10778": {"note_status": 1, "channel": 6, "note": 45, "velocity": 92, "time": 0, "type": "NormalMsg"}, "M_10779": {"note_status": 1, "channel": 6, "note": 45, "velocity": 0, "time": 0, "type": "NormalMsg"}, "M_10780": {"note_status": 1, "channel": 6, "note": 29, "velocity": 110, "time": 0, "type": "NormalMsg"}, "M_10781": {"note_status": 1, "channel": 6, "note": 29, "velocity": 0, "time": 0, "type": "NormalMsg"}, "M_10782": {"note_status": 1, "channel": 6, "note": 41, "velocity": 95, "time": 0, "type": "NormalMsg"}, "M_10783": {"note_status": 1, "channel": 6, "note": 41, "velocity": 0, "time": 0, "type": "NormalMsg"}, "M_10784": {"note_status": 1, "channel": 6, "note": 29, "velocity": 108, "time": 0, "type": "NormalMsg"}, "M_10785": {"note_status": 1, "channel": 6, "note": 29, "velocity": 0, "time": 0, "type": "NormalMsg"}, "M_10786": {"note_status": 1, "channel": 6, "note": 41, "velocity": 95, "time": 0, "type": "NormalMsg"}, "M_10787": {"note_status": 1, "channel": 6, "note": 41, "velocity": 0, "time": 0, "type": "NormalMsg"}, "M_10788": {"note_status": 1, "channel": 6, "note": 26, "velocity": 113, "time": 0, "type": "NormalMsg"}, "M_10789": {"note_status": 1, "channel": 6, "note": 26, "velocity": 0, "time": 0, "type": "NormalMsg"}, "M_10790": {"note_status": 1, "channel": 6, "note": 38, "velocity": 103, "time": 0, "type": "NormalMsg"}, "M_10791": {"note_status": 1, "channel": 6, "note": 38, "velocity": 0, "time": 0, "type": "NormalMsg"}, "M_10792": {"note_status": 1, "channel": 6, "note": 26, "velocity": 117, "time": 0, "type": "NormalMsg"}, "M_10793": {"note_status": 1, "channel": 6, "note": 26, "velocity": 0, "time": 0, "type": "NormalMsg"}, "M_10794": {"note_status": 1, "channel": 6, "note": 38, "velocity": 95, "time": 0, "type": "NormalMsg"}, "M_10795": {"note_status": 1, "channel": 6, "note": 38, "velocity": 0, "time": 0, "type": "NormalMsg"}, "M_10796": {"note_status": 1, "channel": 6, "note": 31, "velocity": 113, "time": 0, "type": "NormalMsg"}, "M_10797": {"note_status": 1, "channel": 6, "note": 31, "velocity": 0, "time": 0, "type": "NormalMsg"}, "M_10798": {"note_status": 1, "channel": 6, "note": 31, "velocity": 117, "time": 0, "type": "NormalMsg"}, "M_10799": {"note_status": 1, "channel": 6, "note": 31, "velocity": 0, "time": 0, "type": "NormalMsg"}, "M_10800": {"note_status": 1, "channel": 6, "note": 43, "velocity": 103, "time": 0, "type": "NormalMsg"}, "M_10801": {"note_status": 1, "channel": 6, "note": 43, "velocity": 0, "time": 0, "type": "NormalMsg"}, "M_10802": {"note_status": 1, "channel": 6, "note": 33, "velocity": 113, "time": 0, "type": "NormalMsg"}, "M_10803": {"note_status": 1, "channel": 6, "note": 33, "velocity": 0, "time": 0, "type": "NormalMsg"}, "M_10804": {"note_status": 1, "channel": 6, "note": 45, "velocity": 95, "time": 0, "type": "NormalMsg"}, "M_10805": {"note_status": 1, "channel": 6, "note": 45, "velocity": 0, "time": 0, "type": "NormalMsg"}, "M_10806": {"note_status": 1, "channel": 6, "note": 33, "velocity": 108, "time": 0, "type": "NormalMsg"}, "M_10807": {"note_status": 1, "channel": 6, "note": 33, "velocity": 0, "time": 0, "type": "NormalMsg"}, "M_10808": {"note_status": 1, "channel": 6, "note": 45, "velocity": 92, "time": 0, "type": "NormalMsg"}, "M_10809": {"note_status": 1, "channel": 6, "note": 45, "velocity": 0, "time": 0, "type": "NormalMsg"}, "M_10810": {"note_status": 1, "channel": 6, "note": 29, "velocity": 110, "time": 0, "type": "NormalMsg"}, "M_10811": {"note_status": 1, "channel": 6, "note": 29, "velocity": 0, "time": 0, "type": "NormalMsg"}, "M_10812": {"note_status": 1, "channel": 6, "note": 41, "velocity": 95, "time": 0, "type": "NormalMsg"}, "M_10813": {"note_status": 1, "channel": 6, "note": 41, "velocity": 0, "time": 0, "type": "NormalMsg"}, "M_10814": {"note_status": 1, "channel": 6, "note": 29, "velocity": 108, "time": 0, "type": "NormalMsg"}, "M_10815": {"note_status": 1, "channel": 6, "note": 29, "velocity": 0, "time": 0, "type": "NormalMsg"}, "M_10816": {"note_status": 1, "channel": 6, "note": 41, "velocity": 95, "time": 0, "type": "NormalMsg"}, "M_10817": {"note_status": 1, "channel": 6, "note": 41, "velocity": 0, "time": 0, "type": "NormalMsg"}, "M_10818": {"note_status": 1, "channel": 6, "note": 31, "velocity": 113, "time": 0, "type": "NormalMsg"}, "M_10819": {"note_status": 1, "channel": 6, "note": 31, "velocity": 0, "time": 0, "type": "NormalMsg"}, "M_10820": {"note_status": 1, "channel": 6, "note": 43, "velocity": 103, "time": 0, "type": "NormalMsg"}, "M_10821": {"note_status": 1, "channel": 6, "note": 43, "velocity": 0, "time": 0, "type": "NormalMsg"}, "M_10822": {"note_status": 1, "channel": 6, "note": 31, "velocity": 117, "time": 0, "type": "NormalMsg"}, "M_10823": {"note_status": 1, "channel": 6, "note": 31, "velocity": 0, "time": 0, "type": "NormalMsg"}, "M_10824": {"note_status": 1, "channel": 6, "note": 43, "velocity": 103, "time": 0, "type": "NormalMsg"}, "M_10825": {"note_status": 1, "channel": 6, "note": 43, "velocity": 0, "time": 0, "type": "NormalMsg"}, "M_10826": {"note_status": 1, "channel": 6, "note": 33, "velocity": 113, "time": 0, "type": "NormalMsg"}, "M_10827": {"note_status": 1, "channel": 6, "note": 33, "velocity": 0, "time": 0, "type": "NormalMsg"}, "M_10828": {"note_status": 1, "channel": 6, "note": 45, "velocity": 95, "time": 0, "type": "NormalMsg"}, "M_10829": {"note_status": 1, "channel": 6, "note": 45, "velocity": 0, "time": 0, "type": "NormalMsg"}, "M_10830": {"note_status": 1, "channel": 6, "note": 33, "velocity": 108, "time": 0, "type": "NormalMsg"}, "M_10831": {"note_status": 1, "channel": 6, "note": 33, "velocity": 0, "time": 0, "type": "NormalMsg"}, "M_10832": {"note_status": 1, "channel": 6, "note": 45, "velocity": 92, "time": 0, "type": "NormalMsg"}, "M_10833": {"note_status": 1, "channel": 6, "note": 45, "velocity": 0, "time": 0, "type": "NormalMsg"}, "M_10834": {"note_status": 1, "channel": 6, "note": 29, "velocity": 110, "time": 0, "type": "NormalMsg"}, "M_10835": {"note_status": 1, "channel": 6, "note": 29, "velocity": 0, "time": 0, "type": "NormalMsg"}, "M_10836": {"note_status": 1, "channel": 6, "note": 41, "velocity": 95, "time": 0, "type": "NormalMsg"}, "M_10837": {"note_status": 1, "channel": 6, "note": 41, "velocity": 0, "time": 0, "type": "NormalMsg"}, "M_10838": {"note_status": 1, "channel": 6, "note": 29, "velocity": 108, "time": 0, "type": "NormalMsg"}, "M_10839": {"note_status": 1, "channel": 6, "note": 29, "velocity": 0, "time": 0, "type": "NormalMsg"}, "M_10840": {"note_status": 1, "channel": 6, "note": 41, "velocity": 95, "time": 0, "type": "NormalMsg"}, "M_10841": {"note_status": 1, "channel": 6, "note": 41, "velocity": 0, "time": 0, "type": "NormalMsg"}, "M_10842": {"note_status": 1, "channel": 6, "note": 26, "velocity": 113, "time": 0, "type": "NormalMsg"}, "M_10843": {"note_status": 1, "channel": 6, "note": 26, "velocity": 0, "time": 0, "type": "NormalMsg"}, "M_10844": {"note_status": 1, "channel": 6, "note": 38, "velocity": 103, "time": 0, "type": "NormalMsg"}, "M_10845": {"note_status": 1, "channel": 6, "note": 38, "velocity": 0, "time": 0, "type": "NormalMsg"}, "M_10846": {"note_status": 1, "channel": 6, "note": 26, "velocity": 117, "time": 0, "type": "NormalMsg"}, "M_10847": {"note_status": 1, "channel": 6, "note": 26, "velocity": 0, "time": 0, "type": "NormalMsg"}, "M_10848": {"note_status": 1, "channel": 6, "note": 38, "velocity": 95, "time": 0, "type": "NormalMsg"}, "M_10849": {"note_status": 1, "channel": 6, "note": 38, "velocity": 0, "time": 0, "type": "NormalMsg"}, "M_10850": {"note_status": 1, "channel": 6, "note": 31, "velocity": 113, "time": 0, "type": "NormalMsg"}, "M_10851": {"note_status": 1, "channel": 6, "note": 31, "velocity": 0, "time": 0, "type": "NormalMsg"}, "M_10852": {"note_status": 1, "channel": 6, "note": 43, "velocity": 103, "time": 0, "type": "NormalMsg"}, "M_10853": {"note_status": 1, "channel": 6, "note": 43, "velocity": 0, "time": 0, "type": "NormalMsg"}, "M_10854": {"note_status": 1, "channel": 6, "note": 31, "velocity": 117, "time": 0, "type": "NormalMsg"}, "M_10855": {"note_status": 1, "channel": 6, "note": 31, "velocity": 0, "time": 0, "type": "NormalMsg"}, "M_10856": {"note_status": 1, "channel": 6, "note": 43, "velocity": 103, "time": 0, "type": "NormalMsg"}, "M_10857": {"note_status": 1, "channel": 6, "note": 43, "velocity": 0, "time": 0, "type": "NormalMsg"}, "M_10858": {"note_status": 1, "channel": 6, "note": 29, "velocity": 127, "time": 0, "type": "NormalMsg"}, "M_10859": {"note_status": 1, "channel": 6, "note": 31, "velocity": 117, "time": 0, "type": "NormalMsg"}, "M_10860": {"note_status": 1, "channel": 6, "note": 29, "velocity": 0, "time": 0, "type": "NormalMsg"}, "M_10861": {"note_status": 1, "channel": 6, "note": 33, "velocity": 113, "time": 0, "type": "NormalMsg"}, "M_10862": {"note_status": 1, "channel": 6, "note": 31, "velocity": 0, "time": 0, "type": "NormalMsg"}, "M_10863": {"note_status": 1, "channel": 6, "note": 31, "velocity": 113, "time": 0, "type": "NormalMsg"}, "M_10864": {"note_status": 1, "channel": 6, "note": 33, "velocity": 0, "time": 0, "type": "NormalMsg"}, "M_10865": {"note_status": 1, "channel": 6, "note": 29, "velocity": 113, "time": 0, "type": "NormalMsg"}, "M_10866": {"note_status": 1, "channel": 6, "note": 31, "velocity": 0, "time": 0, "type": "NormalMsg"}, "M_10867": {"note_status": 1, "channel": 6, "note": 31, "velocity": 108, "time": 0, "type": "NormalMsg"}, "M_10868": {"note_status": 1, "channel": 6, "note": 29, "velocity": 0, "time": 0, "type": "NormalMsg"}, "M_10869": {"note_status": 1, "channel": 6, "note": 33, "velocity": 97, "time": 0, "type": "NormalMsg"}, "M_10870": {"note_status": 1, "channel": 6, "note": 31, "velocity": 0, "time": 0, "type": "NormalMsg"}, "M_10871": {"note_status": 1, "channel": 6, "note": 31, "velocity": 108, "time": 0, "type": "NormalMsg"}, "M_10872": {"note_status": 1, "channel": 6, "note": 33, "velocity": 0, "time": 0, "type": "NormalMsg"}, "M_10873": {"note_status": 1, "channel": 6, "note": 29, "velocity": 113, "time": 0, "type": "NormalMsg"}, "M_10874": {"note_status": 1, "channel": 6, "note": 31, "velocity": 0, "time": 0, "type": "NormalMsg"}, "M_10875": {"note_status": 1, "channel": 6, "note": 31, "velocity": 122, "time": 0, "type": "NormalMsg"}, "M_10876": {"note_status": 1, "channel": 6, "note": 29, "velocity": 0, "time": 0, "type": "NormalMsg"}, "M_10877": {"note_status": 1, "channel": 6, "note": 31, "velocity": 0, "time": 0, "type": "NormalMsg"}, "M_10878": {"note_status": 1, "channel": 6, "note": 33, "velocity": 113, "time": 0, "type": "NormalMsg"}, "M_10879": {"note_status": 1, "channel": 6, "note": 33, "velocity": 0, "time": 0, "type": "NormalMsg"}, "M_10880": {"note_status": 1, "channel": 6, "note": 45, "velocity": 95, "time": 0, "type": "NormalMsg"}, "M_10881": {"note_status": 1, "channel": 6, "note": 45, "velocity": 0, "time": 0, "type": "NormalMsg"}, "M_10882": {"note_status": 1, "channel": 6, "note": 33, "velocity": 108, "time": 0, "type": "NormalMsg"}, "M_10883": {"note_status": 1, "channel": 6, "note": 33, "velocity": 0, "time": 0, "type": "NormalMsg"}, "M_10884": {"note_status": 1, "channel": 6, "note": 45, "velocity": 92, "time": 0, "type": "NormalMsg"}, "M_10885": {"note_status": 1, "channel": 6, "note": 45, "velocity": 0, "time": 0, "type": "NormalMsg"}, "M_10886": {"note_status": 1, "channel": 6, "note": 29, "velocity": 110, "time": 0, "type": "NormalMsg"}, "M_10887": {"note_status": 1, "channel": 6, "note": 29, "velocity": 0, "time": 0, "type": "NormalMsg"}, "M_10888": {"note_status": 1, "channel": 6, "note": 41, "velocity": 95, "time": 0, "type": "NormalMsg"}, "M_10889": {"note_status": 1, "channel": 6, "note": 41, "velocity": 0, "time": 0, "type": "NormalMsg"}, "M_10890": {"note_status": 1, "channel": 6, "note": 29, "velocity": 108, "time": 0, "type": "NormalMsg"}, "M_10891": {"note_status": 1, "channel": 6, "note": 29, "velocity": 0, "time": 0, "type": "NormalMsg"}, "M_10892": {"note_status": 1, "channel": 6, "note": 41, "velocity": 95, "time": 0, "type": "NormalMsg"}, "M_10893": {"note_status": 1, "channel": 6, "note": 41, "velocity": 0, "time": 0, "type": "NormalMsg"}, "M_10894": {"note_status": 1, "channel": 6, "note": 26, "velocity": 113, "time": 0, "type": "NormalMsg"}, "M_10895": {"note_status": 1, "channel": 6, "note": 26, "velocity": 0, "time": 0, "type": "NormalMsg"}, "M_10896": {"note_status": 1, "channel": 6, "note": 38, "velocity": 103, "time": 0, "type": "NormalMsg"}, "M_10897": {"note_status": 1, "channel": 6, "note": 38, "velocity": 0, "time": 0, "type": "NormalMsg"}, "M_10898": {"note_status": 1, "channel": 6, "note": 26, "velocity": 117, "time": 0, "type": "NormalMsg"}, "M_10899": {"note_status": 1, "channel": 6, "note": 26, "velocity": 0, "time": 0, "type": "NormalMsg"}, "M_10900": {"note_status": 1, "channel": 6, "note": 38, "velocity": 95, "time": 0, "type": "NormalMsg"}, "M_10901": {"note_status": 1, "channel": 6, "note": 38, "velocity": 0, "time": 0, "type": "NormalMsg"}, "M_10902": {"note_status": 1, "channel": 6, "note": 31, "velocity": 113, "time": 0, "type": "NormalMsg"}, "M_10903": {"note_status": 1, "channel": 6, "note": 31, "velocity": 0, "time": 0, "type": "NormalMsg"}, "M_10904": {"note_status": 1, "channel": 6, "note": 43, "velocity": 103, "time": 0, "type": "NormalMsg"}, "M_10905": {"note_status": 1, "channel": 6, "note": 43, "velocity": 0, "time": 0, "type": "NormalMsg"}, "M_10906": {"note_status": 1, "channel": 6, "note": 31, "velocity": 117, "time": 0, "type": "NormalMsg"}, "M_10907": {"note_status": 1, "channel": 6, "note": 31, "velocity": 0, "time": 0, "type": "NormalMsg"}, "M_10908": {"note_status": 1, "channel": 6, "note": 43, "velocity": 103, "time": 0, "type": "NormalMsg"}, "M_10909": {"note_status": 1, "channel": 6, "note": 43, "velocity": 0, "time": 0, "type": "NormalMsg"}, "M_10910": {"note_status": 1, "channel": 6, "note": 33, "velocity": 113, "time": 0, "type": "NormalMsg"}, "M_10911": {"note_status": 1, "channel": 6, "note": 33, "velocity": 0, "time": 0, "type": "NormalMsg"}, "M_10912": {"note_status": 1, "channel": 6, "note": 45, "velocity": 95, "time": 0, "type": "NormalMsg"}, "M_10913": {"note_status": 1, "channel": 6, "note": 45, "velocity": 0, "time": 0, "type": "NormalMsg"}, "M_10914": {"note_status": 1, "channel": 6, "note": 33, "velocity": 108, "time": 0, "type": "NormalMsg"}, "M_10915": {"note_status": 1, "channel": 6, "note": 33, "velocity": 0, "time": 0, "type": "NormalMsg"}, "M_10916": {"note_status": 1, "channel": 6, "note": 45, "velocity": 92, "time": 0, "type": "NormalMsg"}, "M_10917": {"note_status": 1, "channel": 6, "note": 45, "velocity": 0, "time": 0, "type": "NormalMsg"}, "M_10918": {"note_status": 1, "channel": 6, "note": 29, "velocity": 110, "time": 0, "type": "NormalMsg"}, "M_10919": {"note_status": 1, "channel": 6, "note": 29, "velocity": 0, "time": 0, "type": "NormalMsg"}, "M_10920": {"note_status": 1, "channel": 6, "note": 41, "velocity": 95, "time": 0, "type": "NormalMsg"}, "M_10921": {"note_status": 1, "channel": 6, "note": 41, "velocity": 0, "time": 0, "type": "NormalMsg"}, "M_10922": {"note_status": 1, "channel": 6, "note": 29, "velocity": 108, "time": 0, "type": "NormalMsg"}, "M_10923": {"note_status": 1, "channel": 6, "note": 29, "velocity": 0, "time": 0, "type": "NormalMsg"}, "M_10924": {"note_status": 1, "channel": 6, "note": 41, "velocity": 95, "time": 0, "type": "NormalMsg"}, "M_10925": {"note_status": 1, "channel": 6, "note": 41, "velocity": 0, "time": 0, "type": "NormalMsg"}, "M_10926": {"note_status": 1, "channel": 6, "note": 26, "velocity": 113, "time": 0, "type": "NormalMsg"}, "M_10927": {"note_status": 1, "channel": 6, "note": 26, "velocity": 0, "time": 0, "type": "NormalMsg"}, "M_10928": {"note_status": 1, "channel": 6, "note": 38, "velocity": 103, "time": 0, "type": "NormalMsg"}, "M_10929": {"note_status": 1, "channel": 6, "note": 38, "velocity": 0, "time": 0, "type": "NormalMsg"}, "M_10930": {"note_status": 1, "channel": 6, "note": 26, "velocity": 117, "time": 0, "type": "NormalMsg"}, "M_10931": {"note_status": 1, "channel": 6, "note": 26, "velocity": 0, "time": 0, "type": "NormalMsg"}, "M_10932": {"note_status": 1, "channel": 6, "note": 38, "velocity": 95, "time": 0, "type": "NormalMsg"}, "M_10933": {"note_status": 1, "channel": 6, "note": 38, "velocity": 0, "time": 0, "type": "NormalMsg"}, "M_10934": {"note_status": 1, "channel": 6, "note": 31, "velocity": 113, "time": 0, "type": "NormalMsg"}, "M_10935": {"note_status": 1, "channel": 6, "note": 31, "velocity": 0, "time": 0, "type": "NormalMsg"}, "M_10936": {"note_status": 1, "channel": 6, "note": 43, "velocity": 103, "time": 0, "type": "NormalMsg"}, "M_10937": {"note_status": 1, "channel": 6, "note": 43, "velocity": 0, "time": 0, "type": "NormalMsg"}, "M_10938": {"note_status": 1, "channel": 6, "note": 31, "velocity": 117, "time": 0, "type": "NormalMsg"}, "M_10939": {"note_status": 1, "channel": 6, "note": 31, "velocity": 0, "time": 0, "type": "NormalMsg"}, "M_10940": {"note_status": 1, "channel": 6, "note": 43, "velocity": 103, "time": 0, "type": "NormalMsg"}, "M_10941": {"note_status": 1, "channel": 6, "note": 43, "velocity": 0, "time": 0, "type": "NormalMsg"}, "M_10942": {"note_status": 1, "channel": 6, "note": 33, "velocity": 113, "time": 0, "type": "NormalMsg"}, "M_10943": {"note_status": 1, "channel": 6, "note": 33, "velocity": 0, "time": 0, "type": "NormalMsg"}, "M_10944": {"note_status": 1, "channel": 6, "note": 45, "velocity": 95, "time": 0, "type": "NormalMsg"}, "M_10945": {"note_status": 1, "channel": 6, "note": 45, "velocity": 0, "time": 0, "type": "NormalMsg"}, "M_10946": {"note_status": 1, "channel": 6, "note": 33, "velocity": 108, "time": 0, "type": "NormalMsg"}, "M_10947": {"note_status": 1, "channel": 6, "note": 33, "velocity": 0, "time": 0, "type": "NormalMsg"}, "M_10948": {"note_status": 1, "channel": 6, "note": 45, "velocity": 92, "time": 0, "type": "NormalMsg"}, "M_10949": {"note_status": 1, "channel": 6, "note": 45, "velocity": 0, "time": 0, "type": "NormalMsg"}, "M_10950": {"note_status": 1, "channel": 6, "note": 29, "velocity": 110, "time": 0, "type": "NormalMsg"}, "M_10951": {"note_status": 1, "channel": 6, "note": 29, "velocity": 0, "time": 0, "type": "NormalMsg"}, "M_10952": {"note_status": 1, "channel": 6, "note": 41, "velocity": 95, "time": 0, "type": "NormalMsg"}, "M_10953": {"note_status": 1, "channel": 6, "note": 41, "velocity": 0, "time": 0, "type": "NormalMsg"}, "M_10954": {"note_status": 1, "channel": 6, "note": 29, "velocity": 108, "time": 0, "type": "NormalMsg"}, "M_10955": {"note_status": 1, "channel": 6, "note": 29, "velocity": 0, "time": 0, "type": "NormalMsg"}, "M_10956": {"note_status": 1, "channel": 6, "note": 41, "velocity": 95, "time": 0, "type": "NormalMsg"}, "M_10957": {"note_status": 1, "channel": 6, "note": 41, "velocity": 0, "time": 0, "type": "NormalMsg"}, "M_10958": {"note_status": 1, "channel": 6, "note": 26, "velocity": 113, "time": 0, "type": "NormalMsg"}, "M_10959": {"note_status": 1, "channel": 6, "note": 26, "velocity": 0, "time": 0, "type": "NormalMsg"}, "M_10960": {"note_status": 1, "channel": 6, "note": 38, "velocity": 103, "time": 0, "type": "NormalMsg"}, "M_10961": {"note_status": 1, "channel": 6, "note": 38, "velocity": 0, "time": 0, "type": "NormalMsg"}, "M_10962": {"note_status": 1, "channel": 6, "note": 26, "velocity": 117, "time": 0, "type": "NormalMsg"}, "M_10963": {"note_status": 1, "channel": 6, "note": 26, "velocity": 0, "time": 0, "type": "NormalMsg"}, "M_10964": {"note_status": 1, "channel": 6, "note": 38, "velocity": 95, "time": 0, "type": "NormalMsg"}, "M_10965": {"note_status": 1, "channel": 6, "note": 38, "velocity": 0, "time": 0, "type": "NormalMsg"}, "M_10966": {"note_status": 1, "channel": 6, "note": 31, "velocity": 113, "time": 0, "type": "NormalMsg"}, "M_10967": {"note_status": 1, "channel": 6, "note": 31, "velocity": 0, "time": 0, "type": "NormalMsg"}, "M_10968": {"note_status": 1, "channel": 6, "note": 43, "velocity": 103, "time": 0, "type": "NormalMsg"}, "M_10969": {"note_status": 1, "channel": 6, "note": 43, "velocity": 0, "time": 0, "type": "NormalMsg"}, "M_10970": {"note_status": 1, "channel": 6, "note": 31, "velocity": 117, "time": 0, "type": "NormalMsg"}, "M_10971": {"note_status": 1, "channel": 6, "note": 31, "velocity": 0, "time": 0, "type": "NormalMsg"}, "M_10972": {"note_status": 1, "channel": 6, "note": 43, "velocity": 103, "time": 0, "type": "NormalMsg"}, "M_10973": {"note_status": 1, "channel": 6, "note": 43, "velocity": 0, "time": 0, "type": "NormalMsg"}, "M_10974": {"note_status": 1, "channel": 6, "note": 33, "velocity": 113, "time": 0, "type": "NormalMsg"}, "M_10975": {"note_status": 1, "channel": 6, "note": 33, "velocity": 0, "time": 0, "type": "NormalMsg"}, "M_10976": {"note_status": 1, "channel": 6, "note": 45, "velocity": 95, "time": 0, "type": "NormalMsg"}, "M_10977": {"note_status": 1, "channel": 6, "note": 45, "velocity": 0, "time": 0, "type": "NormalMsg"}, "M_10978": {"note_status": 1, "channel": 6, "note": 33, "velocity": 108, "time": 0, "type": "NormalMsg"}, "M_10979": {"note_status": 1, "channel": 6, "note": 33, "velocity": 0, "time": 0, "type": "NormalMsg"}, "M_10980": {"note_status": 1, "channel": 6, "note": 45, "velocity": 92, "time": 0, "type": "NormalMsg"}, "M_10981": {"note_status": 1, "channel": 6, "note": 45, "velocity": 0, "time": 0, "type": "NormalMsg"}, "M_10982": {"note_status": 1, "channel": 6, "note": 29, "velocity": 110, "time": 0, "type": "NormalMsg"}, "M_10983": {"note_status": 1, "channel": 6, "note": 29, "velocity": 0, "time": 0, "type": "NormalMsg"}, "M_10984": {"note_status": 1, "channel": 6, "note": 41, "velocity": 95, "time": 0, "type": "NormalMsg"}, "M_10985": {"note_status": 1, "channel": 6, "note": 41, "velocity": 0, "time": 0, "type": "NormalMsg"}, "M_10986": {"note_status": 1, "channel": 6, "note": 29, "velocity": 108, "time": 0, "type": "NormalMsg"}, "M_10987": {"note_status": 1, "channel": 6, "note": 29, "velocity": 0, "time": 0, "type": "NormalMsg"}, "M_10988": {"note_status": 1, "channel": 6, "note": 41, "velocity": 95, "time": 0, "type": "NormalMsg"}, "M_10989": {"note_status": 1, "channel": 6, "note": 41, "velocity": 0, "time": 0, "type": "NormalMsg"}, "M_10990": {"note_status": 1, "channel": 6, "note": 26, "velocity": 113, "time": 0, "type": "NormalMsg"}, "M_10991": {"note_status": 1, "channel": 6, "note": 26, "velocity": 0, "time": 0, "type": "NormalMsg"}, "M_10992": {"note_status": 1, "channel": 6, "note": 38, "velocity": 103, "time": 0, "type": "NormalMsg"}, "M_10993": {"note_status": 1, "channel": 6, "note": 38, "velocity": 0, "time": 0, "type": "NormalMsg"}, "M_10994": {"note_status": 1, "channel": 6, "note": 26, "velocity": 117, "time": 0, "type": "NormalMsg"}, "M_10995": {"note_status": 1, "channel": 6, "note": 26, "velocity": 0, "time": 0, "type": "NormalMsg"}, "M_10996": {"note_status": 1, "channel": 6, "note": 38, "velocity": 95, "time": 0, "type": "NormalMsg"}, "M_10997": {"note_status": 1, "channel": 6, "note": 38, "velocity": 0, "time": 0, "type": "NormalMsg"}, "M_10998": {"note_status": 1, "channel": 6, "note": 31, "velocity": 113, "time": 0, "type": "NormalMsg"}, "M_10999": {"note_status": 1, "channel": 6, "note": 31, "velocity": 0, "time": 0, "type": "NormalMsg"}, "M_11000": {"note_status": 1, "channel": 6, "note": 43, "velocity": 103, "time": 0, "type": "NormalMsg"}, "M_11001": {"note_status": 1, "channel": 6, "note": 43, "velocity": 0, "time": 0, "type": "NormalMsg"}, "M_11002": {"note_status": 1, "channel": 6, "note": 31, "velocity": 117, "time": 0, "type": "NormalMsg"}, "M_11003": {"note_status": 1, "channel": 6, "note": 31, "velocity": 0, "time": 0, "type": "NormalMsg"}, "M_11004": {"note_status": 1, "channel": 6, "note": 43, "velocity": 103, "time": 0, "type": "NormalMsg"}, "M_11005": {"note_status": 1, "channel": 6, "note": 43, "velocity": 0, "time": 0, "type": "NormalMsg"}, "M_11006": {"note_status": 1, "channel": 6, "note": 33, "velocity": 113, "time": 0, "type": "NormalMsg"}, "M_11007": {"note_status": 1, "channel": 6, "note": 33, "velocity": 0, "time": 0, "type": "NormalMsg"}, "M_11008": {"note_status": 1, "channel": 6, "note": 45, "velocity": 95, "time": 0, "type": "NormalMsg"}, "M_11009": {"note_status": 1, "channel": 6, "note": 45, "velocity": 0, "time": 0, "type": "NormalMsg"}, "M_11010": {"note_status": 1, "channel": 6, "note": 33, "velocity": 108, "time": 0, "type": "NormalMsg"}, "M_11011": {"note_status": 1, "channel": 6, "note": 33, "velocity": 0, "time": 0, "type": "NormalMsg"}, "M_11012": {"note_status": 1, "channel": 6, "note": 45, "velocity": 92, "time": 0, "type": "NormalMsg"}, "M_11013": {"note_status": 1, "channel": 6, "note": 45, "velocity": 0, "time": 0, "type": "NormalMsg"}, "M_11014": {"note_status": 1, "channel": 6, "note": 29, "velocity": 110, "time": 0, "type": "NormalMsg"}, "M_11015": {"note_status": 1, "channel": 6, "note": 29, "velocity": 0, "time": 0, "type": "NormalMsg"}, "M_11016": {"note_status": 1, "channel": 6, "note": 41, "velocity": 95, "time": 0, "type": "NormalMsg"}, "M_11017": {"note_status": 1, "channel": 6, "note": 41, "velocity": 0, "time": 0, "type": "NormalMsg"}, "M_11018": {"note_status": 1, "channel": 6, "note": 29, "velocity": 108, "time": 0, "type": "NormalMsg"}, "M_11019": {"note_status": 1, "channel": 6, "note": 29, "velocity": 0, "time": 0, "type": "NormalMsg"}, "M_11020": {"note_status": 1, "channel": 6, "note": 41, "velocity": 95, "time": 0, "type": "NormalMsg"}, "M_11021": {"note_status": 1, "channel": 6, "note": 41, "velocity": 0, "time": 0, "type": "NormalMsg"}, "M_11022": {"note_status": 1, "channel": 6, "note": 26, "velocity": 113, "time": 0, "type": "NormalMsg"}, "M_11023": {"note_status": 1, "channel": 6, "note": 26, "velocity": 0, "time": 0, "type": "NormalMsg"}, "M_11024": {"note_status": 1, "channel": 6, "note": 38, "velocity": 103, "time": 0, "type": "NormalMsg"}, "M_11025": {"note_status": 1, "channel": 6, "note": 38, "velocity": 0, "time": 0, "type": "NormalMsg"}, "M_11026": {"note_status": 1, "channel": 6, "note": 26, "velocity": 117, "time": 0, "type": "NormalMsg"}, "M_11027": {"note_status": 1, "channel": 6, "note": 26, "velocity": 0, "time": 0, "type": "NormalMsg"}, "M_11028": {"note_status": 1, "channel": 6, "note": 38, "velocity": 95, "time": 0, "type": "NormalMsg"}, "M_11029": {"note_status": 1, "channel": 6, "note": 38, "velocity": 0, "time": 0, "type": "NormalMsg"}, "M_11030": {"note_status": 1, "channel": 6, "note": 31, "velocity": 113, "time": 0, "type": "NormalMsg"}, "M_11031": {"note_status": 1, "channel": 6, "note": 31, "velocity": 0, "time": 0, "type": "NormalMsg"}, "M_11032": {"note_status": 1, "channel": 6, "note": 43, "velocity": 103, "time": 0, "type": "NormalMsg"}, "M_11033": {"note_status": 1, "channel": 6, "note": 43, "velocity": 0, "time": 0, "type": "NormalMsg"}, "M_11034": {"note_status": 1, "channel": 6, "note": 31, "velocity": 117, "time": 0, "type": "NormalMsg"}, "M_11035": {"note_status": 1, "channel": 6, "note": 31, "velocity": 0, "time": 0, "type": "NormalMsg"}, "M_11036": {"note_status": 1, "channel": 6, "note": 43, "velocity": 103, "time": 0, "type": "NormalMsg"}, "M_11037": {"note_status": 1, "channel": 6, "note": 43, "velocity": 0, "time": 0, "type": "NormalMsg"}, "M_11038": {"note_status": 1, "channel": 6, "note": 33, "velocity": 113, "time": 0, "type": "NormalMsg"}, "M_11039": {"note_status": 1, "channel": 6, "note": 33, "velocity": 0, "time": 0, "type": "NormalMsg"}, "M_11040": {"note_status": 1, "channel": 6, "note": 45, "velocity": 95, "time": 0, "type": "NormalMsg"}, "M_11041": {"note_status": 1, "channel": 6, "note": 45, "velocity": 0, "time": 0, "type": "NormalMsg"}, "M_11042": {"note_status": 1, "channel": 6, "note": 33, "velocity": 108, "time": 0, "type": "NormalMsg"}, "M_11043": {"note_status": 1, "channel": 6, "note": 33, "velocity": 0, "time": 0, "type": "NormalMsg"}, "M_11044": {"note_status": 1, "channel": 6, "note": 45, "velocity": 92, "time": 0, "type": "NormalMsg"}, "M_11045": {"note_status": 1, "channel": 6, "note": 45, "velocity": 0, "time": 0, "type": "NormalMsg"}, "M_11046": {"note_status": 1, "channel": 6, "note": 29, "velocity": 110, "time": 0, "type": "NormalMsg"}, "M_11047": {"note_status": 1, "channel": 6, "note": 29, "velocity": 0, "time": 0, "type": "NormalMsg"}, "M_11048": {"note_status": 1, "channel": 6, "note": 41, "velocity": 95, "time": 0, "type": "NormalMsg"}, "M_11049": {"note_status": 1, "channel": 6, "note": 41, "velocity": 0, "time": 0, "type": "NormalMsg"}, "M_11050": {"note_status": 1, "channel": 6, "note": 29, "velocity": 108, "time": 0, "type": "NormalMsg"}, "M_11051": {"note_status": 1, "channel": 6, "note": 29, "velocity": 0, "time": 0, "type": "NormalMsg"}, "M_11052": {"note_status": 1, "channel": 6, "note": 41, "velocity": 95, "time": 0, "type": "NormalMsg"}, "M_11053": {"note_status": 1, "channel": 6, "note": 41, "velocity": 0, "time": 0, "type": "NormalMsg"}, "M_11054": {"note_status": 1, "channel": 6, "note": 26, "velocity": 113, "time": 0, "type": "NormalMsg"}, "M_11055": {"note_status": 1, "channel": 6, "note": 26, "velocity": 0, "time": 0, "type": "NormalMsg"}, "M_11056": {"note_status": 1, "channel": 6, "note": 38, "velocity": 103, "time": 0, "type": "NormalMsg"}, "M_11057": {"note_status": 1, "channel": 6, "note": 38, "velocity": 0, "time": 0, "type": "NormalMsg"}, "M_11058": {"note_status": 1, "channel": 6, "note": 26, "velocity": 117, "time": 0, "type": "NormalMsg"}, "M_11059": {"note_status": 1, "channel": 6, "note": 26, "velocity": 0, "time": 0, "type": "NormalMsg"}, "M_11060": {"note_status": 1, "channel": 6, "note": 38, "velocity": 95, "time": 0, "type": "NormalMsg"}, "M_11061": {"note_status": 1, "channel": 6, "note": 38, "velocity": 0, "time": 0, "type": "NormalMsg"}, "M_11062": {"note_status": 1, "channel": 6, "note": 31, "velocity": 113, "time": 0, "type": "NormalMsg"}, "M_11063": {"note_status": 1, "channel": 6, "note": 31, "velocity": 0, "time": 0, "type": "NormalMsg"}, "M_11064": {"note_status": 1, "channel": 6, "note": 43, "velocity": 103, "time": 0, "type": "NormalMsg"}, "M_11065": {"note_status": 1, "channel": 6, "note": 43, "velocity": 0, "time": 0, "type": "NormalMsg"}, "M_11066": {"note_status": 1, "channel": 6, "note": 31, "velocity": 117, "time": 0, "type": "NormalMsg"}, "M_11067": {"note_status": 1, "channel": 6, "note": 31, "velocity": 0, "time": 0, "type": "NormalMsg"}, "M_11068": {"note_status": 1, "channel": 6, "note": 43, "velocity": 103, "time": 0, "type": "NormalMsg"}, "M_11069": {"note_status": 1, "channel": 6, "note": 43, "velocity": 0, "time": 0, "type": "NormalMsg"}, "M_11070": {"note_status": 1, "channel": 6, "note": 33, "velocity": 113, "time": 0, "type": "NormalMsg"}, "M_11071": {"note_status": 1, "channel": 6, "note": 33, "velocity": 0, "time": 0, "type": "NormalMsg"}, "M_11072": {"note_status": 1, "channel": 6, "note": 45, "velocity": 95, "time": 0, "type": "NormalMsg"}, "M_11073": {"note_status": 1, "channel": 6, "note": 45, "velocity": 0, "time": 0, "type": "NormalMsg"}, "M_11074": {"note_status": 1, "channel": 6, "note": 33, "velocity": 108, "time": 0, "type": "NormalMsg"}, "M_11075": {"note_status": 1, "channel": 6, "note": 33, "velocity": 0, "time": 0, "type": "NormalMsg"}, "M_11076": {"note_status": 1, "channel": 6, "note": 45, "velocity": 92, "time": 0, "type": "NormalMsg"}, "M_11077": {"note_status": 1, "channel": 6, "note": 45, "velocity": 0, "time": 0, "type": "NormalMsg"}, "M_11078": {"note_status": 1, "channel": 6, "note": 29, "velocity": 110, "time": 0, "type": "NormalMsg"}, "M_11079": {"note_status": 1, "channel": 6, "note": 29, "velocity": 0, "time": 0, "type": "NormalMsg"}, "M_11080": {"note_status": 1, "channel": 6, "note": 41, "velocity": 95, "time": 0, "type": "NormalMsg"}, "M_11081": {"note_status": 1, "channel": 6, "note": 41, "velocity": 0, "time": 0, "type": "NormalMsg"}, "M_11082": {"note_status": 1, "channel": 6, "note": 29, "velocity": 108, "time": 0, "type": "NormalMsg"}, "M_11083": {"note_status": 1, "channel": 6, "note": 29, "velocity": 0, "time": 0, "type": "NormalMsg"}, "M_11084": {"note_status": 1, "channel": 6, "note": 41, "velocity": 95, "time": 0, "type": "NormalMsg"}, "M_11085": {"note_status": 1, "channel": 6, "note": 41, "velocity": 0, "time": 0, "type": "NormalMsg"}, "M_11086": {"note_status": 1, "channel": 6, "note": 26, "velocity": 113, "time": 0, "type": "NormalMsg"}, "M_11087": {"note_status": 1, "channel": 6, "note": 26, "velocity": 0, "time": 0, "type": "NormalMsg"}, "M_11088": {"note_status": 1, "channel": 6, "note": 38, "velocity": 103, "time": 0, "type": "NormalMsg"}, "M_11089": {"note_status": 1, "channel": 6, "note": 38, "velocity": 0, "time": 0, "type": "NormalMsg"}, "M_11090": {"note_status": 1, "channel": 6, "note": 26, "velocity": 117, "time": 0, "type": "NormalMsg"}, "M_11091": {"note_status": 1, "channel": 6, "note": 26, "velocity": 0, "time": 0, "type": "NormalMsg"}, "M_11092": {"note_status": 1, "channel": 6, "note": 38, "velocity": 95, "time": 0, "type": "NormalMsg"}, "M_11093": {"note_status": 1, "channel": 6, "note": 38, "velocity": 0, "time": 0, "type": "NormalMsg"}, "M_11094": {"note_status": 1, "channel": 6, "note": 31, "velocity": 113, "time": 0, "type": "NormalMsg"}, "M_11095": {"note_status": 1, "channel": 6, "note": 31, "velocity": 0, "time": 0, "type": "NormalMsg"}, "M_11096": {"note_status": 1, "channel": 6, "note": 43, "velocity": 103, "time": 0, "type": "NormalMsg"}, "M_11097": {"note_status": 1, "channel": 6, "note": 43, "velocity": 0, "time": 0, "type": "NormalMsg"}, "M_11098": {"note_status": 1, "channel": 6, "note": 31, "velocity": 117, "time": 0, "type": "NormalMsg"}, "M_11099": {"note_status": 1, "channel": 6, "note": 31, "velocity": 0, "time": 0, "type": "NormalMsg"}, "M_11100": {"note_status": 1, "channel": 6, "note": 43, "velocity": 103, "time": 0, "type": "NormalMsg"}, "M_11101": {"note_status": 1, "channel": 6, "note": 43, "velocity": 0, "time": 0, "type": "NormalMsg"}, "M_11102": {"note_status": 1, "channel": 6, "note": 33, "velocity": 113, "time": 0, "type": "NormalMsg"}, "M_11103": {"note_status": 1, "channel": 6, "note": 33, "velocity": 0, "time": 0, "type": "NormalMsg"}, "M_11104": {"note_status": 1, "channel": 6, "note": 45, "velocity": 95, "time": 0, "type": "NormalMsg"}, "M_11105": {"note_status": 1, "channel": 6, "note": 45, "velocity": 0, "time": 0, "type": "NormalMsg"}, "M_11106": {"note_status": 1, "channel": 6, "note": 33, "velocity": 108, "time": 0, "type": "NormalMsg"}, "M_11107": {"note_status": 1, "channel": 6, "note": 33, "velocity": 0, "time": 0, "type": "NormalMsg"}, "M_11108": {"note_status": 1, "channel": 6, "note": 45, "velocity": 92, "time": 0, "type": "NormalMsg"}, "M_11109": {"note_status": 1, "channel": 6, "note": 45, "velocity": 0, "time": 0, "type": "NormalMsg"}, "M_11110": {"note_status": 1, "channel": 6, "note": 29, "velocity": 110, "time": 0, "type": "NormalMsg"}, "M_11111": {"note_status": 1, "channel": 6, "note": 29, "velocity": 0, "time": 0, "type": "NormalMsg"}, "M_11112": {"note_status": 1, "channel": 6, "note": 41, "velocity": 95, "time": 0, "type": "NormalMsg"}, "M_11113": {"note_status": 1, "channel": 6, "note": 41, "velocity": 0, "time": 0, "type": "NormalMsg"}, "M_11114": {"note_status": 1, "channel": 6, "note": 29, "velocity": 108, "time": 0, "type": "NormalMsg"}, "M_11115": {"note_status": 1, "channel": 6, "note": 29, "velocity": 0, "time": 0, "type": "NormalMsg"}, "M_11116": {"note_status": 1, "channel": 6, "note": 41, "velocity": 95, "time": 0, "type": "NormalMsg"}, "M_11117": {"note_status": 1, "channel": 6, "note": 41, "velocity": 0, "time": 0, "type": "NormalMsg"}, "M_11118": {"note_status": 1, "channel": 6, "note": 31, "velocity": 113, "time": 0, "type": "NormalMsg"}, "M_11119": {"note_status": 1, "channel": 6, "note": 31, "velocity": 0, "time": 0, "type": "NormalMsg"}, "M_11120": {"note_status": 1, "channel": 6, "note": 43, "velocity": 103, "time": 0, "type": "NormalMsg"}, "M_11121": {"note_status": 1, "channel": 6, "note": 43, "velocity": 0, "time": 0, "type": "NormalMsg"}, "M_11122": {"note_status": 1, "channel": 6, "note": 31, "velocity": 117, "time": 0, "type": "NormalMsg"}, "M_11123": {"note_status": 1, "channel": 6, "note": 31, "velocity": 0, "time": 0, "type": "NormalMsg"}, "M_11124": {"note_status": 1, "channel": 6, "note": 43, "velocity": 95, "time": 0, "type": "NormalMsg"}, "M_11125": {"note_status": 1, "channel": 6, "note": 43, "velocity": 0, "time": 0, "type": "NormalMsg"}, "M_11126": {"note_status": 1, "channel": 6, "note": 28, "velocity": 113, "time": 0, "type": "NormalMsg"}, "M_11127": {"note_status": 1, "channel": 6, "note": 28, "velocity": 0, "time": 0, "type": "NormalMsg"}, "M_11128": {"note_status": 1, "channel": 6, "note": 40, "velocity": 103, "time": 0, "type": "NormalMsg"}, "M_11129": {"note_status": 1, "channel": 6, "note": 40, "velocity": 0, "time": 0, "type": "NormalMsg"}, "M_11130": {"note_status": 1, "channel": 6, "note": 28, "velocity": 117, "time": 0, "type": "NormalMsg"}, "M_11131": {"note_status": 1, "channel": 6, "note": 28, "velocity": 0, "time": 0, "type": "NormalMsg"}, "M_11132": {"note_status": 1, "channel": 6, "note": 40, "velocity": 103, "time": 0, "type": "NormalMsg"}, "M_11133": {"note_status": 1, "channel": 6, "note": 40, "velocity": 0, "time": 0, "type": "NormalMsg"}, "M_11134": {"note_status": 1, "channel": 6, "note": 33, "velocity": 113, "time": 0, "type": "NormalMsg"}, "M_11135": {"note_status": 1, "channel": 6, "note": 33, "velocity": 0, "time": 0, "type": "NormalMsg"}, "M_11136": {"note_status": 1, "channel": 6, "note": 45, "velocity": 95, "time": 0, "type": "NormalMsg"}, "M_11137": {"note_status": 1, "channel": 6, "note": 45, "velocity": 0, "time": 0, "type": "NormalMsg"}, "M_11138": {"note_status": 1, "channel": 6, "note": 33, "velocity": 108, "time": 0, "type": "NormalMsg"}, "M_11139": {"note_status": 1, "channel": 6, "note": 33, "velocity": 0, "time": 0, "type": "NormalMsg"}, "M_11140": {"note_status": 1, "channel": 6, "note": 45, "velocity": 92, "time": 0, "type": "NormalMsg"}, "M_11141": {"note_status": 1, "channel": 6, "note": 45, "velocity": 0, "time": 0, "type": "NormalMsg"}, "M_11142": {"note_status": 1, "channel": 6, "note": 29, "velocity": 110, "time": 0, "type": "NormalMsg"}, "M_11143": {"note_status": 1, "channel": 6, "note": 29, "velocity": 0, "time": 0, "type": "NormalMsg"}, "M_11144": {"note_status": 1, "channel": 6, "note": 41, "velocity": 95, "time": 0, "type": "NormalMsg"}, "M_11145": {"note_status": 1, "channel": 6, "note": 41, "velocity": 0, "time": 0, "type": "NormalMsg"}, "M_11146": {"note_status": 1, "channel": 6, "note": 29, "velocity": 108, "time": 0, "type": "NormalMsg"}, "M_11147": {"note_status": 1, "channel": 6, "note": 29, "velocity": 0, "time": 0, "type": "NormalMsg"}, "M_11148": {"note_status": 1, "channel": 6, "note": 41, "velocity": 95, "time": 0, "type": "NormalMsg"}, "M_11149": {"note_status": 1, "channel": 6, "note": 41, "velocity": 0, "time": 0, "type": "NormalMsg"}, "M_11150": {"note_status": 1, "channel": 6, "note": 26, "velocity": 113, "time": 0, "type": "NormalMsg"}, "M_11151": {"note_status": 1, "channel": 6, "note": 26, "velocity": 0, "time": 0, "type": "NormalMsg"}, "M_11152": {"note_status": 1, "channel": 6, "note": 38, "velocity": 103, "time": 0, "type": "NormalMsg"}, "M_11153": {"note_status": 1, "channel": 6, "note": 38, "velocity": 0, "time": 0, "type": "NormalMsg"}, "M_11154": {"note_status": 1, "channel": 6, "note": 26, "velocity": 117, "time": 0, "type": "NormalMsg"}, "M_11155": {"note_status": 1, "channel": 6, "note": 26, "velocity": 0, "time": 0, "type": "NormalMsg"}, "M_11156": {"note_status": 1, "channel": 6, "note": 38, "velocity": 95, "time": 0, "type": "NormalMsg"}, "M_11157": {"note_status": 1, "channel": 6, "note": 38, "velocity": 0, "time": 0, "type": "NormalMsg"}, "M_11158": {"note_status": 1, "channel": 6, "note": 31, "velocity": 113, "time": 0, "type": "NormalMsg"}, "M_11159": {"note_status": 1, "channel": 6, "note": 31, "velocity": 0, "time": 0, "type": "NormalMsg"}, "M_11160": {"note_status": 1, "channel": 6, "note": 43, "velocity": 103, "time": 0, "type": "NormalMsg"}, "M_11161": {"note_status": 1, "channel": 6, "note": 43, "velocity": 0, "time": 0, "type": "NormalMsg"}, "M_11162": {"note_status": 1, "channel": 6, "note": 31, "velocity": 117, "time": 0, "type": "NormalMsg"}, "M_11163": {"note_status": 1, "channel": 6, "note": 31, "velocity": 0, "time": 0, "type": "NormalMsg"}, "M_11164": {"note_status": 1, "channel": 6, "note": 43, "velocity": 103, "time": 0, "type": "NormalMsg"}, "M_11165": {"note_status": 1, "channel": 6, "note": 43, "velocity": 0, "time": 0, "type": "NormalMsg"}, "M_11166": {"note_status": 1, "channel": 6, "note": 33, "velocity": 113, "time": 0, "type": "NormalMsg"}, "M_11167": {"note_status": 1, "channel": 6, "note": 33, "velocity": 0, "time": 0, "type": "NormalMsg"}, "M_11168": {"note_status": 1, "channel": 6, "note": 45, "velocity": 95, "time": 0, "type": "NormalMsg"}, "M_11169": {"note_status": 1, "channel": 6, "note": 45, "velocity": 0, "time": 0, "type": "NormalMsg"}, "M_11170": {"note_status": 1, "channel": 6, "note": 33, "velocity": 108, "time": 0, "type": "NormalMsg"}, "M_11171": {"note_status": 1, "channel": 6, "note": 33, "velocity": 0, "time": 0, "type": "NormalMsg"}, "M_11172": {"note_status": 1, "channel": 6, "note": 45, "velocity": 92, "time": 0, "type": "NormalMsg"}, "M_11173": {"note_status": 1, "channel": 6, "note": 45, "velocity": 0, "time": 0, "type": "NormalMsg"}, "M_11174": {"note_status": 1, "channel": 6, "note": 29, "velocity": 110, "time": 0, "type": "NormalMsg"}, "M_11175": {"note_status": 1, "channel": 6, "note": 29, "velocity": 0, "time": 0, "type": "NormalMsg"}, "M_11176": {"note_status": 1, "channel": 6, "note": 41, "velocity": 95, "time": 0, "type": "NormalMsg"}, "M_11177": {"note_status": 1, "channel": 6, "note": 41, "velocity": 0, "time": 0, "type": "NormalMsg"}, "M_11178": {"note_status": 1, "channel": 6, "note": 29, "velocity": 108, "time": 0, "type": "NormalMsg"}, "M_11179": {"note_status": 1, "channel": 6, "note": 29, "velocity": 0, "time": 0, "type": "NormalMsg"}, "M_11180": {"note_status": 1, "channel": 6, "note": 41, "velocity": 95, "time": 0, "type": "NormalMsg"}, "M_11181": {"note_status": 1, "channel": 6, "note": 41, "velocity": 0, "time": 0, "type": "NormalMsg"}, "M_11182": {"note_status": 1, "channel": 6, "note": 26, "velocity": 113, "time": 0, "type": "NormalMsg"}, "M_11183": {"note_status": 1, "channel": 6, "note": 26, "velocity": 0, "time": 0, "type": "NormalMsg"}, "M_11184": {"note_status": 1, "channel": 6, "note": 38, "velocity": 103, "time": 0, "type": "NormalMsg"}, "M_11185": {"note_status": 1, "channel": 6, "note": 38, "velocity": 0, "time": 0, "type": "NormalMsg"}, "M_11186": {"note_status": 1, "channel": 6, "note": 26, "velocity": 117, "time": 0, "type": "NormalMsg"}, "M_11187": {"note_status": 1, "channel": 6, "note": 26, "velocity": 0, "time": 0, "type": "NormalMsg"}, "M_11188": {"note_status": 1, "channel": 6, "note": 38, "velocity": 95, "time": 0, "type": "NormalMsg"}, "M_11189": {"note_status": 1, "channel": 6, "note": 38, "velocity": 0, "time": 0, "type": "NormalMsg"}, "M_11190": {"note_status": 1, "channel": 6, "note": 31, "velocity": 113, "time": 0, "type": "NormalMsg"}, "M_11191": {"note_status": 1, "channel": 6, "note": 31, "velocity": 0, "time": 0, "type": "NormalMsg"}, "M_11192": {"note_status": 1, "channel": 6, "note": 43, "velocity": 103, "time": 0, "type": "NormalMsg"}, "M_11193": {"note_status": 1, "channel": 6, "note": 43, "velocity": 0, "time": 0, "type": "NormalMsg"}, "M_11194": {"note_status": 1, "channel": 6, "note": 31, "velocity": 117, "time": 0, "type": "NormalMsg"}, "M_11195": {"note_status": 1, "channel": 6, "note": 31, "velocity": 0, "time": 0, "type": "NormalMsg"}, "M_11196": {"note_status": 1, "channel": 6, "note": 43, "velocity": 103, "time": 0, "type": "NormalMsg"}, "M_11197": {"note_status": 1, "channel": 6, "note": 43, "velocity": 0, "time": 0, "type": "NormalMsg"}, "M_11198": {"note_status": 1, "channel": 6, "note": 29, "velocity": 113, "time": 0, "type": "NormalMsg"}, "M_11199": {"note_status": 1, "channel": 6, "note": 29, "velocity": 0, "time": 0, "type": "NormalMsg"}, "M_11200": {"note_status": 1, "channel": 6, "note": 41, "velocity": 95, "time": 0, "type": "NormalMsg"}, "M_11201": {"note_status": 1, "channel": 6, "note": 41, "velocity": 0, "time": 0, "type": "NormalMsg"}, "M_11202": {"note_status": 1, "channel": 6, "note": 29, "velocity": 108, "time": 0, "type": "NormalMsg"}, "M_11203": {"note_status": 1, "channel": 6, "note": 29, "velocity": 0, "time": 0, "type": "NormalMsg"}, "M_11204": {"note_status": 1, "channel": 6, "note": 41, "velocity": 92, "time": 0, "type": "NormalMsg"}, "M_11205": {"note_status": 1, "channel": 6, "note": 41, "velocity": 0, "time": 0, "type": "NormalMsg"}, "M_11206": {"note_status": 1, "channel": 6, "note": 29, "velocity": 110, "time": 0, "type": "NormalMsg"}, "M_11207": {"note_status": 1, "channel": 6, "note": 29, "velocity": 0, "time": 0, "type": "NormalMsg"}, "M_11208": {"note_status": 1, "channel": 6, "note": 41, "velocity": 95, "time": 0, "type": "NormalMsg"}, "M_11209": {"note_status": 1, "channel": 6, "note": 41, "velocity": 0, "time": 0, "type": "NormalMsg"}, "M_11210": {"note_status": 1, "channel": 6, "note": 29, "velocity": 108, "time": 0, "type": "NormalMsg"}, "M_11211": {"note_status": 1, "channel": 6, "note": 29, "velocity": 0, "time": 0, "type": "NormalMsg"}, "M_11212": {"note_status": 1, "channel": 6, "note": 41, "velocity": 95, "time": 0, "type": "NormalMsg"}, "M_11213": {"note_status": 1, "channel": 6, "note": 41, "velocity": 0, "time": 0, "type": "NormalMsg"}, "M_11214": {"note_status": 1, "channel": 6, "note": 29, "velocity": 113, "time": 0, "type": "NormalMsg"}, "M_11215": {"note_status": 1, "channel": 6, "note": 29, "velocity": 0, "time": 0, "type": "NormalMsg"}, "M_11216": {"note_status": 1, "channel": 6, "note": 41, "velocity": 103, "time": 0, "type": "NormalMsg"}, "M_11217": {"note_status": 1, "channel": 6, "note": 41, "velocity": 0, "time": 0, "type": "NormalMsg"}, "M_11218": {"note_status": 1, "channel": 6, "note": 29, "velocity": 117, "time": 0, "type": "NormalMsg"}, "M_11219": {"note_status": 1, "channel": 6, "note": 29, "velocity": 0, "time": 0, "type": "NormalMsg"}, "M_11220": {"note_status": 1, "channel": 6, "note": 41, "velocity": 95, "time": 0, "type": "NormalMsg"}, "M_11221": {"note_status": 1, "channel": 6, "note": 41, "velocity": 0, "time": 0, "type": "NormalMsg"}, "M_11222": {"note_status": 1, "channel": 6, "note": 29, "velocity": 113, "time": 0, "type": "NormalMsg"}, "M_11223": {"note_status": 1, "channel": 6, "note": 29, "velocity": 0, "time": 0, "type": "NormalMsg"}, "M_11224": {"note_status": 1, "channel": 6, "note": 41, "velocity": 103, "time": 0, "type": "NormalMsg"}, "M_11225": {"note_status": 1, "channel": 6, "note": 41, "velocity": 0, "time": 0, "type": "NormalMsg"}, "M_11226": {"note_status": 1, "channel": 6, "note": 29, "velocity": 117, "time": 0, "type": "NormalMsg"}, "M_11227": {"note_status": 1, "channel": 6, "note": 29, "velocity": 0, "time": 0, "type": "NormalMsg"}, "M_11228": {"note_status": 1, "channel": 6, "note": 41, "velocity": 103, "time": 0, "type": "NormalMsg"}, "M_11229": {"note_status": 1, "channel": 6, "note": 41, "velocity": 0, "time": 0, "type": "NormalMsg"}, "M_11230": {"note_status": 1, "channel": 6, "note": 31, "velocity": 113, "time": 0, "type": "NormalMsg"}, "M_11231": {"note_status": 1, "channel": 6, "note": 31, "velocity": 0, "time": 0, "type": "NormalMsg"}, "M_11232": {"note_status": 1, "channel": 6, "note": 43, "velocity": 95, "time": 0, "type": "NormalMsg"}, "M_11233": {"note_status": 1, "channel": 6, "note": 43, "velocity": 0, "time": 0, "type": "NormalMsg"}, "M_11234": {"note_status": 1, "channel": 6, "note": 31, "velocity": 108, "time": 0, "type": "NormalMsg"}, "M_11235": {"note_status": 1, "channel": 6, "note": 31, "velocity": 0, "time": 0, "type": "NormalMsg"}, "M_11236": {"note_status": 1, "channel": 6, "note": 43, "velocity": 92, "time": 0, "type": "NormalMsg"}, "M_11237": {"note_status": 1, "channel": 6, "note": 43, "velocity": 0, "time": 0, "type": "NormalMsg"}, "M_11238": {"note_status": 1, "channel": 6, "note": 31, "velocity": 110, "time": 0, "type": "NormalMsg"}, "M_11239": {"note_status": 1, "channel": 6, "note": 31, "velocity": 0, "time": 0, "type": "NormalMsg"}, "M_11240": {"note_status": 1, "channel": 6, "note": 43, "velocity": 95, "time": 0, "type": "NormalMsg"}, "M_11241": {"note_status": 1, "channel": 6, "note": 43, "velocity": 0, "time": 0, "type": "NormalMsg"}, "M_11242": {"note_status": 1, "channel": 6, "note": 31, "velocity": 108, "time": 0, "type": "NormalMsg"}, "M_11243": {"note_status": 1, "channel": 6, "note": 31, "velocity": 0, "time": 0, "type": "NormalMsg"}, "M_11244": {"note_status": 1, "channel": 6, "note": 43, "velocity": 95, "time": 0, "type": "NormalMsg"}, "M_11245": {"note_status": 1, "channel": 6, "note": 43, "velocity": 0, "time": 0, "type": "NormalMsg"}, "M_11246": {"note_status": 1, "channel": 6, "note": 31, "velocity": 113, "time": 0, "type": "NormalMsg"}, "M_11247": {"note_status": 1, "channel": 6, "note": 31, "velocity": 0, "time": 0, "type": "NormalMsg"}, "M_11248": {"note_status": 1, "channel": 6, "note": 43, "velocity": 103, "time": 0, "type": "NormalMsg"}, "M_11249": {"note_status": 1, "channel": 6, "note": 43, "velocity": 0, "time": 0, "type": "NormalMsg"}, "M_11250": {"note_status": 1, "channel": 6, "note": 31, "velocity": 117, "time": 0, "type": "NormalMsg"}, "M_11251": {"note_status": 1, "channel": 6, "note": 31, "velocity": 0, "time": 0, "type": "NormalMsg"}, "M_11252": {"note_status": 1, "channel": 6, "note": 33, "velocity": 113, "time": 0, "type": "NormalMsg"}, "M_11253": {"note_status": 1, "channel": 6, "note": 33, "velocity": 0, "time": 0, "type": "NormalMsg"}, "M_11254": {"note_status": 1, "channel": 6, "note": 45, "velocity": 95, "time": 0, "type": "NormalMsg"}, "M_11255": {"note_status": 1, "channel": 6, "note": 45, "velocity": 0, "time": 0, "type": "NormalMsg"}, "M_11256": {"note_status": 1, "channel": 6, "note": 33, "velocity": 108, "time": 0, "type": "NormalMsg"}, "M_11257": {"note_status": 1, "channel": 6, "note": 33, "velocity": 0, "time": 0, "type": "NormalMsg"}, "M_11258": {"note_status": 1, "channel": 6, "note": 45, "velocity": 92, "time": 0, "type": "NormalMsg"}, "M_11259": {"note_status": 1, "channel": 6, "note": 45, "velocity": 0, "time": 0, "type": "NormalMsg"}, "M_11260": {"note_status": 1, "channel": 6, "note": 29, "velocity": 110, "time": 0, "type": "NormalMsg"}, "M_11261": {"note_status": 1, "channel": 6, "note": 29, "velocity": 0, "time": 0, "type": "NormalMsg"}, "M_11262": {"note_status": 1, "channel": 6, "note": 41, "velocity": 95, "time": 0, "type": "NormalMsg"}, "M_11263": {"note_status": 1, "channel": 6, "note": 41, "velocity": 0, "time": 0, "type": "NormalMsg"}, "M_11264": {"note_status": 1, "channel": 6, "note": 29, "velocity": 108, "time": 0, "type": "NormalMsg"}, "M_11265": {"note_status": 1, "channel": 6, "note": 29, "velocity": 0, "time": 0, "type": "NormalMsg"}, "M_11266": {"note_status": 1, "channel": 6, "note": 41, "velocity": 95, "time": 0, "type": "NormalMsg"}, "M_11267": {"note_status": 1, "channel": 6, "note": 41, "velocity": 0, "time": 0, "type": "NormalMsg"}, "M_11268": {"note_status": 1, "channel": 6, "note": 26, "velocity": 113, "time": 0, "type": "NormalMsg"}, "M_11269": {"note_status": 1, "channel": 6, "note": 26, "velocity": 0, "time": 0, "type": "NormalMsg"}, "M_11270": {"note_status": 1, "channel": 6, "note": 38, "velocity": 103, "time": 0, "type": "NormalMsg"}, "M_11271": {"note_status": 1, "channel": 6, "note": 38, "velocity": 0, "time": 0, "type": "NormalMsg"}, "M_11272": {"note_status": 1, "channel": 6, "note": 26, "velocity": 117, "time": 0, "type": "NormalMsg"}, "M_11273": {"note_status": 1, "channel": 6, "note": 26, "velocity": 0, "time": 0, "type": "NormalMsg"}, "M_11274": {"note_status": 1, "channel": 6, "note": 38, "velocity": 95, "time": 0, "type": "NormalMsg"}, "M_11275": {"note_status": 1, "channel": 6, "note": 38, "velocity": 0, "time": 0, "type": "NormalMsg"}, "M_11276": {"note_status": 1, "channel": 6, "note": 31, "velocity": 113, "time": 0, "type": "NormalMsg"}, "M_11277": {"note_status": 1, "channel": 6, "note": 31, "velocity": 0, "time": 0, "type": "NormalMsg"}, "M_11278": {"note_status": 1, "channel": 6, "note": 31, "velocity": 117, "time": 0, "type": "NormalMsg"}, "M_11279": {"note_status": 1, "channel": 6, "note": 31, "velocity": 0, "time": 0, "type": "NormalMsg"}, "M_11280": {"note_status": 1, "channel": 6, "note": 43, "velocity": 103, "time": 0, "type": "NormalMsg"}, "M_11281": {"note_status": 1, "channel": 6, "note": 43, "velocity": 0, "time": 0, "type": "NormalMsg"}, "M_11282": {"note_status": 1, "channel": 6, "note": 33, "velocity": 113, "time": 0, "type": "NormalMsg"}, "M_11283": {"note_status": 1, "channel": 6, "note": 33, "velocity": 0, "time": 0, "type": "NormalMsg"}, "M_11284": {"note_status": 1, "channel": 6, "note": 45, "velocity": 95, "time": 0, "type": "NormalMsg"}, "M_11285": {"note_status": 1, "channel": 6, "note": 45, "velocity": 0, "time": 0, "type": "NormalMsg"}, "M_11286": {"note_status": 1, "channel": 6, "note": 33, "velocity": 108, "time": 0, "type": "NormalMsg"}, "M_11287": {"note_status": 1, "channel": 6, "note": 33, "velocity": 0, "time": 0, "type": "NormalMsg"}, "M_11288": {"note_status": 1, "channel": 6, "note": 45, "velocity": 92, "time": 0, "type": "NormalMsg"}, "M_11289": {"note_status": 1, "channel": 6, "note": 45, "velocity": 0, "time": 0, "type": "NormalMsg"}, "M_11290": {"note_status": 1, "channel": 6, "note": 29, "velocity": 110, "time": 0, "type": "NormalMsg"}, "M_11291": {"note_status": 1, "channel": 6, "note": 29, "velocity": 0, "time": 0, "type": "NormalMsg"}, "M_11292": {"note_status": 1, "channel": 6, "note": 41, "velocity": 95, "time": 0, "type": "NormalMsg"}, "M_11293": {"note_status": 1, "channel": 6, "note": 41, "velocity": 0, "time": 0, "type": "NormalMsg"}, "M_11294": {"note_status": 1, "channel": 6, "note": 29, "velocity": 108, "time": 0, "type": "NormalMsg"}, "M_11295": {"note_status": 1, "channel": 6, "note": 29, "velocity": 0, "time": 0, "type": "NormalMsg"}, "M_11296": {"note_status": 1, "channel": 6, "note": 41, "velocity": 95, "time": 0, "type": "NormalMsg"}, "M_11297": {"note_status": 1, "channel": 6, "note": 41, "velocity": 0, "time": 0, "type": "NormalMsg"}, "M_11298": {"note_status": 1, "channel": 6, "note": 31, "velocity": 113, "time": 0, "type": "NormalMsg"}, "M_11299": {"note_status": 1, "channel": 6, "note": 31, "velocity": 0, "time": 0, "type": "NormalMsg"}, "M_11300": {"note_status": 1, "channel": 6, "note": 43, "velocity": 103, "time": 0, "type": "NormalMsg"}, "M_11301": {"note_status": 1, "channel": 6, "note": 43, "velocity": 0, "time": 0, "type": "NormalMsg"}, "M_11302": {"note_status": 1, "channel": 6, "note": 31, "velocity": 117, "time": 0, "type": "NormalMsg"}, "M_11303": {"note_status": 1, "channel": 6, "note": 31, "velocity": 0, "time": 0, "type": "NormalMsg"}, "M_11304": {"note_status": 1, "channel": 6, "note": 43, "velocity": 103, "time": 0, "type": "NormalMsg"}, "M_11305": {"note_status": 1, "channel": 6, "note": 43, "velocity": 0, "time": 0, "type": "NormalMsg"}, "M_11306": {"note_status": 1, "channel": 6, "note": 33, "velocity": 113, "time": 0, "type": "NormalMsg"}, "M_11307": {"note_status": 1, "channel": 6, "note": 33, "velocity": 0, "time": 0, "type": "NormalMsg"}, "M_11308": {"note_status": 1, "channel": 6, "note": 45, "velocity": 95, "time": 0, "type": "NormalMsg"}, "M_11309": {"note_status": 1, "channel": 6, "note": 45, "velocity": 0, "time": 0, "type": "NormalMsg"}, "M_11310": {"note_status": 1, "channel": 6, "note": 33, "velocity": 108, "time": 0, "type": "NormalMsg"}, "M_11311": {"note_status": 1, "channel": 6, "note": 33, "velocity": 0, "time": 0, "type": "NormalMsg"}, "M_11312": {"note_status": 1, "channel": 6, "note": 45, "velocity": 92, "time": 0, "type": "NormalMsg"}, "M_11313": {"note_status": 1, "channel": 6, "note": 45, "velocity": 0, "time": 0, "type": "NormalMsg"}, "M_11314": {"note_status": 1, "channel": 6, "note": 29, "velocity": 110, "time": 0, "type": "NormalMsg"}, "M_11315": {"note_status": 1, "channel": 6, "note": 29, "velocity": 0, "time": 0, "type": "NormalMsg"}, "M_11316": {"note_status": 1, "channel": 6, "note": 41, "velocity": 95, "time": 0, "type": "NormalMsg"}, "M_11317": {"note_status": 1, "channel": 6, "note": 41, "velocity": 0, "time": 0, "type": "NormalMsg"}, "M_11318": {"note_status": 1, "channel": 6, "note": 29, "velocity": 108, "time": 0, "type": "NormalMsg"}, "M_11319": {"note_status": 1, "channel": 6, "note": 29, "velocity": 0, "time": 0, "type": "NormalMsg"}, "M_11320": {"note_status": 1, "channel": 6, "note": 41, "velocity": 95, "time": 0, "type": "NormalMsg"}, "M_11321": {"note_status": 1, "channel": 6, "note": 41, "velocity": 0, "time": 0, "type": "NormalMsg"}, "M_11322": {"note_status": 1, "channel": 6, "note": 26, "velocity": 113, "time": 0, "type": "NormalMsg"}, "M_11323": {"note_status": 1, "channel": 6, "note": 26, "velocity": 0, "time": 0, "type": "NormalMsg"}, "M_11324": {"note_status": 1, "channel": 6, "note": 38, "velocity": 103, "time": 0, "type": "NormalMsg"}, "M_11325": {"note_status": 1, "channel": 6, "note": 38, "velocity": 0, "time": 0, "type": "NormalMsg"}, "M_11326": {"note_status": 1, "channel": 6, "note": 26, "velocity": 117, "time": 0, "type": "NormalMsg"}, "M_11327": {"note_status": 1, "channel": 6, "note": 26, "velocity": 0, "time": 0, "type": "NormalMsg"}, "M_11328": {"note_status": 1, "channel": 6, "note": 38, "velocity": 95, "time": 0, "type": "NormalMsg"}, "M_11329": {"note_status": 1, "channel": 6, "note": 38, "velocity": 0, "time": 0, "type": "NormalMsg"}, "M_11330": {"note_status": 1, "channel": 6, "note": 31, "velocity": 113, "time": 0, "type": "NormalMsg"}, "M_11331": {"note_status": 1, "channel": 6, "note": 31, "velocity": 0, "time": 0, "type": "NormalMsg"}, "M_11332": {"note_status": 1, "channel": 6, "note": 43, "velocity": 103, "time": 0, "type": "NormalMsg"}, "M_11333": {"note_status": 1, "channel": 6, "note": 43, "velocity": 0, "time": 0, "type": "NormalMsg"}, "M_11334": {"note_status": 1, "channel": 6, "note": 31, "velocity": 117, "time": 0, "type": "NormalMsg"}, "M_11335": {"note_status": 1, "channel": 6, "note": 31, "velocity": 0, "time": 0, "type": "NormalMsg"}, "M_11336": {"note_status": 1, "channel": 6, "note": 43, "velocity": 103, "time": 0, "type": "NormalMsg"}, "M_11337": {"note_status": 1, "channel": 6, "note": 43, "velocity": 0, "time": 0, "type": "NormalMsg"}, "M_11338": {"note_status": 1, "channel": 6, "note": 33, "velocity": 113, "time": 0, "type": "NormalMsg"}, "M_11339": {"note_status": 1, "channel": 6, "note": 33, "velocity": 0, "time": 0, "type": "NormalMsg"}, "M_11340": {"note_status": 1, "channel": 6, "note": 45, "velocity": 95, "time": 0, "type": "NormalMsg"}, "M_11341": {"note_status": 1, "channel": 6, "note": 45, "velocity": 0, "time": 0, "type": "NormalMsg"}, "M_11342": {"note_status": 1, "channel": 6, "note": 33, "velocity": 108, "time": 0, "type": "NormalMsg"}, "M_11343": {"note_status": 1, "channel": 6, "note": 33, "velocity": 0, "time": 0, "type": "NormalMsg"}, "M_11344": {"note_status": 1, "channel": 6, "note": 45, "velocity": 92, "time": 0, "type": "NormalMsg"}, "M_11345": {"note_status": 1, "channel": 6, "note": 45, "velocity": 0, "time": 0, "type": "NormalMsg"}, "M_11346": {"note_status": 1, "channel": 6, "note": 29, "velocity": 110, "time": 0, "type": "NormalMsg"}, "M_11347": {"note_status": 1, "channel": 6, "note": 29, "velocity": 0, "time": 0, "type": "NormalMsg"}, "M_11348": {"note_status": 1, "channel": 6, "note": 41, "velocity": 95, "time": 0, "type": "NormalMsg"}, "M_11349": {"note_status": 1, "channel": 6, "note": 41, "velocity": 0, "time": 0, "type": "NormalMsg"}, "M_11350": {"note_status": 1, "channel": 6, "note": 29, "velocity": 108, "time": 0, "type": "NormalMsg"}, "M_11351": {"note_status": 1, "channel": 6, "note": 29, "velocity": 0, "time": 0, "type": "NormalMsg"}, "M_11352": {"note_status": 1, "channel": 6, "note": 41, "velocity": 95, "time": 0, "type": "NormalMsg"}, "M_11353": {"note_status": 1, "channel": 6, "note": 41, "velocity": 0, "time": 0, "type": "NormalMsg"}, "M_11354": {"note_status": 1, "channel": 6, "note": 26, "velocity": 113, "time": 0, "type": "NormalMsg"}, "M_11355": {"note_status": 1, "channel": 6, "note": 26, "velocity": 0, "time": 0, "type": "NormalMsg"}, "M_11356": {"note_status": 1, "channel": 6, "note": 38, "velocity": 103, "time": 0, "type": "NormalMsg"}, "M_11357": {"note_status": 1, "channel": 6, "note": 38, "velocity": 0, "time": 0, "type": "NormalMsg"}, "M_11358": {"note_status": 1, "channel": 6, "note": 26, "velocity": 117, "time": 0, "type": "NormalMsg"}, "M_11359": {"note_status": 1, "channel": 6, "note": 26, "velocity": 0, "time": 0, "type": "NormalMsg"}, "M_11360": {"note_status": 1, "channel": 6, "note": 38, "velocity": 95, "time": 0, "type": "NormalMsg"}, "M_11361": {"note_status": 1, "channel": 6, "note": 38, "velocity": 0, "time": 0, "type": "NormalMsg"}, "M_11362": {"note_status": 1, "channel": 6, "note": 31, "velocity": 113, "time": 0, "type": "NormalMsg"}, "M_11363": {"note_status": 1, "channel": 6, "note": 31, "velocity": 0, "time": 0, "type": "NormalMsg"}, "M_11364": {"note_status": 1, "channel": 6, "note": 43, "velocity": 103, "time": 0, "type": "NormalMsg"}, "M_11365": {"note_status": 1, "channel": 6, "note": 43, "velocity": 0, "time": 0, "type": "NormalMsg"}, "M_11366": {"note_status": 1, "channel": 6, "note": 31, "velocity": 117, "time": 0, "type": "NormalMsg"}, "M_11367": {"note_status": 1, "channel": 6, "note": 31, "velocity": 0, "time": 0, "type": "NormalMsg"}, "M_11368": {"note_status": 1, "channel": 6, "note": 43, "velocity": 103, "time": 0, "type": "NormalMsg"}, "M_11369": {"note_status": 1, "channel": 6, "note": 43, "velocity": 0, "time": 0, "type": "NormalMsg"}, "M_11370": {"note_status": 1, "channel": 6, "note": 33, "velocity": 113, "time": 0, "type": "NormalMsg"}, "M_11371": {"note_status": 1, "channel": 6, "note": 33, "velocity": 0, "time": 0, "type": "NormalMsg"}, "M_11372": {"note_status": 1, "channel": 6, "note": 45, "velocity": 95, "time": 0, "type": "NormalMsg"}, "M_11373": {"note_status": 1, "channel": 6, "note": 45, "velocity": 0, "time": 0, "type": "NormalMsg"}, "M_11374": {"note_status": 1, "channel": 6, "note": 33, "velocity": 108, "time": 0, "type": "NormalMsg"}, "M_11375": {"note_status": 1, "channel": 6, "note": 33, "velocity": 0, "time": 0, "type": "NormalMsg"}, "M_11376": {"note_status": 1, "channel": 6, "note": 45, "velocity": 92, "time": 0, "type": "NormalMsg"}, "M_11377": {"note_status": 1, "channel": 6, "note": 45, "velocity": 0, "time": 0, "type": "NormalMsg"}, "M_11378": {"note_status": 1, "channel": 6, "note": 29, "velocity": 110, "time": 0, "type": "NormalMsg"}, "M_11379": {"note_status": 1, "channel": 6, "note": 29, "velocity": 0, "time": 0, "type": "NormalMsg"}, "M_11380": {"note_status": 1, "channel": 6, "note": 41, "velocity": 95, "time": 0, "type": "NormalMsg"}, "M_11381": {"note_status": 1, "channel": 6, "note": 41, "velocity": 0, "time": 0, "type": "NormalMsg"}, "M_11382": {"note_status": 1, "channel": 6, "note": 29, "velocity": 108, "time": 0, "type": "NormalMsg"}, "M_11383": {"note_status": 1, "channel": 6, "note": 29, "velocity": 0, "time": 0, "type": "NormalMsg"}, "M_11384": {"note_status": 1, "channel": 6, "note": 41, "velocity": 95, "time": 0, "type": "NormalMsg"}, "M_11385": {"note_status": 1, "channel": 6, "note": 41, "velocity": 0, "time": 0, "type": "NormalMsg"}, "M_11386": {"note_status": 1, "channel": 6, "note": 26, "velocity": 113, "time": 0, "type": "NormalMsg"}, "M_11387": {"note_status": 1, "channel": 6, "note": 26, "velocity": 0, "time": 0, "type": "NormalMsg"}, "M_11388": {"note_status": 1, "channel": 6, "note": 38, "velocity": 103, "time": 0, "type": "NormalMsg"}, "M_11389": {"note_status": 1, "channel": 6, "note": 38, "velocity": 0, "time": 0, "type": "NormalMsg"}, "M_11390": {"note_status": 1, "channel": 6, "note": 26, "velocity": 117, "time": 0, "type": "NormalMsg"}, "M_11391": {"note_status": 1, "channel": 6, "note": 26, "velocity": 0, "time": 0, "type": "NormalMsg"}, "M_11392": {"note_status": 1, "channel": 6, "note": 38, "velocity": 95, "time": 0, "type": "NormalMsg"}, "M_11393": {"note_status": 1, "channel": 6, "note": 38, "velocity": 0, "time": 0, "type": "NormalMsg"}, "M_11394": {"note_status": 1, "channel": 6, "note": 31, "velocity": 113, "time": 0, "type": "NormalMsg"}, "M_11395": {"note_status": 1, "channel": 6, "note": 31, "velocity": 0, "time": 0, "type": "NormalMsg"}, "M_11396": {"note_status": 1, "channel": 6, "note": 31, "velocity": 117, "time": 0, "type": "NormalMsg"}, "M_11397": {"note_status": 1, "channel": 6, "note": 31, "velocity": 0, "time": 0, "type": "NormalMsg"}, "M_11398": {"note_status": 1, "channel": 6, "note": 43, "velocity": 103, "time": 0, "type": "NormalMsg"}, "M_11399": {"note_status": 1, "channel": 6, "note": 43, "velocity": 0, "time": 0, "type": "NormalMsg"}, "M_11400": {"note_status": 1, "channel": 6, "note": 33, "velocity": 113, "time": 0, "type": "NormalMsg"}, "M_11401": {"note_status": 1, "channel": 6, "note": 33, "velocity": 0, "time": 0, "type": "NormalMsg"}, "M_11402": {"note_status": 1, "channel": 6, "note": 45, "velocity": 95, "time": 0, "type": "NormalMsg"}, "M_11403": {"note_status": 1, "channel": 6, "note": 45, "velocity": 0, "time": 0, "type": "NormalMsg"}, "M_11404": {"note_status": 1, "channel": 6, "note": 33, "velocity": 108, "time": 0, "type": "NormalMsg"}, "M_11405": {"note_status": 1, "channel": 6, "note": 33, "velocity": 0, "time": 0, "type": "NormalMsg"}, "M_11406": {"note_status": 1, "channel": 6, "note": 45, "velocity": 92, "time": 0, "type": "NormalMsg"}, "M_11407": {"note_status": 1, "channel": 6, "note": 45, "velocity": 0, "time": 0, "type": "NormalMsg"}, "M_11408": {"note_status": 1, "channel": 6, "note": 29, "velocity": 110, "time": 0, "type": "NormalMsg"}, "M_11409": {"note_status": 1, "channel": 6, "note": 29, "velocity": 0, "time": 0, "type": "NormalMsg"}, "M_11410": {"note_status": 1, "channel": 6, "note": 41, "velocity": 95, "time": 0, "type": "NormalMsg"}, "M_11411": {"note_status": 1, "channel": 6, "note": 41, "velocity": 0, "time": 0, "type": "NormalMsg"}, "M_11412": {"note_status": 1, "channel": 6, "note": 29, "velocity": 108, "time": 0, "type": "NormalMsg"}, "M_11413": {"note_status": 1, "channel": 6, "note": 29, "velocity": 0, "time": 0, "type": "NormalMsg"}, "M_11414": {"note_status": 1, "channel": 6, "note": 41, "velocity": 95, "time": 0, "type": "NormalMsg"}, "M_11415": {"note_status": 1, "channel": 6, "note": 41, "velocity": 0, "time": 0, "type": "NormalMsg"}, "M_11416": {"note_status": 1, "channel": 6, "note": 26, "velocity": 113, "time": 0, "type": "NormalMsg"}, "M_11417": {"note_status": 1, "channel": 6, "note": 26, "velocity": 0, "time": 0, "type": "NormalMsg"}, "M_11418": {"note_status": 1, "channel": 6, "note": 38, "velocity": 103, "time": 0, "type": "NormalMsg"}, "M_11419": {"note_status": 1, "channel": 6, "note": 38, "velocity": 0, "time": 0, "type": "NormalMsg"}, "M_11420": {"note_status": 1, "channel": 6, "note": 26, "velocity": 117, "time": 0, "type": "NormalMsg"}, "M_11421": {"note_status": 1, "channel": 6, "note": 26, "velocity": 0, "time": 0, "type": "NormalMsg"}, "M_11422": {"note_status": 1, "channel": 6, "note": 38, "velocity": 95, "time": 0, "type": "NormalMsg"}, "M_11423": {"note_status": 1, "channel": 6, "note": 38, "velocity": 0, "time": 0, "type": "NormalMsg"}, "M_11424": {"note_status": 1, "channel": 6, "note": 31, "velocity": 113, "time": 0, "type": "NormalMsg"}, "M_11425": {"note_status": 1, "channel": 6, "note": 31, "velocity": 0, "time": 0, "type": "NormalMsg"}, "M_11426": {"note_status": 1, "channel": 6, "note": 43, "velocity": 103, "time": 0, "type": "NormalMsg"}, "M_11427": {"note_status": 1, "channel": 6, "note": 43, "velocity": 0, "time": 0, "type": "NormalMsg"}, "M_11428": {"note_status": 1, "channel": 6, "note": 31, "velocity": 117, "time": 0, "type": "NormalMsg"}, "M_11429": {"note_status": 1, "channel": 6, "note": 31, "velocity": 0, "time": 0, "type": "NormalMsg"}, "M_11430": {"note_status": 1, "channel": 6, "note": 43, "velocity": 103, "time": 0, "type": "NormalMsg"}, "M_11431": {"note_status": 1, "channel": 6, "note": 43, "velocity": 0, "time": 0, "type": "NormalMsg"}, "M_11432": {"note_status": 1, "channel": 6, "note": 29, "velocity": 127, "time": 0, "type": "NormalMsg"}, "M_11433": {"note_status": 1, "channel": 6, "note": 31, "velocity": 117, "time": 0, "type": "NormalMsg"}, "M_11434": {"note_status": 1, "channel": 6, "note": 29, "velocity": 0, "time": 0, "type": "NormalMsg"}, "M_11435": {"note_status": 1, "channel": 6, "note": 33, "velocity": 113, "time": 0, "type": "NormalMsg"}, "M_11436": {"note_status": 1, "channel": 6, "note": 31, "velocity": 0, "time": 0, "type": "NormalMsg"}, "M_11437": {"note_status": 1, "channel": 6, "note": 31, "velocity": 113, "time": 0, "type": "NormalMsg"}, "M_11438": {"note_status": 1, "channel": 6, "note": 33, "velocity": 0, "time": 0, "type": "NormalMsg"}, "M_11439": {"note_status": 1, "channel": 6, "note": 29, "velocity": 113, "time": 0, "type": "NormalMsg"}, "M_11440": {"note_status": 1, "channel": 6, "note": 31, "velocity": 0, "time": 0, "type": "NormalMsg"}, "M_11441": {"note_status": 1, "channel": 6, "note": 31, "velocity": 108, "time": 0, "type": "NormalMsg"}, "M_11442": {"note_status": 1, "channel": 6, "note": 29, "velocity": 0, "time": 0, "type": "NormalMsg"}, "M_11443": {"note_status": 1, "channel": 6, "note": 33, "velocity": 97, "time": 0, "type": "NormalMsg"}, "M_11444": {"note_status": 1, "channel": 6, "note": 31, "velocity": 0, "time": 0, "type": "NormalMsg"}, "M_11445": {"note_status": 1, "channel": 6, "note": 31, "velocity": 108, "time": 0, "type": "NormalMsg"}, "M_11446": {"note_status": 1, "channel": 6, "note": 33, "velocity": 0, "time": 0, "type": "NormalMsg"}, "M_11447": {"note_status": 1, "channel": 6, "note": 29, "velocity": 113, "time": 0, "type": "NormalMsg"}, "M_11448": {"note_status": 1, "channel": 6, "note": 31, "velocity": 0, "time": 0, "type": "NormalMsg"}, "M_11449": {"note_status": 1, "channel": 6, "note": 31, "velocity": 122, "time": 0, "type": "NormalMsg"}, "M_11450": {"note_status": 1, "channel": 6, "note": 29, "velocity": 0, "time": 0, "type": "NormalMsg"}, "M_11451": {"note_status": 1, "channel": 6, "note": 31, "velocity": 0, "time": 0, "type": "NormalMsg"}, "M_11452": {"note_status": 1, "channel": 6, "note": 40, "velocity": 123, "time": 0, "type": "NormalMsg"}, "M_11453": {"note_status": 1, "channel": 6, "note": 40, "velocity": 0, "time": 0, "type": "NormalMsg"}, "M_11454": {"note_status": 1, "channel": 6, "note": 40, "velocity": 123, "time": 0, "type": "NormalMsg"}, "M_11455": {"note_status": 1, "channel": 6, "note": 40, "velocity": 0, "time": 0, "type": "NormalMsg"}, "M_11456": {"note_status": 1, "channel": 6, "note": 40, "velocity": 123, "time": 0, "type": "NormalMsg"}, "M_11457": {"note_status": 1, "channel": 6, "note": 40, "velocity": 0, "time": 0, "type": "NormalMsg"}, "M_11458": {"note_status": 1, "channel": 6, "note": 40, "velocity": 123, "time": 0, "type": "NormalMsg"}, "M_11459": {"note_status": 1, "channel": 6, "note": 40, "velocity": 0, "time": 0, "type": "NormalMsg"}, "M_11460": {"note_status": 1, "channel": 6, "note": 40, "velocity": 123, "time": 0, "type": "NormalMsg"}, "M_11461": {"note_status": 1, "channel": 6, "note": 40, "velocity": 0, "time": 0, "type": "NormalMsg"}, "M_11462": {"note_status": 1, "channel": 6, "note": 40, "velocity": 123, "time": 0, "type": "NormalMsg"}, "M_11463": {"note_status": 1, "channel": 6, "note": 40, "velocity": 0, "time": 0, "type": "NormalMsg"}, "M_11464": {"note_status": 1, "channel": 6, "note": 40, "velocity": 123, "time": 0, "type": "NormalMsg"}, "M_11465": {"note_status": 1, "channel": 6, "note": 40, "velocity": 0, "time": 0, "type": "NormalMsg"}, "M_11466": {"note_status": 1, "channel": 6, "note": 40, "velocity": 123, "time": 0, "type": "NormalMsg"}, "M_11467": {"note_status": 1, "channel": 6, "note": 40, "velocity": 0, "time": 0, "type": "NormalMsg"}, "M_11468": {"note_status": 1, "channel": 6, "note": 40, "velocity": 123, "time": 0, "type": "NormalMsg"}, "M_11469": {"note_status": 1, "channel": 6, "note": 40, "velocity": 0, "time": 0, "type": "NormalMsg"}, "M_11470": {"note_status": 1, "channel": 6, "note": 40, "velocity": 123, "time": 0, "type": "NormalMsg"}, "M_11471": {"note_status": 1, "channel": 6, "note": 40, "velocity": 0, "time": 0, "type": "NormalMsg"}, "M_11472": {"note_status": 1, "channel": 6, "note": 40, "velocity": 123, "time": 0, "type": "NormalMsg"}, "M_11473": {"note_status": 1, "channel": 6, "note": 40, "velocity": 0, "time": 0, "type": "NormalMsg"}, "M_11474": {"note_status": 1, "channel": 6, "note": 40, "velocity": 123, "time": 0, "type": "NormalMsg"}, "M_11475": {"note_status": 1, "channel": 6, "note": 40, "velocity": 0, "time": 0, "type": "NormalMsg"}, "M_11476": {"note_status": 1, "channel": 6, "note": 40, "velocity": 123, "time": 0, "type": "NormalMsg"}, "M_11477": {"note_status": 1, "channel": 6, "note": 40, "velocity": 0, "time": 0, "type": "NormalMsg"}, "M_11478": {"note_status": 1, "channel": 6, "note": 33, "velocity": 113, "time": 0, "type": "NormalMsg"}, "M_11479": {"note_status": 1, "channel": 6, "note": 33, "velocity": 0, "time": 0, "type": "NormalMsg"}, "M_11480": {"note_status": 1, "channel": 6, "note": 45, "velocity": 95, "time": 0, "type": "NormalMsg"}, "M_11481": {"note_status": 1, "channel": 6, "note": 45, "velocity": 0, "time": 0, "type": "NormalMsg"}, "M_11482": {"note_status": 1, "channel": 6, "note": 33, "velocity": 108, "time": 0, "type": "NormalMsg"}, "M_11483": {"note_status": 1, "channel": 6, "note": 33, "velocity": 0, "time": 0, "type": "NormalMsg"}, "M_11484": {"note_status": 1, "channel": 6, "note": 45, "velocity": 92, "time": 0, "type": "NormalMsg"}, "M_11485": {"note_status": 1, "channel": 6, "note": 45, "velocity": 0, "time": 0, "type": "NormalMsg"}, "M_11486": {"note_status": 1, "channel": 6, "note": 29, "velocity": 110, "time": 0, "type": "NormalMsg"}, "M_11487": {"note_status": 1, "channel": 6, "note": 29, "velocity": 0, "time": 0, "type": "NormalMsg"}, "M_11488": {"note_status": 1, "channel": 6, "note": 41, "velocity": 95, "time": 0, "type": "NormalMsg"}, "M_11489": {"note_status": 1, "channel": 6, "note": 41, "velocity": 0, "time": 0, "type": "NormalMsg"}, "M_11490": {"note_status": 1, "channel": 6, "note": 29, "velocity": 108, "time": 0, "type": "NormalMsg"}, "M_11491": {"note_status": 1, "channel": 6, "note": 29, "velocity": 0, "time": 0, "type": "NormalMsg"}, "M_11492": {"note_status": 1, "channel": 6, "note": 41, "velocity": 95, "time": 0, "type": "NormalMsg"}, "M_11493": {"note_status": 1, "channel": 6, "note": 41, "velocity": 0, "time": 0, "type": "NormalMsg"}, "M_11494": {"note_status": 1, "channel": 6, "note": 26, "velocity": 113, "time": 0, "type": "NormalMsg"}, "M_11495": {"note_status": 1, "channel": 6, "note": 26, "velocity": 0, "time": 0, "type": "NormalMsg"}, "M_11496": {"note_status": 1, "channel": 6, "note": 38, "velocity": 103, "time": 0, "type": "NormalMsg"}, "M_11497": {"note_status": 1, "channel": 6, "note": 38, "velocity": 0, "time": 0, "type": "NormalMsg"}, "M_11498": {"note_status": 1, "channel": 6, "note": 26, "velocity": 117, "time": 0, "type": "NormalMsg"}, "M_11499": {"note_status": 1, "channel": 6, "note": 26, "velocity": 0, "time": 0, "type": "NormalMsg"}, "M_11500": {"note_status": 1, "channel": 6, "note": 38, "velocity": 95, "time": 0, "type": "NormalMsg"}, "M_11501": {"note_status": 1, "channel": 6, "note": 38, "velocity": 0, "time": 0, "type": "NormalMsg"}, "M_11502": {"note_status": 1, "channel": 6, "note": 31, "velocity": 113, "time": 0, "type": "NormalMsg"}, "M_11503": {"note_status": 1, "channel": 6, "note": 31, "velocity": 0, "time": 0, "type": "NormalMsg"}, "M_11504": {"note_status": 1, "channel": 6, "note": 43, "velocity": 103, "time": 0, "type": "NormalMsg"}, "M_11505": {"note_status": 1, "channel": 6, "note": 43, "velocity": 0, "time": 0, "type": "NormalMsg"}, "M_11506": {"note_status": 1, "channel": 6, "note": 31, "velocity": 117, "time": 0, "type": "NormalMsg"}, "M_11507": {"note_status": 1, "channel": 6, "note": 31, "velocity": 0, "time": 0, "type": "NormalMsg"}, "M_11508": {"note_status": 1, "channel": 6, "note": 43, "velocity": 103, "time": 0, "type": "NormalMsg"}, "M_11509": {"note_status": 1, "channel": 6, "note": 43, "velocity": 0, "time": 0, "type": "NormalMsg"}, "M_11510": {"note_status": 1, "channel": 6, "note": 33, "velocity": 113, "time": 0, "type": "NormalMsg"}, "M_11511": {"note_status": 1, "channel": 6, "note": 33, "velocity": 0, "time": 0, "type": "NormalMsg"}, "M_11512": {"note_status": 1, "channel": 6, "note": 45, "velocity": 95, "time": 0, "type": "NormalMsg"}, "M_11513": {"note_status": 1, "channel": 6, "note": 45, "velocity": 0, "time": 0, "type": "NormalMsg"}, "M_11514": {"note_status": 1, "channel": 6, "note": 33, "velocity": 108, "time": 0, "type": "NormalMsg"}, "M_11515": {"note_status": 1, "channel": 6, "note": 33, "velocity": 0, "time": 0, "type": "NormalMsg"}, "M_11516": {"note_status": 1, "channel": 6, "note": 45, "velocity": 92, "time": 0, "type": "NormalMsg"}, "M_11517": {"note_status": 1, "channel": 6, "note": 45, "velocity": 0, "time": 0, "type": "NormalMsg"}, "M_11518": {"note_status": 1, "channel": 6, "note": 29, "velocity": 110, "time": 0, "type": "NormalMsg"}, "M_11519": {"note_status": 1, "channel": 6, "note": 29, "velocity": 0, "time": 0, "type": "NormalMsg"}, "M_11520": {"note_status": 1, "channel": 6, "note": 41, "velocity": 95, "time": 0, "type": "NormalMsg"}, "M_11521": {"note_status": 1, "channel": 6, "note": 41, "velocity": 0, "time": 0, "type": "NormalMsg"}, "M_11522": {"note_status": 1, "channel": 6, "note": 29, "velocity": 108, "time": 0, "type": "NormalMsg"}, "M_11523": {"note_status": 1, "channel": 6, "note": 29, "velocity": 0, "time": 0, "type": "NormalMsg"}, "M_11524": {"note_status": 1, "channel": 6, "note": 41, "velocity": 95, "time": 0, "type": "NormalMsg"}, "M_11525": {"note_status": 1, "channel": 6, "note": 41, "velocity": 0, "time": 0, "type": "NormalMsg"}, "M_11526": {"note_status": 1, "channel": 6, "note": 26, "velocity": 113, "time": 0, "type": "NormalMsg"}, "M_11527": {"note_status": 1, "channel": 6, "note": 26, "velocity": 0, "time": 0, "type": "NormalMsg"}, "M_11528": {"note_status": 1, "channel": 6, "note": 38, "velocity": 103, "time": 0, "type": "NormalMsg"}, "M_11529": {"note_status": 1, "channel": 6, "note": 38, "velocity": 0, "time": 0, "type": "NormalMsg"}, "M_11530": {"note_status": 1, "channel": 6, "note": 26, "velocity": 117, "time": 0, "type": "NormalMsg"}, "M_11531": {"note_status": 1, "channel": 6, "note": 26, "velocity": 0, "time": 0, "type": "NormalMsg"}, "M_11532": {"note_status": 1, "channel": 6, "note": 38, "velocity": 95, "time": 0, "type": "NormalMsg"}, "M_11533": {"note_status": 1, "channel": 6, "note": 38, "velocity": 0, "time": 0, "type": "NormalMsg"}, "M_11534": {"note_status": 1, "channel": 6, "note": 31, "velocity": 113, "time": 0, "type": "NormalMsg"}, "M_11535": {"note_status": 1, "channel": 6, "note": 31, "velocity": 0, "time": 0, "type": "NormalMsg"}, "M_11536": {"note_status": 1, "channel": 6, "note": 43, "velocity": 103, "time": 0, "type": "NormalMsg"}, "M_11537": {"note_status": 1, "channel": 6, "note": 43, "velocity": 0, "time": 0, "type": "NormalMsg"}, "M_11538": {"note_status": 1, "channel": 6, "note": 31, "velocity": 117, "time": 0, "type": "NormalMsg"}, "M_11539": {"note_status": 1, "channel": 6, "note": 31, "velocity": 0, "time": 0, "type": "NormalMsg"}, "M_11540": {"note_status": 1, "channel": 6, "note": 43, "velocity": 103, "time": 0, "type": "NormalMsg"}, "M_11541": {"note_status": 1, "channel": 6, "note": 43, "velocity": 0, "time": 0, "type": "NormalMsg"}, "M_11542": {"note_status": 1, "channel": 6, "note": 29, "velocity": 113, "time": 0, "type": "NormalMsg"}, "M_11543": {"note_status": 1, "channel": 6, "note": 29, "velocity": 0, "time": 0, "type": "NormalMsg"}, "M_11544": {"note_status": 1, "channel": 6, "note": 41, "velocity": 95, "time": 0, "type": "NormalMsg"}, "M_11545": {"note_status": 1, "channel": 6, "note": 41, "velocity": 0, "time": 0, "type": "NormalMsg"}, "M_11546": {"note_status": 1, "channel": 6, "note": 29, "velocity": 108, "time": 0, "type": "NormalMsg"}, "M_11547": {"note_status": 1, "channel": 6, "note": 29, "velocity": 0, "time": 0, "type": "NormalMsg"}, "M_11548": {"note_status": 1, "channel": 6, "note": 41, "velocity": 92, "time": 0, "type": "NormalMsg"}, "M_11549": {"note_status": 1, "channel": 6, "note": 41, "velocity": 0, "time": 0, "type": "NormalMsg"}, "M_11550": {"note_status": 1, "channel": 6, "note": 29, "velocity": 110, "time": 0, "type": "NormalMsg"}, "M_11551": {"note_status": 1, "channel": 6, "note": 29, "velocity": 0, "time": 0, "type": "NormalMsg"}, "M_11552": {"note_status": 1, "channel": 6, "note": 41, "velocity": 95, "time": 0, "type": "NormalMsg"}, "M_11553": {"note_status": 1, "channel": 6, "note": 41, "velocity": 0, "time": 0, "type": "NormalMsg"}, "M_11554": {"note_status": 1, "channel": 6, "note": 29, "velocity": 108, "time": 0, "type": "NormalMsg"}, "M_11555": {"note_status": 1, "channel": 6, "note": 29, "velocity": 0, "time": 0, "type": "NormalMsg"}, "M_11556": {"note_status": 1, "channel": 6, "note": 41, "velocity": 95, "time": 0, "type": "NormalMsg"}, "M_11557": {"note_status": 1, "channel": 6, "note": 41, "velocity": 0, "time": 0, "type": "NormalMsg"}, "M_11558": {"note_status": 1, "channel": 6, "note": 29, "velocity": 113, "time": 0, "type": "NormalMsg"}, "M_11559": {"note_status": 1, "channel": 6, "note": 29, "velocity": 0, "time": 0, "type": "NormalMsg"}, "M_11560": {"note_status": 1, "channel": 6, "note": 41, "velocity": 103, "time": 0, "type": "NormalMsg"}, "M_11561": {"note_status": 1, "channel": 6, "note": 41, "velocity": 0, "time": 0, "type": "NormalMsg"}, "M_11562": {"note_status": 1, "channel": 6, "note": 29, "velocity": 117, "time": 0, "type": "NormalMsg"}, "M_11563": {"note_status": 1, "channel": 6, "note": 29, "velocity": 0, "time": 0, "type": "NormalMsg"}, "M_11564": {"note_status": 1, "channel": 6, "note": 41, "velocity": 95, "time": 0, "type": "NormalMsg"}, "M_11565": {"note_status": 1, "channel": 6, "note": 41, "velocity": 0, "time": 0, "type": "NormalMsg"}, "M_11566": {"note_status": 1, "channel": 6, "note": 29, "velocity": 113, "time": 0, "type": "NormalMsg"}, "M_11567": {"note_status": 1, "channel": 6, "note": 29, "velocity": 0, "time": 0, "type": "NormalMsg"}, "M_11568": {"note_status": 1, "channel": 6, "note": 41, "velocity": 103, "time": 0, "type": "NormalMsg"}, "M_11569": {"note_status": 1, "channel": 6, "note": 41, "velocity": 0, "time": 0, "type": "NormalMsg"}, "M_11570": {"note_status": 1, "channel": 6, "note": 29, "velocity": 117, "time": 0, "type": "NormalMsg"}, "M_11571": {"note_status": 1, "channel": 6, "note": 29, "velocity": 0, "time": 0, "type": "NormalMsg"}, "M_11572": {"note_status": 1, "channel": 6, "note": 41, "velocity": 103, "time": 0, "type": "NormalMsg"}, "M_11573": {"note_status": 1, "channel": 6, "note": 41, "velocity": 0, "time": 0, "type": "NormalMsg"}, "M_11574": {"note_status": 1, "channel": 6, "note": 31, "velocity": 113, "time": 0, "type": "NormalMsg"}, "M_11575": {"note_status": 1, "channel": 6, "note": 31, "velocity": 0, "time": 0, "type": "NormalMsg"}, "M_11576": {"note_status": 1, "channel": 6, "note": 43, "velocity": 95, "time": 0, "type": "NormalMsg"}, "M_11577": {"note_status": 1, "channel": 6, "note": 43, "velocity": 0, "time": 0, "type": "NormalMsg"}, "M_11578": {"note_status": 1, "channel": 6, "note": 31, "velocity": 108, "time": 0, "type": "NormalMsg"}, "M_11579": {"note_status": 1, "channel": 6, "note": 31, "velocity": 0, "time": 0, "type": "NormalMsg"}, "M_11580": {"note_status": 1, "channel": 6, "note": 43, "velocity": 92, "time": 0, "type": "NormalMsg"}, "M_11581": {"note_status": 1, "channel": 6, "note": 43, "velocity": 0, "time": 0, "type": "NormalMsg"}, "M_11582": {"note_status": 1, "channel": 6, "note": 31, "velocity": 110, "time": 0, "type": "NormalMsg"}, "M_11583": {"note_status": 1, "channel": 6, "note": 31, "velocity": 0, "time": 0, "type": "NormalMsg"}, "M_11584": {"note_status": 1, "channel": 6, "note": 43, "velocity": 95, "time": 0, "type": "NormalMsg"}, "M_11585": {"note_status": 1, "channel": 6, "note": 43, "velocity": 0, "time": 0, "type": "NormalMsg"}, "M_11586": {"note_status": 1, "channel": 6, "note": 31, "velocity": 108, "time": 0, "type": "NormalMsg"}, "M_11587": {"note_status": 1, "channel": 6, "note": 31, "velocity": 0, "time": 0, "type": "NormalMsg"}, "M_11588": {"note_status": 1, "channel": 6, "note": 43, "velocity": 95, "time": 0, "type": "NormalMsg"}, "M_11589": {"note_status": 1, "channel": 6, "note": 43, "velocity": 0, "time": 0, "type": "NormalMsg"}, "M_11590": {"note_status": 1, "channel": 6, "note": 31, "velocity": 113, "time": 0, "type": "NormalMsg"}, "M_11591": {"note_status": 1, "channel": 6, "note": 31, "velocity": 0, "time": 0, "type": "NormalMsg"}, "M_11592": {"note_status": 1, "channel": 6, "note": 43, "velocity": 103, "time": 0, "type": "NormalMsg"}, "M_11593": {"note_status": 1, "channel": 6, "note": 43, "velocity": 0, "time": 0, "type": "NormalMsg"}, "M_11594": {"note_status": 1, "channel": 6, "note": 31, "velocity": 117, "time": 0, "type": "NormalMsg"}, "M_11595": {"note_status": 1, "channel": 6, "note": 31, "velocity": 0, "time": 0, "type": "NormalMsg"}, "M_11596": {"note_status": 1, "channel": 6, "note": 33, "velocity": 113, "time": 0, "type": "NormalMsg"}, "M_11597": {"note_status": 1, "channel": 6, "note": 33, "velocity": 0, "time": 0, "type": "NormalMsg"}, "M_11598": {"note_status": 1, "channel": 6, "note": 45, "velocity": 95, "time": 0, "type": "NormalMsg"}, "M_11599": {"note_status": 1, "channel": 6, "note": 45, "velocity": 0, "time": 0, "type": "NormalMsg"}, "M_11600": {"note_status": 1, "channel": 6, "note": 33, "velocity": 108, "time": 0, "type": "NormalMsg"}, "M_11601": {"note_status": 1, "channel": 6, "note": 33, "velocity": 0, "time": 0, "type": "NormalMsg"}, "M_11602": {"note_status": 1, "channel": 6, "note": 45, "velocity": 92, "time": 0, "type": "NormalMsg"}, "M_11603": {"note_status": 1, "channel": 6, "note": 45, "velocity": 0, "time": 0, "type": "NormalMsg"}, "M_11604": {"note_status": 1, "channel": 6, "note": 29, "velocity": 110, "time": 0, "type": "NormalMsg"}, "M_11605": {"note_status": 1, "channel": 6, "note": 29, "velocity": 0, "time": 0, "type": "NormalMsg"}, "M_11606": {"note_status": 1, "channel": 6, "note": 41, "velocity": 95, "time": 0, "type": "NormalMsg"}, "M_11607": {"note_status": 1, "channel": 6, "note": 41, "velocity": 0, "time": 0, "type": "NormalMsg"}, "M_11608": {"note_status": 1, "channel": 6, "note": 29, "velocity": 108, "time": 0, "type": "NormalMsg"}, "M_11609": {"note_status": 1, "channel": 6, "note": 29, "velocity": 0, "time": 0, "type": "NormalMsg"}, "M_11610": {"note_status": 1, "channel": 6, "note": 41, "velocity": 95, "time": 0, "type": "NormalMsg"}, "M_11611": {"note_status": 1, "channel": 6, "note": 41, "velocity": 0, "time": 0, "type": "NormalMsg"}, "M_11612": {"note_status": 1, "channel": 6, "note": 26, "velocity": 113, "time": 0, "type": "NormalMsg"}, "M_11613": {"note_status": 1, "channel": 6, "note": 26, "velocity": 0, "time": 0, "type": "NormalMsg"}, "M_11614": {"note_status": 1, "channel": 6, "note": 38, "velocity": 103, "time": 0, "type": "NormalMsg"}, "M_11615": {"note_status": 1, "channel": 6, "note": 38, "velocity": 0, "time": 0, "type": "NormalMsg"}, "M_11616": {"note_status": 1, "channel": 6, "note": 26, "velocity": 117, "time": 0, "type": "NormalMsg"}, "M_11617": {"note_status": 1, "channel": 6, "note": 26, "velocity": 0, "time": 0, "type": "NormalMsg"}, "M_11618": {"note_status": 1, "channel": 6, "note": 38, "velocity": 95, "time": 0, "type": "NormalMsg"}, "M_11619": {"note_status": 1, "channel": 6, "note": 38, "velocity": 0, "time": 0, "type": "NormalMsg"}, "M_11620": {"note_status": 1, "channel": 6, "note": 31, "velocity": 113, "time": 0, "type": "NormalMsg"}, "M_11621": {"note_status": 1, "channel": 6, "note": 31, "velocity": 0, "time": 0, "type": "NormalMsg"}, "M_11622": {"note_status": 1, "channel": 6, "note": 31, "velocity": 117, "time": 0, "type": "NormalMsg"}, "M_11623": {"note_status": 1, "channel": 6, "note": 31, "velocity": 0, "time": 0, "type": "NormalMsg"}, "M_11624": {"note_status": 1, "channel": 6, "note": 43, "velocity": 103, "time": 0, "type": "NormalMsg"}, "M_11625": {"note_status": 1, "channel": 6, "note": 43, "velocity": 0, "time": 0, "type": "NormalMsg"}, "M_11626": {"note_status": 1, "channel": 6, "note": 33, "velocity": 113, "time": 0, "type": "NormalMsg"}, "M_11627": {"note_status": 1, "channel": 6, "note": 33, "velocity": 0, "time": 0, "type": "NormalMsg"}, "M_11628": {"note_status": 1, "channel": 6, "note": 45, "velocity": 95, "time": 0, "type": "NormalMsg"}, "M_11629": {"note_status": 1, "channel": 6, "note": 45, "velocity": 0, "time": 0, "type": "NormalMsg"}, "M_11630": {"note_status": 1, "channel": 6, "note": 33, "velocity": 108, "time": 0, "type": "NormalMsg"}, "M_11631": {"note_status": 1, "channel": 6, "note": 33, "velocity": 0, "time": 0, "type": "NormalMsg"}, "M_11632": {"note_status": 1, "channel": 6, "note": 45, "velocity": 92, "time": 0, "type": "NormalMsg"}, "M_11633": {"note_status": 1, "channel": 6, "note": 45, "velocity": 0, "time": 0, "type": "NormalMsg"}, "M_11634": {"note_status": 1, "channel": 6, "note": 29, "velocity": 110, "time": 0, "type": "NormalMsg"}, "M_11635": {"note_status": 1, "channel": 6, "note": 29, "velocity": 0, "time": 0, "type": "NormalMsg"}, "M_11636": {"note_status": 1, "channel": 6, "note": 41, "velocity": 95, "time": 0, "type": "NormalMsg"}, "M_11637": {"note_status": 1, "channel": 6, "note": 41, "velocity": 0, "time": 0, "type": "NormalMsg"}, "M_11638": {"note_status": 1, "channel": 6, "note": 29, "velocity": 108, "time": 0, "type": "NormalMsg"}, "M_11639": {"note_status": 1, "channel": 6, "note": 29, "velocity": 0, "time": 0, "type": "NormalMsg"}, "M_11640": {"note_status": 1, "channel": 6, "note": 41, "velocity": 95, "time": 0, "type": "NormalMsg"}, "M_11641": {"note_status": 1, "channel": 6, "note": 41, "velocity": 0, "time": 0, "type": "NormalMsg"}, "M_11642": {"note_status": 1, "channel": 6, "note": 31, "velocity": 113, "time": 0, "type": "NormalMsg"}, "M_11643": {"note_status": 1, "channel": 6, "note": 31, "velocity": 0, "time": 0, "type": "NormalMsg"}, "M_11644": {"note_status": 1, "channel": 6, "note": 43, "velocity": 103, "time": 0, "type": "NormalMsg"}, "M_11645": {"note_status": 1, "channel": 6, "note": 43, "velocity": 0, "time": 0, "type": "NormalMsg"}, "M_11646": {"note_status": 1, "channel": 6, "note": 31, "velocity": 117, "time": 0, "type": "NormalMsg"}, "M_11647": {"note_status": 1, "channel": 6, "note": 31, "velocity": 0, "time": 0, "type": "NormalMsg"}, "M_11648": {"note_status": 1, "channel": 6, "note": 43, "velocity": 103, "time": 0, "type": "NormalMsg"}, "M_11649": {"note_status": 1, "channel": 6, "note": 43, "velocity": 0, "time": 0, "type": "NormalMsg"}, "M_11650": {"note_status": 1, "channel": 6, "note": 33, "velocity": 113, "time": 0, "type": "NormalMsg"}, "M_11651": {"note_status": 1, "channel": 6, "note": 33, "velocity": 0, "time": 0, "type": "NormalMsg"}, "M_11652": {"note_status": 1, "channel": 6, "note": 45, "velocity": 95, "time": 0, "type": "NormalMsg"}, "M_11653": {"note_status": 1, "channel": 6, "note": 45, "velocity": 0, "time": 0, "type": "NormalMsg"}, "M_11654": {"note_status": 1, "channel": 6, "note": 33, "velocity": 108, "time": 0, "type": "NormalMsg"}, "M_11655": {"note_status": 1, "channel": 6, "note": 33, "velocity": 0, "time": 0, "type": "NormalMsg"}, "M_11656": {"note_status": 1, "channel": 6, "note": 45, "velocity": 92, "time": 0, "type": "NormalMsg"}, "M_11657": {"note_status": 1, "channel": 6, "note": 45, "velocity": 0, "time": 0, "type": "NormalMsg"}, "M_11658": {"note_status": 1, "channel": 6, "note": 29, "velocity": 110, "time": 0, "type": "NormalMsg"}, "M_11659": {"note_status": 1, "channel": 6, "note": 29, "velocity": 0, "time": 0, "type": "NormalMsg"}, "M_11660": {"note_status": 1, "channel": 6, "note": 41, "velocity": 95, "time": 0, "type": "NormalMsg"}, "M_11661": {"note_status": 1, "channel": 6, "note": 41, "velocity": 0, "time": 0, "type": "NormalMsg"}, "M_11662": {"note_status": 1, "channel": 6, "note": 29, "velocity": 108, "time": 0, "type": "NormalMsg"}, "M_11663": {"note_status": 1, "channel": 6, "note": 29, "velocity": 0, "time": 0, "type": "NormalMsg"}, "M_11664": {"note_status": 1, "channel": 6, "note": 41, "velocity": 95, "time": 0, "type": "NormalMsg"}, "M_11665": {"note_status": 1, "channel": 6, "note": 41, "velocity": 0, "time": 0, "type": "NormalMsg"}, "M_11666": {"note_status": 1, "channel": 6, "note": 26, "velocity": 113, "time": 0, "type": "NormalMsg"}, "M_11667": {"note_status": 1, "channel": 6, "note": 26, "velocity": 0, "time": 0, "type": "NormalMsg"}, "M_11668": {"note_status": 1, "channel": 6, "note": 38, "velocity": 103, "time": 0, "type": "NormalMsg"}, "M_11669": {"note_status": 1, "channel": 6, "note": 38, "velocity": 0, "time": 0, "type": "NormalMsg"}, "M_11670": {"note_status": 1, "channel": 6, "note": 26, "velocity": 117, "time": 0, "type": "NormalMsg"}, "M_11671": {"note_status": 1, "channel": 6, "note": 26, "velocity": 0, "time": 0, "type": "NormalMsg"}, "M_11672": {"note_status": 1, "channel": 6, "note": 38, "velocity": 95, "time": 0, "type": "NormalMsg"}, "M_11673": {"note_status": 1, "channel": 6, "note": 38, "velocity": 0, "time": 0, "type": "NormalMsg"}, "M_11674": {"note_status": 1, "channel": 6, "note": 31, "velocity": 113, "time": 0, "type": "NormalMsg"}, "M_11675": {"note_status": 1, "channel": 6, "note": 31, "velocity": 0, "time": 0, "type": "NormalMsg"}, "M_11676": {"note_status": 1, "channel": 6, "note": 43, "velocity": 103, "time": 0, "type": "NormalMsg"}, "M_11677": {"note_status": 1, "channel": 6, "note": 43, "velocity": 0, "time": 0, "type": "NormalMsg"}, "M_11678": {"note_status": 1, "channel": 6, "note": 31, "velocity": 117, "time": 0, "type": "NormalMsg"}, "M_11679": {"note_status": 1, "channel": 6, "note": 31, "velocity": 0, "time": 0, "type": "NormalMsg"}, "M_11680": {"note_status": 1, "channel": 6, "note": 43, "velocity": 103, "time": 0, "type": "NormalMsg"}, "M_11681": {"note_status": 1, "channel": 6, "note": 43, "velocity": 0, "time": 0, "type": "NormalMsg"}, "M_11682": {"note_status": 1, "channel": 6, "note": 33, "velocity": 113, "time": 0, "type": "NormalMsg"}, "M_11683": {"note_status": 1, "channel": 6, "note": 33, "velocity": 0, "time": 0, "type": "NormalMsg"}, "M_11684": {"note_status": 1, "channel": 6, "note": 45, "velocity": 95, "time": 0, "type": "NormalMsg"}, "M_11685": {"note_status": 1, "channel": 6, "note": 45, "velocity": 0, "time": 0, "type": "NormalMsg"}, "M_11686": {"note_status": 1, "channel": 6, "note": 33, "velocity": 108, "time": 0, "type": "NormalMsg"}, "M_11687": {"note_status": 1, "channel": 6, "note": 33, "velocity": 0, "time": 0, "type": "NormalMsg"}, "M_11688": {"note_status": 1, "channel": 6, "note": 45, "velocity": 92, "time": 0, "type": "NormalMsg"}, "M_11689": {"note_status": 1, "channel": 6, "note": 45, "velocity": 0, "time": 0, "type": "NormalMsg"}, "M_11690": {"note_status": 1, "channel": 6, "note": 29, "velocity": 110, "time": 0, "type": "NormalMsg"}, "M_11691": {"note_status": 1, "channel": 6, "note": 29, "velocity": 0, "time": 0, "type": "NormalMsg"}, "M_11692": {"note_status": 1, "channel": 6, "note": 41, "velocity": 95, "time": 0, "type": "NormalMsg"}, "M_11693": {"note_status": 1, "channel": 6, "note": 41, "velocity": 0, "time": 0, "type": "NormalMsg"}, "M_11694": {"note_status": 1, "channel": 6, "note": 29, "velocity": 108, "time": 0, "type": "NormalMsg"}, "M_11695": {"note_status": 1, "channel": 6, "note": 29, "velocity": 0, "time": 0, "type": "NormalMsg"}, "M_11696": {"note_status": 1, "channel": 6, "note": 41, "velocity": 95, "time": 0, "type": "NormalMsg"}, "M_11697": {"note_status": 1, "channel": 6, "note": 41, "velocity": 0, "time": 0, "type": "NormalMsg"}, "M_11698": {"note_status": 1, "channel": 6, "note": 26, "velocity": 113, "time": 0, "type": "NormalMsg"}, "M_11699": {"note_status": 1, "channel": 6, "note": 26, "velocity": 0, "time": 0, "type": "NormalMsg"}, "M_11700": {"note_status": 1, "channel": 6, "note": 38, "velocity": 103, "time": 0, "type": "NormalMsg"}, "M_11701": {"note_status": 1, "channel": 6, "note": 38, "velocity": 0, "time": 0, "type": "NormalMsg"}, "M_11702": {"note_status": 1, "channel": 6, "note": 26, "velocity": 117, "time": 0, "type": "NormalMsg"}, "M_11703": {"note_status": 1, "channel": 6, "note": 26, "velocity": 0, "time": 0, "type": "NormalMsg"}, "M_11704": {"note_status": 1, "channel": 6, "note": 38, "velocity": 95, "time": 0, "type": "NormalMsg"}, "M_11705": {"note_status": 1, "channel": 6, "note": 38, "velocity": 0, "time": 0, "type": "NormalMsg"}, "M_11706": {"note_status": 1, "channel": 6, "note": 31, "velocity": 113, "time": 0, "type": "NormalMsg"}, "M_11707": {"note_status": 1, "channel": 6, "note": 31, "velocity": 0, "time": 0, "type": "NormalMsg"}, "M_11708": {"note_status": 1, "channel": 6, "note": 43, "velocity": 103, "time": 0, "type": "NormalMsg"}, "M_11709": {"note_status": 1, "channel": 6, "note": 43, "velocity": 0, "time": 0, "type": "NormalMsg"}, "M_11710": {"note_status": 1, "channel": 6, "note": 31, "velocity": 117, "time": 0, "type": "NormalMsg"}, "M_11711": {"note_status": 1, "channel": 6, "note": 31, "velocity": 0, "time": 0, "type": "NormalMsg"}, "M_11712": {"note_status": 1, "channel": 6, "note": 43, "velocity": 103, "time": 0, "type": "NormalMsg"}, "M_11713": {"note_status": 1, "channel": 6, "note": 43, "velocity": 0, "time": 0, "type": "NormalMsg"}, "M_11714": {"note_status": 1, "channel": 6, "note": 33, "velocity": 113, "time": 0, "type": "NormalMsg"}, "M_11715": {"note_status": 1, "channel": 6, "note": 33, "velocity": 0, "time": 0, "type": "NormalMsg"}, "M_11716": {"note_status": 1, "channel": 6, "note": 45, "velocity": 95, "time": 0, "type": "NormalMsg"}, "M_11717": {"note_status": 1, "channel": 6, "note": 45, "velocity": 0, "time": 0, "type": "NormalMsg"}, "M_11718": {"note_status": 1, "channel": 6, "note": 33, "velocity": 108, "time": 0, "type": "NormalMsg"}, "M_11719": {"note_status": 1, "channel": 6, "note": 33, "velocity": 0, "time": 0, "type": "NormalMsg"}, "M_11720": {"note_status": 1, "channel": 6, "note": 45, "velocity": 92, "time": 0, "type": "NormalMsg"}, "M_11721": {"note_status": 1, "channel": 6, "note": 45, "velocity": 0, "time": 0, "type": "NormalMsg"}, "M_11722": {"note_status": 1, "channel": 6, "note": 29, "velocity": 110, "time": 0, "type": "NormalMsg"}, "M_11723": {"note_status": 1, "channel": 6, "note": 29, "velocity": 0, "time": 0, "type": "NormalMsg"}, "M_11724": {"note_status": 1, "channel": 6, "note": 41, "velocity": 95, "time": 0, "type": "NormalMsg"}, "M_11725": {"note_status": 1, "channel": 6, "note": 41, "velocity": 0, "time": 0, "type": "NormalMsg"}, "M_11726": {"note_status": 1, "channel": 6, "note": 29, "velocity": 108, "time": 0, "type": "NormalMsg"}, "M_11727": {"note_status": 1, "channel": 6, "note": 29, "velocity": 0, "time": 0, "type": "NormalMsg"}, "M_11728": {"note_status": 1, "channel": 6, "note": 41, "velocity": 95, "time": 0, "type": "NormalMsg"}, "M_11729": {"note_status": 1, "channel": 6, "note": 41, "velocity": 0, "time": 0, "type": "NormalMsg"}, "M_11730": {"note_status": 1, "channel": 6, "note": 26, "velocity": 113, "time": 0, "type": "NormalMsg"}, "M_11731": {"note_status": 1, "channel": 6, "note": 26, "velocity": 0, "time": 0, "type": "NormalMsg"}, "M_11732": {"note_status": 1, "channel": 6, "note": 38, "velocity": 103, "time": 0, "type": "NormalMsg"}, "M_11733": {"note_status": 1, "channel": 6, "note": 38, "velocity": 0, "time": 0, "type": "NormalMsg"}, "M_11734": {"note_status": 1, "channel": 6, "note": 26, "velocity": 117, "time": 0, "type": "NormalMsg"}, "M_11735": {"note_status": 1, "channel": 6, "note": 26, "velocity": 0, "time": 0, "type": "NormalMsg"}, "M_11736": {"note_status": 1, "channel": 6, "note": 38, "velocity": 95, "time": 0, "type": "NormalMsg"}, "M_11737": {"note_status": 1, "channel": 6, "note": 38, "velocity": 0, "time": 0, "type": "NormalMsg"}, "M_11738": {"note_status": 1, "channel": 6, "note": 31, "velocity": 113, "time": 0, "type": "NormalMsg"}, "M_11739": {"note_status": 1, "channel": 6, "note": 31, "velocity": 0, "time": 0, "type": "NormalMsg"}, "M_11740": {"note_status": 1, "channel": 6, "note": 31, "velocity": 117, "time": 0, "type": "NormalMsg"}, "M_11741": {"note_status": 1, "channel": 6, "note": 31, "velocity": 0, "time": 0, "type": "NormalMsg"}, "M_11742": {"note_status": 1, "channel": 6, "note": 43, "velocity": 103, "time": 0, "type": "NormalMsg"}, "M_11743": {"note_status": 1, "channel": 6, "note": 43, "velocity": 0, "time": 0, "type": "NormalMsg"}, "M_11744": {"note_status": 1, "channel": 6, "note": 33, "velocity": 113, "time": 0, "type": "NormalMsg"}, "M_11745": {"note_status": 1, "channel": 6, "note": 33, "velocity": 0, "time": 0, "type": "NormalMsg"}, "M_11746": {"note_status": 1, "channel": 6, "note": 45, "velocity": 95, "time": 0, "type": "NormalMsg"}, "M_11747": {"note_status": 1, "channel": 6, "note": 45, "velocity": 0, "time": 0, "type": "NormalMsg"}, "M_11748": {"note_status": 1, "channel": 6, "note": 33, "velocity": 108, "time": 0, "type": "NormalMsg"}, "M_11749": {"note_status": 1, "channel": 6, "note": 33, "velocity": 0, "time": 0, "type": "NormalMsg"}, "M_11750": {"note_status": 1, "channel": 6, "note": 45, "velocity": 92, "time": 0, "type": "NormalMsg"}, "M_11751": {"note_status": 1, "channel": 6, "note": 45, "velocity": 0, "time": 0, "type": "NormalMsg"}, "M_11752": {"note_status": 1, "channel": 6, "note": 29, "velocity": 110, "time": 0, "type": "NormalMsg"}, "M_11753": {"note_status": 1, "channel": 6, "note": 29, "velocity": 0, "time": 0, "type": "NormalMsg"}, "M_11754": {"note_status": 1, "channel": 6, "note": 41, "velocity": 95, "time": 0, "type": "NormalMsg"}, "M_11755": {"note_status": 1, "channel": 6, "note": 41, "velocity": 0, "time": 0, "type": "NormalMsg"}, "M_11756": {"note_status": 1, "channel": 6, "note": 29, "velocity": 108, "time": 0, "type": "NormalMsg"}, "M_11757": {"note_status": 1, "channel": 6, "note": 29, "velocity": 0, "time": 0, "type": "NormalMsg"}, "M_11758": {"note_status": 1, "channel": 6, "note": 41, "velocity": 95, "time": 0, "type": "NormalMsg"}, "M_11759": {"note_status": 1, "channel": 6, "note": 41, "velocity": 0, "time": 0, "type": "NormalMsg"}, "M_11760": {"note_status": 1, "channel": 6, "note": 26, "velocity": 113, "time": 0, "type": "NormalMsg"}, "M_11761": {"note_status": 1, "channel": 6, "note": 26, "velocity": 0, "time": 0, "type": "NormalMsg"}, "M_11762": {"note_status": 1, "channel": 6, "note": 38, "velocity": 103, "time": 0, "type": "NormalMsg"}, "M_11763": {"note_status": 1, "channel": 6, "note": 38, "velocity": 0, "time": 0, "type": "NormalMsg"}, "M_11764": {"note_status": 1, "channel": 6, "note": 26, "velocity": 117, "time": 0, "type": "NormalMsg"}, "M_11765": {"note_status": 1, "channel": 6, "note": 26, "velocity": 0, "time": 0, "type": "NormalMsg"}, "M_11766": {"note_status": 1, "channel": 6, "note": 38, "velocity": 95, "time": 0, "type": "NormalMsg"}, "M_11767": {"note_status": 1, "channel": 6, "note": 38, "velocity": 0, "time": 0, "type": "NormalMsg"}, "M_11768": {"note_status": 1, "channel": 6, "note": 31, "velocity": 113, "time": 0, "type": "NormalMsg"}, "M_11769": {"note_status": 1, "channel": 6, "note": 31, "velocity": 0, "time": 0, "type": "NormalMsg"}, "M_11770": {"note_status": 1, "channel": 6, "note": 43, "velocity": 103, "time": 0, "type": "NormalMsg"}, "M_11771": {"note_status": 1, "channel": 6, "note": 43, "velocity": 0, "time": 0, "type": "NormalMsg"}, "M_11772": {"note_status": 1, "channel": 6, "note": 31, "velocity": 117, "time": 0, "type": "NormalMsg"}, "M_11773": {"note_status": 1, "channel": 6, "note": 31, "velocity": 0, "time": 0, "type": "NormalMsg"}, "M_11774": {"note_status": 1, "channel": 6, "note": 43, "velocity": 103, "time": 0, "type": "NormalMsg"}, "M_11775": {"note_status": 1, "channel": 6, "note": 43, "velocity": 0, "time": 0, "type": "NormalMsg"}, "M_11776": {"note_status": 1, "channel": 6, "note": 33, "velocity": 113, "time": 0, "type": "NormalMsg"}, "M_11777": {"note_status": 1, "channel": 6, "note": 33, "velocity": 0, "time": 0, "type": "NormalMsg"}, "M_11778": {"note_status": 1, "channel": 6, "note": 45, "velocity": 95, "time": 0, "type": "NormalMsg"}, "M_11779": {"note_status": 1, "channel": 6, "note": 45, "velocity": 0, "time": 0, "type": "NormalMsg"}, "M_11780": {"note_status": 1, "channel": 6, "note": 33, "velocity": 108, "time": 0, "type": "NormalMsg"}, "M_11781": {"note_status": 1, "channel": 6, "note": 33, "velocity": 0, "time": 0, "type": "NormalMsg"}, "M_11782": {"note_status": 1, "channel": 6, "note": 45, "velocity": 92, "time": 0, "type": "NormalMsg"}, "M_11783": {"note_status": 1, "channel": 6, "note": 45, "velocity": 0, "time": 0, "type": "NormalMsg"}, "M_11784": {"note_status": 1, "channel": 6, "note": 29, "velocity": 110, "time": 0, "type": "NormalMsg"}, "M_11785": {"note_status": 1, "channel": 6, "note": 29, "velocity": 0, "time": 0, "type": "NormalMsg"}, "M_11786": {"note_status": 1, "channel": 6, "note": 41, "velocity": 95, "time": 0, "type": "NormalMsg"}, "M_11787": {"note_status": 1, "channel": 6, "note": 41, "velocity": 0, "time": 0, "type": "NormalMsg"}, "M_11788": {"note_status": 1, "channel": 6, "note": 29, "velocity": 108, "time": 0, "type": "NormalMsg"}, "M_11789": {"note_status": 1, "channel": 6, "note": 29, "velocity": 0, "time": 0, "type": "NormalMsg"}, "M_11790": {"note_status": 1, "channel": 6, "note": 41, "velocity": 95, "time": 0, "type": "NormalMsg"}, "M_11791": {"note_status": 1, "channel": 6, "note": 41, "velocity": 0, "time": 0, "type": "NormalMsg"}, "M_11792": {"note_status": 1, "channel": 6, "note": 26, "velocity": 113, "time": 0, "type": "NormalMsg"}, "M_11793": {"note_status": 1, "channel": 6, "note": 26, "velocity": 0, "time": 0, "type": "NormalMsg"}, "M_11794": {"note_status": 1, "channel": 6, "note": 38, "velocity": 103, "time": 0, "type": "NormalMsg"}, "M_11795": {"note_status": 1, "channel": 6, "note": 38, "velocity": 0, "time": 0, "type": "NormalMsg"}, "M_11796": {"note_status": 1, "channel": 6, "note": 26, "velocity": 117, "time": 0, "type": "NormalMsg"}, "M_11797": {"note_status": 1, "channel": 6, "note": 26, "velocity": 0, "time": 0, "type": "NormalMsg"}, "M_11798": {"note_status": 1, "channel": 6, "note": 38, "velocity": 95, "time": 0, "type": "NormalMsg"}, "M_11799": {"note_status": 1, "channel": 6, "note": 38, "velocity": 0, "time": 0, "type": "NormalMsg"}, "M_11800": {"note_status": 1, "channel": 6, "note": 31, "velocity": 113, "time": 0, "type": "NormalMsg"}, "M_11801": {"note_status": 1, "channel": 6, "note": 31, "velocity": 0, "time": 0, "type": "NormalMsg"}, "M_11802": {"note_status": 1, "channel": 6, "note": 43, "velocity": 103, "time": 0, "type": "NormalMsg"}, "M_11803": {"note_status": 1, "channel": 6, "note": 43, "velocity": 0, "time": 0, "type": "NormalMsg"}, "M_11804": {"note_status": 1, "channel": 6, "note": 31, "velocity": 117, "time": 0, "type": "NormalMsg"}, "M_11805": {"note_status": 1, "channel": 6, "note": 31, "velocity": 0, "time": 0, "type": "NormalMsg"}, "M_11806": {"note_status": 1, "channel": 6, "note": 43, "velocity": 103, "time": 0, "type": "NormalMsg"}, "M_11807": {"note_status": 1, "channel": 6, "note": 43, "velocity": 0, "time": 0, "type": "NormalMsg"}, "M_11808": {"note_status": 1, "channel": 6, "note": 29, "velocity": 127, "time": 0, "type": "NormalMsg"}, "M_11809": {"note_status": 1, "channel": 6, "note": 31, "velocity": 117, "time": 0, "type": "NormalMsg"}, "M_11810": {"note_status": 1, "channel": 6, "note": 29, "velocity": 0, "time": 0, "type": "NormalMsg"}, "M_11811": {"note_status": 1, "channel": 6, "note": 33, "velocity": 113, "time": 0, "type": "NormalMsg"}, "M_11812": {"note_status": 1, "channel": 6, "note": 31, "velocity": 0, "time": 0, "type": "NormalMsg"}, "M_11813": {"note_status": 1, "channel": 6, "note": 31, "velocity": 113, "time": 0, "type": "NormalMsg"}, "M_11814": {"note_status": 1, "channel": 6, "note": 33, "velocity": 0, "time": 0, "type": "NormalMsg"}, "M_11815": {"note_status": 1, "channel": 6, "note": 29, "velocity": 113, "time": 0, "type": "NormalMsg"}, "M_11816": {"note_status": 1, "channel": 6, "note": 31, "velocity": 0, "time": 0, "type": "NormalMsg"}, "M_11817": {"note_status": 1, "channel": 6, "note": 31, "velocity": 108, "time": 0, "type": "NormalMsg"}, "M_11818": {"note_status": 1, "channel": 6, "note": 29, "velocity": 0, "time": 0, "type": "NormalMsg"}, "M_11819": {"note_status": 1, "channel": 6, "note": 33, "velocity": 97, "time": 0, "type": "NormalMsg"}, "M_11820": {"note_status": 1, "channel": 6, "note": 31, "velocity": 0, "time": 0, "type": "NormalMsg"}, "M_11821": {"note_status": 1, "channel": 6, "note": 31, "velocity": 108, "time": 0, "type": "NormalMsg"}, "M_11822": {"note_status": 1, "channel": 6, "note": 33, "velocity": 0, "time": 0, "type": "NormalMsg"}, "M_11823": {"note_status": 1, "channel": 6, "note": 29, "velocity": 113, "time": 0, "type": "NormalMsg"}, "M_11824": {"note_status": 1, "channel": 6, "note": 31, "velocity": 0, "time": 0, "type": "NormalMsg"}, "M_11825": {"note_status": 1, "channel": 6, "note": 31, "velocity": 122, "time": 0, "type": "NormalMsg"}, "M_11826": {"note_status": 1, "channel": 6, "note": 29, "velocity": 0, "time": 0, "type": "NormalMsg"}, "M_11827": {"note_status": 1, "channel": 6, "note": 31, "velocity": 0, "time": 0, "type": "NormalMsg"}, "M_11828": {"note_status": 1, "channel": 6, "note": 40, "velocity": 123, "time": 0, "type": "NormalMsg"}, "M_11829": {"note_status": 1, "channel": 6, "note": 40, "velocity": 0, "time": 0, "type": "NormalMsg"}, "M_11830": {"note_status": 1, "channel": 6, "note": 40, "velocity": 123, "time": 0, "type": "NormalMsg"}, "M_11831": {"note_status": 1, "channel": 6, "note": 40, "velocity": 0, "time": 0, "type": "NormalMsg"}, "M_11832": {"note_status": 1, "channel": 6, "note": 40, "velocity": 123, "time": 0, "type": "NormalMsg"}, "M_11833": {"note_status": 1, "channel": 6, "note": 40, "velocity": 0, "time": 0, "type": "NormalMsg"}, "M_11834": {"note_status": 1, "channel": 6, "note": 40, "velocity": 123, "time": 0, "type": "NormalMsg"}, "M_11835": {"note_status": 1, "channel": 6, "note": 40, "velocity": 0, "time": 0, "type": "NormalMsg"}, "M_11836": {"note_status": 1, "channel": 6, "note": 40, "velocity": 123, "time": 0, "type": "NormalMsg"}, "M_11837": {"note_status": 1, "channel": 6, "note": 40, "velocity": 0, "time": 0, "type": "NormalMsg"}, "M_11838": {"note_status": 1, "channel": 6, "note": 40, "velocity": 123, "time": 0, "type": "NormalMsg"}, "M_11839": {"note_status": 1, "channel": 6, "note": 40, "velocity": 0, "time": 0, "type": "NormalMsg"}, "M_11840": {"note_status": 1, "channel": 6, "note": 40, "velocity": 123, "time": 0, "type": "NormalMsg"}, "M_11841": {"note_status": 1, "channel": 6, "note": 40, "velocity": 0, "time": 0, "type": "NormalMsg"}, "M_11842": {"note_status": 1, "channel": 6, "note": 40, "velocity": 123, "time": 0, "type": "NormalMsg"}, "M_11843": {"note_status": 1, "channel": 6, "note": 40, "velocity": 0, "time": 0, "type": "NormalMsg"}, "M_11844": {"note_status": 1, "channel": 6, "note": 40, "velocity": 123, "time": 0, "type": "NormalMsg"}, "M_11845": {"note_status": 1, "channel": 6, "note": 40, "velocity": 0, "time": 0, "type": "NormalMsg"}, "M_11846": {"note_status": 1, "channel": 6, "note": 40, "velocity": 123, "time": 0, "type": "NormalMsg"}, "M_11847": {"note_status": 1, "channel": 6, "note": 40, "velocity": 0, "time": 0, "type": "NormalMsg"}, "M_11848": {"note_status": 1, "channel": 6, "note": 40, "velocity": 123, "time": 0, "type": "NormalMsg"}, "M_11849": {"note_status": 1, "channel": 6, "note": 40, "velocity": 0, "time": 0, "type": "NormalMsg"}, "M_11850": {"note_status": 1, "channel": 6, "note": 40, "velocity": 123, "time": 0, "type": "NormalMsg"}, "M_11851": {"note_status": 1, "channel": 6, "note": 40, "velocity": 0, "time": 0, "type": "NormalMsg"}, "M_11852": {"note_status": 1, "channel": 6, "note": 40, "velocity": 123, "time": 0, "type": "NormalMsg"}, "M_11853": {"note_status": 1, "channel": 6, "note": 40, "velocity": 0, "time": 0, "type": "NormalMsg"}, "M_11854": {"note_status": 1, "channel": 6, "note": 33, "velocity": 123, "time": 0, "type": "NormalMsg"}, "M_11855": {"note_status": 1, "channel": 6, "note": 33, "velocity": 0, "time": 0, "type": "NormalMsg"}, "R_11856": {"note_status": 0, "channel": 0, "note": 0, "velocity": 0, "time": 0, "type": "ResetMsg"}, "R_11857": {"note_status": 0, "channel": 0, "note": 0, "velocity": 0, "time": 0, "type": "ResetMsg"}, "U_11858": {"note_status": 0, "channel": 0, "note": 0, "velocity": 0, "time": 0, "type": "DummyType"}, "M_11859": {"note_status": 1, "channel": 7, "note": 57, "velocity": 96, "time": 0, "type": "NormalMsg"}, "M_11860": {"note_status": 1, "channel": 7, "note": 57, "velocity": 0, "time": 0, "type": "NormalMsg"}, "M_11861": {"note_status": 1, "channel": 7, "note": 57, "velocity": 96, "time": 0, "type": "NormalMsg"}, "M_11862": {"note_status": 1, "channel": 7, "note": 57, "velocity": 0, "time": 0, "type": "NormalMsg"}, "M_11863": {"note_status": 1, "channel": 7, "note": 53, "velocity": 96, "time": 0, "type": "NormalMsg"}, "M_11864": {"note_status": 1, "channel": 7, "note": 53, "velocity": 0, "time": 0, "type": "NormalMsg"}, "M_11865": {"note_status": 1, "channel": 7, "note": 53, "velocity": 96, "time": 0, "type": "NormalMsg"}, "M_11866": {"note_status": 1, "channel": 7, "note": 53, "velocity": 0, "time": 0, "type": "NormalMsg"}, "M_11867": {"note_status": 1, "channel": 7, "note": 50, "velocity": 96, "time": 0, "type": "NormalMsg"}, "M_11868": {"note_status": 1, "channel": 7, "note": 50, "velocity": 0, "time": 0, "type": "NormalMsg"}, "M_11869": {"note_status": 1, "channel": 7, "note": 50, "velocity": 96, "time": 0, "type": "NormalMsg"}, "M_11870": {"note_status": 1, "channel": 7, "note": 50, "velocity": 0, "time": 0, "type": "NormalMsg"}, "M_11871": {"note_status": 1, "channel": 7, "note": 55, "velocity": 96, "time": 0, "type": "NormalMsg"}, "M_11872": {"note_status": 1, "channel": 7, "note": 55, "velocity": 0, "time": 0, "type": "NormalMsg"}, "M_11873": {"note_status": 1, "channel": 7, "note": 55, "velocity": 96, "time": 0, "type": "NormalMsg"}, "M_11874": {"note_status": 1, "channel": 7, "note": 55, "velocity": 0, "time": 0, "type": "NormalMsg"}, "M_11875": {"note_status": 1, "channel": 7, "note": 57, "velocity": 96, "time": 0, "type": "NormalMsg"}, "M_11876": {"note_status": 1, "channel": 7, "note": 57, "velocity": 0, "time": 0, "type": "NormalMsg"}, "M_11877": {"note_status": 1, "channel": 7, "note": 57, "velocity": 96, "time": 0, "type": "NormalMsg"}, "M_11878": {"note_status": 1, "channel": 7, "note": 57, "velocity": 0, "time": 0, "type": "NormalMsg"}, "M_11879": {"note_status": 1, "channel": 7, "note": 53, "velocity": 96, "time": 0, "type": "NormalMsg"}, "M_11880": {"note_status": 1, "channel": 7, "note": 53, "velocity": 0, "time": 0, "type": "NormalMsg"}, "M_11881": {"note_status": 1, "channel": 7, "note": 53, "velocity": 96, "time": 0, "type": "NormalMsg"}, "M_11882": {"note_status": 1, "channel": 7, "note": 53, "velocity": 0, "time": 0, "type": "NormalMsg"}, "M_11883": {"note_status": 1, "channel": 7, "note": 50, "velocity": 96, "time": 0, "type": "NormalMsg"}, "M_11884": {"note_status": 1, "channel": 7, "note": 50, "velocity": 0, "time": 0, "type": "NormalMsg"}, "M_11885": {"note_status": 1, "channel": 7, "note": 50, "velocity": 96, "time": 0, "type": "NormalMsg"}, "M_11886": {"note_status": 1, "channel": 7, "note": 50, "velocity": 0, "time": 0, "type": "NormalMsg"}, "M_11887": {"note_status": 1, "channel": 7, "note": 55, "velocity": 96, "time": 0, "type": "NormalMsg"}, "M_11888": {"note_status": 1, "channel": 7, "note": 55, "velocity": 0, "time": 0, "type": "NormalMsg"}, "M_11889": {"note_status": 1, "channel": 7, "note": 55, "velocity": 96, "time": 0, "type": "NormalMsg"}, "M_11890": {"note_status": 1, "channel": 7, "note": 55, "velocity": 0, "time": 0, "type": "NormalMsg"}, "M_11891": {"note_status": 1, "channel": 7, "note": 57, "velocity": 96, "time": 0, "type": "NormalMsg"}, "M_11892": {"note_status": 1, "channel": 7, "note": 57, "velocity": 0, "time": 0, "type": "NormalMsg"}, "M_11893": {"note_status": 1, "channel": 7, "note": 57, "velocity": 96, "time": 0, "type": "NormalMsg"}, "M_11894": {"note_status": 1, "channel": 7, "note": 57, "velocity": 0, "time": 0, "type": "NormalMsg"}, "M_11895": {"note_status": 1, "channel": 7, "note": 53, "velocity": 96, "time": 0, "type": "NormalMsg"}, "M_11896": {"note_status": 1, "channel": 7, "note": 53, "velocity": 0, "time": 0, "type": "NormalMsg"}, "M_11897": {"note_status": 1, "channel": 7, "note": 53, "velocity": 96, "time": 0, "type": "NormalMsg"}, "M_11898": {"note_status": 1, "channel": 7, "note": 53, "velocity": 0, "time": 0, "type": "NormalMsg"}, "M_11899": {"note_status": 1, "channel": 7, "note": 50, "velocity": 96, "time": 0, "type": "NormalMsg"}, "M_11900": {"note_status": 1, "channel": 7, "note": 50, "velocity": 0, "time": 0, "type": "NormalMsg"}, "M_11901": {"note_status": 1, "channel": 7, "note": 50, "velocity": 96, "time": 0, "type": "NormalMsg"}, "M_11902": {"note_status": 1, "channel": 7, "note": 50, "velocity": 0, "time": 0, "type": "NormalMsg"}, "M_11903": {"note_status": 1, "channel": 7, "note": 55, "velocity": 96, "time": 0, "type": "NormalMsg"}, "M_11904": {"note_status": 1, "channel": 7, "note": 55, "velocity": 0, "time": 0, "type": "NormalMsg"}, "M_11905": {"note_status": 1, "channel": 7, "note": 55, "velocity": 96, "time": 0, "type": "NormalMsg"}, "M_11906": {"note_status": 1, "channel": 7, "note": 55, "velocity": 0, "time": 0, "type": "NormalMsg"}, "M_11907": {"note_status": 1, "channel": 7, "note": 57, "velocity": 96, "time": 0, "type": "NormalMsg"}, "M_11908": {"note_status": 1, "channel": 7, "note": 57, "velocity": 0, "time": 0, "type": "NormalMsg"}, "M_11909": {"note_status": 1, "channel": 7, "note": 57, "velocity": 96, "time": 0, "type": "NormalMsg"}, "M_11910": {"note_status": 1, "channel": 7, "note": 57, "velocity": 0, "time": 0, "type": "NormalMsg"}, "M_11911": {"note_status": 1, "channel": 7, "note": 53, "velocity": 96, "time": 0, "type": "NormalMsg"}, "M_11912": {"note_status": 1, "channel": 7, "note": 53, "velocity": 0, "time": 0, "type": "NormalMsg"}, "M_11913": {"note_status": 1, "channel": 7, "note": 53, "velocity": 96, "time": 0, "type": "NormalMsg"}, "M_11914": {"note_status": 1, "channel": 7, "note": 53, "velocity": 0, "time": 0, "type": "NormalMsg"}, "M_11915": {"note_status": 1, "channel": 7, "note": 50, "velocity": 96, "time": 0, "type": "NormalMsg"}, "M_11916": {"note_status": 1, "channel": 7, "note": 50, "velocity": 0, "time": 0, "type": "NormalMsg"}, "M_11917": {"note_status": 1, "channel": 7, "note": 50, "velocity": 96, "time": 0, "type": "NormalMsg"}, "M_11918": {"note_status": 1, "channel": 7, "note": 50, "velocity": 0, "time": 0, "type": "NormalMsg"}, "M_11919": {"note_status": 1, "channel": 7, "note": 55, "velocity": 96, "time": 0, "type": "NormalMsg"}, "M_11920": {"note_status": 1, "channel": 7, "note": 55, "velocity": 0, "time": 0, "type": "NormalMsg"}, "M_11921": {"note_status": 1, "channel": 7, "note": 55, "velocity": 96, "time": 0, "type": "NormalMsg"}, "M_11922": {"note_status": 1, "channel": 7, "note": 55, "velocity": 0, "time": 0, "type": "NormalMsg"}, "M_11923": {"note_status": 1, "channel": 7, "note": 57, "velocity": 96, "time": 0, "type": "NormalMsg"}, "M_11924": {"note_status": 1, "channel": 7, "note": 57, "velocity": 0, "time": 0, "type": "NormalMsg"}, "M_11925": {"note_status": 1, "channel": 7, "note": 57, "velocity": 96, "time": 0, "type": "NormalMsg"}, "M_11926": {"note_status": 1, "channel": 7, "note": 57, "velocity": 0, "time": 0, "type": "NormalMsg"}, "M_11927": {"note_status": 1, "channel": 7, "note": 53, "velocity": 96, "time": 0, "type": "NormalMsg"}, "M_11928": {"note_status": 1, "channel": 7, "note": 53, "velocity": 0, "time": 0, "type": "NormalMsg"}, "M_11929": {"note_status": 1, "channel": 7, "note": 53, "velocity": 96, "time": 0, "type": "NormalMsg"}, "M_11930": {"note_status": 1, "channel": 7, "note": 53, "velocity": 0, "time": 0, "type": "NormalMsg"}, "M_11931": {"note_status": 1, "channel": 7, "note": 50, "velocity": 96, "time": 0, "type": "NormalMsg"}, "M_11932": {"note_status": 1, "channel": 7, "note": 50, "velocity": 0, "time": 0, "type": "NormalMsg"}, "M_11933": {"note_status": 1, "channel": 7, "note": 50, "velocity": 96, "time": 0, "type": "NormalMsg"}, "M_11934": {"note_status": 1, "channel": 7, "note": 50, "velocity": 0, "time": 0, "type": "NormalMsg"}, "M_11935": {"note_status": 1, "channel": 7, "note": 55, "velocity": 96, "time": 0, "type": "NormalMsg"}, "M_11936": {"note_status": 1, "channel": 7, "note": 55, "velocity": 0, "time": 0, "type": "NormalMsg"}, "M_11937": {"note_status": 1, "channel": 7, "note": 55, "velocity": 96, "time": 0, "type": "NormalMsg"}, "M_11938": {"note_status": 1, "channel": 7, "note": 55, "velocity": 0, "time": 0, "type": "NormalMsg"}, "M_11939": {"note_status": 1, "channel": 7, "note": 57, "velocity": 96, "time": 0, "type": "NormalMsg"}, "M_11940": {"note_status": 1, "channel": 7, "note": 57, "velocity": 0, "time": 0, "type": "NormalMsg"}, "M_11941": {"note_status": 1, "channel": 7, "note": 57, "velocity": 96, "time": 0, "type": "NormalMsg"}, "M_11942": {"note_status": 1, "channel": 7, "note": 57, "velocity": 0, "time": 0, "type": "NormalMsg"}, "M_11943": {"note_status": 1, "channel": 7, "note": 53, "velocity": 96, "time": 0, "type": "NormalMsg"}, "M_11944": {"note_status": 1, "channel": 7, "note": 53, "velocity": 0, "time": 0, "type": "NormalMsg"}, "M_11945": {"note_status": 1, "channel": 7, "note": 53, "velocity": 96, "time": 0, "type": "NormalMsg"}, "M_11946": {"note_status": 1, "channel": 7, "note": 53, "velocity": 0, "time": 0, "type": "NormalMsg"}, "M_11947": {"note_status": 1, "channel": 7, "note": 50, "velocity": 96, "time": 0, "type": "NormalMsg"}, "M_11948": {"note_status": 1, "channel": 7, "note": 50, "velocity": 0, "time": 0, "type": "NormalMsg"}, "M_11949": {"note_status": 1, "channel": 7, "note": 50, "velocity": 96, "time": 0, "type": "NormalMsg"}, "M_11950": {"note_status": 1, "channel": 7, "note": 50, "velocity": 0, "time": 0, "type": "NormalMsg"}, "M_11951": {"note_status": 1, "channel": 7, "note": 55, "velocity": 96, "time": 0, "type": "NormalMsg"}, "M_11952": {"note_status": 1, "channel": 7, "note": 55, "velocity": 0, "time": 0, "type": "NormalMsg"}, "M_11953": {"note_status": 1, "channel": 7, "note": 55, "velocity": 96, "time": 0, "type": "NormalMsg"}, "M_11954": {"note_status": 1, "channel": 7, "note": 55, "velocity": 0, "time": 0, "type": "NormalMsg"}, "M_11955": {"note_status": 1, "channel": 7, "note": 57, "velocity": 96, "time": 0, "type": "NormalMsg"}, "M_11956": {"note_status": 1, "channel": 7, "note": 57, "velocity": 0, "time": 0, "type": "NormalMsg"}, "M_11957": {"note_status": 1, "channel": 7, "note": 57, "velocity": 96, "time": 0, "type": "NormalMsg"}, "M_11958": {"note_status": 1, "channel": 7, "note": 57, "velocity": 0, "time": 0, "type": "NormalMsg"}, "M_11959": {"note_status": 1, "channel": 7, "note": 53, "velocity": 96, "time": 0, "type": "NormalMsg"}, "M_11960": {"note_status": 1, "channel": 7, "note": 53, "velocity": 0, "time": 0, "type": "NormalMsg"}, "M_11961": {"note_status": 1, "channel": 7, "note": 53, "velocity": 96, "time": 0, "type": "NormalMsg"}, "M_11962": {"note_status": 1, "channel": 7, "note": 53, "velocity": 0, "time": 0, "type": "NormalMsg"}, "M_11963": {"note_status": 1, "channel": 7, "note": 50, "velocity": 96, "time": 0, "type": "NormalMsg"}, "M_11964": {"note_status": 1, "channel": 7, "note": 50, "velocity": 0, "time": 0, "type": "NormalMsg"}, "M_11965": {"note_status": 1, "channel": 7, "note": 50, "velocity": 96, "time": 0, "type": "NormalMsg"}, "M_11966": {"note_status": 1, "channel": 7, "note": 50, "velocity": 0, "time": 0, "type": "NormalMsg"}, "M_11967": {"note_status": 1, "channel": 7, "note": 55, "velocity": 96, "time": 0, "type": "NormalMsg"}, "M_11968": {"note_status": 1, "channel": 7, "note": 55, "velocity": 0, "time": 0, "type": "NormalMsg"}, "M_11969": {"note_status": 1, "channel": 7, "note": 55, "velocity": 96, "time": 0, "type": "NormalMsg"}, "M_11970": {"note_status": 1, "channel": 7, "note": 55, "velocity": 0, "time": 0, "type": "NormalMsg"}, "M_11971": {"note_status": 1, "channel": 7, "note": 57, "velocity": 96, "time": 0, "type": "NormalMsg"}, "M_11972": {"note_status": 1, "channel": 7, "note": 57, "velocity": 0, "time": 0, "type": "NormalMsg"}, "M_11973": {"note_status": 1, "channel": 7, "note": 57, "velocity": 96, "time": 0, "type": "NormalMsg"}, "M_11974": {"note_status": 1, "channel": 7, "note": 57, "velocity": 0, "time": 0, "type": "NormalMsg"}, "M_11975": {"note_status": 1, "channel": 7, "note": 53, "velocity": 96, "time": 0, "type": "NormalMsg"}, "M_11976": {"note_status": 1, "channel": 7, "note": 53, "velocity": 0, "time": 0, "type": "NormalMsg"}, "M_11977": {"note_status": 1, "channel": 7, "note": 53, "velocity": 96, "time": 0, "type": "NormalMsg"}, "M_11978": {"note_status": 1, "channel": 7, "note": 53, "velocity": 0, "time": 0, "type": "NormalMsg"}, "M_11979": {"note_status": 1, "channel": 7, "note": 50, "velocity": 96, "time": 0, "type": "NormalMsg"}, "M_11980": {"note_status": 1, "channel": 7, "note": 50, "velocity": 0, "time": 0, "type": "NormalMsg"}, "M_11981": {"note_status": 1, "channel": 7, "note": 50, "velocity": 96, "time": 0, "type": "NormalMsg"}, "M_11982": {"note_status": 1, "channel": 7, "note": 50, "velocity": 0, "time": 0, "type": "NormalMsg"}, "M_11983": {"note_status": 1, "channel": 7, "note": 55, "velocity": 96, "time": 0, "type": "NormalMsg"}, "M_11984": {"note_status": 1, "channel": 7, "note": 55, "velocity": 0, "time": 0, "type": "NormalMsg"}, "M_11985": {"note_status": 1, "channel": 7, "note": 55, "velocity": 96, "time": 0, "type": "NormalMsg"}, "M_11986": {"note_status": 1, "channel": 7, "note": 55, "velocity": 0, "time": 0, "type": "NormalMsg"}, "M_11987": {"note_status": 1, "channel": 7, "note": 57, "velocity": 96, "time": 0, "type": "NormalMsg"}, "M_11988": {"note_status": 1, "channel": 7, "note": 57, "velocity": 0, "time": 0, "type": "NormalMsg"}, "M_11989": {"note_status": 1, "channel": 7, "note": 57, "velocity": 96, "time": 0, "type": "NormalMsg"}, "M_11990": {"note_status": 1, "channel": 7, "note": 57, "velocity": 0, "time": 0, "type": "NormalMsg"}, "M_11991": {"note_status": 1, "channel": 7, "note": 53, "velocity": 96, "time": 0, "type": "NormalMsg"}, "M_11992": {"note_status": 1, "channel": 7, "note": 53, "velocity": 0, "time": 0, "type": "NormalMsg"}, "M_11993": {"note_status": 1, "channel": 7, "note": 53, "velocity": 96, "time": 0, "type": "NormalMsg"}, "M_11994": {"note_status": 1, "channel": 7, "note": 53, "velocity": 0, "time": 0, "type": "NormalMsg"}, "M_11995": {"note_status": 1, "channel": 7, "note": 50, "velocity": 96, "time": 0, "type": "NormalMsg"}, "M_11996": {"note_status": 1, "channel": 7, "note": 50, "velocity": 0, "time": 0, "type": "NormalMsg"}, "M_11997": {"note_status": 1, "channel": 7, "note": 50, "velocity": 96, "time": 0, "type": "NormalMsg"}, "M_11998": {"note_status": 1, "channel": 7, "note": 50, "velocity": 0, "time": 0, "type": "NormalMsg"}, "M_11999": {"note_status": 1, "channel": 7, "note": 55, "velocity": 96, "time": 0, "type": "NormalMsg"}, "M_12000": {"note_status": 1, "channel": 7, "note": 55, "velocity": 0, "time": 0, "type": "NormalMsg"}, "M_12001": {"note_status": 1, "channel": 7, "note": 55, "velocity": 96, "time": 0, "type": "NormalMsg"}, "M_12002": {"note_status": 1, "channel": 7, "note": 55, "velocity": 0, "time": 0, "type": "NormalMsg"}, "M_12003": {"note_status": 1, "channel": 7, "note": 57, "velocity": 96, "time": 0, "type": "NormalMsg"}, "M_12004": {"note_status": 1, "channel": 7, "note": 57, "velocity": 0, "time": 0, "type": "NormalMsg"}, "M_12005": {"note_status": 1, "channel": 7, "note": 57, "velocity": 96, "time": 0, "type": "NormalMsg"}, "M_12006": {"note_status": 1, "channel": 7, "note": 57, "velocity": 0, "time": 0, "type": "NormalMsg"}, "M_12007": {"note_status": 1, "channel": 7, "note": 53, "velocity": 96, "time": 0, "type": "NormalMsg"}, "M_12008": {"note_status": 1, "channel": 7, "note": 53, "velocity": 0, "time": 0, "type": "NormalMsg"}, "M_12009": {"note_status": 1, "channel": 7, "note": 53, "velocity": 96, "time": 0, "type": "NormalMsg"}, "M_12010": {"note_status": 1, "channel": 7, "note": 53, "velocity": 0, "time": 0, "type": "NormalMsg"}, "M_12011": {"note_status": 1, "channel": 7, "note": 55, "velocity": 96, "time": 0, "type": "NormalMsg"}, "M_12012": {"note_status": 1, "channel": 7, "note": 55, "velocity": 0, "time": 0, "type": "NormalMsg"}, "M_12013": {"note_status": 1, "channel": 7, "note": 55, "velocity": 96, "time": 0, "type": "NormalMsg"}, "M_12014": {"note_status": 1, "channel": 7, "note": 55, "velocity": 0, "time": 0, "type": "NormalMsg"}, "M_12015": {"note_status": 1, "channel": 7, "note": 52, "velocity": 96, "time": 0, "type": "NormalMsg"}, "M_12016": {"note_status": 1, "channel": 7, "note": 52, "velocity": 0, "time": 0, "type": "NormalMsg"}, "M_12017": {"note_status": 1, "channel": 7, "note": 52, "velocity": 96, "time": 0, "type": "NormalMsg"}, "M_12018": {"note_status": 1, "channel": 7, "note": 52, "velocity": 0, "time": 0, "type": "NormalMsg"}, "M_12019": {"note_status": 1, "channel": 7, "note": 57, "velocity": 96, "time": 0, "type": "NormalMsg"}, "M_12020": {"note_status": 1, "channel": 7, "note": 57, "velocity": 0, "time": 0, "type": "NormalMsg"}, "M_12021": {"note_status": 1, "channel": 7, "note": 57, "velocity": 96, "time": 0, "type": "NormalMsg"}, "M_12022": {"note_status": 1, "channel": 7, "note": 57, "velocity": 0, "time": 0, "type": "NormalMsg"}, "M_12023": {"note_status": 1, "channel": 7, "note": 53, "velocity": 96, "time": 0, "type": "NormalMsg"}, "M_12024": {"note_status": 1, "channel": 7, "note": 53, "velocity": 0, "time": 0, "type": "NormalMsg"}, "M_12025": {"note_status": 1, "channel": 7, "note": 53, "velocity": 96, "time": 0, "type": "NormalMsg"}, "M_12026": {"note_status": 1, "channel": 7, "note": 53, "velocity": 0, "time": 0, "type": "NormalMsg"}, "M_12027": {"note_status": 1, "channel": 7, "note": 50, "velocity": 96, "time": 0, "type": "NormalMsg"}, "M_12028": {"note_status": 1, "channel": 7, "note": 50, "velocity": 0, "time": 0, "type": "NormalMsg"}, "M_12029": {"note_status": 1, "channel": 7, "note": 50, "velocity": 96, "time": 0, "type": "NormalMsg"}, "M_12030": {"note_status": 1, "channel": 7, "note": 50, "velocity": 0, "time": 0, "type": "NormalMsg"}, "M_12031": {"note_status": 1, "channel": 7, "note": 55, "velocity": 96, "time": 0, "type": "NormalMsg"}, "M_12032": {"note_status": 1, "channel": 7, "note": 55, "velocity": 0, "time": 0, "type": "NormalMsg"}, "M_12033": {"note_status": 1, "channel": 7, "note": 55, "velocity": 96, "time": 0, "type": "NormalMsg"}, "M_12034": {"note_status": 1, "channel": 7, "note": 55, "velocity": 0, "time": 0, "type": "NormalMsg"}, "M_12035": {"note_status": 1, "channel": 7, "note": 57, "velocity": 96, "time": 0, "type": "NormalMsg"}, "M_12036": {"note_status": 1, "channel": 7, "note": 57, "velocity": 0, "time": 0, "type": "NormalMsg"}, "M_12037": {"note_status": 1, "channel": 7, "note": 57, "velocity": 96, "time": 0, "type": "NormalMsg"}, "M_12038": {"note_status": 1, "channel": 7, "note": 57, "velocity": 0, "time": 0, "type": "NormalMsg"}, "M_12039": {"note_status": 1, "channel": 7, "note": 53, "velocity": 96, "time": 0, "type": "NormalMsg"}, "M_12040": {"note_status": 1, "channel": 7, "note": 53, "velocity": 0, "time": 0, "type": "NormalMsg"}, "M_12041": {"note_status": 1, "channel": 7, "note": 53, "velocity": 96, "time": 0, "type": "NormalMsg"}, "M_12042": {"note_status": 1, "channel": 7, "note": 53, "velocity": 0, "time": 0, "type": "NormalMsg"}, "M_12043": {"note_status": 1, "channel": 7, "note": 50, "velocity": 96, "time": 0, "type": "NormalMsg"}, "M_12044": {"note_status": 1, "channel": 7, "note": 50, "velocity": 0, "time": 0, "type": "NormalMsg"}, "M_12045": {"note_status": 1, "channel": 7, "note": 50, "velocity": 96, "time": 0, "type": "NormalMsg"}, "M_12046": {"note_status": 1, "channel": 7, "note": 50, "velocity": 0, "time": 0, "type": "NormalMsg"}, "M_12047": {"note_status": 1, "channel": 7, "note": 55, "velocity": 96, "time": 0, "type": "NormalMsg"}, "M_12048": {"note_status": 1, "channel": 7, "note": 55, "velocity": 0, "time": 0, "type": "NormalMsg"}, "M_12049": {"note_status": 1, "channel": 7, "note": 55, "velocity": 96, "time": 0, "type": "NormalMsg"}, "M_12050": {"note_status": 1, "channel": 7, "note": 55, "velocity": 0, "time": 0, "type": "NormalMsg"}, "M_12051": {"note_status": 1, "channel": 7, "note": 57, "velocity": 96, "time": 0, "type": "NormalMsg"}, "M_12052": {"note_status": 1, "channel": 7, "note": 57, "velocity": 0, "time": 0, "type": "NormalMsg"}, "M_12053": {"note_status": 1, "channel": 7, "note": 57, "velocity": 96, "time": 0, "type": "NormalMsg"}, "M_12054": {"note_status": 1, "channel": 7, "note": 57, "velocity": 0, "time": 0, "type": "NormalMsg"}, "M_12055": {"note_status": 1, "channel": 7, "note": 53, "velocity": 96, "time": 0, "type": "NormalMsg"}, "M_12056": {"note_status": 1, "channel": 7, "note": 53, "velocity": 0, "time": 0, "type": "NormalMsg"}, "M_12057": {"note_status": 1, "channel": 7, "note": 53, "velocity": 96, "time": 0, "type": "NormalMsg"}, "M_12058": {"note_status": 1, "channel": 7, "note": 53, "velocity": 0, "time": 0, "type": "NormalMsg"}, "M_12059": {"note_status": 1, "channel": 7, "note": 50, "velocity": 96, "time": 0, "type": "NormalMsg"}, "M_12060": {"note_status": 1, "channel": 7, "note": 50, "velocity": 0, "time": 0, "type": "NormalMsg"}, "M_12061": {"note_status": 1, "channel": 7, "note": 50, "velocity": 96, "time": 0, "type": "NormalMsg"}, "M_12062": {"note_status": 1, "channel": 7, "note": 50, "velocity": 0, "time": 0, "type": "NormalMsg"}, "M_12063": {"note_status": 1, "channel": 7, "note": 55, "velocity": 96, "time": 0, "type": "NormalMsg"}, "M_12064": {"note_status": 1, "channel": 7, "note": 55, "velocity": 0, "time": 0, "type": "NormalMsg"}, "M_12065": {"note_status": 1, "channel": 7, "note": 55, "velocity": 96, "time": 0, "type": "NormalMsg"}, "M_12066": {"note_status": 1, "channel": 7, "note": 55, "velocity": 0, "time": 0, "type": "NormalMsg"}, "M_12067": {"note_status": 1, "channel": 7, "note": 57, "velocity": 96, "time": 0, "type": "NormalMsg"}, "M_12068": {"note_status": 1, "channel": 7, "note": 57, "velocity": 0, "time": 0, "type": "NormalMsg"}, "M_12069": {"note_status": 1, "channel": 7, "note": 57, "velocity": 96, "time": 0, "type": "NormalMsg"}, "M_12070": {"note_status": 1, "channel": 7, "note": 57, "velocity": 0, "time": 0, "type": "NormalMsg"}, "M_12071": {"note_status": 1, "channel": 7, "note": 53, "velocity": 96, "time": 0, "type": "NormalMsg"}, "M_12072": {"note_status": 1, "channel": 7, "note": 53, "velocity": 0, "time": 0, "type": "NormalMsg"}, "M_12073": {"note_status": 1, "channel": 7, "note": 53, "velocity": 96, "time": 0, "type": "NormalMsg"}, "M_12074": {"note_status": 1, "channel": 7, "note": 53, "velocity": 0, "time": 0, "type": "NormalMsg"}, "M_12075": {"note_status": 1, "channel": 7, "note": 55, "velocity": 96, "time": 0, "type": "NormalMsg"}, "M_12076": {"note_status": 1, "channel": 7, "note": 55, "velocity": 0, "time": 0, "type": "NormalMsg"}, "M_12077": {"note_status": 1, "channel": 7, "note": 55, "velocity": 96, "time": 0, "type": "NormalMsg"}, "M_12078": {"note_status": 1, "channel": 7, "note": 55, "velocity": 0, "time": 0, "type": "NormalMsg"}, "M_12079": {"note_status": 1, "channel": 7, "note": 57, "velocity": 96, "time": 0, "type": "NormalMsg"}, "M_12080": {"note_status": 1, "channel": 7, "note": 57, "velocity": 0, "time": 0, "type": "NormalMsg"}, "M_12081": {"note_status": 1, "channel": 7, "note": 57, "velocity": 96, "time": 0, "type": "NormalMsg"}, "M_12082": {"note_status": 1, "channel": 7, "note": 57, "velocity": 0, "time": 0, "type": "NormalMsg"}, "M_12083": {"note_status": 1, "channel": 7, "note": 53, "velocity": 96, "time": 0, "type": "NormalMsg"}, "M_12084": {"note_status": 1, "channel": 7, "note": 53, "velocity": 0, "time": 0, "type": "NormalMsg"}, "M_12085": {"note_status": 1, "channel": 7, "note": 53, "velocity": 96, "time": 0, "type": "NormalMsg"}, "M_12086": {"note_status": 1, "channel": 7, "note": 53, "velocity": 0, "time": 0, "type": "NormalMsg"}, "M_12087": {"note_status": 1, "channel": 7, "note": 50, "velocity": 96, "time": 0, "type": "NormalMsg"}, "M_12088": {"note_status": 1, "channel": 7, "note": 50, "velocity": 0, "time": 0, "type": "NormalMsg"}, "M_12089": {"note_status": 1, "channel": 7, "note": 50, "velocity": 96, "time": 0, "type": "NormalMsg"}, "M_12090": {"note_status": 1, "channel": 7, "note": 50, "velocity": 0, "time": 0, "type": "NormalMsg"}, "M_12091": {"note_status": 1, "channel": 7, "note": 55, "velocity": 96, "time": 0, "type": "NormalMsg"}, "M_12092": {"note_status": 1, "channel": 7, "note": 55, "velocity": 0, "time": 0, "type": "NormalMsg"}, "M_12093": {"note_status": 1, "channel": 7, "note": 55, "velocity": 96, "time": 0, "type": "NormalMsg"}, "M_12094": {"note_status": 1, "channel": 7, "note": 55, "velocity": 0, "time": 0, "type": "NormalMsg"}, "M_12095": {"note_status": 1, "channel": 7, "note": 57, "velocity": 96, "time": 0, "type": "NormalMsg"}, "M_12096": {"note_status": 1, "channel": 7, "note": 57, "velocity": 0, "time": 0, "type": "NormalMsg"}, "M_12097": {"note_status": 1, "channel": 7, "note": 57, "velocity": 96, "time": 0, "type": "NormalMsg"}, "M_12098": {"note_status": 1, "channel": 7, "note": 57, "velocity": 0, "time": 0, "type": "NormalMsg"}, "M_12099": {"note_status": 1, "channel": 7, "note": 53, "velocity": 96, "time": 0, "type": "NormalMsg"}, "M_12100": {"note_status": 1, "channel": 7, "note": 53, "velocity": 0, "time": 0, "type": "NormalMsg"}, "M_12101": {"note_status": 1, "channel": 7, "note": 53, "velocity": 96, "time": 0, "type": "NormalMsg"}, "M_12102": {"note_status": 1, "channel": 7, "note": 53, "velocity": 0, "time": 0, "type": "NormalMsg"}, "M_12103": {"note_status": 1, "channel": 7, "note": 50, "velocity": 96, "time": 0, "type": "NormalMsg"}, "M_12104": {"note_status": 1, "channel": 7, "note": 50, "velocity": 0, "time": 0, "type": "NormalMsg"}, "M_12105": {"note_status": 1, "channel": 7, "note": 50, "velocity": 96, "time": 0, "type": "NormalMsg"}, "M_12106": {"note_status": 1, "channel": 7, "note": 50, "velocity": 0, "time": 0, "type": "NormalMsg"}, "M_12107": {"note_status": 1, "channel": 7, "note": 55, "velocity": 96, "time": 0, "type": "NormalMsg"}, "M_12108": {"note_status": 1, "channel": 7, "note": 55, "velocity": 0, "time": 0, "type": "NormalMsg"}, "M_12109": {"note_status": 1, "channel": 7, "note": 55, "velocity": 96, "time": 0, "type": "NormalMsg"}, "M_12110": {"note_status": 1, "channel": 7, "note": 55, "velocity": 0, "time": 0, "type": "NormalMsg"}, "M_12111": {"note_status": 1, "channel": 7, "note": 57, "velocity": 96, "time": 0, "type": "NormalMsg"}, "M_12112": {"note_status": 1, "channel": 7, "note": 57, "velocity": 0, "time": 0, "type": "NormalMsg"}, "M_12113": {"note_status": 1, "channel": 7, "note": 57, "velocity": 96, "time": 0, "type": "NormalMsg"}, "M_12114": {"note_status": 1, "channel": 7, "note": 57, "velocity": 0, "time": 0, "type": "NormalMsg"}, "M_12115": {"note_status": 1, "channel": 7, "note": 53, "velocity": 96, "time": 0, "type": "NormalMsg"}, "M_12116": {"note_status": 1, "channel": 7, "note": 53, "velocity": 0, "time": 0, "type": "NormalMsg"}, "M_12117": {"note_status": 1, "channel": 7, "note": 53, "velocity": 96, "time": 0, "type": "NormalMsg"}, "M_12118": {"note_status": 1, "channel": 7, "note": 53, "velocity": 0, "time": 0, "type": "NormalMsg"}, "M_12119": {"note_status": 1, "channel": 7, "note": 50, "velocity": 96, "time": 0, "type": "NormalMsg"}, "M_12120": {"note_status": 1, "channel": 7, "note": 50, "velocity": 0, "time": 0, "type": "NormalMsg"}, "M_12121": {"note_status": 1, "channel": 7, "note": 50, "velocity": 96, "time": 0, "type": "NormalMsg"}, "M_12122": {"note_status": 1, "channel": 7, "note": 50, "velocity": 0, "time": 0, "type": "NormalMsg"}, "M_12123": {"note_status": 1, "channel": 7, "note": 55, "velocity": 96, "time": 0, "type": "NormalMsg"}, "M_12124": {"note_status": 1, "channel": 7, "note": 55, "velocity": 0, "time": 0, "type": "NormalMsg"}, "M_12125": {"note_status": 1, "channel": 7, "note": 55, "velocity": 96, "time": 0, "type": "NormalMsg"}, "M_12126": {"note_status": 1, "channel": 7, "note": 55, "velocity": 0, "time": 0, "type": "NormalMsg"}, "M_12127": {"note_status": 1, "channel": 7, "note": 57, "velocity": 96, "time": 0, "type": "NormalMsg"}, "M_12128": {"note_status": 1, "channel": 7, "note": 57, "velocity": 0, "time": 0, "type": "NormalMsg"}, "M_12129": {"note_status": 1, "channel": 7, "note": 57, "velocity": 96, "time": 0, "type": "NormalMsg"}, "M_12130": {"note_status": 1, "channel": 7, "note": 57, "velocity": 0, "time": 0, "type": "NormalMsg"}, "M_12131": {"note_status": 1, "channel": 7, "note": 53, "velocity": 96, "time": 0, "type": "NormalMsg"}, "M_12132": {"note_status": 1, "channel": 7, "note": 53, "velocity": 0, "time": 0, "type": "NormalMsg"}, "M_12133": {"note_status": 1, "channel": 7, "note": 53, "velocity": 96, "time": 0, "type": "NormalMsg"}, "M_12134": {"note_status": 1, "channel": 7, "note": 53, "velocity": 0, "time": 0, "type": "NormalMsg"}, "M_12135": {"note_status": 1, "channel": 7, "note": 55, "velocity": 96, "time": 0, "type": "NormalMsg"}, "M_12136": {"note_status": 1, "channel": 7, "note": 55, "velocity": 0, "time": 0, "type": "NormalMsg"}, "M_12137": {"note_status": 1, "channel": 7, "note": 55, "velocity": 96, "time": 0, "type": "NormalMsg"}, "M_12138": {"note_status": 1, "channel": 7, "note": 55, "velocity": 0, "time": 0, "type": "NormalMsg"}, "M_12139": {"note_status": 1, "channel": 7, "note": 57, "velocity": 96, "time": 0, "type": "NormalMsg"}, "M_12140": {"note_status": 1, "channel": 7, "note": 57, "velocity": 0, "time": 0, "type": "NormalMsg"}, "M_12141": {"note_status": 1, "channel": 7, "note": 57, "velocity": 96, "time": 0, "type": "NormalMsg"}, "M_12142": {"note_status": 1, "channel": 7, "note": 57, "velocity": 0, "time": 0, "type": "NormalMsg"}, "M_12143": {"note_status": 1, "channel": 7, "note": 53, "velocity": 96, "time": 0, "type": "NormalMsg"}, "M_12144": {"note_status": 1, "channel": 7, "note": 53, "velocity": 0, "time": 0, "type": "NormalMsg"}, "M_12145": {"note_status": 1, "channel": 7, "note": 53, "velocity": 96, "time": 0, "type": "NormalMsg"}, "M_12146": {"note_status": 1, "channel": 7, "note": 53, "velocity": 0, "time": 0, "type": "NormalMsg"}, "M_12147": {"note_status": 1, "channel": 7, "note": 50, "velocity": 96, "time": 0, "type": "NormalMsg"}, "M_12148": {"note_status": 1, "channel": 7, "note": 50, "velocity": 0, "time": 0, "type": "NormalMsg"}, "M_12149": {"note_status": 1, "channel": 7, "note": 50, "velocity": 96, "time": 0, "type": "NormalMsg"}, "M_12150": {"note_status": 1, "channel": 7, "note": 50, "velocity": 0, "time": 0, "type": "NormalMsg"}, "M_12151": {"note_status": 1, "channel": 7, "note": 55, "velocity": 96, "time": 0, "type": "NormalMsg"}, "M_12152": {"note_status": 1, "channel": 7, "note": 55, "velocity": 0, "time": 0, "type": "NormalMsg"}, "M_12153": {"note_status": 1, "channel": 7, "note": 55, "velocity": 96, "time": 0, "type": "NormalMsg"}, "M_12154": {"note_status": 1, "channel": 7, "note": 55, "velocity": 0, "time": 0, "type": "NormalMsg"}, "M_12155": {"note_status": 1, "channel": 7, "note": 48, "velocity": 75, "time": 0, "type": "NormalMsg"}, "M_12156": {"note_status": 1, "channel": 7, "note": 53, "velocity": 75, "time": 0, "type": "NormalMsg"}, "M_12157": {"note_status": 1, "channel": 7, "note": 50, "velocity": 71, "time": 0, "type": "NormalMsg"}, "M_12158": {"note_status": 1, "channel": 7, "note": 48, "velocity": 0, "time": 0, "type": "NormalMsg"}, "M_12159": {"note_status": 1, "channel": 7, "note": 53, "velocity": 0, "time": 0, "type": "NormalMsg"}, "M_12160": {"note_status": 1, "channel": 7, "note": 55, "velocity": 68, "time": 0, "type": "NormalMsg"}, "M_12161": {"note_status": 1, "channel": 7, "note": 48, "velocity": 67, "time": 0, "type": "NormalMsg"}, "M_12162": {"note_status": 1, "channel": 7, "note": 53, "velocity": 71, "time": 0, "type": "NormalMsg"}, "M_12163": {"note_status": 1, "channel": 7, "note": 50, "velocity": 0, "time": 0, "type": "NormalMsg"}, "M_12164": {"note_status": 1, "channel": 7, "note": 55, "velocity": 0, "time": 0, "type": "NormalMsg"}, "M_12165": {"note_status": 1, "channel": 7, "note": 50, "velocity": 62, "time": 0, "type": "NormalMsg"}, "M_12166": {"note_status": 1, "channel": 7, "note": 53, "velocity": 0, "time": 0, "type": "NormalMsg"}, "M_12167": {"note_status": 1, "channel": 7, "note": 55, "velocity": 71, "time": 0, "type": "NormalMsg"}, "M_12168": {"note_status": 1, "channel": 7, "note": 48, "velocity": 0, "time": 0, "type": "NormalMsg"}, "M_12169": {"note_status": 1, "channel": 7, "note": 48, "velocity": 68, "time": 0, "type": "NormalMsg"}, "M_12170": {"note_status": 1, "channel": 7, "note": 50, "velocity": 0, "time": 0, "type": "NormalMsg"}, "M_12171": {"note_status": 1, "channel": 7, "note": 53, "velocity": 75, "time": 0, "type": "NormalMsg"}, "M_12172": {"note_status": 1, "channel": 7, "note": 55, "velocity": 0, "time": 0, "type": "NormalMsg"}, "M_12173": {"note_status": 1, "channel": 7, "note": 48, "velocity": 0, "time": 0, "type": "NormalMsg"}, "M_12174": {"note_status": 1, "channel": 7, "note": 50, "velocity": 70, "time": 0, "type": "NormalMsg"}, "M_12175": {"note_status": 1, "channel": 7, "note": 53, "velocity": 0, "time": 0, "type": "NormalMsg"}, "M_12176": {"note_status": 1, "channel": 7, "note": 55, "velocity": 71, "time": 0, "type": "NormalMsg"}, "M_12177": {"note_status": 1, "channel": 7, "note": 50, "velocity": 0, "time": 0, "type": "NormalMsg"}, "M_12178": {"note_status": 1, "channel": 7, "note": 55, "velocity": 0, "time": 0, "type": "NormalMsg"}, "M_12179": {"note_status": 1, "channel": 7, "note": 57, "velocity": 96, "time": 0, "type": "NormalMsg"}, "M_12180": {"note_status": 1, "channel": 7, "note": 57, "velocity": 0, "time": 0, "type": "NormalMsg"}, "M_12181": {"note_status": 1, "channel": 7, "note": 57, "velocity": 96, "time": 0, "type": "NormalMsg"}, "M_12182": {"note_status": 1, "channel": 7, "note": 57, "velocity": 0, "time": 0, "type": "NormalMsg"}, "M_12183": {"note_status": 1, "channel": 7, "note": 53, "velocity": 96, "time": 0, "type": "NormalMsg"}, "M_12184": {"note_status": 1, "channel": 7, "note": 53, "velocity": 0, "time": 0, "type": "NormalMsg"}, "M_12185": {"note_status": 1, "channel": 7, "note": 53, "velocity": 96, "time": 0, "type": "NormalMsg"}, "M_12186": {"note_status": 1, "channel": 7, "note": 53, "velocity": 0, "time": 0, "type": "NormalMsg"}, "M_12187": {"note_status": 1, "channel": 7, "note": 50, "velocity": 96, "time": 0, "type": "NormalMsg"}, "M_12188": {"note_status": 1, "channel": 7, "note": 50, "velocity": 0, "time": 0, "type": "NormalMsg"}, "M_12189": {"note_status": 1, "channel": 7, "note": 50, "velocity": 96, "time": 0, "type": "NormalMsg"}, "M_12190": {"note_status": 1, "channel": 7, "note": 50, "velocity": 0, "time": 0, "type": "NormalMsg"}, "M_12191": {"note_status": 1, "channel": 7, "note": 55, "velocity": 96, "time": 0, "type": "NormalMsg"}, "M_12192": {"note_status": 1, "channel": 7, "note": 55, "velocity": 0, "time": 0, "type": "NormalMsg"}, "M_12193": {"note_status": 1, "channel": 7, "note": 55, "velocity": 96, "time": 0, "type": "NormalMsg"}, "M_12194": {"note_status": 1, "channel": 7, "note": 55, "velocity": 0, "time": 0, "type": "NormalMsg"}, "M_12195": {"note_status": 1, "channel": 7, "note": 57, "velocity": 96, "time": 0, "type": "NormalMsg"}, "M_12196": {"note_status": 1, "channel": 7, "note": 57, "velocity": 0, "time": 0, "type": "NormalMsg"}, "M_12197": {"note_status": 1, "channel": 7, "note": 57, "velocity": 96, "time": 0, "type": "NormalMsg"}, "M_12198": {"note_status": 1, "channel": 7, "note": 57, "velocity": 0, "time": 0, "type": "NormalMsg"}, "M_12199": {"note_status": 1, "channel": 7, "note": 53, "velocity": 96, "time": 0, "type": "NormalMsg"}, "M_12200": {"note_status": 1, "channel": 7, "note": 53, "velocity": 0, "time": 0, "type": "NormalMsg"}, "M_12201": {"note_status": 1, "channel": 7, "note": 53, "velocity": 96, "time": 0, "type": "NormalMsg"}, "M_12202": {"note_status": 1, "channel": 7, "note": 53, "velocity": 0, "time": 0, "type": "NormalMsg"}, "M_12203": {"note_status": 1, "channel": 7, "note": 50, "velocity": 96, "time": 0, "type": "NormalMsg"}, "M_12204": {"note_status": 1, "channel": 7, "note": 50, "velocity": 0, "time": 0, "type": "NormalMsg"}, "M_12205": {"note_status": 1, "channel": 7, "note": 50, "velocity": 96, "time": 0, "type": "NormalMsg"}, "M_12206": {"note_status": 1, "channel": 7, "note": 50, "velocity": 0, "time": 0, "type": "NormalMsg"}, "M_12207": {"note_status": 1, "channel": 7, "note": 55, "velocity": 96, "time": 0, "type": "NormalMsg"}, "M_12208": {"note_status": 1, "channel": 7, "note": 55, "velocity": 0, "time": 0, "type": "NormalMsg"}, "M_12209": {"note_status": 1, "channel": 7, "note": 55, "velocity": 96, "time": 0, "type": "NormalMsg"}, "M_12210": {"note_status": 1, "channel": 7, "note": 55, "velocity": 0, "time": 0, "type": "NormalMsg"}, "M_12211": {"note_status": 1, "channel": 7, "note": 57, "velocity": 96, "time": 0, "type": "NormalMsg"}, "M_12212": {"note_status": 1, "channel": 7, "note": 57, "velocity": 0, "time": 0, "type": "NormalMsg"}, "M_12213": {"note_status": 1, "channel": 7, "note": 57, "velocity": 96, "time": 0, "type": "NormalMsg"}, "M_12214": {"note_status": 1, "channel": 7, "note": 57, "velocity": 0, "time": 0, "type": "NormalMsg"}, "M_12215": {"note_status": 1, "channel": 7, "note": 53, "velocity": 96, "time": 0, "type": "NormalMsg"}, "M_12216": {"note_status": 1, "channel": 7, "note": 53, "velocity": 0, "time": 0, "type": "NormalMsg"}, "M_12217": {"note_status": 1, "channel": 7, "note": 53, "velocity": 96, "time": 0, "type": "NormalMsg"}, "M_12218": {"note_status": 1, "channel": 7, "note": 53, "velocity": 0, "time": 0, "type": "NormalMsg"}, "M_12219": {"note_status": 1, "channel": 7, "note": 50, "velocity": 96, "time": 0, "type": "NormalMsg"}, "M_12220": {"note_status": 1, "channel": 7, "note": 50, "velocity": 0, "time": 0, "type": "NormalMsg"}, "M_12221": {"note_status": 1, "channel": 7, "note": 50, "velocity": 96, "time": 0, "type": "NormalMsg"}, "M_12222": {"note_status": 1, "channel": 7, "note": 50, "velocity": 0, "time": 0, "type": "NormalMsg"}, "M_12223": {"note_status": 1, "channel": 7, "note": 55, "velocity": 96, "time": 0, "type": "NormalMsg"}, "M_12224": {"note_status": 1, "channel": 7, "note": 55, "velocity": 0, "time": 0, "type": "NormalMsg"}, "M_12225": {"note_status": 1, "channel": 7, "note": 55, "velocity": 96, "time": 0, "type": "NormalMsg"}, "M_12226": {"note_status": 1, "channel": 7, "note": 55, "velocity": 0, "time": 0, "type": "NormalMsg"}, "M_12227": {"note_status": 1, "channel": 7, "note": 57, "velocity": 96, "time": 0, "type": "NormalMsg"}, "M_12228": {"note_status": 1, "channel": 7, "note": 57, "velocity": 0, "time": 0, "type": "NormalMsg"}, "M_12229": {"note_status": 1, "channel": 7, "note": 57, "velocity": 96, "time": 0, "type": "NormalMsg"}, "M_12230": {"note_status": 1, "channel": 7, "note": 57, "velocity": 0, "time": 0, "type": "NormalMsg"}, "M_12231": {"note_status": 1, "channel": 7, "note": 53, "velocity": 96, "time": 0, "type": "NormalMsg"}, "M_12232": {"note_status": 1, "channel": 7, "note": 53, "velocity": 0, "time": 0, "type": "NormalMsg"}, "M_12233": {"note_status": 1, "channel": 7, "note": 53, "velocity": 96, "time": 0, "type": "NormalMsg"}, "M_12234": {"note_status": 1, "channel": 7, "note": 53, "velocity": 0, "time": 0, "type": "NormalMsg"}, "M_12235": {"note_status": 1, "channel": 7, "note": 50, "velocity": 96, "time": 0, "type": "NormalMsg"}, "M_12236": {"note_status": 1, "channel": 7, "note": 50, "velocity": 0, "time": 0, "type": "NormalMsg"}, "M_12237": {"note_status": 1, "channel": 7, "note": 50, "velocity": 96, "time": 0, "type": "NormalMsg"}, "M_12238": {"note_status": 1, "channel": 7, "note": 50, "velocity": 0, "time": 0, "type": "NormalMsg"}, "M_12239": {"note_status": 1, "channel": 7, "note": 55, "velocity": 96, "time": 0, "type": "NormalMsg"}, "M_12240": {"note_status": 1, "channel": 7, "note": 55, "velocity": 0, "time": 0, "type": "NormalMsg"}, "M_12241": {"note_status": 1, "channel": 7, "note": 55, "velocity": 96, "time": 0, "type": "NormalMsg"}, "M_12242": {"note_status": 1, "channel": 7, "note": 55, "velocity": 0, "time": 0, "type": "NormalMsg"}, "M_12243": {"note_status": 1, "channel": 7, "note": 57, "velocity": 96, "time": 0, "type": "NormalMsg"}, "M_12244": {"note_status": 1, "channel": 7, "note": 57, "velocity": 0, "time": 0, "type": "NormalMsg"}, "M_12245": {"note_status": 1, "channel": 7, "note": 57, "velocity": 96, "time": 0, "type": "NormalMsg"}, "M_12246": {"note_status": 1, "channel": 7, "note": 57, "velocity": 0, "time": 0, "type": "NormalMsg"}, "M_12247": {"note_status": 1, "channel": 7, "note": 53, "velocity": 96, "time": 0, "type": "NormalMsg"}, "M_12248": {"note_status": 1, "channel": 7, "note": 53, "velocity": 0, "time": 0, "type": "NormalMsg"}, "M_12249": {"note_status": 1, "channel": 7, "note": 53, "velocity": 96, "time": 0, "type": "NormalMsg"}, "M_12250": {"note_status": 1, "channel": 7, "note": 53, "velocity": 0, "time": 0, "type": "NormalMsg"}, "M_12251": {"note_status": 1, "channel": 7, "note": 50, "velocity": 96, "time": 0, "type": "NormalMsg"}, "M_12252": {"note_status": 1, "channel": 7, "note": 50, "velocity": 0, "time": 0, "type": "NormalMsg"}, "M_12253": {"note_status": 1, "channel": 7, "note": 50, "velocity": 96, "time": 0, "type": "NormalMsg"}, "M_12254": {"note_status": 1, "channel": 7, "note": 50, "velocity": 0, "time": 0, "type": "NormalMsg"}, "M_12255": {"note_status": 1, "channel": 7, "note": 55, "velocity": 96, "time": 0, "type": "NormalMsg"}, "M_12256": {"note_status": 1, "channel": 7, "note": 55, "velocity": 0, "time": 0, "type": "NormalMsg"}, "M_12257": {"note_status": 1, "channel": 7, "note": 55, "velocity": 96, "time": 0, "type": "NormalMsg"}, "M_12258": {"note_status": 1, "channel": 7, "note": 55, "velocity": 0, "time": 0, "type": "NormalMsg"}, "M_12259": {"note_status": 1, "channel": 7, "note": 57, "velocity": 96, "time": 0, "type": "NormalMsg"}, "M_12260": {"note_status": 1, "channel": 7, "note": 57, "velocity": 0, "time": 0, "type": "NormalMsg"}, "M_12261": {"note_status": 1, "channel": 7, "note": 57, "velocity": 96, "time": 0, "type": "NormalMsg"}, "M_12262": {"note_status": 1, "channel": 7, "note": 57, "velocity": 0, "time": 0, "type": "NormalMsg"}, "M_12263": {"note_status": 1, "channel": 7, "note": 53, "velocity": 96, "time": 0, "type": "NormalMsg"}, "M_12264": {"note_status": 1, "channel": 7, "note": 53, "velocity": 0, "time": 0, "type": "NormalMsg"}, "M_12265": {"note_status": 1, "channel": 7, "note": 53, "velocity": 96, "time": 0, "type": "NormalMsg"}, "M_12266": {"note_status": 1, "channel": 7, "note": 53, "velocity": 0, "time": 0, "type": "NormalMsg"}, "M_12267": {"note_status": 1, "channel": 7, "note": 50, "velocity": 96, "time": 0, "type": "NormalMsg"}, "M_12268": {"note_status": 1, "channel": 7, "note": 50, "velocity": 0, "time": 0, "type": "NormalMsg"}, "M_12269": {"note_status": 1, "channel": 7, "note": 50, "velocity": 96, "time": 0, "type": "NormalMsg"}, "M_12270": {"note_status": 1, "channel": 7, "note": 50, "velocity": 0, "time": 0, "type": "NormalMsg"}, "M_12271": {"note_status": 1, "channel": 7, "note": 55, "velocity": 96, "time": 0, "type": "NormalMsg"}, "M_12272": {"note_status": 1, "channel": 7, "note": 55, "velocity": 0, "time": 0, "type": "NormalMsg"}, "M_12273": {"note_status": 1, "channel": 7, "note": 55, "velocity": 96, "time": 0, "type": "NormalMsg"}, "M_12274": {"note_status": 1, "channel": 7, "note": 55, "velocity": 0, "time": 0, "type": "NormalMsg"}, "M_12275": {"note_status": 1, "channel": 7, "note": 57, "velocity": 96, "time": 0, "type": "NormalMsg"}, "M_12276": {"note_status": 1, "channel": 7, "note": 57, "velocity": 0, "time": 0, "type": "NormalMsg"}, "M_12277": {"note_status": 1, "channel": 7, "note": 57, "velocity": 96, "time": 0, "type": "NormalMsg"}, "M_12278": {"note_status": 1, "channel": 7, "note": 57, "velocity": 0, "time": 0, "type": "NormalMsg"}, "M_12279": {"note_status": 1, "channel": 7, "note": 53, "velocity": 96, "time": 0, "type": "NormalMsg"}, "M_12280": {"note_status": 1, "channel": 7, "note": 53, "velocity": 0, "time": 0, "type": "NormalMsg"}, "M_12281": {"note_status": 1, "channel": 7, "note": 53, "velocity": 96, "time": 0, "type": "NormalMsg"}, "M_12282": {"note_status": 1, "channel": 7, "note": 53, "velocity": 0, "time": 0, "type": "NormalMsg"}, "M_12283": {"note_status": 1, "channel": 7, "note": 50, "velocity": 96, "time": 0, "type": "NormalMsg"}, "M_12284": {"note_status": 1, "channel": 7, "note": 50, "velocity": 0, "time": 0, "type": "NormalMsg"}, "M_12285": {"note_status": 1, "channel": 7, "note": 50, "velocity": 96, "time": 0, "type": "NormalMsg"}, "M_12286": {"note_status": 1, "channel": 7, "note": 50, "velocity": 0, "time": 0, "type": "NormalMsg"}, "M_12287": {"note_status": 1, "channel": 7, "note": 55, "velocity": 96, "time": 0, "type": "NormalMsg"}, "M_12288": {"note_status": 1, "channel": 7, "note": 55, "velocity": 0, "time": 0, "type": "NormalMsg"}, "M_12289": {"note_status": 1, "channel": 7, "note": 55, "velocity": 96, "time": 0, "type": "NormalMsg"}, "M_12290": {"note_status": 1, "channel": 7, "note": 55, "velocity": 0, "time": 0, "type": "NormalMsg"}, "M_12291": {"note_status": 1, "channel": 7, "note": 57, "velocity": 96, "time": 0, "type": "NormalMsg"}, "M_12292": {"note_status": 1, "channel": 7, "note": 57, "velocity": 0, "time": 0, "type": "NormalMsg"}, "M_12293": {"note_status": 1, "channel": 7, "note": 57, "velocity": 96, "time": 0, "type": "NormalMsg"}, "M_12294": {"note_status": 1, "channel": 7, "note": 57, "velocity": 0, "time": 0, "type": "NormalMsg"}, "M_12295": {"note_status": 1, "channel": 7, "note": 53, "velocity": 96, "time": 0, "type": "NormalMsg"}, "M_12296": {"note_status": 1, "channel": 7, "note": 53, "velocity": 0, "time": 0, "type": "NormalMsg"}, "M_12297": {"note_status": 1, "channel": 7, "note": 53, "velocity": 96, "time": 0, "type": "NormalMsg"}, "M_12298": {"note_status": 1, "channel": 7, "note": 53, "velocity": 0, "time": 0, "type": "NormalMsg"}, "M_12299": {"note_status": 1, "channel": 7, "note": 55, "velocity": 96, "time": 0, "type": "NormalMsg"}, "M_12300": {"note_status": 1, "channel": 7, "note": 55, "velocity": 0, "time": 0, "type": "NormalMsg"}, "M_12301": {"note_status": 1, "channel": 7, "note": 55, "velocity": 96, "time": 0, "type": "NormalMsg"}, "M_12302": {"note_status": 1, "channel": 7, "note": 55, "velocity": 0, "time": 0, "type": "NormalMsg"}, "M_12303": {"note_status": 1, "channel": 7, "note": 52, "velocity": 96, "time": 0, "type": "NormalMsg"}, "M_12304": {"note_status": 1, "channel": 7, "note": 52, "velocity": 0, "time": 0, "type": "NormalMsg"}, "M_12305": {"note_status": 1, "channel": 7, "note": 52, "velocity": 96, "time": 0, "type": "NormalMsg"}, "M_12306": {"note_status": 1, "channel": 7, "note": 52, "velocity": 0, "time": 0, "type": "NormalMsg"}, "M_12307": {"note_status": 1, "channel": 7, "note": 57, "velocity": 96, "time": 0, "type": "NormalMsg"}, "M_12308": {"note_status": 1, "channel": 7, "note": 57, "velocity": 0, "time": 0, "type": "NormalMsg"}, "M_12309": {"note_status": 1, "channel": 7, "note": 57, "velocity": 96, "time": 0, "type": "NormalMsg"}, "M_12310": {"note_status": 1, "channel": 7, "note": 57, "velocity": 0, "time": 0, "type": "NormalMsg"}, "M_12311": {"note_status": 1, "channel": 7, "note": 53, "velocity": 96, "time": 0, "type": "NormalMsg"}, "M_12312": {"note_status": 1, "channel": 7, "note": 53, "velocity": 0, "time": 0, "type": "NormalMsg"}, "M_12313": {"note_status": 1, "channel": 7, "note": 53, "velocity": 96, "time": 0, "type": "NormalMsg"}, "M_12314": {"note_status": 1, "channel": 7, "note": 53, "velocity": 0, "time": 0, "type": "NormalMsg"}, "M_12315": {"note_status": 1, "channel": 7, "note": 50, "velocity": 96, "time": 0, "type": "NormalMsg"}, "M_12316": {"note_status": 1, "channel": 7, "note": 50, "velocity": 0, "time": 0, "type": "NormalMsg"}, "M_12317": {"note_status": 1, "channel": 7, "note": 50, "velocity": 96, "time": 0, "type": "NormalMsg"}, "M_12318": {"note_status": 1, "channel": 7, "note": 50, "velocity": 0, "time": 0, "type": "NormalMsg"}, "M_12319": {"note_status": 1, "channel": 7, "note": 55, "velocity": 96, "time": 0, "type": "NormalMsg"}, "M_12320": {"note_status": 1, "channel": 7, "note": 55, "velocity": 0, "time": 0, "type": "NormalMsg"}, "M_12321": {"note_status": 1, "channel": 7, "note": 55, "velocity": 96, "time": 0, "type": "NormalMsg"}, "M_12322": {"note_status": 1, "channel": 7, "note": 55, "velocity": 0, "time": 0, "type": "NormalMsg"}, "M_12323": {"note_status": 1, "channel": 7, "note": 57, "velocity": 96, "time": 0, "type": "NormalMsg"}, "M_12324": {"note_status": 1, "channel": 7, "note": 57, "velocity": 0, "time": 0, "type": "NormalMsg"}, "M_12325": {"note_status": 1, "channel": 7, "note": 57, "velocity": 96, "time": 0, "type": "NormalMsg"}, "M_12326": {"note_status": 1, "channel": 7, "note": 57, "velocity": 0, "time": 0, "type": "NormalMsg"}, "M_12327": {"note_status": 1, "channel": 7, "note": 53, "velocity": 96, "time": 0, "type": "NormalMsg"}, "M_12328": {"note_status": 1, "channel": 7, "note": 53, "velocity": 0, "time": 0, "type": "NormalMsg"}, "M_12329": {"note_status": 1, "channel": 7, "note": 53, "velocity": 96, "time": 0, "type": "NormalMsg"}, "M_12330": {"note_status": 1, "channel": 7, "note": 53, "velocity": 0, "time": 0, "type": "NormalMsg"}, "M_12331": {"note_status": 1, "channel": 7, "note": 50, "velocity": 96, "time": 0, "type": "NormalMsg"}, "M_12332": {"note_status": 1, "channel": 7, "note": 50, "velocity": 0, "time": 0, "type": "NormalMsg"}, "M_12333": {"note_status": 1, "channel": 7, "note": 50, "velocity": 96, "time": 0, "type": "NormalMsg"}, "M_12334": {"note_status": 1, "channel": 7, "note": 50, "velocity": 0, "time": 0, "type": "NormalMsg"}, "M_12335": {"note_status": 1, "channel": 7, "note": 55, "velocity": 96, "time": 0, "type": "NormalMsg"}, "M_12336": {"note_status": 1, "channel": 7, "note": 55, "velocity": 0, "time": 0, "type": "NormalMsg"}, "M_12337": {"note_status": 1, "channel": 7, "note": 55, "velocity": 96, "time": 0, "type": "NormalMsg"}, "M_12338": {"note_status": 1, "channel": 7, "note": 55, "velocity": 0, "time": 0, "type": "NormalMsg"}, "M_12339": {"note_status": 1, "channel": 7, "note": 57, "velocity": 96, "time": 0, "type": "NormalMsg"}, "M_12340": {"note_status": 1, "channel": 7, "note": 57, "velocity": 0, "time": 0, "type": "NormalMsg"}, "M_12341": {"note_status": 1, "channel": 7, "note": 57, "velocity": 96, "time": 0, "type": "NormalMsg"}, "M_12342": {"note_status": 1, "channel": 7, "note": 57, "velocity": 0, "time": 0, "type": "NormalMsg"}, "M_12343": {"note_status": 1, "channel": 7, "note": 53, "velocity": 96, "time": 0, "type": "NormalMsg"}, "M_12344": {"note_status": 1, "channel": 7, "note": 53, "velocity": 0, "time": 0, "type": "NormalMsg"}, "M_12345": {"note_status": 1, "channel": 7, "note": 53, "velocity": 96, "time": 0, "type": "NormalMsg"}, "M_12346": {"note_status": 1, "channel": 7, "note": 53, "velocity": 0, "time": 0, "type": "NormalMsg"}, "M_12347": {"note_status": 1, "channel": 7, "note": 50, "velocity": 96, "time": 0, "type": "NormalMsg"}, "M_12348": {"note_status": 1, "channel": 7, "note": 50, "velocity": 0, "time": 0, "type": "NormalMsg"}, "M_12349": {"note_status": 1, "channel": 7, "note": 50, "velocity": 96, "time": 0, "type": "NormalMsg"}, "M_12350": {"note_status": 1, "channel": 7, "note": 50, "velocity": 0, "time": 0, "type": "NormalMsg"}, "M_12351": {"note_status": 1, "channel": 7, "note": 55, "velocity": 96, "time": 0, "type": "NormalMsg"}, "M_12352": {"note_status": 1, "channel": 7, "note": 55, "velocity": 0, "time": 0, "type": "NormalMsg"}, "M_12353": {"note_status": 1, "channel": 7, "note": 55, "velocity": 96, "time": 0, "type": "NormalMsg"}, "M_12354": {"note_status": 1, "channel": 7, "note": 55, "velocity": 0, "time": 0, "type": "NormalMsg"}, "M_12355": {"note_status": 1, "channel": 7, "note": 57, "velocity": 96, "time": 0, "type": "NormalMsg"}, "M_12356": {"note_status": 1, "channel": 7, "note": 57, "velocity": 0, "time": 0, "type": "NormalMsg"}, "M_12357": {"note_status": 1, "channel": 7, "note": 57, "velocity": 96, "time": 0, "type": "NormalMsg"}, "M_12358": {"note_status": 1, "channel": 7, "note": 57, "velocity": 0, "time": 0, "type": "NormalMsg"}, "M_12359": {"note_status": 1, "channel": 7, "note": 53, "velocity": 96, "time": 0, "type": "NormalMsg"}, "M_12360": {"note_status": 1, "channel": 7, "note": 53, "velocity": 0, "time": 0, "type": "NormalMsg"}, "M_12361": {"note_status": 1, "channel": 7, "note": 53, "velocity": 96, "time": 0, "type": "NormalMsg"}, "M_12362": {"note_status": 1, "channel": 7, "note": 53, "velocity": 0, "time": 0, "type": "NormalMsg"}, "M_12363": {"note_status": 1, "channel": 7, "note": 55, "velocity": 96, "time": 0, "type": "NormalMsg"}, "M_12364": {"note_status": 1, "channel": 7, "note": 55, "velocity": 0, "time": 0, "type": "NormalMsg"}, "M_12365": {"note_status": 1, "channel": 7, "note": 55, "velocity": 96, "time": 0, "type": "NormalMsg"}, "M_12366": {"note_status": 1, "channel": 7, "note": 55, "velocity": 0, "time": 0, "type": "NormalMsg"}, "M_12367": {"note_status": 1, "channel": 7, "note": 57, "velocity": 96, "time": 0, "type": "NormalMsg"}, "M_12368": {"note_status": 1, "channel": 7, "note": 57, "velocity": 0, "time": 0, "type": "NormalMsg"}, "M_12369": {"note_status": 1, "channel": 7, "note": 57, "velocity": 96, "time": 0, "type": "NormalMsg"}, "M_12370": {"note_status": 1, "channel": 7, "note": 57, "velocity": 0, "time": 0, "type": "NormalMsg"}, "M_12371": {"note_status": 1, "channel": 7, "note": 53, "velocity": 96, "time": 0, "type": "NormalMsg"}, "M_12372": {"note_status": 1, "channel": 7, "note": 53, "velocity": 0, "time": 0, "type": "NormalMsg"}, "M_12373": {"note_status": 1, "channel": 7, "note": 53, "velocity": 96, "time": 0, "type": "NormalMsg"}, "M_12374": {"note_status": 1, "channel": 7, "note": 53, "velocity": 0, "time": 0, "type": "NormalMsg"}, "M_12375": {"note_status": 1, "channel": 7, "note": 50, "velocity": 96, "time": 0, "type": "NormalMsg"}, "M_12376": {"note_status": 1, "channel": 7, "note": 50, "velocity": 0, "time": 0, "type": "NormalMsg"}, "M_12377": {"note_status": 1, "channel": 7, "note": 50, "velocity": 96, "time": 0, "type": "NormalMsg"}, "M_12378": {"note_status": 1, "channel": 7, "note": 50, "velocity": 0, "time": 0, "type": "NormalMsg"}, "M_12379": {"note_status": 1, "channel": 7, "note": 55, "velocity": 96, "time": 0, "type": "NormalMsg"}, "M_12380": {"note_status": 1, "channel": 7, "note": 55, "velocity": 0, "time": 0, "type": "NormalMsg"}, "M_12381": {"note_status": 1, "channel": 7, "note": 55, "velocity": 96, "time": 0, "type": "NormalMsg"}, "M_12382": {"note_status": 1, "channel": 7, "note": 55, "velocity": 0, "time": 0, "type": "NormalMsg"}, "M_12383": {"note_status": 1, "channel": 7, "note": 57, "velocity": 96, "time": 0, "type": "NormalMsg"}, "M_12384": {"note_status": 1, "channel": 7, "note": 57, "velocity": 0, "time": 0, "type": "NormalMsg"}, "M_12385": {"note_status": 1, "channel": 7, "note": 57, "velocity": 96, "time": 0, "type": "NormalMsg"}, "M_12386": {"note_status": 1, "channel": 7, "note": 57, "velocity": 0, "time": 0, "type": "NormalMsg"}, "M_12387": {"note_status": 1, "channel": 7, "note": 53, "velocity": 96, "time": 0, "type": "NormalMsg"}, "M_12388": {"note_status": 1, "channel": 7, "note": 53, "velocity": 0, "time": 0, "type": "NormalMsg"}, "M_12389": {"note_status": 1, "channel": 7, "note": 53, "velocity": 96, "time": 0, "type": "NormalMsg"}, "M_12390": {"note_status": 1, "channel": 7, "note": 53, "velocity": 0, "time": 0, "type": "NormalMsg"}, "M_12391": {"note_status": 1, "channel": 7, "note": 50, "velocity": 96, "time": 0, "type": "NormalMsg"}, "M_12392": {"note_status": 1, "channel": 7, "note": 50, "velocity": 0, "time": 0, "type": "NormalMsg"}, "M_12393": {"note_status": 1, "channel": 7, "note": 50, "velocity": 96, "time": 0, "type": "NormalMsg"}, "M_12394": {"note_status": 1, "channel": 7, "note": 50, "velocity": 0, "time": 0, "type": "NormalMsg"}, "M_12395": {"note_status": 1, "channel": 7, "note": 55, "velocity": 96, "time": 0, "type": "NormalMsg"}, "M_12396": {"note_status": 1, "channel": 7, "note": 55, "velocity": 0, "time": 0, "type": "NormalMsg"}, "M_12397": {"note_status": 1, "channel": 7, "note": 55, "velocity": 96, "time": 0, "type": "NormalMsg"}, "M_12398": {"note_status": 1, "channel": 7, "note": 55, "velocity": 0, "time": 0, "type": "NormalMsg"}, "M_12399": {"note_status": 1, "channel": 7, "note": 57, "velocity": 96, "time": 0, "type": "NormalMsg"}, "M_12400": {"note_status": 1, "channel": 7, "note": 57, "velocity": 0, "time": 0, "type": "NormalMsg"}, "M_12401": {"note_status": 1, "channel": 7, "note": 57, "velocity": 96, "time": 0, "type": "NormalMsg"}, "M_12402": {"note_status": 1, "channel": 7, "note": 57, "velocity": 0, "time": 0, "type": "NormalMsg"}, "M_12403": {"note_status": 1, "channel": 7, "note": 53, "velocity": 96, "time": 0, "type": "NormalMsg"}, "M_12404": {"note_status": 1, "channel": 7, "note": 53, "velocity": 0, "time": 0, "type": "NormalMsg"}, "M_12405": {"note_status": 1, "channel": 7, "note": 53, "velocity": 96, "time": 0, "type": "NormalMsg"}, "M_12406": {"note_status": 1, "channel": 7, "note": 53, "velocity": 0, "time": 0, "type": "NormalMsg"}, "M_12407": {"note_status": 1, "channel": 7, "note": 50, "velocity": 96, "time": 0, "type": "NormalMsg"}, "M_12408": {"note_status": 1, "channel": 7, "note": 50, "velocity": 0, "time": 0, "type": "NormalMsg"}, "M_12409": {"note_status": 1, "channel": 7, "note": 50, "velocity": 96, "time": 0, "type": "NormalMsg"}, "M_12410": {"note_status": 1, "channel": 7, "note": 50, "velocity": 0, "time": 0, "type": "NormalMsg"}, "M_12411": {"note_status": 1, "channel": 7, "note": 55, "velocity": 96, "time": 0, "type": "NormalMsg"}, "M_12412": {"note_status": 1, "channel": 7, "note": 55, "velocity": 0, "time": 0, "type": "NormalMsg"}, "M_12413": {"note_status": 1, "channel": 7, "note": 55, "velocity": 96, "time": 0, "type": "NormalMsg"}, "M_12414": {"note_status": 1, "channel": 7, "note": 55, "velocity": 0, "time": 0, "type": "NormalMsg"}, "M_12415": {"note_status": 1, "channel": 7, "note": 57, "velocity": 96, "time": 0, "type": "NormalMsg"}, "M_12416": {"note_status": 1, "channel": 7, "note": 57, "velocity": 0, "time": 0, "type": "NormalMsg"}, "M_12417": {"note_status": 1, "channel": 7, "note": 57, "velocity": 96, "time": 0, "type": "NormalMsg"}, "M_12418": {"note_status": 1, "channel": 7, "note": 57, "velocity": 0, "time": 0, "type": "NormalMsg"}, "M_12419": {"note_status": 1, "channel": 7, "note": 53, "velocity": 96, "time": 0, "type": "NormalMsg"}, "M_12420": {"note_status": 1, "channel": 7, "note": 53, "velocity": 0, "time": 0, "type": "NormalMsg"}, "M_12421": {"note_status": 1, "channel": 7, "note": 53, "velocity": 96, "time": 0, "type": "NormalMsg"}, "M_12422": {"note_status": 1, "channel": 7, "note": 53, "velocity": 0, "time": 0, "type": "NormalMsg"}, "M_12423": {"note_status": 1, "channel": 7, "note": 50, "velocity": 96, "time": 0, "type": "NormalMsg"}, "M_12424": {"note_status": 1, "channel": 7, "note": 50, "velocity": 0, "time": 0, "type": "NormalMsg"}, "M_12425": {"note_status": 1, "channel": 7, "note": 50, "velocity": 96, "time": 0, "type": "NormalMsg"}, "M_12426": {"note_status": 1, "channel": 7, "note": 50, "velocity": 0, "time": 0, "type": "NormalMsg"}, "M_12427": {"note_status": 1, "channel": 7, "note": 55, "velocity": 96, "time": 0, "type": "NormalMsg"}, "M_12428": {"note_status": 1, "channel": 7, "note": 55, "velocity": 0, "time": 0, "type": "NormalMsg"}, "M_12429": {"note_status": 1, "channel": 7, "note": 55, "velocity": 96, "time": 0, "type": "NormalMsg"}, "M_12430": {"note_status": 1, "channel": 7, "note": 55, "velocity": 0, "time": 0, "type": "NormalMsg"}, "M_12431": {"note_status": 1, "channel": 7, "note": 48, "velocity": 75, "time": 0, "type": "NormalMsg"}, "M_12432": {"note_status": 1, "channel": 7, "note": 53, "velocity": 75, "time": 0, "type": "NormalMsg"}, "M_12433": {"note_status": 1, "channel": 7, "note": 50, "velocity": 71, "time": 0, "type": "NormalMsg"}, "M_12434": {"note_status": 1, "channel": 7, "note": 48, "velocity": 0, "time": 0, "type": "NormalMsg"}, "M_12435": {"note_status": 1, "channel": 7, "note": 53, "velocity": 0, "time": 0, "type": "NormalMsg"}, "M_12436": {"note_status": 1, "channel": 7, "note": 55, "velocity": 68, "time": 0, "type": "NormalMsg"}, "M_12437": {"note_status": 1, "channel": 7, "note": 48, "velocity": 67, "time": 0, "type": "NormalMsg"}, "M_12438": {"note_status": 1, "channel": 7, "note": 53, "velocity": 71, "time": 0, "type": "NormalMsg"}, "M_12439": {"note_status": 1, "channel": 7, "note": 50, "velocity": 0, "time": 0, "type": "NormalMsg"}, "M_12440": {"note_status": 1, "channel": 7, "note": 55, "velocity": 0, "time": 0, "type": "NormalMsg"}, "M_12441": {"note_status": 1, "channel": 7, "note": 50, "velocity": 62, "time": 0, "type": "NormalMsg"}, "M_12442": {"note_status": 1, "channel": 7, "note": 53, "velocity": 0, "time": 0, "type": "NormalMsg"}, "M_12443": {"note_status": 1, "channel": 7, "note": 55, "velocity": 71, "time": 0, "type": "NormalMsg"}, "M_12444": {"note_status": 1, "channel": 7, "note": 48, "velocity": 0, "time": 0, "type": "NormalMsg"}, "M_12445": {"note_status": 1, "channel": 7, "note": 48, "velocity": 68, "time": 0, "type": "NormalMsg"}, "M_12446": {"note_status": 1, "channel": 7, "note": 50, "velocity": 0, "time": 0, "type": "NormalMsg"}, "M_12447": {"note_status": 1, "channel": 7, "note": 53, "velocity": 75, "time": 0, "type": "NormalMsg"}, "M_12448": {"note_status": 1, "channel": 7, "note": 55, "velocity": 0, "time": 0, "type": "NormalMsg"}, "M_12449": {"note_status": 1, "channel": 7, "note": 48, "velocity": 0, "time": 0, "type": "NormalMsg"}, "M_12450": {"note_status": 1, "channel": 7, "note": 50, "velocity": 70, "time": 0, "type": "NormalMsg"}, "M_12451": {"note_status": 1, "channel": 7, "note": 53, "velocity": 0, "time": 0, "type": "NormalMsg"}, "M_12452": {"note_status": 1, "channel": 7, "note": 55, "velocity": 71, "time": 0, "type": "NormalMsg"}, "M_12453": {"note_status": 1, "channel": 7, "note": 50, "velocity": 0, "time": 0, "type": "NormalMsg"}, "M_12454": {"note_status": 1, "channel": 7, "note": 55, "velocity": 0, "time": 0, "type": "NormalMsg"}, "M_12455": {"note_status": 1, "channel": 7, "note": 57, "velocity": 96, "time": 0, "type": "NormalMsg"}, "M_12456": {"note_status": 1, "channel": 7, "note": 57, "velocity": 0, "time": 0, "type": "NormalMsg"}, "M_12457": {"note_status": 1, "channel": 7, "note": 57, "velocity": 96, "time": 0, "type": "NormalMsg"}, "M_12458": {"note_status": 1, "channel": 7, "note": 57, "velocity": 0, "time": 0, "type": "NormalMsg"}, "M_12459": {"note_status": 1, "channel": 7, "note": 53, "velocity": 96, "time": 0, "type": "NormalMsg"}, "M_12460": {"note_status": 1, "channel": 7, "note": 53, "velocity": 0, "time": 0, "type": "NormalMsg"}, "M_12461": {"note_status": 1, "channel": 7, "note": 53, "velocity": 96, "time": 0, "type": "NormalMsg"}, "M_12462": {"note_status": 1, "channel": 7, "note": 53, "velocity": 0, "time": 0, "type": "NormalMsg"}, "M_12463": {"note_status": 1, "channel": 7, "note": 50, "velocity": 96, "time": 0, "type": "NormalMsg"}, "M_12464": {"note_status": 1, "channel": 7, "note": 50, "velocity": 0, "time": 0, "type": "NormalMsg"}, "M_12465": {"note_status": 1, "channel": 7, "note": 50, "velocity": 96, "time": 0, "type": "NormalMsg"}, "M_12466": {"note_status": 1, "channel": 7, "note": 50, "velocity": 0, "time": 0, "type": "NormalMsg"}, "M_12467": {"note_status": 1, "channel": 7, "note": 55, "velocity": 96, "time": 0, "type": "NormalMsg"}, "M_12468": {"note_status": 1, "channel": 7, "note": 55, "velocity": 0, "time": 0, "type": "NormalMsg"}, "M_12469": {"note_status": 1, "channel": 7, "note": 55, "velocity": 96, "time": 0, "type": "NormalMsg"}, "M_12470": {"note_status": 1, "channel": 7, "note": 55, "velocity": 0, "time": 0, "type": "NormalMsg"}, "M_12471": {"note_status": 1, "channel": 7, "note": 57, "velocity": 96, "time": 0, "type": "NormalMsg"}, "M_12472": {"note_status": 1, "channel": 7, "note": 57, "velocity": 0, "time": 0, "type": "NormalMsg"}, "M_12473": {"note_status": 1, "channel": 7, "note": 57, "velocity": 96, "time": 0, "type": "NormalMsg"}, "M_12474": {"note_status": 1, "channel": 7, "note": 57, "velocity": 0, "time": 0, "type": "NormalMsg"}, "M_12475": {"note_status": 1, "channel": 7, "note": 53, "velocity": 96, "time": 0, "type": "NormalMsg"}, "M_12476": {"note_status": 1, "channel": 7, "note": 53, "velocity": 0, "time": 0, "type": "NormalMsg"}, "M_12477": {"note_status": 1, "channel": 7, "note": 53, "velocity": 96, "time": 0, "type": "NormalMsg"}, "M_12478": {"note_status": 1, "channel": 7, "note": 53, "velocity": 0, "time": 0, "type": "NormalMsg"}, "M_12479": {"note_status": 1, "channel": 7, "note": 50, "velocity": 96, "time": 0, "type": "NormalMsg"}, "M_12480": {"note_status": 1, "channel": 7, "note": 50, "velocity": 0, "time": 0, "type": "NormalMsg"}, "M_12481": {"note_status": 1, "channel": 7, "note": 50, "velocity": 96, "time": 0, "type": "NormalMsg"}, "M_12482": {"note_status": 1, "channel": 7, "note": 50, "velocity": 0, "time": 0, "type": "NormalMsg"}, "M_12483": {"note_status": 1, "channel": 7, "note": 55, "velocity": 96, "time": 0, "type": "NormalMsg"}, "M_12484": {"note_status": 1, "channel": 7, "note": 55, "velocity": 0, "time": 0, "type": "NormalMsg"}, "M_12485": {"note_status": 1, "channel": 7, "note": 55, "velocity": 96, "time": 0, "type": "NormalMsg"}, "M_12486": {"note_status": 1, "channel": 7, "note": 55, "velocity": 0, "time": 0, "type": "NormalMsg"}, "M_12487": {"note_status": 1, "channel": 7, "note": 57, "velocity": 96, "time": 0, "type": "NormalMsg"}, "M_12488": {"note_status": 1, "channel": 7, "note": 57, "velocity": 0, "time": 0, "type": "NormalMsg"}, "M_12489": {"note_status": 1, "channel": 7, "note": 57, "velocity": 96, "time": 0, "type": "NormalMsg"}, "M_12490": {"note_status": 1, "channel": 7, "note": 57, "velocity": 0, "time": 0, "type": "NormalMsg"}, "M_12491": {"note_status": 1, "channel": 7, "note": 53, "velocity": 96, "time": 0, "type": "NormalMsg"}, "M_12492": {"note_status": 1, "channel": 7, "note": 53, "velocity": 0, "time": 0, "type": "NormalMsg"}, "M_12493": {"note_status": 1, "channel": 7, "note": 53, "velocity": 96, "time": 0, "type": "NormalMsg"}, "M_12494": {"note_status": 1, "channel": 7, "note": 53, "velocity": 0, "time": 0, "type": "NormalMsg"}, "M_12495": {"note_status": 1, "channel": 7, "note": 50, "velocity": 96, "time": 0, "type": "NormalMsg"}, "M_12496": {"note_status": 1, "channel": 7, "note": 50, "velocity": 0, "time": 0, "type": "NormalMsg"}, "M_12497": {"note_status": 1, "channel": 7, "note": 50, "velocity": 96, "time": 0, "type": "NormalMsg"}, "M_12498": {"note_status": 1, "channel": 7, "note": 50, "velocity": 0, "time": 0, "type": "NormalMsg"}, "M_12499": {"note_status": 1, "channel": 7, "note": 55, "velocity": 96, "time": 0, "type": "NormalMsg"}, "M_12500": {"note_status": 1, "channel": 7, "note": 55, "velocity": 0, "time": 0, "type": "NormalMsg"}, "M_12501": {"note_status": 1, "channel": 7, "note": 55, "velocity": 96, "time": 0, "type": "NormalMsg"}, "M_12502": {"note_status": 1, "channel": 7, "note": 55, "velocity": 0, "time": 0, "type": "NormalMsg"}, "M_12503": {"note_status": 1, "channel": 7, "note": 57, "velocity": 96, "time": 0, "type": "NormalMsg"}, "M_12504": {"note_status": 1, "channel": 7, "note": 57, "velocity": 0, "time": 0, "type": "NormalMsg"}, "M_12505": {"note_status": 1, "channel": 7, "note": 57, "velocity": 96, "time": 0, "type": "NormalMsg"}, "M_12506": {"note_status": 1, "channel": 7, "note": 57, "velocity": 0, "time": 0, "type": "NormalMsg"}, "M_12507": {"note_status": 1, "channel": 7, "note": 53, "velocity": 96, "time": 0, "type": "NormalMsg"}, "M_12508": {"note_status": 1, "channel": 7, "note": 53, "velocity": 0, "time": 0, "type": "NormalMsg"}, "M_12509": {"note_status": 1, "channel": 7, "note": 53, "velocity": 96, "time": 0, "type": "NormalMsg"}, "M_12510": {"note_status": 1, "channel": 7, "note": 53, "velocity": 0, "time": 0, "type": "NormalMsg"}, "M_12511": {"note_status": 1, "channel": 7, "note": 55, "velocity": 96, "time": 0, "type": "NormalMsg"}, "M_12512": {"note_status": 1, "channel": 7, "note": 55, "velocity": 0, "time": 0, "type": "NormalMsg"}, "M_12513": {"note_status": 1, "channel": 7, "note": 55, "velocity": 96, "time": 0, "type": "NormalMsg"}, "M_12514": {"note_status": 1, "channel": 7, "note": 55, "velocity": 0, "time": 0, "type": "NormalMsg"}, "M_12515": {"note_status": 1, "channel": 7, "note": 57, "velocity": 96, "time": 0, "type": "NormalMsg"}, "M_12516": {"note_status": 1, "channel": 7, "note": 57, "velocity": 0, "time": 0, "type": "NormalMsg"}, "M_12517": {"note_status": 1, "channel": 7, "note": 57, "velocity": 96, "time": 0, "type": "NormalMsg"}, "M_12518": {"note_status": 1, "channel": 7, "note": 57, "velocity": 0, "time": 0, "type": "NormalMsg"}, "M_12519": {"note_status": 1, "channel": 7, "note": 53, "velocity": 96, "time": 0, "type": "NormalMsg"}, "M_12520": {"note_status": 1, "channel": 7, "note": 53, "velocity": 0, "time": 0, "type": "NormalMsg"}, "M_12521": {"note_status": 1, "channel": 7, "note": 53, "velocity": 96, "time": 0, "type": "NormalMsg"}, "M_12522": {"note_status": 1, "channel": 7, "note": 53, "velocity": 0, "time": 0, "type": "NormalMsg"}, "M_12523": {"note_status": 1, "channel": 7, "note": 50, "velocity": 96, "time": 0, "type": "NormalMsg"}, "M_12524": {"note_status": 1, "channel": 7, "note": 50, "velocity": 0, "time": 0, "type": "NormalMsg"}, "M_12525": {"note_status": 1, "channel": 7, "note": 50, "velocity": 96, "time": 0, "type": "NormalMsg"}, "M_12526": {"note_status": 1, "channel": 7, "note": 50, "velocity": 0, "time": 0, "type": "NormalMsg"}, "M_12527": {"note_status": 1, "channel": 7, "note": 55, "velocity": 96, "time": 0, "type": "NormalMsg"}, "M_12528": {"note_status": 1, "channel": 7, "note": 55, "velocity": 0, "time": 0, "type": "NormalMsg"}, "M_12529": {"note_status": 1, "channel": 7, "note": 55, "velocity": 96, "time": 0, "type": "NormalMsg"}, "M_12530": {"note_status": 1, "channel": 7, "note": 55, "velocity": 0, "time": 0, "type": "NormalMsg"}, "M_12531": {"note_status": 1, "channel": 7, "note": 57, "velocity": 96, "time": 0, "type": "NormalMsg"}, "M_12532": {"note_status": 1, "channel": 7, "note": 57, "velocity": 0, "time": 0, "type": "NormalMsg"}, "M_12533": {"note_status": 1, "channel": 7, "note": 57, "velocity": 96, "time": 0, "type": "NormalMsg"}, "M_12534": {"note_status": 1, "channel": 7, "note": 57, "velocity": 0, "time": 0, "type": "NormalMsg"}, "M_12535": {"note_status": 1, "channel": 7, "note": 53, "velocity": 96, "time": 0, "type": "NormalMsg"}, "M_12536": {"note_status": 1, "channel": 7, "note": 53, "velocity": 0, "time": 0, "type": "NormalMsg"}, "M_12537": {"note_status": 1, "channel": 7, "note": 53, "velocity": 96, "time": 0, "type": "NormalMsg"}, "M_12538": {"note_status": 1, "channel": 7, "note": 53, "velocity": 0, "time": 0, "type": "NormalMsg"}, "M_12539": {"note_status": 1, "channel": 7, "note": 50, "velocity": 96, "time": 0, "type": "NormalMsg"}, "M_12540": {"note_status": 1, "channel": 7, "note": 50, "velocity": 0, "time": 0, "type": "NormalMsg"}, "M_12541": {"note_status": 1, "channel": 7, "note": 50, "velocity": 96, "time": 0, "type": "NormalMsg"}, "M_12542": {"note_status": 1, "channel": 7, "note": 50, "velocity": 0, "time": 0, "type": "NormalMsg"}, "M_12543": {"note_status": 1, "channel": 7, "note": 55, "velocity": 96, "time": 0, "type": "NormalMsg"}, "M_12544": {"note_status": 1, "channel": 7, "note": 55, "velocity": 0, "time": 0, "type": "NormalMsg"}, "M_12545": {"note_status": 1, "channel": 7, "note": 55, "velocity": 96, "time": 0, "type": "NormalMsg"}, "M_12546": {"note_status": 1, "channel": 7, "note": 55, "velocity": 0, "time": 0, "type": "NormalMsg"}, "M_12547": {"note_status": 1, "channel": 7, "note": 57, "velocity": 96, "time": 0, "type": "NormalMsg"}, "M_12548": {"note_status": 1, "channel": 7, "note": 57, "velocity": 0, "time": 0, "type": "NormalMsg"}, "M_12549": {"note_status": 1, "channel": 7, "note": 57, "velocity": 96, "time": 0, "type": "NormalMsg"}, "M_12550": {"note_status": 1, "channel": 7, "note": 57, "velocity": 0, "time": 0, "type": "NormalMsg"}, "M_12551": {"note_status": 1, "channel": 7, "note": 53, "velocity": 96, "time": 0, "type": "NormalMsg"}, "M_12552": {"note_status": 1, "channel": 7, "note": 53, "velocity": 0, "time": 0, "type": "NormalMsg"}, "M_12553": {"note_status": 1, "channel": 7, "note": 53, "velocity": 96, "time": 0, "type": "NormalMsg"}, "M_12554": {"note_status": 1, "channel": 7, "note": 53, "velocity": 0, "time": 0, "type": "NormalMsg"}, "M_12555": {"note_status": 1, "channel": 7, "note": 50, "velocity": 96, "time": 0, "type": "NormalMsg"}, "M_12556": {"note_status": 1, "channel": 7, "note": 50, "velocity": 0, "time": 0, "type": "NormalMsg"}, "M_12557": {"note_status": 1, "channel": 7, "note": 50, "velocity": 96, "time": 0, "type": "NormalMsg"}, "M_12558": {"note_status": 1, "channel": 7, "note": 50, "velocity": 0, "time": 0, "type": "NormalMsg"}, "M_12559": {"note_status": 1, "channel": 7, "note": 55, "velocity": 96, "time": 0, "type": "NormalMsg"}, "M_12560": {"note_status": 1, "channel": 7, "note": 55, "velocity": 0, "time": 0, "type": "NormalMsg"}, "M_12561": {"note_status": 1, "channel": 7, "note": 55, "velocity": 96, "time": 0, "type": "NormalMsg"}, "M_12562": {"note_status": 1, "channel": 7, "note": 55, "velocity": 0, "time": 0, "type": "NormalMsg"}, "M_12563": {"note_status": 1, "channel": 7, "note": 57, "velocity": 96, "time": 0, "type": "NormalMsg"}, "M_12564": {"note_status": 1, "channel": 7, "note": 57, "velocity": 0, "time": 0, "type": "NormalMsg"}, "M_12565": {"note_status": 1, "channel": 7, "note": 57, "velocity": 96, "time": 0, "type": "NormalMsg"}, "M_12566": {"note_status": 1, "channel": 7, "note": 57, "velocity": 0, "time": 0, "type": "NormalMsg"}, "M_12567": {"note_status": 1, "channel": 7, "note": 53, "velocity": 96, "time": 0, "type": "NormalMsg"}, "M_12568": {"note_status": 1, "channel": 7, "note": 53, "velocity": 0, "time": 0, "type": "NormalMsg"}, "M_12569": {"note_status": 1, "channel": 7, "note": 53, "velocity": 96, "time": 0, "type": "NormalMsg"}, "M_12570": {"note_status": 1, "channel": 7, "note": 53, "velocity": 0, "time": 0, "type": "NormalMsg"}, "M_12571": {"note_status": 1, "channel": 7, "note": 50, "velocity": 96, "time": 0, "type": "NormalMsg"}, "M_12572": {"note_status": 1, "channel": 7, "note": 50, "velocity": 0, "time": 0, "type": "NormalMsg"}, "M_12573": {"note_status": 1, "channel": 7, "note": 50, "velocity": 96, "time": 0, "type": "NormalMsg"}, "M_12574": {"note_status": 1, "channel": 7, "note": 50, "velocity": 0, "time": 0, "type": "NormalMsg"}, "M_12575": {"note_status": 1, "channel": 7, "note": 55, "velocity": 96, "time": 0, "type": "NormalMsg"}, "M_12576": {"note_status": 1, "channel": 7, "note": 55, "velocity": 0, "time": 0, "type": "NormalMsg"}, "M_12577": {"note_status": 1, "channel": 7, "note": 55, "velocity": 96, "time": 0, "type": "NormalMsg"}, "M_12578": {"note_status": 1, "channel": 7, "note": 55, "velocity": 0, "time": 0, "type": "NormalMsg"}, "M_12579": {"note_status": 1, "channel": 7, "note": 57, "velocity": 96, "time": 0, "type": "NormalMsg"}, "M_12580": {"note_status": 1, "channel": 7, "note": 57, "velocity": 0, "time": 0, "type": "NormalMsg"}, "M_12581": {"note_status": 1, "channel": 7, "note": 57, "velocity": 96, "time": 0, "type": "NormalMsg"}, "M_12582": {"note_status": 1, "channel": 7, "note": 57, "velocity": 0, "time": 0, "type": "NormalMsg"}, "M_12583": {"note_status": 1, "channel": 7, "note": 53, "velocity": 96, "time": 0, "type": "NormalMsg"}, "M_12584": {"note_status": 1, "channel": 7, "note": 53, "velocity": 0, "time": 0, "type": "NormalMsg"}, "M_12585": {"note_status": 1, "channel": 7, "note": 53, "velocity": 96, "time": 0, "type": "NormalMsg"}, "M_12586": {"note_status": 1, "channel": 7, "note": 53, "velocity": 0, "time": 0, "type": "NormalMsg"}, "M_12587": {"note_status": 1, "channel": 7, "note": 50, "velocity": 96, "time": 0, "type": "NormalMsg"}, "M_12588": {"note_status": 1, "channel": 7, "note": 50, "velocity": 0, "time": 0, "type": "NormalMsg"}, "M_12589": {"note_status": 1, "channel": 7, "note": 50, "velocity": 96, "time": 0, "type": "NormalMsg"}, "M_12590": {"note_status": 1, "channel": 7, "note": 50, "velocity": 0, "time": 0, "type": "NormalMsg"}, "M_12591": {"note_status": 1, "channel": 7, "note": 55, "velocity": 96, "time": 0, "type": "NormalMsg"}, "M_12592": {"note_status": 1, "channel": 7, "note": 55, "velocity": 0, "time": 0, "type": "NormalMsg"}, "M_12593": {"note_status": 1, "channel": 7, "note": 55, "velocity": 96, "time": 0, "type": "NormalMsg"}, "M_12594": {"note_status": 1, "channel": 7, "note": 55, "velocity": 0, "time": 0, "type": "NormalMsg"}, "M_12595": {"note_status": 1, "channel": 7, "note": 48, "velocity": 75, "time": 0, "type": "NormalMsg"}, "M_12596": {"note_status": 1, "channel": 7, "note": 53, "velocity": 75, "time": 0, "type": "NormalMsg"}, "M_12597": {"note_status": 1, "channel": 7, "note": 50, "velocity": 71, "time": 0, "type": "NormalMsg"}, "M_12598": {"note_status": 1, "channel": 7, "note": 48, "velocity": 0, "time": 0, "type": "NormalMsg"}, "M_12599": {"note_status": 1, "channel": 7, "note": 53, "velocity": 0, "time": 0, "type": "NormalMsg"}, "M_12600": {"note_status": 1, "channel": 7, "note": 55, "velocity": 68, "time": 0, "type": "NormalMsg"}, "M_12601": {"note_status": 1, "channel": 7, "note": 48, "velocity": 67, "time": 0, "type": "NormalMsg"}, "M_12602": {"note_status": 1, "channel": 7, "note": 53, "velocity": 71, "time": 0, "type": "NormalMsg"}, "M_12603": {"note_status": 1, "channel": 7, "note": 50, "velocity": 0, "time": 0, "type": "NormalMsg"}, "M_12604": {"note_status": 1, "channel": 7, "note": 55, "velocity": 0, "time": 0, "type": "NormalMsg"}, "M_12605": {"note_status": 1, "channel": 7, "note": 50, "velocity": 62, "time": 0, "type": "NormalMsg"}, "M_12606": {"note_status": 1, "channel": 7, "note": 53, "velocity": 0, "time": 0, "type": "NormalMsg"}, "M_12607": {"note_status": 1, "channel": 7, "note": 55, "velocity": 71, "time": 0, "type": "NormalMsg"}, "M_12608": {"note_status": 1, "channel": 7, "note": 48, "velocity": 0, "time": 0, "type": "NormalMsg"}, "M_12609": {"note_status": 1, "channel": 7, "note": 48, "velocity": 68, "time": 0, "type": "NormalMsg"}, "M_12610": {"note_status": 1, "channel": 7, "note": 50, "velocity": 0, "time": 0, "type": "NormalMsg"}, "M_12611": {"note_status": 1, "channel": 7, "note": 53, "velocity": 75, "time": 0, "type": "NormalMsg"}, "M_12612": {"note_status": 1, "channel": 7, "note": 55, "velocity": 0, "time": 0, "type": "NormalMsg"}, "M_12613": {"note_status": 1, "channel": 7, "note": 48, "velocity": 0, "time": 0, "type": "NormalMsg"}, "M_12614": {"note_status": 1, "channel": 7, "note": 50, "velocity": 70, "time": 0, "type": "NormalMsg"}, "M_12615": {"note_status": 1, "channel": 7, "note": 53, "velocity": 0, "time": 0, "type": "NormalMsg"}, "M_12616": {"note_status": 1, "channel": 7, "note": 55, "velocity": 71, "time": 0, "type": "NormalMsg"}, "M_12617": {"note_status": 1, "channel": 7, "note": 50, "velocity": 0, "time": 0, "type": "NormalMsg"}, "M_12618": {"note_status": 1, "channel": 7, "note": 55, "velocity": 0, "time": 0, "type": "NormalMsg"}, "M_12619": {"note_status": 1, "channel": 7, "note": 57, "velocity": 127, "time": 0, "type": "NormalMsg"}, "M_12620": {"note_status": 1, "channel": 7, "note": 57, "velocity": 0, "time": 0, "type": "NormalMsg"}, "R_12621": {"note_status": 0, "channel": 0, "note": 0, "velocity": 0, "time": 0, "type": "ResetMsg"}, "R_12622": {"note_status": 0, "channel": 0, "note": 0, "velocity": 0, "time": 0, "type": "ResetMsg"}, "U_12623": {"note_status": 0, "channel": 0, "note": 0, "velocity": 0, "time": 0, "type": "DummyType"}, "M_12624": {"note_status": 1, "channel": 8, "note": 57, "velocity": 79, "time": 0, "type": "NormalMsg"}, "M_12625": {"note_status": 1, "channel": 8, "note": 60, "velocity": 78, "time": 0, "type": "NormalMsg"}, "M_12626": {"note_status": 1, "channel": 8, "note": 64, "velocity": 80, "time": 0, "type": "NormalMsg"}, "M_12627": {"note_status": 1, "channel": 8, "note": 57, "velocity": 0, "time": 0, "type": "NormalMsg"}, "M_12628": {"note_status": 1, "channel": 8, "note": 60, "velocity": 0, "time": 0, "type": "NormalMsg"}, "M_12629": {"note_status": 1, "channel": 8, "note": 53, "velocity": 80, "time": 0, "type": "NormalMsg"}, "M_12630": {"note_status": 1, "channel": 8, "note": 57, "velocity": 78, "time": 0, "type": "NormalMsg"}, "M_12631": {"note_status": 1, "channel": 8, "note": 60, "velocity": 77, "time": 0, "type": "NormalMsg"}, "M_12632": {"note_status": 1, "channel": 8, "note": 64, "velocity": 0, "time": 0, "type": "NormalMsg"}, "M_12633": {"note_status": 1, "channel": 8, "note": 53, "velocity": 0, "time": 0, "type": "NormalMsg"}, "M_12634": {"note_status": 1, "channel": 8, "note": 57, "velocity": 0, "time": 0, "type": "NormalMsg"}, "M_12635": {"note_status": 1, "channel": 8, "note": 53, "velocity": 84, "time": 0, "type": "NormalMsg"}, "M_12636": {"note_status": 1, "channel": 8, "note": 57, "velocity": 77, "time": 0, "type": "NormalMsg"}, "M_12637": {"note_status": 1, "channel": 8, "note": 62, "velocity": 82, "time": 0, "type": "NormalMsg"}, "M_12638": {"note_status": 1, "channel": 8, "note": 60, "velocity": 0, "time": 0, "type": "NormalMsg"}, "M_12639": {"note_status": 1, "channel": 8, "note": 62, "velocity": 0, "time": 0, "type": "NormalMsg"}, "M_12640": {"note_status": 1, "channel": 8, "note": 55, "velocity": 80, "time": 0, "type": "NormalMsg"}, "M_12641": {"note_status": 1, "channel": 8, "note": 59, "velocity": 82, "time": 0, "type": "NormalMsg"}, "M_12642": {"note_status": 1, "channel": 8, "note": 62, "velocity": 73, "time": 0, "type": "NormalMsg"}, "M_12643": {"note_status": 1, "channel": 8, "note": 53, "velocity": 0, "time": 0, "type": "NormalMsg"}, "M_12644": {"note_status": 1, "channel": 8, "note": 57, "velocity": 0, "time": 0, "type": "NormalMsg"}, "M_12645": {"note_status": 1, "channel": 8, "note": 59, "velocity": 0, "time": 0, "type": "NormalMsg"}, "M_12646": {"note_status": 1, "channel": 8, "note": 57, "velocity": 76, "time": 0, "type": "NormalMsg"}, "M_12647": {"note_status": 1, "channel": 8, "note": 60, "velocity": 82, "time": 0, "type": "NormalMsg"}, "M_12648": {"note_status": 1, "channel": 8, "note": 62, "velocity": 0, "time": 0, "type": "NormalMsg"}, "M_12649": {"note_status": 1, "channel": 8, "note": 64, "velocity": 80, "time": 0, "type": "NormalMsg"}, "M_12650": {"note_status": 1, "channel": 8, "note": 55, "velocity": 0, "time": 0, "type": "NormalMsg"}, "M_12651": {"note_status": 1, "channel": 8, "note": 57, "velocity": 0, "time": 0, "type": "NormalMsg"}, "M_12652": {"note_status": 1, "channel": 8, "note": 60, "velocity": 0, "time": 0, "type": "NormalMsg"}, "M_12653": {"note_status": 1, "channel": 8, "note": 53, "velocity": 76, "time": 0, "type": "NormalMsg"}, "M_12654": {"note_status": 1, "channel": 8, "note": 57, "velocity": 80, "time": 0, "type": "NormalMsg"}, "M_12655": {"note_status": 1, "channel": 8, "note": 60, "velocity": 79, "time": 0, "type": "NormalMsg"}, "M_12656": {"note_status": 1, "channel": 8, "note": 64, "velocity": 0, "time": 0, "type": "NormalMsg"}, "M_12657": {"note_status": 1, "channel": 8, "note": 57, "velocity": 0, "time": 0, "type": "NormalMsg"}, "M_12658": {"note_status": 1, "channel": 8, "note": 57, "velocity": 75, "time": 0, "type": "NormalMsg"}, "M_12659": {"note_status": 1, "channel": 8, "note": 60, "velocity": 0, "time": 0, "type": "NormalMsg"}, "M_12660": {"note_status": 1, "channel": 8, "note": 62, "velocity": 82, "time": 0, "type": "NormalMsg"}, "M_12661": {"note_status": 1, "channel": 8, "note": 57, "velocity": 0, "time": 0, "type": "NormalMsg"}, "M_12662": {"note_status": 1, "channel": 8, "note": 62, "velocity": 0, "time": 0, "type": "NormalMsg"}, "M_12663": {"note_status": 1, "channel": 8, "note": 55, "velocity": 82, "time": 0, "type": "NormalMsg"}, "M_12664": {"note_status": 1, "channel": 8, "note": 59, "velocity": 82, "time": 0, "type": "NormalMsg"}, "M_12665": {"note_status": 1, "channel": 8, "note": 62, "velocity": 77, "time": 0, "type": "NormalMsg"}, "M_12666": {"note_status": 1, "channel": 8, "note": 53, "velocity": 0, "time": 0, "type": "NormalMsg"}, "M_12667": {"note_status": 1, "channel": 8, "note": 57, "velocity": 79, "time": 0, "type": "NormalMsg"}, "M_12668": {"note_status": 1, "channel": 8, "note": 60, "velocity": 78, "time": 0, "type": "NormalMsg"}, "M_12669": {"note_status": 1, "channel": 8, "note": 64, "velocity": 80, "time": 0, "type": "NormalMsg"}, "M_12670": {"note_status": 1, "channel": 8, "note": 59, "velocity": 0, "time": 0, "type": "NormalMsg"}, "M_12671": {"note_status": 1, "channel": 8, "note": 62, "velocity": 0, "time": 0, "type": "NormalMsg"}, "M_12672": {"note_status": 1, "channel": 8, "note": 55, "velocity": 0, "time": 0, "type": "NormalMsg"}, "M_12673": {"note_status": 1, "channel": 8, "note": 57, "velocity": 0, "time": 0, "type": "NormalMsg"}, "M_12674": {"note_status": 1, "channel": 8, "note": 60, "velocity": 0, "time": 0, "type": "NormalMsg"}, "M_12675": {"note_status": 1, "channel": 8, "note": 53, "velocity": 80, "time": 0, "type": "NormalMsg"}, "M_12676": {"note_status": 1, "channel": 8, "note": 57, "velocity": 78, "time": 0, "type": "NormalMsg"}, "M_12677": {"note_status": 1, "channel": 8, "note": 60, "velocity": 77, "time": 0, "type": "NormalMsg"}, "M_12678": {"note_status": 1, "channel": 8, "note": 64, "velocity": 0, "time": 0, "type": "NormalMsg"}, "M_12679": {"note_status": 1, "channel": 8, "note": 53, "velocity": 0, "time": 0, "type": "NormalMsg"}, "M_12680": {"note_status": 1, "channel": 8, "note": 57, "velocity": 0, "time": 0, "type": "NormalMsg"}, "M_12681": {"note_status": 1, "channel": 8, "note": 53, "velocity": 84, "time": 0, "type": "NormalMsg"}, "M_12682": {"note_status": 1, "channel": 8, "note": 57, "velocity": 77, "time": 0, "type": "NormalMsg"}, "M_12683": {"note_status": 1, "channel": 8, "note": 62, "velocity": 82, "time": 0, "type": "NormalMsg"}, "M_12684": {"note_status": 1, "channel": 8, "note": 60, "velocity": 0, "time": 0, "type": "NormalMsg"}, "M_12685": {"note_status": 1, "channel": 8, "note": 62, "velocity": 0, "time": 0, "type": "NormalMsg"}, "M_12686": {"note_status": 1, "channel": 8, "note": 55, "velocity": 80, "time": 0, "type": "NormalMsg"}, "M_12687": {"note_status": 1, "channel": 8, "note": 59, "velocity": 82, "time": 0, "type": "NormalMsg"}, "M_12688": {"note_status": 1, "channel": 8, "note": 62, "velocity": 73, "time": 0, "type": "NormalMsg"}, "M_12689": {"note_status": 1, "channel": 8, "note": 53, "velocity": 0, "time": 0, "type": "NormalMsg"}, "M_12690": {"note_status": 1, "channel": 8, "note": 57, "velocity": 0, "time": 0, "type": "NormalMsg"}, "M_12691": {"note_status": 1, "channel": 8, "note": 59, "velocity": 0, "time": 0, "type": "NormalMsg"}, "M_12692": {"note_status": 1, "channel": 8, "note": 57, "velocity": 76, "time": 0, "type": "NormalMsg"}, "M_12693": {"note_status": 1, "channel": 8, "note": 60, "velocity": 82, "time": 0, "type": "NormalMsg"}, "M_12694": {"note_status": 1, "channel": 8, "note": 62, "velocity": 0, "time": 0, "type": "NormalMsg"}, "M_12695": {"note_status": 1, "channel": 8, "note": 64, "velocity": 80, "time": 0, "type": "NormalMsg"}, "M_12696": {"note_status": 1, "channel": 8, "note": 55, "velocity": 0, "time": 0, "type": "NormalMsg"}, "M_12697": {"note_status": 1, "channel": 8, "note": 57, "velocity": 0, "time": 0, "type": "NormalMsg"}, "M_12698": {"note_status": 1, "channel": 8, "note": 60, "velocity": 0, "time": 0, "type": "NormalMsg"}, "M_12699": {"note_status": 1, "channel": 8, "note": 53, "velocity": 76, "time": 0, "type": "NormalMsg"}, "M_12700": {"note_status": 1, "channel": 8, "note": 57, "velocity": 80, "time": 0, "type": "NormalMsg"}, "M_12701": {"note_status": 1, "channel": 8, "note": 60, "velocity": 79, "time": 0, "type": "NormalMsg"}, "M_12702": {"note_status": 1, "channel": 8, "note": 64, "velocity": 0, "time": 0, "type": "NormalMsg"}, "M_12703": {"note_status": 1, "channel": 8, "note": 57, "velocity": 0, "time": 0, "type": "NormalMsg"}, "M_12704": {"note_status": 1, "channel": 8, "note": 57, "velocity": 75, "time": 0, "type": "NormalMsg"}, "M_12705": {"note_status": 1, "channel": 8, "note": 60, "velocity": 0, "time": 0, "type": "NormalMsg"}, "M_12706": {"note_status": 1, "channel": 8, "note": 62, "velocity": 82, "time": 0, "type": "NormalMsg"}, "M_12707": {"note_status": 1, "channel": 8, "note": 57, "velocity": 0, "time": 0, "type": "NormalMsg"}, "M_12708": {"note_status": 1, "channel": 8, "note": 62, "velocity": 0, "time": 0, "type": "NormalMsg"}, "M_12709": {"note_status": 1, "channel": 8, "note": 55, "velocity": 82, "time": 0, "type": "NormalMsg"}, "M_12710": {"note_status": 1, "channel": 8, "note": 59, "velocity": 82, "time": 0, "type": "NormalMsg"}, "M_12711": {"note_status": 1, "channel": 8, "note": 62, "velocity": 77, "time": 0, "type": "NormalMsg"}, "M_12712": {"note_status": 1, "channel": 8, "note": 53, "velocity": 0, "time": 0, "type": "NormalMsg"}, "M_12713": {"note_status": 1, "channel": 8, "note": 59, "velocity": 0, "time": 0, "type": "NormalMsg"}, "M_12714": {"note_status": 1, "channel": 8, "note": 62, "velocity": 0, "time": 0, "type": "NormalMsg"}, "M_12715": {"note_status": 1, "channel": 8, "note": 55, "velocity": 0, "time": 0, "type": "NormalMsg"}, "M_12716": {"note_status": 1, "channel": 8, "note": 57, "velocity": 94, "time": 0, "type": "NormalMsg"}, "M_12717": {"note_status": 1, "channel": 8, "note": 60, "velocity": 91, "time": 0, "type": "NormalMsg"}, "M_12718": {"note_status": 1, "channel": 8, "note": 59, "velocity": 91, "time": 0, "type": "NormalMsg"}, "M_12719": {"note_status": 1, "channel": 8, "note": 62, "velocity": 88, "time": 0, "type": "NormalMsg"}, "M_12720": {"note_status": 1, "channel": 8, "note": 60, "velocity": 0, "time": 0, "type": "NormalMsg"}, "M_12721": {"note_status": 1, "channel": 8, "note": 57, "velocity": 0, "time": 0, "type": "NormalMsg"}, "M_12722": {"note_status": 1, "channel": 8, "note": 60, "velocity": 81, "time": 0, "type": "NormalMsg"}, "M_12723": {"note_status": 1, "channel": 8, "note": 57, "velocity": 91, "time": 0, "type": "NormalMsg"}, "M_12724": {"note_status": 1, "channel": 8, "note": 62, "velocity": 0, "time": 0, "type": "NormalMsg"}, "M_12725": {"note_status": 1, "channel": 8, "note": 59, "velocity": 0, "time": 0, "type": "NormalMsg"}, "M_12726": {"note_status": 1, "channel": 8, "note": 57, "velocity": 0, "time": 0, "type": "NormalMsg"}, "M_12727": {"note_status": 1, "channel": 8, "note": 64, "velocity": 101, "time": 0, "type": "NormalMsg"}, "M_12728": {"note_status": 1, "channel": 8, "note": 64, "velocity": 0, "time": 0, "type": "NormalMsg"}, "M_12729": {"note_status": 1, "channel": 8, "note": 60, "velocity": 0, "time": 0, "type": "NormalMsg"}, "M_12730": {"note_status": 1, "channel": 8, "note": 60, "velocity": 94, "time": 0, "type": "NormalMsg"}, "M_12731": {"note_status": 1, "channel": 8, "note": 62, "velocity": 108, "time": 0, "type": "NormalMsg"}, "M_12732": {"note_status": 1, "channel": 8, "note": 60, "velocity": 0, "time": 0, "type": "NormalMsg"}, "M_12733": {"note_status": 1, "channel": 8, "note": 62, "velocity": 0, "time": 0, "type": "NormalMsg"}, "M_12734": {"note_status": 1, "channel": 8, "note": 59, "velocity": 97, "time": 0, "type": "NormalMsg"}, "M_12735": {"note_status": 1, "channel": 8, "note": 62, "velocity": 94, "time": 0, "type": "NormalMsg"}, "M_12736": {"note_status": 1, "channel": 8, "note": 62, "velocity": 0, "time": 0, "type": "NormalMsg"}, "M_12737": {"note_status": 1, "channel": 8, "note": 59, "velocity": 0, "time": 0, "type": "NormalMsg"}, "M_12738": {"note_status": 1, "channel": 8, "note": 57, "velocity": 79, "time": 0, "type": "NormalMsg"}, "M_12739": {"note_status": 1, "channel": 8, "note": 60, "velocity": 78, "time": 0, "type": "NormalMsg"}, "M_12740": {"note_status": 1, "channel": 8, "note": 64, "velocity": 80, "time": 0, "type": "NormalMsg"}, "M_12741": {"note_status": 1, "channel": 8, "note": 57, "velocity": 0, "time": 0, "type": "NormalMsg"}, "M_12742": {"note_status": 1, "channel": 8, "note": 60, "velocity": 0, "time": 0, "type": "NormalMsg"}, "M_12743": {"note_status": 1, "channel": 8, "note": 53, "velocity": 80, "time": 0, "type": "NormalMsg"}, "M_12744": {"note_status": 1, "channel": 8, "note": 57, "velocity": 78, "time": 0, "type": "NormalMsg"}, "M_12745": {"note_status": 1, "channel": 8, "note": 60, "velocity": 77, "time": 0, "type": "NormalMsg"}, "M_12746": {"note_status": 1, "channel": 8, "note": 64, "velocity": 0, "time": 0, "type": "NormalMsg"}, "M_12747": {"note_status": 1, "channel": 8, "note": 53, "velocity": 0, "time": 0, "type": "NormalMsg"}, "M_12748": {"note_status": 1, "channel": 8, "note": 57, "velocity": 0, "time": 0, "type": "NormalMsg"}, "M_12749": {"note_status": 1, "channel": 8, "note": 53, "velocity": 84, "time": 0, "type": "NormalMsg"}, "M_12750": {"note_status": 1, "channel": 8, "note": 57, "velocity": 77, "time": 0, "type": "NormalMsg"}, "M_12751": {"note_status": 1, "channel": 8, "note": 62, "velocity": 82, "time": 0, "type": "NormalMsg"}, "M_12752": {"note_status": 1, "channel": 8, "note": 60, "velocity": 0, "time": 0, "type": "NormalMsg"}, "M_12753": {"note_status": 1, "channel": 8, "note": 62, "velocity": 0, "time": 0, "type": "NormalMsg"}, "M_12754": {"note_status": 1, "channel": 8, "note": 55, "velocity": 80, "time": 0, "type": "NormalMsg"}, "M_12755": {"note_status": 1, "channel": 8, "note": 59, "velocity": 82, "time": 0, "type": "NormalMsg"}, "M_12756": {"note_status": 1, "channel": 8, "note": 62, "velocity": 73, "time": 0, "type": "NormalMsg"}, "M_12757": {"note_status": 1, "channel": 8, "note": 53, "velocity": 0, "time": 0, "type": "NormalMsg"}, "M_12758": {"note_status": 1, "channel": 8, "note": 57, "velocity": 0, "time": 0, "type": "NormalMsg"}, "M_12759": {"note_status": 1, "channel": 8, "note": 59, "velocity": 0, "time": 0, "type": "NormalMsg"}, "M_12760": {"note_status": 1, "channel": 8, "note": 57, "velocity": 76, "time": 0, "type": "NormalMsg"}, "M_12761": {"note_status": 1, "channel": 8, "note": 60, "velocity": 82, "time": 0, "type": "NormalMsg"}, "M_12762": {"note_status": 1, "channel": 8, "note": 62, "velocity": 0, "time": 0, "type": "NormalMsg"}, "M_12763": {"note_status": 1, "channel": 8, "note": 64, "velocity": 80, "time": 0, "type": "NormalMsg"}, "M_12764": {"note_status": 1, "channel": 8, "note": 55, "velocity": 0, "time": 0, "type": "NormalMsg"}, "M_12765": {"note_status": 1, "channel": 8, "note": 57, "velocity": 0, "time": 0, "type": "NormalMsg"}, "M_12766": {"note_status": 1, "channel": 8, "note": 60, "velocity": 0, "time": 0, "type": "NormalMsg"}, "M_12767": {"note_status": 1, "channel": 8, "note": 53, "velocity": 76, "time": 0, "type": "NormalMsg"}, "M_12768": {"note_status": 1, "channel": 8, "note": 57, "velocity": 80, "time": 0, "type": "NormalMsg"}, "M_12769": {"note_status": 1, "channel": 8, "note": 60, "velocity": 79, "time": 0, "type": "NormalMsg"}, "M_12770": {"note_status": 1, "channel": 8, "note": 64, "velocity": 0, "time": 0, "type": "NormalMsg"}, "M_12771": {"note_status": 1, "channel": 8, "note": 53, "velocity": 0, "time": 0, "type": "NormalMsg"}, "M_12772": {"note_status": 1, "channel": 8, "note": 55, "velocity": 82, "time": 0, "type": "NormalMsg"}, "M_12773": {"note_status": 1, "channel": 8, "note": 59, "velocity": 82, "time": 0, "type": "NormalMsg"}, "M_12774": {"note_status": 1, "channel": 8, "note": 62, "velocity": 77, "time": 0, "type": "NormalMsg"}, "M_12775": {"note_status": 1, "channel": 8, "note": 57, "velocity": 0, "time": 0, "type": "NormalMsg"}, "M_12776": {"note_status": 1, "channel": 8, "note": 60, "velocity": 0, "time": 0, "type": "NormalMsg"}, "M_12777": {"note_status": 1, "channel": 8, "note": 57, "velocity": 79, "time": 0, "type": "NormalMsg"}, "M_12778": {"note_status": 1, "channel": 8, "note": 59, "velocity": 0, "time": 0, "type": "NormalMsg"}, "M_12779": {"note_status": 1, "channel": 8, "note": 60, "velocity": 78, "time": 0, "type": "NormalMsg"}, "M_12780": {"note_status": 1, "channel": 8, "note": 64, "velocity": 80, "time": 0, "type": "NormalMsg"}, "M_12781": {"note_status": 1, "channel": 8, "note": 55, "velocity": 0, "time": 0, "type": "NormalMsg"}, "M_12782": {"note_status": 1, "channel": 8, "note": 62, "velocity": 0, "time": 0, "type": "NormalMsg"}, "M_12783": {"note_status": 1, "channel": 8, "note": 57, "velocity": 0, "time": 0, "type": "NormalMsg"}, "M_12784": {"note_status": 1, "channel": 8, "note": 60, "velocity": 0, "time": 0, "type": "NormalMsg"}, "M_12785": {"note_status": 1, "channel": 8, "note": 53, "velocity": 80, "time": 0, "type": "NormalMsg"}, "M_12786": {"note_status": 1, "channel": 8, "note": 57, "velocity": 78, "time": 0, "type": "NormalMsg"}, "M_12787": {"note_status": 1, "channel": 8, "note": 60, "velocity": 77, "time": 0, "type": "NormalMsg"}, "M_12788": {"note_status": 1, "channel": 8, "note": 64, "velocity": 0, "time": 0, "type": "NormalMsg"}, "M_12789": {"note_status": 1, "channel": 8, "note": 53, "velocity": 0, "time": 0, "type": "NormalMsg"}, "M_12790": {"note_status": 1, "channel": 8, "note": 57, "velocity": 0, "time": 0, "type": "NormalMsg"}, "M_12791": {"note_status": 1, "channel": 8, "note": 53, "velocity": 84, "time": 0, "type": "NormalMsg"}, "M_12792": {"note_status": 1, "channel": 8, "note": 57, "velocity": 77, "time": 0, "type": "NormalMsg"}, "M_12793": {"note_status": 1, "channel": 8, "note": 62, "velocity": 82, "time": 0, "type": "NormalMsg"}, "M_12794": {"note_status": 1, "channel": 8, "note": 60, "velocity": 0, "time": 0, "type": "NormalMsg"}, "M_12795": {"note_status": 1, "channel": 8, "note": 62, "velocity": 0, "time": 0, "type": "NormalMsg"}, "M_12796": {"note_status": 1, "channel": 8, "note": 55, "velocity": 80, "time": 0, "type": "NormalMsg"}, "M_12797": {"note_status": 1, "channel": 8, "note": 59, "velocity": 82, "time": 0, "type": "NormalMsg"}, "M_12798": {"note_status": 1, "channel": 8, "note": 62, "velocity": 73, "time": 0, "type": "NormalMsg"}, "M_12799": {"note_status": 1, "channel": 8, "note": 53, "velocity": 0, "time": 0, "type": "NormalMsg"}, "M_12800": {"note_status": 1, "channel": 8, "note": 57, "velocity": 0, "time": 0, "type": "NormalMsg"}, "M_12801": {"note_status": 1, "channel": 8, "note": 59, "velocity": 0, "time": 0, "type": "NormalMsg"}, "M_12802": {"note_status": 1, "channel": 8, "note": 57, "velocity": 76, "time": 0, "type": "NormalMsg"}, "M_12803": {"note_status": 1, "channel": 8, "note": 60, "velocity": 82, "time": 0, "type": "NormalMsg"}, "M_12804": {"note_status": 1, "channel": 8, "note": 62, "velocity": 0, "time": 0, "type": "NormalMsg"}, "M_12805": {"note_status": 1, "channel": 8, "note": 64, "velocity": 80, "time": 0, "type": "NormalMsg"}, "M_12806": {"note_status": 1, "channel": 8, "note": 55, "velocity": 0, "time": 0, "type": "NormalMsg"}, "M_12807": {"note_status": 1, "channel": 8, "note": 57, "velocity": 0, "time": 0, "type": "NormalMsg"}, "M_12808": {"note_status": 1, "channel": 8, "note": 60, "velocity": 0, "time": 0, "type": "NormalMsg"}, "M_12809": {"note_status": 1, "channel": 8, "note": 53, "velocity": 76, "time": 0, "type": "NormalMsg"}, "M_12810": {"note_status": 1, "channel": 8, "note": 57, "velocity": 80, "time": 0, "type": "NormalMsg"}, "M_12811": {"note_status": 1, "channel": 8, "note": 60, "velocity": 79, "time": 0, "type": "NormalMsg"}, "M_12812": {"note_status": 1, "channel": 8, "note": 64, "velocity": 0, "time": 0, "type": "NormalMsg"}, "M_12813": {"note_status": 1, "channel": 8, "note": 57, "velocity": 0, "time": 0, "type": "NormalMsg"}, "M_12814": {"note_status": 1, "channel": 8, "note": 57, "velocity": 75, "time": 0, "type": "NormalMsg"}, "M_12815": {"note_status": 1, "channel": 8, "note": 60, "velocity": 0, "time": 0, "type": "NormalMsg"}, "M_12816": {"note_status": 1, "channel": 8, "note": 62, "velocity": 82, "time": 0, "type": "NormalMsg"}, "M_12817": {"note_status": 1, "channel": 8, "note": 57, "velocity": 0, "time": 0, "type": "NormalMsg"}, "M_12818": {"note_status": 1, "channel": 8, "note": 62, "velocity": 0, "time": 0, "type": "NormalMsg"}, "M_12819": {"note_status": 1, "channel": 8, "note": 55, "velocity": 82, "time": 0, "type": "NormalMsg"}, "M_12820": {"note_status": 1, "channel": 8, "note": 59, "velocity": 82, "time": 0, "type": "NormalMsg"}, "M_12821": {"note_status": 1, "channel": 8, "note": 62, "velocity": 77, "time": 0, "type": "NormalMsg"}, "M_12822": {"note_status": 1, "channel": 8, "note": 53, "velocity": 0, "time": 0, "type": "NormalMsg"}, "M_12823": {"note_status": 1, "channel": 8, "note": 57, "velocity": 79, "time": 0, "type": "NormalMsg"}, "M_12824": {"note_status": 1, "channel": 8, "note": 59, "velocity": 0, "time": 0, "type": "NormalMsg"}, "M_12825": {"note_status": 1, "channel": 8, "note": 60, "velocity": 78, "time": 0, "type": "NormalMsg"}, "M_12826": {"note_status": 1, "channel": 8, "note": 62, "velocity": 0, "time": 0, "type": "NormalMsg"}, "M_12827": {"note_status": 1, "channel": 8, "note": 64, "velocity": 80, "time": 0, "type": "NormalMsg"}, "M_12828": {"note_status": 1, "channel": 8, "note": 55, "velocity": 0, "time": 0, "type": "NormalMsg"}, "M_12829": {"note_status": 1, "channel": 8, "note": 57, "velocity": 0, "time": 0, "type": "NormalMsg"}, "M_12830": {"note_status": 1, "channel": 8, "note": 60, "velocity": 0, "time": 0, "type": "NormalMsg"}, "M_12831": {"note_status": 1, "channel": 8, "note": 53, "velocity": 80, "time": 0, "type": "NormalMsg"}, "M_12832": {"note_status": 1, "channel": 8, "note": 57, "velocity": 78, "time": 0, "type": "NormalMsg"}, "M_12833": {"note_status": 1, "channel": 8, "note": 60, "velocity": 77, "time": 0, "type": "NormalMsg"}, "M_12834": {"note_status": 1, "channel": 8, "note": 64, "velocity": 0, "time": 0, "type": "NormalMsg"}, "M_12835": {"note_status": 1, "channel": 8, "note": 53, "velocity": 0, "time": 0, "type": "NormalMsg"}, "M_12836": {"note_status": 1, "channel": 8, "note": 57, "velocity": 0, "time": 0, "type": "NormalMsg"}, "M_12837": {"note_status": 1, "channel": 8, "note": 53, "velocity": 84, "time": 0, "type": "NormalMsg"}, "M_12838": {"note_status": 1, "channel": 8, "note": 57, "velocity": 77, "time": 0, "type": "NormalMsg"}, "M_12839": {"note_status": 1, "channel": 8, "note": 62, "velocity": 82, "time": 0, "type": "NormalMsg"}, "M_12840": {"note_status": 1, "channel": 8, "note": 60, "velocity": 0, "time": 0, "type": "NormalMsg"}, "M_12841": {"note_status": 1, "channel": 8, "note": 62, "velocity": 0, "time": 0, "type": "NormalMsg"}, "M_12842": {"note_status": 1, "channel": 8, "note": 55, "velocity": 80, "time": 0, "type": "NormalMsg"}, "M_12843": {"note_status": 1, "channel": 8, "note": 59, "velocity": 82, "time": 0, "type": "NormalMsg"}, "M_12844": {"note_status": 1, "channel": 8, "note": 62, "velocity": 73, "time": 0, "type": "NormalMsg"}, "M_12845": {"note_status": 1, "channel": 8, "note": 53, "velocity": 0, "time": 0, "type": "NormalMsg"}, "M_12846": {"note_status": 1, "channel": 8, "note": 57, "velocity": 0, "time": 0, "type": "NormalMsg"}, "M_12847": {"note_status": 1, "channel": 8, "note": 59, "velocity": 0, "time": 0, "type": "NormalMsg"}, "M_12848": {"note_status": 1, "channel": 8, "note": 57, "velocity": 76, "time": 0, "type": "NormalMsg"}, "M_12849": {"note_status": 1, "channel": 8, "note": 60, "velocity": 82, "time": 0, "type": "NormalMsg"}, "M_12850": {"note_status": 1, "channel": 8, "note": 62, "velocity": 0, "time": 0, "type": "NormalMsg"}, "M_12851": {"note_status": 1, "channel": 8, "note": 64, "velocity": 80, "time": 0, "type": "NormalMsg"}, "M_12852": {"note_status": 1, "channel": 8, "note": 55, "velocity": 0, "time": 0, "type": "NormalMsg"}, "M_12853": {"note_status": 1, "channel": 8, "note": 57, "velocity": 0, "time": 0, "type": "NormalMsg"}, "M_12854": {"note_status": 1, "channel": 8, "note": 60, "velocity": 0, "time": 0, "type": "NormalMsg"}, "M_12855": {"note_status": 1, "channel": 8, "note": 53, "velocity": 76, "time": 0, "type": "NormalMsg"}, "M_12856": {"note_status": 1, "channel": 8, "note": 57, "velocity": 80, "time": 0, "type": "NormalMsg"}, "M_12857": {"note_status": 1, "channel": 8, "note": 60, "velocity": 79, "time": 0, "type": "NormalMsg"}, "M_12858": {"note_status": 1, "channel": 8, "note": 64, "velocity": 0, "time": 0, "type": "NormalMsg"}, "M_12859": {"note_status": 1, "channel": 8, "note": 55, "velocity": 82, "time": 0, "type": "NormalMsg"}, "M_12860": {"note_status": 1, "channel": 8, "note": 59, "velocity": 82, "time": 0, "type": "NormalMsg"}, "M_12861": {"note_status": 1, "channel": 8, "note": 62, "velocity": 77, "time": 0, "type": "NormalMsg"}, "M_12862": {"note_status": 1, "channel": 8, "note": 53, "velocity": 0, "time": 0, "type": "NormalMsg"}, "M_12863": {"note_status": 1, "channel": 8, "note": 57, "velocity": 0, "time": 0, "type": "NormalMsg"}, "M_12864": {"note_status": 1, "channel": 8, "note": 60, "velocity": 0, "time": 0, "type": "NormalMsg"}, "M_12865": {"note_status": 1, "channel": 8, "note": 57, "velocity": 79, "time": 0, "type": "NormalMsg"}, "M_12866": {"note_status": 1, "channel": 8, "note": 59, "velocity": 0, "time": 0, "type": "NormalMsg"}, "M_12867": {"note_status": 1, "channel": 8, "note": 60, "velocity": 78, "time": 0, "type": "NormalMsg"}, "M_12868": {"note_status": 1, "channel": 8, "note": 64, "velocity": 80, "time": 0, "type": "NormalMsg"}, "M_12869": {"note_status": 1, "channel": 8, "note": 55, "velocity": 0, "time": 0, "type": "NormalMsg"}, "M_12870": {"note_status": 1, "channel": 8, "note": 62, "velocity": 0, "time": 0, "type": "NormalMsg"}, "M_12871": {"note_status": 1, "channel": 8, "note": 57, "velocity": 0, "time": 0, "type": "NormalMsg"}, "M_12872": {"note_status": 1, "channel": 8, "note": 60, "velocity": 0, "time": 0, "type": "NormalMsg"}, "M_12873": {"note_status": 1, "channel": 8, "note": 53, "velocity": 80, "time": 0, "type": "NormalMsg"}, "M_12874": {"note_status": 1, "channel": 8, "note": 57, "velocity": 78, "time": 0, "type": "NormalMsg"}, "M_12875": {"note_status": 1, "channel": 8, "note": 60, "velocity": 77, "time": 0, "type": "NormalMsg"}, "M_12876": {"note_status": 1, "channel": 8, "note": 64, "velocity": 0, "time": 0, "type": "NormalMsg"}, "M_12877": {"note_status": 1, "channel": 8, "note": 53, "velocity": 0, "time": 0, "type": "NormalMsg"}, "M_12878": {"note_status": 1, "channel": 8, "note": 57, "velocity": 0, "time": 0, "type": "NormalMsg"}, "M_12879": {"note_status": 1, "channel": 8, "note": 53, "velocity": 84, "time": 0, "type": "NormalMsg"}, "M_12880": {"note_status": 1, "channel": 8, "note": 57, "velocity": 77, "time": 0, "type": "NormalMsg"}, "M_12881": {"note_status": 1, "channel": 8, "note": 62, "velocity": 82, "time": 0, "type": "NormalMsg"}, "M_12882": {"note_status": 1, "channel": 8, "note": 60, "velocity": 0, "time": 0, "type": "NormalMsg"}, "M_12883": {"note_status": 1, "channel": 8, "note": 62, "velocity": 0, "time": 0, "type": "NormalMsg"}, "M_12884": {"note_status": 1, "channel": 8, "note": 55, "velocity": 80, "time": 0, "type": "NormalMsg"}, "M_12885": {"note_status": 1, "channel": 8, "note": 59, "velocity": 82, "time": 0, "type": "NormalMsg"}, "M_12886": {"note_status": 1, "channel": 8, "note": 62, "velocity": 73, "time": 0, "type": "NormalMsg"}, "M_12887": {"note_status": 1, "channel": 8, "note": 57, "velocity": 0, "time": 0, "type": "NormalMsg"}, "M_12888": {"note_status": 1, "channel": 8, "note": 53, "velocity": 0, "time": 0, "type": "NormalMsg"}, "M_12889": {"note_status": 1, "channel": 8, "note": 59, "velocity": 0, "time": 0, "type": "NormalMsg"}, "M_12890": {"note_status": 1, "channel": 8, "note": 53, "velocity": 97, "time": 0, "type": "NormalMsg"}, "M_12891": {"note_status": 1, "channel": 8, "note": 55, "velocity": 0, "time": 0, "type": "NormalMsg"}, "M_12892": {"note_status": 1, "channel": 8, "note": 57, "velocity": 77, "time": 0, "type": "NormalMsg"}, "M_12893": {"note_status": 1, "channel": 8, "note": 60, "velocity": 86, "time": 0, "type": "NormalMsg"}, "M_12894": {"note_status": 1, "channel": 8, "note": 62, "velocity": 0, "time": 0, "type": "NormalMsg"}, "M_12895": {"note_status": 1, "channel": 8, "note": 53, "velocity": 0, "time": 0, "type": "NormalMsg"}, "M_12896": {"note_status": 1, "channel": 8, "note": 55, "velocity": 91, "time": 0, "type": "NormalMsg"}, "M_12897": {"note_status": 1, "channel": 8, "note": 57, "velocity": 0, "time": 0, "type": "NormalMsg"}, "M_12898": {"note_status": 1, "channel": 8, "note": 59, "velocity": 75, "time": 0, "type": "NormalMsg"}, "M_12899": {"note_status": 1, "channel": 8, "note": 62, "velocity": 86, "time": 0, "type": "NormalMsg"}, "M_12900": {"note_status": 1, "channel": 8, "note": 60, "velocity": 0, "time": 0, "type": "NormalMsg"}, "M_12901": {"note_status": 1, "channel": 8, "note": 55, "velocity": 0, "time": 0, "type": "NormalMsg"}, "M_12902": {"note_status": 1, "channel": 8, "note": 53, "velocity": 81, "time": 0, "type": "NormalMsg"}, "M_12903": {"note_status": 1, "channel": 8, "note": 57, "velocity": 73, "time": 0, "type": "NormalMsg"}, "M_12904": {"note_status": 1, "channel": 8, "note": 59, "velocity": 0, "time": 0, "type": "NormalMsg"}, "M_12905": {"note_status": 1, "channel": 8, "note": 60, "velocity": 83, "time": 0, "type": "NormalMsg"}, "M_12906": {"note_status": 1, "channel": 8, "note": 62, "velocity": 0, "time": 0, "type": "NormalMsg"}, "M_12907": {"note_status": 1, "channel": 8, "note": 55, "velocity": 94, "time": 0, "type": "NormalMsg"}, "M_12908": {"note_status": 1, "channel": 8, "note": 57, "velocity": 0, "time": 0, "type": "NormalMsg"}, "M_12909": {"note_status": 1, "channel": 8, "note": 59, "velocity": 81, "time": 0, "type": "NormalMsg"}, "M_12910": {"note_status": 1, "channel": 8, "note": 62, "velocity": 86, "time": 0, "type": "NormalMsg"}, "M_12911": {"note_status": 1, "channel": 8, "note": 53, "velocity": 0, "time": 0, "type": "NormalMsg"}, "M_12912": {"note_status": 1, "channel": 8, "note": 60, "velocity": 0, "time": 0, "type": "NormalMsg"}, "M_12913": {"note_status": 1, "channel": 8, "note": 53, "velocity": 81, "time": 0, "type": "NormalMsg"}, "M_12914": {"note_status": 1, "channel": 8, "note": 55, "velocity": 0, "time": 0, "type": "NormalMsg"}, "M_12915": {"note_status": 1, "channel": 8, "note": 57, "velocity": 71, "time": 0, "type": "NormalMsg"}, "M_12916": {"note_status": 1, "channel": 8, "note": 59, "velocity": 0, "time": 0, "type": "NormalMsg"}, "M_12917": {"note_status": 1, "channel": 8, "note": 60, "velocity": 77, "time": 0, "type": "NormalMsg"}, "M_12918": {"note_status": 1, "channel": 8, "note": 62, "velocity": 0, "time": 0, "type": "NormalMsg"}, "M_12919": {"note_status": 1, "channel": 8, "note": 55, "velocity": 94, "time": 0, "type": "NormalMsg"}, "M_12920": {"note_status": 1, "channel": 8, "note": 57, "velocity": 0, "time": 0, "type": "NormalMsg"}, "M_12921": {"note_status": 1, "channel": 8, "note": 59, "velocity": 79, "time": 0, "type": "NormalMsg"}, "M_12922": {"note_status": 1, "channel": 8, "note": 62, "velocity": 88, "time": 0, "type": "NormalMsg"}, "M_12923": {"note_status": 1, "channel": 8, "note": 53, "velocity": 0, "time": 0, "type": "NormalMsg"}, "M_12924": {"note_status": 1, "channel": 8, "note": 60, "velocity": 0, "time": 0, "type": "NormalMsg"}, "M_12925": {"note_status": 1, "channel": 8, "note": 55, "velocity": 0, "time": 0, "type": "NormalMsg"}, "M_12926": {"note_status": 1, "channel": 8, "note": 62, "velocity": 0, "time": 0, "type": "NormalMsg"}, "M_12927": {"note_status": 1, "channel": 8, "note": 57, "velocity": 79, "time": 0, "type": "NormalMsg"}, "M_12928": {"note_status": 1, "channel": 8, "note": 59, "velocity": 0, "time": 0, "type": "NormalMsg"}, "M_12929": {"note_status": 1, "channel": 8, "note": 60, "velocity": 78, "time": 0, "type": "NormalMsg"}, "M_12930": {"note_status": 1, "channel": 8, "note": 64, "velocity": 80, "time": 0, "type": "NormalMsg"}, "M_12931": {"note_status": 1, "channel": 8, "note": 57, "velocity": 0, "time": 0, "type": "NormalMsg"}, "M_12932": {"note_status": 1, "channel": 8, "note": 60, "velocity": 0, "time": 0, "type": "NormalMsg"}, "M_12933": {"note_status": 1, "channel": 8, "note": 53, "velocity": 80, "time": 0, "type": "NormalMsg"}, "M_12934": {"note_status": 1, "channel": 8, "note": 57, "velocity": 78, "time": 0, "type": "NormalMsg"}, "M_12935": {"note_status": 1, "channel": 8, "note": 60, "velocity": 77, "time": 0, "type": "NormalMsg"}, "M_12936": {"note_status": 1, "channel": 8, "note": 64, "velocity": 0, "time": 0, "type": "NormalMsg"}, "M_12937": {"note_status": 1, "channel": 8, "note": 53, "velocity": 0, "time": 0, "type": "NormalMsg"}, "M_12938": {"note_status": 1, "channel": 8, "note": 57, "velocity": 0, "time": 0, "type": "NormalMsg"}, "M_12939": {"note_status": 1, "channel": 8, "note": 53, "velocity": 84, "time": 0, "type": "NormalMsg"}, "M_12940": {"note_status": 1, "channel": 8, "note": 57, "velocity": 77, "time": 0, "type": "NormalMsg"}, "M_12941": {"note_status": 1, "channel": 8, "note": 62, "velocity": 82, "time": 0, "type": "NormalMsg"}, "M_12942": {"note_status": 1, "channel": 8, "note": 60, "velocity": 0, "time": 0, "type": "NormalMsg"}, "M_12943": {"note_status": 1, "channel": 8, "note": 62, "velocity": 0, "time": 0, "type": "NormalMsg"}, "M_12944": {"note_status": 1, "channel": 8, "note": 55, "velocity": 80, "time": 0, "type": "NormalMsg"}, "M_12945": {"note_status": 1, "channel": 8, "note": 59, "velocity": 82, "time": 0, "type": "NormalMsg"}, "M_12946": {"note_status": 1, "channel": 8, "note": 62, "velocity": 73, "time": 0, "type": "NormalMsg"}, "M_12947": {"note_status": 1, "channel": 8, "note": 53, "velocity": 0, "time": 0, "type": "NormalMsg"}, "M_12948": {"note_status": 1, "channel": 8, "note": 57, "velocity": 0, "time": 0, "type": "NormalMsg"}, "M_12949": {"note_status": 1, "channel": 8, "note": 59, "velocity": 0, "time": 0, "type": "NormalMsg"}, "M_12950": {"note_status": 1, "channel": 8, "note": 57, "velocity": 76, "time": 0, "type": "NormalMsg"}, "M_12951": {"note_status": 1, "channel": 8, "note": 60, "velocity": 82, "time": 0, "type": "NormalMsg"}, "M_12952": {"note_status": 1, "channel": 8, "note": 62, "velocity": 0, "time": 0, "type": "NormalMsg"}, "M_12953": {"note_status": 1, "channel": 8, "note": 64, "velocity": 80, "time": 0, "type": "NormalMsg"}, "M_12954": {"note_status": 1, "channel": 8, "note": 55, "velocity": 0, "time": 0, "type": "NormalMsg"}, "M_12955": {"note_status": 1, "channel": 8, "note": 57, "velocity": 0, "time": 0, "type": "NormalMsg"}, "M_12956": {"note_status": 1, "channel": 8, "note": 60, "velocity": 0, "time": 0, "type": "NormalMsg"}, "M_12957": {"note_status": 1, "channel": 8, "note": 53, "velocity": 76, "time": 0, "type": "NormalMsg"}, "M_12958": {"note_status": 1, "channel": 8, "note": 57, "velocity": 80, "time": 0, "type": "NormalMsg"}, "M_12959": {"note_status": 1, "channel": 8, "note": 60, "velocity": 79, "time": 0, "type": "NormalMsg"}, "M_12960": {"note_status": 1, "channel": 8, "note": 64, "velocity": 0, "time": 0, "type": "NormalMsg"}, "M_12961": {"note_status": 1, "channel": 8, "note": 57, "velocity": 0, "time": 0, "type": "NormalMsg"}, "M_12962": {"note_status": 1, "channel": 8, "note": 57, "velocity": 75, "time": 0, "type": "NormalMsg"}, "M_12963": {"note_status": 1, "channel": 8, "note": 60, "velocity": 0, "time": 0, "type": "NormalMsg"}, "M_12964": {"note_status": 1, "channel": 8, "note": 62, "velocity": 82, "time": 0, "type": "NormalMsg"}, "M_12965": {"note_status": 1, "channel": 8, "note": 57, "velocity": 0, "time": 0, "type": "NormalMsg"}, "M_12966": {"note_status": 1, "channel": 8, "note": 62, "velocity": 0, "time": 0, "type": "NormalMsg"}, "M_12967": {"note_status": 1, "channel": 8, "note": 55, "velocity": 82, "time": 0, "type": "NormalMsg"}, "M_12968": {"note_status": 1, "channel": 8, "note": 59, "velocity": 82, "time": 0, "type": "NormalMsg"}, "M_12969": {"note_status": 1, "channel": 8, "note": 62, "velocity": 77, "time": 0, "type": "NormalMsg"}, "M_12970": {"note_status": 1, "channel": 8, "note": 53, "velocity": 0, "time": 0, "type": "NormalMsg"}, "M_12971": {"note_status": 1, "channel": 8, "note": 59, "velocity": 0, "time": 0, "type": "NormalMsg"}, "M_12972": {"note_status": 1, "channel": 8, "note": 62, "velocity": 0, "time": 0, "type": "NormalMsg"}, "M_12973": {"note_status": 1, "channel": 8, "note": 55, "velocity": 0, "time": 0, "type": "NormalMsg"}, "M_12974": {"note_status": 1, "channel": 8, "note": 57, "velocity": 94, "time": 0, "type": "NormalMsg"}, "M_12975": {"note_status": 1, "channel": 8, "note": 60, "velocity": 91, "time": 0, "type": "NormalMsg"}, "M_12976": {"note_status": 1, "channel": 8, "note": 59, "velocity": 91, "time": 0, "type": "NormalMsg"}, "M_12977": {"note_status": 1, "channel": 8, "note": 60, "velocity": 0, "time": 0, "type": "NormalMsg"}, "M_12978": {"note_status": 1, "channel": 8, "note": 62, "velocity": 88, "time": 0, "type": "NormalMsg"}, "M_12979": {"note_status": 1, "channel": 8, "note": 57, "velocity": 0, "time": 0, "type": "NormalMsg"}, "M_12980": {"note_status": 1, "channel": 8, "note": 60, "velocity": 81, "time": 0, "type": "NormalMsg"}, "M_12981": {"note_status": 1, "channel": 8, "note": 57, "velocity": 91, "time": 0, "type": "NormalMsg"}, "M_12982": {"note_status": 1, "channel": 8, "note": 62, "velocity": 0, "time": 0, "type": "NormalMsg"}, "M_12983": {"note_status": 1, "channel": 8, "note": 59, "velocity": 0, "time": 0, "type": "NormalMsg"}, "M_12984": {"note_status": 1, "channel": 8, "note": 57, "velocity": 0, "time": 0, "type": "NormalMsg"}, "M_12985": {"note_status": 1, "channel": 8, "note": 64, "velocity": 101, "time": 0, "type": "NormalMsg"}, "M_12986": {"note_status": 1, "channel": 8, "note": 64, "velocity": 0, "time": 0, "type": "NormalMsg"}, "M_12987": {"note_status": 1, "channel": 8, "note": 60, "velocity": 0, "time": 0, "type": "NormalMsg"}, "M_12988": {"note_status": 1, "channel": 8, "note": 60, "velocity": 94, "time": 0, "type": "NormalMsg"}, "M_12989": {"note_status": 1, "channel": 8, "note": 62, "velocity": 108, "time": 0, "type": "NormalMsg"}, "M_12990": {"note_status": 1, "channel": 8, "note": 60, "velocity": 0, "time": 0, "type": "NormalMsg"}, "M_12991": {"note_status": 1, "channel": 8, "note": 62, "velocity": 0, "time": 0, "type": "NormalMsg"}, "M_12992": {"note_status": 1, "channel": 8, "note": 59, "velocity": 97, "time": 0, "type": "NormalMsg"}, "M_12993": {"note_status": 1, "channel": 8, "note": 62, "velocity": 94, "time": 0, "type": "NormalMsg"}, "M_12994": {"note_status": 1, "channel": 8, "note": 62, "velocity": 0, "time": 0, "type": "NormalMsg"}, "M_12995": {"note_status": 1, "channel": 8, "note": 59, "velocity": 0, "time": 0, "type": "NormalMsg"}, "M_12996": {"note_status": 1, "channel": 8, "note": 57, "velocity": 79, "time": 0, "type": "NormalMsg"}, "M_12997": {"note_status": 1, "channel": 8, "note": 60, "velocity": 78, "time": 0, "type": "NormalMsg"}, "M_12998": {"note_status": 1, "channel": 8, "note": 64, "velocity": 80, "time": 0, "type": "NormalMsg"}, "M_12999": {"note_status": 1, "channel": 8, "note": 57, "velocity": 0, "time": 0, "type": "NormalMsg"}, "M_13000": {"note_status": 1, "channel": 8, "note": 60, "velocity": 0, "time": 0, "type": "NormalMsg"}, "M_13001": {"note_status": 1, "channel": 8, "note": 53, "velocity": 80, "time": 0, "type": "NormalMsg"}, "M_13002": {"note_status": 1, "channel": 8, "note": 57, "velocity": 78, "time": 0, "type": "NormalMsg"}, "M_13003": {"note_status": 1, "channel": 8, "note": 60, "velocity": 77, "time": 0, "type": "NormalMsg"}, "M_13004": {"note_status": 1, "channel": 8, "note": 64, "velocity": 0, "time": 0, "type": "NormalMsg"}, "M_13005": {"note_status": 1, "channel": 8, "note": 53, "velocity": 0, "time": 0, "type": "NormalMsg"}, "M_13006": {"note_status": 1, "channel": 8, "note": 57, "velocity": 0, "time": 0, "type": "NormalMsg"}, "M_13007": {"note_status": 1, "channel": 8, "note": 53, "velocity": 84, "time": 0, "type": "NormalMsg"}, "M_13008": {"note_status": 1, "channel": 8, "note": 57, "velocity": 77, "time": 0, "type": "NormalMsg"}, "M_13009": {"note_status": 1, "channel": 8, "note": 62, "velocity": 82, "time": 0, "type": "NormalMsg"}, "M_13010": {"note_status": 1, "channel": 8, "note": 60, "velocity": 0, "time": 0, "type": "NormalMsg"}, "M_13011": {"note_status": 1, "channel": 8, "note": 62, "velocity": 0, "time": 0, "type": "NormalMsg"}, "M_13012": {"note_status": 1, "channel": 8, "note": 55, "velocity": 80, "time": 0, "type": "NormalMsg"}, "M_13013": {"note_status": 1, "channel": 8, "note": 59, "velocity": 82, "time": 0, "type": "NormalMsg"}, "M_13014": {"note_status": 1, "channel": 8, "note": 62, "velocity": 73, "time": 0, "type": "NormalMsg"}, "M_13015": {"note_status": 1, "channel": 8, "note": 53, "velocity": 0, "time": 0, "type": "NormalMsg"}, "M_13016": {"note_status": 1, "channel": 8, "note": 57, "velocity": 0, "time": 0, "type": "NormalMsg"}, "M_13017": {"note_status": 1, "channel": 8, "note": 59, "velocity": 0, "time": 0, "type": "NormalMsg"}, "M_13018": {"note_status": 1, "channel": 8, "note": 57, "velocity": 76, "time": 0, "type": "NormalMsg"}, "M_13019": {"note_status": 1, "channel": 8, "note": 60, "velocity": 82, "time": 0, "type": "NormalMsg"}, "M_13020": {"note_status": 1, "channel": 8, "note": 62, "velocity": 0, "time": 0, "type": "NormalMsg"}, "M_13021": {"note_status": 1, "channel": 8, "note": 64, "velocity": 80, "time": 0, "type": "NormalMsg"}, "M_13022": {"note_status": 1, "channel": 8, "note": 55, "velocity": 0, "time": 0, "type": "NormalMsg"}, "M_13023": {"note_status": 1, "channel": 8, "note": 57, "velocity": 0, "time": 0, "type": "NormalMsg"}, "M_13024": {"note_status": 1, "channel": 8, "note": 60, "velocity": 0, "time": 0, "type": "NormalMsg"}, "M_13025": {"note_status": 1, "channel": 8, "note": 53, "velocity": 76, "time": 0, "type": "NormalMsg"}, "M_13026": {"note_status": 1, "channel": 8, "note": 57, "velocity": 80, "time": 0, "type": "NormalMsg"}, "M_13027": {"note_status": 1, "channel": 8, "note": 60, "velocity": 79, "time": 0, "type": "NormalMsg"}, "M_13028": {"note_status": 1, "channel": 8, "note": 64, "velocity": 0, "time": 0, "type": "NormalMsg"}, "M_13029": {"note_status": 1, "channel": 8, "note": 55, "velocity": 82, "time": 0, "type": "NormalMsg"}, "M_13030": {"note_status": 1, "channel": 8, "note": 59, "velocity": 82, "time": 0, "type": "NormalMsg"}, "M_13031": {"note_status": 1, "channel": 8, "note": 62, "velocity": 77, "time": 0, "type": "NormalMsg"}, "M_13032": {"note_status": 1, "channel": 8, "note": 53, "velocity": 0, "time": 0, "type": "NormalMsg"}, "M_13033": {"note_status": 1, "channel": 8, "note": 57, "velocity": 0, "time": 0, "type": "NormalMsg"}, "M_13034": {"note_status": 1, "channel": 8, "note": 60, "velocity": 0, "time": 0, "type": "NormalMsg"}, "M_13035": {"note_status": 1, "channel": 8, "note": 57, "velocity": 79, "time": 0, "type": "NormalMsg"}, "M_13036": {"note_status": 1, "channel": 8, "note": 59, "velocity": 0, "time": 0, "type": "NormalMsg"}, "M_13037": {"note_status": 1, "channel": 8, "note": 60, "velocity": 78, "time": 0, "type": "NormalMsg"}, "M_13038": {"note_status": 1, "channel": 8, "note": 64, "velocity": 80, "time": 0, "type": "NormalMsg"}, "M_13039": {"note_status": 1, "channel": 8, "note": 55, "velocity": 0, "time": 0, "type": "NormalMsg"}, "M_13040": {"note_status": 1, "channel": 8, "note": 62, "velocity": 0, "time": 0, "type": "NormalMsg"}, "M_13041": {"note_status": 1, "channel": 8, "note": 57, "velocity": 0, "time": 0, "type": "NormalMsg"}, "M_13042": {"note_status": 1, "channel": 8, "note": 60, "velocity": 0, "time": 0, "type": "NormalMsg"}, "M_13043": {"note_status": 1, "channel": 8, "note": 53, "velocity": 80, "time": 0, "type": "NormalMsg"}, "M_13044": {"note_status": 1, "channel": 8, "note": 57, "velocity": 78, "time": 0, "type": "NormalMsg"}, "M_13045": {"note_status": 1, "channel": 8, "note": 60, "velocity": 77, "time": 0, "type": "NormalMsg"}, "M_13046": {"note_status": 1, "channel": 8, "note": 64, "velocity": 0, "time": 0, "type": "NormalMsg"}, "M_13047": {"note_status": 1, "channel": 8, "note": 53, "velocity": 0, "time": 0, "type": "NormalMsg"}, "M_13048": {"note_status": 1, "channel": 8, "note": 57, "velocity": 0, "time": 0, "type": "NormalMsg"}, "M_13049": {"note_status": 1, "channel": 8, "note": 53, "velocity": 84, "time": 0, "type": "NormalMsg"}, "M_13050": {"note_status": 1, "channel": 8, "note": 57, "velocity": 77, "time": 0, "type": "NormalMsg"}, "M_13051": {"note_status": 1, "channel": 8, "note": 62, "velocity": 82, "time": 0, "type": "NormalMsg"}, "M_13052": {"note_status": 1, "channel": 8, "note": 60, "velocity": 0, "time": 0, "type": "NormalMsg"}, "M_13053": {"note_status": 1, "channel": 8, "note": 62, "velocity": 0, "time": 0, "type": "NormalMsg"}, "M_13054": {"note_status": 1, "channel": 8, "note": 55, "velocity": 80, "time": 0, "type": "NormalMsg"}, "M_13055": {"note_status": 1, "channel": 8, "note": 59, "velocity": 82, "time": 0, "type": "NormalMsg"}, "M_13056": {"note_status": 1, "channel": 8, "note": 62, "velocity": 73, "time": 0, "type": "NormalMsg"}, "M_13057": {"note_status": 1, "channel": 8, "note": 53, "velocity": 0, "time": 0, "type": "NormalMsg"}, "M_13058": {"note_status": 1, "channel": 8, "note": 57, "velocity": 0, "time": 0, "type": "NormalMsg"}, "M_13059": {"note_status": 1, "channel": 8, "note": 59, "velocity": 0, "time": 0, "type": "NormalMsg"}, "M_13060": {"note_status": 1, "channel": 8, "note": 57, "velocity": 76, "time": 0, "type": "NormalMsg"}, "M_13061": {"note_status": 1, "channel": 8, "note": 60, "velocity": 82, "time": 0, "type": "NormalMsg"}, "M_13062": {"note_status": 1, "channel": 8, "note": 62, "velocity": 0, "time": 0, "type": "NormalMsg"}, "M_13063": {"note_status": 1, "channel": 8, "note": 64, "velocity": 80, "time": 0, "type": "NormalMsg"}, "M_13064": {"note_status": 1, "channel": 8, "note": 55, "velocity": 0, "time": 0, "type": "NormalMsg"}, "M_13065": {"note_status": 1, "channel": 8, "note": 57, "velocity": 0, "time": 0, "type": "NormalMsg"}, "M_13066": {"note_status": 1, "channel": 8, "note": 60, "velocity": 0, "time": 0, "type": "NormalMsg"}, "M_13067": {"note_status": 1, "channel": 8, "note": 53, "velocity": 76, "time": 0, "type": "NormalMsg"}, "M_13068": {"note_status": 1, "channel": 8, "note": 57, "velocity": 80, "time": 0, "type": "NormalMsg"}, "M_13069": {"note_status": 1, "channel": 8, "note": 60, "velocity": 79, "time": 0, "type": "NormalMsg"}, "M_13070": {"note_status": 1, "channel": 8, "note": 64, "velocity": 0, "time": 0, "type": "NormalMsg"}, "M_13071": {"note_status": 1, "channel": 8, "note": 57, "velocity": 0, "time": 0, "type": "NormalMsg"}, "M_13072": {"note_status": 1, "channel": 8, "note": 57, "velocity": 75, "time": 0, "type": "NormalMsg"}, "M_13073": {"note_status": 1, "channel": 8, "note": 60, "velocity": 0, "time": 0, "type": "NormalMsg"}, "M_13074": {"note_status": 1, "channel": 8, "note": 62, "velocity": 82, "time": 0, "type": "NormalMsg"}, "M_13075": {"note_status": 1, "channel": 8, "note": 57, "velocity": 0, "time": 0, "type": "NormalMsg"}, "M_13076": {"note_status": 1, "channel": 8, "note": 62, "velocity": 0, "time": 0, "type": "NormalMsg"}, "M_13077": {"note_status": 1, "channel": 8, "note": 55, "velocity": 82, "time": 0, "type": "NormalMsg"}, "M_13078": {"note_status": 1, "channel": 8, "note": 59, "velocity": 82, "time": 0, "type": "NormalMsg"}, "M_13079": {"note_status": 1, "channel": 8, "note": 62, "velocity": 77, "time": 0, "type": "NormalMsg"}, "M_13080": {"note_status": 1, "channel": 8, "note": 53, "velocity": 0, "time": 0, "type": "NormalMsg"}, "M_13081": {"note_status": 1, "channel": 8, "note": 57, "velocity": 79, "time": 0, "type": "NormalMsg"}, "M_13082": {"note_status": 1, "channel": 8, "note": 59, "velocity": 0, "time": 0, "type": "NormalMsg"}, "M_13083": {"note_status": 1, "channel": 8, "note": 60, "velocity": 78, "time": 0, "type": "NormalMsg"}, "M_13084": {"note_status": 1, "channel": 8, "note": 62, "velocity": 0, "time": 0, "type": "NormalMsg"}, "M_13085": {"note_status": 1, "channel": 8, "note": 64, "velocity": 80, "time": 0, "type": "NormalMsg"}, "M_13086": {"note_status": 1, "channel": 8, "note": 55, "velocity": 0, "time": 0, "type": "NormalMsg"}, "M_13087": {"note_status": 1, "channel": 8, "note": 57, "velocity": 0, "time": 0, "type": "NormalMsg"}, "M_13088": {"note_status": 1, "channel": 8, "note": 60, "velocity": 0, "time": 0, "type": "NormalMsg"}, "M_13089": {"note_status": 1, "channel": 8, "note": 53, "velocity": 80, "time": 0, "type": "NormalMsg"}, "M_13090": {"note_status": 1, "channel": 8, "note": 57, "velocity": 78, "time": 0, "type": "NormalMsg"}, "M_13091": {"note_status": 1, "channel": 8, "note": 60, "velocity": 77, "time": 0, "type": "NormalMsg"}, "M_13092": {"note_status": 1, "channel": 8, "note": 64, "velocity": 0, "time": 0, "type": "NormalMsg"}, "M_13093": {"note_status": 1, "channel": 8, "note": 53, "velocity": 0, "time": 0, "type": "NormalMsg"}, "M_13094": {"note_status": 1, "channel": 8, "note": 57, "velocity": 0, "time": 0, "type": "NormalMsg"}, "M_13095": {"note_status": 1, "channel": 8, "note": 53, "velocity": 84, "time": 0, "type": "NormalMsg"}, "M_13096": {"note_status": 1, "channel": 8, "note": 57, "velocity": 77, "time": 0, "type": "NormalMsg"}, "M_13097": {"note_status": 1, "channel": 8, "note": 62, "velocity": 82, "time": 0, "type": "NormalMsg"}, "M_13098": {"note_status": 1, "channel": 8, "note": 60, "velocity": 0, "time": 0, "type": "NormalMsg"}, "M_13099": {"note_status": 1, "channel": 8, "note": 62, "velocity": 0, "time": 0, "type": "NormalMsg"}, "M_13100": {"note_status": 1, "channel": 8, "note": 55, "velocity": 80, "time": 0, "type": "NormalMsg"}, "M_13101": {"note_status": 1, "channel": 8, "note": 59, "velocity": 82, "time": 0, "type": "NormalMsg"}, "M_13102": {"note_status": 1, "channel": 8, "note": 62, "velocity": 73, "time": 0, "type": "NormalMsg"}, "M_13103": {"note_status": 1, "channel": 8, "note": 53, "velocity": 0, "time": 0, "type": "NormalMsg"}, "M_13104": {"note_status": 1, "channel": 8, "note": 57, "velocity": 0, "time": 0, "type": "NormalMsg"}, "M_13105": {"note_status": 1, "channel": 8, "note": 59, "velocity": 0, "time": 0, "type": "NormalMsg"}, "M_13106": {"note_status": 1, "channel": 8, "note": 62, "velocity": 0, "time": 0, "type": "NormalMsg"}, "M_13107": {"note_status": 1, "channel": 8, "note": 55, "velocity": 0, "time": 0, "type": "NormalMsg"}, "M_13108": {"note_status": 1, "channel": 8, "note": 57, "velocity": 79, "time": 0, "type": "NormalMsg"}, "M_13109": {"note_status": 1, "channel": 8, "note": 60, "velocity": 78, "time": 0, "type": "NormalMsg"}, "M_13110": {"note_status": 1, "channel": 8, "note": 64, "velocity": 80, "time": 0, "type": "NormalMsg"}, "M_13111": {"note_status": 1, "channel": 8, "note": 57, "velocity": 0, "time": 0, "type": "NormalMsg"}, "M_13112": {"note_status": 1, "channel": 8, "note": 60, "velocity": 0, "time": 0, "type": "NormalMsg"}, "M_13113": {"note_status": 1, "channel": 8, "note": 53, "velocity": 80, "time": 0, "type": "NormalMsg"}, "M_13114": {"note_status": 1, "channel": 8, "note": 57, "velocity": 78, "time": 0, "type": "NormalMsg"}, "M_13115": {"note_status": 1, "channel": 8, "note": 60, "velocity": 77, "time": 0, "type": "NormalMsg"}, "M_13116": {"note_status": 1, "channel": 8, "note": 64, "velocity": 0, "time": 0, "type": "NormalMsg"}, "M_13117": {"note_status": 1, "channel": 8, "note": 53, "velocity": 0, "time": 0, "type": "NormalMsg"}, "M_13118": {"note_status": 1, "channel": 8, "note": 57, "velocity": 0, "time": 0, "type": "NormalMsg"}, "M_13119": {"note_status": 1, "channel": 8, "note": 53, "velocity": 84, "time": 0, "type": "NormalMsg"}, "M_13120": {"note_status": 1, "channel": 8, "note": 57, "velocity": 77, "time": 0, "type": "NormalMsg"}, "M_13121": {"note_status": 1, "channel": 8, "note": 62, "velocity": 82, "time": 0, "type": "NormalMsg"}, "M_13122": {"note_status": 1, "channel": 8, "note": 60, "velocity": 0, "time": 0, "type": "NormalMsg"}, "M_13123": {"note_status": 1, "channel": 8, "note": 62, "velocity": 0, "time": 0, "type": "NormalMsg"}, "M_13124": {"note_status": 1, "channel": 8, "note": 55, "velocity": 80, "time": 0, "type": "NormalMsg"}, "M_13125": {"note_status": 1, "channel": 8, "note": 59, "velocity": 82, "time": 0, "type": "NormalMsg"}, "M_13126": {"note_status": 1, "channel": 8, "note": 62, "velocity": 73, "time": 0, "type": "NormalMsg"}, "M_13127": {"note_status": 1, "channel": 8, "note": 57, "velocity": 0, "time": 0, "type": "NormalMsg"}, "M_13128": {"note_status": 1, "channel": 8, "note": 53, "velocity": 0, "time": 0, "type": "NormalMsg"}, "M_13129": {"note_status": 1, "channel": 8, "note": 59, "velocity": 0, "time": 0, "type": "NormalMsg"}, "M_13130": {"note_status": 1, "channel": 8, "note": 53, "velocity": 97, "time": 0, "type": "NormalMsg"}, "M_13131": {"note_status": 1, "channel": 8, "note": 55, "velocity": 0, "time": 0, "type": "NormalMsg"}, "M_13132": {"note_status": 1, "channel": 8, "note": 57, "velocity": 77, "time": 0, "type": "NormalMsg"}, "M_13133": {"note_status": 1, "channel": 8, "note": 60, "velocity": 86, "time": 0, "type": "NormalMsg"}, "M_13134": {"note_status": 1, "channel": 8, "note": 62, "velocity": 0, "time": 0, "type": "NormalMsg"}, "M_13135": {"note_status": 1, "channel": 8, "note": 53, "velocity": 0, "time": 0, "type": "NormalMsg"}, "M_13136": {"note_status": 1, "channel": 8, "note": 55, "velocity": 91, "time": 0, "type": "NormalMsg"}, "M_13137": {"note_status": 1, "channel": 8, "note": 57, "velocity": 0, "time": 0, "type": "NormalMsg"}, "M_13138": {"note_status": 1, "channel": 8, "note": 59, "velocity": 75, "time": 0, "type": "NormalMsg"}, "M_13139": {"note_status": 1, "channel": 8, "note": 62, "velocity": 86, "time": 0, "type": "NormalMsg"}, "M_13140": {"note_status": 1, "channel": 8, "note": 60, "velocity": 0, "time": 0, "type": "NormalMsg"}, "M_13141": {"note_status": 1, "channel": 8, "note": 55, "velocity": 0, "time": 0, "type": "NormalMsg"}, "M_13142": {"note_status": 1, "channel": 8, "note": 53, "velocity": 81, "time": 0, "type": "NormalMsg"}, "M_13143": {"note_status": 1, "channel": 8, "note": 57, "velocity": 73, "time": 0, "type": "NormalMsg"}, "M_13144": {"note_status": 1, "channel": 8, "note": 59, "velocity": 0, "time": 0, "type": "NormalMsg"}, "M_13145": {"note_status": 1, "channel": 8, "note": 60, "velocity": 83, "time": 0, "type": "NormalMsg"}, "M_13146": {"note_status": 1, "channel": 8, "note": 62, "velocity": 0, "time": 0, "type": "NormalMsg"}, "M_13147": {"note_status": 1, "channel": 8, "note": 55, "velocity": 94, "time": 0, "type": "NormalMsg"}, "M_13148": {"note_status": 1, "channel": 8, "note": 57, "velocity": 0, "time": 0, "type": "NormalMsg"}, "M_13149": {"note_status": 1, "channel": 8, "note": 59, "velocity": 81, "time": 0, "type": "NormalMsg"}, "M_13150": {"note_status": 1, "channel": 8, "note": 62, "velocity": 86, "time": 0, "type": "NormalMsg"}, "M_13151": {"note_status": 1, "channel": 8, "note": 53, "velocity": 0, "time": 0, "type": "NormalMsg"}, "M_13152": {"note_status": 1, "channel": 8, "note": 60, "velocity": 0, "time": 0, "type": "NormalMsg"}, "M_13153": {"note_status": 1, "channel": 8, "note": 53, "velocity": 81, "time": 0, "type": "NormalMsg"}, "M_13154": {"note_status": 1, "channel": 8, "note": 55, "velocity": 0, "time": 0, "type": "NormalMsg"}, "M_13155": {"note_status": 1, "channel": 8, "note": 57, "velocity": 71, "time": 0, "type": "NormalMsg"}, "M_13156": {"note_status": 1, "channel": 8, "note": 59, "velocity": 0, "time": 0, "type": "NormalMsg"}, "M_13157": {"note_status": 1, "channel": 8, "note": 60, "velocity": 77, "time": 0, "type": "NormalMsg"}, "M_13158": {"note_status": 1, "channel": 8, "note": 62, "velocity": 0, "time": 0, "type": "NormalMsg"}, "M_13159": {"note_status": 1, "channel": 8, "note": 55, "velocity": 94, "time": 0, "type": "NormalMsg"}, "M_13160": {"note_status": 1, "channel": 8, "note": 57, "velocity": 0, "time": 0, "type": "NormalMsg"}, "M_13161": {"note_status": 1, "channel": 8, "note": 59, "velocity": 79, "time": 0, "type": "NormalMsg"}, "M_13162": {"note_status": 1, "channel": 8, "note": 62, "velocity": 88, "time": 0, "type": "NormalMsg"}, "M_13163": {"note_status": 1, "channel": 8, "note": 53, "velocity": 0, "time": 0, "type": "NormalMsg"}, "M_13164": {"note_status": 1, "channel": 8, "note": 60, "velocity": 0, "time": 0, "type": "NormalMsg"}, "M_13165": {"note_status": 1, "channel": 8, "note": 55, "velocity": 0, "time": 0, "type": "NormalMsg"}, "M_13166": {"note_status": 1, "channel": 8, "note": 62, "velocity": 0, "time": 0, "type": "NormalMsg"}, "M_13167": {"note_status": 1, "channel": 8, "note": 59, "velocity": 0, "time": 0, "type": "NormalMsg"}, "M_13168": {"note_status": 1, "channel": 8, "note": 57, "velocity": 94, "time": 0, "type": "NormalMsg"}, "M_13169": {"note_status": 1, "channel": 8, "note": 60, "velocity": 91, "time": 0, "type": "NormalMsg"}, "M_13170": {"note_status": 1, "channel": 8, "note": 59, "velocity": 91, "time": 0, "type": "NormalMsg"}, "M_13171": {"note_status": 1, "channel": 8, "note": 60, "velocity": 0, "time": 0, "type": "NormalMsg"}, "M_13172": {"note_status": 1, "channel": 8, "note": 62, "velocity": 88, "time": 0, "type": "NormalMsg"}, "M_13173": {"note_status": 1, "channel": 8, "note": 57, "velocity": 0, "time": 0, "type": "NormalMsg"}, "M_13174": {"note_status": 1, "channel": 8, "note": 60, "velocity": 81, "time": 0, "type": "NormalMsg"}, "M_13175": {"note_status": 1, "channel": 8, "note": 57, "velocity": 91, "time": 0, "type": "NormalMsg"}, "M_13176": {"note_status": 1, "channel": 8, "note": 62, "velocity": 0, "time": 0, "type": "NormalMsg"}, "M_13177": {"note_status": 1, "channel": 8, "note": 59, "velocity": 0, "time": 0, "type": "NormalMsg"}, "M_13178": {"note_status": 1, "channel": 8, "note": 57, "velocity": 0, "time": 0, "type": "NormalMsg"}, "M_13179": {"note_status": 1, "channel": 8, "note": 64, "velocity": 101, "time": 0, "type": "NormalMsg"}, "M_13180": {"note_status": 1, "channel": 8, "note": 64, "velocity": 0, "time": 0, "type": "NormalMsg"}, "M_13181": {"note_status": 1, "channel": 8, "note": 60, "velocity": 0, "time": 0, "type": "NormalMsg"}, "M_13182": {"note_status": 1, "channel": 8, "note": 60, "velocity": 94, "time": 0, "type": "NormalMsg"}, "M_13183": {"note_status": 1, "channel": 8, "note": 62, "velocity": 108, "time": 0, "type": "NormalMsg"}, "M_13184": {"note_status": 1, "channel": 8, "note": 60, "velocity": 0, "time": 0, "type": "NormalMsg"}, "M_13185": {"note_status": 1, "channel": 8, "note": 62, "velocity": 0, "time": 0, "type": "NormalMsg"}, "M_13186": {"note_status": 1, "channel": 8, "note": 59, "velocity": 97, "time": 0, "type": "NormalMsg"}, "M_13187": {"note_status": 1, "channel": 8, "note": 62, "velocity": 94, "time": 0, "type": "NormalMsg"}, "M_13188": {"note_status": 1, "channel": 8, "note": 62, "velocity": 0, "time": 0, "type": "NormalMsg"}, "M_13189": {"note_status": 1, "channel": 8, "note": 59, "velocity": 0, "time": 0, "type": "NormalMsg"}, "M_13190": {"note_status": 1, "channel": 8, "note": 57, "velocity": 79, "time": 0, "type": "NormalMsg"}, "M_13191": {"note_status": 1, "channel": 8, "note": 60, "velocity": 78, "time": 0, "type": "NormalMsg"}, "M_13192": {"note_status": 1, "channel": 8, "note": 64, "velocity": 80, "time": 0, "type": "NormalMsg"}, "M_13193": {"note_status": 1, "channel": 8, "note": 57, "velocity": 0, "time": 0, "type": "NormalMsg"}, "M_13194": {"note_status": 1, "channel": 8, "note": 60, "velocity": 0, "time": 0, "type": "NormalMsg"}, "M_13195": {"note_status": 1, "channel": 8, "note": 53, "velocity": 80, "time": 0, "type": "NormalMsg"}, "M_13196": {"note_status": 1, "channel": 8, "note": 57, "velocity": 78, "time": 0, "type": "NormalMsg"}, "M_13197": {"note_status": 1, "channel": 8, "note": 60, "velocity": 77, "time": 0, "type": "NormalMsg"}, "M_13198": {"note_status": 1, "channel": 8, "note": 64, "velocity": 0, "time": 0, "type": "NormalMsg"}, "M_13199": {"note_status": 1, "channel": 8, "note": 53, "velocity": 0, "time": 0, "type": "NormalMsg"}, "M_13200": {"note_status": 1, "channel": 8, "note": 57, "velocity": 0, "time": 0, "type": "NormalMsg"}, "M_13201": {"note_status": 1, "channel": 8, "note": 53, "velocity": 84, "time": 0, "type": "NormalMsg"}, "M_13202": {"note_status": 1, "channel": 8, "note": 57, "velocity": 77, "time": 0, "type": "NormalMsg"}, "M_13203": {"note_status": 1, "channel": 8, "note": 62, "velocity": 82, "time": 0, "type": "NormalMsg"}, "M_13204": {"note_status": 1, "channel": 8, "note": 60, "velocity": 0, "time": 0, "type": "NormalMsg"}, "M_13205": {"note_status": 1, "channel": 8, "note": 62, "velocity": 0, "time": 0, "type": "NormalMsg"}, "M_13206": {"note_status": 1, "channel": 8, "note": 55, "velocity": 80, "time": 0, "type": "NormalMsg"}, "M_13207": {"note_status": 1, "channel": 8, "note": 59, "velocity": 82, "time": 0, "type": "NormalMsg"}, "M_13208": {"note_status": 1, "channel": 8, "note": 62, "velocity": 73, "time": 0, "type": "NormalMsg"}, "M_13209": {"note_status": 1, "channel": 8, "note": 53, "velocity": 0, "time": 0, "type": "NormalMsg"}, "M_13210": {"note_status": 1, "channel": 8, "note": 57, "velocity": 0, "time": 0, "type": "NormalMsg"}, "M_13211": {"note_status": 1, "channel": 8, "note": 59, "velocity": 0, "time": 0, "type": "NormalMsg"}, "M_13212": {"note_status": 1, "channel": 8, "note": 57, "velocity": 76, "time": 0, "type": "NormalMsg"}, "M_13213": {"note_status": 1, "channel": 8, "note": 60, "velocity": 82, "time": 0, "type": "NormalMsg"}, "M_13214": {"note_status": 1, "channel": 8, "note": 62, "velocity": 0, "time": 0, "type": "NormalMsg"}, "M_13215": {"note_status": 1, "channel": 8, "note": 64, "velocity": 80, "time": 0, "type": "NormalMsg"}, "M_13216": {"note_status": 1, "channel": 8, "note": 55, "velocity": 0, "time": 0, "type": "NormalMsg"}, "M_13217": {"note_status": 1, "channel": 8, "note": 57, "velocity": 0, "time": 0, "type": "NormalMsg"}, "M_13218": {"note_status": 1, "channel": 8, "note": 60, "velocity": 0, "time": 0, "type": "NormalMsg"}, "M_13219": {"note_status": 1, "channel": 8, "note": 53, "velocity": 76, "time": 0, "type": "NormalMsg"}, "M_13220": {"note_status": 1, "channel": 8, "note": 57, "velocity": 80, "time": 0, "type": "NormalMsg"}, "M_13221": {"note_status": 1, "channel": 8, "note": 60, "velocity": 79, "time": 0, "type": "NormalMsg"}, "M_13222": {"note_status": 1, "channel": 8, "note": 64, "velocity": 0, "time": 0, "type": "NormalMsg"}, "M_13223": {"note_status": 1, "channel": 8, "note": 55, "velocity": 82, "time": 0, "type": "NormalMsg"}, "M_13224": {"note_status": 1, "channel": 8, "note": 59, "velocity": 82, "time": 0, "type": "NormalMsg"}, "M_13225": {"note_status": 1, "channel": 8, "note": 62, "velocity": 77, "time": 0, "type": "NormalMsg"}, "M_13226": {"note_status": 1, "channel": 8, "note": 53, "velocity": 0, "time": 0, "type": "NormalMsg"}, "M_13227": {"note_status": 1, "channel": 8, "note": 57, "velocity": 0, "time": 0, "type": "NormalMsg"}, "M_13228": {"note_status": 1, "channel": 8, "note": 60, "velocity": 0, "time": 0, "type": "NormalMsg"}, "M_13229": {"note_status": 1, "channel": 8, "note": 57, "velocity": 79, "time": 0, "type": "NormalMsg"}, "M_13230": {"note_status": 1, "channel": 8, "note": 59, "velocity": 0, "time": 0, "type": "NormalMsg"}, "M_13231": {"note_status": 1, "channel": 8, "note": 60, "velocity": 78, "time": 0, "type": "NormalMsg"}, "M_13232": {"note_status": 1, "channel": 8, "note": 64, "velocity": 80, "time": 0, "type": "NormalMsg"}, "M_13233": {"note_status": 1, "channel": 8, "note": 55, "velocity": 0, "time": 0, "type": "NormalMsg"}, "M_13234": {"note_status": 1, "channel": 8, "note": 62, "velocity": 0, "time": 0, "type": "NormalMsg"}, "M_13235": {"note_status": 1, "channel": 8, "note": 57, "velocity": 0, "time": 0, "type": "NormalMsg"}, "M_13236": {"note_status": 1, "channel": 8, "note": 60, "velocity": 0, "time": 0, "type": "NormalMsg"}, "M_13237": {"note_status": 1, "channel": 8, "note": 53, "velocity": 80, "time": 0, "type": "NormalMsg"}, "M_13238": {"note_status": 1, "channel": 8, "note": 57, "velocity": 78, "time": 0, "type": "NormalMsg"}, "M_13239": {"note_status": 1, "channel": 8, "note": 60, "velocity": 77, "time": 0, "type": "NormalMsg"}, "M_13240": {"note_status": 1, "channel": 8, "note": 64, "velocity": 0, "time": 0, "type": "NormalMsg"}, "M_13241": {"note_status": 1, "channel": 8, "note": 53, "velocity": 0, "time": 0, "type": "NormalMsg"}, "M_13242": {"note_status": 1, "channel": 8, "note": 57, "velocity": 0, "time": 0, "type": "NormalMsg"}, "M_13243": {"note_status": 1, "channel": 8, "note": 53, "velocity": 84, "time": 0, "type": "NormalMsg"}, "M_13244": {"note_status": 1, "channel": 8, "note": 57, "velocity": 77, "time": 0, "type": "NormalMsg"}, "M_13245": {"note_status": 1, "channel": 8, "note": 62, "velocity": 82, "time": 0, "type": "NormalMsg"}, "M_13246": {"note_status": 1, "channel": 8, "note": 60, "velocity": 0, "time": 0, "type": "NormalMsg"}, "M_13247": {"note_status": 1, "channel": 8, "note": 62, "velocity": 0, "time": 0, "type": "NormalMsg"}, "M_13248": {"note_status": 1, "channel": 8, "note": 55, "velocity": 80, "time": 0, "type": "NormalMsg"}, "M_13249": {"note_status": 1, "channel": 8, "note": 59, "velocity": 82, "time": 0, "type": "NormalMsg"}, "M_13250": {"note_status": 1, "channel": 8, "note": 62, "velocity": 73, "time": 0, "type": "NormalMsg"}, "M_13251": {"note_status": 1, "channel": 8, "note": 53, "velocity": 0, "time": 0, "type": "NormalMsg"}, "M_13252": {"note_status": 1, "channel": 8, "note": 57, "velocity": 0, "time": 0, "type": "NormalMsg"}, "M_13253": {"note_status": 1, "channel": 8, "note": 59, "velocity": 0, "time": 0, "type": "NormalMsg"}, "M_13254": {"note_status": 1, "channel": 8, "note": 57, "velocity": 76, "time": 0, "type": "NormalMsg"}, "M_13255": {"note_status": 1, "channel": 8, "note": 60, "velocity": 82, "time": 0, "type": "NormalMsg"}, "M_13256": {"note_status": 1, "channel": 8, "note": 62, "velocity": 0, "time": 0, "type": "NormalMsg"}, "M_13257": {"note_status": 1, "channel": 8, "note": 64, "velocity": 80, "time": 0, "type": "NormalMsg"}, "M_13258": {"note_status": 1, "channel": 8, "note": 55, "velocity": 0, "time": 0, "type": "NormalMsg"}, "M_13259": {"note_status": 1, "channel": 8, "note": 57, "velocity": 0, "time": 0, "type": "NormalMsg"}, "M_13260": {"note_status": 1, "channel": 8, "note": 60, "velocity": 0, "time": 0, "type": "NormalMsg"}, "M_13261": {"note_status": 1, "channel": 8, "note": 53, "velocity": 76, "time": 0, "type": "NormalMsg"}, "M_13262": {"note_status": 1, "channel": 8, "note": 57, "velocity": 80, "time": 0, "type": "NormalMsg"}, "M_13263": {"note_status": 1, "channel": 8, "note": 60, "velocity": 79, "time": 0, "type": "NormalMsg"}, "M_13264": {"note_status": 1, "channel": 8, "note": 64, "velocity": 0, "time": 0, "type": "NormalMsg"}, "M_13265": {"note_status": 1, "channel": 8, "note": 57, "velocity": 0, "time": 0, "type": "NormalMsg"}, "M_13266": {"note_status": 1, "channel": 8, "note": 57, "velocity": 75, "time": 0, "type": "NormalMsg"}, "M_13267": {"note_status": 1, "channel": 8, "note": 60, "velocity": 0, "time": 0, "type": "NormalMsg"}, "M_13268": {"note_status": 1, "channel": 8, "note": 62, "velocity": 82, "time": 0, "type": "NormalMsg"}, "M_13269": {"note_status": 1, "channel": 8, "note": 57, "velocity": 0, "time": 0, "type": "NormalMsg"}, "M_13270": {"note_status": 1, "channel": 8, "note": 62, "velocity": 0, "time": 0, "type": "NormalMsg"}, "M_13271": {"note_status": 1, "channel": 8, "note": 55, "velocity": 82, "time": 0, "type": "NormalMsg"}, "M_13272": {"note_status": 1, "channel": 8, "note": 59, "velocity": 82, "time": 0, "type": "NormalMsg"}, "M_13273": {"note_status": 1, "channel": 8, "note": 62, "velocity": 77, "time": 0, "type": "NormalMsg"}, "M_13274": {"note_status": 1, "channel": 8, "note": 53, "velocity": 0, "time": 0, "type": "NormalMsg"}, "M_13275": {"note_status": 1, "channel": 8, "note": 57, "velocity": 79, "time": 0, "type": "NormalMsg"}, "M_13276": {"note_status": 1, "channel": 8, "note": 59, "velocity": 0, "time": 0, "type": "NormalMsg"}, "M_13277": {"note_status": 1, "channel": 8, "note": 60, "velocity": 78, "time": 0, "type": "NormalMsg"}, "M_13278": {"note_status": 1, "channel": 8, "note": 62, "velocity": 0, "time": 0, "type": "NormalMsg"}, "M_13279": {"note_status": 1, "channel": 8, "note": 64, "velocity": 80, "time": 0, "type": "NormalMsg"}, "M_13280": {"note_status": 1, "channel": 8, "note": 55, "velocity": 0, "time": 0, "type": "NormalMsg"}, "M_13281": {"note_status": 1, "channel": 8, "note": 57, "velocity": 0, "time": 0, "type": "NormalMsg"}, "M_13282": {"note_status": 1, "channel": 8, "note": 60, "velocity": 0, "time": 0, "type": "NormalMsg"}, "M_13283": {"note_status": 1, "channel": 8, "note": 53, "velocity": 80, "time": 0, "type": "NormalMsg"}, "M_13284": {"note_status": 1, "channel": 8, "note": 57, "velocity": 78, "time": 0, "type": "NormalMsg"}, "M_13285": {"note_status": 1, "channel": 8, "note": 60, "velocity": 77, "time": 0, "type": "NormalMsg"}, "M_13286": {"note_status": 1, "channel": 8, "note": 64, "velocity": 0, "time": 0, "type": "NormalMsg"}, "M_13287": {"note_status": 1, "channel": 8, "note": 53, "velocity": 0, "time": 0, "type": "NormalMsg"}, "M_13288": {"note_status": 1, "channel": 8, "note": 57, "velocity": 0, "time": 0, "type": "NormalMsg"}, "M_13289": {"note_status": 1, "channel": 8, "note": 53, "velocity": 84, "time": 0, "type": "NormalMsg"}, "M_13290": {"note_status": 1, "channel": 8, "note": 57, "velocity": 77, "time": 0, "type": "NormalMsg"}, "M_13291": {"note_status": 1, "channel": 8, "note": 62, "velocity": 82, "time": 0, "type": "NormalMsg"}, "M_13292": {"note_status": 1, "channel": 8, "note": 60, "velocity": 0, "time": 0, "type": "NormalMsg"}, "M_13293": {"note_status": 1, "channel": 8, "note": 62, "velocity": 0, "time": 0, "type": "NormalMsg"}, "M_13294": {"note_status": 1, "channel": 8, "note": 55, "velocity": 80, "time": 0, "type": "NormalMsg"}, "M_13295": {"note_status": 1, "channel": 8, "note": 59, "velocity": 82, "time": 0, "type": "NormalMsg"}, "M_13296": {"note_status": 1, "channel": 8, "note": 62, "velocity": 73, "time": 0, "type": "NormalMsg"}, "M_13297": {"note_status": 1, "channel": 8, "note": 53, "velocity": 0, "time": 0, "type": "NormalMsg"}, "M_13298": {"note_status": 1, "channel": 8, "note": 57, "velocity": 0, "time": 0, "type": "NormalMsg"}, "M_13299": {"note_status": 1, "channel": 8, "note": 59, "velocity": 0, "time": 0, "type": "NormalMsg"}, "M_13300": {"note_status": 1, "channel": 8, "note": 62, "velocity": 0, "time": 0, "type": "NormalMsg"}, "M_13301": {"note_status": 1, "channel": 8, "note": 55, "velocity": 0, "time": 0, "type": "NormalMsg"}, "M_13302": {"note_status": 1, "channel": 8, "note": 57, "velocity": 79, "time": 0, "type": "NormalMsg"}, "M_13303": {"note_status": 1, "channel": 8, "note": 60, "velocity": 78, "time": 0, "type": "NormalMsg"}, "M_13304": {"note_status": 1, "channel": 8, "note": 64, "velocity": 80, "time": 0, "type": "NormalMsg"}, "M_13305": {"note_status": 1, "channel": 8, "note": 57, "velocity": 0, "time": 0, "type": "NormalMsg"}, "M_13306": {"note_status": 1, "channel": 8, "note": 60, "velocity": 0, "time": 0, "type": "NormalMsg"}, "M_13307": {"note_status": 1, "channel": 8, "note": 53, "velocity": 80, "time": 0, "type": "NormalMsg"}, "M_13308": {"note_status": 1, "channel": 8, "note": 57, "velocity": 78, "time": 0, "type": "NormalMsg"}, "M_13309": {"note_status": 1, "channel": 8, "note": 60, "velocity": 77, "time": 0, "type": "NormalMsg"}, "M_13310": {"note_status": 1, "channel": 8, "note": 64, "velocity": 0, "time": 0, "type": "NormalMsg"}, "M_13311": {"note_status": 1, "channel": 8, "note": 53, "velocity": 0, "time": 0, "type": "NormalMsg"}, "M_13312": {"note_status": 1, "channel": 8, "note": 57, "velocity": 0, "time": 0, "type": "NormalMsg"}, "M_13313": {"note_status": 1, "channel": 8, "note": 53, "velocity": 84, "time": 0, "type": "NormalMsg"}, "M_13314": {"note_status": 1, "channel": 8, "note": 57, "velocity": 77, "time": 0, "type": "NormalMsg"}, "M_13315": {"note_status": 1, "channel": 8, "note": 62, "velocity": 82, "time": 0, "type": "NormalMsg"}, "M_13316": {"note_status": 1, "channel": 8, "note": 60, "velocity": 0, "time": 0, "type": "NormalMsg"}, "M_13317": {"note_status": 1, "channel": 8, "note": 62, "velocity": 0, "time": 0, "type": "NormalMsg"}, "M_13318": {"note_status": 1, "channel": 8, "note": 55, "velocity": 80, "time": 0, "type": "NormalMsg"}, "M_13319": {"note_status": 1, "channel": 8, "note": 59, "velocity": 82, "time": 0, "type": "NormalMsg"}, "M_13320": {"note_status": 1, "channel": 8, "note": 62, "velocity": 73, "time": 0, "type": "NormalMsg"}, "M_13321": {"note_status": 1, "channel": 8, "note": 53, "velocity": 0, "time": 0, "type": "NormalMsg"}, "M_13322": {"note_status": 1, "channel": 8, "note": 57, "velocity": 0, "time": 0, "type": "NormalMsg"}, "M_13323": {"note_status": 1, "channel": 8, "note": 59, "velocity": 0, "time": 0, "type": "NormalMsg"}, "M_13324": {"note_status": 1, "channel": 8, "note": 57, "velocity": 76, "time": 0, "type": "NormalMsg"}, "M_13325": {"note_status": 1, "channel": 8, "note": 60, "velocity": 82, "time": 0, "type": "NormalMsg"}, "M_13326": {"note_status": 1, "channel": 8, "note": 62, "velocity": 0, "time": 0, "type": "NormalMsg"}, "M_13327": {"note_status": 1, "channel": 8, "note": 64, "velocity": 80, "time": 0, "type": "NormalMsg"}, "M_13328": {"note_status": 1, "channel": 8, "note": 55, "velocity": 0, "time": 0, "type": "NormalMsg"}, "M_13329": {"note_status": 1, "channel": 8, "note": 57, "velocity": 0, "time": 0, "type": "NormalMsg"}, "M_13330": {"note_status": 1, "channel": 8, "note": 60, "velocity": 0, "time": 0, "type": "NormalMsg"}, "M_13331": {"note_status": 1, "channel": 8, "note": 53, "velocity": 76, "time": 0, "type": "NormalMsg"}, "M_13332": {"note_status": 1, "channel": 8, "note": 57, "velocity": 80, "time": 0, "type": "NormalMsg"}, "M_13333": {"note_status": 1, "channel": 8, "note": 60, "velocity": 79, "time": 0, "type": "NormalMsg"}, "M_13334": {"note_status": 1, "channel": 8, "note": 64, "velocity": 0, "time": 0, "type": "NormalMsg"}, "M_13335": {"note_status": 1, "channel": 8, "note": 55, "velocity": 82, "time": 0, "type": "NormalMsg"}, "M_13336": {"note_status": 1, "channel": 8, "note": 59, "velocity": 82, "time": 0, "type": "NormalMsg"}, "M_13337": {"note_status": 1, "channel": 8, "note": 62, "velocity": 77, "time": 0, "type": "NormalMsg"}, "M_13338": {"note_status": 1, "channel": 8, "note": 53, "velocity": 0, "time": 0, "type": "NormalMsg"}, "M_13339": {"note_status": 1, "channel": 8, "note": 57, "velocity": 0, "time": 0, "type": "NormalMsg"}, "M_13340": {"note_status": 1, "channel": 8, "note": 60, "velocity": 0, "time": 0, "type": "NormalMsg"}, "M_13341": {"note_status": 1, "channel": 8, "note": 59, "velocity": 0, "time": 0, "type": "NormalMsg"}, "M_13342": {"note_status": 1, "channel": 8, "note": 55, "velocity": 0, "time": 0, "type": "NormalMsg"}, "M_13343": {"note_status": 1, "channel": 8, "note": 62, "velocity": 0, "time": 0, "type": "NormalMsg"}, "M_13344": {"note_status": 1, "channel": 8, "note": 53, "velocity": 97, "time": 0, "type": "NormalMsg"}, "M_13345": {"note_status": 1, "channel": 8, "note": 57, "velocity": 77, "time": 0, "type": "NormalMsg"}, "M_13346": {"note_status": 1, "channel": 8, "note": 60, "velocity": 86, "time": 0, "type": "NormalMsg"}, "M_13347": {"note_status": 1, "channel": 8, "note": 53, "velocity": 0, "time": 0, "type": "NormalMsg"}, "M_13348": {"note_status": 1, "channel": 8, "note": 55, "velocity": 91, "time": 0, "type": "NormalMsg"}, "M_13349": {"note_status": 1, "channel": 8, "note": 57, "velocity": 0, "time": 0, "type": "NormalMsg"}, "M_13350": {"note_status": 1, "channel": 8, "note": 59, "velocity": 75, "time": 0, "type": "NormalMsg"}, "M_13351": {"note_status": 1, "channel": 8, "note": 62, "velocity": 86, "time": 0, "type": "NormalMsg"}, "M_13352": {"note_status": 1, "channel": 8, "note": 60, "velocity": 0, "time": 0, "type": "NormalMsg"}, "M_13353": {"note_status": 1, "channel": 8, "note": 55, "velocity": 0, "time": 0, "type": "NormalMsg"}, "M_13354": {"note_status": 1, "channel": 8, "note": 53, "velocity": 81, "time": 0, "type": "NormalMsg"}, "M_13355": {"note_status": 1, "channel": 8, "note": 57, "velocity": 73, "time": 0, "type": "NormalMsg"}, "M_13356": {"note_status": 1, "channel": 8, "note": 59, "velocity": 0, "time": 0, "type": "NormalMsg"}, "M_13357": {"note_status": 1, "channel": 8, "note": 60, "velocity": 83, "time": 0, "type": "NormalMsg"}, "M_13358": {"note_status": 1, "channel": 8, "note": 62, "velocity": 0, "time": 0, "type": "NormalMsg"}, "M_13359": {"note_status": 1, "channel": 8, "note": 55, "velocity": 94, "time": 0, "type": "NormalMsg"}, "M_13360": {"note_status": 1, "channel": 8, "note": 57, "velocity": 0, "time": 0, "type": "NormalMsg"}, "M_13361": {"note_status": 1, "channel": 8, "note": 59, "velocity": 81, "time": 0, "type": "NormalMsg"}, "M_13362": {"note_status": 1, "channel": 8, "note": 62, "velocity": 86, "time": 0, "type": "NormalMsg"}, "M_13363": {"note_status": 1, "channel": 8, "note": 53, "velocity": 0, "time": 0, "type": "NormalMsg"}, "M_13364": {"note_status": 1, "channel": 8, "note": 60, "velocity": 0, "time": 0, "type": "NormalMsg"}, "M_13365": {"note_status": 1, "channel": 8, "note": 53, "velocity": 81, "time": 0, "type": "NormalMsg"}, "M_13366": {"note_status": 1, "channel": 8, "note": 55, "velocity": 0, "time": 0, "type": "NormalMsg"}, "M_13367": {"note_status": 1, "channel": 8, "note": 57, "velocity": 71, "time": 0, "type": "NormalMsg"}, "M_13368": {"note_status": 1, "channel": 8, "note": 59, "velocity": 0, "time": 0, "type": "NormalMsg"}, "M_13369": {"note_status": 1, "channel": 8, "note": 60, "velocity": 77, "time": 0, "type": "NormalMsg"}, "M_13370": {"note_status": 1, "channel": 8, "note": 62, "velocity": 0, "time": 0, "type": "NormalMsg"}, "M_13371": {"note_status": 1, "channel": 8, "note": 55, "velocity": 94, "time": 0, "type": "NormalMsg"}, "M_13372": {"note_status": 1, "channel": 8, "note": 57, "velocity": 0, "time": 0, "type": "NormalMsg"}, "M_13373": {"note_status": 1, "channel": 8, "note": 59, "velocity": 79, "time": 0, "type": "NormalMsg"}, "M_13374": {"note_status": 1, "channel": 8, "note": 62, "velocity": 88, "time": 0, "type": "NormalMsg"}, "M_13375": {"note_status": 1, "channel": 8, "note": 53, "velocity": 0, "time": 0, "type": "NormalMsg"}, "M_13376": {"note_status": 1, "channel": 8, "note": 60, "velocity": 0, "time": 0, "type": "NormalMsg"}, "M_13377": {"note_status": 1, "channel": 8, "note": 55, "velocity": 0, "time": 0, "type": "NormalMsg"}, "M_13378": {"note_status": 1, "channel": 8, "note": 62, "velocity": 0, "time": 0, "type": "NormalMsg"}, "M_13379": {"note_status": 1, "channel": 8, "note": 59, "velocity": 0, "time": 0, "type": "NormalMsg"}, "M_13380": {"note_status": 1, "channel": 8, "note": 57, "velocity": 127, "time": 0, "type": "NormalMsg"}, "M_13381": {"note_status": 1, "channel": 8, "note": 57, "velocity": 0, "time": 0, "type": "NormalMsg"}, "R_13382": {"note_status": 0, "channel": 0, "note": 0, "velocity": 0, "time": 0, "type": "ResetMsg"}, "R_13383": {"note_status": 0, "channel": 0, "note": 0, "velocity": 0, "time": 0, "type": "ResetMsg"}, "U_13384": {"note_status": 0, "channel": 0, "note": 0, "velocity": 0, "time": 0, "type": "DummyType"}, "M_13385": {"note_status": 1, "channel": 10, "note": 67, "velocity": 113, "time": 0, "type": "NormalMsg"}, "M_13386": {"note_status": 1, "channel": 10, "note": 67, "velocity": 0, "time": 0, "type": "NormalMsg"}, "M_13387": {"note_status": 1, "channel": 10, "note": 62, "velocity": 97, "time": 0, "type": "NormalMsg"}, "M_13388": {"note_status": 1, "channel": 10, "note": 62, "velocity": 0, "time": 0, "type": "NormalMsg"}, "M_13389": {"note_status": 1, "channel": 10, "note": 71, "velocity": 108, "time": 0, "type": "NormalMsg"}, "M_13390": {"note_status": 1, "channel": 10, "note": 71, "velocity": 0, "time": 0, "type": "NormalMsg"}, "M_13391": {"note_status": 1, "channel": 10, "note": 72, "velocity": 112, "time": 0, "type": "NormalMsg"}, "M_13392": {"note_status": 1, "channel": 10, "note": 71, "velocity": 113, "time": 0, "type": "NormalMsg"}, "M_13393": {"note_status": 1, "channel": 10, "note": 72, "velocity": 0, "time": 0, "type": "NormalMsg"}, "M_13394": {"note_status": 1, "channel": 10, "note": 67, "velocity": 97, "time": 0, "type": "NormalMsg"}, "M_13395": {"note_status": 1, "channel": 10, "note": 71, "velocity": 0, "time": 0, "type": "NormalMsg"}, "M_13396": {"note_status": 1, "channel": 10, "note": 67, "velocity": 0, "time": 0, "type": "NormalMsg"}, "M_13397": {"note_status": 1, "channel": 10, "note": 67, "velocity": 104, "time": 0, "type": "NormalMsg"}, "M_13398": {"note_status": 1, "channel": 10, "note": 67, "velocity": 0, "time": 0, "type": "NormalMsg"}, "M_13399": {"note_status": 1, "channel": 10, "note": 76, "velocity": 127, "time": 0, "type": "NormalMsg"}, "M_13400": {"note_status": 1, "channel": 10, "note": 76, "velocity": 0, "time": 0, "type": "NormalMsg"}, "M_13401": {"note_status": 1, "channel": 10, "note": 76, "velocity": 117, "time": 0, "type": "NormalMsg"}, "M_13402": {"note_status": 1, "channel": 10, "note": 76, "velocity": 0, "time": 0, "type": "NormalMsg"}, "M_13403": {"note_status": 1, "channel": 10, "note": 76, "velocity": 122, "time": 0, "type": "NormalMsg"}, "M_13404": {"note_status": 1, "channel": 10, "note": 72, "velocity": 117, "time": 0, "type": "NormalMsg"}, "M_13405": {"note_status": 1, "channel": 10, "note": 76, "velocity": 0, "time": 0, "type": "NormalMsg"}, "M_13406": {"note_status": 1, "channel": 10, "note": 72, "velocity": 0, "time": 0, "type": "NormalMsg"}, "M_13407": {"note_status": 1, "channel": 10, "note": 72, "velocity": 122, "time": 0, "type": "NormalMsg"}, "M_13408": {"note_status": 1, "channel": 10, "note": 72, "velocity": 0, "time": 0, "type": "NormalMsg"}, "M_13409": {"note_status": 1, "channel": 10, "note": 71, "velocity": 122, "time": 0, "type": "NormalMsg"}, "M_13410": {"note_status": 1, "channel": 10, "note": 71, "velocity": 0, "time": 0, "type": "NormalMsg"}, "M_13411": {"note_status": 1, "channel": 10, "note": 69, "velocity": 127, "time": 0, "type": "NormalMsg"}, "M_13412": {"note_status": 1, "channel": 10, "note": 69, "velocity": 0, "time": 0, "type": "NormalMsg"}, "M_13413": {"note_status": 1, "channel": 10, "note": 67, "velocity": 122, "time": 0, "type": "NormalMsg"}, "M_13414": {"note_status": 1, "channel": 10, "note": 67, "velocity": 0, "time": 0, "type": "NormalMsg"}, "M_13415": {"note_status": 1, "channel": 10, "note": 67, "velocity": 117, "time": 0, "type": "NormalMsg"}, "M_13416": {"note_status": 1, "channel": 10, "note": 67, "velocity": 0, "time": 0, "type": "NormalMsg"}, "M_13417": {"note_status": 1, "channel": 10, "note": 67, "velocity": 113, "time": 0, "type": "NormalMsg"}, "M_13418": {"note_status": 1, "channel": 10, "note": 67, "velocity": 0, "time": 0, "type": "NormalMsg"}, "M_13419": {"note_status": 1, "channel": 10, "note": 62, "velocity": 97, "time": 0, "type": "NormalMsg"}, "M_13420": {"note_status": 1, "channel": 10, "note": 62, "velocity": 0, "time": 0, "type": "NormalMsg"}, "M_13421": {"note_status": 1, "channel": 10, "note": 71, "velocity": 108, "time": 0, "type": "NormalMsg"}, "M_13422": {"note_status": 1, "channel": 10, "note": 71, "velocity": 0, "time": 0, "type": "NormalMsg"}, "M_13423": {"note_status": 1, "channel": 10, "note": 72, "velocity": 112, "time": 0, "type": "NormalMsg"}, "M_13424": {"note_status": 1, "channel": 10, "note": 71, "velocity": 113, "time": 0, "type": "NormalMsg"}, "M_13425": {"note_status": 1, "channel": 10, "note": 72, "velocity": 0, "time": 0, "type": "NormalMsg"}, "M_13426": {"note_status": 1, "channel": 10, "note": 67, "velocity": 97, "time": 0, "type": "NormalMsg"}, "M_13427": {"note_status": 1, "channel": 10, "note": 71, "velocity": 0, "time": 0, "type": "NormalMsg"}, "M_13428": {"note_status": 1, "channel": 10, "note": 67, "velocity": 0, "time": 0, "type": "NormalMsg"}, "M_13429": {"note_status": 1, "channel": 10, "note": 69, "velocity": 104, "time": 0, "type": "NormalMsg"}, "M_13430": {"note_status": 1, "channel": 10, "note": 72, "velocity": 113, "time": 0, "type": "NormalMsg"}, "M_13431": {"note_status": 1, "channel": 10, "note": 69, "velocity": 0, "time": 0, "type": "NormalMsg"}, "M_13432": {"note_status": 1, "channel": 10, "note": 72, "velocity": 0, "time": 0, "type": "NormalMsg"}, "M_13433": {"note_status": 1, "channel": 10, "note": 69, "velocity": 127, "time": 0, "type": "NormalMsg"}, "M_13434": {"note_status": 1, "channel": 10, "note": 69, "velocity": 0, "time": 0, "type": "NormalMsg"}, "M_13435": {"note_status": 1, "channel": 10, "note": 67, "velocity": 101, "time": 0, "type": "NormalMsg"}, "M_13436": {"note_status": 1, "channel": 10, "note": 67, "velocity": 0, "time": 0, "type": "NormalMsg"}, "M_13437": {"note_status": 1, "channel": 10, "note": 67, "velocity": 117, "time": 0, "type": "NormalMsg"}, "M_13438": {"note_status": 1, "channel": 10, "note": 67, "velocity": 0, "time": 0, "type": "NormalMsg"}, "M_13439": {"note_status": 1, "channel": 10, "note": 69, "velocity": 122, "time": 0, "type": "NormalMsg"}, "M_13440": {"note_status": 1, "channel": 10, "note": 69, "velocity": 0, "time": 0, "type": "NormalMsg"}, "M_13441": {"note_status": 1, "channel": 10, "note": 72, "velocity": 104, "time": 0, "type": "NormalMsg"}, "M_13442": {"note_status": 1, "channel": 10, "note": 72, "velocity": 0, "time": 0, "type": "NormalMsg"}, "M_13443": {"note_status": 1, "channel": 10, "note": 72, "velocity": 122, "time": 0, "type": "NormalMsg"}, "M_13444": {"note_status": 1, "channel": 10, "note": 72, "velocity": 0, "time": 0, "type": "NormalMsg"}, "M_13445": {"note_status": 1, "channel": 10, "note": 62, "velocity": 122, "time": 0, "type": "NormalMsg"}, "M_13446": {"note_status": 1, "channel": 10, "note": 62, "velocity": 0, "time": 0, "type": "NormalMsg"}, "M_13447": {"note_status": 1, "channel": 10, "note": 71, "velocity": 127, "time": 0, "type": "NormalMsg"}, "M_13448": {"note_status": 1, "channel": 10, "note": 71, "velocity": 0, "time": 0, "type": "NormalMsg"}, "M_13449": {"note_status": 1, "channel": 10, "note": 72, "velocity": 127, "time": 0, "type": "NormalMsg"}, "M_13450": {"note_status": 1, "channel": 10, "note": 71, "velocity": 127, "time": 0, "type": "NormalMsg"}, "M_13451": {"note_status": 1, "channel": 10, "note": 72, "velocity": 0, "time": 0, "type": "NormalMsg"}, "M_13452": {"note_status": 1, "channel": 10, "note": 71, "velocity": 0, "time": 0, "type": "NormalMsg"}, "M_13453": {"note_status": 1, "channel": 10, "note": 67, "velocity": 122, "time": 0, "type": "NormalMsg"}, "M_13454": {"note_status": 1, "channel": 10, "note": 67, "velocity": 0, "time": 0, "type": "NormalMsg"}, "M_13455": {"note_status": 1, "channel": 10, "note": 67, "velocity": 117, "time": 0, "type": "NormalMsg"}, "M_13456": {"note_status": 1, "channel": 10, "note": 67, "velocity": 0, "time": 0, "type": "NormalMsg"}, "M_13457": {"note_status": 1, "channel": 10, "note": 69, "velocity": 122, "time": 0, "type": "NormalMsg"}, "M_13458": {"note_status": 1, "channel": 10, "note": 69, "velocity": 0, "time": 0, "type": "NormalMsg"}, "M_13459": {"note_status": 1, "channel": 10, "note": 71, "velocity": 108, "time": 0, "type": "NormalMsg"}, "M_13460": {"note_status": 1, "channel": 10, "note": 71, "velocity": 0, "time": 0, "type": "NormalMsg"}, "M_13461": {"note_status": 1, "channel": 10, "note": 72, "velocity": 122, "time": 0, "type": "NormalMsg"}, "M_13462": {"note_status": 1, "channel": 10, "note": 72, "velocity": 0, "time": 0, "type": "NormalMsg"}, "M_13463": {"note_status": 1, "channel": 10, "note": 64, "velocity": 101, "time": 0, "type": "NormalMsg"}, "M_13464": {"note_status": 1, "channel": 10, "note": 64, "velocity": 0, "time": 0, "type": "NormalMsg"}, "M_13465": {"note_status": 1, "channel": 10, "note": 69, "velocity": 117, "time": 0, "type": "NormalMsg"}, "M_13466": {"note_status": 1, "channel": 10, "note": 69, "velocity": 0, "time": 0, "type": "NormalMsg"}, "M_13467": {"note_status": 1, "channel": 10, "note": 71, "velocity": 104, "time": 0, "type": "NormalMsg"}, "M_13468": {"note_status": 1, "channel": 10, "note": 72, "velocity": 122, "time": 0, "type": "NormalMsg"}, "M_13469": {"note_status": 1, "channel": 10, "note": 71, "velocity": 0, "time": 0, "type": "NormalMsg"}, "M_13470": {"note_status": 1, "channel": 10, "note": 72, "velocity": 0, "time": 0, "type": "NormalMsg"}, "M_13471": {"note_status": 1, "channel": 10, "note": 64, "velocity": 91, "time": 0, "type": "NormalMsg"}, "M_13472": {"note_status": 1, "channel": 10, "note": 64, "velocity": 0, "time": 0, "type": "NormalMsg"}, "M_13473": {"note_status": 1, "channel": 10, "note": 71, "velocity": 127, "time": 0, "type": "NormalMsg"}, "M_13474": {"note_status": 1, "channel": 10, "note": 71, "velocity": 0, "time": 0, "type": "NormalMsg"}, "M_13475": {"note_status": 1, "channel": 10, "note": 72, "velocity": 108, "time": 0, "type": "NormalMsg"}, "M_13476": {"note_status": 1, "channel": 10, "note": 72, "velocity": 0, "time": 0, "type": "NormalMsg"}, "M_13477": {"note_status": 1, "channel": 10, "note": 74, "velocity": 122, "time": 0, "type": "NormalMsg"}, "M_13478": {"note_status": 1, "channel": 10, "note": 74, "velocity": 0, "time": 0, "type": "NormalMsg"}, "M_13479": {"note_status": 1, "channel": 10, "note": 76, "velocity": 122, "time": 0, "type": "NormalMsg"}, "M_13480": {"note_status": 1, "channel": 10, "note": 76, "velocity": 0, "time": 0, "type": "NormalMsg"}, "M_13481": {"note_status": 1, "channel": 10, "note": 74, "velocity": 127, "time": 0, "type": "NormalMsg"}, "M_13482": {"note_status": 1, "channel": 10, "note": 74, "velocity": 0, "time": 0, "type": "NormalMsg"}, "M_13483": {"note_status": 1, "channel": 10, "note": 69, "velocity": 127, "time": 0, "type": "NormalMsg"}, "M_13484": {"note_status": 1, "channel": 10, "note": 69, "velocity": 0, "time": 0, "type": "NormalMsg"}, "M_13485": {"note_status": 1, "channel": 10, "note": 72, "velocity": 127, "time": 0, "type": "NormalMsg"}, "M_13486": {"note_status": 1, "channel": 10, "note": 72, "velocity": 0, "time": 0, "type": "NormalMsg"}, "M_13487": {"note_status": 1, "channel": 10, "note": 74, "velocity": 127, "time": 0, "type": "NormalMsg"}, "M_13488": {"note_status": 1, "channel": 10, "note": 74, "velocity": 0, "time": 0, "type": "NormalMsg"}, "M_13489": {"note_status": 1, "channel": 10, "note": 76, "velocity": 127, "time": 0, "type": "NormalMsg"}, "M_13490": {"note_status": 1, "channel": 10, "note": 76, "velocity": 0, "time": 0, "type": "NormalMsg"}, "M_13491": {"note_status": 1, "channel": 10, "note": 76, "velocity": 127, "time": 0, "type": "NormalMsg"}, "M_13492": {"note_status": 1, "channel": 10, "note": 76, "velocity": 0, "time": 0, "type": "NormalMsg"}, "M_13493": {"note_status": 1, "channel": 10, "note": 72, "velocity": 117, "time": 0, "type": "NormalMsg"}, "M_13494": {"note_status": 1, "channel": 10, "note": 72, "velocity": 0, "time": 0, "type": "NormalMsg"}, "M_13495": {"note_status": 1, "channel": 10, "note": 74, "velocity": 122, "time": 0, "type": "NormalMsg"}, "M_13496": {"note_status": 1, "channel": 10, "note": 74, "velocity": 0, "time": 0, "type": "NormalMsg"}, "M_13497": {"note_status": 1, "channel": 10, "note": 72, "velocity": 113, "time": 0, "type": "NormalMsg"}, "M_13498": {"note_status": 1, "channel": 10, "note": 72, "velocity": 0, "time": 0, "type": "NormalMsg"}, "M_13499": {"note_status": 1, "channel": 10, "note": 74, "velocity": 122, "time": 0, "type": "NormalMsg"}, "M_13500": {"note_status": 1, "channel": 10, "note": 74, "velocity": 0, "time": 0, "type": "NormalMsg"}, "M_13501": {"note_status": 1, "channel": 10, "note": 77, "velocity": 101, "time": 0, "type": "NormalMsg"}, "M_13502": {"note_status": 1, "channel": 10, "note": 77, "velocity": 0, "time": 0, "type": "NormalMsg"}, "M_13503": {"note_status": 1, "channel": 10, "note": 69, "velocity": 127, "time": 0, "type": "NormalMsg"}, "M_13504": {"note_status": 1, "channel": 10, "note": 69, "velocity": 0, "time": 0, "type": "NormalMsg"}, "M_13505": {"note_status": 1, "channel": 10, "note": 72, "velocity": 127, "time": 0, "type": "NormalMsg"}, "M_13506": {"note_status": 1, "channel": 10, "note": 72, "velocity": 0, "time": 0, "type": "NormalMsg"}, "M_13507": {"note_status": 1, "channel": 10, "note": 74, "velocity": 127, "time": 0, "type": "NormalMsg"}, "M_13508": {"note_status": 1, "channel": 10, "note": 74, "velocity": 0, "time": 0, "type": "NormalMsg"}, "M_13509": {"note_status": 1, "channel": 10, "note": 76, "velocity": 127, "time": 0, "type": "NormalMsg"}, "M_13510": {"note_status": 1, "channel": 10, "note": 76, "velocity": 0, "time": 0, "type": "NormalMsg"}, "M_13511": {"note_status": 1, "channel": 10, "note": 76, "velocity": 127, "time": 0, "type": "NormalMsg"}, "M_13512": {"note_status": 1, "channel": 10, "note": 76, "velocity": 0, "time": 0, "type": "NormalMsg"}, "M_13513": {"note_status": 1, "channel": 10, "note": 62, "velocity": 104, "time": 0, "type": "NormalMsg"}, "M_13514": {"note_status": 1, "channel": 10, "note": 62, "velocity": 0, "time": 0, "type": "NormalMsg"}, "M_13515": {"note_status": 1, "channel": 10, "note": 71, "velocity": 106, "time": 0, "type": "NormalMsg"}, "M_13516": {"note_status": 1, "channel": 10, "note": 71, "velocity": 0, "time": 0, "type": "NormalMsg"}, "M_13517": {"note_status": 1, "channel": 10, "note": 69, "velocity": 106, "time": 0, "type": "NormalMsg"}, "M_13518": {"note_status": 1, "channel": 10, "note": 69, "velocity": 0, "time": 0, "type": "NormalMsg"}, "M_13519": {"note_status": 1, "channel": 10, "note": 67, "velocity": 113, "time": 0, "type": "NormalMsg"}, "M_13520": {"note_status": 1, "channel": 10, "note": 67, "velocity": 0, "time": 0, "type": "NormalMsg"}, "M_13521": {"note_status": 1, "channel": 10, "note": 69, "velocity": 127, "time": 0, "type": "NormalMsg"}, "M_13522": {"note_status": 1, "channel": 10, "note": 69, "velocity": 0, "time": 0, "type": "NormalMsg"}, "M_13523": {"note_status": 1, "channel": 10, "note": 72, "velocity": 127, "time": 0, "type": "NormalMsg"}, "M_13524": {"note_status": 1, "channel": 10, "note": 72, "velocity": 0, "time": 0, "type": "NormalMsg"}, "M_13525": {"note_status": 1, "channel": 10, "note": 74, "velocity": 127, "time": 0, "type": "NormalMsg"}, "M_13526": {"note_status": 1, "channel": 10, "note": 74, "velocity": 0, "time": 0, "type": "NormalMsg"}, "M_13527": {"note_status": 1, "channel": 10, "note": 76, "velocity": 127, "time": 0, "type": "NormalMsg"}, "M_13528": {"note_status": 1, "channel": 10, "note": 76, "velocity": 0, "time": 0, "type": "NormalMsg"}, "M_13529": {"note_status": 1, "channel": 10, "note": 76, "velocity": 127, "time": 0, "type": "NormalMsg"}, "M_13530": {"note_status": 1, "channel": 10, "note": 76, "velocity": 0, "time": 0, "type": "NormalMsg"}, "M_13531": {"note_status": 1, "channel": 10, "note": 72, "velocity": 117, "time": 0, "type": "NormalMsg"}, "M_13532": {"note_status": 1, "channel": 10, "note": 72, "velocity": 0, "time": 0, "type": "NormalMsg"}, "M_13533": {"note_status": 1, "channel": 10, "note": 74, "velocity": 122, "time": 0, "type": "NormalMsg"}, "M_13534": {"note_status": 1, "channel": 10, "note": 74, "velocity": 0, "time": 0, "type": "NormalMsg"}, "M_13535": {"note_status": 1, "channel": 10, "note": 72, "velocity": 113, "time": 0, "type": "NormalMsg"}, "M_13536": {"note_status": 1, "channel": 10, "note": 72, "velocity": 0, "time": 0, "type": "NormalMsg"}, "M_13537": {"note_status": 1, "channel": 10, "note": 74, "velocity": 122, "time": 0, "type": "NormalMsg"}, "M_13538": {"note_status": 1, "channel": 10, "note": 74, "velocity": 0, "time": 0, "type": "NormalMsg"}, "M_13539": {"note_status": 1, "channel": 10, "note": 77, "velocity": 101, "time": 0, "type": "NormalMsg"}, "M_13540": {"note_status": 1, "channel": 10, "note": 77, "velocity": 0, "time": 0, "type": "NormalMsg"}, "M_13541": {"note_status": 1, "channel": 10, "note": 72, "velocity": 127, "time": 0, "type": "NormalMsg"}, "M_13542": {"note_status": 1, "channel": 10, "note": 72, "velocity": 0, "time": 0, "type": "NormalMsg"}, "M_13543": {"note_status": 1, "channel": 10, "note": 74, "velocity": 127, "time": 0, "type": "NormalMsg"}, "M_13544": {"note_status": 1, "channel": 10, "note": 74, "velocity": 0, "time": 0, "type": "NormalMsg"}, "M_13545": {"note_status": 1, "channel": 10, "note": 76, "velocity": 127, "time": 0, "type": "NormalMsg"}, "M_13546": {"note_status": 1, "channel": 10, "note": 76, "velocity": 0, "time": 0, "type": "NormalMsg"}, "M_13547": {"note_status": 1, "channel": 10, "note": 76, "velocity": 127, "time": 0, "type": "NormalMsg"}, "M_13548": {"note_status": 1, "channel": 10, "note": 67, "velocity": 106, "time": 0, "type": "NormalMsg"}, "M_13549": {"note_status": 1, "channel": 10, "note": 67, "velocity": 0, "time": 0, "type": "NormalMsg"}, "M_13550": {"note_status": 1, "channel": 10, "note": 76, "velocity": 0, "time": 0, "type": "NormalMsg"}, "M_13551": {"note_status": 1, "channel": 10, "note": 71, "velocity": 104, "time": 0, "type": "NormalMsg"}, "M_13552": {"note_status": 1, "channel": 10, "note": 71, "velocity": 0, "time": 0, "type": "NormalMsg"}, "M_13553": {"note_status": 1, "channel": 10, "note": 71, "velocity": 106, "time": 0, "type": "NormalMsg"}, "M_13554": {"note_status": 1, "channel": 10, "note": 71, "velocity": 0, "time": 0, "type": "NormalMsg"}, "M_13555": {"note_status": 1, "channel": 10, "note": 69, "velocity": 106, "time": 0, "type": "NormalMsg"}, "M_13556": {"note_status": 1, "channel": 10, "note": 67, "velocity": 106, "time": 0, "type": "NormalMsg"}, "M_13557": {"note_status": 1, "channel": 10, "note": 69, "velocity": 0, "time": 0, "type": "NormalMsg"}, "M_13558": {"note_status": 1, "channel": 10, "note": 67, "velocity": 0, "time": 0, "type": "NormalMsg"}, "M_13559": {"note_status": 1, "channel": 10, "note": 67, "velocity": 113, "time": 0, "type": "NormalMsg"}, "M_13560": {"note_status": 1, "channel": 10, "note": 67, "velocity": 0, "time": 0, "type": "NormalMsg"}, "M_13561": {"note_status": 1, "channel": 10, "note": 67, "velocity": 113, "time": 0, "type": "NormalMsg"}, "M_13562": {"note_status": 1, "channel": 10, "note": 67, "velocity": 0, "time": 0, "type": "NormalMsg"}, "M_13563": {"note_status": 1, "channel": 10, "note": 62, "velocity": 97, "time": 0, "type": "NormalMsg"}, "M_13564": {"note_status": 1, "channel": 10, "note": 62, "velocity": 0, "time": 0, "type": "NormalMsg"}, "M_13565": {"note_status": 1, "channel": 10, "note": 71, "velocity": 108, "time": 0, "type": "NormalMsg"}, "M_13566": {"note_status": 1, "channel": 10, "note": 71, "velocity": 0, "time": 0, "type": "NormalMsg"}, "M_13567": {"note_status": 1, "channel": 10, "note": 72, "velocity": 112, "time": 0, "type": "NormalMsg"}, "M_13568": {"note_status": 1, "channel": 10, "note": 71, "velocity": 113, "time": 0, "type": "NormalMsg"}, "M_13569": {"note_status": 1, "channel": 10, "note": 72, "velocity": 0, "time": 0, "type": "NormalMsg"}, "M_13570": {"note_status": 1, "channel": 10, "note": 67, "velocity": 97, "time": 0, "type": "NormalMsg"}, "M_13571": {"note_status": 1, "channel": 10, "note": 71, "velocity": 0, "time": 0, "type": "NormalMsg"}, "M_13572": {"note_status": 1, "channel": 10, "note": 67, "velocity": 0, "time": 0, "type": "NormalMsg"}, "M_13573": {"note_status": 1, "channel": 10, "note": 67, "velocity": 104, "time": 0, "type": "NormalMsg"}, "M_13574": {"note_status": 1, "channel": 10, "note": 67, "velocity": 0, "time": 0, "type": "NormalMsg"}, "M_13575": {"note_status": 1, "channel": 10, "note": 76, "velocity": 127, "time": 0, "type": "NormalMsg"}, "M_13576": {"note_status": 1, "channel": 10, "note": 76, "velocity": 0, "time": 0, "type": "NormalMsg"}, "M_13577": {"note_status": 1, "channel": 10, "note": 76, "velocity": 117, "time": 0, "type": "NormalMsg"}, "M_13578": {"note_status": 1, "channel": 10, "note": 76, "velocity": 0, "time": 0, "type": "NormalMsg"}, "M_13579": {"note_status": 1, "channel": 10, "note": 76, "velocity": 122, "time": 0, "type": "NormalMsg"}, "M_13580": {"note_status": 1, "channel": 10, "note": 72, "velocity": 117, "time": 0, "type": "NormalMsg"}, "M_13581": {"note_status": 1, "channel": 10, "note": 76, "velocity": 0, "time": 0, "type": "NormalMsg"}, "M_13582": {"note_status": 1, "channel": 10, "note": 72, "velocity": 0, "time": 0, "type": "NormalMsg"}, "M_13583": {"note_status": 1, "channel": 10, "note": 72, "velocity": 122, "time": 0, "type": "NormalMsg"}, "M_13584": {"note_status": 1, "channel": 10, "note": 72, "velocity": 0, "time": 0, "type": "NormalMsg"}, "M_13585": {"note_status": 1, "channel": 10, "note": 71, "velocity": 122, "time": 0, "type": "NormalMsg"}, "M_13586": {"note_status": 1, "channel": 10, "note": 71, "velocity": 0, "time": 0, "type": "NormalMsg"}, "M_13587": {"note_status": 1, "channel": 10, "note": 72, "velocity": 127, "time": 0, "type": "NormalMsg"}, "M_13588": {"note_status": 1, "channel": 10, "note": 72, "velocity": 0, "time": 0, "type": "NormalMsg"}, "M_13589": {"note_status": 1, "channel": 10, "note": 71, "velocity": 122, "time": 0, "type": "NormalMsg"}, "M_13590": {"note_status": 1, "channel": 10, "note": 71, "velocity": 0, "time": 0, "type": "NormalMsg"}, "M_13591": {"note_status": 1, "channel": 10, "note": 67, "velocity": 122, "time": 0, "type": "NormalMsg"}, "M_13592": {"note_status": 1, "channel": 10, "note": 67, "velocity": 0, "time": 0, "type": "NormalMsg"}, "M_13593": {"note_status": 1, "channel": 10, "note": 67, "velocity": 117, "time": 0, "type": "NormalMsg"}, "M_13594": {"note_status": 1, "channel": 10, "note": 67, "velocity": 0, "time": 0, "type": "NormalMsg"}, "M_13595": {"note_status": 1, "channel": 10, "note": 67, "velocity": 113, "time": 0, "type": "NormalMsg"}, "M_13596": {"note_status": 1, "channel": 10, "note": 67, "velocity": 0, "time": 0, "type": "NormalMsg"}, "M_13597": {"note_status": 1, "channel": 10, "note": 62, "velocity": 97, "time": 0, "type": "NormalMsg"}, "M_13598": {"note_status": 1, "channel": 10, "note": 62, "velocity": 0, "time": 0, "type": "NormalMsg"}, "M_13599": {"note_status": 1, "channel": 10, "note": 71, "velocity": 108, "time": 0, "type": "NormalMsg"}, "M_13600": {"note_status": 1, "channel": 10, "note": 71, "velocity": 0, "time": 0, "type": "NormalMsg"}, "M_13601": {"note_status": 1, "channel": 10, "note": 72, "velocity": 112, "time": 0, "type": "NormalMsg"}, "M_13602": {"note_status": 1, "channel": 10, "note": 71, "velocity": 113, "time": 0, "type": "NormalMsg"}, "M_13603": {"note_status": 1, "channel": 10, "note": 72, "velocity": 0, "time": 0, "type": "NormalMsg"}, "M_13604": {"note_status": 1, "channel": 10, "note": 67, "velocity": 97, "time": 0, "type": "NormalMsg"}, "M_13605": {"note_status": 1, "channel": 10, "note": 71, "velocity": 0, "time": 0, "type": "NormalMsg"}, "M_13606": {"note_status": 1, "channel": 10, "note": 67, "velocity": 0, "time": 0, "type": "NormalMsg"}, "M_13607": {"note_status": 1, "channel": 10, "note": 69, "velocity": 104, "time": 0, "type": "NormalMsg"}, "M_13608": {"note_status": 1, "channel": 10, "note": 72, "velocity": 113, "time": 0, "type": "NormalMsg"}, "M_13609": {"note_status": 1, "channel": 10, "note": 69, "velocity": 0, "time": 0, "type": "NormalMsg"}, "M_13610": {"note_status": 1, "channel": 10, "note": 72, "velocity": 0, "time": 0, "type": "NormalMsg"}, "M_13611": {"note_status": 1, "channel": 10, "note": 69, "velocity": 127, "time": 0, "type": "NormalMsg"}, "M_13612": {"note_status": 1, "channel": 10, "note": 69, "velocity": 0, "time": 0, "type": "NormalMsg"}, "M_13613": {"note_status": 1, "channel": 10, "note": 67, "velocity": 101, "time": 0, "type": "NormalMsg"}, "M_13614": {"note_status": 1, "channel": 10, "note": 67, "velocity": 0, "time": 0, "type": "NormalMsg"}, "M_13615": {"note_status": 1, "channel": 10, "note": 67, "velocity": 117, "time": 0, "type": "NormalMsg"}, "M_13616": {"note_status": 1, "channel": 10, "note": 67, "velocity": 0, "time": 0, "type": "NormalMsg"}, "M_13617": {"note_status": 1, "channel": 10, "note": 69, "velocity": 122, "time": 0, "type": "NormalMsg"}, "M_13618": {"note_status": 1, "channel": 10, "note": 69, "velocity": 0, "time": 0, "type": "NormalMsg"}, "M_13619": {"note_status": 1, "channel": 10, "note": 71, "velocity": 104, "time": 0, "type": "NormalMsg"}, "M_13620": {"note_status": 1, "channel": 10, "note": 71, "velocity": 0, "time": 0, "type": "NormalMsg"}, "M_13621": {"note_status": 1, "channel": 10, "note": 72, "velocity": 122, "time": 0, "type": "NormalMsg"}, "M_13622": {"note_status": 1, "channel": 10, "note": 72, "velocity": 0, "time": 0, "type": "NormalMsg"}, "M_13623": {"note_status": 1, "channel": 10, "note": 71, "velocity": 127, "time": 0, "type": "NormalMsg"}, "M_13624": {"note_status": 1, "channel": 10, "note": 71, "velocity": 0, "time": 0, "type": "NormalMsg"}, "M_13625": {"note_status": 1, "channel": 10, "note": 72, "velocity": 127, "time": 0, "type": "NormalMsg"}, "M_13626": {"note_status": 1, "channel": 10, "note": 72, "velocity": 0, "time": 0, "type": "NormalMsg"}, "M_13627": {"note_status": 1, "channel": 10, "note": 71, "velocity": 127, "time": 0, "type": "NormalMsg"}, "M_13628": {"note_status": 1, "channel": 10, "note": 71, "velocity": 0, "time": 0, "type": "NormalMsg"}, "M_13629": {"note_status": 1, "channel": 10, "note": 67, "velocity": 122, "time": 0, "type": "NormalMsg"}, "M_13630": {"note_status": 1, "channel": 10, "note": 67, "velocity": 0, "time": 0, "type": "NormalMsg"}, "M_13631": {"note_status": 1, "channel": 10, "note": 67, "velocity": 117, "time": 0, "type": "NormalMsg"}, "M_13632": {"note_status": 1, "channel": 10, "note": 67, "velocity": 0, "time": 0, "type": "NormalMsg"}, "M_13633": {"note_status": 1, "channel": 10, "note": 69, "velocity": 122, "time": 0, "type": "NormalMsg"}, "M_13634": {"note_status": 1, "channel": 10, "note": 69, "velocity": 0, "time": 0, "type": "NormalMsg"}, "M_13635": {"note_status": 1, "channel": 10, "note": 71, "velocity": 108, "time": 0, "type": "NormalMsg"}, "M_13636": {"note_status": 1, "channel": 10, "note": 71, "velocity": 0, "time": 0, "type": "NormalMsg"}, "M_13637": {"note_status": 1, "channel": 10, "note": 72, "velocity": 122, "time": 0, "type": "NormalMsg"}, "M_13638": {"note_status": 1, "channel": 10, "note": 72, "velocity": 0, "time": 0, "type": "NormalMsg"}, "M_13639": {"note_status": 1, "channel": 10, "note": 64, "velocity": 101, "time": 0, "type": "NormalMsg"}, "M_13640": {"note_status": 1, "channel": 10, "note": 64, "velocity": 0, "time": 0, "type": "NormalMsg"}, "M_13641": {"note_status": 1, "channel": 10, "note": 69, "velocity": 117, "time": 0, "type": "NormalMsg"}, "M_13642": {"note_status": 1, "channel": 10, "note": 69, "velocity": 0, "time": 0, "type": "NormalMsg"}, "M_13643": {"note_status": 1, "channel": 10, "note": 71, "velocity": 104, "time": 0, "type": "NormalMsg"}, "M_13644": {"note_status": 1, "channel": 10, "note": 72, "velocity": 122, "time": 0, "type": "NormalMsg"}, "M_13645": {"note_status": 1, "channel": 10, "note": 71, "velocity": 0, "time": 0, "type": "NormalMsg"}, "M_13646": {"note_status": 1, "channel": 10, "note": 72, "velocity": 0, "time": 0, "type": "NormalMsg"}, "M_13647": {"note_status": 1, "channel": 10, "note": 64, "velocity": 91, "time": 0, "type": "NormalMsg"}, "M_13648": {"note_status": 1, "channel": 10, "note": 64, "velocity": 0, "time": 0, "type": "NormalMsg"}, "M_13649": {"note_status": 1, "channel": 10, "note": 71, "velocity": 127, "time": 0, "type": "NormalMsg"}, "M_13650": {"note_status": 1, "channel": 10, "note": 71, "velocity": 0, "time": 0, "type": "NormalMsg"}, "M_13651": {"note_status": 1, "channel": 10, "note": 72, "velocity": 108, "time": 0, "type": "NormalMsg"}, "M_13652": {"note_status": 1, "channel": 10, "note": 72, "velocity": 0, "time": 0, "type": "NormalMsg"}, "M_13653": {"note_status": 1, "channel": 10, "note": 74, "velocity": 122, "time": 0, "type": "NormalMsg"}, "M_13654": {"note_status": 1, "channel": 10, "note": 74, "velocity": 0, "time": 0, "type": "NormalMsg"}, "M_13655": {"note_status": 1, "channel": 10, "note": 76, "velocity": 122, "time": 0, "type": "NormalMsg"}, "M_13656": {"note_status": 1, "channel": 10, "note": 76, "velocity": 0, "time": 0, "type": "NormalMsg"}, "M_13657": {"note_status": 1, "channel": 10, "note": 74, "velocity": 127, "time": 0, "type": "NormalMsg"}, "M_13658": {"note_status": 1, "channel": 10, "note": 74, "velocity": 0, "time": 0, "type": "NormalMsg"}, "M_13659": {"note_status": 1, "channel": 10, "note": 69, "velocity": 127, "time": 0, "type": "NormalMsg"}, "M_13660": {"note_status": 1, "channel": 10, "note": 69, "velocity": 0, "time": 0, "type": "NormalMsg"}, "M_13661": {"note_status": 1, "channel": 10, "note": 72, "velocity": 127, "time": 0, "type": "NormalMsg"}, "M_13662": {"note_status": 1, "channel": 10, "note": 72, "velocity": 0, "time": 0, "type": "NormalMsg"}, "M_13663": {"note_status": 1, "channel": 10, "note": 74, "velocity": 127, "time": 0, "type": "NormalMsg"}, "M_13664": {"note_status": 1, "channel": 10, "note": 74, "velocity": 0, "time": 0, "type": "NormalMsg"}, "M_13665": {"note_status": 1, "channel": 10, "note": 76, "velocity": 127, "time": 0, "type": "NormalMsg"}, "M_13666": {"note_status": 1, "channel": 10, "note": 76, "velocity": 0, "time": 0, "type": "NormalMsg"}, "M_13667": {"note_status": 1, "channel": 10, "note": 76, "velocity": 127, "time": 0, "type": "NormalMsg"}, "M_13668": {"note_status": 1, "channel": 10, "note": 76, "velocity": 0, "time": 0, "type": "NormalMsg"}, "M_13669": {"note_status": 1, "channel": 10, "note": 72, "velocity": 117, "time": 0, "type": "NormalMsg"}, "M_13670": {"note_status": 1, "channel": 10, "note": 72, "velocity": 0, "time": 0, "type": "NormalMsg"}, "M_13671": {"note_status": 1, "channel": 10, "note": 74, "velocity": 122, "time": 0, "type": "NormalMsg"}, "M_13672": {"note_status": 1, "channel": 10, "note": 74, "velocity": 0, "time": 0, "type": "NormalMsg"}, "M_13673": {"note_status": 1, "channel": 10, "note": 72, "velocity": 113, "time": 0, "type": "NormalMsg"}, "M_13674": {"note_status": 1, "channel": 10, "note": 72, "velocity": 0, "time": 0, "type": "NormalMsg"}, "M_13675": {"note_status": 1, "channel": 10, "note": 74, "velocity": 122, "time": 0, "type": "NormalMsg"}, "M_13676": {"note_status": 1, "channel": 10, "note": 74, "velocity": 0, "time": 0, "type": "NormalMsg"}, "M_13677": {"note_status": 1, "channel": 10, "note": 77, "velocity": 101, "time": 0, "type": "NormalMsg"}, "M_13678": {"note_status": 1, "channel": 10, "note": 77, "velocity": 0, "time": 0, "type": "NormalMsg"}, "M_13679": {"note_status": 1, "channel": 10, "note": 69, "velocity": 127, "time": 0, "type": "NormalMsg"}, "M_13680": {"note_status": 1, "channel": 10, "note": 69, "velocity": 0, "time": 0, "type": "NormalMsg"}, "M_13681": {"note_status": 1, "channel": 10, "note": 72, "velocity": 127, "time": 0, "type": "NormalMsg"}, "M_13682": {"note_status": 1, "channel": 10, "note": 72, "velocity": 0, "time": 0, "type": "NormalMsg"}, "M_13683": {"note_status": 1, "channel": 10, "note": 74, "velocity": 127, "time": 0, "type": "NormalMsg"}, "M_13684": {"note_status": 1, "channel": 10, "note": 74, "velocity": 0, "time": 0, "type": "NormalMsg"}, "M_13685": {"note_status": 1, "channel": 10, "note": 76, "velocity": 127, "time": 0, "type": "NormalMsg"}, "M_13686": {"note_status": 1, "channel": 10, "note": 76, "velocity": 0, "time": 0, "type": "NormalMsg"}, "M_13687": {"note_status": 1, "channel": 10, "note": 76, "velocity": 127, "time": 0, "type": "NormalMsg"}, "M_13688": {"note_status": 1, "channel": 10, "note": 76, "velocity": 0, "time": 0, "type": "NormalMsg"}, "M_13689": {"note_status": 1, "channel": 10, "note": 62, "velocity": 104, "time": 0, "type": "NormalMsg"}, "M_13690": {"note_status": 1, "channel": 10, "note": 62, "velocity": 0, "time": 0, "type": "NormalMsg"}, "M_13691": {"note_status": 1, "channel": 10, "note": 72, "velocity": 106, "time": 0, "type": "NormalMsg"}, "M_13692": {"note_status": 1, "channel": 10, "note": 72, "velocity": 0, "time": 0, "type": "NormalMsg"}, "M_13693": {"note_status": 1, "channel": 10, "note": 69, "velocity": 106, "time": 0, "type": "NormalMsg"}, "M_13694": {"note_status": 1, "channel": 10, "note": 69, "velocity": 0, "time": 0, "type": "NormalMsg"}, "M_13695": {"note_status": 1, "channel": 10, "note": 67, "velocity": 113, "time": 0, "type": "NormalMsg"}, "M_13696": {"note_status": 1, "channel": 10, "note": 72, "velocity": 1, "time": 0, "type": "NormalMsg"}, "M_13697": {"note_status": 1, "channel": 10, "note": 69, "velocity": 1, "time": 0, "type": "NormalMsg"}, "M_13698": {"note_status": 1, "channel": 10, "note": 72, "velocity": 0, "time": 0, "type": "NormalMsg"}, "M_13699": {"note_status": 1, "channel": 10, "note": 69, "velocity": 0, "time": 0, "type": "NormalMsg"}, "M_13700": {"note_status": 1, "channel": 10, "note": 72, "velocity": 1, "time": 0, "type": "NormalMsg"}, "M_13701": {"note_status": 1, "channel": 10, "note": 69, "velocity": 1, "time": 0, "type": "NormalMsg"}, "M_13702": {"note_status": 1, "channel": 10, "note": 72, "velocity": 0, "time": 0, "type": "NormalMsg"}, "M_13703": {"note_status": 1, "channel": 10, "note": 69, "velocity": 0, "time": 0, "type": "NormalMsg"}, "M_13704": {"note_status": 1, "channel": 10, "note": 67, "velocity": 0, "time": 0, "type": "NormalMsg"}, "M_13705": {"note_status": 1, "channel": 10, "note": 72, "velocity": 1, "time": 0, "type": "NormalMsg"}, "M_13706": {"note_status": 1, "channel": 10, "note": 71, "velocity": 1, "time": 0, "type": "NormalMsg"}, "M_13707": {"note_status": 1, "channel": 10, "note": 72, "velocity": 0, "time": 0, "type": "NormalMsg"}, "M_13708": {"note_status": 1, "channel": 10, "note": 71, "velocity": 0, "time": 0, "type": "NormalMsg"}, "M_13709": {"note_status": 1, "channel": 10, "note": 72, "velocity": 1, "time": 0, "type": "NormalMsg"}, "M_13710": {"note_status": 1, "channel": 10, "note": 72, "velocity": 0, "time": 0, "type": "NormalMsg"}, "M_13711": {"note_status": 1, "channel": 10, "note": 72, "velocity": 1, "time": 0, "type": "NormalMsg"}, "M_13712": {"note_status": 1, "channel": 10, "note": 72, "velocity": 0, "time": 0, "type": "NormalMsg"}, "M_13713": {"note_status": 1, "channel": 10, "note": 72, "velocity": 1, "time": 0, "type": "NormalMsg"}, "M_13714": {"note_status": 1, "channel": 10, "note": 72, "velocity": 0, "time": 0, "type": "NormalMsg"}, "M_13715": {"note_status": 1, "channel": 10, "note": 69, "velocity": 1, "time": 0, "type": "NormalMsg"}, "M_13716": {"note_status": 1, "channel": 10, "note": 69, "velocity": 0, "time": 0, "type": "NormalMsg"}, "M_13717": {"note_status": 1, "channel": 10, "note": 72, "velocity": 1, "time": 0, "type": "NormalMsg"}, "M_13718": {"note_status": 1, "channel": 10, "note": 69, "velocity": 1, "time": 0, "type": "NormalMsg"}, "M_13719": {"note_status": 1, "channel": 10, "note": 72, "velocity": 0, "time": 0, "type": "NormalMsg"}, "M_13720": {"note_status": 1, "channel": 10, "note": 69, "velocity": 0, "time": 0, "type": "NormalMsg"}, "M_13721": {"note_status": 1, "channel": 10, "note": 72, "velocity": 1, "time": 0, "type": "NormalMsg"}, "M_13722": {"note_status": 1, "channel": 10, "note": 72, "velocity": 0, "time": 0, "type": "NormalMsg"}, "M_13723": {"note_status": 1, "channel": 10, "note": 76, "velocity": 1, "time": 0, "type": "NormalMsg"}, "M_13724": {"note_status": 1, "channel": 10, "note": 74, "velocity": 1, "time": 0, "type": "NormalMsg"}, "M_13725": {"note_status": 1, "channel": 10, "note": 76, "velocity": 0, "time": 0, "type": "NormalMsg"}, "M_13726": {"note_status": 1, "channel": 10, "note": 72, "velocity": 1, "time": 0, "type": "NormalMsg"}, "M_13727": {"note_status": 1, "channel": 10, "note": 74, "velocity": 0, "time": 0, "type": "NormalMsg"}, "M_13728": {"note_status": 1, "channel": 10, "note": 72, "velocity": 0, "time": 0, "type": "NormalMsg"}, "M_13729": {"note_status": 1, "channel": 10, "note": 74, "velocity": 1, "time": 0, "type": "NormalMsg"}, "M_13730": {"note_status": 1, "channel": 10, "note": 74, "velocity": 0, "time": 0, "type": "NormalMsg"}, "M_13731": {"note_status": 1, "channel": 10, "note": 72, "velocity": 1, "time": 0, "type": "NormalMsg"}, "M_13732": {"note_status": 1, "channel": 10, "note": 69, "velocity": 1, "time": 0, "type": "NormalMsg"}, "M_13733": {"note_status": 1, "channel": 10, "note": 72, "velocity": 0, "time": 0, "type": "NormalMsg"}, "M_13734": {"note_status": 1, "channel": 10, "note": 69, "velocity": 0, "time": 0, "type": "NormalMsg"}, "M_13735": {"note_status": 1, "channel": 10, "note": 72, "velocity": 1, "time": 0, "type": "NormalMsg"}, "M_13736": {"note_status": 1, "channel": 10, "note": 69, "velocity": 1, "time": 0, "type": "NormalMsg"}, "M_13737": {"note_status": 1, "channel": 10, "note": 72, "velocity": 0, "time": 0, "type": "NormalMsg"}, "M_13738": {"note_status": 1, "channel": 10, "note": 69, "velocity": 0, "time": 0, "type": "NormalMsg"}, "M_13739": {"note_status": 1, "channel": 10, "note": 72, "velocity": 1, "time": 0, "type": "NormalMsg"}, "M_13740": {"note_status": 1, "channel": 10, "note": 71, "velocity": 1, "time": 0, "type": "NormalMsg"}, "M_13741": {"note_status": 1, "channel": 10, "note": 72, "velocity": 0, "time": 0, "type": "NormalMsg"}, "M_13742": {"note_status": 1, "channel": 10, "note": 71, "velocity": 0, "time": 0, "type": "NormalMsg"}, "M_13743": {"note_status": 1, "channel": 10, "note": 72, "velocity": 1, "time": 0, "type": "NormalMsg"}, "M_13744": {"note_status": 1, "channel": 10, "note": 72, "velocity": 0, "time": 0, "type": "NormalMsg"}, "M_13745": {"note_status": 1, "channel": 10, "note": 72, "velocity": 1, "time": 0, "type": "NormalMsg"}, "M_13746": {"note_status": 1, "channel": 10, "note": 72, "velocity": 0, "time": 0, "type": "NormalMsg"}, "M_13747": {"note_status": 1, "channel": 10, "note": 72, "velocity": 1, "time": 0, "type": "NormalMsg"}, "M_13748": {"note_status": 1, "channel": 10, "note": 72, "velocity": 0, "time": 0, "type": "NormalMsg"}, "M_13749": {"note_status": 1, "channel": 10, "note": 69, "velocity": 1, "time": 0, "type": "NormalMsg"}, "M_13750": {"note_status": 1, "channel": 10, "note": 69, "velocity": 0, "time": 0, "type": "NormalMsg"}, "M_13751": {"note_status": 1, "channel": 10, "note": 69, "velocity": 122, "time": 0, "type": "NormalMsg"}, "M_13752": {"note_status": 1, "channel": 10, "note": 69, "velocity": 0, "time": 0, "type": "NormalMsg"}, "M_13753": {"note_status": 1, "channel": 10, "note": 71, "velocity": 108, "time": 0, "type": "NormalMsg"}, "M_13754": {"note_status": 1, "channel": 10, "note": 71, "velocity": 0, "time": 0, "type": "NormalMsg"}, "M_13755": {"note_status": 1, "channel": 10, "note": 72, "velocity": 122, "time": 0, "type": "NormalMsg"}, "M_13756": {"note_status": 1, "channel": 10, "note": 72, "velocity": 0, "time": 0, "type": "NormalMsg"}, "M_13757": {"note_status": 1, "channel": 10, "note": 64, "velocity": 101, "time": 0, "type": "NormalMsg"}, "M_13758": {"note_status": 1, "channel": 10, "note": 64, "velocity": 0, "time": 0, "type": "NormalMsg"}, "M_13759": {"note_status": 1, "channel": 10, "note": 69, "velocity": 117, "time": 0, "type": "NormalMsg"}, "M_13760": {"note_status": 1, "channel": 10, "note": 69, "velocity": 0, "time": 0, "type": "NormalMsg"}, "M_13761": {"note_status": 1, "channel": 10, "note": 71, "velocity": 104, "time": 0, "type": "NormalMsg"}, "M_13762": {"note_status": 1, "channel": 10, "note": 72, "velocity": 122, "time": 0, "type": "NormalMsg"}, "M_13763": {"note_status": 1, "channel": 10, "note": 71, "velocity": 0, "time": 0, "type": "NormalMsg"}, "M_13764": {"note_status": 1, "channel": 10, "note": 72, "velocity": 0, "time": 0, "type": "NormalMsg"}, "M_13765": {"note_status": 1, "channel": 10, "note": 64, "velocity": 91, "time": 0, "type": "NormalMsg"}, "M_13766": {"note_status": 1, "channel": 10, "note": 64, "velocity": 0, "time": 0, "type": "NormalMsg"}, "M_13767": {"note_status": 1, "channel": 10, "note": 71, "velocity": 127, "time": 0, "type": "NormalMsg"}, "M_13768": {"note_status": 1, "channel": 10, "note": 71, "velocity": 0, "time": 0, "type": "NormalMsg"}, "M_13769": {"note_status": 1, "channel": 10, "note": 72, "velocity": 108, "time": 0, "type": "NormalMsg"}, "M_13770": {"note_status": 1, "channel": 10, "note": 72, "velocity": 0, "time": 0, "type": "NormalMsg"}, "M_13771": {"note_status": 1, "channel": 10, "note": 74, "velocity": 122, "time": 0, "type": "NormalMsg"}, "M_13772": {"note_status": 1, "channel": 10, "note": 74, "velocity": 0, "time": 0, "type": "NormalMsg"}, "M_13773": {"note_status": 1, "channel": 10, "note": 76, "velocity": 122, "time": 0, "type": "NormalMsg"}, "M_13774": {"note_status": 1, "channel": 10, "note": 76, "velocity": 0, "time": 0, "type": "NormalMsg"}, "M_13775": {"note_status": 1, "channel": 10, "note": 74, "velocity": 127, "time": 0, "type": "NormalMsg"}, "M_13776": {"note_status": 1, "channel": 10, "note": 74, "velocity": 0, "time": 0, "type": "NormalMsg"}, "M_13777": {"note_status": 1, "channel": 10, "note": 69, "velocity": 127, "time": 0, "type": "NormalMsg"}, "M_13778": {"note_status": 1, "channel": 10, "note": 69, "velocity": 0, "time": 0, "type": "NormalMsg"}, "M_13779": {"note_status": 1, "channel": 10, "note": 72, "velocity": 127, "time": 0, "type": "NormalMsg"}, "M_13780": {"note_status": 1, "channel": 10, "note": 72, "velocity": 0, "time": 0, "type": "NormalMsg"}, "M_13781": {"note_status": 1, "channel": 10, "note": 74, "velocity": 127, "time": 0, "type": "NormalMsg"}, "M_13782": {"note_status": 1, "channel": 10, "note": 74, "velocity": 0, "time": 0, "type": "NormalMsg"}, "M_13783": {"note_status": 1, "channel": 10, "note": 76, "velocity": 127, "time": 0, "type": "NormalMsg"}, "M_13784": {"note_status": 1, "channel": 10, "note": 76, "velocity": 0, "time": 0, "type": "NormalMsg"}, "M_13785": {"note_status": 1, "channel": 10, "note": 76, "velocity": 127, "time": 0, "type": "NormalMsg"}, "M_13786": {"note_status": 1, "channel": 10, "note": 76, "velocity": 0, "time": 0, "type": "NormalMsg"}, "M_13787": {"note_status": 1, "channel": 10, "note": 72, "velocity": 117, "time": 0, "type": "NormalMsg"}, "M_13788": {"note_status": 1, "channel": 10, "note": 72, "velocity": 0, "time": 0, "type": "NormalMsg"}, "M_13789": {"note_status": 1, "channel": 10, "note": 74, "velocity": 122, "time": 0, "type": "NormalMsg"}, "M_13790": {"note_status": 1, "channel": 10, "note": 74, "velocity": 0, "time": 0, "type": "NormalMsg"}, "M_13791": {"note_status": 1, "channel": 10, "note": 72, "velocity": 113, "time": 0, "type": "NormalMsg"}, "M_13792": {"note_status": 1, "channel": 10, "note": 72, "velocity": 0, "time": 0, "type": "NormalMsg"}, "M_13793": {"note_status": 1, "channel": 10, "note": 74, "velocity": 122, "time": 0, "type": "NormalMsg"}, "M_13794": {"note_status": 1, "channel": 10, "note": 74, "velocity": 0, "time": 0, "type": "NormalMsg"}, "M_13795": {"note_status": 1, "channel": 10, "note": 77, "velocity": 101, "time": 0, "type": "NormalMsg"}, "M_13796": {"note_status": 1, "channel": 10, "note": 77, "velocity": 0, "time": 0, "type": "NormalMsg"}, "M_13797": {"note_status": 1, "channel": 10, "note": 69, "velocity": 127, "time": 0, "type": "NormalMsg"}, "M_13798": {"note_status": 1, "channel": 10, "note": 69, "velocity": 0, "time": 0, "type": "NormalMsg"}, "M_13799": {"note_status": 1, "channel": 10, "note": 72, "velocity": 127, "time": 0, "type": "NormalMsg"}, "M_13800": {"note_status": 1, "channel": 10, "note": 72, "velocity": 0, "time": 0, "type": "NormalMsg"}, "M_13801": {"note_status": 1, "channel": 10, "note": 74, "velocity": 127, "time": 0, "type": "NormalMsg"}, "M_13802": {"note_status": 1, "channel": 10, "note": 74, "velocity": 0, "time": 0, "type": "NormalMsg"}, "M_13803": {"note_status": 1, "channel": 10, "note": 76, "velocity": 127, "time": 0, "type": "NormalMsg"}, "M_13804": {"note_status": 1, "channel": 10, "note": 76, "velocity": 0, "time": 0, "type": "NormalMsg"}, "M_13805": {"note_status": 1, "channel": 10, "note": 76, "velocity": 127, "time": 0, "type": "NormalMsg"}, "M_13806": {"note_status": 1, "channel": 10, "note": 76, "velocity": 0, "time": 0, "type": "NormalMsg"}, "M_13807": {"note_status": 1, "channel": 10, "note": 62, "velocity": 104, "time": 0, "type": "NormalMsg"}, "M_13808": {"note_status": 1, "channel": 10, "note": 62, "velocity": 0, "time": 0, "type": "NormalMsg"}, "M_13809": {"note_status": 1, "channel": 10, "note": 72, "velocity": 106, "time": 0, "type": "NormalMsg"}, "M_13810": {"note_status": 1, "channel": 10, "note": 72, "velocity": 0, "time": 0, "type": "NormalMsg"}, "M_13811": {"note_status": 1, "channel": 10, "note": 69, "velocity": 106, "time": 0, "type": "NormalMsg"}, "M_13812": {"note_status": 1, "channel": 10, "note": 69, "velocity": 0, "time": 0, "type": "NormalMsg"}, "M_13813": {"note_status": 1, "channel": 10, "note": 67, "velocity": 113, "time": 0, "type": "NormalMsg"}, "M_13814": {"note_status": 1, "channel": 10, "note": 72, "velocity": 1, "time": 0, "type": "NormalMsg"}, "M_13815": {"note_status": 1, "channel": 10, "note": 69, "velocity": 1, "time": 0, "type": "NormalMsg"}, "M_13816": {"note_status": 1, "channel": 10, "note": 72, "velocity": 0, "time": 0, "type": "NormalMsg"}, "M_13817": {"note_status": 1, "channel": 10, "note": 69, "velocity": 0, "time": 0, "type": "NormalMsg"}, "M_13818": {"note_status": 1, "channel": 10, "note": 72, "velocity": 1, "time": 0, "type": "NormalMsg"}, "M_13819": {"note_status": 1, "channel": 10, "note": 69, "velocity": 1, "time": 0, "type": "NormalMsg"}, "M_13820": {"note_status": 1, "channel": 10, "note": 72, "velocity": 0, "time": 0, "type": "NormalMsg"}, "M_13821": {"note_status": 1, "channel": 10, "note": 69, "velocity": 0, "time": 0, "type": "NormalMsg"}, "M_13822": {"note_status": 1, "channel": 10, "note": 67, "velocity": 0, "time": 0, "type": "NormalMsg"}, "M_13823": {"note_status": 1, "channel": 10, "note": 72, "velocity": 1, "time": 0, "type": "NormalMsg"}, "M_13824": {"note_status": 1, "channel": 10, "note": 71, "velocity": 1, "time": 0, "type": "NormalMsg"}, "M_13825": {"note_status": 1, "channel": 10, "note": 72, "velocity": 0, "time": 0, "type": "NormalMsg"}, "M_13826": {"note_status": 1, "channel": 10, "note": 71, "velocity": 0, "time": 0, "type": "NormalMsg"}, "M_13827": {"note_status": 1, "channel": 10, "note": 72, "velocity": 1, "time": 0, "type": "NormalMsg"}, "M_13828": {"note_status": 1, "channel": 10, "note": 72, "velocity": 0, "time": 0, "type": "NormalMsg"}, "M_13829": {"note_status": 1, "channel": 10, "note": 72, "velocity": 1, "time": 0, "type": "NormalMsg"}, "M_13830": {"note_status": 1, "channel": 10, "note": 72, "velocity": 0, "time": 0, "type": "NormalMsg"}, "M_13831": {"note_status": 1, "channel": 10, "note": 72, "velocity": 1, "time": 0, "type": "NormalMsg"}, "M_13832": {"note_status": 1, "channel": 10, "note": 72, "velocity": 0, "time": 0, "type": "NormalMsg"}, "M_13833": {"note_status": 1, "channel": 10, "note": 69, "velocity": 1, "time": 0, "type": "NormalMsg"}, "M_13834": {"note_status": 1, "channel": 10, "note": 69, "velocity": 0, "time": 0, "type": "NormalMsg"}, "M_13835": {"note_status": 1, "channel": 10, "note": 72, "velocity": 1, "time": 0, "type": "NormalMsg"}, "M_13836": {"note_status": 1, "channel": 10, "note": 69, "velocity": 1, "time": 0, "type": "NormalMsg"}, "M_13837": {"note_status": 1, "channel": 10, "note": 72, "velocity": 0, "time": 0, "type": "NormalMsg"}, "M_13838": {"note_status": 1, "channel": 10, "note": 69, "velocity": 0, "time": 0, "type": "NormalMsg"}, "M_13839": {"note_status": 1, "channel": 10, "note": 72, "velocity": 1, "time": 0, "type": "NormalMsg"}, "M_13840": {"note_status": 1, "channel": 10, "note": 72, "velocity": 0, "time": 0, "type": "NormalMsg"}, "M_13841": {"note_status": 1, "channel": 10, "note": 76, "velocity": 1, "time": 0, "type": "NormalMsg"}, "M_13842": {"note_status": 1, "channel": 10, "note": 74, "velocity": 1, "time": 0, "type": "NormalMsg"}, "M_13843": {"note_status": 1, "channel": 10, "note": 76, "velocity": 0, "time": 0, "type": "NormalMsg"}, "M_13844": {"note_status": 1, "channel": 10, "note": 72, "velocity": 1, "time": 0, "type": "NormalMsg"}, "M_13845": {"note_status": 1, "channel": 10, "note": 74, "velocity": 0, "time": 0, "type": "NormalMsg"}, "M_13846": {"note_status": 1, "channel": 10, "note": 72, "velocity": 0, "time": 0, "type": "NormalMsg"}, "M_13847": {"note_status": 1, "channel": 10, "note": 74, "velocity": 1, "time": 0, "type": "NormalMsg"}, "M_13848": {"note_status": 1, "channel": 10, "note": 74, "velocity": 0, "time": 0, "type": "NormalMsg"}, "M_13849": {"note_status": 1, "channel": 10, "note": 74, "velocity": 117, "time": 0, "type": "NormalMsg"}, "M_13850": {"note_status": 1, "channel": 10, "note": 74, "velocity": 0, "time": 0, "type": "NormalMsg"}, "M_13851": {"note_status": 1, "channel": 10, "note": 76, "velocity": 114, "time": 0, "type": "NormalMsg"}, "M_13852": {"note_status": 1, "channel": 10, "note": 76, "velocity": 0, "time": 0, "type": "NormalMsg"}, "M_13853": {"note_status": 1, "channel": 10, "note": 74, "velocity": 117, "time": 0, "type": "NormalMsg"}, "M_13854": {"note_status": 1, "channel": 10, "note": 74, "velocity": 0, "time": 0, "type": "NormalMsg"}, "M_13855": {"note_status": 1, "channel": 10, "note": 72, "velocity": 1, "time": 0, "type": "NormalMsg"}, "M_13856": {"note_status": 1, "channel": 10, "note": 74, "velocity": 117, "time": 0, "type": "NormalMsg"}, "M_13857": {"note_status": 1, "channel": 10, "note": 69, "velocity": 1, "time": 0, "type": "NormalMsg"}, "M_13858": {"note_status": 1, "channel": 10, "note": 72, "velocity": 0, "time": 0, "type": "NormalMsg"}, "M_13859": {"note_status": 1, "channel": 10, "note": 69, "velocity": 0, "time": 0, "type": "NormalMsg"}, "M_13860": {"note_status": 1, "channel": 10, "note": 74, "velocity": 0, "time": 0, "type": "NormalMsg"}, "M_13861": {"note_status": 1, "channel": 10, "note": 72, "velocity": 1, "time": 0, "type": "NormalMsg"}, "M_13862": {"note_status": 1, "channel": 10, "note": 69, "velocity": 1, "time": 0, "type": "NormalMsg"}, "M_13863": {"note_status": 1, "channel": 10, "note": 72, "velocity": 0, "time": 0, "type": "NormalMsg"}, "M_13864": {"note_status": 1, "channel": 10, "note": 69, "velocity": 0, "time": 0, "type": "NormalMsg"}, "M_13865": {"note_status": 1, "channel": 10, "note": 72, "velocity": 1, "time": 0, "type": "NormalMsg"}, "M_13866": {"note_status": 1, "channel": 10, "note": 71, "velocity": 1, "time": 0, "type": "NormalMsg"}, "M_13867": {"note_status": 1, "channel": 10, "note": 72, "velocity": 0, "time": 0, "type": "NormalMsg"}, "M_13868": {"note_status": 1, "channel": 10, "note": 71, "velocity": 0, "time": 0, "type": "NormalMsg"}, "M_13869": {"note_status": 1, "channel": 10, "note": 72, "velocity": 1, "time": 0, "type": "NormalMsg"}, "M_13870": {"note_status": 1, "channel": 10, "note": 72, "velocity": 0, "time": 0, "type": "NormalMsg"}, "M_13871": {"note_status": 1, "channel": 10, "note": 72, "velocity": 1, "time": 0, "type": "NormalMsg"}, "M_13872": {"note_status": 1, "channel": 10, "note": 72, "velocity": 0, "time": 0, "type": "NormalMsg"}, "M_13873": {"note_status": 1, "channel": 10, "note": 72, "velocity": 117, "time": 0, "type": "NormalMsg"}, "M_13874": {"note_status": 1, "channel": 10, "note": 72, "velocity": 0, "time": 0, "type": "NormalMsg"}, "M_13875": {"note_status": 1, "channel": 10, "note": 74, "velocity": 114, "time": 0, "type": "NormalMsg"}, "M_13876": {"note_status": 1, "channel": 10, "note": 74, "velocity": 0, "time": 0, "type": "NormalMsg"}, "M_13877": {"note_status": 1, "channel": 10, "note": 76, "velocity": 117, "time": 0, "type": "NormalMsg"}, "M_13878": {"note_status": 1, "channel": 10, "note": 76, "velocity": 0, "time": 0, "type": "NormalMsg"}, "M_13879": {"note_status": 1, "channel": 10, "note": 72, "velocity": 1, "time": 0, "type": "NormalMsg"}, "M_13880": {"note_status": 1, "channel": 10, "note": 76, "velocity": 117, "time": 0, "type": "NormalMsg"}, "M_13881": {"note_status": 1, "channel": 10, "note": 72, "velocity": 0, "time": 0, "type": "NormalMsg"}, "M_13882": {"note_status": 1, "channel": 10, "note": 69, "velocity": 1, "time": 0, "type": "NormalMsg"}, "M_13883": {"note_status": 1, "channel": 10, "note": 76, "velocity": 0, "time": 0, "type": "NormalMsg"}, "M_13884": {"note_status": 1, "channel": 10, "note": 69, "velocity": 0, "time": 0, "type": "NormalMsg"}, "M_13885": {"note_status": 1, "channel": 10, "note": 72, "velocity": 1, "time": 0, "type": "NormalMsg"}, "M_13886": {"note_status": 1, "channel": 10, "note": 69, "velocity": 1, "time": 0, "type": "NormalMsg"}, "M_13887": {"note_status": 1, "channel": 10, "note": 72, "velocity": 0, "time": 0, "type": "NormalMsg"}, "M_13888": {"note_status": 1, "channel": 10, "note": 69, "velocity": 0, "time": 0, "type": "NormalMsg"}, "M_13889": {"note_status": 1, "channel": 10, "note": 72, "velocity": 1, "time": 0, "type": "NormalMsg"}, "M_13890": {"note_status": 1, "channel": 10, "note": 72, "velocity": 0, "time": 0, "type": "NormalMsg"}, "M_13891": {"note_status": 1, "channel": 10, "note": 76, "velocity": 1, "time": 0, "type": "NormalMsg"}, "M_13892": {"note_status": 1, "channel": 10, "note": 74, "velocity": 1, "time": 0, "type": "NormalMsg"}, "M_13893": {"note_status": 1, "channel": 10, "note": 76, "velocity": 0, "time": 0, "type": "NormalMsg"}, "M_13894": {"note_status": 1, "channel": 10, "note": 72, "velocity": 1, "time": 0, "type": "NormalMsg"}, "M_13895": {"note_status": 1, "channel": 10, "note": 74, "velocity": 0, "time": 0, "type": "NormalMsg"}, "M_13896": {"note_status": 1, "channel": 10, "note": 72, "velocity": 0, "time": 0, "type": "NormalMsg"}, "M_13897": {"note_status": 1, "channel": 10, "note": 74, "velocity": 1, "time": 0, "type": "NormalMsg"}, "M_13898": {"note_status": 1, "channel": 10, "note": 74, "velocity": 0, "time": 0, "type": "NormalMsg"}, "M_13899": {"note_status": 1, "channel": 10, "note": 74, "velocity": 117, "time": 0, "type": "NormalMsg"}, "M_13900": {"note_status": 1, "channel": 10, "note": 74, "velocity": 0, "time": 0, "type": "NormalMsg"}, "M_13901": {"note_status": 1, "channel": 10, "note": 76, "velocity": 114, "time": 0, "type": "NormalMsg"}, "M_13902": {"note_status": 1, "channel": 10, "note": 76, "velocity": 0, "time": 0, "type": "NormalMsg"}, "M_13903": {"note_status": 1, "channel": 10, "note": 74, "velocity": 117, "time": 0, "type": "NormalMsg"}, "M_13904": {"note_status": 1, "channel": 10, "note": 74, "velocity": 0, "time": 0, "type": "NormalMsg"}, "M_13905": {"note_status": 1, "channel": 10, "note": 72, "velocity": 1, "time": 0, "type": "NormalMsg"}, "M_13906": {"note_status": 1, "channel": 10, "note": 74, "velocity": 117, "time": 0, "type": "NormalMsg"}, "M_13907": {"note_status": 1, "channel": 10, "note": 72, "velocity": 0, "time": 0, "type": "NormalMsg"}, "M_13908": {"note_status": 1, "channel": 10, "note": 69, "velocity": 1, "time": 0, "type": "NormalMsg"}, "M_13909": {"note_status": 1, "channel": 10, "note": 74, "velocity": 0, "time": 0, "type": "NormalMsg"}, "M_13910": {"note_status": 1, "channel": 10, "note": 69, "velocity": 0, "time": 0, "type": "NormalMsg"}, "R_13911": {"note_status": 0, "channel": 0, "note": 0, "velocity": 0, "time": 0, "type": "ResetMsg"}, "R_13912": {"note_status": 0, "channel": 0, "note": 0, "velocity": 0, "time": 0, "type": "ResetMsg"}, "U_13913": {"note_status": 0, "channel": 0, "note": 0, "velocity": 0, "time": 0, "type": "DummyType"}, "M_13914": {"note_status": 1, "channel": 11, "note": 62, "velocity": 117, "time": 0, "type": "NormalMsg"}, "M_13915": {"note_status": 1, "channel": 11, "note": 62, "velocity": 0, "time": 0, "type": "NormalMsg"}, "M_13916": {"note_status": 1, "channel": 11, "note": 57, "velocity": 127, "time": 0, "type": "NormalMsg"}, "M_13917": {"note_status": 1, "channel": 11, "note": 57, "velocity": 0, "time": 0, "type": "NormalMsg"}, "M_13918": {"note_status": 1, "channel": 11, "note": 50, "velocity": 122, "time": 0, "type": "NormalMsg"}, "M_13919": {"note_status": 1, "channel": 11, "note": 50, "velocity": 0, "time": 0, "type": "NormalMsg"}, "M_13920": {"note_status": 1, "channel": 11, "note": 62, "velocity": 117, "time": 0, "type": "NormalMsg"}, "M_13921": {"note_status": 1, "channel": 11, "note": 62, "velocity": 0, "time": 0, "type": "NormalMsg"}, "M_13922": {"note_status": 1, "channel": 11, "note": 57, "velocity": 127, "time": 0, "type": "NormalMsg"}, "M_13923": {"note_status": 1, "channel": 11, "note": 57, "velocity": 0, "time": 0, "type": "NormalMsg"}, "M_13924": {"note_status": 1, "channel": 11, "note": 50, "velocity": 122, "time": 0, "type": "NormalMsg"}, "M_13925": {"note_status": 1, "channel": 11, "note": 50, "velocity": 0, "time": 0, "type": "NormalMsg"}, "M_13926": {"note_status": 1, "channel": 11, "note": 62, "velocity": 117, "time": 0, "type": "NormalMsg"}, "M_13927": {"note_status": 1, "channel": 11, "note": 62, "velocity": 0, "time": 0, "type": "NormalMsg"}, "M_13928": {"note_status": 1, "channel": 11, "note": 57, "velocity": 127, "time": 0, "type": "NormalMsg"}, "M_13929": {"note_status": 1, "channel": 11, "note": 57, "velocity": 0, "time": 0, "type": "NormalMsg"}, "M_13930": {"note_status": 1, "channel": 11, "note": 50, "velocity": 122, "time": 0, "type": "NormalMsg"}, "M_13931": {"note_status": 1, "channel": 11, "note": 50, "velocity": 0, "time": 0, "type": "NormalMsg"}, "M_13932": {"note_status": 1, "channel": 11, "note": 62, "velocity": 117, "time": 0, "type": "NormalMsg"}, "M_13933": {"note_status": 1, "channel": 11, "note": 62, "velocity": 0, "time": 0, "type": "NormalMsg"}, "M_13934": {"note_status": 1, "channel": 11, "note": 57, "velocity": 127, "time": 0, "type": "NormalMsg"}, "M_13935": {"note_status": 1, "channel": 11, "note": 57, "velocity": 0, "time": 0, "type": "NormalMsg"}, "M_13936": {"note_status": 1, "channel": 11, "note": 50, "velocity": 122, "time": 0, "type": "NormalMsg"}, "M_13937": {"note_status": 1, "channel": 11, "note": 50, "velocity": 0, "time": 0, "type": "NormalMsg"}, "R_13938": {"note_status": 0, "channel": 0, "note": 0, "velocity": 0, "time": 0, "type": "ResetMsg"}, "R_13939": {"note_status": 0, "channel": 0, "note": 0, "velocity": 0, "time": 0, "type": "ResetMsg"}, "U_13940": {"note_status": 0, "channel": 0, "note": 0, "velocity": 0, "time": 0, "type": "DummyType"}, "M_13941": {"note_status": 1, "channel": 12, "note": 72, "velocity": 57, "time": 0, "type": "NormalMsg"}, "M_13942": {"note_status": 1, "channel": 12, "note": 72, "velocity": 0, "time": 0, "type": "NormalMsg"}, "M_13943": {"note_status": 1, "channel": 12, "note": 79, "velocity": 70, "time": 0, "type": "NormalMsg"}, "M_13944": {"note_status": 1, "channel": 12, "note": 72, "velocity": 67, "time": 0, "type": "NormalMsg"}, "M_13945": {"note_status": 1, "channel": 12, "note": 79, "velocity": 0, "time": 0, "type": "NormalMsg"}, "M_13946": {"note_status": 1, "channel": 12, "note": 72, "velocity": 0, "time": 0, "type": "NormalMsg"}, "M_13947": {"note_status": 1, "channel": 12, "note": 72, "velocity": 77, "time": 0, "type": "NormalMsg"}, "M_13948": {"note_status": 1, "channel": 12, "note": 72, "velocity": 0, "time": 0, "type": "NormalMsg"}, "M_13949": {"note_status": 1, "channel": 12, "note": 72, "velocity": 67, "time": 0, "type": "NormalMsg"}, "M_13950": {"note_status": 1, "channel": 12, "note": 72, "velocity": 0, "time": 0, "type": "NormalMsg"}, "M_13951": {"note_status": 1, "channel": 12, "note": 79, "velocity": 70, "time": 0, "type": "NormalMsg"}, "M_13952": {"note_status": 1, "channel": 12, "note": 72, "velocity": 84, "time": 0, "type": "NormalMsg"}, "M_13953": {"note_status": 1, "channel": 12, "note": 79, "velocity": 0, "time": 0, "type": "NormalMsg"}, "M_13954": {"note_status": 1, "channel": 12, "note": 72, "velocity": 0, "time": 0, "type": "NormalMsg"}, "M_13955": {"note_status": 1, "channel": 12, "note": 72, "velocity": 70, "time": 0, "type": "NormalMsg"}, "M_13956": {"note_status": 1, "channel": 12, "note": 72, "velocity": 0, "time": 0, "type": "NormalMsg"}, "M_13957": {"note_status": 1, "channel": 12, "note": 72, "velocity": 67, "time": 0, "type": "NormalMsg"}, "M_13958": {"note_status": 1, "channel": 12, "note": 72, "velocity": 0, "time": 0, "type": "NormalMsg"}, "M_13959": {"note_status": 1, "channel": 12, "note": 79, "velocity": 70, "time": 0, "type": "NormalMsg"}, "M_13960": {"note_status": 1, "channel": 12, "note": 72, "velocity": 84, "time": 0, "type": "NormalMsg"}, "M_13961": {"note_status": 1, "channel": 12, "note": 79, "velocity": 0, "time": 0, "type": "NormalMsg"}, "M_13962": {"note_status": 1, "channel": 12, "note": 72, "velocity": 0, "time": 0, "type": "NormalMsg"}, "M_13963": {"note_status": 1, "channel": 12, "note": 72, "velocity": 70, "time": 0, "type": "NormalMsg"}, "M_13964": {"note_status": 1, "channel": 12, "note": 72, "velocity": 0, "time": 0, "type": "NormalMsg"}, "M_13965": {"note_status": 1, "channel": 12, "note": 79, "velocity": 70, "time": 0, "type": "NormalMsg"}, "M_13966": {"note_status": 1, "channel": 12, "note": 79, "velocity": 0, "time": 0, "type": "NormalMsg"}, "M_13967": {"note_status": 1, "channel": 12, "note": 72, "velocity": 84, "time": 0, "type": "NormalMsg"}, "M_13968": {"note_status": 1, "channel": 12, "note": 72, "velocity": 0, "time": 0, "type": "NormalMsg"}, "M_13969": {"note_status": 1, "channel": 12, "note": 72, "velocity": 70, "time": 0, "type": "NormalMsg"}, "M_13970": {"note_status": 1, "channel": 12, "note": 72, "velocity": 0, "time": 0, "type": "NormalMsg"}, "M_13971": {"note_status": 1, "channel": 12, "note": 72, "velocity": 57, "time": 0, "type": "NormalMsg"}, "M_13972": {"note_status": 1, "channel": 12, "note": 72, "velocity": 0, "time": 0, "type": "NormalMsg"}, "M_13973": {"note_status": 1, "channel": 12, "note": 79, "velocity": 70, "time": 0, "type": "NormalMsg"}, "M_13974": {"note_status": 1, "channel": 12, "note": 72, "velocity": 67, "time": 0, "type": "NormalMsg"}, "M_13975": {"note_status": 1, "channel": 12, "note": 79, "velocity": 0, "time": 0, "type": "NormalMsg"}, "M_13976": {"note_status": 1, "channel": 12, "note": 72, "velocity": 0, "time": 0, "type": "NormalMsg"}, "M_13977": {"note_status": 1, "channel": 12, "note": 72, "velocity": 77, "time": 0, "type": "NormalMsg"}, "M_13978": {"note_status": 1, "channel": 12, "note": 72, "velocity": 0, "time": 0, "type": "NormalMsg"}, "M_13979": {"note_status": 1, "channel": 12, "note": 72, "velocity": 67, "time": 0, "type": "NormalMsg"}, "M_13980": {"note_status": 1, "channel": 12, "note": 72, "velocity": 0, "time": 0, "type": "NormalMsg"}, "M_13981": {"note_status": 1, "channel": 12, "note": 79, "velocity": 70, "time": 0, "type": "NormalMsg"}, "M_13982": {"note_status": 1, "channel": 12, "note": 72, "velocity": 84, "time": 0, "type": "NormalMsg"}, "M_13983": {"note_status": 1, "channel": 12, "note": 79, "velocity": 0, "time": 0, "type": "NormalMsg"}, "M_13984": {"note_status": 1, "channel": 12, "note": 72, "velocity": 0, "time": 0, "type": "NormalMsg"}, "M_13985": {"note_status": 1, "channel": 12, "note": 72, "velocity": 70, "time": 0, "type": "NormalMsg"}, "M_13986": {"note_status": 1, "channel": 12, "note": 72, "velocity": 0, "time": 0, "type": "NormalMsg"}, "M_13987": {"note_status": 1, "channel": 12, "note": 72, "velocity": 67, "time": 0, "type": "NormalMsg"}, "M_13988": {"note_status": 1, "channel": 12, "note": 72, "velocity": 0, "time": 0, "type": "NormalMsg"}, "M_13989": {"note_status": 1, "channel": 12, "note": 79, "velocity": 70, "time": 0, "type": "NormalMsg"}, "M_13990": {"note_status": 1, "channel": 12, "note": 72, "velocity": 84, "time": 0, "type": "NormalMsg"}, "M_13991": {"note_status": 1, "channel": 12, "note": 79, "velocity": 0, "time": 0, "type": "NormalMsg"}, "M_13992": {"note_status": 1, "channel": 12, "note": 72, "velocity": 0, "time": 0, "type": "NormalMsg"}, "M_13993": {"note_status": 1, "channel": 12, "note": 72, "velocity": 70, "time": 0, "type": "NormalMsg"}, "M_13994": {"note_status": 1, "channel": 12, "note": 72, "velocity": 0, "time": 0, "type": "NormalMsg"}, "M_13995": {"note_status": 1, "channel": 12, "note": 79, "velocity": 70, "time": 0, "type": "NormalMsg"}, "M_13996": {"note_status": 1, "channel": 12, "note": 79, "velocity": 0, "time": 0, "type": "NormalMsg"}, "M_13997": {"note_status": 1, "channel": 12, "note": 72, "velocity": 84, "time": 0, "type": "NormalMsg"}, "M_13998": {"note_status": 1, "channel": 12, "note": 72, "velocity": 0, "time": 0, "type": "NormalMsg"}, "M_13999": {"note_status": 1, "channel": 12, "note": 72, "velocity": 70, "time": 0, "type": "NormalMsg"}, "M_14000": {"note_status": 1, "channel": 12, "note": 72, "velocity": 0, "time": 0, "type": "NormalMsg"}, "M_14001": {"note_status": 1, "channel": 12, "note": 72, "velocity": 57, "time": 0, "type": "NormalMsg"}, "M_14002": {"note_status": 1, "channel": 12, "note": 72, "velocity": 0, "time": 0, "type": "NormalMsg"}, "M_14003": {"note_status": 1, "channel": 12, "note": 79, "velocity": 70, "time": 0, "type": "NormalMsg"}, "M_14004": {"note_status": 1, "channel": 12, "note": 72, "velocity": 67, "time": 0, "type": "NormalMsg"}, "M_14005": {"note_status": 1, "channel": 12, "note": 79, "velocity": 0, "time": 0, "type": "NormalMsg"}, "M_14006": {"note_status": 1, "channel": 12, "note": 72, "velocity": 0, "time": 0, "type": "NormalMsg"}, "M_14007": {"note_status": 1, "channel": 12, "note": 72, "velocity": 77, "time": 0, "type": "NormalMsg"}, "M_14008": {"note_status": 1, "channel": 12, "note": 72, "velocity": 0, "time": 0, "type": "NormalMsg"}, "M_14009": {"note_status": 1, "channel": 12, "note": 72, "velocity": 67, "time": 0, "type": "NormalMsg"}, "M_14010": {"note_status": 1, "channel": 12, "note": 72, "velocity": 0, "time": 0, "type": "NormalMsg"}, "M_14011": {"note_status": 1, "channel": 12, "note": 79, "velocity": 70, "time": 0, "type": "NormalMsg"}, "M_14012": {"note_status": 1, "channel": 12, "note": 72, "velocity": 84, "time": 0, "type": "NormalMsg"}, "M_14013": {"note_status": 1, "channel": 12, "note": 79, "velocity": 0, "time": 0, "type": "NormalMsg"}, "M_14014": {"note_status": 1, "channel": 12, "note": 72, "velocity": 0, "time": 0, "type": "NormalMsg"}, "M_14015": {"note_status": 1, "channel": 12, "note": 72, "velocity": 70, "time": 0, "type": "NormalMsg"}, "M_14016": {"note_status": 1, "channel": 12, "note": 72, "velocity": 0, "time": 0, "type": "NormalMsg"}, "M_14017": {"note_status": 1, "channel": 12, "note": 71, "velocity": 67, "time": 0, "type": "NormalMsg"}, "M_14018": {"note_status": 1, "channel": 12, "note": 71, "velocity": 0, "time": 0, "type": "NormalMsg"}, "M_14019": {"note_status": 1, "channel": 12, "note": 79, "velocity": 70, "time": 0, "type": "NormalMsg"}, "M_14020": {"note_status": 1, "channel": 12, "note": 71, "velocity": 84, "time": 0, "type": "NormalMsg"}, "M_14021": {"note_status": 1, "channel": 12, "note": 79, "velocity": 0, "time": 0, "type": "NormalMsg"}, "M_14022": {"note_status": 1, "channel": 12, "note": 71, "velocity": 0, "time": 0, "type": "NormalMsg"}, "M_14023": {"note_status": 1, "channel": 12, "note": 71, "velocity": 70, "time": 0, "type": "NormalMsg"}, "M_14024": {"note_status": 1, "channel": 12, "note": 71, "velocity": 0, "time": 0, "type": "NormalMsg"}, "M_14025": {"note_status": 1, "channel": 12, "note": 79, "velocity": 70, "time": 0, "type": "NormalMsg"}, "M_14026": {"note_status": 1, "channel": 12, "note": 79, "velocity": 0, "time": 0, "type": "NormalMsg"}, "M_14027": {"note_status": 1, "channel": 12, "note": 71, "velocity": 84, "time": 0, "type": "NormalMsg"}, "M_14028": {"note_status": 1, "channel": 12, "note": 71, "velocity": 0, "time": 0, "type": "NormalMsg"}, "M_14029": {"note_status": 1, "channel": 12, "note": 71, "velocity": 70, "time": 0, "type": "NormalMsg"}, "M_14030": {"note_status": 1, "channel": 12, "note": 71, "velocity": 0, "time": 0, "type": "NormalMsg"}, "M_14031": {"note_status": 1, "channel": 12, "note": 71, "velocity": 57, "time": 0, "type": "NormalMsg"}, "M_14032": {"note_status": 1, "channel": 12, "note": 71, "velocity": 0, "time": 0, "type": "NormalMsg"}, "M_14033": {"note_status": 1, "channel": 12, "note": 79, "velocity": 70, "time": 0, "type": "NormalMsg"}, "M_14034": {"note_status": 1, "channel": 12, "note": 71, "velocity": 67, "time": 0, "type": "NormalMsg"}, "M_14035": {"note_status": 1, "channel": 12, "note": 79, "velocity": 0, "time": 0, "type": "NormalMsg"}, "M_14036": {"note_status": 1, "channel": 12, "note": 71, "velocity": 0, "time": 0, "type": "NormalMsg"}, "M_14037": {"note_status": 1, "channel": 12, "note": 71, "velocity": 77, "time": 0, "type": "NormalMsg"}, "M_14038": {"note_status": 1, "channel": 12, "note": 71, "velocity": 0, "time": 0, "type": "NormalMsg"}, "M_14039": {"note_status": 1, "channel": 12, "note": 71, "velocity": 67, "time": 0, "type": "NormalMsg"}, "M_14040": {"note_status": 1, "channel": 12, "note": 71, "velocity": 0, "time": 0, "type": "NormalMsg"}, "M_14041": {"note_status": 1, "channel": 12, "note": 65, "velocity": 68, "time": 0, "type": "NormalMsg"}, "M_14042": {"note_status": 1, "channel": 12, "note": 67, "velocity": 69, "time": 0, "type": "NormalMsg"}, "M_14043": {"note_status": 1, "channel": 12, "note": 65, "velocity": 0, "time": 0, "type": "NormalMsg"}, "M_14044": {"note_status": 1, "channel": 12, "note": 65, "velocity": 69, "time": 0, "type": "NormalMsg"}, "M_14045": {"note_status": 1, "channel": 12, "note": 67, "velocity": 0, "time": 0, "type": "NormalMsg"}, "M_14046": {"note_status": 1, "channel": 12, "note": 65, "velocity": 0, "time": 0, "type": "NormalMsg"}, "M_14047": {"note_status": 1, "channel": 12, "note": 67, "velocity": 69, "time": 0, "type": "NormalMsg"}, "M_14048": {"note_status": 1, "channel": 12, "note": 65, "velocity": 69, "time": 0, "type": "NormalMsg"}, "M_14049": {"note_status": 1, "channel": 12, "note": 67, "velocity": 0, "time": 0, "type": "NormalMsg"}, "M_14050": {"note_status": 1, "channel": 12, "note": 65, "velocity": 0, "time": 0, "type": "NormalMsg"}, "M_14051": {"note_status": 1, "channel": 12, "note": 67, "velocity": 69, "time": 0, "type": "NormalMsg"}, "M_14052": {"note_status": 1, "channel": 12, "note": 67, "velocity": 0, "time": 0, "type": "NormalMsg"}, "M_14053": {"note_status": 1, "channel": 12, "note": 72, "velocity": 57, "time": 0, "type": "NormalMsg"}, "M_14054": {"note_status": 1, "channel": 12, "note": 72, "velocity": 0, "time": 0, "type": "NormalMsg"}, "M_14055": {"note_status": 1, "channel": 12, "note": 79, "velocity": 70, "time": 0, "type": "NormalMsg"}, "M_14056": {"note_status": 1, "channel": 12, "note": 72, "velocity": 67, "time": 0, "type": "NormalMsg"}, "M_14057": {"note_status": 1, "channel": 12, "note": 79, "velocity": 0, "time": 0, "type": "NormalMsg"}, "M_14058": {"note_status": 1, "channel": 12, "note": 72, "velocity": 0, "time": 0, "type": "NormalMsg"}, "M_14059": {"note_status": 1, "channel": 12, "note": 72, "velocity": 77, "time": 0, "type": "NormalMsg"}, "M_14060": {"note_status": 1, "channel": 12, "note": 72, "velocity": 0, "time": 0, "type": "NormalMsg"}, "M_14061": {"note_status": 1, "channel": 12, "note": 72, "velocity": 67, "time": 0, "type": "NormalMsg"}, "M_14062": {"note_status": 1, "channel": 12, "note": 72, "velocity": 0, "time": 0, "type": "NormalMsg"}, "M_14063": {"note_status": 1, "channel": 12, "note": 79, "velocity": 70, "time": 0, "type": "NormalMsg"}, "M_14064": {"note_status": 1, "channel": 12, "note": 72, "velocity": 84, "time": 0, "type": "NormalMsg"}, "M_14065": {"note_status": 1, "channel": 12, "note": 79, "velocity": 0, "time": 0, "type": "NormalMsg"}, "M_14066": {"note_status": 1, "channel": 12, "note": 72, "velocity": 0, "time": 0, "type": "NormalMsg"}, "M_14067": {"note_status": 1, "channel": 12, "note": 72, "velocity": 70, "time": 0, "type": "NormalMsg"}, "M_14068": {"note_status": 1, "channel": 12, "note": 72, "velocity": 0, "time": 0, "type": "NormalMsg"}, "M_14069": {"note_status": 1, "channel": 12, "note": 72, "velocity": 67, "time": 0, "type": "NormalMsg"}, "M_14070": {"note_status": 1, "channel": 12, "note": 72, "velocity": 0, "time": 0, "type": "NormalMsg"}, "M_14071": {"note_status": 1, "channel": 12, "note": 79, "velocity": 70, "time": 0, "type": "NormalMsg"}, "M_14072": {"note_status": 1, "channel": 12, "note": 72, "velocity": 84, "time": 0, "type": "NormalMsg"}, "M_14073": {"note_status": 1, "channel": 12, "note": 79, "velocity": 0, "time": 0, "type": "NormalMsg"}, "M_14074": {"note_status": 1, "channel": 12, "note": 72, "velocity": 0, "time": 0, "type": "NormalMsg"}, "M_14075": {"note_status": 1, "channel": 12, "note": 72, "velocity": 70, "time": 0, "type": "NormalMsg"}, "M_14076": {"note_status": 1, "channel": 12, "note": 72, "velocity": 0, "time": 0, "type": "NormalMsg"}, "M_14077": {"note_status": 1, "channel": 12, "note": 79, "velocity": 70, "time": 0, "type": "NormalMsg"}, "M_14078": {"note_status": 1, "channel": 12, "note": 79, "velocity": 0, "time": 0, "type": "NormalMsg"}, "M_14079": {"note_status": 1, "channel": 12, "note": 72, "velocity": 84, "time": 0, "type": "NormalMsg"}, "M_14080": {"note_status": 1, "channel": 12, "note": 72, "velocity": 0, "time": 0, "type": "NormalMsg"}, "M_14081": {"note_status": 1, "channel": 12, "note": 72, "velocity": 70, "time": 0, "type": "NormalMsg"}, "M_14082": {"note_status": 1, "channel": 12, "note": 72, "velocity": 0, "time": 0, "type": "NormalMsg"}, "M_14083": {"note_status": 1, "channel": 12, "note": 72, "velocity": 57, "time": 0, "type": "NormalMsg"}, "M_14084": {"note_status": 1, "channel": 12, "note": 72, "velocity": 0, "time": 0, "type": "NormalMsg"}, "M_14085": {"note_status": 1, "channel": 12, "note": 79, "velocity": 70, "time": 0, "type": "NormalMsg"}, "M_14086": {"note_status": 1, "channel": 12, "note": 72, "velocity": 67, "time": 0, "type": "NormalMsg"}, "M_14087": {"note_status": 1, "channel": 12, "note": 79, "velocity": 0, "time": 0, "type": "NormalMsg"}, "M_14088": {"note_status": 1, "channel": 12, "note": 72, "velocity": 0, "time": 0, "type": "NormalMsg"}, "M_14089": {"note_status": 1, "channel": 12, "note": 72, "velocity": 77, "time": 0, "type": "NormalMsg"}, "M_14090": {"note_status": 1, "channel": 12, "note": 72, "velocity": 0, "time": 0, "type": "NormalMsg"}, "M_14091": {"note_status": 1, "channel": 12, "note": 72, "velocity": 67, "time": 0, "type": "NormalMsg"}, "M_14092": {"note_status": 1, "channel": 12, "note": 72, "velocity": 0, "time": 0, "type": "NormalMsg"}, "M_14093": {"note_status": 1, "channel": 12, "note": 79, "velocity": 70, "time": 0, "type": "NormalMsg"}, "M_14094": {"note_status": 1, "channel": 12, "note": 72, "velocity": 84, "time": 0, "type": "NormalMsg"}, "M_14095": {"note_status": 1, "channel": 12, "note": 79, "velocity": 0, "time": 0, "type": "NormalMsg"}, "M_14096": {"note_status": 1, "channel": 12, "note": 72, "velocity": 0, "time": 0, "type": "NormalMsg"}, "M_14097": {"note_status": 1, "channel": 12, "note": 72, "velocity": 70, "time": 0, "type": "NormalMsg"}, "M_14098": {"note_status": 1, "channel": 12, "note": 72, "velocity": 0, "time": 0, "type": "NormalMsg"}, "M_14099": {"note_status": 1, "channel": 12, "note": 72, "velocity": 67, "time": 0, "type": "NormalMsg"}, "M_14100": {"note_status": 1, "channel": 12, "note": 72, "velocity": 0, "time": 0, "type": "NormalMsg"}, "M_14101": {"note_status": 1, "channel": 12, "note": 79, "velocity": 70, "time": 0, "type": "NormalMsg"}, "M_14102": {"note_status": 1, "channel": 12, "note": 72, "velocity": 84, "time": 0, "type": "NormalMsg"}, "M_14103": {"note_status": 1, "channel": 12, "note": 79, "velocity": 0, "time": 0, "type": "NormalMsg"}, "M_14104": {"note_status": 1, "channel": 12, "note": 72, "velocity": 0, "time": 0, "type": "NormalMsg"}, "M_14105": {"note_status": 1, "channel": 12, "note": 72, "velocity": 70, "time": 0, "type": "NormalMsg"}, "M_14106": {"note_status": 1, "channel": 12, "note": 72, "velocity": 0, "time": 0, "type": "NormalMsg"}, "M_14107": {"note_status": 1, "channel": 12, "note": 79, "velocity": 70, "time": 0, "type": "NormalMsg"}, "M_14108": {"note_status": 1, "channel": 12, "note": 79, "velocity": 0, "time": 0, "type": "NormalMsg"}, "M_14109": {"note_status": 1, "channel": 12, "note": 72, "velocity": 84, "time": 0, "type": "NormalMsg"}, "M_14110": {"note_status": 1, "channel": 12, "note": 72, "velocity": 0, "time": 0, "type": "NormalMsg"}, "M_14111": {"note_status": 1, "channel": 12, "note": 72, "velocity": 70, "time": 0, "type": "NormalMsg"}, "M_14112": {"note_status": 1, "channel": 12, "note": 72, "velocity": 0, "time": 0, "type": "NormalMsg"}, "M_14113": {"note_status": 1, "channel": 12, "note": 72, "velocity": 57, "time": 0, "type": "NormalMsg"}, "M_14114": {"note_status": 1, "channel": 12, "note": 72, "velocity": 0, "time": 0, "type": "NormalMsg"}, "M_14115": {"note_status": 1, "channel": 12, "note": 79, "velocity": 70, "time": 0, "type": "NormalMsg"}, "M_14116": {"note_status": 1, "channel": 12, "note": 72, "velocity": 67, "time": 0, "type": "NormalMsg"}, "M_14117": {"note_status": 1, "channel": 12, "note": 79, "velocity": 0, "time": 0, "type": "NormalMsg"}, "M_14118": {"note_status": 1, "channel": 12, "note": 72, "velocity": 0, "time": 0, "type": "NormalMsg"}, "M_14119": {"note_status": 1, "channel": 12, "note": 72, "velocity": 77, "time": 0, "type": "NormalMsg"}, "M_14120": {"note_status": 1, "channel": 12, "note": 72, "velocity": 0, "time": 0, "type": "NormalMsg"}, "M_14121": {"note_status": 1, "channel": 12, "note": 72, "velocity": 67, "time": 0, "type": "NormalMsg"}, "M_14122": {"note_status": 1, "channel": 12, "note": 72, "velocity": 0, "time": 0, "type": "NormalMsg"}, "M_14123": {"note_status": 1, "channel": 12, "note": 79, "velocity": 70, "time": 0, "type": "NormalMsg"}, "M_14124": {"note_status": 1, "channel": 12, "note": 72, "velocity": 84, "time": 0, "type": "NormalMsg"}, "M_14125": {"note_status": 1, "channel": 12, "note": 79, "velocity": 0, "time": 0, "type": "NormalMsg"}, "M_14126": {"note_status": 1, "channel": 12, "note": 72, "velocity": 0, "time": 0, "type": "NormalMsg"}, "M_14127": {"note_status": 1, "channel": 12, "note": 72, "velocity": 70, "time": 0, "type": "NormalMsg"}, "M_14128": {"note_status": 1, "channel": 12, "note": 72, "velocity": 0, "time": 0, "type": "NormalMsg"}, "M_14129": {"note_status": 1, "channel": 12, "note": 71, "velocity": 67, "time": 0, "type": "NormalMsg"}, "M_14130": {"note_status": 1, "channel": 12, "note": 71, "velocity": 0, "time": 0, "type": "NormalMsg"}, "M_14131": {"note_status": 1, "channel": 12, "note": 79, "velocity": 70, "time": 0, "type": "NormalMsg"}, "M_14132": {"note_status": 1, "channel": 12, "note": 71, "velocity": 84, "time": 0, "type": "NormalMsg"}, "M_14133": {"note_status": 1, "channel": 12, "note": 79, "velocity": 0, "time": 0, "type": "NormalMsg"}, "M_14134": {"note_status": 1, "channel": 12, "note": 71, "velocity": 0, "time": 0, "type": "NormalMsg"}, "M_14135": {"note_status": 1, "channel": 12, "note": 71, "velocity": 70, "time": 0, "type": "NormalMsg"}, "M_14136": {"note_status": 1, "channel": 12, "note": 71, "velocity": 0, "time": 0, "type": "NormalMsg"}, "M_14137": {"note_status": 1, "channel": 12, "note": 79, "velocity": 70, "time": 0, "type": "NormalMsg"}, "M_14138": {"note_status": 1, "channel": 12, "note": 79, "velocity": 0, "time": 0, "type": "NormalMsg"}, "M_14139": {"note_status": 1, "channel": 12, "note": 71, "velocity": 84, "time": 0, "type": "NormalMsg"}, "M_14140": {"note_status": 1, "channel": 12, "note": 71, "velocity": 0, "time": 0, "type": "NormalMsg"}, "M_14141": {"note_status": 1, "channel": 12, "note": 71, "velocity": 70, "time": 0, "type": "NormalMsg"}, "M_14142": {"note_status": 1, "channel": 12, "note": 71, "velocity": 0, "time": 0, "type": "NormalMsg"}, "M_14143": {"note_status": 1, "channel": 12, "note": 71, "velocity": 57, "time": 0, "type": "NormalMsg"}, "M_14144": {"note_status": 1, "channel": 12, "note": 71, "velocity": 0, "time": 0, "type": "NormalMsg"}, "M_14145": {"note_status": 1, "channel": 12, "note": 79, "velocity": 70, "time": 0, "type": "NormalMsg"}, "M_14146": {"note_status": 1, "channel": 12, "note": 71, "velocity": 67, "time": 0, "type": "NormalMsg"}, "M_14147": {"note_status": 1, "channel": 12, "note": 79, "velocity": 0, "time": 0, "type": "NormalMsg"}, "M_14148": {"note_status": 1, "channel": 12, "note": 71, "velocity": 0, "time": 0, "type": "NormalMsg"}, "M_14149": {"note_status": 1, "channel": 12, "note": 71, "velocity": 77, "time": 0, "type": "NormalMsg"}, "M_14150": {"note_status": 1, "channel": 12, "note": 71, "velocity": 0, "time": 0, "type": "NormalMsg"}, "M_14151": {"note_status": 1, "channel": 12, "note": 71, "velocity": 67, "time": 0, "type": "NormalMsg"}, "M_14152": {"note_status": 1, "channel": 12, "note": 71, "velocity": 0, "time": 0, "type": "NormalMsg"}, "M_14153": {"note_status": 1, "channel": 12, "note": 65, "velocity": 68, "time": 0, "type": "NormalMsg"}, "M_14154": {"note_status": 1, "channel": 12, "note": 67, "velocity": 69, "time": 0, "type": "NormalMsg"}, "M_14155": {"note_status": 1, "channel": 12, "note": 65, "velocity": 0, "time": 0, "type": "NormalMsg"}, "M_14156": {"note_status": 1, "channel": 12, "note": 65, "velocity": 69, "time": 0, "type": "NormalMsg"}, "M_14157": {"note_status": 1, "channel": 12, "note": 67, "velocity": 0, "time": 0, "type": "NormalMsg"}, "M_14158": {"note_status": 1, "channel": 12, "note": 65, "velocity": 0, "time": 0, "type": "NormalMsg"}, "M_14159": {"note_status": 1, "channel": 12, "note": 67, "velocity": 69, "time": 0, "type": "NormalMsg"}, "M_14160": {"note_status": 1, "channel": 12, "note": 65, "velocity": 69, "time": 0, "type": "NormalMsg"}, "M_14161": {"note_status": 1, "channel": 12, "note": 67, "velocity": 0, "time": 0, "type": "NormalMsg"}, "M_14162": {"note_status": 1, "channel": 12, "note": 65, "velocity": 0, "time": 0, "type": "NormalMsg"}, "M_14163": {"note_status": 1, "channel": 12, "note": 67, "velocity": 69, "time": 0, "type": "NormalMsg"}, "M_14164": {"note_status": 1, "channel": 12, "note": 67, "velocity": 0, "time": 0, "type": "NormalMsg"}, "M_14165": {"note_status": 1, "channel": 12, "note": 72, "velocity": 57, "time": 0, "type": "NormalMsg"}, "M_14166": {"note_status": 1, "channel": 12, "note": 72, "velocity": 0, "time": 0, "type": "NormalMsg"}, "M_14167": {"note_status": 1, "channel": 12, "note": 79, "velocity": 70, "time": 0, "type": "NormalMsg"}, "M_14168": {"note_status": 1, "channel": 12, "note": 72, "velocity": 67, "time": 0, "type": "NormalMsg"}, "M_14169": {"note_status": 1, "channel": 12, "note": 79, "velocity": 0, "time": 0, "type": "NormalMsg"}, "M_14170": {"note_status": 1, "channel": 12, "note": 72, "velocity": 0, "time": 0, "type": "NormalMsg"}, "M_14171": {"note_status": 1, "channel": 12, "note": 72, "velocity": 77, "time": 0, "type": "NormalMsg"}, "M_14172": {"note_status": 1, "channel": 12, "note": 72, "velocity": 0, "time": 0, "type": "NormalMsg"}, "M_14173": {"note_status": 1, "channel": 12, "note": 72, "velocity": 67, "time": 0, "type": "NormalMsg"}, "M_14174": {"note_status": 1, "channel": 12, "note": 72, "velocity": 0, "time": 0, "type": "NormalMsg"}, "M_14175": {"note_status": 1, "channel": 12, "note": 79, "velocity": 70, "time": 0, "type": "NormalMsg"}, "M_14176": {"note_status": 1, "channel": 12, "note": 72, "velocity": 84, "time": 0, "type": "NormalMsg"}, "M_14177": {"note_status": 1, "channel": 12, "note": 79, "velocity": 0, "time": 0, "type": "NormalMsg"}, "M_14178": {"note_status": 1, "channel": 12, "note": 72, "velocity": 0, "time": 0, "type": "NormalMsg"}, "M_14179": {"note_status": 1, "channel": 12, "note": 72, "velocity": 70, "time": 0, "type": "NormalMsg"}, "M_14180": {"note_status": 1, "channel": 12, "note": 72, "velocity": 0, "time": 0, "type": "NormalMsg"}, "M_14181": {"note_status": 1, "channel": 12, "note": 72, "velocity": 67, "time": 0, "type": "NormalMsg"}, "M_14182": {"note_status": 1, "channel": 12, "note": 72, "velocity": 0, "time": 0, "type": "NormalMsg"}, "M_14183": {"note_status": 1, "channel": 12, "note": 79, "velocity": 70, "time": 0, "type": "NormalMsg"}, "M_14184": {"note_status": 1, "channel": 12, "note": 72, "velocity": 84, "time": 0, "type": "NormalMsg"}, "M_14185": {"note_status": 1, "channel": 12, "note": 79, "velocity": 0, "time": 0, "type": "NormalMsg"}, "M_14186": {"note_status": 1, "channel": 12, "note": 72, "velocity": 0, "time": 0, "type": "NormalMsg"}, "M_14187": {"note_status": 1, "channel": 12, "note": 72, "velocity": 70, "time": 0, "type": "NormalMsg"}, "M_14188": {"note_status": 1, "channel": 12, "note": 72, "velocity": 0, "time": 0, "type": "NormalMsg"}, "M_14189": {"note_status": 1, "channel": 12, "note": 79, "velocity": 70, "time": 0, "type": "NormalMsg"}, "M_14190": {"note_status": 1, "channel": 12, "note": 79, "velocity": 0, "time": 0, "type": "NormalMsg"}, "M_14191": {"note_status": 1, "channel": 12, "note": 72, "velocity": 84, "time": 0, "type": "NormalMsg"}, "M_14192": {"note_status": 1, "channel": 12, "note": 72, "velocity": 0, "time": 0, "type": "NormalMsg"}, "M_14193": {"note_status": 1, "channel": 12, "note": 72, "velocity": 70, "time": 0, "type": "NormalMsg"}, "M_14194": {"note_status": 1, "channel": 12, "note": 72, "velocity": 0, "time": 0, "type": "NormalMsg"}, "M_14195": {"note_status": 1, "channel": 12, "note": 72, "velocity": 57, "time": 0, "type": "NormalMsg"}, "M_14196": {"note_status": 1, "channel": 12, "note": 72, "velocity": 0, "time": 0, "type": "NormalMsg"}, "M_14197": {"note_status": 1, "channel": 12, "note": 79, "velocity": 70, "time": 0, "type": "NormalMsg"}, "M_14198": {"note_status": 1, "channel": 12, "note": 72, "velocity": 67, "time": 0, "type": "NormalMsg"}, "M_14199": {"note_status": 1, "channel": 12, "note": 79, "velocity": 0, "time": 0, "type": "NormalMsg"}, "M_14200": {"note_status": 1, "channel": 12, "note": 72, "velocity": 0, "time": 0, "type": "NormalMsg"}, "M_14201": {"note_status": 1, "channel": 12, "note": 72, "velocity": 77, "time": 0, "type": "NormalMsg"}, "M_14202": {"note_status": 1, "channel": 12, "note": 72, "velocity": 0, "time": 0, "type": "NormalMsg"}, "M_14203": {"note_status": 1, "channel": 12, "note": 72, "velocity": 67, "time": 0, "type": "NormalMsg"}, "M_14204": {"note_status": 1, "channel": 12, "note": 72, "velocity": 0, "time": 0, "type": "NormalMsg"}, "M_14205": {"note_status": 1, "channel": 12, "note": 79, "velocity": 70, "time": 0, "type": "NormalMsg"}, "M_14206": {"note_status": 1, "channel": 12, "note": 72, "velocity": 84, "time": 0, "type": "NormalMsg"}, "M_14207": {"note_status": 1, "channel": 12, "note": 79, "velocity": 0, "time": 0, "type": "NormalMsg"}, "M_14208": {"note_status": 1, "channel": 12, "note": 72, "velocity": 0, "time": 0, "type": "NormalMsg"}, "M_14209": {"note_status": 1, "channel": 12, "note": 72, "velocity": 70, "time": 0, "type": "NormalMsg"}, "M_14210": {"note_status": 1, "channel": 12, "note": 72, "velocity": 0, "time": 0, "type": "NormalMsg"}, "M_14211": {"note_status": 1, "channel": 12, "note": 72, "velocity": 67, "time": 0, "type": "NormalMsg"}, "M_14212": {"note_status": 1, "channel": 12, "note": 72, "velocity": 0, "time": 0, "type": "NormalMsg"}, "M_14213": {"note_status": 1, "channel": 12, "note": 79, "velocity": 70, "time": 0, "type": "NormalMsg"}, "M_14214": {"note_status": 1, "channel": 12, "note": 72, "velocity": 84, "time": 0, "type": "NormalMsg"}, "M_14215": {"note_status": 1, "channel": 12, "note": 79, "velocity": 0, "time": 0, "type": "NormalMsg"}, "M_14216": {"note_status": 1, "channel": 12, "note": 72, "velocity": 0, "time": 0, "type": "NormalMsg"}, "M_14217": {"note_status": 1, "channel": 12, "note": 72, "velocity": 70, "time": 0, "type": "NormalMsg"}, "M_14218": {"note_status": 1, "channel": 12, "note": 72, "velocity": 0, "time": 0, "type": "NormalMsg"}, "M_14219": {"note_status": 1, "channel": 12, "note": 79, "velocity": 70, "time": 0, "type": "NormalMsg"}, "M_14220": {"note_status": 1, "channel": 12, "note": 79, "velocity": 0, "time": 0, "type": "NormalMsg"}, "M_14221": {"note_status": 1, "channel": 12, "note": 72, "velocity": 84, "time": 0, "type": "NormalMsg"}, "M_14222": {"note_status": 1, "channel": 12, "note": 72, "velocity": 0, "time": 0, "type": "NormalMsg"}, "M_14223": {"note_status": 1, "channel": 12, "note": 72, "velocity": 70, "time": 0, "type": "NormalMsg"}, "M_14224": {"note_status": 1, "channel": 12, "note": 72, "velocity": 0, "time": 0, "type": "NormalMsg"}, "M_14225": {"note_status": 1, "channel": 12, "note": 72, "velocity": 57, "time": 0, "type": "NormalMsg"}, "M_14226": {"note_status": 1, "channel": 12, "note": 72, "velocity": 0, "time": 0, "type": "NormalMsg"}, "M_14227": {"note_status": 1, "channel": 12, "note": 79, "velocity": 70, "time": 0, "type": "NormalMsg"}, "M_14228": {"note_status": 1, "channel": 12, "note": 72, "velocity": 67, "time": 0, "type": "NormalMsg"}, "M_14229": {"note_status": 1, "channel": 12, "note": 79, "velocity": 0, "time": 0, "type": "NormalMsg"}, "M_14230": {"note_status": 1, "channel": 12, "note": 72, "velocity": 0, "time": 0, "type": "NormalMsg"}, "M_14231": {"note_status": 1, "channel": 12, "note": 72, "velocity": 77, "time": 0, "type": "NormalMsg"}, "M_14232": {"note_status": 1, "channel": 12, "note": 72, "velocity": 0, "time": 0, "type": "NormalMsg"}, "M_14233": {"note_status": 1, "channel": 12, "note": 72, "velocity": 67, "time": 0, "type": "NormalMsg"}, "M_14234": {"note_status": 1, "channel": 12, "note": 72, "velocity": 0, "time": 0, "type": "NormalMsg"}, "M_14235": {"note_status": 1, "channel": 12, "note": 79, "velocity": 70, "time": 0, "type": "NormalMsg"}, "M_14236": {"note_status": 1, "channel": 12, "note": 72, "velocity": 84, "time": 0, "type": "NormalMsg"}, "M_14237": {"note_status": 1, "channel": 12, "note": 79, "velocity": 0, "time": 0, "type": "NormalMsg"}, "M_14238": {"note_status": 1, "channel": 12, "note": 72, "velocity": 0, "time": 0, "type": "NormalMsg"}, "M_14239": {"note_status": 1, "channel": 12, "note": 72, "velocity": 70, "time": 0, "type": "NormalMsg"}, "M_14240": {"note_status": 1, "channel": 12, "note": 72, "velocity": 0, "time": 0, "type": "NormalMsg"}, "M_14241": {"note_status": 1, "channel": 12, "note": 71, "velocity": 67, "time": 0, "type": "NormalMsg"}, "M_14242": {"note_status": 1, "channel": 12, "note": 71, "velocity": 0, "time": 0, "type": "NormalMsg"}, "M_14243": {"note_status": 1, "channel": 12, "note": 79, "velocity": 70, "time": 0, "type": "NormalMsg"}, "M_14244": {"note_status": 1, "channel": 12, "note": 71, "velocity": 84, "time": 0, "type": "NormalMsg"}, "M_14245": {"note_status": 1, "channel": 12, "note": 79, "velocity": 0, "time": 0, "type": "NormalMsg"}, "M_14246": {"note_status": 1, "channel": 12, "note": 71, "velocity": 0, "time": 0, "type": "NormalMsg"}, "M_14247": {"note_status": 1, "channel": 12, "note": 71, "velocity": 70, "time": 0, "type": "NormalMsg"}, "M_14248": {"note_status": 1, "channel": 12, "note": 71, "velocity": 0, "time": 0, "type": "NormalMsg"}, "M_14249": {"note_status": 1, "channel": 12, "note": 79, "velocity": 70, "time": 0, "type": "NormalMsg"}, "M_14250": {"note_status": 1, "channel": 12, "note": 79, "velocity": 0, "time": 0, "type": "NormalMsg"}, "M_14251": {"note_status": 1, "channel": 12, "note": 71, "velocity": 84, "time": 0, "type": "NormalMsg"}, "M_14252": {"note_status": 1, "channel": 12, "note": 71, "velocity": 0, "time": 0, "type": "NormalMsg"}, "M_14253": {"note_status": 1, "channel": 12, "note": 71, "velocity": 70, "time": 0, "type": "NormalMsg"}, "M_14254": {"note_status": 1, "channel": 12, "note": 71, "velocity": 0, "time": 0, "type": "NormalMsg"}, "M_14255": {"note_status": 1, "channel": 12, "note": 71, "velocity": 57, "time": 0, "type": "NormalMsg"}, "M_14256": {"note_status": 1, "channel": 12, "note": 71, "velocity": 0, "time": 0, "type": "NormalMsg"}, "M_14257": {"note_status": 1, "channel": 12, "note": 79, "velocity": 70, "time": 0, "type": "NormalMsg"}, "M_14258": {"note_status": 1, "channel": 12, "note": 71, "velocity": 67, "time": 0, "type": "NormalMsg"}, "M_14259": {"note_status": 1, "channel": 12, "note": 79, "velocity": 0, "time": 0, "type": "NormalMsg"}, "M_14260": {"note_status": 1, "channel": 12, "note": 71, "velocity": 0, "time": 0, "type": "NormalMsg"}, "M_14261": {"note_status": 1, "channel": 12, "note": 71, "velocity": 77, "time": 0, "type": "NormalMsg"}, "M_14262": {"note_status": 1, "channel": 12, "note": 71, "velocity": 0, "time": 0, "type": "NormalMsg"}, "M_14263": {"note_status": 1, "channel": 12, "note": 71, "velocity": 67, "time": 0, "type": "NormalMsg"}, "M_14264": {"note_status": 1, "channel": 12, "note": 71, "velocity": 0, "time": 0, "type": "NormalMsg"}, "M_14265": {"note_status": 1, "channel": 12, "note": 65, "velocity": 68, "time": 0, "type": "NormalMsg"}, "M_14266": {"note_status": 1, "channel": 12, "note": 67, "velocity": 69, "time": 0, "type": "NormalMsg"}, "M_14267": {"note_status": 1, "channel": 12, "note": 65, "velocity": 0, "time": 0, "type": "NormalMsg"}, "M_14268": {"note_status": 1, "channel": 12, "note": 65, "velocity": 69, "time": 0, "type": "NormalMsg"}, "M_14269": {"note_status": 1, "channel": 12, "note": 67, "velocity": 0, "time": 0, "type": "NormalMsg"}, "M_14270": {"note_status": 1, "channel": 12, "note": 65, "velocity": 0, "time": 0, "type": "NormalMsg"}, "M_14271": {"note_status": 1, "channel": 12, "note": 67, "velocity": 69, "time": 0, "type": "NormalMsg"}, "M_14272": {"note_status": 1, "channel": 12, "note": 65, "velocity": 69, "time": 0, "type": "NormalMsg"}, "M_14273": {"note_status": 1, "channel": 12, "note": 67, "velocity": 0, "time": 0, "type": "NormalMsg"}, "M_14274": {"note_status": 1, "channel": 12, "note": 65, "velocity": 0, "time": 0, "type": "NormalMsg"}, "M_14275": {"note_status": 1, "channel": 12, "note": 67, "velocity": 69, "time": 0, "type": "NormalMsg"}, "M_14276": {"note_status": 1, "channel": 12, "note": 67, "velocity": 0, "time": 0, "type": "NormalMsg"}, "R_14277": {"note_status": 0, "channel": 0, "note": 0, "velocity": 0, "time": 0, "type": "ResetMsg"}, "R_14278": {"note_status": 0, "channel": 0, "note": 0, "velocity": 0, "time": 0, "type": "ResetMsg"}, "U_14279": {"note_status": 0, "channel": 0, "note": 0, "velocity": 0, "time": 0, "type": "DummyType"}, "M_14280": {"note_status": 1, "channel": 13, "note": 67, "velocity": 120, "time": 0, "type": "NormalMsg"}, "M_14281": {"note_status": 1, "channel": 13, "note": 72, "velocity": 120, "time": 0, "type": "NormalMsg"}, "M_14282": {"note_status": 1, "channel": 13, "note": 74, "velocity": 122, "time": 0, "type": "NormalMsg"}, "M_14283": {"note_status": 1, "channel": 13, "note": 67, "velocity": 0, "time": 0, "type": "NormalMsg"}, "M_14284": {"note_status": 1, "channel": 13, "note": 72, "velocity": 0, "time": 0, "type": "NormalMsg"}, "M_14285": {"note_status": 1, "channel": 13, "note": 74, "velocity": 0, "time": 0, "type": "NormalMsg"}, "M_14286": {"note_status": 1, "channel": 13, "note": 57, "velocity": 59, "time": 0, "type": "NormalMsg"}, "M_14287": {"note_status": 1, "channel": 13, "note": 57, "velocity": 0, "time": 0, "type": "NormalMsg"}, "M_14288": {"note_status": 1, "channel": 13, "note": 69, "velocity": 73, "time": 0, "type": "NormalMsg"}, "M_14289": {"note_status": 1, "channel": 13, "note": 69, "velocity": 0, "time": 0, "type": "NormalMsg"}, "M_14290": {"note_status": 1, "channel": 13, "note": 69, "velocity": 64, "time": 0, "type": "NormalMsg"}, "M_14291": {"note_status": 1, "channel": 13, "note": 69, "velocity": 0, "time": 0, "type": "NormalMsg"}, "M_14292": {"note_status": 1, "channel": 13, "note": 69, "velocity": 70, "time": 0, "type": "NormalMsg"}, "M_14293": {"note_status": 1, "channel": 13, "note": 69, "velocity": 0, "time": 0, "type": "NormalMsg"}, "M_14294": {"note_status": 1, "channel": 13, "note": 69, "velocity": 77, "time": 0, "type": "NormalMsg"}, "M_14295": {"note_status": 1, "channel": 13, "note": 69, "velocity": 0, "time": 0, "type": "NormalMsg"}, "M_14296": {"note_status": 1, "channel": 13, "note": 57, "velocity": 64, "time": 0, "type": "NormalMsg"}, "M_14297": {"note_status": 1, "channel": 13, "note": 57, "velocity": 0, "time": 0, "type": "NormalMsg"}, "M_14298": {"note_status": 1, "channel": 13, "note": 69, "velocity": 70, "time": 0, "type": "NormalMsg"}, "M_14299": {"note_status": 1, "channel": 13, "note": 69, "velocity": 0, "time": 0, "type": "NormalMsg"}, "M_14300": {"note_status": 1, "channel": 13, "note": 69, "velocity": 80, "time": 0, "type": "NormalMsg"}, "M_14301": {"note_status": 1, "channel": 13, "note": 69, "velocity": 0, "time": 0, "type": "NormalMsg"}, "M_14302": {"note_status": 1, "channel": 13, "note": 69, "velocity": 80, "time": 0, "type": "NormalMsg"}, "M_14303": {"note_status": 1, "channel": 13, "note": 69, "velocity": 0, "time": 0, "type": "NormalMsg"}, "M_14304": {"note_status": 1, "channel": 13, "note": 69, "velocity": 77, "time": 0, "type": "NormalMsg"}, "M_14305": {"note_status": 1, "channel": 13, "note": 69, "velocity": 0, "time": 0, "type": "NormalMsg"}, "M_14306": {"note_status": 1, "channel": 13, "note": 57, "velocity": 80, "time": 0, "type": "NormalMsg"}, "M_14307": {"note_status": 1, "channel": 13, "note": 57, "velocity": 0, "time": 0, "type": "NormalMsg"}, "M_14308": {"note_status": 1, "channel": 13, "note": 67, "velocity": 120, "time": 0, "type": "NormalMsg"}, "M_14309": {"note_status": 1, "channel": 13, "note": 72, "velocity": 120, "time": 0, "type": "NormalMsg"}, "M_14310": {"note_status": 1, "channel": 13, "note": 74, "velocity": 122, "time": 0, "type": "NormalMsg"}, "M_14311": {"note_status": 1, "channel": 13, "note": 67, "velocity": 0, "time": 0, "type": "NormalMsg"}, "M_14312": {"note_status": 1, "channel": 13, "note": 72, "velocity": 0, "time": 0, "type": "NormalMsg"}, "M_14313": {"note_status": 1, "channel": 13, "note": 74, "velocity": 0, "time": 0, "type": "NormalMsg"}, "M_14314": {"note_status": 1, "channel": 13, "note": 57, "velocity": 59, "time": 0, "type": "NormalMsg"}, "M_14315": {"note_status": 1, "channel": 13, "note": 57, "velocity": 0, "time": 0, "type": "NormalMsg"}, "M_14316": {"note_status": 1, "channel": 13, "note": 69, "velocity": 73, "time": 0, "type": "NormalMsg"}, "M_14317": {"note_status": 1, "channel": 13, "note": 69, "velocity": 0, "time": 0, "type": "NormalMsg"}, "M_14318": {"note_status": 1, "channel": 13, "note": 69, "velocity": 64, "time": 0, "type": "NormalMsg"}, "M_14319": {"note_status": 1, "channel": 13, "note": 69, "velocity": 0, "time": 0, "type": "NormalMsg"}, "M_14320": {"note_status": 1, "channel": 13, "note": 69, "velocity": 70, "time": 0, "type": "NormalMsg"}, "M_14321": {"note_status": 1, "channel": 13, "note": 69, "velocity": 0, "time": 0, "type": "NormalMsg"}, "M_14322": {"note_status": 1, "channel": 13, "note": 69, "velocity": 77, "time": 0, "type": "NormalMsg"}, "M_14323": {"note_status": 1, "channel": 13, "note": 69, "velocity": 0, "time": 0, "type": "NormalMsg"}, "M_14324": {"note_status": 1, "channel": 13, "note": 57, "velocity": 64, "time": 0, "type": "NormalMsg"}, "M_14325": {"note_status": 1, "channel": 13, "note": 57, "velocity": 0, "time": 0, "type": "NormalMsg"}, "M_14326": {"note_status": 1, "channel": 13, "note": 69, "velocity": 70, "time": 0, "type": "NormalMsg"}, "M_14327": {"note_status": 1, "channel": 13, "note": 69, "velocity": 0, "time": 0, "type": "NormalMsg"}, "M_14328": {"note_status": 1, "channel": 13, "note": 69, "velocity": 80, "time": 0, "type": "NormalMsg"}, "M_14329": {"note_status": 1, "channel": 13, "note": 69, "velocity": 0, "time": 0, "type": "NormalMsg"}, "M_14330": {"note_status": 1, "channel": 13, "note": 69, "velocity": 80, "time": 0, "type": "NormalMsg"}, "M_14331": {"note_status": 1, "channel": 13, "note": 69, "velocity": 0, "time": 0, "type": "NormalMsg"}, "M_14332": {"note_status": 1, "channel": 13, "note": 69, "velocity": 77, "time": 0, "type": "NormalMsg"}, "M_14333": {"note_status": 1, "channel": 13, "note": 69, "velocity": 0, "time": 0, "type": "NormalMsg"}, "M_14334": {"note_status": 1, "channel": 13, "note": 57, "velocity": 80, "time": 0, "type": "NormalMsg"}, "M_14335": {"note_status": 1, "channel": 13, "note": 57, "velocity": 0, "time": 0, "type": "NormalMsg"}, "M_14336": {"note_status": 1, "channel": 13, "note": 64, "velocity": 93, "time": 0, "type": "NormalMsg"}, "M_14337": {"note_status": 1, "channel": 13, "note": 64, "velocity": 0, "time": 0, "type": "NormalMsg"}, "M_14338": {"note_status": 1, "channel": 13, "note": 64, "velocity": 93, "time": 0, "type": "NormalMsg"}, "M_14339": {"note_status": 1, "channel": 13, "note": 64, "velocity": 0, "time": 0, "type": "NormalMsg"}, "M_14340": {"note_status": 1, "channel": 13, "note": 64, "velocity": 93, "time": 0, "type": "NormalMsg"}, "M_14341": {"note_status": 1, "channel": 13, "note": 64, "velocity": 0, "time": 0, "type": "NormalMsg"}, "M_14342": {"note_status": 1, "channel": 13, "note": 64, "velocity": 93, "time": 0, "type": "NormalMsg"}, "M_14343": {"note_status": 1, "channel": 13, "note": 64, "velocity": 0, "time": 0, "type": "NormalMsg"}, "M_14344": {"note_status": 1, "channel": 13, "note": 64, "velocity": 93, "time": 0, "type": "NormalMsg"}, "M_14345": {"note_status": 1, "channel": 13, "note": 64, "velocity": 0, "time": 0, "type": "NormalMsg"}, "M_14346": {"note_status": 1, "channel": 13, "note": 64, "velocity": 93, "time": 0, "type": "NormalMsg"}, "M_14347": {"note_status": 1, "channel": 13, "note": 64, "velocity": 0, "time": 0, "type": "NormalMsg"}, "M_14348": {"note_status": 1, "channel": 13, "note": 64, "velocity": 93, "time": 0, "type": "NormalMsg"}, "M_14349": {"note_status": 1, "channel": 13, "note": 64, "velocity": 0, "time": 0, "type": "NormalMsg"}, "M_14350": {"note_status": 1, "channel": 13, "note": 64, "velocity": 93, "time": 0, "type": "NormalMsg"}, "M_14351": {"note_status": 1, "channel": 13, "note": 64, "velocity": 0, "time": 0, "type": "NormalMsg"}, "M_14352": {"note_status": 1, "channel": 13, "note": 64, "velocity": 93, "time": 0, "type": "NormalMsg"}, "M_14353": {"note_status": 1, "channel": 13, "note": 64, "velocity": 0, "time": 0, "type": "NormalMsg"}, "M_14354": {"note_status": 1, "channel": 13, "note": 64, "velocity": 93, "time": 0, "type": "NormalMsg"}, "M_14355": {"note_status": 1, "channel": 13, "note": 64, "velocity": 0, "time": 0, "type": "NormalMsg"}, "M_14356": {"note_status": 1, "channel": 13, "note": 64, "velocity": 93, "time": 0, "type": "NormalMsg"}, "M_14357": {"note_status": 1, "channel": 13, "note": 64, "velocity": 0, "time": 0, "type": "NormalMsg"}, "M_14358": {"note_status": 1, "channel": 13, "note": 64, "velocity": 93, "time": 0, "type": "NormalMsg"}, "M_14359": {"note_status": 1, "channel": 13, "note": 64, "velocity": 0, "time": 0, "type": "NormalMsg"}, "M_14360": {"note_status": 1, "channel": 13, "note": 64, "velocity": 93, "time": 0, "type": "NormalMsg"}, "M_14361": {"note_status": 1, "channel": 13, "note": 64, "velocity": 0, "time": 0, "type": "NormalMsg"}, "M_14362": {"note_status": 1, "channel": 13, "note": 67, "velocity": 120, "time": 0, "type": "NormalMsg"}, "M_14363": {"note_status": 1, "channel": 13, "note": 72, "velocity": 120, "time": 0, "type": "NormalMsg"}, "M_14364": {"note_status": 1, "channel": 13, "note": 74, "velocity": 122, "time": 0, "type": "NormalMsg"}, "M_14365": {"note_status": 1, "channel": 13, "note": 67, "velocity": 0, "time": 0, "type": "NormalMsg"}, "M_14366": {"note_status": 1, "channel": 13, "note": 72, "velocity": 0, "time": 0, "type": "NormalMsg"}, "M_14367": {"note_status": 1, "channel": 13, "note": 74, "velocity": 0, "time": 0, "type": "NormalMsg"}, "M_14368": {"note_status": 1, "channel": 13, "note": 57, "velocity": 59, "time": 0, "type": "NormalMsg"}, "M_14369": {"note_status": 1, "channel": 13, "note": 57, "velocity": 0, "time": 0, "type": "NormalMsg"}, "M_14370": {"note_status": 1, "channel": 13, "note": 69, "velocity": 73, "time": 0, "type": "NormalMsg"}, "M_14371": {"note_status": 1, "channel": 13, "note": 69, "velocity": 0, "time": 0, "type": "NormalMsg"}, "M_14372": {"note_status": 1, "channel": 13, "note": 69, "velocity": 64, "time": 0, "type": "NormalMsg"}, "M_14373": {"note_status": 1, "channel": 13, "note": 69, "velocity": 0, "time": 0, "type": "NormalMsg"}, "M_14374": {"note_status": 1, "channel": 13, "note": 69, "velocity": 70, "time": 0, "type": "NormalMsg"}, "M_14375": {"note_status": 1, "channel": 13, "note": 69, "velocity": 0, "time": 0, "type": "NormalMsg"}, "M_14376": {"note_status": 1, "channel": 13, "note": 69, "velocity": 77, "time": 0, "type": "NormalMsg"}, "M_14377": {"note_status": 1, "channel": 13, "note": 69, "velocity": 0, "time": 0, "type": "NormalMsg"}, "M_14378": {"note_status": 1, "channel": 13, "note": 57, "velocity": 64, "time": 0, "type": "NormalMsg"}, "M_14379": {"note_status": 1, "channel": 13, "note": 57, "velocity": 0, "time": 0, "type": "NormalMsg"}, "M_14380": {"note_status": 1, "channel": 13, "note": 69, "velocity": 70, "time": 0, "type": "NormalMsg"}, "M_14381": {"note_status": 1, "channel": 13, "note": 69, "velocity": 0, "time": 0, "type": "NormalMsg"}, "M_14382": {"note_status": 1, "channel": 13, "note": 69, "velocity": 80, "time": 0, "type": "NormalMsg"}, "M_14383": {"note_status": 1, "channel": 13, "note": 69, "velocity": 0, "time": 0, "type": "NormalMsg"}, "M_14384": {"note_status": 1, "channel": 13, "note": 69, "velocity": 80, "time": 0, "type": "NormalMsg"}, "M_14385": {"note_status": 1, "channel": 13, "note": 69, "velocity": 0, "time": 0, "type": "NormalMsg"}, "M_14386": {"note_status": 1, "channel": 13, "note": 69, "velocity": 77, "time": 0, "type": "NormalMsg"}, "M_14387": {"note_status": 1, "channel": 13, "note": 69, "velocity": 0, "time": 0, "type": "NormalMsg"}, "M_14388": {"note_status": 1, "channel": 13, "note": 57, "velocity": 80, "time": 0, "type": "NormalMsg"}, "M_14389": {"note_status": 1, "channel": 13, "note": 57, "velocity": 0, "time": 0, "type": "NormalMsg"}, "M_14390": {"note_status": 1, "channel": 13, "note": 64, "velocity": 93, "time": 0, "type": "NormalMsg"}, "M_14391": {"note_status": 1, "channel": 13, "note": 64, "velocity": 0, "time": 0, "type": "NormalMsg"}, "M_14392": {"note_status": 1, "channel": 13, "note": 64, "velocity": 93, "time": 0, "type": "NormalMsg"}, "M_14393": {"note_status": 1, "channel": 13, "note": 64, "velocity": 0, "time": 0, "type": "NormalMsg"}, "M_14394": {"note_status": 1, "channel": 13, "note": 64, "velocity": 93, "time": 0, "type": "NormalMsg"}, "M_14395": {"note_status": 1, "channel": 13, "note": 64, "velocity": 0, "time": 0, "type": "NormalMsg"}, "M_14396": {"note_status": 1, "channel": 13, "note": 64, "velocity": 93, "time": 0, "type": "NormalMsg"}, "M_14397": {"note_status": 1, "channel": 13, "note": 64, "velocity": 0, "time": 0, "type": "NormalMsg"}, "M_14398": {"note_status": 1, "channel": 13, "note": 64, "velocity": 93, "time": 0, "type": "NormalMsg"}, "M_14399": {"note_status": 1, "channel": 13, "note": 64, "velocity": 0, "time": 0, "type": "NormalMsg"}, "M_14400": {"note_status": 1, "channel": 13, "note": 64, "velocity": 93, "time": 0, "type": "NormalMsg"}, "M_14401": {"note_status": 1, "channel": 13, "note": 64, "velocity": 0, "time": 0, "type": "NormalMsg"}, "M_14402": {"note_status": 1, "channel": 13, "note": 64, "velocity": 93, "time": 0, "type": "NormalMsg"}, "M_14403": {"note_status": 1, "channel": 13, "note": 64, "velocity": 0, "time": 0, "type": "NormalMsg"}, "M_14404": {"note_status": 1, "channel": 13, "note": 64, "velocity": 93, "time": 0, "type": "NormalMsg"}, "M_14405": {"note_status": 1, "channel": 13, "note": 64, "velocity": 0, "time": 0, "type": "NormalMsg"}, "M_14406": {"note_status": 1, "channel": 13, "note": 64, "velocity": 93, "time": 0, "type": "NormalMsg"}, "M_14407": {"note_status": 1, "channel": 13, "note": 64, "velocity": 0, "time": 0, "type": "NormalMsg"}, "M_14408": {"note_status": 1, "channel": 13, "note": 64, "velocity": 93, "time": 0, "type": "NormalMsg"}, "M_14409": {"note_status": 1, "channel": 13, "note": 64, "velocity": 0, "time": 0, "type": "NormalMsg"}, "M_14410": {"note_status": 1, "channel": 13, "note": 64, "velocity": 93, "time": 0, "type": "NormalMsg"}, "M_14411": {"note_status": 1, "channel": 13, "note": 64, "velocity": 0, "time": 0, "type": "NormalMsg"}, "M_14412": {"note_status": 1, "channel": 13, "note": 64, "velocity": 93, "time": 0, "type": "NormalMsg"}, "M_14413": {"note_status": 1, "channel": 13, "note": 64, "velocity": 0, "time": 0, "type": "NormalMsg"}, "M_14414": {"note_status": 1, "channel": 13, "note": 64, "velocity": 93, "time": 0, "type": "NormalMsg"}, "M_14415": {"note_status": 1, "channel": 13, "note": 64, "velocity": 0, "time": 0, "type": "NormalMsg"}, "M_14416": {"note_status": 1, "channel": 13, "note": 57, "velocity": 93, "time": 0, "type": "NormalMsg"}, "M_14417": {"note_status": 1, "channel": 13, "note": 57, "velocity": 0, "time": 0, "type": "NormalMsg"}, "R_14418": {"note_status": 0, "channel": 0, "note": 0, "velocity": 0, "time": 0, "type": "ResetMsg"}, "R_14419": {"note_status": 0, "channel": 0, "note": 0, "velocity": 0, "time": 0, "type": "ResetMsg"}, "U_14420": {"note_status": 0, "channel": 0, "note": 0, "velocity": 0, "time": 0, "type": "DummyType"}, "M_14421": {"note_status": 1, "channel": 14, "note": 69, "velocity": 104, "time": 0, "type": "NormalMsg"}, "M_14422": {"note_status": 1, "channel": 14, "note": 72, "velocity": 117, "time": 0, "type": "NormalMsg"}, "M_14423": {"note_status": 1, "channel": 14, "note": 69, "velocity": 0, "time": 0, "type": "NormalMsg"}, "M_14424": {"note_status": 1, "channel": 14, "note": 72, "velocity": 0, "time": 0, "type": "NormalMsg"}, "M_14425": {"note_status": 1, "channel": 14, "note": 71, "velocity": 108, "time": 0, "type": "NormalMsg"}, "M_14426": {"note_status": 1, "channel": 14, "note": 74, "velocity": 94, "time": 0, "type": "NormalMsg"}, "M_14427": {"note_status": 1, "channel": 14, "note": 74, "velocity": 0, "time": 0, "type": "NormalMsg"}, "M_14428": {"note_status": 1, "channel": 14, "note": 71, "velocity": 0, "time": 0, "type": "NormalMsg"}, "M_14429": {"note_status": 1, "channel": 14, "note": 72, "velocity": 104, "time": 0, "type": "NormalMsg"}, "M_14430": {"note_status": 1, "channel": 14, "note": 76, "velocity": 86, "time": 0, "type": "NormalMsg"}, "M_14431": {"note_status": 1, "channel": 14, "note": 72, "velocity": 0, "time": 0, "type": "NormalMsg"}, "M_14432": {"note_status": 1, "channel": 14, "note": 76, "velocity": 0, "time": 0, "type": "NormalMsg"}, "M_14433": {"note_status": 1, "channel": 14, "note": 72, "velocity": 115, "time": 0, "type": "NormalMsg"}, "M_14434": {"note_status": 1, "channel": 14, "note": 76, "velocity": 110, "time": 0, "type": "NormalMsg"}, "M_14435": {"note_status": 1, "channel": 14, "note": 72, "velocity": 0, "time": 0, "type": "NormalMsg"}, "M_14436": {"note_status": 1, "channel": 14, "note": 76, "velocity": 0, "time": 0, "type": "NormalMsg"}, "M_14437": {"note_status": 1, "channel": 14, "note": 69, "velocity": 104, "time": 0, "type": "NormalMsg"}, "M_14438": {"note_status": 1, "channel": 14, "note": 72, "velocity": 117, "time": 0, "type": "NormalMsg"}, "M_14439": {"note_status": 1, "channel": 14, "note": 69, "velocity": 0, "time": 0, "type": "NormalMsg"}, "M_14440": {"note_status": 1, "channel": 14, "note": 72, "velocity": 0, "time": 0, "type": "NormalMsg"}, "M_14441": {"note_status": 1, "channel": 14, "note": 71, "velocity": 108, "time": 0, "type": "NormalMsg"}, "M_14442": {"note_status": 1, "channel": 14, "note": 74, "velocity": 94, "time": 0, "type": "NormalMsg"}, "M_14443": {"note_status": 1, "channel": 14, "note": 71, "velocity": 0, "time": 0, "type": "NormalMsg"}, "M_14444": {"note_status": 1, "channel": 14, "note": 74, "velocity": 0, "time": 0, "type": "NormalMsg"}, "M_14445": {"note_status": 1, "channel": 14, "note": 72, "velocity": 104, "time": 0, "type": "NormalMsg"}, "M_14446": {"note_status": 1, "channel": 14, "note": 76, "velocity": 86, "time": 0, "type": "NormalMsg"}, "M_14447": {"note_status": 1, "channel": 14, "note": 72, "velocity": 0, "time": 0, "type": "NormalMsg"}, "M_14448": {"note_status": 1, "channel": 14, "note": 76, "velocity": 0, "time": 0, "type": "NormalMsg"}, "M_14449": {"note_status": 1, "channel": 14, "note": 72, "velocity": 115, "time": 0, "type": "NormalMsg"}, "M_14450": {"note_status": 1, "channel": 14, "note": 76, "velocity": 110, "time": 0, "type": "NormalMsg"}, "M_14451": {"note_status": 1, "channel": 14, "note": 72, "velocity": 0, "time": 0, "type": "NormalMsg"}, "M_14452": {"note_status": 1, "channel": 14, "note": 76, "velocity": 0, "time": 0, "type": "NormalMsg"}, "M_14453": {"note_status": 1, "channel": 14, "note": 69, "velocity": 104, "time": 0, "type": "NormalMsg"}, "M_14454": {"note_status": 1, "channel": 14, "note": 72, "velocity": 117, "time": 0, "type": "NormalMsg"}, "M_14455": {"note_status": 1, "channel": 14, "note": 69, "velocity": 0, "time": 0, "type": "NormalMsg"}, "M_14456": {"note_status": 1, "channel": 14, "note": 72, "velocity": 0, "time": 0, "type": "NormalMsg"}, "M_14457": {"note_status": 1, "channel": 14, "note": 71, "velocity": 108, "time": 0, "type": "NormalMsg"}, "M_14458": {"note_status": 1, "channel": 14, "note": 74, "velocity": 94, "time": 0, "type": "NormalMsg"}, "M_14459": {"note_status": 1, "channel": 14, "note": 71, "velocity": 0, "time": 0, "type": "NormalMsg"}, "M_14460": {"note_status": 1, "channel": 14, "note": 74, "velocity": 0, "time": 0, "type": "NormalMsg"}, "M_14461": {"note_status": 1, "channel": 14, "note": 72, "velocity": 104, "time": 0, "type": "NormalMsg"}, "M_14462": {"note_status": 1, "channel": 14, "note": 76, "velocity": 86, "time": 0, "type": "NormalMsg"}, "M_14463": {"note_status": 1, "channel": 14, "note": 72, "velocity": 0, "time": 0, "type": "NormalMsg"}, "M_14464": {"note_status": 1, "channel": 14, "note": 76, "velocity": 0, "time": 0, "type": "NormalMsg"}, "M_14465": {"note_status": 1, "channel": 14, "note": 72, "velocity": 115, "time": 0, "type": "NormalMsg"}, "M_14466": {"note_status": 1, "channel": 14, "note": 76, "velocity": 110, "time": 0, "type": "NormalMsg"}, "M_14467": {"note_status": 1, "channel": 14, "note": 72, "velocity": 0, "time": 0, "type": "NormalMsg"}, "M_14468": {"note_status": 1, "channel": 14, "note": 76, "velocity": 0, "time": 0, "type": "NormalMsg"}, "M_14469": {"note_status": 1, "channel": 14, "note": 69, "velocity": 104, "time": 0, "type": "NormalMsg"}, "M_14470": {"note_status": 1, "channel": 14, "note": 72, "velocity": 117, "time": 0, "type": "NormalMsg"}, "M_14471": {"note_status": 1, "channel": 14, "note": 69, "velocity": 0, "time": 0, "type": "NormalMsg"}, "M_14472": {"note_status": 1, "channel": 14, "note": 72, "velocity": 0, "time": 0, "type": "NormalMsg"}, "M_14473": {"note_status": 1, "channel": 14, "note": 71, "velocity": 108, "time": 0, "type": "NormalMsg"}, "M_14474": {"note_status": 1, "channel": 14, "note": 74, "velocity": 94, "time": 0, "type": "NormalMsg"}, "M_14475": {"note_status": 1, "channel": 14, "note": 71, "velocity": 0, "time": 0, "type": "NormalMsg"}, "M_14476": {"note_status": 1, "channel": 14, "note": 74, "velocity": 0, "time": 0, "type": "NormalMsg"}, "M_14477": {"note_status": 1, "channel": 14, "note": 72, "velocity": 104, "time": 0, "type": "NormalMsg"}, "M_14478": {"note_status": 1, "channel": 14, "note": 76, "velocity": 86, "time": 0, "type": "NormalMsg"}, "M_14479": {"note_status": 1, "channel": 14, "note": 72, "velocity": 0, "time": 0, "type": "NormalMsg"}, "M_14480": {"note_status": 1, "channel": 14, "note": 76, "velocity": 0, "time": 0, "type": "NormalMsg"}, "M_14481": {"note_status": 1, "channel": 14, "note": 72, "velocity": 115, "time": 0, "type": "NormalMsg"}, "M_14482": {"note_status": 1, "channel": 14, "note": 76, "velocity": 110, "time": 0, "type": "NormalMsg"}, "M_14483": {"note_status": 1, "channel": 14, "note": 72, "velocity": 0, "time": 0, "type": "NormalMsg"}, "M_14484": {"note_status": 1, "channel": 14, "note": 76, "velocity": 0, "time": 0, "type": "NormalMsg"}, "M_14485": {"note_status": 1, "channel": 14, "note": 69, "velocity": 104, "time": 0, "type": "NormalMsg"}, "M_14486": {"note_status": 1, "channel": 14, "note": 72, "velocity": 117, "time": 0, "type": "NormalMsg"}, "M_14487": {"note_status": 1, "channel": 14, "note": 69, "velocity": 0, "time": 0, "type": "NormalMsg"}, "M_14488": {"note_status": 1, "channel": 14, "note": 72, "velocity": 0, "time": 0, "type": "NormalMsg"}, "M_14489": {"note_status": 1, "channel": 14, "note": 71, "velocity": 108, "time": 0, "type": "NormalMsg"}, "M_14490": {"note_status": 1, "channel": 14, "note": 74, "velocity": 94, "time": 0, "type": "NormalMsg"}, "M_14491": {"note_status": 1, "channel": 14, "note": 71, "velocity": 0, "time": 0, "type": "NormalMsg"}, "M_14492": {"note_status": 1, "channel": 14, "note": 74, "velocity": 0, "time": 0, "type": "NormalMsg"}, "M_14493": {"note_status": 1, "channel": 14, "note": 72, "velocity": 104, "time": 0, "type": "NormalMsg"}, "M_14494": {"note_status": 1, "channel": 14, "note": 76, "velocity": 86, "time": 0, "type": "NormalMsg"}, "M_14495": {"note_status": 1, "channel": 14, "note": 72, "velocity": 0, "time": 0, "type": "NormalMsg"}, "M_14496": {"note_status": 1, "channel": 14, "note": 76, "velocity": 0, "time": 0, "type": "NormalMsg"}, "M_14497": {"note_status": 1, "channel": 14, "note": 72, "velocity": 115, "time": 0, "type": "NormalMsg"}, "M_14498": {"note_status": 1, "channel": 14, "note": 76, "velocity": 110, "time": 0, "type": "NormalMsg"}, "M_14499": {"note_status": 1, "channel": 14, "note": 72, "velocity": 0, "time": 0, "type": "NormalMsg"}, "M_14500": {"note_status": 1, "channel": 14, "note": 76, "velocity": 0, "time": 0, "type": "NormalMsg"}, "M_14501": {"note_status": 1, "channel": 14, "note": 69, "velocity": 104, "time": 0, "type": "NormalMsg"}, "M_14502": {"note_status": 1, "channel": 14, "note": 72, "velocity": 117, "time": 0, "type": "NormalMsg"}, "M_14503": {"note_status": 1, "channel": 14, "note": 69, "velocity": 0, "time": 0, "type": "NormalMsg"}, "M_14504": {"note_status": 1, "channel": 14, "note": 72, "velocity": 0, "time": 0, "type": "NormalMsg"}, "M_14505": {"note_status": 1, "channel": 14, "note": 71, "velocity": 108, "time": 0, "type": "NormalMsg"}, "M_14506": {"note_status": 1, "channel": 14, "note": 74, "velocity": 94, "time": 0, "type": "NormalMsg"}, "M_14507": {"note_status": 1, "channel": 14, "note": 71, "velocity": 0, "time": 0, "type": "NormalMsg"}, "M_14508": {"note_status": 1, "channel": 14, "note": 74, "velocity": 0, "time": 0, "type": "NormalMsg"}, "M_14509": {"note_status": 1, "channel": 14, "note": 72, "velocity": 104, "time": 0, "type": "NormalMsg"}, "M_14510": {"note_status": 1, "channel": 14, "note": 76, "velocity": 86, "time": 0, "type": "NormalMsg"}, "M_14511": {"note_status": 1, "channel": 14, "note": 72, "velocity": 0, "time": 0, "type": "NormalMsg"}, "M_14512": {"note_status": 1, "channel": 14, "note": 76, "velocity": 0, "time": 0, "type": "NormalMsg"}, "M_14513": {"note_status": 1, "channel": 14, "note": 72, "velocity": 115, "time": 0, "type": "NormalMsg"}, "M_14514": {"note_status": 1, "channel": 14, "note": 76, "velocity": 110, "time": 0, "type": "NormalMsg"}, "M_14515": {"note_status": 1, "channel": 14, "note": 72, "velocity": 0, "time": 0, "type": "NormalMsg"}, "M_14516": {"note_status": 1, "channel": 14, "note": 76, "velocity": 0, "time": 0, "type": "NormalMsg"}, "M_14517": {"note_status": 1, "channel": 14, "note": 60, "velocity": 116, "time": 0, "type": "NormalMsg"}, "M_14518": {"note_status": 1, "channel": 14, "note": 72, "velocity": 101, "time": 0, "type": "NormalMsg"}, "M_14519": {"note_status": 1, "channel": 14, "note": 57, "velocity": 116, "time": 0, "type": "NormalMsg"}, "M_14520": {"note_status": 1, "channel": 14, "note": 60, "velocity": 0, "time": 0, "type": "NormalMsg"}, "M_14521": {"note_status": 1, "channel": 14, "note": 69, "velocity": 101, "time": 0, "type": "NormalMsg"}, "M_14522": {"note_status": 1, "channel": 14, "note": 72, "velocity": 0, "time": 0, "type": "NormalMsg"}, "M_14523": {"note_status": 1, "channel": 14, "note": 57, "velocity": 0, "time": 0, "type": "NormalMsg"}, "M_14524": {"note_status": 1, "channel": 14, "note": 69, "velocity": 0, "time": 0, "type": "NormalMsg"}, "M_14525": {"note_status": 1, "channel": 14, "note": 60, "velocity": 116, "time": 0, "type": "NormalMsg"}, "M_14526": {"note_status": 1, "channel": 14, "note": 72, "velocity": 101, "time": 0, "type": "NormalMsg"}, "M_14527": {"note_status": 1, "channel": 14, "note": 57, "velocity": 114, "time": 0, "type": "NormalMsg"}, "M_14528": {"note_status": 1, "channel": 14, "note": 60, "velocity": 0, "time": 0, "type": "NormalMsg"}, "M_14529": {"note_status": 1, "channel": 14, "note": 69, "velocity": 99, "time": 0, "type": "NormalMsg"}, "M_14530": {"note_status": 1, "channel": 14, "note": 72, "velocity": 0, "time": 0, "type": "NormalMsg"}, "M_14531": {"note_status": 1, "channel": 14, "note": 57, "velocity": 0, "time": 0, "type": "NormalMsg"}, "M_14532": {"note_status": 1, "channel": 14, "note": 69, "velocity": 0, "time": 0, "type": "NormalMsg"}, "M_14533": {"note_status": 1, "channel": 14, "note": 60, "velocity": 114, "time": 0, "type": "NormalMsg"}, "M_14534": {"note_status": 1, "channel": 14, "note": 72, "velocity": 99, "time": 0, "type": "NormalMsg"}, "M_14535": {"note_status": 1, "channel": 14, "note": 59, "velocity": 112, "time": 0, "type": "NormalMsg"}, "M_14536": {"note_status": 1, "channel": 14, "note": 71, "velocity": 97, "time": 0, "type": "NormalMsg"}, "M_14537": {"note_status": 1, "channel": 14, "note": 60, "velocity": 0, "time": 0, "type": "NormalMsg"}, "M_14538": {"note_status": 1, "channel": 14, "note": 72, "velocity": 0, "time": 0, "type": "NormalMsg"}, "M_14539": {"note_status": 1, "channel": 14, "note": 59, "velocity": 0, "time": 0, "type": "NormalMsg"}, "M_14540": {"note_status": 1, "channel": 14, "note": 71, "velocity": 0, "time": 0, "type": "NormalMsg"}, "M_14541": {"note_status": 1, "channel": 14, "note": 60, "velocity": 117, "time": 0, "type": "NormalMsg"}, "M_14542": {"note_status": 1, "channel": 14, "note": 72, "velocity": 102, "time": 0, "type": "NormalMsg"}, "M_14543": {"note_status": 1, "channel": 14, "note": 60, "velocity": 0, "time": 0, "type": "NormalMsg"}, "M_14544": {"note_status": 1, "channel": 14, "note": 72, "velocity": 0, "time": 0, "type": "NormalMsg"}, "M_14545": {"note_status": 1, "channel": 14, "note": 60, "velocity": 116, "time": 0, "type": "NormalMsg"}, "M_14546": {"note_status": 1, "channel": 14, "note": 72, "velocity": 101, "time": 0, "type": "NormalMsg"}, "M_14547": {"note_status": 1, "channel": 14, "note": 60, "velocity": 0, "time": 0, "type": "NormalMsg"}, "M_14548": {"note_status": 1, "channel": 14, "note": 72, "velocity": 0, "time": 0, "type": "NormalMsg"}, "M_14549": {"note_status": 1, "channel": 14, "note": 60, "velocity": 116, "time": 0, "type": "NormalMsg"}, "M_14550": {"note_status": 1, "channel": 14, "note": 72, "velocity": 101, "time": 0, "type": "NormalMsg"}, "M_14551": {"note_status": 1, "channel": 14, "note": 57, "velocity": 116, "time": 0, "type": "NormalMsg"}, "M_14552": {"note_status": 1, "channel": 14, "note": 60, "velocity": 0, "time": 0, "type": "NormalMsg"}, "M_14553": {"note_status": 1, "channel": 14, "note": 69, "velocity": 101, "time": 0, "type": "NormalMsg"}, "M_14554": {"note_status": 1, "channel": 14, "note": 72, "velocity": 0, "time": 0, "type": "NormalMsg"}, "M_14555": {"note_status": 1, "channel": 14, "note": 57, "velocity": 0, "time": 0, "type": "NormalMsg"}, "M_14556": {"note_status": 1, "channel": 14, "note": 69, "velocity": 0, "time": 0, "type": "NormalMsg"}, "M_14557": {"note_status": 1, "channel": 14, "note": 60, "velocity": 116, "time": 0, "type": "NormalMsg"}, "M_14558": {"note_status": 1, "channel": 14, "note": 72, "velocity": 101, "time": 0, "type": "NormalMsg"}, "M_14559": {"note_status": 1, "channel": 14, "note": 57, "velocity": 114, "time": 0, "type": "NormalMsg"}, "M_14560": {"note_status": 1, "channel": 14, "note": 60, "velocity": 0, "time": 0, "type": "NormalMsg"}, "M_14561": {"note_status": 1, "channel": 14, "note": 69, "velocity": 99, "time": 0, "type": "NormalMsg"}, "M_14562": {"note_status": 1, "channel": 14, "note": 72, "velocity": 0, "time": 0, "type": "NormalMsg"}, "M_14563": {"note_status": 1, "channel": 14, "note": 57, "velocity": 0, "time": 0, "type": "NormalMsg"}, "M_14564": {"note_status": 1, "channel": 14, "note": 69, "velocity": 0, "time": 0, "type": "NormalMsg"}, "M_14565": {"note_status": 1, "channel": 14, "note": 60, "velocity": 114, "time": 0, "type": "NormalMsg"}, "M_14566": {"note_status": 1, "channel": 14, "note": 72, "velocity": 99, "time": 0, "type": "NormalMsg"}, "M_14567": {"note_status": 1, "channel": 14, "note": 64, "velocity": 118, "time": 0, "type": "NormalMsg"}, "M_14568": {"note_status": 1, "channel": 14, "note": 76, "velocity": 103, "time": 0, "type": "NormalMsg"}, "M_14569": {"note_status": 1, "channel": 14, "note": 60, "velocity": 0, "time": 0, "type": "NormalMsg"}, "M_14570": {"note_status": 1, "channel": 14, "note": 72, "velocity": 0, "time": 0, "type": "NormalMsg"}, "M_14571": {"note_status": 1, "channel": 14, "note": 62, "velocity": 112, "time": 0, "type": "NormalMsg"}, "M_14572": {"note_status": 1, "channel": 14, "note": 64, "velocity": 0, "time": 0, "type": "NormalMsg"}, "M_14573": {"note_status": 1, "channel": 14, "note": 74, "velocity": 97, "time": 0, "type": "NormalMsg"}, "M_14574": {"note_status": 1, "channel": 14, "note": 76, "velocity": 0, "time": 0, "type": "NormalMsg"}, "M_14575": {"note_status": 1, "channel": 14, "note": 60, "velocity": 118, "time": 0, "type": "NormalMsg"}, "M_14576": {"note_status": 1, "channel": 14, "note": 62, "velocity": 0, "time": 0, "type": "NormalMsg"}, "M_14577": {"note_status": 1, "channel": 14, "note": 72, "velocity": 103, "time": 0, "type": "NormalMsg"}, "M_14578": {"note_status": 1, "channel": 14, "note": 74, "velocity": 0, "time": 0, "type": "NormalMsg"}, "M_14579": {"note_status": 1, "channel": 14, "note": 60, "velocity": 0, "time": 0, "type": "NormalMsg"}, "M_14580": {"note_status": 1, "channel": 14, "note": 62, "velocity": 114, "time": 0, "type": "NormalMsg"}, "M_14581": {"note_status": 1, "channel": 14, "note": 72, "velocity": 0, "time": 0, "type": "NormalMsg"}, "M_14582": {"note_status": 1, "channel": 14, "note": 74, "velocity": 99, "time": 0, "type": "NormalMsg"}, "M_14583": {"note_status": 1, "channel": 14, "note": 62, "velocity": 0, "time": 0, "type": "NormalMsg"}, "M_14584": {"note_status": 1, "channel": 14, "note": 74, "velocity": 0, "time": 0, "type": "NormalMsg"}, "M_14585": {"note_status": 1, "channel": 14, "note": 60, "velocity": 116, "time": 0, "type": "NormalMsg"}, "M_14586": {"note_status": 1, "channel": 14, "note": 72, "velocity": 101, "time": 0, "type": "NormalMsg"}, "M_14587": {"note_status": 1, "channel": 14, "note": 57, "velocity": 116, "time": 0, "type": "NormalMsg"}, "M_14588": {"note_status": 1, "channel": 14, "note": 60, "velocity": 0, "time": 0, "type": "NormalMsg"}, "M_14589": {"note_status": 1, "channel": 14, "note": 69, "velocity": 101, "time": 0, "type": "NormalMsg"}, "M_14590": {"note_status": 1, "channel": 14, "note": 72, "velocity": 0, "time": 0, "type": "NormalMsg"}, "M_14591": {"note_status": 1, "channel": 14, "note": 57, "velocity": 0, "time": 0, "type": "NormalMsg"}, "M_14592": {"note_status": 1, "channel": 14, "note": 69, "velocity": 0, "time": 0, "type": "NormalMsg"}, "M_14593": {"note_status": 1, "channel": 14, "note": 60, "velocity": 116, "time": 0, "type": "NormalMsg"}, "M_14594": {"note_status": 1, "channel": 14, "note": 72, "velocity": 101, "time": 0, "type": "NormalMsg"}, "M_14595": {"note_status": 1, "channel": 14, "note": 57, "velocity": 114, "time": 0, "type": "NormalMsg"}, "M_14596": {"note_status": 1, "channel": 14, "note": 60, "velocity": 0, "time": 0, "type": "NormalMsg"}, "M_14597": {"note_status": 1, "channel": 14, "note": 69, "velocity": 99, "time": 0, "type": "NormalMsg"}, "M_14598": {"note_status": 1, "channel": 14, "note": 72, "velocity": 0, "time": 0, "type": "NormalMsg"}, "M_14599": {"note_status": 1, "channel": 14, "note": 57, "velocity": 0, "time": 0, "type": "NormalMsg"}, "M_14600": {"note_status": 1, "channel": 14, "note": 69, "velocity": 0, "time": 0, "type": "NormalMsg"}, "M_14601": {"note_status": 1, "channel": 14, "note": 60, "velocity": 114, "time": 0, "type": "NormalMsg"}, "M_14602": {"note_status": 1, "channel": 14, "note": 72, "velocity": 99, "time": 0, "type": "NormalMsg"}, "M_14603": {"note_status": 1, "channel": 14, "note": 59, "velocity": 112, "time": 0, "type": "NormalMsg"}, "M_14604": {"note_status": 1, "channel": 14, "note": 71, "velocity": 97, "time": 0, "type": "NormalMsg"}, "M_14605": {"note_status": 1, "channel": 14, "note": 60, "velocity": 0, "time": 0, "type": "NormalMsg"}, "M_14606": {"note_status": 1, "channel": 14, "note": 72, "velocity": 0, "time": 0, "type": "NormalMsg"}, "M_14607": {"note_status": 1, "channel": 14, "note": 59, "velocity": 0, "time": 0, "type": "NormalMsg"}, "M_14608": {"note_status": 1, "channel": 14, "note": 71, "velocity": 0, "time": 0, "type": "NormalMsg"}, "M_14609": {"note_status": 1, "channel": 14, "note": 60, "velocity": 117, "time": 0, "type": "NormalMsg"}, "M_14610": {"note_status": 1, "channel": 14, "note": 72, "velocity": 102, "time": 0, "type": "NormalMsg"}, "M_14611": {"note_status": 1, "channel": 14, "note": 60, "velocity": 0, "time": 0, "type": "NormalMsg"}, "M_14612": {"note_status": 1, "channel": 14, "note": 72, "velocity": 0, "time": 0, "type": "NormalMsg"}, "M_14613": {"note_status": 1, "channel": 14, "note": 60, "velocity": 116, "time": 0, "type": "NormalMsg"}, "M_14614": {"note_status": 1, "channel": 14, "note": 72, "velocity": 101, "time": 0, "type": "NormalMsg"}, "M_14615": {"note_status": 1, "channel": 14, "note": 60, "velocity": 0, "time": 0, "type": "NormalMsg"}, "M_14616": {"note_status": 1, "channel": 14, "note": 72, "velocity": 0, "time": 0, "type": "NormalMsg"}, "M_14617": {"note_status": 1, "channel": 14, "note": 60, "velocity": 116, "time": 0, "type": "NormalMsg"}, "M_14618": {"note_status": 1, "channel": 14, "note": 72, "velocity": 101, "time": 0, "type": "NormalMsg"}, "M_14619": {"note_status": 1, "channel": 14, "note": 57, "velocity": 116, "time": 0, "type": "NormalMsg"}, "M_14620": {"note_status": 1, "channel": 14, "note": 60, "velocity": 0, "time": 0, "type": "NormalMsg"}, "M_14621": {"note_status": 1, "channel": 14, "note": 69, "velocity": 101, "time": 0, "type": "NormalMsg"}, "M_14622": {"note_status": 1, "channel": 14, "note": 72, "velocity": 0, "time": 0, "type": "NormalMsg"}, "M_14623": {"note_status": 1, "channel": 14, "note": 57, "velocity": 0, "time": 0, "type": "NormalMsg"}, "M_14624": {"note_status": 1, "channel": 14, "note": 69, "velocity": 0, "time": 0, "type": "NormalMsg"}, "M_14625": {"note_status": 1, "channel": 14, "note": 69, "velocity": 104, "time": 0, "type": "NormalMsg"}, "M_14626": {"note_status": 1, "channel": 14, "note": 72, "velocity": 117, "time": 0, "type": "NormalMsg"}, "M_14627": {"note_status": 1, "channel": 14, "note": 69, "velocity": 0, "time": 0, "type": "NormalMsg"}, "M_14628": {"note_status": 1, "channel": 14, "note": 72, "velocity": 0, "time": 0, "type": "NormalMsg"}, "M_14629": {"note_status": 1, "channel": 14, "note": 71, "velocity": 108, "time": 0, "type": "NormalMsg"}, "M_14630": {"note_status": 1, "channel": 14, "note": 74, "velocity": 94, "time": 0, "type": "NormalMsg"}, "M_14631": {"note_status": 1, "channel": 14, "note": 71, "velocity": 0, "time": 0, "type": "NormalMsg"}, "M_14632": {"note_status": 1, "channel": 14, "note": 74, "velocity": 0, "time": 0, "type": "NormalMsg"}, "M_14633": {"note_status": 1, "channel": 14, "note": 72, "velocity": 104, "time": 0, "type": "NormalMsg"}, "M_14634": {"note_status": 1, "channel": 14, "note": 76, "velocity": 86, "time": 0, "type": "NormalMsg"}, "M_14635": {"note_status": 1, "channel": 14, "note": 72, "velocity": 0, "time": 0, "type": "NormalMsg"}, "M_14636": {"note_status": 1, "channel": 14, "note": 76, "velocity": 0, "time": 0, "type": "NormalMsg"}, "M_14637": {"note_status": 1, "channel": 14, "note": 72, "velocity": 115, "time": 0, "type": "NormalMsg"}, "M_14638": {"note_status": 1, "channel": 14, "note": 76, "velocity": 110, "time": 0, "type": "NormalMsg"}, "M_14639": {"note_status": 1, "channel": 14, "note": 72, "velocity": 0, "time": 0, "type": "NormalMsg"}, "M_14640": {"note_status": 1, "channel": 14, "note": 76, "velocity": 0, "time": 0, "type": "NormalMsg"}, "M_14641": {"note_status": 1, "channel": 14, "note": 69, "velocity": 104, "time": 0, "type": "NormalMsg"}, "M_14642": {"note_status": 1, "channel": 14, "note": 72, "velocity": 117, "time": 0, "type": "NormalMsg"}, "M_14643": {"note_status": 1, "channel": 14, "note": 69, "velocity": 0, "time": 0, "type": "NormalMsg"}, "M_14644": {"note_status": 1, "channel": 14, "note": 72, "velocity": 0, "time": 0, "type": "NormalMsg"}, "M_14645": {"note_status": 1, "channel": 14, "note": 71, "velocity": 108, "time": 0, "type": "NormalMsg"}, "M_14646": {"note_status": 1, "channel": 14, "note": 74, "velocity": 94, "time": 0, "type": "NormalMsg"}, "M_14647": {"note_status": 1, "channel": 14, "note": 71, "velocity": 0, "time": 0, "type": "NormalMsg"}, "M_14648": {"note_status": 1, "channel": 14, "note": 74, "velocity": 0, "time": 0, "type": "NormalMsg"}, "M_14649": {"note_status": 1, "channel": 14, "note": 72, "velocity": 104, "time": 0, "type": "NormalMsg"}, "M_14650": {"note_status": 1, "channel": 14, "note": 76, "velocity": 86, "time": 0, "type": "NormalMsg"}, "M_14651": {"note_status": 1, "channel": 14, "note": 72, "velocity": 0, "time": 0, "type": "NormalMsg"}, "M_14652": {"note_status": 1, "channel": 14, "note": 76, "velocity": 0, "time": 0, "type": "NormalMsg"}, "M_14653": {"note_status": 1, "channel": 14, "note": 72, "velocity": 115, "time": 0, "type": "NormalMsg"}, "M_14654": {"note_status": 1, "channel": 14, "note": 76, "velocity": 110, "time": 0, "type": "NormalMsg"}, "M_14655": {"note_status": 1, "channel": 14, "note": 72, "velocity": 0, "time": 0, "type": "NormalMsg"}, "M_14656": {"note_status": 1, "channel": 14, "note": 76, "velocity": 0, "time": 0, "type": "NormalMsg"}, "M_14657": {"note_status": 1, "channel": 14, "note": 60, "velocity": 116, "time": 0, "type": "NormalMsg"}, "M_14658": {"note_status": 1, "channel": 14, "note": 72, "velocity": 101, "time": 0, "type": "NormalMsg"}, "M_14659": {"note_status": 1, "channel": 14, "note": 57, "velocity": 116, "time": 0, "type": "NormalMsg"}, "M_14660": {"note_status": 1, "channel": 14, "note": 60, "velocity": 0, "time": 0, "type": "NormalMsg"}, "M_14661": {"note_status": 1, "channel": 14, "note": 69, "velocity": 101, "time": 0, "type": "NormalMsg"}, "M_14662": {"note_status": 1, "channel": 14, "note": 72, "velocity": 0, "time": 0, "type": "NormalMsg"}, "M_14663": {"note_status": 1, "channel": 14, "note": 57, "velocity": 0, "time": 0, "type": "NormalMsg"}, "M_14664": {"note_status": 1, "channel": 14, "note": 69, "velocity": 0, "time": 0, "type": "NormalMsg"}, "M_14665": {"note_status": 1, "channel": 14, "note": 60, "velocity": 116, "time": 0, "type": "NormalMsg"}, "M_14666": {"note_status": 1, "channel": 14, "note": 72, "velocity": 101, "time": 0, "type": "NormalMsg"}, "M_14667": {"note_status": 1, "channel": 14, "note": 57, "velocity": 114, "time": 0, "type": "NormalMsg"}, "M_14668": {"note_status": 1, "channel": 14, "note": 60, "velocity": 0, "time": 0, "type": "NormalMsg"}, "M_14669": {"note_status": 1, "channel": 14, "note": 69, "velocity": 99, "time": 0, "type": "NormalMsg"}, "M_14670": {"note_status": 1, "channel": 14, "note": 72, "velocity": 0, "time": 0, "type": "NormalMsg"}, "M_14671": {"note_status": 1, "channel": 14, "note": 57, "velocity": 0, "time": 0, "type": "NormalMsg"}, "M_14672": {"note_status": 1, "channel": 14, "note": 69, "velocity": 0, "time": 0, "type": "NormalMsg"}, "M_14673": {"note_status": 1, "channel": 14, "note": 60, "velocity": 114, "time": 0, "type": "NormalMsg"}, "M_14674": {"note_status": 1, "channel": 14, "note": 72, "velocity": 99, "time": 0, "type": "NormalMsg"}, "M_14675": {"note_status": 1, "channel": 14, "note": 59, "velocity": 112, "time": 0, "type": "NormalMsg"}, "M_14676": {"note_status": 1, "channel": 14, "note": 71, "velocity": 97, "time": 0, "type": "NormalMsg"}, "M_14677": {"note_status": 1, "channel": 14, "note": 60, "velocity": 0, "time": 0, "type": "NormalMsg"}, "M_14678": {"note_status": 1, "channel": 14, "note": 72, "velocity": 0, "time": 0, "type": "NormalMsg"}, "M_14679": {"note_status": 1, "channel": 14, "note": 59, "velocity": 0, "time": 0, "type": "NormalMsg"}, "M_14680": {"note_status": 1, "channel": 14, "note": 71, "velocity": 0, "time": 0, "type": "NormalMsg"}, "M_14681": {"note_status": 1, "channel": 14, "note": 60, "velocity": 117, "time": 0, "type": "NormalMsg"}, "M_14682": {"note_status": 1, "channel": 14, "note": 72, "velocity": 102, "time": 0, "type": "NormalMsg"}, "M_14683": {"note_status": 1, "channel": 14, "note": 60, "velocity": 0, "time": 0, "type": "NormalMsg"}, "M_14684": {"note_status": 1, "channel": 14, "note": 72, "velocity": 0, "time": 0, "type": "NormalMsg"}, "M_14685": {"note_status": 1, "channel": 14, "note": 60, "velocity": 116, "time": 0, "type": "NormalMsg"}, "M_14686": {"note_status": 1, "channel": 14, "note": 72, "velocity": 101, "time": 0, "type": "NormalMsg"}, "M_14687": {"note_status": 1, "channel": 14, "note": 60, "velocity": 0, "time": 0, "type": "NormalMsg"}, "M_14688": {"note_status": 1, "channel": 14, "note": 72, "velocity": 0, "time": 0, "type": "NormalMsg"}, "M_14689": {"note_status": 1, "channel": 14, "note": 60, "velocity": 116, "time": 0, "type": "NormalMsg"}, "M_14690": {"note_status": 1, "channel": 14, "note": 72, "velocity": 101, "time": 0, "type": "NormalMsg"}, "M_14691": {"note_status": 1, "channel": 14, "note": 57, "velocity": 116, "time": 0, "type": "NormalMsg"}, "M_14692": {"note_status": 1, "channel": 14, "note": 60, "velocity": 0, "time": 0, "type": "NormalMsg"}, "M_14693": {"note_status": 1, "channel": 14, "note": 69, "velocity": 101, "time": 0, "type": "NormalMsg"}, "M_14694": {"note_status": 1, "channel": 14, "note": 72, "velocity": 0, "time": 0, "type": "NormalMsg"}, "M_14695": {"note_status": 1, "channel": 14, "note": 57, "velocity": 0, "time": 0, "type": "NormalMsg"}, "M_14696": {"note_status": 1, "channel": 14, "note": 69, "velocity": 0, "time": 0, "type": "NormalMsg"}, "M_14697": {"note_status": 1, "channel": 14, "note": 60, "velocity": 116, "time": 0, "type": "NormalMsg"}, "M_14698": {"note_status": 1, "channel": 14, "note": 72, "velocity": 101, "time": 0, "type": "NormalMsg"}, "M_14699": {"note_status": 1, "channel": 14, "note": 57, "velocity": 114, "time": 0, "type": "NormalMsg"}, "M_14700": {"note_status": 1, "channel": 14, "note": 60, "velocity": 0, "time": 0, "type": "NormalMsg"}, "M_14701": {"note_status": 1, "channel": 14, "note": 69, "velocity": 99, "time": 0, "type": "NormalMsg"}, "M_14702": {"note_status": 1, "channel": 14, "note": 72, "velocity": 0, "time": 0, "type": "NormalMsg"}, "M_14703": {"note_status": 1, "channel": 14, "note": 57, "velocity": 0, "time": 0, "type": "NormalMsg"}, "M_14704": {"note_status": 1, "channel": 14, "note": 69, "velocity": 0, "time": 0, "type": "NormalMsg"}, "M_14705": {"note_status": 1, "channel": 14, "note": 60, "velocity": 114, "time": 0, "type": "NormalMsg"}, "M_14706": {"note_status": 1, "channel": 14, "note": 72, "velocity": 99, "time": 0, "type": "NormalMsg"}, "M_14707": {"note_status": 1, "channel": 14, "note": 64, "velocity": 118, "time": 0, "type": "NormalMsg"}, "M_14708": {"note_status": 1, "channel": 14, "note": 76, "velocity": 103, "time": 0, "type": "NormalMsg"}, "M_14709": {"note_status": 1, "channel": 14, "note": 60, "velocity": 0, "time": 0, "type": "NormalMsg"}, "M_14710": {"note_status": 1, "channel": 14, "note": 72, "velocity": 0, "time": 0, "type": "NormalMsg"}, "M_14711": {"note_status": 1, "channel": 14, "note": 62, "velocity": 112, "time": 0, "type": "NormalMsg"}, "M_14712": {"note_status": 1, "channel": 14, "note": 64, "velocity": 0, "time": 0, "type": "NormalMsg"}, "M_14713": {"note_status": 1, "channel": 14, "note": 74, "velocity": 97, "time": 0, "type": "NormalMsg"}, "M_14714": {"note_status": 1, "channel": 14, "note": 76, "velocity": 0, "time": 0, "type": "NormalMsg"}, "M_14715": {"note_status": 1, "channel": 14, "note": 60, "velocity": 118, "time": 0, "type": "NormalMsg"}, "M_14716": {"note_status": 1, "channel": 14, "note": 62, "velocity": 0, "time": 0, "type": "NormalMsg"}, "M_14717": {"note_status": 1, "channel": 14, "note": 72, "velocity": 103, "time": 0, "type": "NormalMsg"}, "M_14718": {"note_status": 1, "channel": 14, "note": 74, "velocity": 0, "time": 0, "type": "NormalMsg"}, "M_14719": {"note_status": 1, "channel": 14, "note": 60, "velocity": 0, "time": 0, "type": "NormalMsg"}, "M_14720": {"note_status": 1, "channel": 14, "note": 62, "velocity": 114, "time": 0, "type": "NormalMsg"}, "M_14721": {"note_status": 1, "channel": 14, "note": 72, "velocity": 0, "time": 0, "type": "NormalMsg"}, "M_14722": {"note_status": 1, "channel": 14, "note": 74, "velocity": 99, "time": 0, "type": "NormalMsg"}, "M_14723": {"note_status": 1, "channel": 14, "note": 62, "velocity": 0, "time": 0, "type": "NormalMsg"}, "M_14724": {"note_status": 1, "channel": 14, "note": 74, "velocity": 0, "time": 0, "type": "NormalMsg"}, "M_14725": {"note_status": 1, "channel": 14, "note": 60, "velocity": 116, "time": 0, "type": "NormalMsg"}, "M_14726": {"note_status": 1, "channel": 14, "note": 72, "velocity": 101, "time": 0, "type": "NormalMsg"}, "M_14727": {"note_status": 1, "channel": 14, "note": 57, "velocity": 116, "time": 0, "type": "NormalMsg"}, "M_14728": {"note_status": 1, "channel": 14, "note": 60, "velocity": 0, "time": 0, "type": "NormalMsg"}, "M_14729": {"note_status": 1, "channel": 14, "note": 69, "velocity": 101, "time": 0, "type": "NormalMsg"}, "M_14730": {"note_status": 1, "channel": 14, "note": 72, "velocity": 0, "time": 0, "type": "NormalMsg"}, "M_14731": {"note_status": 1, "channel": 14, "note": 57, "velocity": 0, "time": 0, "type": "NormalMsg"}, "M_14732": {"note_status": 1, "channel": 14, "note": 69, "velocity": 0, "time": 0, "type": "NormalMsg"}, "M_14733": {"note_status": 1, "channel": 14, "note": 60, "velocity": 116, "time": 0, "type": "NormalMsg"}, "M_14734": {"note_status": 1, "channel": 14, "note": 72, "velocity": 101, "time": 0, "type": "NormalMsg"}, "M_14735": {"note_status": 1, "channel": 14, "note": 57, "velocity": 114, "time": 0, "type": "NormalMsg"}, "M_14736": {"note_status": 1, "channel": 14, "note": 60, "velocity": 0, "time": 0, "type": "NormalMsg"}, "M_14737": {"note_status": 1, "channel": 14, "note": 69, "velocity": 99, "time": 0, "type": "NormalMsg"}, "M_14738": {"note_status": 1, "channel": 14, "note": 72, "velocity": 0, "time": 0, "type": "NormalMsg"}, "M_14739": {"note_status": 1, "channel": 14, "note": 57, "velocity": 0, "time": 0, "type": "NormalMsg"}, "M_14740": {"note_status": 1, "channel": 14, "note": 69, "velocity": 0, "time": 0, "type": "NormalMsg"}, "M_14741": {"note_status": 1, "channel": 14, "note": 60, "velocity": 114, "time": 0, "type": "NormalMsg"}, "M_14742": {"note_status": 1, "channel": 14, "note": 72, "velocity": 99, "time": 0, "type": "NormalMsg"}, "M_14743": {"note_status": 1, "channel": 14, "note": 59, "velocity": 112, "time": 0, "type": "NormalMsg"}, "M_14744": {"note_status": 1, "channel": 14, "note": 71, "velocity": 97, "time": 0, "type": "NormalMsg"}, "M_14745": {"note_status": 1, "channel": 14, "note": 60, "velocity": 0, "time": 0, "type": "NormalMsg"}, "M_14746": {"note_status": 1, "channel": 14, "note": 72, "velocity": 0, "time": 0, "type": "NormalMsg"}, "M_14747": {"note_status": 1, "channel": 14, "note": 59, "velocity": 0, "time": 0, "type": "NormalMsg"}, "M_14748": {"note_status": 1, "channel": 14, "note": 71, "velocity": 0, "time": 0, "type": "NormalMsg"}, "M_14749": {"note_status": 1, "channel": 14, "note": 60, "velocity": 117, "time": 0, "type": "NormalMsg"}, "M_14750": {"note_status": 1, "channel": 14, "note": 72, "velocity": 102, "time": 0, "type": "NormalMsg"}, "M_14751": {"note_status": 1, "channel": 14, "note": 60, "velocity": 0, "time": 0, "type": "NormalMsg"}, "M_14752": {"note_status": 1, "channel": 14, "note": 72, "velocity": 0, "time": 0, "type": "NormalMsg"}, "M_14753": {"note_status": 1, "channel": 14, "note": 60, "velocity": 116, "time": 0, "type": "NormalMsg"}, "M_14754": {"note_status": 1, "channel": 14, "note": 72, "velocity": 101, "time": 0, "type": "NormalMsg"}, "M_14755": {"note_status": 1, "channel": 14, "note": 60, "velocity": 0, "time": 0, "type": "NormalMsg"}, "M_14756": {"note_status": 1, "channel": 14, "note": 72, "velocity": 0, "time": 0, "type": "NormalMsg"}, "M_14757": {"note_status": 1, "channel": 14, "note": 60, "velocity": 116, "time": 0, "type": "NormalMsg"}, "M_14758": {"note_status": 1, "channel": 14, "note": 72, "velocity": 101, "time": 0, "type": "NormalMsg"}, "M_14759": {"note_status": 1, "channel": 14, "note": 57, "velocity": 116, "time": 0, "type": "NormalMsg"}, "M_14760": {"note_status": 1, "channel": 14, "note": 60, "velocity": 0, "time": 0, "type": "NormalMsg"}, "M_14761": {"note_status": 1, "channel": 14, "note": 69, "velocity": 101, "time": 0, "type": "NormalMsg"}, "M_14762": {"note_status": 1, "channel": 14, "note": 72, "velocity": 0, "time": 0, "type": "NormalMsg"}, "M_14763": {"note_status": 1, "channel": 14, "note": 57, "velocity": 0, "time": 0, "type": "NormalMsg"}, "M_14764": {"note_status": 1, "channel": 14, "note": 69, "velocity": 0, "time": 0, "type": "NormalMsg"}, "M_14765": {"note_status": 1, "channel": 14, "note": 60, "velocity": 116, "time": 0, "type": "NormalMsg"}, "M_14766": {"note_status": 1, "channel": 14, "note": 72, "velocity": 101, "time": 0, "type": "NormalMsg"}, "M_14767": {"note_status": 1, "channel": 14, "note": 57, "velocity": 114, "time": 0, "type": "NormalMsg"}, "M_14768": {"note_status": 1, "channel": 14, "note": 60, "velocity": 0, "time": 0, "type": "NormalMsg"}, "M_14769": {"note_status": 1, "channel": 14, "note": 69, "velocity": 99, "time": 0, "type": "NormalMsg"}, "M_14770": {"note_status": 1, "channel": 14, "note": 72, "velocity": 0, "time": 0, "type": "NormalMsg"}, "M_14771": {"note_status": 1, "channel": 14, "note": 57, "velocity": 0, "time": 0, "type": "NormalMsg"}, "M_14772": {"note_status": 1, "channel": 14, "note": 69, "velocity": 0, "time": 0, "type": "NormalMsg"}, "M_14773": {"note_status": 1, "channel": 14, "note": 60, "velocity": 114, "time": 0, "type": "NormalMsg"}, "M_14774": {"note_status": 1, "channel": 14, "note": 72, "velocity": 99, "time": 0, "type": "NormalMsg"}, "M_14775": {"note_status": 1, "channel": 14, "note": 64, "velocity": 118, "time": 0, "type": "NormalMsg"}, "M_14776": {"note_status": 1, "channel": 14, "note": 76, "velocity": 103, "time": 0, "type": "NormalMsg"}, "M_14777": {"note_status": 1, "channel": 14, "note": 60, "velocity": 0, "time": 0, "type": "NormalMsg"}, "M_14778": {"note_status": 1, "channel": 14, "note": 72, "velocity": 0, "time": 0, "type": "NormalMsg"}, "M_14779": {"note_status": 1, "channel": 14, "note": 62, "velocity": 112, "time": 0, "type": "NormalMsg"}, "M_14780": {"note_status": 1, "channel": 14, "note": 64, "velocity": 0, "time": 0, "type": "NormalMsg"}, "M_14781": {"note_status": 1, "channel": 14, "note": 74, "velocity": 97, "time": 0, "type": "NormalMsg"}, "M_14782": {"note_status": 1, "channel": 14, "note": 76, "velocity": 0, "time": 0, "type": "NormalMsg"}, "M_14783": {"note_status": 1, "channel": 14, "note": 60, "velocity": 118, "time": 0, "type": "NormalMsg"}, "M_14784": {"note_status": 1, "channel": 14, "note": 62, "velocity": 0, "time": 0, "type": "NormalMsg"}, "M_14785": {"note_status": 1, "channel": 14, "note": 72, "velocity": 103, "time": 0, "type": "NormalMsg"}, "M_14786": {"note_status": 1, "channel": 14, "note": 74, "velocity": 0, "time": 0, "type": "NormalMsg"}, "M_14787": {"note_status": 1, "channel": 14, "note": 60, "velocity": 0, "time": 0, "type": "NormalMsg"}, "M_14788": {"note_status": 1, "channel": 14, "note": 62, "velocity": 114, "time": 0, "type": "NormalMsg"}, "M_14789": {"note_status": 1, "channel": 14, "note": 72, "velocity": 0, "time": 0, "type": "NormalMsg"}, "M_14790": {"note_status": 1, "channel": 14, "note": 74, "velocity": 99, "time": 0, "type": "NormalMsg"}, "M_14791": {"note_status": 1, "channel": 14, "note": 62, "velocity": 0, "time": 0, "type": "NormalMsg"}, "M_14792": {"note_status": 1, "channel": 14, "note": 74, "velocity": 0, "time": 0, "type": "NormalMsg"}, "M_14793": {"note_status": 1, "channel": 14, "note": 60, "velocity": 116, "time": 0, "type": "NormalMsg"}, "M_14794": {"note_status": 1, "channel": 14, "note": 72, "velocity": 101, "time": 0, "type": "NormalMsg"}, "M_14795": {"note_status": 1, "channel": 14, "note": 57, "velocity": 116, "time": 0, "type": "NormalMsg"}, "M_14796": {"note_status": 1, "channel": 14, "note": 60, "velocity": 0, "time": 0, "type": "NormalMsg"}, "M_14797": {"note_status": 1, "channel": 14, "note": 69, "velocity": 101, "time": 0, "type": "NormalMsg"}, "M_14798": {"note_status": 1, "channel": 14, "note": 72, "velocity": 0, "time": 0, "type": "NormalMsg"}, "M_14799": {"note_status": 1, "channel": 14, "note": 57, "velocity": 0, "time": 0, "type": "NormalMsg"}, "M_14800": {"note_status": 1, "channel": 14, "note": 69, "velocity": 0, "time": 0, "type": "NormalMsg"}, "R_14801": {"note_status": 0, "channel": 0, "note": 0, "velocity": 0, "time": 0, "type": "ResetMsg"}, "R_14802": {"note_status": 0, "channel": 0, "note": 0, "velocity": 0, "time": 0, "type": "ResetMsg"}, "U_14803": {"note_status": 0, "channel": 0, "note": 0, "velocity": 0, "time": 0, "type": "DummyType"}, "M_14804": {"note_status": 1, "channel": 15, "note": 69, "velocity": 1, "time": 0, "type": "NormalMsg"}, "M_14805": {"note_status": 1, "channel": 15, "note": 72, "velocity": 1, "time": 0, "type": "NormalMsg"}, "M_14806": {"note_status": 1, "channel": 15, "note": 71, "velocity": 1, "time": 0, "type": "NormalMsg"}, "M_14807": {"note_status": 1, "channel": 15, "note": 74, "velocity": 1, "time": 0, "type": "NormalMsg"}, "M_14808": {"note_status": 1, "channel": 15, "note": 69, "velocity": 0, "time": 0, "type": "NormalMsg"}, "M_14809": {"note_status": 1, "channel": 15, "note": 72, "velocity": 0, "time": 0, "type": "NormalMsg"}, "M_14810": {"note_status": 1, "channel": 15, "note": 72, "velocity": 1, "time": 0, "type": "NormalMsg"}, "M_14811": {"note_status": 1, "channel": 15, "note": 76, "velocity": 1, "time": 0, "type": "NormalMsg"}, "M_14812": {"note_status": 1, "channel": 15, "note": 71, "velocity": 0, "time": 0, "type": "NormalMsg"}, "M_14813": {"note_status": 1, "channel": 15, "note": 74, "velocity": 0, "time": 0, "type": "NormalMsg"}, "M_14814": {"note_status": 1, "channel": 15, "note": 72, "velocity": 0, "time": 0, "type": "NormalMsg"}, "M_14815": {"note_status": 1, "channel": 15, "note": 76, "velocity": 0, "time": 0, "type": "NormalMsg"}, "M_14816": {"note_status": 1, "channel": 15, "note": 69, "velocity": 1, "time": 0, "type": "NormalMsg"}, "M_14817": {"note_status": 1, "channel": 15, "note": 72, "velocity": 1, "time": 0, "type": "NormalMsg"}, "M_14818": {"note_status": 1, "channel": 15, "note": 69, "velocity": 0, "time": 0, "type": "NormalMsg"}, "M_14819": {"note_status": 1, "channel": 15, "note": 71, "velocity": 1, "time": 0, "type": "NormalMsg"}, "M_14820": {"note_status": 1, "channel": 15, "note": 72, "velocity": 0, "time": 0, "type": "NormalMsg"}, "M_14821": {"note_status": 1, "channel": 15, "note": 74, "velocity": 1, "time": 0, "type": "NormalMsg"}, "M_14822": {"note_status": 1, "channel": 15, "note": 71, "velocity": 0, "time": 0, "type": "NormalMsg"}, "M_14823": {"note_status": 1, "channel": 15, "note": 72, "velocity": 1, "time": 0, "type": "NormalMsg"}, "M_14824": {"note_status": 1, "channel": 15, "note": 74, "velocity": 0, "time": 0, "type": "NormalMsg"}, "M_14825": {"note_status": 1, "channel": 15, "note": 76, "velocity": 1, "time": 0, "type": "NormalMsg"}, "M_14826": {"note_status": 1, "channel": 15, "note": 72, "velocity": 0, "time": 0, "type": "NormalMsg"}, "M_14827": {"note_status": 1, "channel": 15, "note": 76, "velocity": 0, "time": 0, "type": "NormalMsg"}, "M_14828": {"note_status": 1, "channel": 15, "note": 69, "velocity": 1, "time": 0, "type": "NormalMsg"}, "M_14829": {"note_status": 1, "channel": 15, "note": 72, "velocity": 1, "time": 0, "type": "NormalMsg"}, "M_14830": {"note_status": 1, "channel": 15, "note": 69, "velocity": 0, "time": 0, "type": "NormalMsg"}, "M_14831": {"note_status": 1, "channel": 15, "note": 71, "velocity": 1, "time": 0, "type": "NormalMsg"}, "M_14832": {"note_status": 1, "channel": 15, "note": 72, "velocity": 0, "time": 0, "type": "NormalMsg"}, "M_14833": {"note_status": 1, "channel": 15, "note": 74, "velocity": 1, "time": 0, "type": "NormalMsg"}, "M_14834": {"note_status": 1, "channel": 15, "note": 71, "velocity": 0, "time": 0, "type": "NormalMsg"}, "M_14835": {"note_status": 1, "channel": 15, "note": 72, "velocity": 1, "time": 0, "type": "NormalMsg"}, "M_14836": {"note_status": 1, "channel": 15, "note": 74, "velocity": 0, "time": 0, "type": "NormalMsg"}, "M_14837": {"note_status": 1, "channel": 15, "note": 76, "velocity": 1, "time": 0, "type": "NormalMsg"}, "M_14838": {"note_status": 1, "channel": 15, "note": 72, "velocity": 0, "time": 0, "type": "NormalMsg"}, "M_14839": {"note_status": 1, "channel": 15, "note": 76, "velocity": 0, "time": 0, "type": "NormalMsg"}, "M_14840": {"note_status": 1, "channel": 15, "note": 69, "velocity": 1, "time": 0, "type": "NormalMsg"}, "M_14841": {"note_status": 1, "channel": 15, "note": 72, "velocity": 1, "time": 0, "type": "NormalMsg"}, "M_14842": {"note_status": 1, "channel": 15, "note": 69, "velocity": 0, "time": 0, "type": "NormalMsg"}, "M_14843": {"note_status": 1, "channel": 15, "note": 71, "velocity": 1, "time": 0, "type": "NormalMsg"}, "M_14844": {"note_status": 1, "channel": 15, "note": 72, "velocity": 0, "time": 0, "type": "NormalMsg"}, "M_14845": {"note_status": 1, "channel": 15, "note": 74, "velocity": 1, "time": 0, "type": "NormalMsg"}, "M_14846": {"note_status": 1, "channel": 15, "note": 71, "velocity": 0, "time": 0, "type": "NormalMsg"}, "M_14847": {"note_status": 1, "channel": 15, "note": 72, "velocity": 1, "time": 0, "type": "NormalMsg"}, "M_14848": {"note_status": 1, "channel": 15, "note": 74, "velocity": 0, "time": 0, "type": "NormalMsg"}, "M_14849": {"note_status": 1, "channel": 15, "note": 76, "velocity": 1, "time": 0, "type": "NormalMsg"}, "M_14850": {"note_status": 1, "channel": 15, "note": 72, "velocity": 0, "time": 0, "type": "NormalMsg"}, "M_14851": {"note_status": 1, "channel": 15, "note": 76, "velocity": 0, "time": 0, "type": "NormalMsg"}, "M_14852": {"note_status": 1, "channel": 15, "note": 69, "velocity": 1, "time": 0, "type": "NormalMsg"}, "M_14853": {"note_status": 1, "channel": 15, "note": 72, "velocity": 1, "time": 0, "type": "NormalMsg"}, "M_14854": {"note_status": 1, "channel": 15, "note": 69, "velocity": 0, "time": 0, "type": "NormalMsg"}, "M_14855": {"note_status": 1, "channel": 15, "note": 71, "velocity": 1, "time": 0, "type": "NormalMsg"}, "M_14856": {"note_status": 1, "channel": 15, "note": 72, "velocity": 0, "time": 0, "type": "NormalMsg"}, "M_14857": {"note_status": 1, "channel": 15, "note": 74, "velocity": 1, "time": 0, "type": "NormalMsg"}, "M_14858": {"note_status": 1, "channel": 15, "note": 71, "velocity": 0, "time": 0, "type": "NormalMsg"}, "M_14859": {"note_status": 1, "channel": 15, "note": 72, "velocity": 1, "time": 0, "type": "NormalMsg"}, "M_14860": {"note_status": 1, "channel": 15, "note": 74, "velocity": 0, "time": 0, "type": "NormalMsg"}, "M_14861": {"note_status": 1, "channel": 15, "note": 76, "velocity": 1, "time": 0, "type": "NormalMsg"}, "M_14862": {"note_status": 1, "channel": 15, "note": 72, "velocity": 0, "time": 0, "type": "NormalMsg"}, "M_14863": {"note_status": 1, "channel": 15, "note": 76, "velocity": 0, "time": 0, "type": "NormalMsg"}, "M_14864": {"note_status": 1, "channel": 15, "note": 69, "velocity": 1, "time": 0, "type": "NormalMsg"}, "M_14865": {"note_status": 1, "channel": 15, "note": 72, "velocity": 1, "time": 0, "type": "NormalMsg"}, "M_14866": {"note_status": 1, "channel": 15, "note": 69, "velocity": 0, "time": 0, "type": "NormalMsg"}, "M_14867": {"note_status": 1, "channel": 15, "note": 71, "velocity": 1, "time": 0, "type": "NormalMsg"}, "M_14868": {"note_status": 1, "channel": 15, "note": 72, "velocity": 0, "time": 0, "type": "NormalMsg"}, "M_14869": {"note_status": 1, "channel": 15, "note": 74, "velocity": 1, "time": 0, "type": "NormalMsg"}, "M_14870": {"note_status": 1, "channel": 15, "note": 71, "velocity": 0, "time": 0, "type": "NormalMsg"}, "M_14871": {"note_status": 1, "channel": 15, "note": 72, "velocity": 1, "time": 0, "type": "NormalMsg"}, "M_14872": {"note_status": 1, "channel": 15, "note": 74, "velocity": 0, "time": 0, "type": "NormalMsg"}, "M_14873": {"note_status": 1, "channel": 15, "note": 76, "velocity": 1, "time": 0, "type": "NormalMsg"}, "M_14874": {"note_status": 1, "channel": 15, "note": 72, "velocity": 0, "time": 0, "type": "NormalMsg"}, "M_14875": {"note_status": 1, "channel": 15, "note": 76, "velocity": 0, "time": 0, "type": "NormalMsg"}, "M_14876": {"note_status": 1, "channel": 15, "note": 60, "velocity": 1, "time": 0, "type": "NormalMsg"}, "M_14877": {"note_status": 1, "channel": 15, "note": 72, "velocity": 1, "time": 0, "type": "NormalMsg"}, "M_14878": {"note_status": 1, "channel": 15, "note": 57, "velocity": 1, "time": 0, "type": "NormalMsg"}, "M_14879": {"note_status": 1, "channel": 15, "note": 60, "velocity": 0, "time": 0, "type": "NormalMsg"}, "M_14880": {"note_status": 1, "channel": 15, "note": 69, "velocity": 1, "time": 0, "type": "NormalMsg"}, "M_14881": {"note_status": 1, "channel": 15, "note": 72, "velocity": 0, "time": 0, "type": "NormalMsg"}, "M_14882": {"note_status": 1, "channel": 15, "note": 57, "velocity": 0, "time": 0, "type": "NormalMsg"}, "M_14883": {"note_status": 1, "channel": 15, "note": 60, "velocity": 1, "time": 0, "type": "NormalMsg"}, "M_14884": {"note_status": 1, "channel": 15, "note": 69, "velocity": 0, "time": 0, "type": "NormalMsg"}, "M_14885": {"note_status": 1, "channel": 15, "note": 72, "velocity": 1, "time": 0, "type": "NormalMsg"}, "M_14886": {"note_status": 1, "channel": 15, "note": 57, "velocity": 1, "time": 0, "type": "NormalMsg"}, "M_14887": {"note_status": 1, "channel": 15, "note": 60, "velocity": 0, "time": 0, "type": "NormalMsg"}, "M_14888": {"note_status": 1, "channel": 15, "note": 69, "velocity": 1, "time": 0, "type": "NormalMsg"}, "M_14889": {"note_status": 1, "channel": 15, "note": 72, "velocity": 0, "time": 0, "type": "NormalMsg"}, "M_14890": {"note_status": 1, "channel": 15, "note": 57, "velocity": 0, "time": 0, "type": "NormalMsg"}, "M_14891": {"note_status": 1, "channel": 15, "note": 60, "velocity": 1, "time": 0, "type": "NormalMsg"}, "M_14892": {"note_status": 1, "channel": 15, "note": 69, "velocity": 0, "time": 0, "type": "NormalMsg"}, "M_14893": {"note_status": 1, "channel": 15, "note": 72, "velocity": 1, "time": 0, "type": "NormalMsg"}, "M_14894": {"note_status": 1, "channel": 15, "note": 59, "velocity": 1, "time": 0, "type": "NormalMsg"}, "M_14895": {"note_status": 1, "channel": 15, "note": 60, "velocity": 0, "time": 0, "type": "NormalMsg"}, "M_14896": {"note_status": 1, "channel": 15, "note": 71, "velocity": 1, "time": 0, "type": "NormalMsg"}, "M_14897": {"note_status": 1, "channel": 15, "note": 72, "velocity": 0, "time": 0, "type": "NormalMsg"}, "M_14898": {"note_status": 1, "channel": 15, "note": 59, "velocity": 0, "time": 0, "type": "NormalMsg"}, "M_14899": {"note_status": 1, "channel": 15, "note": 60, "velocity": 1, "time": 0, "type": "NormalMsg"}, "M_14900": {"note_status": 1, "channel": 15, "note": 71, "velocity": 0, "time": 0, "type": "NormalMsg"}, "M_14901": {"note_status": 1, "channel": 15, "note": 72, "velocity": 1, "time": 0, "type": "NormalMsg"}, "M_14902": {"note_status": 1, "channel": 15, "note": 57, "velocity": 1, "time": 0, "type": "NormalMsg"}, "M_14903": {"note_status": 1, "channel": 15, "note": 60, "velocity": 0, "time": 0, "type": "NormalMsg"}, "M_14904": {"note_status": 1, "channel": 15, "note": 69, "velocity": 1, "time": 0, "type": "NormalMsg"}, "M_14905": {"note_status": 1, "channel": 15, "note": 72, "velocity": 0, "time": 0, "type": "NormalMsg"}, "M_14906": {"note_status": 1, "channel": 15, "note": 57, "velocity": 0, "time": 0, "type": "NormalMsg"}, "M_14907": {"note_status": 1, "channel": 15, "note": 60, "velocity": 1, "time": 0, "type": "NormalMsg"}, "M_14908": {"note_status": 1, "channel": 15, "note": 69, "velocity": 0, "time": 0, "type": "NormalMsg"}, "M_14909": {"note_status": 1, "channel": 15, "note": 72, "velocity": 1, "time": 0, "type": "NormalMsg"}, "M_14910": {"note_status": 1, "channel": 15, "note": 57, "velocity": 1, "time": 0, "type": "NormalMsg"}, "M_14911": {"note_status": 1, "channel": 15, "note": 60, "velocity": 0, "time": 0, "type": "NormalMsg"}, "M_14912": {"note_status": 1, "channel": 15, "note": 69, "velocity": 1, "time": 0, "type": "NormalMsg"}, "M_14913": {"note_status": 1, "channel": 15, "note": 72, "velocity": 0, "time": 0, "type": "NormalMsg"}, "M_14914": {"note_status": 1, "channel": 15, "note": 57, "velocity": 0, "time": 0, "type": "NormalMsg"}, "M_14915": {"note_status": 1, "channel": 15, "note": 60, "velocity": 1, "time": 0, "type": "NormalMsg"}, "M_14916": {"note_status": 1, "channel": 15, "note": 69, "velocity": 0, "time": 0, "type": "NormalMsg"}, "M_14917": {"note_status": 1, "channel": 15, "note": 72, "velocity": 1, "time": 0, "type": "NormalMsg"}, "M_14918": {"note_status": 1, "channel": 15, "note": 60, "velocity": 0, "time": 0, "type": "NormalMsg"}, "M_14919": {"note_status": 1, "channel": 15, "note": 64, "velocity": 1, "time": 0, "type": "NormalMsg"}, "M_14920": {"note_status": 1, "channel": 15, "note": 72, "velocity": 0, "time": 0, "type": "NormalMsg"}, "M_14921": {"note_status": 1, "channel": 15, "note": 76, "velocity": 1, "time": 0, "type": "NormalMsg"}, "M_14922": {"note_status": 1, "channel": 15, "note": 62, "velocity": 1, "time": 0, "type": "NormalMsg"}, "M_14923": {"note_status": 1, "channel": 15, "note": 64, "velocity": 0, "time": 0, "type": "NormalMsg"}, "M_14924": {"note_status": 1, "channel": 15, "note": 74, "velocity": 1, "time": 0, "type": "NormalMsg"}, "M_14925": {"note_status": 1, "channel": 15, "note": 76, "velocity": 0, "time": 0, "type": "NormalMsg"}, "M_14926": {"note_status": 1, "channel": 15, "note": 60, "velocity": 1, "time": 0, "type": "NormalMsg"}, "M_14927": {"note_status": 1, "channel": 15, "note": 62, "velocity": 0, "time": 0, "type": "NormalMsg"}, "M_14928": {"note_status": 1, "channel": 15, "note": 72, "velocity": 1, "time": 0, "type": "NormalMsg"}, "M_14929": {"note_status": 1, "channel": 15, "note": 74, "velocity": 0, "time": 0, "type": "NormalMsg"}, "M_14930": {"note_status": 1, "channel": 15, "note": 60, "velocity": 0, "time": 0, "type": "NormalMsg"}, "M_14931": {"note_status": 1, "channel": 15, "note": 62, "velocity": 1, "time": 0, "type": "NormalMsg"}, "M_14932": {"note_status": 1, "channel": 15, "note": 72, "velocity": 0, "time": 0, "type": "NormalMsg"}, "M_14933": {"note_status": 1, "channel": 15, "note": 74, "velocity": 1, "time": 0, "type": "NormalMsg"}, "M_14934": {"note_status": 1, "channel": 15, "note": 60, "velocity": 1, "time": 0, "type": "NormalMsg"}, "M_14935": {"note_status": 1, "channel": 15, "note": 62, "velocity": 0, "time": 0, "type": "NormalMsg"}, "M_14936": {"note_status": 1, "channel": 15, "note": 72, "velocity": 1, "time": 0, "type": "NormalMsg"}, "M_14937": {"note_status": 1, "channel": 15, "note": 74, "velocity": 0, "time": 0, "type": "NormalMsg"}, "M_14938": {"note_status": 1, "channel": 15, "note": 57, "velocity": 1, "time": 0, "type": "NormalMsg"}, "M_14939": {"note_status": 1, "channel": 15, "note": 60, "velocity": 0, "time": 0, "type": "NormalMsg"}, "M_14940": {"note_status": 1, "channel": 15, "note": 69, "velocity": 1, "time": 0, "type": "NormalMsg"}, "M_14941": {"note_status": 1, "channel": 15, "note": 72, "velocity": 0, "time": 0, "type": "NormalMsg"}, "M_14942": {"note_status": 1, "channel": 15, "note": 57, "velocity": 0, "time": 0, "type": "NormalMsg"}, "M_14943": {"note_status": 1, "channel": 15, "note": 60, "velocity": 1, "time": 0, "type": "NormalMsg"}, "M_14944": {"note_status": 1, "channel": 15, "note": 69, "velocity": 0, "time": 0, "type": "NormalMsg"}, "M_14945": {"note_status": 1, "channel": 15, "note": 72, "velocity": 1, "time": 0, "type": "NormalMsg"}, "M_14946": {"note_status": 1, "channel": 15, "note": 57, "velocity": 1, "time": 0, "type": "NormalMsg"}, "M_14947": {"note_status": 1, "channel": 15, "note": 60, "velocity": 0, "time": 0, "type": "NormalMsg"}, "M_14948": {"note_status": 1, "channel": 15, "note": 69, "velocity": 1, "time": 0, "type": "NormalMsg"}, "M_14949": {"note_status": 1, "channel": 15, "note": 72, "velocity": 0, "time": 0, "type": "NormalMsg"}, "M_14950": {"note_status": 1, "channel": 15, "note": 57, "velocity": 0, "time": 0, "type": "NormalMsg"}, "M_14951": {"note_status": 1, "channel": 15, "note": 60, "velocity": 1, "time": 0, "type": "NormalMsg"}, "M_14952": {"note_status": 1, "channel": 15, "note": 69, "velocity": 0, "time": 0, "type": "NormalMsg"}, "M_14953": {"note_status": 1, "channel": 15, "note": 72, "velocity": 1, "time": 0, "type": "NormalMsg"}, "M_14954": {"note_status": 1, "channel": 15, "note": 59, "velocity": 1, "time": 0, "type": "NormalMsg"}, "M_14955": {"note_status": 1, "channel": 15, "note": 60, "velocity": 0, "time": 0, "type": "NormalMsg"}, "M_14956": {"note_status": 1, "channel": 15, "note": 71, "velocity": 1, "time": 0, "type": "NormalMsg"}, "M_14957": {"note_status": 1, "channel": 15, "note": 72, "velocity": 0, "time": 0, "type": "NormalMsg"}, "M_14958": {"note_status": 1, "channel": 15, "note": 59, "velocity": 0, "time": 0, "type": "NormalMsg"}, "M_14959": {"note_status": 1, "channel": 15, "note": 60, "velocity": 1, "time": 0, "type": "NormalMsg"}, "M_14960": {"note_status": 1, "channel": 15, "note": 71, "velocity": 0, "time": 0, "type": "NormalMsg"}, "M_14961": {"note_status": 1, "channel": 15, "note": 72, "velocity": 1, "time": 0, "type": "NormalMsg"}, "M_14962": {"note_status": 1, "channel": 15, "note": 57, "velocity": 1, "time": 0, "type": "NormalMsg"}, "M_14963": {"note_status": 1, "channel": 15, "note": 60, "velocity": 0, "time": 0, "type": "NormalMsg"}, "M_14964": {"note_status": 1, "channel": 15, "note": 69, "velocity": 1, "time": 0, "type": "NormalMsg"}, "M_14965": {"note_status": 1, "channel": 15, "note": 72, "velocity": 0, "time": 0, "type": "NormalMsg"}, "M_14966": {"note_status": 1, "channel": 15, "note": 57, "velocity": 0, "time": 0, "type": "NormalMsg"}, "M_14967": {"note_status": 1, "channel": 15, "note": 69, "velocity": 0, "time": 0, "type": "NormalMsg"}, "M_14968": {"note_status": 1, "channel": 15, "note": 69, "velocity": 1, "time": 0, "type": "NormalMsg"}, "M_14969": {"note_status": 1, "channel": 15, "note": 72, "velocity": 1, "time": 0, "type": "NormalMsg"}, "M_14970": {"note_status": 1, "channel": 15, "note": 69, "velocity": 0, "time": 0, "type": "NormalMsg"}, "M_14971": {"note_status": 1, "channel": 15, "note": 71, "velocity": 1, "time": 0, "type": "NormalMsg"}, "M_14972": {"note_status": 1, "channel": 15, "note": 72, "velocity": 0, "time": 0, "type": "NormalMsg"}, "M_14973": {"note_status": 1, "channel": 15, "note": 74, "velocity": 1, "time": 0, "type": "NormalMsg"}, "M_14974": {"note_status": 1, "channel": 15, "note": 71, "velocity": 0, "time": 0, "type": "NormalMsg"}, "M_14975": {"note_status": 1, "channel": 15, "note": 72, "velocity": 1, "time": 0, "type": "NormalMsg"}, "M_14976": {"note_status": 1, "channel": 15, "note": 74, "velocity": 0, "time": 0, "type": "NormalMsg"}, "M_14977": {"note_status": 1, "channel": 15, "note": 76, "velocity": 1, "time": 0, "type": "NormalMsg"}, "M_14978": {"note_status": 1, "channel": 15, "note": 72, "velocity": 0, "time": 0, "type": "NormalMsg"}, "M_14979": {"note_status": 1, "channel": 15, "note": 76, "velocity": 0, "time": 0, "type": "NormalMsg"}, "M_14980": {"note_status": 1, "channel": 15, "note": 69, "velocity": 1, "time": 0, "type": "NormalMsg"}, "M_14981": {"note_status": 1, "channel": 15, "note": 72, "velocity": 1, "time": 0, "type": "NormalMsg"}, "M_14982": {"note_status": 1, "channel": 15, "note": 69, "velocity": 0, "time": 0, "type": "NormalMsg"}, "M_14983": {"note_status": 1, "channel": 15, "note": 71, "velocity": 1, "time": 0, "type": "NormalMsg"}, "M_14984": {"note_status": 1, "channel": 15, "note": 72, "velocity": 0, "time": 0, "type": "NormalMsg"}, "M_14985": {"note_status": 1, "channel": 15, "note": 74, "velocity": 1, "time": 0, "type": "NormalMsg"}, "M_14986": {"note_status": 1, "channel": 15, "note": 71, "velocity": 0, "time": 0, "type": "NormalMsg"}, "M_14987": {"note_status": 1, "channel": 15, "note": 72, "velocity": 1, "time": 0, "type": "NormalMsg"}, "M_14988": {"note_status": 1, "channel": 15, "note": 74, "velocity": 0, "time": 0, "type": "NormalMsg"}, "M_14989": {"note_status": 1, "channel": 15, "note": 76, "velocity": 1, "time": 0, "type": "NormalMsg"}, "M_14990": {"note_status": 1, "channel": 15, "note": 72, "velocity": 0, "time": 0, "type": "NormalMsg"}, "M_14991": {"note_status": 1, "channel": 15, "note": 76, "velocity": 0, "time": 0, "type": "NormalMsg"}, "M_14992": {"note_status": 1, "channel": 15, "note": 60, "velocity": 1, "time": 0, "type": "NormalMsg"}, "M_14993": {"note_status": 1, "channel": 15, "note": 72, "velocity": 1, "time": 0, "type": "NormalMsg"}, "M_14994": {"note_status": 1, "channel": 15, "note": 57, "velocity": 1, "time": 0, "type": "NormalMsg"}, "M_14995": {"note_status": 1, "channel": 15, "note": 60, "velocity": 0, "time": 0, "type": "NormalMsg"}, "M_14996": {"note_status": 1, "channel": 15, "note": 69, "velocity": 1, "time": 0, "type": "NormalMsg"}, "M_14997": {"note_status": 1, "channel": 15, "note": 72, "velocity": 0, "time": 0, "type": "NormalMsg"}, "M_14998": {"note_status": 1, "channel": 15, "note": 57, "velocity": 0, "time": 0, "type": "NormalMsg"}, "M_14999": {"note_status": 1, "channel": 15, "note": 60, "velocity": 1, "time": 0, "type": "NormalMsg"}, "M_15000": {"note_status": 1, "channel": 15, "note": 69, "velocity": 0, "time": 0, "type": "NormalMsg"}, "M_15001": {"note_status": 1, "channel": 15, "note": 72, "velocity": 1, "time": 0, "type": "NormalMsg"}, "M_15002": {"note_status": 1, "channel": 15, "note": 57, "velocity": 1, "time": 0, "type": "NormalMsg"}, "M_15003": {"note_status": 1, "channel": 15, "note": 60, "velocity": 0, "time": 0, "type": "NormalMsg"}, "M_15004": {"note_status": 1, "channel": 15, "note": 69, "velocity": 1, "time": 0, "type": "NormalMsg"}, "M_15005": {"note_status": 1, "channel": 15, "note": 72, "velocity": 0, "time": 0, "type": "NormalMsg"}, "M_15006": {"note_status": 1, "channel": 15, "note": 60, "velocity": 1, "time": 0, "type": "NormalMsg"}, "M_15007": {"note_status": 1, "channel": 15, "note": 72, "velocity": 1, "time": 0, "type": "NormalMsg"}, "M_15008": {"note_status": 1, "channel": 15, "note": 57, "velocity": 0, "time": 0, "type": "NormalMsg"}, "M_15009": {"note_status": 1, "channel": 15, "note": 69, "velocity": 0, "time": 0, "type": "NormalMsg"}, "M_15010": {"note_status": 1, "channel": 15, "note": 59, "velocity": 1, "time": 0, "type": "NormalMsg"}, "M_15011": {"note_status": 1, "channel": 15, "note": 60, "velocity": 0, "time": 0, "type": "NormalMsg"}, "M_15012": {"note_status": 1, "channel": 15, "note": 71, "velocity": 1, "time": 0, "type": "NormalMsg"}, "M_15013": {"note_status": 1, "channel": 15, "note": 72, "velocity": 0, "time": 0, "type": "NormalMsg"}, "M_15014": {"note_status": 1, "channel": 15, "note": 59, "velocity": 0, "time": 0, "type": "NormalMsg"}, "M_15015": {"note_status": 1, "channel": 15, "note": 60, "velocity": 1, "time": 0, "type": "NormalMsg"}, "M_15016": {"note_status": 1, "channel": 15, "note": 71, "velocity": 0, "time": 0, "type": "NormalMsg"}, "M_15017": {"note_status": 1, "channel": 15, "note": 72, "velocity": 1, "time": 0, "type": "NormalMsg"}, "M_15018": {"note_status": 1, "channel": 15, "note": 57, "velocity": 1, "time": 0, "type": "NormalMsg"}, "M_15019": {"note_status": 1, "channel": 15, "note": 60, "velocity": 0, "time": 0, "type": "NormalMsg"}, "M_15020": {"note_status": 1, "channel": 15, "note": 69, "velocity": 1, "time": 0, "type": "NormalMsg"}, "M_15021": {"note_status": 1, "channel": 15, "note": 72, "velocity": 0, "time": 0, "type": "NormalMsg"}, "M_15022": {"note_status": 1, "channel": 15, "note": 57, "velocity": 0, "time": 0, "type": "NormalMsg"}, "M_15023": {"note_status": 1, "channel": 15, "note": 60, "velocity": 1, "time": 0, "type": "NormalMsg"}, "M_15024": {"note_status": 1, "channel": 15, "note": 69, "velocity": 0, "time": 0, "type": "NormalMsg"}, "M_15025": {"note_status": 1, "channel": 15, "note": 72, "velocity": 1, "time": 0, "type": "NormalMsg"}, "M_15026": {"note_status": 1, "channel": 15, "note": 57, "velocity": 1, "time": 0, "type": "NormalMsg"}, "M_15027": {"note_status": 1, "channel": 15, "note": 60, "velocity": 0, "time": 0, "type": "NormalMsg"}, "M_15028": {"note_status": 1, "channel": 15, "note": 69, "velocity": 1, "time": 0, "type": "NormalMsg"}, "M_15029": {"note_status": 1, "channel": 15, "note": 72, "velocity": 0, "time": 0, "type": "NormalMsg"}, "M_15030": {"note_status": 1, "channel": 15, "note": 60, "velocity": 1, "time": 0, "type": "NormalMsg"}, "M_15031": {"note_status": 1, "channel": 15, "note": 72, "velocity": 1, "time": 0, "type": "NormalMsg"}, "M_15032": {"note_status": 1, "channel": 15, "note": 57, "velocity": 0, "time": 0, "type": "NormalMsg"}, "M_15033": {"note_status": 1, "channel": 15, "note": 69, "velocity": 0, "time": 0, "type": "NormalMsg"}, "M_15034": {"note_status": 1, "channel": 15, "note": 60, "velocity": 0, "time": 0, "type": "NormalMsg"}, "M_15035": {"note_status": 1, "channel": 15, "note": 64, "velocity": 1, "time": 0, "type": "NormalMsg"}, "M_15036": {"note_status": 1, "channel": 15, "note": 72, "velocity": 0, "time": 0, "type": "NormalMsg"}, "M_15037": {"note_status": 1, "channel": 15, "note": 76, "velocity": 1, "time": 0, "type": "NormalMsg"}, "M_15038": {"note_status": 1, "channel": 15, "note": 62, "velocity": 1, "time": 0, "type": "NormalMsg"}, "M_15039": {"note_status": 1, "channel": 15, "note": 74, "velocity": 1, "time": 0, "type": "NormalMsg"}, "M_15040": {"note_status": 1, "channel": 15, "note": 64, "velocity": 0, "time": 0, "type": "NormalMsg"}, "M_15041": {"note_status": 1, "channel": 15, "note": 76, "velocity": 0, "time": 0, "type": "NormalMsg"}, "M_15042": {"note_status": 1, "channel": 15, "note": 60, "velocity": 1, "time": 0, "type": "NormalMsg"}, "M_15043": {"note_status": 1, "channel": 15, "note": 62, "velocity": 0, "time": 0, "type": "NormalMsg"}, "M_15044": {"note_status": 1, "channel": 15, "note": 72, "velocity": 1, "time": 0, "type": "NormalMsg"}, "M_15045": {"note_status": 1, "channel": 15, "note": 74, "velocity": 0, "time": 0, "type": "NormalMsg"}, "M_15046": {"note_status": 1, "channel": 15, "note": 60, "velocity": 0, "time": 0, "type": "NormalMsg"}, "M_15047": {"note_status": 1, "channel": 15, "note": 62, "velocity": 1, "time": 0, "type": "NormalMsg"}, "M_15048": {"note_status": 1, "channel": 15, "note": 72, "velocity": 0, "time": 0, "type": "NormalMsg"}, "M_15049": {"note_status": 1, "channel": 15, "note": 74, "velocity": 1, "time": 0, "type": "NormalMsg"}, "M_15050": {"note_status": 1, "channel": 15, "note": 60, "velocity": 1, "time": 0, "type": "NormalMsg"}, "M_15051": {"note_status": 1, "channel": 15, "note": 62, "velocity": 0, "time": 0, "type": "NormalMsg"}, "M_15052": {"note_status": 1, "channel": 15, "note": 72, "velocity": 1, "time": 0, "type": "NormalMsg"}, "M_15053": {"note_status": 1, "channel": 15, "note": 74, "velocity": 0, "time": 0, "type": "NormalMsg"}, "M_15054": {"note_status": 1, "channel": 15, "note": 57, "velocity": 1, "time": 0, "type": "NormalMsg"}, "M_15055": {"note_status": 1, "channel": 15, "note": 60, "velocity": 0, "time": 0, "type": "NormalMsg"}, "M_15056": {"note_status": 1, "channel": 15, "note": 69, "velocity": 1, "time": 0, "type": "NormalMsg"}, "M_15057": {"note_status": 1, "channel": 15, "note": 72, "velocity": 0, "time": 0, "type": "NormalMsg"}, "M_15058": {"note_status": 1, "channel": 15, "note": 57, "velocity": 0, "time": 0, "type": "NormalMsg"}, "M_15059": {"note_status": 1, "channel": 15, "note": 60, "velocity": 1, "time": 0, "type": "NormalMsg"}, "M_15060": {"note_status": 1, "channel": 15, "note": 69, "velocity": 0, "time": 0, "type": "NormalMsg"}, "M_15061": {"note_status": 1, "channel": 15, "note": 72, "velocity": 1, "time": 0, "type": "NormalMsg"}, "M_15062": {"note_status": 1, "channel": 15, "note": 57, "velocity": 1, "time": 0, "type": "NormalMsg"}, "M_15063": {"note_status": 1, "channel": 15, "note": 60, "velocity": 0, "time": 0, "type": "NormalMsg"}, "M_15064": {"note_status": 1, "channel": 15, "note": 69, "velocity": 1, "time": 0, "type": "NormalMsg"}, "M_15065": {"note_status": 1, "channel": 15, "note": 72, "velocity": 0, "time": 0, "type": "NormalMsg"}, "M_15066": {"note_status": 1, "channel": 15, "note": 60, "velocity": 1, "time": 0, "type": "NormalMsg"}, "M_15067": {"note_status": 1, "channel": 15, "note": 72, "velocity": 1, "time": 0, "type": "NormalMsg"}, "M_15068": {"note_status": 1, "channel": 15, "note": 57, "velocity": 0, "time": 0, "type": "NormalMsg"}, "M_15069": {"note_status": 1, "channel": 15, "note": 69, "velocity": 0, "time": 0, "type": "NormalMsg"}, "M_15070": {"note_status": 1, "channel": 15, "note": 59, "velocity": 1, "time": 0, "type": "NormalMsg"}, "M_15071": {"note_status": 1, "channel": 15, "note": 60, "velocity": 0, "time": 0, "type": "NormalMsg"}, "M_15072": {"note_status": 1, "channel": 15, "note": 71, "velocity": 1, "time": 0, "type": "NormalMsg"}, "M_15073": {"note_status": 1, "channel": 15, "note": 72, "velocity": 0, "time": 0, "type": "NormalMsg"}, "M_15074": {"note_status": 1, "channel": 15, "note": 59, "velocity": 0, "time": 0, "type": "NormalMsg"}, "M_15075": {"note_status": 1, "channel": 15, "note": 60, "velocity": 1, "time": 0, "type": "NormalMsg"}, "M_15076": {"note_status": 1, "channel": 15, "note": 71, "velocity": 0, "time": 0, "type": "NormalMsg"}, "M_15077": {"note_status": 1, "channel": 15, "note": 72, "velocity": 1, "time": 0, "type": "NormalMsg"}, "M_15078": {"note_status": 1, "channel": 15, "note": 57, "velocity": 1, "time": 0, "type": "NormalMsg"}, "M_15079": {"note_status": 1, "channel": 15, "note": 60, "velocity": 0, "time": 0, "type": "NormalMsg"}, "M_15080": {"note_status": 1, "channel": 15, "note": 69, "velocity": 1, "time": 0, "type": "NormalMsg"}, "M_15081": {"note_status": 1, "channel": 15, "note": 72, "velocity": 0, "time": 0, "type": "NormalMsg"}, "M_15082": {"note_status": 1, "channel": 15, "note": 57, "velocity": 0, "time": 0, "type": "NormalMsg"}, "M_15083": {"note_status": 1, "channel": 15, "note": 60, "velocity": 1, "time": 0, "type": "NormalMsg"}, "M_15084": {"note_status": 1, "channel": 15, "note": 69, "velocity": 0, "time": 0, "type": "NormalMsg"}, "M_15085": {"note_status": 1, "channel": 15, "note": 72, "velocity": 1, "time": 0, "type": "NormalMsg"}, "M_15086": {"note_status": 1, "channel": 15, "note": 57, "velocity": 1, "time": 0, "type": "NormalMsg"}, "M_15087": {"note_status": 1, "channel": 15, "note": 60, "velocity": 0, "time": 0, "type": "NormalMsg"}, "M_15088": {"note_status": 1, "channel": 15, "note": 69, "velocity": 1, "time": 0, "type": "NormalMsg"}, "M_15089": {"note_status": 1, "channel": 15, "note": 72, "velocity": 0, "time": 0, "type": "NormalMsg"}, "M_15090": {"note_status": 1, "channel": 15, "note": 60, "velocity": 1, "time": 0, "type": "NormalMsg"}, "M_15091": {"note_status": 1, "channel": 15, "note": 72, "velocity": 1, "time": 0, "type": "NormalMsg"}, "M_15092": {"note_status": 1, "channel": 15, "note": 57, "velocity": 0, "time": 0, "type": "NormalMsg"}, "M_15093": {"note_status": 1, "channel": 15, "note": 69, "velocity": 0, "time": 0, "type": "NormalMsg"}, "M_15094": {"note_status": 1, "channel": 15, "note": 60, "velocity": 0, "time": 0, "type": "NormalMsg"}, "M_15095": {"note_status": 1, "channel": 15, "note": 64, "velocity": 1, "time": 0, "type": "NormalMsg"}, "M_15096": {"note_status": 1, "channel": 15, "note": 72, "velocity": 0, "time": 0, "type": "NormalMsg"}, "M_15097": {"note_status": 1, "channel": 15, "note": 76, "velocity": 1, "time": 0, "type": "NormalMsg"}, "M_15098": {"note_status": 1, "channel": 15, "note": 62, "velocity": 1, "time": 0, "type": "NormalMsg"}, "M_15099": {"note_status": 1, "channel": 15, "note": 74, "velocity": 1, "time": 0, "type": "NormalMsg"}, "M_15100": {"note_status": 1, "channel": 15, "note": 64, "velocity": 0, "time": 0, "type": "NormalMsg"}, "M_15101": {"note_status": 1, "channel": 15, "note": 76, "velocity": 0, "time": 0, "type": "NormalMsg"}, "M_15102": {"note_status": 1, "channel": 15, "note": 60, "velocity": 1, "time": 0, "type": "NormalMsg"}, "M_15103": {"note_status": 1, "channel": 15, "note": 62, "velocity": 0, "time": 0, "type": "NormalMsg"}, "M_15104": {"note_status": 1, "channel": 15, "note": 72, "velocity": 1, "time": 0, "type": "NormalMsg"}, "M_15105": {"note_status": 1, "channel": 15, "note": 74, "velocity": 0, "time": 0, "type": "NormalMsg"}, "M_15106": {"note_status": 1, "channel": 15, "note": 60, "velocity": 0, "time": 0, "type": "NormalMsg"}, "M_15107": {"note_status": 1, "channel": 15, "note": 62, "velocity": 1, "time": 0, "type": "NormalMsg"}, "M_15108": {"note_status": 1, "channel": 15, "note": 72, "velocity": 0, "time": 0, "type": "NormalMsg"}, "M_15109": {"note_status": 1, "channel": 15, "note": 74, "velocity": 1, "time": 0, "type": "NormalMsg"}, "M_15110": {"note_status": 1, "channel": 15, "note": 60, "velocity": 1, "time": 0, "type": "NormalMsg"}, "M_15111": {"note_status": 1, "channel": 15, "note": 62, "velocity": 0, "time": 0, "type": "NormalMsg"}, "M_15112": {"note_status": 1, "channel": 15, "note": 72, "velocity": 1, "time": 0, "type": "NormalMsg"}, "M_15113": {"note_status": 1, "channel": 15, "note": 74, "velocity": 0, "time": 0, "type": "NormalMsg"}, "M_15114": {"note_status": 1, "channel": 15, "note": 57, "velocity": 1, "time": 0, "type": "NormalMsg"}, "M_15115": {"note_status": 1, "channel": 15, "note": 60, "velocity": 0, "time": 0, "type": "NormalMsg"}, "M_15116": {"note_status": 1, "channel": 15, "note": 69, "velocity": 1, "time": 0, "type": "NormalMsg"}, "M_15117": {"note_status": 1, "channel": 15, "note": 72, "velocity": 0, "time": 0, "type": "NormalMsg"}, "M_15118": {"note_status": 1, "channel": 15, "note": 57, "velocity": 0, "time": 0, "type": "NormalMsg"}, "M_15119": {"note_status": 1, "channel": 15, "note": 69, "velocity": 0, "time": 0, "type": "NormalMsg"}, "R_15120": {"note_status": 0, "channel": 0, "note": 0, "velocity": 0, "time": 0, "type": "ResetMsg"}, "R_15121": {"note_status": 0, "channel": 0, "note": 0, "velocity": 0, "time": 0, "type": "ResetMsg"}, "U_15122": {"note_status": 0, "channel": 0, "note": 0, "velocity": 0, "time": 0, "type": "DummyType"}, "M_15123": {"note_status": 1, "channel": 0, "note": 76, "velocity": 123, "time": 0, "type": "NormalMsg"}, "M_15124": {"note_status": 1, "channel": 0, "note": 76, "velocity": 0, "time": 0, "type": "NormalMsg"}, "M_15125": {"note_status": 1, "channel": 0, "note": 76, "velocity": 123, "time": 0, "type": "NormalMsg"}, "M_15126": {"note_status": 1, "channel": 0, "note": 76, "velocity": 0, "time": 0, "type": "NormalMsg"}, "M_15127": {"note_status": 1, "channel": 0, "note": 76, "velocity": 123, "time": 0, "type": "NormalMsg"}, "M_15128": {"note_status": 1, "channel": 0, "note": 76, "velocity": 0, "time": 0, "type": "NormalMsg"}, "M_15129": {"note_status": 1, "channel": 0, "note": 76, "velocity": 123, "time": 0, "type": "NormalMsg"}, "M_15130": {"note_status": 1, "channel": 0, "note": 76, "velocity": 0, "time": 0, "type": "NormalMsg"}, "M_15131": {"note_status": 1, "channel": 0, "note": 76, "velocity": 123, "time": 0, "type": "NormalMsg"}, "M_15132": {"note_status": 1, "channel": 0, "note": 76, "velocity": 0, "time": 0, "type": "NormalMsg"}, "M_15133": {"note_status": 1, "channel": 0, "note": 76, "velocity": 123, "time": 0, "type": "NormalMsg"}, "M_15134": {"note_status": 1, "channel": 0, "note": 76, "velocity": 0, "time": 0, "type": "NormalMsg"}, "M_15135": {"note_status": 1, "channel": 0, "note": 76, "velocity": 123, "time": 0, "type": "NormalMsg"}, "M_15136": {"note_status": 1, "channel": 0, "note": 76, "velocity": 0, "time": 0, "type": "NormalMsg"}, "M_15137": {"note_status": 1, "channel": 0, "note": 76, "velocity": 123, "time": 0, "type": "NormalMsg"}, "M_15138": {"note_status": 1, "channel": 0, "note": 76, "velocity": 0, "time": 0, "type": "NormalMsg"}, "M_15139": {"note_status": 1, "channel": 0, "note": 76, "velocity": 123, "time": 0, "type": "NormalMsg"}, "M_15140": {"note_status": 1, "channel": 0, "note": 76, "velocity": 0, "time": 0, "type": "NormalMsg"}, "M_15141": {"note_status": 1, "channel": 0, "note": 76, "velocity": 123, "time": 0, "type": "NormalMsg"}, "M_15142": {"note_status": 1, "channel": 0, "note": 76, "velocity": 0, "time": 0, "type": "NormalMsg"}, "M_15143": {"note_status": 1, "channel": 0, "note": 76, "velocity": 123, "time": 0, "type": "NormalMsg"}, "M_15144": {"note_status": 1, "channel": 0, "note": 76, "velocity": 0, "time": 0, "type": "NormalMsg"}, "M_15145": {"note_status": 1, "channel": 0, "note": 76, "velocity": 123, "time": 0, "type": "NormalMsg"}, "M_15146": {"note_status": 1, "channel": 0, "note": 76, "velocity": 0, "time": 0, "type": "NormalMsg"}, "M_15147": {"note_status": 1, "channel": 0, "note": 76, "velocity": 121, "time": 0, "type": "NormalMsg"}, "M_15148": {"note_status": 1, "channel": 0, "note": 76, "velocity": 0, "time": 0, "type": "NormalMsg"}, "M_15149": {"note_status": 1, "channel": 0, "note": 76, "velocity": 71, "time": 0, "type": "NormalMsg"}, "M_15150": {"note_status": 1, "channel": 0, "note": 76, "velocity": 0, "time": 0, "type": "NormalMsg"}, "M_15151": {"note_status": 1, "channel": 0, "note": 76, "velocity": 57, "time": 0, "type": "NormalMsg"}, "M_15152": {"note_status": 1, "channel": 0, "note": 76, "velocity": 0, "time": 0, "type": "NormalMsg"}, "M_15153": {"note_status": 1, "channel": 0, "note": 76, "velocity": 42, "time": 0, "type": "NormalMsg"}, "M_15154": {"note_status": 1, "channel": 0, "note": 76, "velocity": 0, "time": 0, "type": "NormalMsg"}, "M_15155": {"note_status": 1, "channel": 0, "note": 76, "velocity": 123, "time": 0, "type": "NormalMsg"}, "M_15156": {"note_status": 1, "channel": 0, "note": 76, "velocity": 0, "time": 0, "type": "NormalMsg"}, "M_15157": {"note_status": 1, "channel": 0, "note": 76, "velocity": 123, "time": 0, "type": "NormalMsg"}, "M_15158": {"note_status": 1, "channel": 0, "note": 76, "velocity": 0, "time": 0, "type": "NormalMsg"}, "M_15159": {"note_status": 1, "channel": 0, "note": 76, "velocity": 123, "time": 0, "type": "NormalMsg"}, "M_15160": {"note_status": 1, "channel": 0, "note": 76, "velocity": 0, "time": 0, "type": "NormalMsg"}, "M_15161": {"note_status": 1, "channel": 0, "note": 76, "velocity": 123, "time": 0, "type": "NormalMsg"}, "M_15162": {"note_status": 1, "channel": 0, "note": 76, "velocity": 0, "time": 0, "type": "NormalMsg"}, "M_15163": {"note_status": 1, "channel": 0, "note": 76, "velocity": 123, "time": 0, "type": "NormalMsg"}, "M_15164": {"note_status": 1, "channel": 0, "note": 76, "velocity": 0, "time": 0, "type": "NormalMsg"}, "M_15165": {"note_status": 1, "channel": 0, "note": 76, "velocity": 123, "time": 0, "type": "NormalMsg"}, "M_15166": {"note_status": 1, "channel": 0, "note": 76, "velocity": 0, "time": 0, "type": "NormalMsg"}, "M_15167": {"note_status": 1, "channel": 0, "note": 76, "velocity": 123, "time": 0, "type": "NormalMsg"}, "M_15168": {"note_status": 1, "channel": 0, "note": 76, "velocity": 0, "time": 0, "type": "NormalMsg"}, "M_15169": {"note_status": 1, "channel": 0, "note": 76, "velocity": 123, "time": 0, "type": "NormalMsg"}, "M_15170": {"note_status": 1, "channel": 0, "note": 76, "velocity": 0, "time": 0, "type": "NormalMsg"}, "M_15171": {"note_status": 1, "channel": 0, "note": 76, "velocity": 123, "time": 0, "type": "NormalMsg"}, "M_15172": {"note_status": 1, "channel": 0, "note": 76, "velocity": 0, "time": 0, "type": "NormalMsg"}, "M_15173": {"note_status": 1, "channel": 0, "note": 76, "velocity": 123, "time": 0, "type": "NormalMsg"}, "M_15174": {"note_status": 1, "channel": 0, "note": 76, "velocity": 0, "time": 0, "type": "NormalMsg"}, "M_15175": {"note_status": 1, "channel": 0, "note": 76, "velocity": 123, "time": 0, "type": "NormalMsg"}, "M_15176": {"note_status": 1, "channel": 0, "note": 76, "velocity": 0, "time": 0, "type": "NormalMsg"}, "M_15177": {"note_status": 1, "channel": 0, "note": 76, "velocity": 123, "time": 0, "type": "NormalMsg"}, "M_15178": {"note_status": 1, "channel": 0, "note": 76, "velocity": 0, "time": 0, "type": "NormalMsg"}, "M_15179": {"note_status": 1, "channel": 0, "note": 76, "velocity": 121, "time": 0, "type": "NormalMsg"}, "M_15180": {"note_status": 1, "channel": 0, "note": 76, "velocity": 0, "time": 0, "type": "NormalMsg"}, "M_15181": {"note_status": 1, "channel": 0, "note": 76, "velocity": 71, "time": 0, "type": "NormalMsg"}, "M_15182": {"note_status": 1, "channel": 0, "note": 76, "velocity": 0, "time": 0, "type": "NormalMsg"}, "M_15183": {"note_status": 1, "channel": 0, "note": 76, "velocity": 57, "time": 0, "type": "NormalMsg"}, "M_15184": {"note_status": 1, "channel": 0, "note": 76, "velocity": 0, "time": 0, "type": "NormalMsg"}, "M_15185": {"note_status": 1, "channel": 0, "note": 76, "velocity": 42, "time": 0, "type": "NormalMsg"}, "M_15186": {"note_status": 1, "channel": 0, "note": 69, "velocity": 123, "time": 0, "type": "NormalMsg"}, "M_15187": {"note_status": 1, "channel": 0, "note": 76, "velocity": 0, "time": 0, "type": "NormalMsg"}, "M_15188": {"note_status": 1, "channel": 0, "note": 81, "velocity": 123, "time": 0, "type": "NormalMsg"}, "M_15189": {"note_status": 1, "channel": 0, "note": 69, "velocity": 0, "time": 0, "type": "NormalMsg"}, "M_15190": {"note_status": 1, "channel": 0, "note": 81, "velocity": 0, "time": 0, "type": "NormalMsg"}, "R_15191": {"note_status": 0, "channel": 0, "note": 0, "velocity": 0, "time": 0, "type": "ResetMsg"}}