{"R_1": {"note_status": 0, "channel": 0, "note": 0, "velocity": 0, "time": 0, "type": "ResetMsg"}, "R_2": {"note_status": 0, "channel": 0, "note": 0, "velocity": 0, "time": 0, "type": "ResetMsg"}, "R_3": {"note_status": 0, "channel": 0, "note": 0, "velocity": 0, "time": 0, "type": "ResetMsg"}, "U_4": {"note_status": 0, "channel": 0, "note": 0, "velocity": 0, "time": 0, "type": "DummyType"}, "U_5": {"note_status": 0, "channel": 0, "note": 0, "velocity": 0, "time": 0, "type": "DummyType"}, "U_6": {"note_status": 0, "channel": 0, "note": 0, "velocity": 0, "time": 0, "type": "DummyType"}, "U_7": {"note_status": 0, "channel": 0, "note": 0, "velocity": 0, "time": 0, "type": "DummyType"}, "U_8": {"note_status": 0, "channel": 0, "note": 0, "velocity": 0, "time": 0, "type": "DummyType"}, "U_9": {"note_status": 0, "channel": 0, "note": 0, "velocity": 0, "time": 0, "type": "DummyType"}, "R_10": {"note_status": 0, "channel": 0, "note": 0, "velocity": 0, "time": 0, "type": "ResetMsg"}, "M_11": {"note_status": 1, "channel": 0, "note": 69, "velocity": 64, "time": 0, "type": "NormalMsg"}, "M_12": {"note_status": 1, "channel": 0, "note": 69, "velocity": 0, "time": 0, "type": "NormalMsg"}, "M_13": {"note_status": 1, "channel": 0, "note": 76, "velocity": 64, "time": 0, "type": "NormalMsg"}, "M_14": {"note_status": 1, "channel": 0, "note": 76, "velocity": 0, "time": 0, "type": "NormalMsg"}, "M_15": {"note_status": 1, "channel": 0, "note": 73, "velocity": 64, "time": 0, "type": "NormalMsg"}, "M_16": {"note_status": 1, "channel": 0, "note": 73, "velocity": 0, "time": 0, "type": "NormalMsg"}, "M_17": {"note_status": 1, "channel": 0, "note": 69, "velocity": 64, "time": 0, "type": "NormalMsg"}, "M_18": {"note_status": 1, "channel": 0, "note": 69, "velocity": 0, "time": 0, "type": "NormalMsg"}, "M_19": {"note_status": 1, "channel": 0, "note": 73, "velocity": 64, "time": 0, "type": "NormalMsg"}, "M_20": {"note_status": 1, "channel": 0, "note": 73, "velocity": 0, "time": 0, "type": "NormalMsg"}, "M_21": {"note_status": 1, "channel": 0, "note": 74, "velocity": 64, "time": 0, "type": "NormalMsg"}, "M_22": {"note_status": 1, "channel": 0, "note": 74, "velocity": 0, "time": 0, "type": "NormalMsg"}, "M_23": {"note_status": 1, "channel": 0, "note": 71, "velocity": 64, "time": 0, "type": "NormalMsg"}, "M_24": {"note_status": 1, "channel": 0, "note": 71, "velocity": 0, "time": 0, "type": "NormalMsg"}, "M_25": {"note_status": 1, "channel": 0, "note": 73, "velocity": 64, "time": 0, "type": "NormalMsg"}, "M_26": {"note_status": 1, "channel": 0, "note": 73, "velocity": 0, "time": 0, "type": "NormalMsg"}, "M_27": {"note_status": 1, "channel": 0, "note": 74, "velocity": 64, "time": 0, "type": "NormalMsg"}, "M_28": {"note_status": 1, "channel": 0, "note": 74, "velocity": 0, "time": 0, "type": "NormalMsg"}, "M_29": {"note_status": 1, "channel": 0, "note": 78, "velocity": 64, "time": 0, "type": "NormalMsg"}, "M_30": {"note_status": 1, "channel": 0, "note": 78, "velocity": 0, "time": 0, "type": "NormalMsg"}, "M_31": {"note_status": 1, "channel": 0, "note": 74, "velocity": 64, "time": 0, "type": "NormalMsg"}, "M_32": {"note_status": 1, "channel": 0, "note": 74, "velocity": 0, "time": 0, "type": "NormalMsg"}, "M_33": {"note_status": 1, "channel": 0, "note": 76, "velocity": 64, "time": 0, "type": "NormalMsg"}, "M_34": {"note_status": 1, "channel": 0, "note": 76, "velocity": 0, "time": 0, "type": "NormalMsg"}, "M_35": {"note_status": 1, "channel": 0, "note": 78, "velocity": 64, "time": 0, "type": "NormalMsg"}, "M_36": {"note_status": 1, "channel": 0, "note": 78, "velocity": 0, "time": 0, "type": "NormalMsg"}, "M_37": {"note_status": 1, "channel": 0, "note": 69, "velocity": 64, "time": 0, "type": "NormalMsg"}, "M_38": {"note_status": 1, "channel": 0, "note": 69, "velocity": 0, "time": 0, "type": "NormalMsg"}, "M_39": {"note_status": 1, "channel": 0, "note": 73, "velocity": 64, "time": 0, "type": "NormalMsg"}, "M_40": {"note_status": 1, "channel": 0, "note": 73, "velocity": 0, "time": 0, "type": "NormalMsg"}, "M_41": {"note_status": 1, "channel": 0, "note": 74, "velocity": 64, "time": 0, "type": "NormalMsg"}, "M_42": {"note_status": 1, "channel": 0, "note": 74, "velocity": 0, "time": 0, "type": "NormalMsg"}, "M_43": {"note_status": 1, "channel": 0, "note": 76, "velocity": 64, "time": 0, "type": "NormalMsg"}, "M_44": {"note_status": 1, "channel": 0, "note": 76, "velocity": 0, "time": 0, "type": "NormalMsg"}, "M_45": {"note_status": 1, "channel": 0, "note": 78, "velocity": 64, "time": 0, "type": "NormalMsg"}, "M_46": {"note_status": 1, "channel": 0, "note": 78, "velocity": 0, "time": 0, "type": "NormalMsg"}, "M_47": {"note_status": 1, "channel": 0, "note": 80, "velocity": 64, "time": 0, "type": "NormalMsg"}, "M_48": {"note_status": 1, "channel": 0, "note": 80, "velocity": 0, "time": 0, "type": "NormalMsg"}, "M_49": {"note_status": 1, "channel": 0, "note": 80, "velocity": 64, "time": 0, "type": "NormalMsg"}, "M_50": {"note_status": 1, "channel": 0, "note": 80, "velocity": 0, "time": 0, "type": "NormalMsg"}, "M_51": {"note_status": 1, "channel": 0, "note": 69, "velocity": 64, "time": 0, "type": "NormalMsg"}, "M_52": {"note_status": 1, "channel": 0, "note": 69, "velocity": 0, "time": 0, "type": "NormalMsg"}, "M_53": {"note_status": 1, "channel": 0, "note": 71, "velocity": 64, "time": 0, "type": "NormalMsg"}, "M_54": {"note_status": 1, "channel": 0, "note": 71, "velocity": 0, "time": 0, "type": "NormalMsg"}, "M_55": {"note_status": 1, "channel": 0, "note": 73, "velocity": 64, "time": 0, "type": "NormalMsg"}, "M_56": {"note_status": 1, "channel": 0, "note": 73, "velocity": 0, "time": 0, "type": "NormalMsg"}, "M_57": {"note_status": 1, "channel": 0, "note": 74, "velocity": 64, "time": 0, "type": "NormalMsg"}, "M_58": {"note_status": 1, "channel": 0, "note": 74, "velocity": 0, "time": 0, "type": "NormalMsg"}, "M_59": {"note_status": 1, "channel": 0, "note": 71, "velocity": 64, "time": 0, "type": "NormalMsg"}, "M_60": {"note_status": 1, "channel": 0, "note": 71, "velocity": 0, "time": 0, "type": "NormalMsg"}, "M_61": {"note_status": 1, "channel": 0, "note": 71, "velocity": 64, "time": 0, "type": "NormalMsg"}, "M_62": {"note_status": 1, "channel": 0, "note": 71, "velocity": 0, "time": 0, "type": "NormalMsg"}, "M_63": {"note_status": 1, "channel": 0, "note": 73, "velocity": 64, "time": 0, "type": "NormalMsg"}, "M_64": {"note_status": 1, "channel": 0, "note": 73, "velocity": 0, "time": 0, "type": "NormalMsg"}, "M_65": {"note_status": 1, "channel": 0, "note": 69, "velocity": 64, "time": 0, "type": "NormalMsg"}, "M_66": {"note_status": 1, "channel": 0, "note": 69, "velocity": 0, "time": 0, "type": "NormalMsg"}, "M_67": {"note_status": 1, "channel": 0, "note": 69, "velocity": 64, "time": 0, "type": "NormalMsg"}, "M_68": {"note_status": 1, "channel": 0, "note": 69, "velocity": 0, "time": 0, "type": "NormalMsg"}, "M_69": {"note_status": 1, "channel": 0, "note": 71, "velocity": 64, "time": 0, "type": "NormalMsg"}, "M_70": {"note_status": 1, "channel": 0, "note": 71, "velocity": 0, "time": 0, "type": "NormalMsg"}, "M_71": {"note_status": 1, "channel": 0, "note": 68, "velocity": 64, "time": 0, "type": "NormalMsg"}, "M_72": {"note_status": 1, "channel": 0, "note": 68, "velocity": 0, "time": 0, "type": "NormalMsg"}, "M_73": {"note_status": 1, "channel": 0, "note": 69, "velocity": 64, "time": 0, "type": "NormalMsg"}, "M_74": {"note_status": 1, "channel": 0, "note": 69, "velocity": 0, "time": 0, "type": "NormalMsg"}, "R_75": {"note_status": 0, "channel": 0, "note": 0, "velocity": 0, "time": 0, "type": "ResetMsg"}, "M_76": {"note_status": 1, "channel": 0, "note": 76, "velocity": 64, "time": 0, "type": "NormalMsg"}, "M_77": {"note_status": 1, "channel": 0, "note": 76, "velocity": 0, "time": 0, "type": "NormalMsg"}, "M_78": {"note_status": 1, "channel": 0, "note": 77, "velocity": 72, "time": 0, "type": "NormalMsg"}, "M_79": {"note_status": 1, "channel": 0, "note": 77, "velocity": 0, "time": 0, "type": "NormalMsg"}, "M_80": {"note_status": 1, "channel": 0, "note": 77, "velocity": 76, "time": 0, "type": "NormalMsg"}, "M_81": {"note_status": 1, "channel": 0, "note": 77, "velocity": 0, "time": 0, "type": "NormalMsg"}, "M_82": {"note_status": 1, "channel": 0, "note": 80, "velocity": 80, "time": 0, "type": "NormalMsg"}, "M_83": {"note_status": 1, "channel": 0, "note": 80, "velocity": 0, "time": 0, "type": "NormalMsg"}, "M_84": {"note_status": 1, "channel": 0, "note": 83, "velocity": 80, "time": 0, "type": "NormalMsg"}, "M_85": {"note_status": 1, "channel": 0, "note": 83, "velocity": 0, "time": 0, "type": "NormalMsg"}, "M_86": {"note_status": 1, "channel": 0, "note": 81, "velocity": 80, "time": 0, "type": "NormalMsg"}, "M_87": {"note_status": 1, "channel": 0, "note": 81, "velocity": 0, "time": 0, "type": "NormalMsg"}, "M_88": {"note_status": 1, "channel": 0, "note": 80, "velocity": 80, "time": 0, "type": "NormalMsg"}, "M_89": {"note_status": 1, "channel": 0, "note": 80, "velocity": 0, "time": 0, "type": "NormalMsg"}, "M_90": {"note_status": 1, "channel": 0, "note": 76, "velocity": 80, "time": 0, "type": "NormalMsg"}, "M_91": {"note_status": 1, "channel": 0, "note": 76, "velocity": 0, "time": 0, "type": "NormalMsg"}, "M_92": {"note_status": 1, "channel": 0, "note": 77, "velocity": 80, "time": 0, "type": "NormalMsg"}, "M_93": {"note_status": 1, "channel": 0, "note": 77, "velocity": 0, "time": 0, "type": "NormalMsg"}, "M_94": {"note_status": 1, "channel": 0, "note": 74, "velocity": 80, "time": 0, "type": "NormalMsg"}, "M_95": {"note_status": 1, "channel": 0, "note": 74, "velocity": 0, "time": 0, "type": "NormalMsg"}, "M_96": {"note_status": 1, "channel": 0, "note": 72, "velocity": 80, "time": 0, "type": "NormalMsg"}, "M_97": {"note_status": 1, "channel": 0, "note": 72, "velocity": 0, "time": 0, "type": "NormalMsg"}, "M_98": {"note_status": 1, "channel": 0, "note": 71, "velocity": 72, "time": 0, "type": "NormalMsg"}, "M_99": {"note_status": 1, "channel": 0, "note": 71, "velocity": 0, "time": 0, "type": "NormalMsg"}, "M_100": {"note_status": 1, "channel": 0, "note": 67, "velocity": 64, "time": 0, "type": "NormalMsg"}, "M_101": {"note_status": 1, "channel": 0, "note": 67, "velocity": 0, "time": 0, "type": "NormalMsg"}, "M_102": {"note_status": 1, "channel": 0, "note": 81, "velocity": 80, "time": 0, "type": "NormalMsg"}, "M_103": {"note_status": 1, "channel": 0, "note": 81, "velocity": 0, "time": 0, "type": "NormalMsg"}, "M_104": {"note_status": 1, "channel": 0, "note": 83, "velocity": 88, "time": 0, "type": "NormalMsg"}, "M_105": {"note_status": 1, "channel": 0, "note": 83, "velocity": 0, "time": 0, "type": "NormalMsg"}, "M_106": {"note_status": 1, "channel": 0, "note": 83, "velocity": 92, "time": 0, "type": "NormalMsg"}, "M_107": {"note_status": 1, "channel": 0, "note": 83, "velocity": 0, "time": 0, "type": "NormalMsg"}, "M_108": {"note_status": 1, "channel": 0, "note": 84, "velocity": 96, "time": 0, "type": "NormalMsg"}, "M_109": {"note_status": 1, "channel": 0, "note": 84, "velocity": 0, "time": 0, "type": "NormalMsg"}, "M_110": {"note_status": 1, "channel": 0, "note": 83, "velocity": 96, "time": 0, "type": "NormalMsg"}, "M_111": {"note_status": 1, "channel": 0, "note": 83, "velocity": 0, "time": 0, "type": "NormalMsg"}, "M_112": {"note_status": 1, "channel": 0, "note": 81, "velocity": 96, "time": 0, "type": "NormalMsg"}, "M_113": {"note_status": 1, "channel": 0, "note": 81, "velocity": 0, "time": 0, "type": "NormalMsg"}, "M_114": {"note_status": 1, "channel": 0, "note": 69, "velocity": 80, "time": 0, "type": "NormalMsg"}, "M_115": {"note_status": 1, "channel": 0, "note": 69, "velocity": 0, "time": 0, "type": "NormalMsg"}, "M_116": {"note_status": 1, "channel": 0, "note": 72, "velocity": 80, "time": 0, "type": "NormalMsg"}, "M_117": {"note_status": 1, "channel": 0, "note": 72, "velocity": 0, "time": 0, "type": "NormalMsg"}, "M_118": {"note_status": 1, "channel": 0, "note": 74, "velocity": 80, "time": 0, "type": "NormalMsg"}, "M_119": {"note_status": 1, "channel": 0, "note": 74, "velocity": 0, "time": 0, "type": "NormalMsg"}, "M_120": {"note_status": 1, "channel": 0, "note": 71, "velocity": 80, "time": 0, "type": "NormalMsg"}, "M_121": {"note_status": 1, "channel": 0, "note": 71, "velocity": 0, "time": 0, "type": "NormalMsg"}, "M_122": {"note_status": 1, "channel": 0, "note": 71, "velocity": 80, "time": 0, "type": "NormalMsg"}, "M_123": {"note_status": 1, "channel": 0, "note": 71, "velocity": 0, "time": 0, "type": "NormalMsg"}, "M_124": {"note_status": 1, "channel": 0, "note": 67, "velocity": 80, "time": 0, "type": "NormalMsg"}, "M_125": {"note_status": 1, "channel": 0, "note": 67, "velocity": 0, "time": 0, "type": "NormalMsg"}, "M_126": {"note_status": 1, "channel": 0, "note": 69, "velocity": 80, "time": 0, "type": "NormalMsg"}, "M_127": {"note_status": 1, "channel": 0, "note": 69, "velocity": 0, "time": 0, "type": "NormalMsg"}, "R_128": {"note_status": 0, "channel": 0, "note": 0, "velocity": 0, "time": 0, "type": "ResetMsg"}, "M_129": {"note_status": 1, "channel": 0, "note": 69, "velocity": 64, "time": 0, "type": "NormalMsg"}, "M_130": {"note_status": 1, "channel": 0, "note": 69, "velocity": 0, "time": 0, "type": "NormalMsg"}, "M_131": {"note_status": 1, "channel": 0, "note": 76, "velocity": 64, "time": 0, "type": "NormalMsg"}, "M_132": {"note_status": 1, "channel": 0, "note": 76, "velocity": 0, "time": 0, "type": "NormalMsg"}, "M_133": {"note_status": 1, "channel": 0, "note": 73, "velocity": 64, "time": 0, "type": "NormalMsg"}, "M_134": {"note_status": 1, "channel": 0, "note": 73, "velocity": 0, "time": 0, "type": "NormalMsg"}, "M_135": {"note_status": 1, "channel": 0, "note": 69, "velocity": 64, "time": 0, "type": "NormalMsg"}, "M_136": {"note_status": 1, "channel": 0, "note": 69, "velocity": 0, "time": 0, "type": "NormalMsg"}, "M_137": {"note_status": 1, "channel": 0, "note": 73, "velocity": 64, "time": 0, "type": "NormalMsg"}, "M_138": {"note_status": 1, "channel": 0, "note": 73, "velocity": 0, "time": 0, "type": "NormalMsg"}, "M_139": {"note_status": 1, "channel": 0, "note": 74, "velocity": 64, "time": 0, "type": "NormalMsg"}, "M_140": {"note_status": 1, "channel": 0, "note": 74, "velocity": 0, "time": 0, "type": "NormalMsg"}, "M_141": {"note_status": 1, "channel": 0, "note": 71, "velocity": 64, "time": 0, "type": "NormalMsg"}, "M_142": {"note_status": 1, "channel": 0, "note": 71, "velocity": 0, "time": 0, "type": "NormalMsg"}, "M_143": {"note_status": 1, "channel": 0, "note": 73, "velocity": 64, "time": 0, "type": "NormalMsg"}, "M_144": {"note_status": 1, "channel": 0, "note": 73, "velocity": 0, "time": 0, "type": "NormalMsg"}, "M_145": {"note_status": 1, "channel": 0, "note": 74, "velocity": 64, "time": 0, "type": "NormalMsg"}, "M_146": {"note_status": 1, "channel": 0, "note": 74, "velocity": 0, "time": 0, "type": "NormalMsg"}, "M_147": {"note_status": 1, "channel": 0, "note": 78, "velocity": 64, "time": 0, "type": "NormalMsg"}, "M_148": {"note_status": 1, "channel": 0, "note": 78, "velocity": 0, "time": 0, "type": "NormalMsg"}, "M_149": {"note_status": 1, "channel": 0, "note": 74, "velocity": 64, "time": 0, "type": "NormalMsg"}, "M_150": {"note_status": 1, "channel": 0, "note": 74, "velocity": 0, "time": 0, "type": "NormalMsg"}, "M_151": {"note_status": 1, "channel": 0, "note": 76, "velocity": 64, "time": 0, "type": "NormalMsg"}, "M_152": {"note_status": 1, "channel": 0, "note": 76, "velocity": 0, "time": 0, "type": "NormalMsg"}, "M_153": {"note_status": 1, "channel": 0, "note": 78, "velocity": 64, "time": 0, "type": "NormalMsg"}, "M_154": {"note_status": 1, "channel": 0, "note": 78, "velocity": 0, "time": 0, "type": "NormalMsg"}, "M_155": {"note_status": 1, "channel": 0, "note": 69, "velocity": 64, "time": 0, "type": "NormalMsg"}, "M_156": {"note_status": 1, "channel": 0, "note": 69, "velocity": 0, "time": 0, "type": "NormalMsg"}, "M_157": {"note_status": 1, "channel": 0, "note": 73, "velocity": 64, "time": 0, "type": "NormalMsg"}, "M_158": {"note_status": 1, "channel": 0, "note": 73, "velocity": 0, "time": 0, "type": "NormalMsg"}, "M_159": {"note_status": 1, "channel": 0, "note": 74, "velocity": 64, "time": 0, "type": "NormalMsg"}, "M_160": {"note_status": 1, "channel": 0, "note": 74, "velocity": 0, "time": 0, "type": "NormalMsg"}, "M_161": {"note_status": 1, "channel": 0, "note": 76, "velocity": 64, "time": 0, "type": "NormalMsg"}, "M_162": {"note_status": 1, "channel": 0, "note": 76, "velocity": 0, "time": 0, "type": "NormalMsg"}, "M_163": {"note_status": 1, "channel": 0, "note": 78, "velocity": 64, "time": 0, "type": "NormalMsg"}, "M_164": {"note_status": 1, "channel": 0, "note": 78, "velocity": 0, "time": 0, "type": "NormalMsg"}, "M_165": {"note_status": 1, "channel": 0, "note": 80, "velocity": 64, "time": 0, "type": "NormalMsg"}, "M_166": {"note_status": 1, "channel": 0, "note": 80, "velocity": 0, "time": 0, "type": "NormalMsg"}, "M_167": {"note_status": 1, "channel": 0, "note": 80, "velocity": 64, "time": 0, "type": "NormalMsg"}, "M_168": {"note_status": 1, "channel": 0, "note": 80, "velocity": 0, "time": 0, "type": "NormalMsg"}, "M_169": {"note_status": 1, "channel": 0, "note": 69, "velocity": 64, "time": 0, "type": "NormalMsg"}, "M_170": {"note_status": 1, "channel": 0, "note": 69, "velocity": 0, "time": 0, "type": "NormalMsg"}, "M_171": {"note_status": 1, "channel": 0, "note": 71, "velocity": 64, "time": 0, "type": "NormalMsg"}, "M_172": {"note_status": 1, "channel": 0, "note": 71, "velocity": 0, "time": 0, "type": "NormalMsg"}, "M_173": {"note_status": 1, "channel": 0, "note": 73, "velocity": 64, "time": 0, "type": "NormalMsg"}, "M_174": {"note_status": 1, "channel": 0, "note": 73, "velocity": 0, "time": 0, "type": "NormalMsg"}, "M_175": {"note_status": 1, "channel": 0, "note": 74, "velocity": 64, "time": 0, "type": "NormalMsg"}, "M_176": {"note_status": 1, "channel": 0, "note": 74, "velocity": 0, "time": 0, "type": "NormalMsg"}, "M_177": {"note_status": 1, "channel": 0, "note": 71, "velocity": 64, "time": 0, "type": "NormalMsg"}, "M_178": {"note_status": 1, "channel": 0, "note": 71, "velocity": 0, "time": 0, "type": "NormalMsg"}, "M_179": {"note_status": 1, "channel": 0, "note": 71, "velocity": 64, "time": 0, "type": "NormalMsg"}, "M_180": {"note_status": 1, "channel": 0, "note": 71, "velocity": 0, "time": 0, "type": "NormalMsg"}, "M_181": {"note_status": 1, "channel": 0, "note": 73, "velocity": 64, "time": 0, "type": "NormalMsg"}, "M_182": {"note_status": 1, "channel": 0, "note": 73, "velocity": 0, "time": 0, "type": "NormalMsg"}, "M_183": {"note_status": 1, "channel": 0, "note": 69, "velocity": 64, "time": 0, "type": "NormalMsg"}, "M_184": {"note_status": 1, "channel": 0, "note": 69, "velocity": 0, "time": 0, "type": "NormalMsg"}, "M_185": {"note_status": 1, "channel": 0, "note": 69, "velocity": 64, "time": 0, "type": "NormalMsg"}, "M_186": {"note_status": 1, "channel": 0, "note": 69, "velocity": 0, "time": 0, "type": "NormalMsg"}, "M_187": {"note_status": 1, "channel": 0, "note": 71, "velocity": 64, "time": 0, "type": "NormalMsg"}, "M_188": {"note_status": 1, "channel": 0, "note": 71, "velocity": 0, "time": 0, "type": "NormalMsg"}, "M_189": {"note_status": 1, "channel": 0, "note": 68, "velocity": 64, "time": 0, "type": "NormalMsg"}, "M_190": {"note_status": 1, "channel": 0, "note": 68, "velocity": 0, "time": 0, "type": "NormalMsg"}, "M_191": {"note_status": 1, "channel": 0, "note": 69, "velocity": 49, "time": 0, "type": "NormalMsg"}, "M_192": {"note_status": 1, "channel": 0, "note": 69, "velocity": 0, "time": 0, "type": "NormalMsg"}, "R_193": {"note_status": 0, "channel": 0, "note": 0, "velocity": 0, "time": 0, "type": "ResetMsg"}, "R_194": {"note_status": 0, "channel": 0, "note": 0, "velocity": 0, "time": 0, "type": "ResetMsg"}, "R_195": {"note_status": 0, "channel": 0, "note": 0, "velocity": 0, "time": 0, "type": "ResetMsg"}, "R_196": {"note_status": 0, "channel": 0, "note": 0, "velocity": 0, "time": 0, "type": "ResetMsg"}, "R_197": {"note_status": 0, "channel": 0, "note": 0, "velocity": 0, "time": 0, "type": "ResetMsg"}, "R_198": {"note_status": 0, "channel": 0, "note": 0, "velocity": 0, "time": 0, "type": "ResetMsg"}, "R_199": {"note_status": 0, "channel": 0, "note": 0, "velocity": 0, "time": 0, "type": "ResetMsg"}, "R_200": {"note_status": 0, "channel": 0, "note": 0, "velocity": 0, "time": 0, "type": "ResetMsg"}, "M_201": {"note_status": 1, "channel": 0, "note": 45, "velocity": 64, "time": 0, "type": "NormalMsg"}, "M_202": {"note_status": 1, "channel": 0, "note": 49, "velocity": 64, "time": 0, "type": "NormalMsg"}, "M_203": {"note_status": 1, "channel": 0, "note": 52, "velocity": 64, "time": 0, "type": "NormalMsg"}, "M_204": {"note_status": 1, "channel": 0, "note": 45, "velocity": 0, "time": 0, "type": "NormalMsg"}, "M_205": {"note_status": 1, "channel": 0, "note": 49, "velocity": 0, "time": 0, "type": "NormalMsg"}, "M_206": {"note_status": 1, "channel": 0, "note": 52, "velocity": 0, "time": 0, "type": "NormalMsg"}, "M_207": {"note_status": 1, "channel": 0, "note": 49, "velocity": 64, "time": 0, "type": "NormalMsg"}, "M_208": {"note_status": 1, "channel": 0, "note": 52, "velocity": 64, "time": 0, "type": "NormalMsg"}, "M_209": {"note_status": 1, "channel": 0, "note": 56, "velocity": 64, "time": 0, "type": "NormalMsg"}, "M_210": {"note_status": 1, "channel": 0, "note": 49, "velocity": 0, "time": 0, "type": "NormalMsg"}, "M_211": {"note_status": 1, "channel": 0, "note": 52, "velocity": 0, "time": 0, "type": "NormalMsg"}, "M_212": {"note_status": 1, "channel": 0, "note": 56, "velocity": 0, "time": 0, "type": "NormalMsg"}, "M_213": {"note_status": 1, "channel": 0, "note": 54, "velocity": 64, "time": 0, "type": "NormalMsg"}, "M_214": {"note_status": 1, "channel": 0, "note": 57, "velocity": 64, "time": 0, "type": "NormalMsg"}, "M_215": {"note_status": 1, "channel": 0, "note": 61, "velocity": 64, "time": 0, "type": "NormalMsg"}, "M_216": {"note_status": 1, "channel": 0, "note": 54, "velocity": 0, "time": 0, "type": "NormalMsg"}, "M_217": {"note_status": 1, "channel": 0, "note": 57, "velocity": 0, "time": 0, "type": "NormalMsg"}, "M_218": {"note_status": 1, "channel": 0, "note": 61, "velocity": 0, "time": 0, "type": "NormalMsg"}, "M_219": {"note_status": 1, "channel": 0, "note": 50, "velocity": 64, "time": 0, "type": "NormalMsg"}, "M_220": {"note_status": 1, "channel": 0, "note": 54, "velocity": 64, "time": 0, "type": "NormalMsg"}, "M_221": {"note_status": 1, "channel": 0, "note": 57, "velocity": 64, "time": 0, "type": "NormalMsg"}, "M_222": {"note_status": 1, "channel": 0, "note": 50, "velocity": 0, "time": 0, "type": "NormalMsg"}, "M_223": {"note_status": 1, "channel": 0, "note": 54, "velocity": 0, "time": 0, "type": "NormalMsg"}, "M_224": {"note_status": 1, "channel": 0, "note": 57, "velocity": 0, "time": 0, "type": "NormalMsg"}, "M_225": {"note_status": 1, "channel": 0, "note": 56, "velocity": 64, "time": 0, "type": "NormalMsg"}, "M_226": {"note_status": 1, "channel": 0, "note": 59, "velocity": 64, "time": 0, "type": "NormalMsg"}, "M_227": {"note_status": 1, "channel": 0, "note": 62, "velocity": 64, "time": 0, "type": "NormalMsg"}, "M_228": {"note_status": 1, "channel": 0, "note": 56, "velocity": 0, "time": 0, "type": "NormalMsg"}, "M_229": {"note_status": 1, "channel": 0, "note": 59, "velocity": 0, "time": 0, "type": "NormalMsg"}, "M_230": {"note_status": 1, "channel": 0, "note": 62, "velocity": 0, "time": 0, "type": "NormalMsg"}, "M_231": {"note_status": 1, "channel": 0, "note": 54, "velocity": 64, "time": 0, "type": "NormalMsg"}, "M_232": {"note_status": 1, "channel": 0, "note": 57, "velocity": 64, "time": 0, "type": "NormalMsg"}, "M_233": {"note_status": 1, "channel": 0, "note": 64, "velocity": 64, "time": 0, "type": "NormalMsg"}, "M_234": {"note_status": 1, "channel": 0, "note": 54, "velocity": 0, "time": 0, "type": "NormalMsg"}, "M_235": {"note_status": 1, "channel": 0, "note": 57, "velocity": 0, "time": 0, "type": "NormalMsg"}, "M_236": {"note_status": 1, "channel": 0, "note": 64, "velocity": 0, "time": 0, "type": "NormalMsg"}, "M_237": {"note_status": 1, "channel": 0, "note": 50, "velocity": 64, "time": 0, "type": "NormalMsg"}, "M_238": {"note_status": 1, "channel": 0, "note": 54, "velocity": 64, "time": 0, "type": "NormalMsg"}, "M_239": {"note_status": 1, "channel": 0, "note": 57, "velocity": 64, "time": 0, "type": "NormalMsg"}, "M_240": {"note_status": 1, "channel": 0, "note": 50, "velocity": 0, "time": 0, "type": "NormalMsg"}, "M_241": {"note_status": 1, "channel": 0, "note": 54, "velocity": 0, "time": 0, "type": "NormalMsg"}, "M_242": {"note_status": 1, "channel": 0, "note": 57, "velocity": 0, "time": 0, "type": "NormalMsg"}, "M_243": {"note_status": 1, "channel": 0, "note": 45, "velocity": 64, "time": 0, "type": "NormalMsg"}, "M_244": {"note_status": 1, "channel": 0, "note": 49, "velocity": 64, "time": 0, "type": "NormalMsg"}, "M_245": {"note_status": 1, "channel": 0, "note": 52, "velocity": 64, "time": 0, "type": "NormalMsg"}, "M_246": {"note_status": 1, "channel": 0, "note": 45, "velocity": 0, "time": 0, "type": "NormalMsg"}, "M_247": {"note_status": 1, "channel": 0, "note": 49, "velocity": 0, "time": 0, "type": "NormalMsg"}, "M_248": {"note_status": 1, "channel": 0, "note": 52, "velocity": 0, "time": 0, "type": "NormalMsg"}, "M_249": {"note_status": 1, "channel": 0, "note": 50, "velocity": 64, "time": 0, "type": "NormalMsg"}, "M_250": {"note_status": 1, "channel": 0, "note": 54, "velocity": 64, "time": 0, "type": "NormalMsg"}, "M_251": {"note_status": 1, "channel": 0, "note": 59, "velocity": 64, "time": 0, "type": "NormalMsg"}, "M_252": {"note_status": 1, "channel": 0, "note": 50, "velocity": 0, "time": 0, "type": "NormalMsg"}, "M_253": {"note_status": 1, "channel": 0, "note": 54, "velocity": 0, "time": 0, "type": "NormalMsg"}, "M_254": {"note_status": 1, "channel": 0, "note": 59, "velocity": 0, "time": 0, "type": "NormalMsg"}, "M_255": {"note_status": 1, "channel": 0, "note": 52, "velocity": 64, "time": 0, "type": "NormalMsg"}, "M_256": {"note_status": 1, "channel": 0, "note": 56, "velocity": 64, "time": 0, "type": "NormalMsg"}, "M_257": {"note_status": 1, "channel": 0, "note": 59, "velocity": 64, "time": 0, "type": "NormalMsg"}, "M_258": {"note_status": 1, "channel": 0, "note": 52, "velocity": 0, "time": 0, "type": "NormalMsg"}, "M_259": {"note_status": 1, "channel": 0, "note": 56, "velocity": 0, "time": 0, "type": "NormalMsg"}, "M_260": {"note_status": 1, "channel": 0, "note": 59, "velocity": 0, "time": 0, "type": "NormalMsg"}, "M_261": {"note_status": 1, "channel": 0, "note": 54, "velocity": 64, "time": 0, "type": "NormalMsg"}, "M_262": {"note_status": 1, "channel": 0, "note": 57, "velocity": 64, "time": 0, "type": "NormalMsg"}, "M_263": {"note_status": 1, "channel": 0, "note": 61, "velocity": 64, "time": 0, "type": "NormalMsg"}, "M_264": {"note_status": 1, "channel": 0, "note": 54, "velocity": 0, "time": 0, "type": "NormalMsg"}, "M_265": {"note_status": 1, "channel": 0, "note": 57, "velocity": 0, "time": 0, "type": "NormalMsg"}, "M_266": {"note_status": 1, "channel": 0, "note": 61, "velocity": 0, "time": 0, "type": "NormalMsg"}, "M_267": {"note_status": 1, "channel": 0, "note": 56, "velocity": 64, "time": 0, "type": "NormalMsg"}, "M_268": {"note_status": 1, "channel": 0, "note": 59, "velocity": 64, "time": 0, "type": "NormalMsg"}, "M_269": {"note_status": 1, "channel": 0, "note": 62, "velocity": 64, "time": 0, "type": "NormalMsg"}, "M_270": {"note_status": 1, "channel": 0, "note": 56, "velocity": 0, "time": 0, "type": "NormalMsg"}, "M_271": {"note_status": 1, "channel": 0, "note": 59, "velocity": 0, "time": 0, "type": "NormalMsg"}, "M_272": {"note_status": 1, "channel": 0, "note": 62, "velocity": 0, "time": 0, "type": "NormalMsg"}, "M_273": {"note_status": 1, "channel": 0, "note": 45, "velocity": 64, "time": 0, "type": "NormalMsg"}, "M_274": {"note_status": 1, "channel": 0, "note": 49, "velocity": 64, "time": 0, "type": "NormalMsg"}, "M_275": {"note_status": 1, "channel": 0, "note": 52, "velocity": 64, "time": 0, "type": "NormalMsg"}, "M_276": {"note_status": 1, "channel": 0, "note": 45, "velocity": 0, "time": 0, "type": "NormalMsg"}, "M_277": {"note_status": 1, "channel": 0, "note": 49, "velocity": 0, "time": 0, "type": "NormalMsg"}, "M_278": {"note_status": 1, "channel": 0, "note": 52, "velocity": 0, "time": 0, "type": "NormalMsg"}, "M_279": {"note_status": 1, "channel": 0, "note": 52, "velocity": 64, "time": 0, "type": "NormalMsg"}, "M_280": {"note_status": 1, "channel": 0, "note": 56, "velocity": 64, "time": 0, "type": "NormalMsg"}, "M_281": {"note_status": 1, "channel": 0, "note": 59, "velocity": 64, "time": 0, "type": "NormalMsg"}, "M_282": {"note_status": 1, "channel": 0, "note": 52, "velocity": 0, "time": 0, "type": "NormalMsg"}, "M_283": {"note_status": 1, "channel": 0, "note": 56, "velocity": 0, "time": 0, "type": "NormalMsg"}, "M_284": {"note_status": 1, "channel": 0, "note": 59, "velocity": 0, "time": 0, "type": "NormalMsg"}, "M_285": {"note_status": 1, "channel": 0, "note": 54, "velocity": 64, "time": 0, "type": "NormalMsg"}, "M_286": {"note_status": 1, "channel": 0, "note": 57, "velocity": 64, "time": 0, "type": "NormalMsg"}, "M_287": {"note_status": 1, "channel": 0, "note": 61, "velocity": 64, "time": 0, "type": "NormalMsg"}, "M_288": {"note_status": 1, "channel": 0, "note": 54, "velocity": 0, "time": 0, "type": "NormalMsg"}, "M_289": {"note_status": 1, "channel": 0, "note": 57, "velocity": 0, "time": 0, "type": "NormalMsg"}, "M_290": {"note_status": 1, "channel": 0, "note": 61, "velocity": 0, "time": 0, "type": "NormalMsg"}, "M_291": {"note_status": 1, "channel": 0, "note": 56, "velocity": 64, "time": 0, "type": "NormalMsg"}, "M_292": {"note_status": 1, "channel": 0, "note": 59, "velocity": 64, "time": 0, "type": "NormalMsg"}, "M_293": {"note_status": 1, "channel": 0, "note": 62, "velocity": 64, "time": 0, "type": "NormalMsg"}, "M_294": {"note_status": 1, "channel": 0, "note": 56, "velocity": 0, "time": 0, "type": "NormalMsg"}, "M_295": {"note_status": 1, "channel": 0, "note": 59, "velocity": 0, "time": 0, "type": "NormalMsg"}, "M_296": {"note_status": 1, "channel": 0, "note": 62, "velocity": 0, "time": 0, "type": "NormalMsg"}, "M_297": {"note_status": 1, "channel": 0, "note": 54, "velocity": 64, "time": 0, "type": "NormalMsg"}, "M_298": {"note_status": 1, "channel": 0, "note": 57, "velocity": 64, "time": 0, "type": "NormalMsg"}, "M_299": {"note_status": 1, "channel": 0, "note": 61, "velocity": 64, "time": 0, "type": "NormalMsg"}, "M_300": {"note_status": 1, "channel": 0, "note": 54, "velocity": 0, "time": 0, "type": "NormalMsg"}, "M_301": {"note_status": 1, "channel": 0, "note": 57, "velocity": 0, "time": 0, "type": "NormalMsg"}, "M_302": {"note_status": 1, "channel": 0, "note": 61, "velocity": 0, "time": 0, "type": "NormalMsg"}, "M_303": {"note_status": 1, "channel": 0, "note": 52, "velocity": 64, "time": 0, "type": "NormalMsg"}, "M_304": {"note_status": 1, "channel": 0, "note": 56, "velocity": 64, "time": 0, "type": "NormalMsg"}, "M_305": {"note_status": 1, "channel": 0, "note": 59, "velocity": 64, "time": 0, "type": "NormalMsg"}, "M_306": {"note_status": 1, "channel": 0, "note": 52, "velocity": 0, "time": 0, "type": "NormalMsg"}, "M_307": {"note_status": 1, "channel": 0, "note": 56, "velocity": 0, "time": 0, "type": "NormalMsg"}, "M_308": {"note_status": 1, "channel": 0, "note": 59, "velocity": 0, "time": 0, "type": "NormalMsg"}, "M_309": {"note_status": 1, "channel": 0, "note": 45, "velocity": 64, "time": 0, "type": "NormalMsg"}, "M_310": {"note_status": 1, "channel": 0, "note": 49, "velocity": 64, "time": 0, "type": "NormalMsg"}, "M_311": {"note_status": 1, "channel": 0, "note": 52, "velocity": 64, "time": 0, "type": "NormalMsg"}, "M_312": {"note_status": 1, "channel": 0, "note": 45, "velocity": 0, "time": 0, "type": "NormalMsg"}, "M_313": {"note_status": 1, "channel": 0, "note": 49, "velocity": 0, "time": 0, "type": "NormalMsg"}, "M_314": {"note_status": 1, "channel": 0, "note": 52, "velocity": 0, "time": 0, "type": "NormalMsg"}, "R_315": {"note_status": 0, "channel": 0, "note": 0, "velocity": 0, "time": 0, "type": "ResetMsg"}, "M_316": {"note_status": 1, "channel": 0, "note": 45, "velocity": 64, "time": 0, "type": "NormalMsg"}, "M_317": {"note_status": 1, "channel": 0, "note": 48, "velocity": 64, "time": 0, "type": "NormalMsg"}, "M_318": {"note_status": 1, "channel": 0, "note": 52, "velocity": 64, "time": 0, "type": "NormalMsg"}, "M_319": {"note_status": 1, "channel": 0, "note": 45, "velocity": 0, "time": 0, "type": "NormalMsg"}, "M_320": {"note_status": 1, "channel": 0, "note": 48, "velocity": 0, "time": 0, "type": "NormalMsg"}, "M_321": {"note_status": 1, "channel": 0, "note": 52, "velocity": 0, "time": 0, "type": "NormalMsg"}, "M_322": {"note_status": 1, "channel": 0, "note": 50, "velocity": 72, "time": 0, "type": "NormalMsg"}, "M_323": {"note_status": 1, "channel": 0, "note": 53, "velocity": 72, "time": 0, "type": "NormalMsg"}, "M_324": {"note_status": 1, "channel": 0, "note": 59, "velocity": 72, "time": 0, "type": "NormalMsg"}, "M_325": {"note_status": 1, "channel": 0, "note": 50, "velocity": 0, "time": 0, "type": "NormalMsg"}, "M_326": {"note_status": 1, "channel": 0, "note": 53, "velocity": 0, "time": 0, "type": "NormalMsg"}, "M_327": {"note_status": 1, "channel": 0, "note": 59, "velocity": 0, "time": 0, "type": "NormalMsg"}, "M_328": {"note_status": 1, "channel": 0, "note": 56, "velocity": 80, "time": 0, "type": "NormalMsg"}, "M_329": {"note_status": 1, "channel": 0, "note": 59, "velocity": 80, "time": 0, "type": "NormalMsg"}, "M_330": {"note_status": 1, "channel": 0, "note": 62, "velocity": 80, "time": 0, "type": "NormalMsg"}, "M_331": {"note_status": 1, "channel": 0, "note": 56, "velocity": 0, "time": 0, "type": "NormalMsg"}, "M_332": {"note_status": 1, "channel": 0, "note": 59, "velocity": 0, "time": 0, "type": "NormalMsg"}, "M_333": {"note_status": 1, "channel": 0, "note": 62, "velocity": 0, "time": 0, "type": "NormalMsg"}, "M_334": {"note_status": 1, "channel": 0, "note": 53, "velocity": 80, "time": 0, "type": "NormalMsg"}, "M_335": {"note_status": 1, "channel": 0, "note": 57, "velocity": 80, "time": 0, "type": "NormalMsg"}, "M_336": {"note_status": 1, "channel": 0, "note": 60, "velocity": 80, "time": 0, "type": "NormalMsg"}, "M_337": {"note_status": 1, "channel": 0, "note": 53, "velocity": 0, "time": 0, "type": "NormalMsg"}, "M_338": {"note_status": 1, "channel": 0, "note": 57, "velocity": 0, "time": 0, "type": "NormalMsg"}, "M_339": {"note_status": 1, "channel": 0, "note": 60, "velocity": 0, "time": 0, "type": "NormalMsg"}, "M_340": {"note_status": 1, "channel": 0, "note": 52, "velocity": 80, "time": 0, "type": "NormalMsg"}, "M_341": {"note_status": 1, "channel": 0, "note": 56, "velocity": 80, "time": 0, "type": "NormalMsg"}, "M_342": {"note_status": 1, "channel": 0, "note": 59, "velocity": 80, "time": 0, "type": "NormalMsg"}, "M_343": {"note_status": 1, "channel": 0, "note": 52, "velocity": 0, "time": 0, "type": "NormalMsg"}, "M_344": {"note_status": 1, "channel": 0, "note": 56, "velocity": 0, "time": 0, "type": "NormalMsg"}, "M_345": {"note_status": 1, "channel": 0, "note": 59, "velocity": 0, "time": 0, "type": "NormalMsg"}, "M_346": {"note_status": 1, "channel": 0, "note": 50, "velocity": 80, "time": 0, "type": "NormalMsg"}, "M_347": {"note_status": 1, "channel": 0, "note": 53, "velocity": 80, "time": 0, "type": "NormalMsg"}, "M_348": {"note_status": 1, "channel": 0, "note": 57, "velocity": 80, "time": 0, "type": "NormalMsg"}, "M_349": {"note_status": 1, "channel": 0, "note": 50, "velocity": 0, "time": 0, "type": "NormalMsg"}, "M_350": {"note_status": 1, "channel": 0, "note": 53, "velocity": 0, "time": 0, "type": "NormalMsg"}, "M_351": {"note_status": 1, "channel": 0, "note": 57, "velocity": 0, "time": 0, "type": "NormalMsg"}, "M_352": {"note_status": 1, "channel": 0, "note": 52, "velocity": 80, "time": 0, "type": "NormalMsg"}, "M_353": {"note_status": 1, "channel": 0, "note": 57, "velocity": 80, "time": 0, "type": "NormalMsg"}, "M_354": {"note_status": 1, "channel": 0, "note": 60, "velocity": 80, "time": 0, "type": "NormalMsg"}, "M_355": {"note_status": 1, "channel": 0, "note": 52, "velocity": 0, "time": 0, "type": "NormalMsg"}, "M_356": {"note_status": 1, "channel": 0, "note": 57, "velocity": 0, "time": 0, "type": "NormalMsg"}, "M_357": {"note_status": 1, "channel": 0, "note": 60, "velocity": 0, "time": 0, "type": "NormalMsg"}, "M_358": {"note_status": 1, "channel": 0, "note": 52, "velocity": 64, "time": 0, "type": "NormalMsg"}, "M_359": {"note_status": 1, "channel": 0, "note": 56, "velocity": 64, "time": 0, "type": "NormalMsg"}, "M_360": {"note_status": 1, "channel": 0, "note": 59, "velocity": 64, "time": 0, "type": "NormalMsg"}, "M_361": {"note_status": 1, "channel": 0, "note": 52, "velocity": 0, "time": 0, "type": "NormalMsg"}, "M_362": {"note_status": 1, "channel": 0, "note": 56, "velocity": 0, "time": 0, "type": "NormalMsg"}, "M_363": {"note_status": 1, "channel": 0, "note": 59, "velocity": 0, "time": 0, "type": "NormalMsg"}, "M_364": {"note_status": 1, "channel": 0, "note": 53, "velocity": 80, "time": 0, "type": "NormalMsg"}, "M_365": {"note_status": 1, "channel": 0, "note": 57, "velocity": 80, "time": 0, "type": "NormalMsg"}, "M_366": {"note_status": 1, "channel": 0, "note": 60, "velocity": 80, "time": 0, "type": "NormalMsg"}, "M_367": {"note_status": 1, "channel": 0, "note": 53, "velocity": 0, "time": 0, "type": "NormalMsg"}, "M_368": {"note_status": 1, "channel": 0, "note": 57, "velocity": 0, "time": 0, "type": "NormalMsg"}, "M_369": {"note_status": 1, "channel": 0, "note": 60, "velocity": 0, "time": 0, "type": "NormalMsg"}, "M_370": {"note_status": 1, "channel": 0, "note": 56, "velocity": 88, "time": 0, "type": "NormalMsg"}, "M_371": {"note_status": 1, "channel": 0, "note": 59, "velocity": 88, "time": 0, "type": "NormalMsg"}, "M_372": {"note_status": 1, "channel": 0, "note": 62, "velocity": 88, "time": 0, "type": "NormalMsg"}, "M_373": {"note_status": 1, "channel": 0, "note": 56, "velocity": 0, "time": 0, "type": "NormalMsg"}, "M_374": {"note_status": 1, "channel": 0, "note": 59, "velocity": 0, "time": 0, "type": "NormalMsg"}, "M_375": {"note_status": 1, "channel": 0, "note": 62, "velocity": 0, "time": 0, "type": "NormalMsg"}, "M_376": {"note_status": 1, "channel": 0, "note": 57, "velocity": 96, "time": 0, "type": "NormalMsg"}, "M_377": {"note_status": 1, "channel": 0, "note": 60, "velocity": 96, "time": 0, "type": "NormalMsg"}, "M_378": {"note_status": 1, "channel": 0, "note": 64, "velocity": 96, "time": 0, "type": "NormalMsg"}, "M_379": {"note_status": 1, "channel": 0, "note": 57, "velocity": 0, "time": 0, "type": "NormalMsg"}, "M_380": {"note_status": 1, "channel": 0, "note": 60, "velocity": 0, "time": 0, "type": "NormalMsg"}, "M_381": {"note_status": 1, "channel": 0, "note": 64, "velocity": 0, "time": 0, "type": "NormalMsg"}, "M_382": {"note_status": 1, "channel": 0, "note": 57, "velocity": 96, "time": 0, "type": "NormalMsg"}, "M_383": {"note_status": 1, "channel": 0, "note": 60, "velocity": 96, "time": 0, "type": "NormalMsg"}, "M_384": {"note_status": 1, "channel": 0, "note": 64, "velocity": 96, "time": 0, "type": "NormalMsg"}, "M_385": {"note_status": 1, "channel": 0, "note": 57, "velocity": 0, "time": 0, "type": "NormalMsg"}, "M_386": {"note_status": 1, "channel": 0, "note": 60, "velocity": 0, "time": 0, "type": "NormalMsg"}, "M_387": {"note_status": 1, "channel": 0, "note": 64, "velocity": 0, "time": 0, "type": "NormalMsg"}, "M_388": {"note_status": 1, "channel": 0, "note": 53, "velocity": 80, "time": 0, "type": "NormalMsg"}, "M_389": {"note_status": 1, "channel": 0, "note": 57, "velocity": 80, "time": 0, "type": "NormalMsg"}, "M_390": {"note_status": 1, "channel": 0, "note": 60, "velocity": 80, "time": 0, "type": "NormalMsg"}, "M_391": {"note_status": 1, "channel": 0, "note": 53, "velocity": 0, "time": 0, "type": "NormalMsg"}, "M_392": {"note_status": 1, "channel": 0, "note": 57, "velocity": 0, "time": 0, "type": "NormalMsg"}, "M_393": {"note_status": 1, "channel": 0, "note": 60, "velocity": 0, "time": 0, "type": "NormalMsg"}, "M_394": {"note_status": 1, "channel": 0, "note": 50, "velocity": 80, "time": 0, "type": "NormalMsg"}, "M_395": {"note_status": 1, "channel": 0, "note": 53, "velocity": 80, "time": 0, "type": "NormalMsg"}, "M_396": {"note_status": 1, "channel": 0, "note": 57, "velocity": 80, "time": 0, "type": "NormalMsg"}, "M_397": {"note_status": 1, "channel": 0, "note": 59, "velocity": 80, "time": 0, "type": "NormalMsg"}, "M_398": {"note_status": 1, "channel": 0, "note": 50, "velocity": 0, "time": 0, "type": "NormalMsg"}, "M_399": {"note_status": 1, "channel": 0, "note": 53, "velocity": 0, "time": 0, "type": "NormalMsg"}, "M_400": {"note_status": 1, "channel": 0, "note": 57, "velocity": 0, "time": 0, "type": "NormalMsg"}, "M_401": {"note_status": 1, "channel": 0, "note": 59, "velocity": 0, "time": 0, "type": "NormalMsg"}, "M_402": {"note_status": 1, "channel": 0, "note": 52, "velocity": 80, "time": 0, "type": "NormalMsg"}, "M_403": {"note_status": 1, "channel": 0, "note": 56, "velocity": 80, "time": 0, "type": "NormalMsg"}, "M_404": {"note_status": 1, "channel": 0, "note": 59, "velocity": 80, "time": 0, "type": "NormalMsg"}, "M_405": {"note_status": 1, "channel": 0, "note": 52, "velocity": 0, "time": 0, "type": "NormalMsg"}, "M_406": {"note_status": 1, "channel": 0, "note": 56, "velocity": 0, "time": 0, "type": "NormalMsg"}, "M_407": {"note_status": 1, "channel": 0, "note": 59, "velocity": 0, "time": 0, "type": "NormalMsg"}, "M_408": {"note_status": 1, "channel": 0, "note": 45, "velocity": 80, "time": 0, "type": "NormalMsg"}, "M_409": {"note_status": 1, "channel": 0, "note": 48, "velocity": 80, "time": 0, "type": "NormalMsg"}, "M_410": {"note_status": 1, "channel": 0, "note": 52, "velocity": 80, "time": 0, "type": "NormalMsg"}, "M_411": {"note_status": 1, "channel": 0, "note": 45, "velocity": 0, "time": 0, "type": "NormalMsg"}, "M_412": {"note_status": 1, "channel": 0, "note": 48, "velocity": 0, "time": 0, "type": "NormalMsg"}, "M_413": {"note_status": 1, "channel": 0, "note": 52, "velocity": 0, "time": 0, "type": "NormalMsg"}, "R_414": {"note_status": 0, "channel": 0, "note": 0, "velocity": 0, "time": 0, "type": "ResetMsg"}, "M_415": {"note_status": 1, "channel": 0, "note": 45, "velocity": 64, "time": 0, "type": "NormalMsg"}, "M_416": {"note_status": 1, "channel": 0, "note": 49, "velocity": 64, "time": 0, "type": "NormalMsg"}, "M_417": {"note_status": 1, "channel": 0, "note": 52, "velocity": 64, "time": 0, "type": "NormalMsg"}, "M_418": {"note_status": 1, "channel": 0, "note": 45, "velocity": 0, "time": 0, "type": "NormalMsg"}, "M_419": {"note_status": 1, "channel": 0, "note": 49, "velocity": 0, "time": 0, "type": "NormalMsg"}, "M_420": {"note_status": 1, "channel": 0, "note": 52, "velocity": 0, "time": 0, "type": "NormalMsg"}, "M_421": {"note_status": 1, "channel": 0, "note": 49, "velocity": 64, "time": 0, "type": "NormalMsg"}, "M_422": {"note_status": 1, "channel": 0, "note": 52, "velocity": 64, "time": 0, "type": "NormalMsg"}, "M_423": {"note_status": 1, "channel": 0, "note": 56, "velocity": 64, "time": 0, "type": "NormalMsg"}, "M_424": {"note_status": 1, "channel": 0, "note": 49, "velocity": 0, "time": 0, "type": "NormalMsg"}, "M_425": {"note_status": 1, "channel": 0, "note": 52, "velocity": 0, "time": 0, "type": "NormalMsg"}, "M_426": {"note_status": 1, "channel": 0, "note": 56, "velocity": 0, "time": 0, "type": "NormalMsg"}, "M_427": {"note_status": 1, "channel": 0, "note": 54, "velocity": 64, "time": 0, "type": "NormalMsg"}, "M_428": {"note_status": 1, "channel": 0, "note": 57, "velocity": 64, "time": 0, "type": "NormalMsg"}, "M_429": {"note_status": 1, "channel": 0, "note": 61, "velocity": 64, "time": 0, "type": "NormalMsg"}, "M_430": {"note_status": 1, "channel": 0, "note": 54, "velocity": 0, "time": 0, "type": "NormalMsg"}, "M_431": {"note_status": 1, "channel": 0, "note": 57, "velocity": 0, "time": 0, "type": "NormalMsg"}, "M_432": {"note_status": 1, "channel": 0, "note": 61, "velocity": 0, "time": 0, "type": "NormalMsg"}, "M_433": {"note_status": 1, "channel": 0, "note": 50, "velocity": 64, "time": 0, "type": "NormalMsg"}, "M_434": {"note_status": 1, "channel": 0, "note": 54, "velocity": 64, "time": 0, "type": "NormalMsg"}, "M_435": {"note_status": 1, "channel": 0, "note": 57, "velocity": 64, "time": 0, "type": "NormalMsg"}, "M_436": {"note_status": 1, "channel": 0, "note": 50, "velocity": 0, "time": 0, "type": "NormalMsg"}, "M_437": {"note_status": 1, "channel": 0, "note": 54, "velocity": 0, "time": 0, "type": "NormalMsg"}, "M_438": {"note_status": 1, "channel": 0, "note": 57, "velocity": 0, "time": 0, "type": "NormalMsg"}, "M_439": {"note_status": 1, "channel": 0, "note": 56, "velocity": 64, "time": 0, "type": "NormalMsg"}, "M_440": {"note_status": 1, "channel": 0, "note": 59, "velocity": 64, "time": 0, "type": "NormalMsg"}, "M_441": {"note_status": 1, "channel": 0, "note": 62, "velocity": 64, "time": 0, "type": "NormalMsg"}, "M_442": {"note_status": 1, "channel": 0, "note": 56, "velocity": 0, "time": 0, "type": "NormalMsg"}, "M_443": {"note_status": 1, "channel": 0, "note": 59, "velocity": 0, "time": 0, "type": "NormalMsg"}, "M_444": {"note_status": 1, "channel": 0, "note": 62, "velocity": 0, "time": 0, "type": "NormalMsg"}, "M_445": {"note_status": 1, "channel": 0, "note": 54, "velocity": 64, "time": 0, "type": "NormalMsg"}, "M_446": {"note_status": 1, "channel": 0, "note": 57, "velocity": 64, "time": 0, "type": "NormalMsg"}, "M_447": {"note_status": 1, "channel": 0, "note": 64, "velocity": 64, "time": 0, "type": "NormalMsg"}, "M_448": {"note_status": 1, "channel": 0, "note": 54, "velocity": 0, "time": 0, "type": "NormalMsg"}, "M_449": {"note_status": 1, "channel": 0, "note": 57, "velocity": 0, "time": 0, "type": "NormalMsg"}, "M_450": {"note_status": 1, "channel": 0, "note": 64, "velocity": 0, "time": 0, "type": "NormalMsg"}, "M_451": {"note_status": 1, "channel": 0, "note": 50, "velocity": 64, "time": 0, "type": "NormalMsg"}, "M_452": {"note_status": 1, "channel": 0, "note": 54, "velocity": 64, "time": 0, "type": "NormalMsg"}, "M_453": {"note_status": 1, "channel": 0, "note": 57, "velocity": 64, "time": 0, "type": "NormalMsg"}, "M_454": {"note_status": 1, "channel": 0, "note": 50, "velocity": 0, "time": 0, "type": "NormalMsg"}, "M_455": {"note_status": 1, "channel": 0, "note": 54, "velocity": 0, "time": 0, "type": "NormalMsg"}, "M_456": {"note_status": 1, "channel": 0, "note": 57, "velocity": 0, "time": 0, "type": "NormalMsg"}, "M_457": {"note_status": 1, "channel": 0, "note": 45, "velocity": 64, "time": 0, "type": "NormalMsg"}, "M_458": {"note_status": 1, "channel": 0, "note": 49, "velocity": 64, "time": 0, "type": "NormalMsg"}, "M_459": {"note_status": 1, "channel": 0, "note": 52, "velocity": 64, "time": 0, "type": "NormalMsg"}, "M_460": {"note_status": 1, "channel": 0, "note": 45, "velocity": 0, "time": 0, "type": "NormalMsg"}, "M_461": {"note_status": 1, "channel": 0, "note": 49, "velocity": 0, "time": 0, "type": "NormalMsg"}, "M_462": {"note_status": 1, "channel": 0, "note": 52, "velocity": 0, "time": 0, "type": "NormalMsg"}, "M_463": {"note_status": 1, "channel": 0, "note": 50, "velocity": 64, "time": 0, "type": "NormalMsg"}, "M_464": {"note_status": 1, "channel": 0, "note": 54, "velocity": 64, "time": 0, "type": "NormalMsg"}, "M_465": {"note_status": 1, "channel": 0, "note": 59, "velocity": 64, "time": 0, "type": "NormalMsg"}, "M_466": {"note_status": 1, "channel": 0, "note": 50, "velocity": 0, "time": 0, "type": "NormalMsg"}, "M_467": {"note_status": 1, "channel": 0, "note": 54, "velocity": 0, "time": 0, "type": "NormalMsg"}, "M_468": {"note_status": 1, "channel": 0, "note": 59, "velocity": 0, "time": 0, "type": "NormalMsg"}, "M_469": {"note_status": 1, "channel": 0, "note": 52, "velocity": 64, "time": 0, "type": "NormalMsg"}, "M_470": {"note_status": 1, "channel": 0, "note": 56, "velocity": 64, "time": 0, "type": "NormalMsg"}, "M_471": {"note_status": 1, "channel": 0, "note": 59, "velocity": 64, "time": 0, "type": "NormalMsg"}, "M_472": {"note_status": 1, "channel": 0, "note": 52, "velocity": 0, "time": 0, "type": "NormalMsg"}, "M_473": {"note_status": 1, "channel": 0, "note": 56, "velocity": 0, "time": 0, "type": "NormalMsg"}, "M_474": {"note_status": 1, "channel": 0, "note": 59, "velocity": 0, "time": 0, "type": "NormalMsg"}, "M_475": {"note_status": 1, "channel": 0, "note": 54, "velocity": 64, "time": 0, "type": "NormalMsg"}, "M_476": {"note_status": 1, "channel": 0, "note": 57, "velocity": 64, "time": 0, "type": "NormalMsg"}, "M_477": {"note_status": 1, "channel": 0, "note": 61, "velocity": 64, "time": 0, "type": "NormalMsg"}, "M_478": {"note_status": 1, "channel": 0, "note": 54, "velocity": 0, "time": 0, "type": "NormalMsg"}, "M_479": {"note_status": 1, "channel": 0, "note": 57, "velocity": 0, "time": 0, "type": "NormalMsg"}, "M_480": {"note_status": 1, "channel": 0, "note": 61, "velocity": 0, "time": 0, "type": "NormalMsg"}, "M_481": {"note_status": 1, "channel": 0, "note": 56, "velocity": 64, "time": 0, "type": "NormalMsg"}, "M_482": {"note_status": 1, "channel": 0, "note": 59, "velocity": 64, "time": 0, "type": "NormalMsg"}, "M_483": {"note_status": 1, "channel": 0, "note": 62, "velocity": 64, "time": 0, "type": "NormalMsg"}, "M_484": {"note_status": 1, "channel": 0, "note": 56, "velocity": 0, "time": 0, "type": "NormalMsg"}, "M_485": {"note_status": 1, "channel": 0, "note": 59, "velocity": 0, "time": 0, "type": "NormalMsg"}, "M_486": {"note_status": 1, "channel": 0, "note": 62, "velocity": 0, "time": 0, "type": "NormalMsg"}, "M_487": {"note_status": 1, "channel": 0, "note": 45, "velocity": 64, "time": 0, "type": "NormalMsg"}, "M_488": {"note_status": 1, "channel": 0, "note": 49, "velocity": 64, "time": 0, "type": "NormalMsg"}, "M_489": {"note_status": 1, "channel": 0, "note": 52, "velocity": 64, "time": 0, "type": "NormalMsg"}, "M_490": {"note_status": 1, "channel": 0, "note": 45, "velocity": 0, "time": 0, "type": "NormalMsg"}, "M_491": {"note_status": 1, "channel": 0, "note": 49, "velocity": 0, "time": 0, "type": "NormalMsg"}, "M_492": {"note_status": 1, "channel": 0, "note": 52, "velocity": 0, "time": 0, "type": "NormalMsg"}, "M_493": {"note_status": 1, "channel": 0, "note": 52, "velocity": 64, "time": 0, "type": "NormalMsg"}, "M_494": {"note_status": 1, "channel": 0, "note": 56, "velocity": 64, "time": 0, "type": "NormalMsg"}, "M_495": {"note_status": 1, "channel": 0, "note": 59, "velocity": 64, "time": 0, "type": "NormalMsg"}, "M_496": {"note_status": 1, "channel": 0, "note": 52, "velocity": 0, "time": 0, "type": "NormalMsg"}, "M_497": {"note_status": 1, "channel": 0, "note": 56, "velocity": 0, "time": 0, "type": "NormalMsg"}, "M_498": {"note_status": 1, "channel": 0, "note": 59, "velocity": 0, "time": 0, "type": "NormalMsg"}, "M_499": {"note_status": 1, "channel": 0, "note": 54, "velocity": 64, "time": 0, "type": "NormalMsg"}, "M_500": {"note_status": 1, "channel": 0, "note": 57, "velocity": 64, "time": 0, "type": "NormalMsg"}, "M_501": {"note_status": 1, "channel": 0, "note": 61, "velocity": 64, "time": 0, "type": "NormalMsg"}, "M_502": {"note_status": 1, "channel": 0, "note": 54, "velocity": 0, "time": 0, "type": "NormalMsg"}, "M_503": {"note_status": 1, "channel": 0, "note": 57, "velocity": 0, "time": 0, "type": "NormalMsg"}, "M_504": {"note_status": 1, "channel": 0, "note": 61, "velocity": 0, "time": 0, "type": "NormalMsg"}, "M_505": {"note_status": 1, "channel": 0, "note": 56, "velocity": 64, "time": 0, "type": "NormalMsg"}, "M_506": {"note_status": 1, "channel": 0, "note": 59, "velocity": 64, "time": 0, "type": "NormalMsg"}, "M_507": {"note_status": 1, "channel": 0, "note": 62, "velocity": 64, "time": 0, "type": "NormalMsg"}, "M_508": {"note_status": 1, "channel": 0, "note": 56, "velocity": 0, "time": 0, "type": "NormalMsg"}, "M_509": {"note_status": 1, "channel": 0, "note": 59, "velocity": 0, "time": 0, "type": "NormalMsg"}, "M_510": {"note_status": 1, "channel": 0, "note": 62, "velocity": 0, "time": 0, "type": "NormalMsg"}, "M_511": {"note_status": 1, "channel": 0, "note": 54, "velocity": 64, "time": 0, "type": "NormalMsg"}, "M_512": {"note_status": 1, "channel": 0, "note": 57, "velocity": 64, "time": 0, "type": "NormalMsg"}, "M_513": {"note_status": 1, "channel": 0, "note": 61, "velocity": 64, "time": 0, "type": "NormalMsg"}, "M_514": {"note_status": 1, "channel": 0, "note": 54, "velocity": 0, "time": 0, "type": "NormalMsg"}, "M_515": {"note_status": 1, "channel": 0, "note": 57, "velocity": 0, "time": 0, "type": "NormalMsg"}, "M_516": {"note_status": 1, "channel": 0, "note": 61, "velocity": 0, "time": 0, "type": "NormalMsg"}, "M_517": {"note_status": 1, "channel": 0, "note": 52, "velocity": 64, "time": 0, "type": "NormalMsg"}, "M_518": {"note_status": 1, "channel": 0, "note": 56, "velocity": 64, "time": 0, "type": "NormalMsg"}, "M_519": {"note_status": 1, "channel": 0, "note": 59, "velocity": 64, "time": 0, "type": "NormalMsg"}, "M_520": {"note_status": 1, "channel": 0, "note": 52, "velocity": 0, "time": 0, "type": "NormalMsg"}, "M_521": {"note_status": 1, "channel": 0, "note": 56, "velocity": 0, "time": 0, "type": "NormalMsg"}, "M_522": {"note_status": 1, "channel": 0, "note": 59, "velocity": 0, "time": 0, "type": "NormalMsg"}, "M_523": {"note_status": 1, "channel": 0, "note": 45, "velocity": 49, "time": 0, "type": "NormalMsg"}, "M_524": {"note_status": 1, "channel": 0, "note": 49, "velocity": 49, "time": 0, "type": "NormalMsg"}, "M_525": {"note_status": 1, "channel": 0, "note": 52, "velocity": 49, "time": 0, "type": "NormalMsg"}, "M_526": {"note_status": 1, "channel": 0, "note": 45, "velocity": 0, "time": 0, "type": "NormalMsg"}, "M_527": {"note_status": 1, "channel": 0, "note": 49, "velocity": 0, "time": 0, "type": "NormalMsg"}, "M_528": {"note_status": 1, "channel": 0, "note": 52, "velocity": 0, "time": 0, "type": "NormalMsg"}, "R_529": {"note_status": 0, "channel": 0, "note": 0, "velocity": 0, "time": 0, "type": "ResetMsg"}}